G04 #@! TF.GenerationSoftware,KiCad,Pcbnew,9.0.0*
G04 #@! TF.CreationDate,2025-08-17T11:06:40-05:00*
G04 #@! TF.ProjectId,silver-platter,73696c76-6572-42d7-906c-61747465722e,rev?*
G04 #@! TF.SameCoordinates,Original*
G04 #@! TF.FileFunction,Copper,L3,Inr*
G04 #@! TF.FilePolarity,Positive*
%FSLAX46Y46*%
G04 Gerber Fmt 4.6, Leading zero omitted, Abs format (unit mm)*
G04 Created by KiCad (PCBNEW 9.0.0) date 2025-08-17 11:06:40*
%MOMM*%
%LPD*%
G01*
G04 APERTURE LIST*
G04 #@! TA.AperFunction,ComponentPad*
%ADD10C,2.000000*%
G04 #@! TD*
G04 #@! TA.AperFunction,ComponentPad*
%ADD11R,1.700000X1.700000*%
G04 #@! TD*
G04 #@! TA.AperFunction,ComponentPad*
%ADD12O,1.700000X1.700000*%
G04 #@! TD*
G04 #@! TA.AperFunction,ViaPad*
%ADD13C,0.600000*%
G04 #@! TD*
G04 APERTURE END LIST*
D10*
X136470000Y-96520000D03*
X136470000Y-90020000D03*
X140970000Y-96520000D03*
X140970000Y-90020000D03*
X180594000Y-91186000D03*
X183134000Y-91186000D03*
X180594000Y-93726000D03*
X183134000Y-93726000D03*
X180594000Y-96266000D03*
X183134000Y-96266000D03*
X180594000Y-98806000D03*
X183134000Y-98806000D03*
X180594000Y-101346000D03*
X183134000Y-101346000D03*
X180594000Y-103886000D03*
X183134000Y-103886000D03*
X180594000Y-106426000D03*
X183134000Y-106426000D03*
X180594000Y-108966000D03*
X183134000Y-108966000D03*
X180594000Y-111506000D03*
X183134000Y-111506000D03*
X180594000Y-114046000D03*
X183134000Y-114046000D03*
D11*
X175260000Y-122682000D03*
D12*
X177800000Y-122682000D03*
X180340000Y-122682000D03*
X182880000Y-122682000D03*
D11*
X146812000Y-92964000D03*
D12*
X146812000Y-90424000D03*
D13*
X143510000Y-94488000D03*
X133350000Y-121920000D03*
X147881000Y-98298000D03*
X150876000Y-114554000D03*
X144272000Y-110744000D03*
X158750000Y-101346000D03*
X168148000Y-96012000D03*
X137668000Y-100483500D03*
X157633500Y-113030000D03*
X142494000Y-102870000D03*
X144526000Y-102870000D03*
X142494000Y-107087500D03*
X153767000Y-87000000D03*
X132307500Y-78766500D03*
X149151000Y-114554000D03*
X149606000Y-93980000D03*
X144526000Y-101145000D03*
X132541000Y-112014000D03*
X169545000Y-90805000D03*
X173736000Y-102616000D03*
X153977000Y-114554000D03*
X184150000Y-83312000D03*
X142494000Y-101145000D03*
X137160000Y-109855000D03*
X173736000Y-96012000D03*
X144526000Y-107087500D03*
X158750000Y-99621000D03*
X185928000Y-102616000D03*
X173736000Y-99314000D03*
X120015000Y-99695000D03*
X127635000Y-121920000D03*
X166370000Y-77470000D03*
X186182000Y-122682000D03*
X139954000Y-107542500D03*
X135890000Y-104140000D03*
X135128000Y-104140000D03*
X172085000Y-119380000D03*
X126365000Y-89535000D03*
X149606000Y-98298000D03*
X152400000Y-77470000D03*
X131545500Y-78766500D03*
X162500000Y-87000000D03*
X152400000Y-121920000D03*
X158182000Y-87000000D03*
X159358500Y-113030000D03*
X173355000Y-111760000D03*
X121920000Y-121920000D03*
X180340000Y-77470000D03*
X160528000Y-101653000D03*
X153162000Y-106426000D03*
X170434000Y-107950000D03*
X121920000Y-106680000D03*
X136117500Y-86894500D03*
X131826000Y-100536500D03*
X184150000Y-77470000D03*
X135355500Y-86894500D03*
X133615000Y-103023500D03*
X163322000Y-106172000D03*
X164338000Y-104394000D03*
X174752000Y-101346000D03*
X161290000Y-98298000D03*
X170434000Y-105410000D03*
X153162000Y-102870000D03*
G04 #@! TA.AperFunction,Conductor*
G36*
X153449538Y-87390352D02*
G01*
X153459686Y-87400500D01*
X153501457Y-87424617D01*
X153573811Y-87466391D01*
X153573813Y-87466391D01*
X153573814Y-87466392D01*
X153674207Y-87493292D01*
X153701104Y-87500499D01*
X153701105Y-87500500D01*
X153701108Y-87500500D01*
X153832895Y-87500500D01*
X153832895Y-87500499D01*
X153960186Y-87466392D01*
X154074314Y-87400500D01*
X154084462Y-87390352D01*
X154119110Y-87376000D01*
X157829890Y-87376000D01*
X157864538Y-87390352D01*
X157874686Y-87400500D01*
X157916457Y-87424617D01*
X157988811Y-87466391D01*
X157988813Y-87466391D01*
X157988814Y-87466392D01*
X158089207Y-87493292D01*
X158116104Y-87500499D01*
X158116105Y-87500500D01*
X158116108Y-87500500D01*
X158247895Y-87500500D01*
X158247895Y-87500499D01*
X158375186Y-87466392D01*
X158489314Y-87400500D01*
X158499462Y-87390352D01*
X158534110Y-87376000D01*
X162147890Y-87376000D01*
X162182538Y-87390352D01*
X162192686Y-87400500D01*
X162234457Y-87424617D01*
X162306811Y-87466391D01*
X162306813Y-87466391D01*
X162306814Y-87466392D01*
X162407207Y-87493292D01*
X162434104Y-87500499D01*
X162434105Y-87500500D01*
X162434108Y-87500500D01*
X162565895Y-87500500D01*
X162565895Y-87500499D01*
X162693186Y-87466392D01*
X162807314Y-87400500D01*
X162817462Y-87390352D01*
X162852110Y-87376000D01*
X184355000Y-87376000D01*
X184389648Y-87390352D01*
X184404000Y-87425000D01*
X184404000Y-90267611D01*
X184389648Y-90302259D01*
X184358315Y-90315237D01*
X183657787Y-91015765D01*
X183646518Y-90973708D01*
X183574110Y-90848292D01*
X183471708Y-90745890D01*
X183346292Y-90673482D01*
X183304232Y-90662211D01*
X184003105Y-89963339D01*
X183920168Y-89903083D01*
X183709801Y-89795896D01*
X183485251Y-89722935D01*
X183485248Y-89722934D01*
X183252052Y-89686000D01*
X183015948Y-89686000D01*
X182782751Y-89722934D01*
X182782748Y-89722935D01*
X182558198Y-89795896D01*
X182347831Y-89903083D01*
X182347822Y-89903088D01*
X182264893Y-89963339D01*
X182963766Y-90662212D01*
X182921708Y-90673482D01*
X182796292Y-90745890D01*
X182693890Y-90848292D01*
X182621482Y-90973708D01*
X182610212Y-91015766D01*
X181911340Y-90316894D01*
X181903642Y-90327490D01*
X181871665Y-90347086D01*
X181835199Y-90338331D01*
X181824358Y-90327491D01*
X181816658Y-90316894D01*
X181117787Y-91015765D01*
X181106518Y-90973708D01*
X181034110Y-90848292D01*
X180931708Y-90745890D01*
X180806292Y-90673482D01*
X180764232Y-90662211D01*
X181463105Y-89963339D01*
X181380168Y-89903083D01*
X181169801Y-89795896D01*
X180945251Y-89722935D01*
X180945248Y-89722934D01*
X180712052Y-89686000D01*
X180475948Y-89686000D01*
X180242751Y-89722934D01*
X180242748Y-89722935D01*
X180018198Y-89795896D01*
X179807831Y-89903083D01*
X179807822Y-89903088D01*
X179724893Y-89963339D01*
X180423766Y-90662212D01*
X180381708Y-90673482D01*
X180256292Y-90745890D01*
X180153890Y-90848292D01*
X180081482Y-90973708D01*
X180070212Y-91015766D01*
X179371339Y-90316893D01*
X179311088Y-90399822D01*
X179311083Y-90399831D01*
X179203896Y-90610198D01*
X179130935Y-90834748D01*
X179130934Y-90834751D01*
X179094000Y-91067947D01*
X179094000Y-91304052D01*
X179130934Y-91537248D01*
X179130935Y-91537251D01*
X179203896Y-91761801D01*
X179311083Y-91972168D01*
X179371339Y-92055105D01*
X180070212Y-91356233D01*
X180081482Y-91398292D01*
X180153890Y-91523708D01*
X180256292Y-91626110D01*
X180381708Y-91698518D01*
X180423766Y-91709787D01*
X179724893Y-92408659D01*
X179807831Y-92468916D01*
X180018198Y-92576103D01*
X180020653Y-92576901D01*
X180049171Y-92601258D01*
X180052113Y-92638645D01*
X180027757Y-92667162D01*
X179964804Y-92699238D01*
X179811920Y-92810315D01*
X179678315Y-92943920D01*
X179567236Y-93096806D01*
X179481453Y-93265166D01*
X179423060Y-93444881D01*
X179423059Y-93444884D01*
X179393500Y-93631519D01*
X179393500Y-93820480D01*
X179423059Y-94007115D01*
X179423060Y-94007118D01*
X179481453Y-94186833D01*
X179567236Y-94355193D01*
X179567239Y-94355197D01*
X179567240Y-94355199D01*
X179678310Y-94508073D01*
X179678312Y-94508075D01*
X179678315Y-94508079D01*
X179811920Y-94641684D01*
X179811923Y-94641686D01*
X179811927Y-94641690D01*
X179964801Y-94752760D01*
X179964803Y-94752761D01*
X179964806Y-94752763D01*
X180048318Y-94795314D01*
X180133168Y-94838547D01*
X180312882Y-94896940D01*
X180499519Y-94926500D01*
X180499520Y-94926500D01*
X180688480Y-94926500D01*
X180688481Y-94926500D01*
X180875118Y-94896940D01*
X181054832Y-94838547D01*
X181223199Y-94752760D01*
X181376073Y-94641690D01*
X181509690Y-94508073D01*
X181620760Y-94355199D01*
X181706547Y-94186832D01*
X181764940Y-94007118D01*
X181794500Y-93820481D01*
X181794500Y-93631519D01*
X181764940Y-93444882D01*
X181706547Y-93265168D01*
X181620760Y-93096801D01*
X181509690Y-92943927D01*
X181509686Y-92943923D01*
X181509684Y-92943920D01*
X181376079Y-92810315D01*
X181376080Y-92810315D01*
X181362853Y-92800705D01*
X181223199Y-92699240D01*
X181160241Y-92667161D01*
X181135886Y-92638645D01*
X181138829Y-92601257D01*
X181167346Y-92576901D01*
X181167349Y-92576900D01*
X181169802Y-92576103D01*
X181380165Y-92468918D01*
X181463104Y-92408658D01*
X180764233Y-91709787D01*
X180806292Y-91698518D01*
X180931708Y-91626110D01*
X181034110Y-91523708D01*
X181106518Y-91398292D01*
X181117787Y-91356233D01*
X181816658Y-92055104D01*
X181824358Y-92044508D01*
X181856334Y-92024912D01*
X181892801Y-92033667D01*
X181903642Y-92044508D01*
X181911340Y-92055104D01*
X182610212Y-91356233D01*
X182621482Y-91398292D01*
X182693890Y-91523708D01*
X182796292Y-91626110D01*
X182921708Y-91698518D01*
X182963766Y-91709787D01*
X182264893Y-92408659D01*
X182347831Y-92468916D01*
X182558198Y-92576103D01*
X182560653Y-92576901D01*
X182589171Y-92601258D01*
X182592113Y-92638645D01*
X182567757Y-92667162D01*
X182504804Y-92699238D01*
X182351920Y-92810315D01*
X182218315Y-92943920D01*
X182107236Y-93096806D01*
X182021453Y-93265166D01*
X181963060Y-93444881D01*
X181963059Y-93444884D01*
X181933500Y-93631519D01*
X181933500Y-93820480D01*
X181963059Y-94007115D01*
X181963060Y-94007118D01*
X182021453Y-94186833D01*
X182107236Y-94355193D01*
X182107239Y-94355197D01*
X182107240Y-94355199D01*
X182218310Y-94508073D01*
X182218312Y-94508075D01*
X182218315Y-94508079D01*
X182351920Y-94641684D01*
X182351923Y-94641686D01*
X182351927Y-94641690D01*
X182504801Y-94752760D01*
X182504803Y-94752761D01*
X182504806Y-94752763D01*
X182588318Y-94795314D01*
X182673168Y-94838547D01*
X182852882Y-94896940D01*
X183039519Y-94926500D01*
X183039520Y-94926500D01*
X183228480Y-94926500D01*
X183228481Y-94926500D01*
X183415118Y-94896940D01*
X183594832Y-94838547D01*
X183763199Y-94752760D01*
X183916073Y-94641690D01*
X184049690Y-94508073D01*
X184160760Y-94355199D01*
X184246547Y-94186832D01*
X184304940Y-94007118D01*
X184306603Y-93996619D01*
X184326198Y-93964642D01*
X184362665Y-93955887D01*
X184394642Y-93975482D01*
X184404000Y-94004284D01*
X184404000Y-95987715D01*
X184389648Y-96022363D01*
X184355000Y-96036715D01*
X184320352Y-96022363D01*
X184306603Y-95995380D01*
X184304940Y-95984884D01*
X184304940Y-95984882D01*
X184246547Y-95805168D01*
X184160760Y-95636801D01*
X184049690Y-95483927D01*
X184049686Y-95483923D01*
X184049684Y-95483920D01*
X183916079Y-95350315D01*
X183916080Y-95350315D01*
X183763193Y-95239236D01*
X183594833Y-95153453D01*
X183415118Y-95095060D01*
X183415115Y-95095059D01*
X183271744Y-95072352D01*
X183228481Y-95065500D01*
X183039519Y-95065500D01*
X183004397Y-95071062D01*
X182852884Y-95095059D01*
X182852881Y-95095060D01*
X182673166Y-95153453D01*
X182504806Y-95239236D01*
X182351920Y-95350315D01*
X182218315Y-95483920D01*
X182107236Y-95636806D01*
X182021453Y-95805166D01*
X181963060Y-95984881D01*
X181963059Y-95984884D01*
X181933500Y-96171519D01*
X181933500Y-96360480D01*
X181963059Y-96547115D01*
X181963060Y-96547118D01*
X182021453Y-96726833D01*
X182107236Y-96895193D01*
X182107239Y-96895197D01*
X182107240Y-96895199D01*
X182218310Y-97048073D01*
X182218312Y-97048075D01*
X182218315Y-97048079D01*
X182351920Y-97181684D01*
X182351923Y-97181686D01*
X182351927Y-97181690D01*
X182504801Y-97292760D01*
X182504803Y-97292761D01*
X182504806Y-97292763D01*
X182673166Y-97378546D01*
X182673168Y-97378547D01*
X182852882Y-97436940D01*
X183039519Y-97466500D01*
X183039520Y-97466500D01*
X183228480Y-97466500D01*
X183228481Y-97466500D01*
X183415118Y-97436940D01*
X183594832Y-97378547D01*
X183763199Y-97292760D01*
X183916073Y-97181690D01*
X184049690Y-97048073D01*
X184160760Y-96895199D01*
X184246547Y-96726832D01*
X184304940Y-96547118D01*
X184306603Y-96536619D01*
X184326198Y-96504642D01*
X184362665Y-96495887D01*
X184394642Y-96515482D01*
X184404000Y-96544284D01*
X184404000Y-98527715D01*
X184389648Y-98562363D01*
X184355000Y-98576715D01*
X184320352Y-98562363D01*
X184306603Y-98535380D01*
X184304940Y-98524884D01*
X184304940Y-98524882D01*
X184246547Y-98345168D01*
X184246546Y-98345166D01*
X184160763Y-98176806D01*
X184160761Y-98176803D01*
X184160760Y-98176801D01*
X184049690Y-98023927D01*
X184049686Y-98023923D01*
X184049684Y-98023920D01*
X183916079Y-97890315D01*
X183916080Y-97890315D01*
X183835277Y-97831608D01*
X183763199Y-97779240D01*
X183763197Y-97779239D01*
X183763193Y-97779236D01*
X183594833Y-97693453D01*
X183415118Y-97635060D01*
X183415115Y-97635059D01*
X183271744Y-97612352D01*
X183228481Y-97605500D01*
X183039519Y-97605500D01*
X183004397Y-97611062D01*
X182852884Y-97635059D01*
X182852881Y-97635060D01*
X182673166Y-97693453D01*
X182504806Y-97779236D01*
X182351920Y-97890315D01*
X182218315Y-98023920D01*
X182107236Y-98176806D01*
X182021453Y-98345166D01*
X181963060Y-98524881D01*
X181963059Y-98524884D01*
X181933500Y-98711519D01*
X181933500Y-98900480D01*
X181963059Y-99087115D01*
X181963060Y-99087118D01*
X182021453Y-99266833D01*
X182107236Y-99435193D01*
X182107239Y-99435197D01*
X182107240Y-99435199D01*
X182218310Y-99588073D01*
X182218312Y-99588075D01*
X182218315Y-99588079D01*
X182351920Y-99721684D01*
X182351923Y-99721686D01*
X182351927Y-99721690D01*
X182504801Y-99832760D01*
X182504803Y-99832761D01*
X182504806Y-99832763D01*
X182673166Y-99918546D01*
X182673168Y-99918547D01*
X182852882Y-99976940D01*
X183039519Y-100006500D01*
X183039520Y-100006500D01*
X183228480Y-100006500D01*
X183228481Y-100006500D01*
X183415118Y-99976940D01*
X183594832Y-99918547D01*
X183763199Y-99832760D01*
X183916073Y-99721690D01*
X184049690Y-99588073D01*
X184160760Y-99435199D01*
X184246547Y-99266832D01*
X184304940Y-99087118D01*
X184306603Y-99076619D01*
X184326198Y-99044642D01*
X184362665Y-99035887D01*
X184394642Y-99055482D01*
X184404000Y-99084284D01*
X184404000Y-101067715D01*
X184389648Y-101102363D01*
X184355000Y-101116715D01*
X184320352Y-101102363D01*
X184306603Y-101075380D01*
X184304940Y-101064884D01*
X184304940Y-101064882D01*
X184246547Y-100885168D01*
X184174874Y-100744501D01*
X184160763Y-100716806D01*
X184160761Y-100716803D01*
X184160760Y-100716801D01*
X184049690Y-100563927D01*
X184049686Y-100563923D01*
X184049684Y-100563920D01*
X183916079Y-100430315D01*
X183916080Y-100430315D01*
X183886600Y-100408897D01*
X183763199Y-100319240D01*
X183763197Y-100319239D01*
X183763193Y-100319236D01*
X183594833Y-100233453D01*
X183415118Y-100175060D01*
X183415115Y-100175059D01*
X183271744Y-100152352D01*
X183228481Y-100145500D01*
X183039519Y-100145500D01*
X183004397Y-100151062D01*
X182852884Y-100175059D01*
X182852881Y-100175060D01*
X182673166Y-100233453D01*
X182504806Y-100319236D01*
X182351920Y-100430315D01*
X182218315Y-100563920D01*
X182107236Y-100716806D01*
X182021453Y-100885166D01*
X181963060Y-101064881D01*
X181963059Y-101064884D01*
X181933500Y-101251519D01*
X181933500Y-101440480D01*
X181963059Y-101627115D01*
X181963060Y-101627118D01*
X182021453Y-101806833D01*
X182107236Y-101975193D01*
X182107239Y-101975197D01*
X182107240Y-101975199D01*
X182218310Y-102128073D01*
X182218312Y-102128075D01*
X182218315Y-102128079D01*
X182351920Y-102261684D01*
X182351923Y-102261686D01*
X182351927Y-102261690D01*
X182504801Y-102372760D01*
X182504803Y-102372761D01*
X182504806Y-102372763D01*
X182673166Y-102458546D01*
X182673168Y-102458547D01*
X182852882Y-102516940D01*
X183039519Y-102546500D01*
X183039520Y-102546500D01*
X183228480Y-102546500D01*
X183228481Y-102546500D01*
X183415118Y-102516940D01*
X183594832Y-102458547D01*
X183763199Y-102372760D01*
X183916073Y-102261690D01*
X184049690Y-102128073D01*
X184160760Y-101975199D01*
X184246547Y-101806832D01*
X184304940Y-101627118D01*
X184306603Y-101616619D01*
X184326198Y-101584642D01*
X184362665Y-101575887D01*
X184394642Y-101595482D01*
X184404000Y-101624284D01*
X184404000Y-103607715D01*
X184389648Y-103642363D01*
X184355000Y-103656715D01*
X184320352Y-103642363D01*
X184306603Y-103615380D01*
X184304940Y-103604884D01*
X184304940Y-103604882D01*
X184246547Y-103425168D01*
X184245952Y-103424000D01*
X184160763Y-103256806D01*
X184160761Y-103256803D01*
X184160760Y-103256801D01*
X184049690Y-103103927D01*
X184049686Y-103103923D01*
X184049684Y-103103920D01*
X183916079Y-102970315D01*
X183916080Y-102970315D01*
X183763193Y-102859236D01*
X183594833Y-102773453D01*
X183415118Y-102715060D01*
X183415115Y-102715059D01*
X183271744Y-102692352D01*
X183228481Y-102685500D01*
X183039519Y-102685500D01*
X183004397Y-102691062D01*
X182852884Y-102715059D01*
X182852881Y-102715060D01*
X182673166Y-102773453D01*
X182504806Y-102859236D01*
X182351920Y-102970315D01*
X182218315Y-103103920D01*
X182107236Y-103256806D01*
X182021453Y-103425166D01*
X181963060Y-103604881D01*
X181963059Y-103604884D01*
X181933500Y-103791519D01*
X181933500Y-103980480D01*
X181963059Y-104167115D01*
X181963060Y-104167118D01*
X182021453Y-104346833D01*
X182107236Y-104515193D01*
X182107239Y-104515197D01*
X182107240Y-104515199D01*
X182218310Y-104668073D01*
X182218312Y-104668075D01*
X182218315Y-104668079D01*
X182351920Y-104801684D01*
X182351923Y-104801686D01*
X182351927Y-104801690D01*
X182504801Y-104912760D01*
X182504803Y-104912761D01*
X182504806Y-104912763D01*
X182673166Y-104998546D01*
X182673168Y-104998547D01*
X182852882Y-105056940D01*
X183039519Y-105086500D01*
X183039520Y-105086500D01*
X183228480Y-105086500D01*
X183228481Y-105086500D01*
X183415118Y-105056940D01*
X183594832Y-104998547D01*
X183763199Y-104912760D01*
X183916073Y-104801690D01*
X184049690Y-104668073D01*
X184160760Y-104515199D01*
X184246547Y-104346832D01*
X184304940Y-104167118D01*
X184306603Y-104156619D01*
X184326198Y-104124642D01*
X184362665Y-104115887D01*
X184394642Y-104135482D01*
X184404000Y-104164284D01*
X184404000Y-106147715D01*
X184389648Y-106182363D01*
X184355000Y-106196715D01*
X184320352Y-106182363D01*
X184306603Y-106155380D01*
X184304940Y-106144884D01*
X184304940Y-106144882D01*
X184246547Y-105965168D01*
X184226335Y-105925500D01*
X184160763Y-105796806D01*
X184160761Y-105796803D01*
X184160760Y-105796801D01*
X184049690Y-105643927D01*
X184049686Y-105643923D01*
X184049684Y-105643920D01*
X183916079Y-105510315D01*
X183916080Y-105510315D01*
X183763193Y-105399236D01*
X183594833Y-105313453D01*
X183415118Y-105255060D01*
X183415115Y-105255059D01*
X183271744Y-105232352D01*
X183228481Y-105225500D01*
X183039519Y-105225500D01*
X183004397Y-105231062D01*
X182852884Y-105255059D01*
X182852881Y-105255060D01*
X182673166Y-105313453D01*
X182504806Y-105399236D01*
X182351920Y-105510315D01*
X182218315Y-105643920D01*
X182107236Y-105796806D01*
X182021453Y-105965166D01*
X181963060Y-106144881D01*
X181963059Y-106144884D01*
X181933500Y-106331519D01*
X181933500Y-106520480D01*
X181963059Y-106707115D01*
X181963060Y-106707118D01*
X182021453Y-106886833D01*
X182107236Y-107055193D01*
X182107239Y-107055197D01*
X182107240Y-107055199D01*
X182218310Y-107208073D01*
X182218312Y-107208075D01*
X182218315Y-107208079D01*
X182351920Y-107341684D01*
X182351923Y-107341686D01*
X182351927Y-107341690D01*
X182504801Y-107452760D01*
X182504803Y-107452761D01*
X182504806Y-107452763D01*
X182673166Y-107538546D01*
X182673168Y-107538547D01*
X182852882Y-107596940D01*
X183039519Y-107626500D01*
X183039520Y-107626500D01*
X183228480Y-107626500D01*
X183228481Y-107626500D01*
X183415118Y-107596940D01*
X183594832Y-107538547D01*
X183763199Y-107452760D01*
X183916073Y-107341690D01*
X184049690Y-107208073D01*
X184160760Y-107055199D01*
X184246547Y-106886832D01*
X184304940Y-106707118D01*
X184306603Y-106696619D01*
X184326198Y-106664642D01*
X184362665Y-106655887D01*
X184394642Y-106675482D01*
X184404000Y-106704284D01*
X184404000Y-108687715D01*
X184389648Y-108722363D01*
X184355000Y-108736715D01*
X184320352Y-108722363D01*
X184306603Y-108695380D01*
X184304940Y-108684884D01*
X184304940Y-108684882D01*
X184246547Y-108505168D01*
X184246546Y-108505166D01*
X184160763Y-108336806D01*
X184160761Y-108336803D01*
X184160760Y-108336801D01*
X184049690Y-108183927D01*
X184049686Y-108183923D01*
X184049684Y-108183920D01*
X183916079Y-108050315D01*
X183916080Y-108050315D01*
X183768374Y-107943000D01*
X183763199Y-107939240D01*
X183763197Y-107939239D01*
X183763193Y-107939236D01*
X183594833Y-107853453D01*
X183415118Y-107795060D01*
X183415115Y-107795059D01*
X183271744Y-107772352D01*
X183228481Y-107765500D01*
X183039519Y-107765500D01*
X183004397Y-107771062D01*
X182852884Y-107795059D01*
X182852881Y-107795060D01*
X182673166Y-107853453D01*
X182504806Y-107939236D01*
X182351920Y-108050315D01*
X182218315Y-108183920D01*
X182107236Y-108336806D01*
X182021453Y-108505166D01*
X181963060Y-108684881D01*
X181963059Y-108684884D01*
X181933500Y-108871519D01*
X181933500Y-109060480D01*
X181963059Y-109247115D01*
X181963060Y-109247118D01*
X182021453Y-109426833D01*
X182107236Y-109595193D01*
X182107239Y-109595197D01*
X182107240Y-109595199D01*
X182218310Y-109748073D01*
X182218312Y-109748075D01*
X182218315Y-109748079D01*
X182351920Y-109881684D01*
X182351923Y-109881686D01*
X182351927Y-109881690D01*
X182504801Y-109992760D01*
X182504803Y-109992761D01*
X182504806Y-109992763D01*
X182613577Y-110048184D01*
X182673168Y-110078547D01*
X182852882Y-110136940D01*
X183039519Y-110166500D01*
X183039520Y-110166500D01*
X183228480Y-110166500D01*
X183228481Y-110166500D01*
X183415118Y-110136940D01*
X183594832Y-110078547D01*
X183763199Y-109992760D01*
X183916073Y-109881690D01*
X184049690Y-109748073D01*
X184160760Y-109595199D01*
X184246547Y-109426832D01*
X184304940Y-109247118D01*
X184306603Y-109236619D01*
X184326198Y-109204642D01*
X184362665Y-109195887D01*
X184394642Y-109215482D01*
X184404000Y-109244284D01*
X184404000Y-111227715D01*
X184389648Y-111262363D01*
X184355000Y-111276715D01*
X184320352Y-111262363D01*
X184306603Y-111235380D01*
X184304940Y-111224884D01*
X184304940Y-111224882D01*
X184246547Y-111045168D01*
X184160760Y-110876801D01*
X184049690Y-110723927D01*
X184049686Y-110723923D01*
X184049684Y-110723920D01*
X183916079Y-110590315D01*
X183916080Y-110590315D01*
X183763193Y-110479236D01*
X183594833Y-110393453D01*
X183415118Y-110335060D01*
X183415115Y-110335059D01*
X183271744Y-110312352D01*
X183228481Y-110305500D01*
X183039519Y-110305500D01*
X183004397Y-110311062D01*
X182852884Y-110335059D01*
X182852881Y-110335060D01*
X182673166Y-110393453D01*
X182504806Y-110479236D01*
X182351920Y-110590315D01*
X182218315Y-110723920D01*
X182107236Y-110876806D01*
X182021453Y-111045166D01*
X181963060Y-111224881D01*
X181963059Y-111224884D01*
X181933500Y-111411519D01*
X181933500Y-111600480D01*
X181963059Y-111787115D01*
X181963060Y-111787118D01*
X182021453Y-111966833D01*
X182107236Y-112135193D01*
X182107239Y-112135197D01*
X182107240Y-112135199D01*
X182218310Y-112288073D01*
X182218312Y-112288075D01*
X182218315Y-112288079D01*
X182351920Y-112421684D01*
X182351923Y-112421686D01*
X182351927Y-112421690D01*
X182504801Y-112532760D01*
X182504803Y-112532761D01*
X182504806Y-112532763D01*
X182673166Y-112618546D01*
X182673168Y-112618547D01*
X182852882Y-112676940D01*
X183039519Y-112706500D01*
X183039520Y-112706500D01*
X183228480Y-112706500D01*
X183228481Y-112706500D01*
X183415118Y-112676940D01*
X183594832Y-112618547D01*
X183763199Y-112532760D01*
X183916073Y-112421690D01*
X184049690Y-112288073D01*
X184160760Y-112135199D01*
X184246547Y-111966832D01*
X184304940Y-111787118D01*
X184306603Y-111776619D01*
X184326198Y-111744642D01*
X184362665Y-111735887D01*
X184394642Y-111755482D01*
X184404000Y-111784284D01*
X184404000Y-113767715D01*
X184389648Y-113802363D01*
X184355000Y-113816715D01*
X184320352Y-113802363D01*
X184306603Y-113775380D01*
X184304940Y-113764884D01*
X184304940Y-113764882D01*
X184246547Y-113585168D01*
X184246546Y-113585166D01*
X184160763Y-113416806D01*
X184160761Y-113416803D01*
X184160760Y-113416801D01*
X184049690Y-113263927D01*
X184049686Y-113263923D01*
X184049684Y-113263920D01*
X183916079Y-113130315D01*
X183916080Y-113130315D01*
X183763193Y-113019236D01*
X183594833Y-112933453D01*
X183415118Y-112875060D01*
X183415115Y-112875059D01*
X183271744Y-112852352D01*
X183228481Y-112845500D01*
X183039519Y-112845500D01*
X183004397Y-112851062D01*
X182852884Y-112875059D01*
X182852881Y-112875060D01*
X182673166Y-112933453D01*
X182504806Y-113019236D01*
X182351920Y-113130315D01*
X182218315Y-113263920D01*
X182107236Y-113416806D01*
X182021453Y-113585166D01*
X181963060Y-113764881D01*
X181963059Y-113764884D01*
X181933500Y-113951519D01*
X181933500Y-114140480D01*
X181963059Y-114327115D01*
X181963060Y-114327118D01*
X182021453Y-114506833D01*
X182107236Y-114675193D01*
X182107239Y-114675197D01*
X182107240Y-114675199D01*
X182218310Y-114828073D01*
X182218312Y-114828075D01*
X182218315Y-114828079D01*
X182351920Y-114961684D01*
X182351923Y-114961686D01*
X182351927Y-114961690D01*
X182504801Y-115072760D01*
X182504803Y-115072761D01*
X182504806Y-115072763D01*
X182673166Y-115158546D01*
X182673168Y-115158547D01*
X182852882Y-115216940D01*
X183039519Y-115246500D01*
X183039520Y-115246500D01*
X183228480Y-115246500D01*
X183228481Y-115246500D01*
X183415118Y-115216940D01*
X183594832Y-115158547D01*
X183763199Y-115072760D01*
X183916073Y-114961690D01*
X184049690Y-114828073D01*
X184160760Y-114675199D01*
X184246547Y-114506832D01*
X184304940Y-114327118D01*
X184306603Y-114316619D01*
X184326198Y-114284642D01*
X184362665Y-114275887D01*
X184394642Y-114295482D01*
X184404000Y-114324284D01*
X184404000Y-124411000D01*
X184389648Y-124445648D01*
X184355000Y-124460000D01*
X130859000Y-124460000D01*
X130824352Y-124445648D01*
X130810000Y-124411000D01*
X130810000Y-121854104D01*
X151899500Y-121854104D01*
X151899500Y-121985895D01*
X151933607Y-122113184D01*
X151933608Y-122113188D01*
X151974725Y-122184403D01*
X151999500Y-122227314D01*
X152092686Y-122320500D01*
X152134457Y-122344617D01*
X152206811Y-122386391D01*
X152206813Y-122386391D01*
X152206814Y-122386392D01*
X152307207Y-122413292D01*
X152334104Y-122420499D01*
X152334105Y-122420500D01*
X152334108Y-122420500D01*
X152465895Y-122420500D01*
X152465895Y-122420499D01*
X152593186Y-122386392D01*
X152707314Y-122320500D01*
X152800500Y-122227314D01*
X152866392Y-122113186D01*
X152900499Y-121985895D01*
X152900500Y-121985895D01*
X152900500Y-121854105D01*
X152900499Y-121854104D01*
X152884808Y-121795542D01*
X152881759Y-121784165D01*
X173910000Y-121784165D01*
X173910000Y-122432000D01*
X174826988Y-122432000D01*
X174794075Y-122489007D01*
X174760000Y-122616174D01*
X174760000Y-122747826D01*
X174794075Y-122874993D01*
X174826988Y-122932000D01*
X173910000Y-122932000D01*
X173910000Y-123579834D01*
X173916401Y-123639372D01*
X173916401Y-123639373D01*
X173966648Y-123774091D01*
X174052811Y-123889188D01*
X174167908Y-123975351D01*
X174302626Y-124025598D01*
X174362166Y-124032000D01*
X175010000Y-124032000D01*
X175010000Y-123115012D01*
X175067007Y-123147925D01*
X175194174Y-123182000D01*
X175325826Y-123182000D01*
X175452993Y-123147925D01*
X175510000Y-123115012D01*
X175510000Y-124032000D01*
X176157834Y-124032000D01*
X176217372Y-124025598D01*
X176217373Y-124025598D01*
X176352091Y-123975351D01*
X176467188Y-123889188D01*
X176553351Y-123774091D01*
X176603598Y-123639373D01*
X176603598Y-123639372D01*
X176610000Y-123579834D01*
X176610000Y-122932000D01*
X175693012Y-122932000D01*
X175725925Y-122874993D01*
X175760000Y-122747826D01*
X175760000Y-122616174D01*
X175749914Y-122578535D01*
X176749500Y-122578535D01*
X176749500Y-122785465D01*
X176767308Y-122874993D01*
X176789869Y-122988417D01*
X176789871Y-122988423D01*
X176869058Y-123179596D01*
X176869059Y-123179598D01*
X176984023Y-123351655D01*
X177130345Y-123497977D01*
X177302402Y-123612941D01*
X177493580Y-123692130D01*
X177696535Y-123732500D01*
X177696538Y-123732500D01*
X177903462Y-123732500D01*
X177903465Y-123732500D01*
X178106420Y-123692130D01*
X178297598Y-123612941D01*
X178469655Y-123497977D01*
X178615977Y-123351655D01*
X178730941Y-123179598D01*
X178810130Y-122988420D01*
X178850500Y-122785465D01*
X178850500Y-122578535D01*
X179289500Y-122578535D01*
X179289500Y-122785465D01*
X179307308Y-122874993D01*
X179329869Y-122988417D01*
X179329871Y-122988423D01*
X179409058Y-123179596D01*
X179409059Y-123179598D01*
X179524023Y-123351655D01*
X179670345Y-123497977D01*
X179842402Y-123612941D01*
X180033580Y-123692130D01*
X180236535Y-123732500D01*
X180236538Y-123732500D01*
X180443462Y-123732500D01*
X180443465Y-123732500D01*
X180646420Y-123692130D01*
X180837598Y-123612941D01*
X181009655Y-123497977D01*
X181155977Y-123351655D01*
X181270941Y-123179598D01*
X181350130Y-122988420D01*
X181390500Y-122785465D01*
X181390500Y-122578535D01*
X181829500Y-122578535D01*
X181829500Y-122785465D01*
X181847308Y-122874993D01*
X181869869Y-122988417D01*
X181869871Y-122988423D01*
X181949058Y-123179596D01*
X181949059Y-123179598D01*
X182064023Y-123351655D01*
X182210345Y-123497977D01*
X182382402Y-123612941D01*
X182573580Y-123692130D01*
X182776535Y-123732500D01*
X182776538Y-123732500D01*
X182983462Y-123732500D01*
X182983465Y-123732500D01*
X183186420Y-123692130D01*
X183377598Y-123612941D01*
X183549655Y-123497977D01*
X183695977Y-123351655D01*
X183810941Y-123179598D01*
X183890130Y-122988420D01*
X183930500Y-122785465D01*
X183930500Y-122578535D01*
X183890130Y-122375580D01*
X183810941Y-122184402D01*
X183695977Y-122012345D01*
X183549655Y-121866023D01*
X183531818Y-121854105D01*
X183427145Y-121784165D01*
X183377598Y-121751059D01*
X183377596Y-121751058D01*
X183186423Y-121671871D01*
X183186417Y-121671869D01*
X183104572Y-121655589D01*
X182983465Y-121631500D01*
X182776535Y-121631500D01*
X182675520Y-121651592D01*
X182573582Y-121671869D01*
X182573576Y-121671871D01*
X182382403Y-121751058D01*
X182210345Y-121866022D01*
X182064022Y-122012345D01*
X181949058Y-122184403D01*
X181869871Y-122375576D01*
X181869869Y-122375582D01*
X181867719Y-122386392D01*
X181829500Y-122578535D01*
X181390500Y-122578535D01*
X181350130Y-122375580D01*
X181270941Y-122184402D01*
X181155977Y-122012345D01*
X181009655Y-121866023D01*
X180991818Y-121854105D01*
X180887145Y-121784165D01*
X180837598Y-121751059D01*
X180837596Y-121751058D01*
X180646423Y-121671871D01*
X180646417Y-121671869D01*
X180564572Y-121655589D01*
X180443465Y-121631500D01*
X180236535Y-121631500D01*
X180135520Y-121651592D01*
X180033582Y-121671869D01*
X180033576Y-121671871D01*
X179842403Y-121751058D01*
X179670345Y-121866022D01*
X179524022Y-122012345D01*
X179409058Y-122184403D01*
X179329871Y-122375576D01*
X179329869Y-122375582D01*
X179327719Y-122386392D01*
X179289500Y-122578535D01*
X178850500Y-122578535D01*
X178810130Y-122375580D01*
X178730941Y-122184402D01*
X178615977Y-122012345D01*
X178469655Y-121866023D01*
X178451818Y-121854105D01*
X178347145Y-121784165D01*
X178297598Y-121751059D01*
X178297596Y-121751058D01*
X178106423Y-121671871D01*
X178106417Y-121671869D01*
X178024572Y-121655589D01*
X177903465Y-121631500D01*
X177696535Y-121631500D01*
X177595520Y-121651592D01*
X177493582Y-121671869D01*
X177493576Y-121671871D01*
X177302403Y-121751058D01*
X177130345Y-121866022D01*
X176984022Y-122012345D01*
X176869058Y-122184403D01*
X176789871Y-122375576D01*
X176789869Y-122375582D01*
X176787719Y-122386392D01*
X176749500Y-122578535D01*
X175749914Y-122578535D01*
X175725925Y-122489007D01*
X175693012Y-122432000D01*
X176610000Y-122432000D01*
X176610000Y-121784165D01*
X176603598Y-121724627D01*
X176603598Y-121724626D01*
X176553351Y-121589908D01*
X176467188Y-121474811D01*
X176352091Y-121388648D01*
X176217373Y-121338401D01*
X176157834Y-121332000D01*
X175510000Y-121332000D01*
X175510000Y-122248988D01*
X175452993Y-122216075D01*
X175325826Y-122182000D01*
X175194174Y-122182000D01*
X175067007Y-122216075D01*
X175010000Y-122248988D01*
X175010000Y-121332000D01*
X174362166Y-121332000D01*
X174302627Y-121338401D01*
X174302626Y-121338401D01*
X174167908Y-121388648D01*
X174052811Y-121474811D01*
X173966648Y-121589908D01*
X173916401Y-121724626D01*
X173916401Y-121724627D01*
X173910000Y-121784165D01*
X152881759Y-121784165D01*
X152866392Y-121726815D01*
X152866391Y-121726811D01*
X152800499Y-121612685D01*
X152707314Y-121519500D01*
X152593188Y-121453608D01*
X152593184Y-121453607D01*
X152465895Y-121419500D01*
X152465892Y-121419500D01*
X152334108Y-121419500D01*
X152334105Y-121419500D01*
X152206815Y-121453607D01*
X152206811Y-121453608D01*
X152092685Y-121519500D01*
X152092685Y-121519501D01*
X151999501Y-121612685D01*
X151999500Y-121612685D01*
X151933608Y-121726811D01*
X151933607Y-121726815D01*
X151899500Y-121854104D01*
X130810000Y-121854104D01*
X130810000Y-119314104D01*
X171584500Y-119314104D01*
X171584500Y-119445895D01*
X171618607Y-119573184D01*
X171618608Y-119573188D01*
X171684500Y-119687314D01*
X171777686Y-119780500D01*
X171819457Y-119804617D01*
X171891811Y-119846391D01*
X171891813Y-119846391D01*
X171891814Y-119846392D01*
X171992207Y-119873292D01*
X172019104Y-119880499D01*
X172019105Y-119880500D01*
X172019108Y-119880500D01*
X172150895Y-119880500D01*
X172150895Y-119880499D01*
X172278186Y-119846392D01*
X172392314Y-119780500D01*
X172485500Y-119687314D01*
X172551392Y-119573186D01*
X172585499Y-119445895D01*
X172585500Y-119445895D01*
X172585500Y-119314105D01*
X172585499Y-119314104D01*
X172551392Y-119186815D01*
X172551391Y-119186811D01*
X172485499Y-119072685D01*
X172392314Y-118979500D01*
X172278188Y-118913608D01*
X172278184Y-118913607D01*
X172150895Y-118879500D01*
X172150892Y-118879500D01*
X172019108Y-118879500D01*
X172019105Y-118879500D01*
X171891815Y-118913607D01*
X171891811Y-118913608D01*
X171777685Y-118979500D01*
X171777685Y-118979501D01*
X171684501Y-119072685D01*
X171684500Y-119072685D01*
X171618608Y-119186811D01*
X171618607Y-119186815D01*
X171584500Y-119314104D01*
X130810000Y-119314104D01*
X130810000Y-114488104D01*
X148650500Y-114488104D01*
X148650500Y-114619895D01*
X148684607Y-114747184D01*
X148684608Y-114747188D01*
X148750500Y-114861314D01*
X148843686Y-114954500D01*
X148885457Y-114978617D01*
X148957811Y-115020391D01*
X148957813Y-115020391D01*
X148957814Y-115020392D01*
X149058207Y-115047292D01*
X149085104Y-115054499D01*
X149085105Y-115054500D01*
X149085108Y-115054500D01*
X149216895Y-115054500D01*
X149216895Y-115054499D01*
X149344186Y-115020392D01*
X149458314Y-114954500D01*
X149551500Y-114861314D01*
X149617392Y-114747186D01*
X149651499Y-114619895D01*
X149651500Y-114619895D01*
X149651500Y-114488105D01*
X149651499Y-114488104D01*
X153476500Y-114488104D01*
X153476500Y-114619895D01*
X153510607Y-114747184D01*
X153510608Y-114747188D01*
X153576500Y-114861314D01*
X153669686Y-114954500D01*
X153711457Y-114978617D01*
X153783811Y-115020391D01*
X153783813Y-115020391D01*
X153783814Y-115020392D01*
X153884207Y-115047292D01*
X153911104Y-115054499D01*
X153911105Y-115054500D01*
X153911108Y-115054500D01*
X154042895Y-115054500D01*
X154042895Y-115054499D01*
X154170186Y-115020392D01*
X154284314Y-114954500D01*
X154377500Y-114861314D01*
X154443392Y-114747186D01*
X154477499Y-114619895D01*
X154477500Y-114619895D01*
X154477500Y-114488105D01*
X154477499Y-114488104D01*
X154443392Y-114360815D01*
X154443391Y-114360811D01*
X154377499Y-114246685D01*
X154284314Y-114153500D01*
X154170188Y-114087608D01*
X154170184Y-114087607D01*
X154042895Y-114053500D01*
X154042892Y-114053500D01*
X153911108Y-114053500D01*
X153911105Y-114053500D01*
X153783815Y-114087607D01*
X153783811Y-114087608D01*
X153669685Y-114153500D01*
X153669685Y-114153501D01*
X153576501Y-114246685D01*
X153576500Y-114246685D01*
X153510608Y-114360811D01*
X153510607Y-114360815D01*
X153476500Y-114488104D01*
X149651499Y-114488104D01*
X149617392Y-114360815D01*
X149617391Y-114360811D01*
X149551499Y-114246685D01*
X149458314Y-114153500D01*
X149344188Y-114087608D01*
X149344184Y-114087607D01*
X149216895Y-114053500D01*
X149216892Y-114053500D01*
X149085108Y-114053500D01*
X149085105Y-114053500D01*
X148957815Y-114087607D01*
X148957811Y-114087608D01*
X148843685Y-114153500D01*
X148843685Y-114153501D01*
X148750501Y-114246685D01*
X148750500Y-114246685D01*
X148684608Y-114360811D01*
X148684607Y-114360815D01*
X148650500Y-114488104D01*
X130810000Y-114488104D01*
X130810000Y-113951519D01*
X179393500Y-113951519D01*
X179393500Y-114140480D01*
X179423059Y-114327115D01*
X179423060Y-114327118D01*
X179481453Y-114506833D01*
X179567236Y-114675193D01*
X179567239Y-114675197D01*
X179567240Y-114675199D01*
X179678310Y-114828073D01*
X179678312Y-114828075D01*
X179678315Y-114828079D01*
X179811920Y-114961684D01*
X179811923Y-114961686D01*
X179811927Y-114961690D01*
X179964801Y-115072760D01*
X179964803Y-115072761D01*
X179964806Y-115072763D01*
X180133166Y-115158546D01*
X180133168Y-115158547D01*
X180312882Y-115216940D01*
X180499519Y-115246500D01*
X180499520Y-115246500D01*
X180688480Y-115246500D01*
X180688481Y-115246500D01*
X180875118Y-115216940D01*
X181054832Y-115158547D01*
X181223199Y-115072760D01*
X181376073Y-114961690D01*
X181509690Y-114828073D01*
X181620760Y-114675199D01*
X181706547Y-114506832D01*
X181764940Y-114327118D01*
X181794500Y-114140481D01*
X181794500Y-113951519D01*
X181764940Y-113764882D01*
X181706547Y-113585168D01*
X181706546Y-113585166D01*
X181620763Y-113416806D01*
X181620761Y-113416803D01*
X181620760Y-113416801D01*
X181509690Y-113263927D01*
X181509686Y-113263923D01*
X181509684Y-113263920D01*
X181376079Y-113130315D01*
X181376080Y-113130315D01*
X181223193Y-113019236D01*
X181054833Y-112933453D01*
X180875118Y-112875060D01*
X180875115Y-112875059D01*
X180731744Y-112852352D01*
X180688481Y-112845500D01*
X180499519Y-112845500D01*
X180464397Y-112851062D01*
X180312884Y-112875059D01*
X180312881Y-112875060D01*
X180133166Y-112933453D01*
X179964806Y-113019236D01*
X179811920Y-113130315D01*
X179678315Y-113263920D01*
X179567236Y-113416806D01*
X179481453Y-113585166D01*
X179423060Y-113764881D01*
X179423059Y-113764884D01*
X179393500Y-113951519D01*
X130810000Y-113951519D01*
X130810000Y-112964104D01*
X158858000Y-112964104D01*
X158858000Y-113095895D01*
X158892107Y-113223184D01*
X158892108Y-113223188D01*
X158958000Y-113337314D01*
X159051186Y-113430500D01*
X159092957Y-113454617D01*
X159165311Y-113496391D01*
X159165313Y-113496391D01*
X159165314Y-113496392D01*
X159265707Y-113523292D01*
X159292604Y-113530499D01*
X159292605Y-113530500D01*
X159292608Y-113530500D01*
X159424395Y-113530500D01*
X159424395Y-113530499D01*
X159551686Y-113496392D01*
X159665814Y-113430500D01*
X159759000Y-113337314D01*
X159824892Y-113223186D01*
X159858999Y-113095895D01*
X159859000Y-113095895D01*
X159859000Y-112964105D01*
X159858999Y-112964104D01*
X159835140Y-112875060D01*
X159824892Y-112836814D01*
X159824891Y-112836813D01*
X159824891Y-112836811D01*
X159758999Y-112722685D01*
X159665814Y-112629500D01*
X159551688Y-112563608D01*
X159551684Y-112563607D01*
X159424395Y-112529500D01*
X159424392Y-112529500D01*
X159292608Y-112529500D01*
X159292605Y-112529500D01*
X159165315Y-112563607D01*
X159165311Y-112563608D01*
X159051185Y-112629500D01*
X159051185Y-112629501D01*
X158958001Y-112722685D01*
X158958000Y-112722685D01*
X158892108Y-112836811D01*
X158892107Y-112836815D01*
X158858000Y-112964104D01*
X130810000Y-112964104D01*
X130810000Y-111948104D01*
X132040500Y-111948104D01*
X132040500Y-112079895D01*
X132074607Y-112207184D01*
X132074608Y-112207188D01*
X132140500Y-112321314D01*
X132233686Y-112414500D01*
X132275457Y-112438617D01*
X132347811Y-112480391D01*
X132347813Y-112480391D01*
X132347814Y-112480392D01*
X132448207Y-112507292D01*
X132475104Y-112514499D01*
X132475105Y-112514500D01*
X132475108Y-112514500D01*
X132606895Y-112514500D01*
X132606895Y-112514499D01*
X132734186Y-112480392D01*
X132848314Y-112414500D01*
X132941500Y-112321314D01*
X133007392Y-112207186D01*
X133041499Y-112079895D01*
X133041500Y-112079895D01*
X133041500Y-111948105D01*
X133041499Y-111948104D01*
X133008753Y-111825895D01*
X133007392Y-111820814D01*
X132941500Y-111706686D01*
X132928918Y-111694104D01*
X172854500Y-111694104D01*
X172854500Y-111825895D01*
X172888607Y-111953184D01*
X172888608Y-111953188D01*
X172954500Y-112067314D01*
X173047686Y-112160500D01*
X173089457Y-112184617D01*
X173161811Y-112226391D01*
X173161813Y-112226391D01*
X173161814Y-112226392D01*
X173262207Y-112253292D01*
X173289104Y-112260499D01*
X173289105Y-112260500D01*
X173289108Y-112260500D01*
X173420895Y-112260500D01*
X173420895Y-112260499D01*
X173548186Y-112226392D01*
X173662314Y-112160500D01*
X173755500Y-112067314D01*
X173821392Y-111953186D01*
X173855499Y-111825895D01*
X173855500Y-111825895D01*
X173855500Y-111694105D01*
X173855499Y-111694104D01*
X173848292Y-111667207D01*
X173821392Y-111566814D01*
X173821391Y-111566813D01*
X173821391Y-111566811D01*
X173755499Y-111452685D01*
X173714333Y-111411519D01*
X179393500Y-111411519D01*
X179393500Y-111600480D01*
X179423059Y-111787115D01*
X179423060Y-111787118D01*
X179481453Y-111966833D01*
X179567236Y-112135193D01*
X179567239Y-112135197D01*
X179567240Y-112135199D01*
X179678310Y-112288073D01*
X179678312Y-112288075D01*
X179678315Y-112288079D01*
X179811920Y-112421684D01*
X179811923Y-112421686D01*
X179811927Y-112421690D01*
X179964801Y-112532760D01*
X179964803Y-112532761D01*
X179964806Y-112532763D01*
X180133166Y-112618546D01*
X180133168Y-112618547D01*
X180312882Y-112676940D01*
X180499519Y-112706500D01*
X180499520Y-112706500D01*
X180688480Y-112706500D01*
X180688481Y-112706500D01*
X180875118Y-112676940D01*
X181054832Y-112618547D01*
X181223199Y-112532760D01*
X181376073Y-112421690D01*
X181509690Y-112288073D01*
X181620760Y-112135199D01*
X181706547Y-111966832D01*
X181764940Y-111787118D01*
X181794500Y-111600481D01*
X181794500Y-111411519D01*
X181764940Y-111224882D01*
X181706547Y-111045168D01*
X181620760Y-110876801D01*
X181509690Y-110723927D01*
X181509686Y-110723923D01*
X181509684Y-110723920D01*
X181376079Y-110590315D01*
X181376080Y-110590315D01*
X181223193Y-110479236D01*
X181054833Y-110393453D01*
X180875118Y-110335060D01*
X180875115Y-110335059D01*
X180731744Y-110312352D01*
X180688481Y-110305500D01*
X180499519Y-110305500D01*
X180464397Y-110311062D01*
X180312884Y-110335059D01*
X180312881Y-110335060D01*
X180133166Y-110393453D01*
X179964806Y-110479236D01*
X179811920Y-110590315D01*
X179678315Y-110723920D01*
X179567236Y-110876806D01*
X179481453Y-111045166D01*
X179423060Y-111224881D01*
X179423059Y-111224884D01*
X179393500Y-111411519D01*
X173714333Y-111411519D01*
X173662314Y-111359500D01*
X173548188Y-111293608D01*
X173548184Y-111293607D01*
X173420895Y-111259500D01*
X173420892Y-111259500D01*
X173289108Y-111259500D01*
X173289105Y-111259500D01*
X173161815Y-111293607D01*
X173161811Y-111293608D01*
X173047685Y-111359500D01*
X173047685Y-111359501D01*
X172954501Y-111452685D01*
X172954500Y-111452685D01*
X172888608Y-111566811D01*
X172888607Y-111566815D01*
X172854500Y-111694104D01*
X132928918Y-111694104D01*
X132848314Y-111613500D01*
X132734188Y-111547608D01*
X132734184Y-111547607D01*
X132606895Y-111513500D01*
X132606892Y-111513500D01*
X132475108Y-111513500D01*
X132475105Y-111513500D01*
X132347815Y-111547607D01*
X132347811Y-111547608D01*
X132233685Y-111613500D01*
X132233685Y-111613501D01*
X132140501Y-111706685D01*
X132140500Y-111706685D01*
X132074608Y-111820811D01*
X132074607Y-111820815D01*
X132040500Y-111948104D01*
X130810000Y-111948104D01*
X130810000Y-109789104D01*
X136659500Y-109789104D01*
X136659500Y-109920895D01*
X136693607Y-110048184D01*
X136693608Y-110048188D01*
X136744850Y-110136940D01*
X136759500Y-110162314D01*
X136852686Y-110255500D01*
X136894457Y-110279617D01*
X136966811Y-110321391D01*
X136966813Y-110321391D01*
X136966814Y-110321392D01*
X137067207Y-110348292D01*
X137094104Y-110355499D01*
X137094105Y-110355500D01*
X137094108Y-110355500D01*
X137225895Y-110355500D01*
X137225895Y-110355499D01*
X137353186Y-110321392D01*
X137467314Y-110255500D01*
X137560500Y-110162314D01*
X137626392Y-110048186D01*
X137660499Y-109920895D01*
X137660500Y-109920895D01*
X137660500Y-109789105D01*
X137660499Y-109789104D01*
X137626392Y-109661815D01*
X137626391Y-109661811D01*
X137560499Y-109547685D01*
X137467314Y-109454500D01*
X137353188Y-109388608D01*
X137353184Y-109388607D01*
X137225895Y-109354500D01*
X137225892Y-109354500D01*
X137094108Y-109354500D01*
X137094105Y-109354500D01*
X136966815Y-109388607D01*
X136966811Y-109388608D01*
X136852685Y-109454500D01*
X136852685Y-109454501D01*
X136759501Y-109547685D01*
X136759500Y-109547685D01*
X136693608Y-109661811D01*
X136693607Y-109661815D01*
X136659500Y-109789104D01*
X130810000Y-109789104D01*
X130810000Y-108871519D01*
X179393500Y-108871519D01*
X179393500Y-109060480D01*
X179423059Y-109247115D01*
X179423060Y-109247118D01*
X179481453Y-109426833D01*
X179567236Y-109595193D01*
X179567239Y-109595197D01*
X179567240Y-109595199D01*
X179678310Y-109748073D01*
X179678312Y-109748075D01*
X179678315Y-109748079D01*
X179811920Y-109881684D01*
X179811923Y-109881686D01*
X179811927Y-109881690D01*
X179964801Y-109992760D01*
X179964803Y-109992761D01*
X179964806Y-109992763D01*
X180073577Y-110048184D01*
X180133168Y-110078547D01*
X180312882Y-110136940D01*
X180499519Y-110166500D01*
X180499520Y-110166500D01*
X180688480Y-110166500D01*
X180688481Y-110166500D01*
X180875118Y-110136940D01*
X181054832Y-110078547D01*
X181223199Y-109992760D01*
X181376073Y-109881690D01*
X181509690Y-109748073D01*
X181620760Y-109595199D01*
X181706547Y-109426832D01*
X181764940Y-109247118D01*
X181794500Y-109060481D01*
X181794500Y-108871519D01*
X181764940Y-108684882D01*
X181706547Y-108505168D01*
X181706546Y-108505166D01*
X181620763Y-108336806D01*
X181620761Y-108336803D01*
X181620760Y-108336801D01*
X181509690Y-108183927D01*
X181509686Y-108183923D01*
X181509684Y-108183920D01*
X181376079Y-108050315D01*
X181376080Y-108050315D01*
X181228374Y-107943000D01*
X181223199Y-107939240D01*
X181223197Y-107939239D01*
X181223193Y-107939236D01*
X181054833Y-107853453D01*
X180875118Y-107795060D01*
X180875115Y-107795059D01*
X180731744Y-107772352D01*
X180688481Y-107765500D01*
X180499519Y-107765500D01*
X180464397Y-107771062D01*
X180312884Y-107795059D01*
X180312881Y-107795060D01*
X180133166Y-107853453D01*
X179964806Y-107939236D01*
X179811920Y-108050315D01*
X179678315Y-108183920D01*
X179567236Y-108336806D01*
X179481453Y-108505166D01*
X179423060Y-108684881D01*
X179423059Y-108684884D01*
X179393500Y-108871519D01*
X130810000Y-108871519D01*
X130810000Y-107476604D01*
X139453500Y-107476604D01*
X139453500Y-107608395D01*
X139487607Y-107735684D01*
X139487608Y-107735688D01*
X139553500Y-107849814D01*
X139646686Y-107943000D01*
X139688457Y-107967117D01*
X139760811Y-108008891D01*
X139760813Y-108008891D01*
X139760814Y-108008892D01*
X139861207Y-108035792D01*
X139888104Y-108042999D01*
X139888105Y-108043000D01*
X139888108Y-108043000D01*
X140019895Y-108043000D01*
X140019895Y-108042999D01*
X140147186Y-108008892D01*
X140261314Y-107943000D01*
X140320210Y-107884104D01*
X169933500Y-107884104D01*
X169933500Y-108015895D01*
X169967607Y-108143184D01*
X169967608Y-108143188D01*
X170033500Y-108257314D01*
X170126686Y-108350500D01*
X170168457Y-108374617D01*
X170240811Y-108416391D01*
X170240813Y-108416391D01*
X170240814Y-108416392D01*
X170341207Y-108443292D01*
X170368104Y-108450499D01*
X170368105Y-108450500D01*
X170368108Y-108450500D01*
X170499895Y-108450500D01*
X170499895Y-108450499D01*
X170627186Y-108416392D01*
X170741314Y-108350500D01*
X170834500Y-108257314D01*
X170900392Y-108143186D01*
X170934499Y-108015895D01*
X170934500Y-108015895D01*
X170934500Y-107884105D01*
X170934499Y-107884104D01*
X170910640Y-107795060D01*
X170900392Y-107756814D01*
X170900391Y-107756813D01*
X170900391Y-107756811D01*
X170834499Y-107642685D01*
X170741314Y-107549500D01*
X170627188Y-107483608D01*
X170627184Y-107483607D01*
X170499895Y-107449500D01*
X170499892Y-107449500D01*
X170368108Y-107449500D01*
X170368105Y-107449500D01*
X170240815Y-107483607D01*
X170240811Y-107483608D01*
X170126685Y-107549500D01*
X170126685Y-107549501D01*
X170033501Y-107642685D01*
X170033500Y-107642685D01*
X169967608Y-107756811D01*
X169967607Y-107756815D01*
X169933500Y-107884104D01*
X140320210Y-107884104D01*
X140354500Y-107849814D01*
X140420392Y-107735686D01*
X140454499Y-107608395D01*
X140454500Y-107608395D01*
X140454500Y-107476605D01*
X140454499Y-107476604D01*
X140432584Y-107394815D01*
X140420392Y-107349314D01*
X140420391Y-107349313D01*
X140420391Y-107349311D01*
X140354499Y-107235185D01*
X140261314Y-107142000D01*
X140147188Y-107076108D01*
X140147184Y-107076107D01*
X140108441Y-107065726D01*
X140019895Y-107042000D01*
X140019892Y-107042000D01*
X139888108Y-107042000D01*
X139888105Y-107042000D01*
X139760815Y-107076107D01*
X139760811Y-107076108D01*
X139646685Y-107142000D01*
X139646685Y-107142001D01*
X139553501Y-107235185D01*
X139553500Y-107235185D01*
X139487608Y-107349311D01*
X139487607Y-107349315D01*
X139453500Y-107476604D01*
X130810000Y-107476604D01*
X130810000Y-107021604D01*
X141993500Y-107021604D01*
X141993500Y-107153395D01*
X142027607Y-107280684D01*
X142027608Y-107280688D01*
X142067230Y-107349314D01*
X142093500Y-107394814D01*
X142186686Y-107488000D01*
X142228457Y-107512117D01*
X142300811Y-107553891D01*
X142300813Y-107553891D01*
X142300814Y-107553892D01*
X142401207Y-107580792D01*
X142428104Y-107587999D01*
X142428105Y-107588000D01*
X142428108Y-107588000D01*
X142559895Y-107588000D01*
X142559895Y-107587999D01*
X142687186Y-107553892D01*
X142694792Y-107549501D01*
X142713766Y-107538546D01*
X142801314Y-107488000D01*
X142894500Y-107394814D01*
X142960392Y-107280686D01*
X142994499Y-107153395D01*
X142994500Y-107153395D01*
X142994500Y-107021605D01*
X142994499Y-107021604D01*
X144025500Y-107021604D01*
X144025500Y-107153395D01*
X144059607Y-107280684D01*
X144059608Y-107280688D01*
X144099230Y-107349314D01*
X144125500Y-107394814D01*
X144218686Y-107488000D01*
X144260457Y-107512117D01*
X144332811Y-107553891D01*
X144332813Y-107553891D01*
X144332814Y-107553892D01*
X144433207Y-107580792D01*
X144460104Y-107587999D01*
X144460105Y-107588000D01*
X144460108Y-107588000D01*
X144591895Y-107588000D01*
X144591895Y-107587999D01*
X144719186Y-107553892D01*
X144726792Y-107549501D01*
X144745766Y-107538546D01*
X144833314Y-107488000D01*
X144926500Y-107394814D01*
X144992392Y-107280686D01*
X145026499Y-107153395D01*
X145026500Y-107153395D01*
X145026500Y-107021605D01*
X145026499Y-107021604D01*
X144992392Y-106894315D01*
X144992391Y-106894311D01*
X144926499Y-106780185D01*
X144833314Y-106687000D01*
X144719188Y-106621108D01*
X144719184Y-106621107D01*
X144591895Y-106587000D01*
X144591892Y-106587000D01*
X144460108Y-106587000D01*
X144460105Y-106587000D01*
X144332815Y-106621107D01*
X144332811Y-106621108D01*
X144218685Y-106687000D01*
X144218685Y-106687001D01*
X144125501Y-106780185D01*
X144125500Y-106780185D01*
X144059608Y-106894311D01*
X144059607Y-106894315D01*
X144025500Y-107021604D01*
X142994499Y-107021604D01*
X142960392Y-106894315D01*
X142960391Y-106894311D01*
X142894499Y-106780185D01*
X142801314Y-106687000D01*
X142687188Y-106621108D01*
X142687184Y-106621107D01*
X142559895Y-106587000D01*
X142559892Y-106587000D01*
X142428108Y-106587000D01*
X142428105Y-106587000D01*
X142300815Y-106621107D01*
X142300811Y-106621108D01*
X142186685Y-106687000D01*
X142186685Y-106687001D01*
X142093501Y-106780185D01*
X142093500Y-106780185D01*
X142027608Y-106894311D01*
X142027607Y-106894315D01*
X141993500Y-107021604D01*
X130810000Y-107021604D01*
X130810000Y-106360104D01*
X152661500Y-106360104D01*
X152661500Y-106491895D01*
X152695607Y-106619184D01*
X152695608Y-106619188D01*
X152761500Y-106733314D01*
X152854686Y-106826500D01*
X152896457Y-106850617D01*
X152968811Y-106892391D01*
X152968813Y-106892391D01*
X152968814Y-106892392D01*
X153069207Y-106919292D01*
X153096104Y-106926499D01*
X153096105Y-106926500D01*
X153096108Y-106926500D01*
X153227895Y-106926500D01*
X153227895Y-106926499D01*
X153355186Y-106892392D01*
X153364815Y-106886833D01*
X153370478Y-106883563D01*
X153469314Y-106826500D01*
X153562500Y-106733314D01*
X153628392Y-106619186D01*
X153662499Y-106491895D01*
X153662500Y-106491895D01*
X153662500Y-106360105D01*
X153662499Y-106360104D01*
X153629753Y-106237894D01*
X153628392Y-106232814D01*
X153562500Y-106118686D01*
X153549918Y-106106104D01*
X162821500Y-106106104D01*
X162821500Y-106237895D01*
X162855607Y-106365184D01*
X162855608Y-106365188D01*
X162921500Y-106479314D01*
X163014686Y-106572500D01*
X163039801Y-106587000D01*
X163128811Y-106638391D01*
X163128813Y-106638391D01*
X163128814Y-106638392D01*
X163194107Y-106655887D01*
X163256104Y-106672499D01*
X163256105Y-106672500D01*
X163256108Y-106672500D01*
X163387895Y-106672500D01*
X163387895Y-106672499D01*
X163515186Y-106638392D01*
X163629314Y-106572500D01*
X163722500Y-106479314D01*
X163788392Y-106365186D01*
X163797413Y-106331519D01*
X179393500Y-106331519D01*
X179393500Y-106520480D01*
X179423059Y-106707115D01*
X179423060Y-106707118D01*
X179481453Y-106886833D01*
X179567236Y-107055193D01*
X179567239Y-107055197D01*
X179567240Y-107055199D01*
X179678310Y-107208073D01*
X179678312Y-107208075D01*
X179678315Y-107208079D01*
X179811920Y-107341684D01*
X179811923Y-107341686D01*
X179811927Y-107341690D01*
X179964801Y-107452760D01*
X179964803Y-107452761D01*
X179964806Y-107452763D01*
X180133166Y-107538546D01*
X180133168Y-107538547D01*
X180312882Y-107596940D01*
X180499519Y-107626500D01*
X180499520Y-107626500D01*
X180688480Y-107626500D01*
X180688481Y-107626500D01*
X180875118Y-107596940D01*
X181054832Y-107538547D01*
X181223199Y-107452760D01*
X181376073Y-107341690D01*
X181509690Y-107208073D01*
X181620760Y-107055199D01*
X181706547Y-106886832D01*
X181764940Y-106707118D01*
X181794500Y-106520481D01*
X181794500Y-106331519D01*
X181764940Y-106144882D01*
X181706547Y-105965168D01*
X181686335Y-105925500D01*
X181620763Y-105796806D01*
X181620761Y-105796803D01*
X181620760Y-105796801D01*
X181509690Y-105643927D01*
X181509686Y-105643923D01*
X181509684Y-105643920D01*
X181376079Y-105510315D01*
X181376080Y-105510315D01*
X181223193Y-105399236D01*
X181054833Y-105313453D01*
X180875118Y-105255060D01*
X180875115Y-105255059D01*
X180731744Y-105232352D01*
X180688481Y-105225500D01*
X180499519Y-105225500D01*
X180464397Y-105231062D01*
X180312884Y-105255059D01*
X180312881Y-105255060D01*
X180133166Y-105313453D01*
X179964806Y-105399236D01*
X179811920Y-105510315D01*
X179678315Y-105643920D01*
X179567236Y-105796806D01*
X179481453Y-105965166D01*
X179423060Y-106144881D01*
X179423059Y-106144884D01*
X179393500Y-106331519D01*
X163797413Y-106331519D01*
X163801327Y-106316912D01*
X163822500Y-106237894D01*
X163822500Y-106106105D01*
X163822499Y-106106104D01*
X163815292Y-106079207D01*
X163788392Y-105978814D01*
X163788391Y-105978813D01*
X163788391Y-105978811D01*
X163722499Y-105864685D01*
X163629314Y-105771500D01*
X163515188Y-105705608D01*
X163515184Y-105705607D01*
X163387895Y-105671500D01*
X163387892Y-105671500D01*
X163256108Y-105671500D01*
X163256105Y-105671500D01*
X163128815Y-105705607D01*
X163128811Y-105705608D01*
X163014685Y-105771500D01*
X163014685Y-105771501D01*
X162921501Y-105864685D01*
X162921500Y-105864685D01*
X162855608Y-105978811D01*
X162855607Y-105978815D01*
X162821500Y-106106104D01*
X153549918Y-106106104D01*
X153469314Y-106025500D01*
X153355188Y-105959608D01*
X153355184Y-105959607D01*
X153227895Y-105925500D01*
X153227892Y-105925500D01*
X153096108Y-105925500D01*
X153096105Y-105925500D01*
X152968815Y-105959607D01*
X152968811Y-105959608D01*
X152854685Y-106025500D01*
X152854685Y-106025501D01*
X152761501Y-106118685D01*
X152761500Y-106118685D01*
X152695608Y-106232811D01*
X152695607Y-106232815D01*
X152661500Y-106360104D01*
X130810000Y-106360104D01*
X130810000Y-105344104D01*
X169933500Y-105344104D01*
X169933500Y-105475895D01*
X169967607Y-105603184D01*
X169967608Y-105603188D01*
X170033500Y-105717314D01*
X170126686Y-105810500D01*
X170168457Y-105834617D01*
X170240811Y-105876391D01*
X170240813Y-105876391D01*
X170240814Y-105876392D01*
X170341207Y-105903292D01*
X170368104Y-105910499D01*
X170368105Y-105910500D01*
X170368108Y-105910500D01*
X170499895Y-105910500D01*
X170499895Y-105910499D01*
X170627186Y-105876392D01*
X170741314Y-105810500D01*
X170834500Y-105717314D01*
X170900392Y-105603186D01*
X170934499Y-105475895D01*
X170934500Y-105475895D01*
X170934500Y-105344105D01*
X170934499Y-105344104D01*
X170910640Y-105255060D01*
X170900392Y-105216814D01*
X170900391Y-105216813D01*
X170900391Y-105216811D01*
X170834499Y-105102685D01*
X170741314Y-105009500D01*
X170627188Y-104943608D01*
X170627184Y-104943607D01*
X170499895Y-104909500D01*
X170499892Y-104909500D01*
X170368108Y-104909500D01*
X170368105Y-104909500D01*
X170240815Y-104943607D01*
X170240811Y-104943608D01*
X170126685Y-105009500D01*
X170126685Y-105009501D01*
X170033501Y-105102685D01*
X170033500Y-105102685D01*
X169967608Y-105216811D01*
X169967607Y-105216815D01*
X169933500Y-105344104D01*
X130810000Y-105344104D01*
X130810000Y-105205000D01*
X130824352Y-105170352D01*
X130859000Y-105156000D01*
X136906000Y-105156000D01*
X136906000Y-104328104D01*
X163837500Y-104328104D01*
X163837500Y-104459895D01*
X163871607Y-104587184D01*
X163871608Y-104587188D01*
X163937500Y-104701314D01*
X164030686Y-104794500D01*
X164072457Y-104818617D01*
X164144811Y-104860391D01*
X164144813Y-104860391D01*
X164144814Y-104860392D01*
X164245207Y-104887292D01*
X164272104Y-104894499D01*
X164272105Y-104894500D01*
X164272108Y-104894500D01*
X164403895Y-104894500D01*
X164403895Y-104894499D01*
X164531186Y-104860392D01*
X164645314Y-104794500D01*
X164738500Y-104701314D01*
X164804392Y-104587186D01*
X164838499Y-104459895D01*
X164838500Y-104459895D01*
X164838500Y-104328105D01*
X164838499Y-104328104D01*
X164831292Y-104301207D01*
X164804392Y-104200814D01*
X164804391Y-104200813D01*
X164804391Y-104200811D01*
X164738499Y-104086685D01*
X164645314Y-103993500D01*
X164531188Y-103927608D01*
X164531184Y-103927607D01*
X164403895Y-103893500D01*
X164403892Y-103893500D01*
X164272108Y-103893500D01*
X164272105Y-103893500D01*
X164144815Y-103927607D01*
X164144811Y-103927608D01*
X164030685Y-103993500D01*
X164030685Y-103993501D01*
X163937501Y-104086685D01*
X163937500Y-104086685D01*
X163871608Y-104200811D01*
X163871607Y-104200815D01*
X163837500Y-104328104D01*
X136906000Y-104328104D01*
X136906000Y-103791519D01*
X179393500Y-103791519D01*
X179393500Y-103980480D01*
X179423059Y-104167115D01*
X179423060Y-104167118D01*
X179481453Y-104346833D01*
X179567236Y-104515193D01*
X179567239Y-104515197D01*
X179567240Y-104515199D01*
X179678310Y-104668073D01*
X179678312Y-104668075D01*
X179678315Y-104668079D01*
X179811920Y-104801684D01*
X179811923Y-104801686D01*
X179811927Y-104801690D01*
X179964801Y-104912760D01*
X179964803Y-104912761D01*
X179964806Y-104912763D01*
X180133166Y-104998546D01*
X180133168Y-104998547D01*
X180312882Y-105056940D01*
X180499519Y-105086500D01*
X180499520Y-105086500D01*
X180688480Y-105086500D01*
X180688481Y-105086500D01*
X180875118Y-105056940D01*
X181054832Y-104998547D01*
X181223199Y-104912760D01*
X181376073Y-104801690D01*
X181509690Y-104668073D01*
X181620760Y-104515199D01*
X181706547Y-104346832D01*
X181764940Y-104167118D01*
X181794500Y-103980481D01*
X181794500Y-103791519D01*
X181764940Y-103604882D01*
X181706547Y-103425168D01*
X181705952Y-103424000D01*
X181620763Y-103256806D01*
X181620761Y-103256803D01*
X181620760Y-103256801D01*
X181509690Y-103103927D01*
X181509686Y-103103923D01*
X181509684Y-103103920D01*
X181376079Y-102970315D01*
X181376080Y-102970315D01*
X181223193Y-102859236D01*
X181054833Y-102773453D01*
X180875118Y-102715060D01*
X180875115Y-102715059D01*
X180731744Y-102692352D01*
X180688481Y-102685500D01*
X180499519Y-102685500D01*
X180464397Y-102691062D01*
X180312884Y-102715059D01*
X180312881Y-102715060D01*
X180133166Y-102773453D01*
X179964806Y-102859236D01*
X179811920Y-102970315D01*
X179678315Y-103103920D01*
X179567236Y-103256806D01*
X179481453Y-103425166D01*
X179423060Y-103604881D01*
X179423059Y-103604884D01*
X179393500Y-103791519D01*
X136906000Y-103791519D01*
X136906000Y-102804104D01*
X152661500Y-102804104D01*
X152661500Y-102935895D01*
X152695607Y-103063184D01*
X152695608Y-103063188D01*
X152761500Y-103177314D01*
X152854686Y-103270500D01*
X152896457Y-103294617D01*
X152968811Y-103336391D01*
X152968813Y-103336391D01*
X152968814Y-103336392D01*
X153069207Y-103363292D01*
X153096104Y-103370499D01*
X153096105Y-103370500D01*
X153096108Y-103370500D01*
X153227895Y-103370500D01*
X153227895Y-103370499D01*
X153355186Y-103336392D01*
X153469314Y-103270500D01*
X153562500Y-103177314D01*
X153628392Y-103063186D01*
X153662499Y-102935895D01*
X153662500Y-102935895D01*
X153662500Y-102804105D01*
X153662499Y-102804104D01*
X153654286Y-102773453D01*
X153628392Y-102676814D01*
X153562500Y-102562686D01*
X153549918Y-102550104D01*
X173235500Y-102550104D01*
X173235500Y-102681895D01*
X173269607Y-102809184D01*
X173269608Y-102809188D01*
X173335500Y-102923314D01*
X173428686Y-103016500D01*
X173470457Y-103040617D01*
X173542811Y-103082391D01*
X173542813Y-103082391D01*
X173542814Y-103082392D01*
X173643207Y-103109292D01*
X173670104Y-103116499D01*
X173670105Y-103116500D01*
X173670108Y-103116500D01*
X173801895Y-103116500D01*
X173801895Y-103116499D01*
X173929186Y-103082392D01*
X174043314Y-103016500D01*
X174136500Y-102923314D01*
X174202392Y-102809186D01*
X174236499Y-102681895D01*
X174236500Y-102681895D01*
X174236500Y-102550105D01*
X174236499Y-102550104D01*
X174227612Y-102516939D01*
X174202392Y-102422814D01*
X174202391Y-102422813D01*
X174202391Y-102422811D01*
X174136499Y-102308685D01*
X174043314Y-102215500D01*
X173929188Y-102149608D01*
X173929184Y-102149607D01*
X173801895Y-102115500D01*
X173801892Y-102115500D01*
X173670108Y-102115500D01*
X173670105Y-102115500D01*
X173542815Y-102149607D01*
X173542811Y-102149608D01*
X173428685Y-102215500D01*
X173428685Y-102215501D01*
X173335501Y-102308685D01*
X173335500Y-102308685D01*
X173269608Y-102422811D01*
X173269607Y-102422815D01*
X173235500Y-102550104D01*
X153549918Y-102550104D01*
X153469314Y-102469500D01*
X153450341Y-102458546D01*
X153355188Y-102403608D01*
X153355184Y-102403607D01*
X153227895Y-102369500D01*
X153227892Y-102369500D01*
X153096108Y-102369500D01*
X153096105Y-102369500D01*
X152968815Y-102403607D01*
X152968811Y-102403608D01*
X152854685Y-102469500D01*
X152854685Y-102469501D01*
X152761501Y-102562685D01*
X152761500Y-102562685D01*
X152695608Y-102676811D01*
X152695607Y-102676815D01*
X152661500Y-102804104D01*
X136906000Y-102804104D01*
X136906000Y-101079104D01*
X141993500Y-101079104D01*
X141993500Y-101210895D01*
X142027607Y-101338184D01*
X142027608Y-101338188D01*
X142086668Y-101440481D01*
X142093500Y-101452314D01*
X142186686Y-101545500D01*
X142228457Y-101569617D01*
X142300811Y-101611391D01*
X142300813Y-101611391D01*
X142300814Y-101611392D01*
X142359494Y-101627115D01*
X142428104Y-101645499D01*
X142428105Y-101645500D01*
X142428108Y-101645500D01*
X142559895Y-101645500D01*
X142559895Y-101645499D01*
X142687186Y-101611392D01*
X142801314Y-101545500D01*
X142894500Y-101452314D01*
X142956062Y-101345686D01*
X142960391Y-101338188D01*
X142960391Y-101338187D01*
X142960392Y-101338186D01*
X142994499Y-101210895D01*
X142994500Y-101210895D01*
X142994500Y-101079105D01*
X142994499Y-101079104D01*
X144025500Y-101079104D01*
X144025500Y-101210895D01*
X144059607Y-101338184D01*
X144059608Y-101338188D01*
X144118668Y-101440481D01*
X144125500Y-101452314D01*
X144218686Y-101545500D01*
X144260457Y-101569617D01*
X144332811Y-101611391D01*
X144332813Y-101611391D01*
X144332814Y-101611392D01*
X144391494Y-101627115D01*
X144460104Y-101645499D01*
X144460105Y-101645500D01*
X144460108Y-101645500D01*
X144591895Y-101645500D01*
X144591895Y-101645499D01*
X144719186Y-101611392D01*
X144761254Y-101587104D01*
X160027500Y-101587104D01*
X160027500Y-101718895D01*
X160061607Y-101846184D01*
X160061608Y-101846188D01*
X160127500Y-101960314D01*
X160220686Y-102053500D01*
X160262457Y-102077617D01*
X160334811Y-102119391D01*
X160334813Y-102119391D01*
X160334814Y-102119392D01*
X160367235Y-102128079D01*
X160462104Y-102153499D01*
X160462105Y-102153500D01*
X160462108Y-102153500D01*
X160593895Y-102153500D01*
X160593895Y-102153499D01*
X160721186Y-102119392D01*
X160835314Y-102053500D01*
X160928500Y-101960314D01*
X160994392Y-101846186D01*
X161028499Y-101718895D01*
X161028500Y-101718895D01*
X161028500Y-101587105D01*
X161028499Y-101587104D01*
X160994392Y-101459815D01*
X160994391Y-101459811D01*
X160928499Y-101345685D01*
X160862918Y-101280104D01*
X174251500Y-101280104D01*
X174251500Y-101411895D01*
X174285607Y-101539184D01*
X174285608Y-101539188D01*
X174351500Y-101653314D01*
X174444686Y-101746500D01*
X174486457Y-101770617D01*
X174558811Y-101812391D01*
X174558813Y-101812391D01*
X174558814Y-101812392D01*
X174659207Y-101839292D01*
X174686104Y-101846499D01*
X174686105Y-101846500D01*
X174686108Y-101846500D01*
X174817895Y-101846500D01*
X174817895Y-101846499D01*
X174945186Y-101812392D01*
X174954815Y-101806833D01*
X174960478Y-101803563D01*
X175059314Y-101746500D01*
X175152500Y-101653314D01*
X175218392Y-101539186D01*
X175252499Y-101411895D01*
X175252500Y-101411895D01*
X175252500Y-101280108D01*
X175247722Y-101262276D01*
X175247722Y-101262273D01*
X175244840Y-101251519D01*
X179393500Y-101251519D01*
X179393500Y-101440480D01*
X179423059Y-101627115D01*
X179423060Y-101627118D01*
X179481453Y-101806833D01*
X179567236Y-101975193D01*
X179567239Y-101975197D01*
X179567240Y-101975199D01*
X179678310Y-102128073D01*
X179678312Y-102128075D01*
X179678315Y-102128079D01*
X179811920Y-102261684D01*
X179811923Y-102261686D01*
X179811927Y-102261690D01*
X179964801Y-102372760D01*
X179964803Y-102372761D01*
X179964806Y-102372763D01*
X180133166Y-102458546D01*
X180133168Y-102458547D01*
X180312882Y-102516940D01*
X180499519Y-102546500D01*
X180499520Y-102546500D01*
X180688480Y-102546500D01*
X180688481Y-102546500D01*
X180875118Y-102516940D01*
X181054832Y-102458547D01*
X181223199Y-102372760D01*
X181376073Y-102261690D01*
X181509690Y-102128073D01*
X181620760Y-101975199D01*
X181706547Y-101806832D01*
X181764940Y-101627118D01*
X181794500Y-101440481D01*
X181794500Y-101251519D01*
X181764940Y-101064882D01*
X181706547Y-100885168D01*
X181634874Y-100744501D01*
X181620763Y-100716806D01*
X181620761Y-100716803D01*
X181620760Y-100716801D01*
X181509690Y-100563927D01*
X181509686Y-100563923D01*
X181509684Y-100563920D01*
X181376079Y-100430315D01*
X181376080Y-100430315D01*
X181346600Y-100408897D01*
X181223199Y-100319240D01*
X181223197Y-100319239D01*
X181223193Y-100319236D01*
X181054833Y-100233453D01*
X180875118Y-100175060D01*
X180875115Y-100175059D01*
X180731744Y-100152352D01*
X180688481Y-100145500D01*
X180499519Y-100145500D01*
X180464397Y-100151062D01*
X180312884Y-100175059D01*
X180312881Y-100175060D01*
X180133166Y-100233453D01*
X179964806Y-100319236D01*
X179811920Y-100430315D01*
X179678315Y-100563920D01*
X179567236Y-100716806D01*
X179481453Y-100885166D01*
X179423060Y-101064881D01*
X179423059Y-101064884D01*
X179393500Y-101251519D01*
X175244840Y-101251519D01*
X175218392Y-101152815D01*
X175218391Y-101152811D01*
X175152499Y-101038685D01*
X175059314Y-100945500D01*
X174945188Y-100879608D01*
X174945184Y-100879607D01*
X174817895Y-100845500D01*
X174817892Y-100845500D01*
X174686108Y-100845500D01*
X174686105Y-100845500D01*
X174558815Y-100879607D01*
X174558811Y-100879608D01*
X174444685Y-100945500D01*
X174444685Y-100945501D01*
X174351501Y-101038685D01*
X174351500Y-101038685D01*
X174285608Y-101152811D01*
X174285607Y-101152815D01*
X174251500Y-101280104D01*
X160862918Y-101280104D01*
X160835314Y-101252500D01*
X160721188Y-101186608D01*
X160721184Y-101186607D01*
X160593895Y-101152500D01*
X160593892Y-101152500D01*
X160462108Y-101152500D01*
X160462105Y-101152500D01*
X160334815Y-101186607D01*
X160334811Y-101186608D01*
X160220685Y-101252500D01*
X160220685Y-101252501D01*
X160127501Y-101345685D01*
X160127500Y-101345685D01*
X160061608Y-101459811D01*
X160061607Y-101459815D01*
X160027500Y-101587104D01*
X144761254Y-101587104D01*
X144833314Y-101545500D01*
X144926500Y-101452314D01*
X144988062Y-101345686D01*
X144992391Y-101338188D01*
X144992391Y-101338187D01*
X144992392Y-101338186D01*
X145026499Y-101210895D01*
X145026500Y-101210895D01*
X145026500Y-101079105D01*
X145026499Y-101079104D01*
X144992392Y-100951815D01*
X144992391Y-100951811D01*
X144926499Y-100837685D01*
X144833314Y-100744500D01*
X144719188Y-100678608D01*
X144719184Y-100678607D01*
X144591895Y-100644500D01*
X144591892Y-100644500D01*
X144460108Y-100644500D01*
X144460105Y-100644500D01*
X144332815Y-100678607D01*
X144332811Y-100678608D01*
X144218685Y-100744500D01*
X144218685Y-100744501D01*
X144125501Y-100837685D01*
X144125500Y-100837685D01*
X144059608Y-100951811D01*
X144059607Y-100951815D01*
X144025500Y-101079104D01*
X142994499Y-101079104D01*
X142960392Y-100951815D01*
X142960391Y-100951811D01*
X142894499Y-100837685D01*
X142801314Y-100744500D01*
X142687188Y-100678608D01*
X142687184Y-100678607D01*
X142559895Y-100644500D01*
X142559892Y-100644500D01*
X142428108Y-100644500D01*
X142428105Y-100644500D01*
X142300815Y-100678607D01*
X142300811Y-100678608D01*
X142186685Y-100744500D01*
X142186685Y-100744501D01*
X142093501Y-100837685D01*
X142093500Y-100837685D01*
X142027608Y-100951811D01*
X142027607Y-100951815D01*
X141993500Y-101079104D01*
X136906000Y-101079104D01*
X136906000Y-99555104D01*
X158249500Y-99555104D01*
X158249500Y-99686895D01*
X158283607Y-99814184D01*
X158283608Y-99814188D01*
X158343860Y-99918546D01*
X158349500Y-99928314D01*
X158442686Y-100021500D01*
X158467801Y-100036000D01*
X158556811Y-100087391D01*
X158556813Y-100087391D01*
X158556814Y-100087392D01*
X158657207Y-100114292D01*
X158684104Y-100121499D01*
X158684105Y-100121500D01*
X158684108Y-100121500D01*
X158815895Y-100121500D01*
X158815895Y-100121499D01*
X158943186Y-100087392D01*
X159057314Y-100021500D01*
X159150500Y-99928314D01*
X159216392Y-99814186D01*
X159250499Y-99686895D01*
X159250500Y-99686895D01*
X159250500Y-99555105D01*
X159250499Y-99555104D01*
X159216392Y-99427815D01*
X159216391Y-99427811D01*
X159150499Y-99313685D01*
X159084918Y-99248104D01*
X173235500Y-99248104D01*
X173235500Y-99379895D01*
X173269607Y-99507184D01*
X173269608Y-99507188D01*
X173335500Y-99621314D01*
X173428686Y-99714500D01*
X173470457Y-99738617D01*
X173542811Y-99780391D01*
X173542813Y-99780391D01*
X173542814Y-99780392D01*
X173643207Y-99807292D01*
X173670104Y-99814499D01*
X173670105Y-99814500D01*
X173670108Y-99814500D01*
X173801895Y-99814500D01*
X173801895Y-99814499D01*
X173929186Y-99780392D01*
X174043314Y-99714500D01*
X174136500Y-99621314D01*
X174202392Y-99507186D01*
X174236499Y-99379895D01*
X174236500Y-99379895D01*
X174236500Y-99248105D01*
X174236499Y-99248104D01*
X174202392Y-99120815D01*
X174202391Y-99120811D01*
X174136499Y-99006685D01*
X174043314Y-98913500D01*
X173929188Y-98847608D01*
X173929184Y-98847607D01*
X173801895Y-98813500D01*
X173801892Y-98813500D01*
X173670108Y-98813500D01*
X173670105Y-98813500D01*
X173542815Y-98847607D01*
X173542811Y-98847608D01*
X173428685Y-98913500D01*
X173428685Y-98913501D01*
X173335501Y-99006685D01*
X173335500Y-99006685D01*
X173269608Y-99120811D01*
X173269607Y-99120815D01*
X173235500Y-99248104D01*
X159084918Y-99248104D01*
X159057314Y-99220500D01*
X158943188Y-99154608D01*
X158943184Y-99154607D01*
X158815895Y-99120500D01*
X158815892Y-99120500D01*
X158684108Y-99120500D01*
X158684105Y-99120500D01*
X158556815Y-99154607D01*
X158556811Y-99154608D01*
X158442685Y-99220500D01*
X158442685Y-99220501D01*
X158349501Y-99313685D01*
X158349500Y-99313685D01*
X158283608Y-99427811D01*
X158283607Y-99427815D01*
X158249500Y-99555104D01*
X136906000Y-99555104D01*
X136906000Y-98232104D01*
X149105500Y-98232104D01*
X149105500Y-98363895D01*
X149139607Y-98491184D01*
X149139608Y-98491188D01*
X149165123Y-98535380D01*
X149205500Y-98605314D01*
X149298686Y-98698500D01*
X149321236Y-98711519D01*
X149412811Y-98764391D01*
X149412813Y-98764391D01*
X149412814Y-98764392D01*
X149513207Y-98791292D01*
X149540104Y-98798499D01*
X149540105Y-98798500D01*
X149540108Y-98798500D01*
X149671895Y-98798500D01*
X149671895Y-98798499D01*
X149799186Y-98764392D01*
X149913314Y-98698500D01*
X150006500Y-98605314D01*
X150072392Y-98491186D01*
X150106499Y-98363895D01*
X150106500Y-98363895D01*
X150106500Y-98232105D01*
X150106499Y-98232104D01*
X160789500Y-98232104D01*
X160789500Y-98363895D01*
X160823607Y-98491184D01*
X160823608Y-98491188D01*
X160849123Y-98535380D01*
X160889500Y-98605314D01*
X160982686Y-98698500D01*
X161005236Y-98711519D01*
X161096811Y-98764391D01*
X161096813Y-98764391D01*
X161096814Y-98764392D01*
X161197207Y-98791292D01*
X161224104Y-98798499D01*
X161224105Y-98798500D01*
X161224108Y-98798500D01*
X161355895Y-98798500D01*
X161355895Y-98798499D01*
X161483186Y-98764392D01*
X161574764Y-98711519D01*
X179393500Y-98711519D01*
X179393500Y-98900480D01*
X179423059Y-99087115D01*
X179423060Y-99087118D01*
X179481453Y-99266833D01*
X179567236Y-99435193D01*
X179567239Y-99435197D01*
X179567240Y-99435199D01*
X179678310Y-99588073D01*
X179678312Y-99588075D01*
X179678315Y-99588079D01*
X179811920Y-99721684D01*
X179811923Y-99721686D01*
X179811927Y-99721690D01*
X179964801Y-99832760D01*
X179964803Y-99832761D01*
X179964806Y-99832763D01*
X180133166Y-99918546D01*
X180133168Y-99918547D01*
X180312882Y-99976940D01*
X180499519Y-100006500D01*
X180499520Y-100006500D01*
X180688480Y-100006500D01*
X180688481Y-100006500D01*
X180875118Y-99976940D01*
X181054832Y-99918547D01*
X181223199Y-99832760D01*
X181376073Y-99721690D01*
X181509690Y-99588073D01*
X181620760Y-99435199D01*
X181706547Y-99266832D01*
X181764940Y-99087118D01*
X181794500Y-98900481D01*
X181794500Y-98711519D01*
X181764940Y-98524882D01*
X181706547Y-98345168D01*
X181706546Y-98345166D01*
X181620763Y-98176806D01*
X181620761Y-98176803D01*
X181620760Y-98176801D01*
X181509690Y-98023927D01*
X181509686Y-98023923D01*
X181509684Y-98023920D01*
X181376079Y-97890315D01*
X181376080Y-97890315D01*
X181295277Y-97831608D01*
X181223199Y-97779240D01*
X181223197Y-97779239D01*
X181223193Y-97779236D01*
X181054833Y-97693453D01*
X180875118Y-97635060D01*
X180875115Y-97635059D01*
X180731744Y-97612352D01*
X180688481Y-97605500D01*
X180499519Y-97605500D01*
X180464397Y-97611062D01*
X180312884Y-97635059D01*
X180312881Y-97635060D01*
X180133166Y-97693453D01*
X179964806Y-97779236D01*
X179811920Y-97890315D01*
X179678315Y-98023920D01*
X179567236Y-98176806D01*
X179481453Y-98345166D01*
X179423060Y-98524881D01*
X179423059Y-98524884D01*
X179393500Y-98711519D01*
X161574764Y-98711519D01*
X161597314Y-98698500D01*
X161690500Y-98605314D01*
X161756392Y-98491186D01*
X161790499Y-98363895D01*
X161790500Y-98363895D01*
X161790500Y-98232105D01*
X161790499Y-98232104D01*
X161756392Y-98104815D01*
X161756391Y-98104811D01*
X161690499Y-97990685D01*
X161597314Y-97897500D01*
X161483188Y-97831608D01*
X161483184Y-97831607D01*
X161355895Y-97797500D01*
X161355892Y-97797500D01*
X161224108Y-97797500D01*
X161224105Y-97797500D01*
X161096815Y-97831607D01*
X161096811Y-97831608D01*
X160982685Y-97897500D01*
X160982685Y-97897501D01*
X160889501Y-97990685D01*
X160889500Y-97990685D01*
X160823608Y-98104811D01*
X160823607Y-98104815D01*
X160789500Y-98232104D01*
X150106499Y-98232104D01*
X150072392Y-98104815D01*
X150072391Y-98104811D01*
X150006499Y-97990685D01*
X149913314Y-97897500D01*
X149799188Y-97831608D01*
X149799184Y-97831607D01*
X149671895Y-97797500D01*
X149671892Y-97797500D01*
X149540108Y-97797500D01*
X149540105Y-97797500D01*
X149412815Y-97831607D01*
X149412811Y-97831608D01*
X149298685Y-97897500D01*
X149298685Y-97897501D01*
X149205501Y-97990685D01*
X149205500Y-97990685D01*
X149139608Y-98104811D01*
X149139607Y-98104815D01*
X149105500Y-98232104D01*
X136906000Y-98232104D01*
X136906000Y-97675226D01*
X136920352Y-97640578D01*
X136932755Y-97631567D01*
X137099199Y-97546760D01*
X137099434Y-97546588D01*
X137101131Y-97545357D01*
X137129931Y-97536000D01*
X140310069Y-97536000D01*
X140338869Y-97545357D01*
X140340796Y-97546757D01*
X140340800Y-97546759D01*
X140340801Y-97546760D01*
X140509168Y-97632547D01*
X140688882Y-97690940D01*
X140875519Y-97720500D01*
X140875520Y-97720500D01*
X141064480Y-97720500D01*
X141064481Y-97720500D01*
X141251118Y-97690940D01*
X141430832Y-97632547D01*
X141599199Y-97546760D01*
X141599434Y-97546588D01*
X141601131Y-97545357D01*
X141629931Y-97536000D01*
X143764000Y-97536000D01*
X143764000Y-95946104D01*
X173235500Y-95946104D01*
X173235500Y-96077895D01*
X173269607Y-96205184D01*
X173269608Y-96205188D01*
X173289062Y-96238882D01*
X173335500Y-96319314D01*
X173428686Y-96412500D01*
X173451236Y-96425519D01*
X173542811Y-96478391D01*
X173542813Y-96478391D01*
X173542814Y-96478392D01*
X173608107Y-96495887D01*
X173670104Y-96512499D01*
X173670105Y-96512500D01*
X173670108Y-96512500D01*
X173801895Y-96512500D01*
X173801895Y-96512499D01*
X173929186Y-96478392D01*
X174043314Y-96412500D01*
X174136500Y-96319314D01*
X174202392Y-96205186D01*
X174211413Y-96171519D01*
X179393500Y-96171519D01*
X179393500Y-96360480D01*
X179423059Y-96547115D01*
X179423060Y-96547118D01*
X179481453Y-96726833D01*
X179567236Y-96895193D01*
X179567239Y-96895197D01*
X179567240Y-96895199D01*
X179678310Y-97048073D01*
X179678312Y-97048075D01*
X179678315Y-97048079D01*
X179811920Y-97181684D01*
X179811923Y-97181686D01*
X179811927Y-97181690D01*
X179964801Y-97292760D01*
X179964803Y-97292761D01*
X179964806Y-97292763D01*
X180133166Y-97378546D01*
X180133168Y-97378547D01*
X180312882Y-97436940D01*
X180499519Y-97466500D01*
X180499520Y-97466500D01*
X180688480Y-97466500D01*
X180688481Y-97466500D01*
X180875118Y-97436940D01*
X181054832Y-97378547D01*
X181223199Y-97292760D01*
X181376073Y-97181690D01*
X181509690Y-97048073D01*
X181620760Y-96895199D01*
X181706547Y-96726832D01*
X181764940Y-96547118D01*
X181794500Y-96360481D01*
X181794500Y-96171519D01*
X181764940Y-95984882D01*
X181706547Y-95805168D01*
X181620760Y-95636801D01*
X181509690Y-95483927D01*
X181509686Y-95483923D01*
X181509684Y-95483920D01*
X181376079Y-95350315D01*
X181376080Y-95350315D01*
X181223193Y-95239236D01*
X181054833Y-95153453D01*
X180875118Y-95095060D01*
X180875115Y-95095059D01*
X180731744Y-95072352D01*
X180688481Y-95065500D01*
X180499519Y-95065500D01*
X180464397Y-95071062D01*
X180312884Y-95095059D01*
X180312881Y-95095060D01*
X180133166Y-95153453D01*
X179964806Y-95239236D01*
X179811920Y-95350315D01*
X179678315Y-95483920D01*
X179567236Y-95636806D01*
X179481453Y-95805166D01*
X179423060Y-95984881D01*
X179423059Y-95984884D01*
X179393500Y-96171519D01*
X174211413Y-96171519D01*
X174215327Y-96156912D01*
X174236500Y-96077894D01*
X174236500Y-95946105D01*
X174236499Y-95946104D01*
X174202392Y-95818815D01*
X174202391Y-95818811D01*
X174136499Y-95704685D01*
X174043314Y-95611500D01*
X173929188Y-95545608D01*
X173929184Y-95545607D01*
X173801895Y-95511500D01*
X173801892Y-95511500D01*
X173670108Y-95511500D01*
X173670105Y-95511500D01*
X173542815Y-95545607D01*
X173542811Y-95545608D01*
X173428685Y-95611500D01*
X173428685Y-95611501D01*
X173335501Y-95704685D01*
X173335500Y-95704685D01*
X173269608Y-95818811D01*
X173269607Y-95818815D01*
X173235500Y-95946104D01*
X143764000Y-95946104D01*
X143764000Y-94947570D01*
X143778352Y-94912922D01*
X143788494Y-94905138D01*
X143817314Y-94888500D01*
X143910500Y-94795314D01*
X143976392Y-94681186D01*
X144010499Y-94553895D01*
X144010500Y-94553895D01*
X144010500Y-94422105D01*
X144010499Y-94422104D01*
X143976392Y-94294815D01*
X143976391Y-94294811D01*
X143910499Y-94180685D01*
X143817316Y-94087502D01*
X143817314Y-94087500D01*
X143788498Y-94070863D01*
X143765669Y-94041110D01*
X143764000Y-94028429D01*
X143764000Y-92094252D01*
X145761500Y-92094252D01*
X145761500Y-93833748D01*
X145773133Y-93892231D01*
X145787748Y-93914104D01*
X145817447Y-93958552D01*
X145826562Y-93964642D01*
X145883769Y-94002867D01*
X145942252Y-94014500D01*
X145942255Y-94014500D01*
X147681745Y-94014500D01*
X147681748Y-94014500D01*
X147740231Y-94002867D01*
X147806552Y-93958552D01*
X147836252Y-93914104D01*
X149105500Y-93914104D01*
X149105500Y-94045895D01*
X149139607Y-94173184D01*
X149139608Y-94173188D01*
X149205500Y-94287314D01*
X149298686Y-94380500D01*
X149340457Y-94404617D01*
X149412811Y-94446391D01*
X149412813Y-94446391D01*
X149412814Y-94446392D01*
X149513207Y-94473292D01*
X149540104Y-94480499D01*
X149540105Y-94480500D01*
X149540108Y-94480500D01*
X149671895Y-94480500D01*
X149671895Y-94480499D01*
X149799186Y-94446392D01*
X149913314Y-94380500D01*
X150006500Y-94287314D01*
X150068062Y-94180686D01*
X150072391Y-94173188D01*
X150072391Y-94173187D01*
X150072392Y-94173186D01*
X150106499Y-94045895D01*
X150106500Y-94045895D01*
X150106500Y-93914105D01*
X150106499Y-93914104D01*
X150072392Y-93786815D01*
X150072391Y-93786811D01*
X150006499Y-93672685D01*
X149913314Y-93579500D01*
X149799188Y-93513608D01*
X149799184Y-93513607D01*
X149671895Y-93479500D01*
X149671892Y-93479500D01*
X149540108Y-93479500D01*
X149540105Y-93479500D01*
X149412815Y-93513607D01*
X149412811Y-93513608D01*
X149298685Y-93579500D01*
X149298685Y-93579501D01*
X149205501Y-93672685D01*
X149205500Y-93672685D01*
X149139608Y-93786811D01*
X149139607Y-93786815D01*
X149105500Y-93914104D01*
X147836252Y-93914104D01*
X147850867Y-93892231D01*
X147862500Y-93833748D01*
X147862500Y-92094252D01*
X147850867Y-92035769D01*
X147824301Y-91996012D01*
X147806552Y-91969447D01*
X147766795Y-91942882D01*
X147740231Y-91925133D01*
X147681748Y-91913500D01*
X145942252Y-91913500D01*
X145883769Y-91925133D01*
X145817447Y-91969447D01*
X145773133Y-92035769D01*
X145761500Y-92094252D01*
X143764000Y-92094252D01*
X143764000Y-90173999D01*
X145484769Y-90173999D01*
X145484770Y-90174000D01*
X146378988Y-90174000D01*
X146346075Y-90231007D01*
X146312000Y-90358174D01*
X146312000Y-90489826D01*
X146346075Y-90616993D01*
X146378988Y-90674000D01*
X145484769Y-90674000D01*
X145495241Y-90740123D01*
X145495242Y-90740126D01*
X145560905Y-90942218D01*
X145657377Y-91131553D01*
X145782279Y-91303467D01*
X145782283Y-91303472D01*
X145932528Y-91453717D01*
X145932532Y-91453720D01*
X146104446Y-91578622D01*
X146293781Y-91675094D01*
X146495873Y-91740757D01*
X146495876Y-91740758D01*
X146561999Y-91751230D01*
X146562000Y-91751230D01*
X146562000Y-90857012D01*
X146619007Y-90889925D01*
X146746174Y-90924000D01*
X146877826Y-90924000D01*
X147004993Y-90889925D01*
X147062000Y-90857012D01*
X147062000Y-91751230D01*
X147128123Y-91740758D01*
X147128126Y-91740757D01*
X147330218Y-91675094D01*
X147519553Y-91578622D01*
X147691467Y-91453720D01*
X147691472Y-91453717D01*
X147841717Y-91303472D01*
X147841720Y-91303467D01*
X147966622Y-91131553D01*
X148063094Y-90942218D01*
X148128757Y-90740126D01*
X148128758Y-90740123D01*
X148128919Y-90739104D01*
X169044500Y-90739104D01*
X169044500Y-90870895D01*
X169078607Y-90998184D01*
X169078608Y-90998188D01*
X169144500Y-91112314D01*
X169237686Y-91205500D01*
X169263667Y-91220500D01*
X169351811Y-91271391D01*
X169351813Y-91271391D01*
X169351814Y-91271392D01*
X169452207Y-91298292D01*
X169479104Y-91305499D01*
X169479105Y-91305500D01*
X169479108Y-91305500D01*
X169610895Y-91305500D01*
X169610895Y-91305499D01*
X169738186Y-91271392D01*
X169852314Y-91205500D01*
X169945500Y-91112314D01*
X170011392Y-90998186D01*
X170045499Y-90870895D01*
X170045500Y-90870895D01*
X170045500Y-90739105D01*
X170045499Y-90739104D01*
X170038292Y-90712207D01*
X170011392Y-90611814D01*
X170011391Y-90611813D01*
X170011391Y-90611811D01*
X169945499Y-90497685D01*
X169852314Y-90404500D01*
X169738188Y-90338608D01*
X169738184Y-90338607D01*
X169610895Y-90304500D01*
X169610892Y-90304500D01*
X169479108Y-90304500D01*
X169479105Y-90304500D01*
X169351815Y-90338607D01*
X169351811Y-90338608D01*
X169237685Y-90404500D01*
X169237685Y-90404501D01*
X169144501Y-90497685D01*
X169144500Y-90497685D01*
X169078608Y-90611811D01*
X169078607Y-90611815D01*
X169044500Y-90739104D01*
X148128919Y-90739104D01*
X148130642Y-90728231D01*
X148139231Y-90674000D01*
X147245012Y-90674000D01*
X147277925Y-90616993D01*
X147312000Y-90489826D01*
X147312000Y-90358174D01*
X147277925Y-90231007D01*
X147245012Y-90174000D01*
X148139230Y-90174000D01*
X148139230Y-90173999D01*
X148128758Y-90107876D01*
X148128757Y-90107873D01*
X148092784Y-89997157D01*
X148063094Y-89905781D01*
X147966622Y-89716446D01*
X147841720Y-89544532D01*
X147841717Y-89544528D01*
X147691472Y-89394283D01*
X147691467Y-89394279D01*
X147519553Y-89269377D01*
X147330218Y-89172905D01*
X147128133Y-89107244D01*
X147128129Y-89107243D01*
X147062000Y-89096768D01*
X147062000Y-89990988D01*
X147004993Y-89958075D01*
X146877826Y-89924000D01*
X146746174Y-89924000D01*
X146619007Y-89958075D01*
X146562000Y-89990988D01*
X146562000Y-89096768D01*
X146495870Y-89107243D01*
X146495866Y-89107244D01*
X146293781Y-89172905D01*
X146104446Y-89269377D01*
X145932532Y-89394279D01*
X145782279Y-89544532D01*
X145657377Y-89716446D01*
X145560905Y-89905781D01*
X145495242Y-90107873D01*
X145495241Y-90107876D01*
X145484769Y-90173999D01*
X143764000Y-90173999D01*
X143764000Y-87425000D01*
X143778352Y-87390352D01*
X143813000Y-87376000D01*
X153414890Y-87376000D01*
X153449538Y-87390352D01*
G37*
G04 #@! TD.AperFunction*
G04 #@! TA.AperFunction,Conductor*
G36*
X184359949Y-92058395D02*
G01*
X184386823Y-92067127D01*
X184403849Y-92100543D01*
X184404000Y-92104387D01*
X184404000Y-93447715D01*
X184389648Y-93482363D01*
X184355000Y-93496715D01*
X184320352Y-93482363D01*
X184306603Y-93455380D01*
X184304940Y-93444884D01*
X184304940Y-93444882D01*
X184246547Y-93265168D01*
X184160760Y-93096801D01*
X184049690Y-92943927D01*
X184049686Y-92943923D01*
X184049684Y-92943920D01*
X183916079Y-92810315D01*
X183916080Y-92810315D01*
X183902853Y-92800705D01*
X183763199Y-92699240D01*
X183700241Y-92667161D01*
X183675886Y-92638645D01*
X183678829Y-92601257D01*
X183707346Y-92576901D01*
X183707349Y-92576900D01*
X183709802Y-92576103D01*
X183920165Y-92468918D01*
X184003104Y-92408658D01*
X183304233Y-91709787D01*
X183346292Y-91698518D01*
X183471708Y-91626110D01*
X183574110Y-91523708D01*
X183646518Y-91398292D01*
X183657787Y-91356233D01*
X184359949Y-92058395D01*
G37*
G04 #@! TD.AperFunction*
G04 #@! TA.AperFunction,Conductor*
G36*
X185961748Y-73525625D02*
G01*
X186169905Y-73540513D01*
X186176825Y-73541508D01*
X186379029Y-73585494D01*
X186385736Y-73587462D01*
X186579641Y-73659785D01*
X186585992Y-73662687D01*
X186767622Y-73761864D01*
X186773488Y-73765634D01*
X186939159Y-73889654D01*
X186944442Y-73894232D01*
X187090767Y-74040557D01*
X187095345Y-74045840D01*
X187219363Y-74211508D01*
X187223140Y-74217385D01*
X187322310Y-74399003D01*
X187325215Y-74405362D01*
X187397536Y-74599262D01*
X187399505Y-74605970D01*
X187443491Y-74808174D01*
X187444486Y-74815094D01*
X187459375Y-75023252D01*
X187459500Y-75026748D01*
X187459500Y-85041000D01*
X187445148Y-85075648D01*
X187410500Y-85090000D01*
X139700000Y-85090000D01*
X139700000Y-92661000D01*
X139685648Y-92695648D01*
X139651000Y-92710000D01*
X135890000Y-92710000D01*
X135890000Y-95438144D01*
X135875648Y-95472792D01*
X135863247Y-95481803D01*
X135840802Y-95493239D01*
X135687920Y-95604315D01*
X135554315Y-95737920D01*
X135443236Y-95890806D01*
X135357453Y-96059166D01*
X135299060Y-96238881D01*
X135299059Y-96238884D01*
X135269500Y-96425519D01*
X135269500Y-96614480D01*
X135299059Y-96801115D01*
X135299060Y-96801118D01*
X135357453Y-96980833D01*
X135443236Y-97149193D01*
X135443239Y-97149197D01*
X135443240Y-97149199D01*
X135554310Y-97302073D01*
X135554312Y-97302075D01*
X135554315Y-97302079D01*
X135687920Y-97435684D01*
X135687923Y-97435686D01*
X135687927Y-97435690D01*
X135840801Y-97546760D01*
X135863245Y-97558196D01*
X135887601Y-97586710D01*
X135890000Y-97601854D01*
X135890000Y-103456000D01*
X135875648Y-103490648D01*
X135841000Y-103505000D01*
X128270000Y-103505000D01*
X128270000Y-110441000D01*
X128255648Y-110475648D01*
X128221000Y-110490000D01*
X118659500Y-110490000D01*
X118624852Y-110475648D01*
X118610500Y-110441000D01*
X118610500Y-99629104D01*
X119514500Y-99629104D01*
X119514500Y-99760895D01*
X119548607Y-99888184D01*
X119548608Y-99888188D01*
X119599850Y-99976940D01*
X119614500Y-100002314D01*
X119707686Y-100095500D01*
X119749457Y-100119617D01*
X119821811Y-100161391D01*
X119821813Y-100161391D01*
X119821814Y-100161392D01*
X119922207Y-100188292D01*
X119949104Y-100195499D01*
X119949105Y-100195500D01*
X119949108Y-100195500D01*
X120080895Y-100195500D01*
X120080895Y-100195499D01*
X120208186Y-100161392D01*
X120322314Y-100095500D01*
X120415500Y-100002314D01*
X120481392Y-99888186D01*
X120515499Y-99760895D01*
X120515500Y-99760895D01*
X120515500Y-99629105D01*
X120515499Y-99629104D01*
X120481392Y-99501815D01*
X120481391Y-99501811D01*
X120415499Y-99387685D01*
X120322314Y-99294500D01*
X120208188Y-99228608D01*
X120208184Y-99228607D01*
X120080895Y-99194500D01*
X120080892Y-99194500D01*
X119949108Y-99194500D01*
X119949105Y-99194500D01*
X119821815Y-99228607D01*
X119821811Y-99228608D01*
X119707685Y-99294500D01*
X119707685Y-99294501D01*
X119614501Y-99387685D01*
X119614500Y-99387685D01*
X119548608Y-99501811D01*
X119548607Y-99501815D01*
X119514500Y-99629104D01*
X118610500Y-99629104D01*
X118610500Y-89469104D01*
X125864500Y-89469104D01*
X125864500Y-89600895D01*
X125898607Y-89728184D01*
X125898608Y-89728188D01*
X125964500Y-89842314D01*
X126057686Y-89935500D01*
X126099457Y-89959617D01*
X126171811Y-90001391D01*
X126171813Y-90001391D01*
X126171814Y-90001392D01*
X126272207Y-90028292D01*
X126299104Y-90035499D01*
X126299105Y-90035500D01*
X126299108Y-90035500D01*
X126430895Y-90035500D01*
X126430895Y-90035499D01*
X126558186Y-90001392D01*
X126672314Y-89935500D01*
X126682295Y-89925519D01*
X135269500Y-89925519D01*
X135269500Y-90114480D01*
X135299059Y-90301115D01*
X135299060Y-90301118D01*
X135357453Y-90480833D01*
X135443236Y-90649193D01*
X135443239Y-90649197D01*
X135443240Y-90649199D01*
X135554310Y-90802073D01*
X135554312Y-90802075D01*
X135554315Y-90802079D01*
X135687920Y-90935684D01*
X135687923Y-90935686D01*
X135687927Y-90935690D01*
X135840801Y-91046760D01*
X135840803Y-91046761D01*
X135840806Y-91046763D01*
X135969458Y-91112314D01*
X136009168Y-91132547D01*
X136188882Y-91190940D01*
X136375519Y-91220500D01*
X136375520Y-91220500D01*
X136564480Y-91220500D01*
X136564481Y-91220500D01*
X136751118Y-91190940D01*
X136930832Y-91132547D01*
X137099199Y-91046760D01*
X137252073Y-90935690D01*
X137385690Y-90802073D01*
X137496760Y-90649199D01*
X137582547Y-90480832D01*
X137640940Y-90301118D01*
X137670500Y-90114481D01*
X137670500Y-89925519D01*
X137640940Y-89738882D01*
X137582547Y-89559168D01*
X137548863Y-89493059D01*
X137496763Y-89390806D01*
X137496761Y-89390803D01*
X137496760Y-89390801D01*
X137385690Y-89237927D01*
X137385686Y-89237923D01*
X137385684Y-89237920D01*
X137252079Y-89104315D01*
X137252080Y-89104315D01*
X137099193Y-88993236D01*
X136930833Y-88907453D01*
X136751118Y-88849060D01*
X136751115Y-88849059D01*
X136607744Y-88826352D01*
X136564481Y-88819500D01*
X136375519Y-88819500D01*
X136340397Y-88825062D01*
X136188884Y-88849059D01*
X136188881Y-88849060D01*
X136009166Y-88907453D01*
X135840806Y-88993236D01*
X135687920Y-89104315D01*
X135554315Y-89237920D01*
X135443236Y-89390806D01*
X135357453Y-89559166D01*
X135299060Y-89738881D01*
X135299059Y-89738884D01*
X135269500Y-89925519D01*
X126682295Y-89925519D01*
X126765500Y-89842314D01*
X126822563Y-89743478D01*
X126831391Y-89728188D01*
X126831391Y-89728187D01*
X126831392Y-89728186D01*
X126865499Y-89600895D01*
X126865500Y-89600895D01*
X126865500Y-89469105D01*
X126865499Y-89469104D01*
X126831392Y-89341815D01*
X126831391Y-89341811D01*
X126789617Y-89269457D01*
X126765500Y-89227686D01*
X126672314Y-89134500D01*
X126558188Y-89068608D01*
X126558184Y-89068607D01*
X126430895Y-89034500D01*
X126430892Y-89034500D01*
X126299108Y-89034500D01*
X126299105Y-89034500D01*
X126171815Y-89068607D01*
X126171811Y-89068608D01*
X126057685Y-89134500D01*
X126057685Y-89134501D01*
X125964501Y-89227685D01*
X125964500Y-89227685D01*
X125898608Y-89341811D01*
X125898607Y-89341815D01*
X125864500Y-89469104D01*
X118610500Y-89469104D01*
X118610500Y-83246104D01*
X183649500Y-83246104D01*
X183649500Y-83377895D01*
X183683607Y-83505184D01*
X183683608Y-83505188D01*
X183749500Y-83619314D01*
X183842686Y-83712500D01*
X183884457Y-83736617D01*
X183956811Y-83778391D01*
X183956813Y-83778391D01*
X183956814Y-83778392D01*
X184057207Y-83805292D01*
X184084104Y-83812499D01*
X184084105Y-83812500D01*
X184084108Y-83812500D01*
X184215895Y-83812500D01*
X184215895Y-83812499D01*
X184343186Y-83778392D01*
X184457314Y-83712500D01*
X184550500Y-83619314D01*
X184616392Y-83505186D01*
X184650499Y-83377895D01*
X184650500Y-83377895D01*
X184650500Y-83246105D01*
X184650499Y-83246104D01*
X184616392Y-83118815D01*
X184616391Y-83118811D01*
X184550499Y-83004685D01*
X184457314Y-82911500D01*
X184343188Y-82845608D01*
X184343184Y-82845607D01*
X184215895Y-82811500D01*
X184215892Y-82811500D01*
X184084108Y-82811500D01*
X184084105Y-82811500D01*
X183956815Y-82845607D01*
X183956811Y-82845608D01*
X183842685Y-82911500D01*
X183842685Y-82911501D01*
X183749501Y-83004685D01*
X183749500Y-83004685D01*
X183683608Y-83118811D01*
X183683607Y-83118815D01*
X183649500Y-83246104D01*
X118610500Y-83246104D01*
X118610500Y-78700604D01*
X131045000Y-78700604D01*
X131045000Y-78832395D01*
X131079107Y-78959684D01*
X131079108Y-78959688D01*
X131145000Y-79073814D01*
X131238186Y-79167000D01*
X131279957Y-79191117D01*
X131352311Y-79232891D01*
X131352313Y-79232891D01*
X131352314Y-79232892D01*
X131452707Y-79259792D01*
X131479604Y-79266999D01*
X131479605Y-79267000D01*
X131479608Y-79267000D01*
X131611395Y-79267000D01*
X131611395Y-79266999D01*
X131738686Y-79232892D01*
X131852814Y-79167000D01*
X131891852Y-79127962D01*
X131926500Y-79113610D01*
X131961148Y-79127962D01*
X132000186Y-79167000D01*
X132041957Y-79191117D01*
X132114311Y-79232891D01*
X132114313Y-79232891D01*
X132114314Y-79232892D01*
X132214707Y-79259792D01*
X132241604Y-79266999D01*
X132241605Y-79267000D01*
X132241608Y-79267000D01*
X132373395Y-79267000D01*
X132373395Y-79266999D01*
X132500686Y-79232892D01*
X132614814Y-79167000D01*
X132708000Y-79073814D01*
X132773892Y-78959686D01*
X132807999Y-78832395D01*
X132808000Y-78832395D01*
X132808000Y-78700605D01*
X132807999Y-78700604D01*
X132773892Y-78573315D01*
X132773891Y-78573311D01*
X132707999Y-78459185D01*
X132614814Y-78366000D01*
X132500688Y-78300108D01*
X132500684Y-78300107D01*
X132373395Y-78266000D01*
X132373392Y-78266000D01*
X132241608Y-78266000D01*
X132241605Y-78266000D01*
X132114315Y-78300107D01*
X132114311Y-78300108D01*
X132000185Y-78366000D01*
X132000185Y-78366001D01*
X131961148Y-78405038D01*
X131926500Y-78419390D01*
X131891852Y-78405038D01*
X131852814Y-78366000D01*
X131738688Y-78300108D01*
X131738684Y-78300107D01*
X131611395Y-78266000D01*
X131611392Y-78266000D01*
X131479608Y-78266000D01*
X131479605Y-78266000D01*
X131352315Y-78300107D01*
X131352311Y-78300108D01*
X131238185Y-78366000D01*
X131238185Y-78366001D01*
X131145001Y-78459185D01*
X131145000Y-78459185D01*
X131079108Y-78573311D01*
X131079107Y-78573315D01*
X131045000Y-78700604D01*
X118610500Y-78700604D01*
X118610500Y-77404104D01*
X151899500Y-77404104D01*
X151899500Y-77535895D01*
X151933607Y-77663184D01*
X151933608Y-77663188D01*
X151999500Y-77777314D01*
X152092686Y-77870500D01*
X152134457Y-77894617D01*
X152206811Y-77936391D01*
X152206813Y-77936391D01*
X152206814Y-77936392D01*
X152307207Y-77963292D01*
X152334104Y-77970499D01*
X152334105Y-77970500D01*
X152334108Y-77970500D01*
X152465895Y-77970500D01*
X152465895Y-77970499D01*
X152593186Y-77936392D01*
X152707314Y-77870500D01*
X152800500Y-77777314D01*
X152866392Y-77663186D01*
X152900499Y-77535895D01*
X152900500Y-77535895D01*
X152900500Y-77404105D01*
X152900499Y-77404104D01*
X165869500Y-77404104D01*
X165869500Y-77535895D01*
X165903607Y-77663184D01*
X165903608Y-77663188D01*
X165969500Y-77777314D01*
X166062686Y-77870500D01*
X166104457Y-77894617D01*
X166176811Y-77936391D01*
X166176813Y-77936391D01*
X166176814Y-77936392D01*
X166277207Y-77963292D01*
X166304104Y-77970499D01*
X166304105Y-77970500D01*
X166304108Y-77970500D01*
X166435895Y-77970500D01*
X166435895Y-77970499D01*
X166563186Y-77936392D01*
X166677314Y-77870500D01*
X166770500Y-77777314D01*
X166836392Y-77663186D01*
X166870499Y-77535895D01*
X166870500Y-77535895D01*
X166870500Y-77404105D01*
X166870499Y-77404104D01*
X179839500Y-77404104D01*
X179839500Y-77535895D01*
X179873607Y-77663184D01*
X179873608Y-77663188D01*
X179939500Y-77777314D01*
X180032686Y-77870500D01*
X180074457Y-77894617D01*
X180146811Y-77936391D01*
X180146813Y-77936391D01*
X180146814Y-77936392D01*
X180247207Y-77963292D01*
X180274104Y-77970499D01*
X180274105Y-77970500D01*
X180274108Y-77970500D01*
X180405895Y-77970500D01*
X180405895Y-77970499D01*
X180533186Y-77936392D01*
X180647314Y-77870500D01*
X180740500Y-77777314D01*
X180806392Y-77663186D01*
X180840499Y-77535895D01*
X180840500Y-77535895D01*
X180840500Y-77404105D01*
X180840499Y-77404104D01*
X180806392Y-77276815D01*
X180806391Y-77276811D01*
X180740499Y-77162685D01*
X180647314Y-77069500D01*
X180533188Y-77003608D01*
X180533184Y-77003607D01*
X180405895Y-76969500D01*
X180405892Y-76969500D01*
X180274108Y-76969500D01*
X180274105Y-76969500D01*
X180146815Y-77003607D01*
X180146811Y-77003608D01*
X180032685Y-77069500D01*
X180032685Y-77069501D01*
X179939501Y-77162685D01*
X179939500Y-77162685D01*
X179873608Y-77276811D01*
X179873607Y-77276815D01*
X179839500Y-77404104D01*
X166870499Y-77404104D01*
X166836392Y-77276815D01*
X166836391Y-77276811D01*
X166770499Y-77162685D01*
X166677314Y-77069500D01*
X166563188Y-77003608D01*
X166563184Y-77003607D01*
X166435895Y-76969500D01*
X166435892Y-76969500D01*
X166304108Y-76969500D01*
X166304105Y-76969500D01*
X166176815Y-77003607D01*
X166176811Y-77003608D01*
X166062685Y-77069500D01*
X166062685Y-77069501D01*
X165969501Y-77162685D01*
X165969500Y-77162685D01*
X165903608Y-77276811D01*
X165903607Y-77276815D01*
X165869500Y-77404104D01*
X152900499Y-77404104D01*
X152866392Y-77276815D01*
X152866391Y-77276811D01*
X152800499Y-77162685D01*
X152707314Y-77069500D01*
X152593188Y-77003608D01*
X152593184Y-77003607D01*
X152465895Y-76969500D01*
X152465892Y-76969500D01*
X152334108Y-76969500D01*
X152334105Y-76969500D01*
X152206815Y-77003607D01*
X152206811Y-77003608D01*
X152092685Y-77069500D01*
X152092685Y-77069501D01*
X151999501Y-77162685D01*
X151999500Y-77162685D01*
X151933608Y-77276811D01*
X151933607Y-77276815D01*
X151899500Y-77404104D01*
X118610500Y-77404104D01*
X118610500Y-75026748D01*
X118610625Y-75023252D01*
X118625513Y-74815094D01*
X118626508Y-74808174D01*
X118670494Y-74605970D01*
X118672463Y-74599262D01*
X118682091Y-74573449D01*
X118744788Y-74405353D01*
X118747684Y-74399012D01*
X118846868Y-74217370D01*
X118850629Y-74211517D01*
X118974660Y-74045832D01*
X118979225Y-74040564D01*
X119125564Y-73894225D01*
X119130832Y-73889660D01*
X119296517Y-73765629D01*
X119302370Y-73761868D01*
X119484012Y-73662684D01*
X119490353Y-73659788D01*
X119684266Y-73587461D01*
X119690966Y-73585495D01*
X119893174Y-73541507D01*
X119900094Y-73540513D01*
X120108252Y-73525625D01*
X120111748Y-73525500D01*
X120175892Y-73525500D01*
X185894108Y-73525500D01*
X185958252Y-73525500D01*
X185961748Y-73525625D01*
G37*
G04 #@! TD.AperFunction*
M02*
