M48
; DRILL file {KiCad 9.0.0} date 2025-08-17T11:07:12-0500
; FORMAT={-:-/ absolute / metric / decimal}
; #@! TF.CreationDate,2025-08-17T11:07:12-05:00
; #@! TF.GenerationSoftware,Kicad,Pcbnew,9.0.0
; #@! TF.FileFunction,Plated,1,4,PTH
FMAT,2
METRIC
; #@! TA.AperFunction,Plated,PTH,ViaDrill
T1C0.300
; #@! TA.AperFunction,Plated,PTH,ComponentDrill
T2C1.000
; #@! TA.AperFunction,Plated,PTH,ComponentDrill
T3C1.100
%
G90
G05
T1
X120.015Y-99.695
X121.92Y-106.68
X121.92Y-121.92
X126.365Y-89.535
X127.635Y-121.92
X131.546Y-78.766
X131.826Y-100.536
X132.308Y-78.766
X132.541Y-112.014
X133.35Y-121.92
X133.615Y-103.023
X135.128Y-104.14
X135.356Y-86.894
X135.89Y-104.14
X136.118Y-86.894
X137.16Y-109.855
X137.668Y-100.483
X139.954Y-107.542
X142.494Y-101.145
X142.494Y-102.87
X142.494Y-107.087
X143.51Y-94.488
X144.272Y-110.744
X144.526Y-101.145
X144.526Y-102.87
X144.526Y-107.087
X147.881Y-98.298
X149.151Y-114.554
X149.606Y-93.98
X149.606Y-98.298
X150.876Y-114.554
X152.4Y-77.47
X152.4Y-121.92
X153.162Y-102.87
X153.162Y-106.426
X153.767Y-87.0
X153.977Y-114.554
X157.633Y-113.03
X158.182Y-87.0
X158.75Y-99.621
X158.75Y-101.346
X159.358Y-113.03
X160.528Y-101.653
X161.29Y-98.298
X162.5Y-87.0
X163.322Y-106.172
X164.338Y-104.394
X166.37Y-77.47
X168.148Y-96.012
X169.545Y-90.805
X170.434Y-105.41
X170.434Y-107.95
X172.085Y-119.38
X173.355Y-111.76
X173.736Y-96.012
X173.736Y-99.314
X173.736Y-102.616
X174.752Y-101.346
X180.34Y-77.47
X184.15Y-77.47
X184.15Y-83.312
X185.928Y-102.616
X186.182Y-122.682
T2
X146.812Y-90.424
X146.812Y-92.964
X175.26Y-122.682
X177.8Y-122.682
X180.34Y-122.682
X182.88Y-122.682
T3
X136.47Y-90.02
X136.47Y-96.52
X140.97Y-90.02
X140.97Y-96.52
X180.594Y-91.186
X180.594Y-93.726
X180.594Y-96.266
X180.594Y-98.806
X180.594Y-101.346
X180.594Y-103.886
X180.594Y-106.426
X180.594Y-108.966
X180.594Y-111.506
X180.594Y-114.046
X183.134Y-91.186
X183.134Y-93.726
X183.134Y-96.266
X183.134Y-98.806
X183.134Y-101.346
X183.134Y-103.886
X183.134Y-106.426
X183.134Y-108.966
X183.134Y-111.506
X183.134Y-114.046
M30
