G04 #@! TF.GenerationSoftware,KiCad,Pcbnew,9.0.0*
G04 #@! TF.CreationDate,2025-08-17T11:06:40-05:00*
G04 #@! TF.ProjectId,silver-platter,73696c76-6572-42d7-906c-61747465722e,rev?*
G04 #@! TF.SameCoordinates,Original*
G04 #@! TF.FileFunction,Copper,L2,Inr*
G04 #@! TF.FilePolarity,Positive*
%FSLAX46Y46*%
G04 Gerber Fmt 4.6, Leading zero omitted, Abs format (unit mm)*
G04 Created by KiCad (PCBNEW 9.0.0) date 2025-08-17 11:06:40*
%MOMM*%
%LPD*%
G01*
G04 APERTURE LIST*
G04 #@! TA.AperFunction,ComponentPad*
%ADD10C,2.000000*%
G04 #@! TD*
G04 #@! TA.AperFunction,ComponentPad*
%ADD11R,1.700000X1.700000*%
G04 #@! TD*
G04 #@! TA.AperFunction,ComponentPad*
%ADD12O,1.700000X1.700000*%
G04 #@! TD*
G04 #@! TA.AperFunction,ViaPad*
%ADD13C,0.600000*%
G04 #@! TD*
G04 APERTURE END LIST*
D10*
X136470000Y-96520000D03*
X136470000Y-90020000D03*
X140970000Y-96520000D03*
X140970000Y-90020000D03*
X180594000Y-91186000D03*
X183134000Y-91186000D03*
X180594000Y-93726000D03*
X183134000Y-93726000D03*
X180594000Y-96266000D03*
X183134000Y-96266000D03*
X180594000Y-98806000D03*
X183134000Y-98806000D03*
X180594000Y-101346000D03*
X183134000Y-101346000D03*
X180594000Y-103886000D03*
X183134000Y-103886000D03*
X180594000Y-106426000D03*
X183134000Y-106426000D03*
X180594000Y-108966000D03*
X183134000Y-108966000D03*
X180594000Y-111506000D03*
X183134000Y-111506000D03*
X180594000Y-114046000D03*
X183134000Y-114046000D03*
D11*
X175260000Y-122682000D03*
D12*
X177800000Y-122682000D03*
X180340000Y-122682000D03*
X182880000Y-122682000D03*
D11*
X146812000Y-92964000D03*
D12*
X146812000Y-90424000D03*
D13*
X143510000Y-94488000D03*
X133350000Y-121920000D03*
X147881000Y-98298000D03*
X150876000Y-114554000D03*
X144272000Y-110744000D03*
X158750000Y-101346000D03*
X168148000Y-96012000D03*
X137668000Y-100483500D03*
X157633500Y-113030000D03*
X142494000Y-102870000D03*
X144526000Y-102870000D03*
X142494000Y-107087500D03*
X153767000Y-87000000D03*
X132307500Y-78766500D03*
X149151000Y-114554000D03*
X149606000Y-93980000D03*
X144526000Y-101145000D03*
X132541000Y-112014000D03*
X169545000Y-90805000D03*
X173736000Y-102616000D03*
X153977000Y-114554000D03*
X184150000Y-83312000D03*
X142494000Y-101145000D03*
X137160000Y-109855000D03*
X173736000Y-96012000D03*
X144526000Y-107087500D03*
X158750000Y-99621000D03*
X185928000Y-102616000D03*
X173736000Y-99314000D03*
X120015000Y-99695000D03*
X127635000Y-121920000D03*
X166370000Y-77470000D03*
X186182000Y-122682000D03*
X139954000Y-107542500D03*
X135890000Y-104140000D03*
X135128000Y-104140000D03*
X172085000Y-119380000D03*
X126365000Y-89535000D03*
X149606000Y-98298000D03*
X152400000Y-77470000D03*
X131545500Y-78766500D03*
X162500000Y-87000000D03*
X152400000Y-121920000D03*
X158182000Y-87000000D03*
X159358500Y-113030000D03*
X173355000Y-111760000D03*
X121920000Y-121920000D03*
X180340000Y-77470000D03*
X160528000Y-101653000D03*
X153162000Y-106426000D03*
X170434000Y-107950000D03*
X121920000Y-106680000D03*
X136117500Y-86894500D03*
X131826000Y-100536500D03*
X184150000Y-77470000D03*
X135355500Y-86894500D03*
X133615000Y-103023500D03*
X163322000Y-106172000D03*
X164338000Y-104394000D03*
X174752000Y-101346000D03*
X161290000Y-98298000D03*
X170434000Y-105410000D03*
X153162000Y-102870000D03*
G04 #@! TA.AperFunction,Conductor*
G36*
X182621482Y-111718292D02*
G01*
X182693890Y-111843708D01*
X182796292Y-111946110D01*
X182921708Y-112018518D01*
X182963765Y-112029787D01*
X182264893Y-112728658D01*
X182267854Y-112766276D01*
X182267854Y-112785733D01*
X182264894Y-112823340D01*
X182963766Y-113522212D01*
X182921708Y-113533482D01*
X182796292Y-113605890D01*
X182693890Y-113708292D01*
X182621482Y-113833708D01*
X182610212Y-113875765D01*
X181911340Y-113176893D01*
X181891593Y-113178448D01*
X181823215Y-113164084D01*
X181781547Y-113127716D01*
X181738517Y-113068490D01*
X181571510Y-112901483D01*
X181536872Y-112876317D01*
X181523323Y-112858747D01*
X181506361Y-112844447D01*
X181502404Y-112831620D01*
X181494207Y-112820989D01*
X181492308Y-112798883D01*
X181485769Y-112777680D01*
X181489376Y-112764748D01*
X181488228Y-112751375D01*
X181498581Y-112731751D01*
X181504544Y-112710380D01*
X181516797Y-112697228D01*
X181520833Y-112689580D01*
X181527293Y-112683396D01*
X181531887Y-112679304D01*
X181571510Y-112650517D01*
X181738517Y-112483510D01*
X181781547Y-112424283D01*
X181836877Y-112381618D01*
X181891594Y-112373551D01*
X181911340Y-112375105D01*
X182610212Y-111676233D01*
X182621482Y-111718292D01*
G37*
G04 #@! TD.AperFunction*
G04 #@! TA.AperFunction,Conductor*
G36*
X182621482Y-109178292D02*
G01*
X182693890Y-109303708D01*
X182796292Y-109406110D01*
X182921708Y-109478518D01*
X182963765Y-109489787D01*
X182264893Y-110188658D01*
X182267854Y-110226276D01*
X182267854Y-110245733D01*
X182264894Y-110283340D01*
X182963766Y-110982212D01*
X182921708Y-110993482D01*
X182796292Y-111065890D01*
X182693890Y-111168292D01*
X182621482Y-111293708D01*
X182610212Y-111335765D01*
X181911340Y-110636893D01*
X181891593Y-110638448D01*
X181823215Y-110624084D01*
X181781547Y-110587716D01*
X181738517Y-110528490D01*
X181571510Y-110361483D01*
X181536872Y-110336317D01*
X181523323Y-110318747D01*
X181506361Y-110304447D01*
X181502404Y-110291620D01*
X181494207Y-110280989D01*
X181492308Y-110258883D01*
X181485769Y-110237680D01*
X181489376Y-110224748D01*
X181488228Y-110211375D01*
X181498581Y-110191751D01*
X181504544Y-110170380D01*
X181516797Y-110157228D01*
X181520833Y-110149580D01*
X181527293Y-110143396D01*
X181531887Y-110139304D01*
X181571510Y-110110517D01*
X181738517Y-109943510D01*
X181781547Y-109884283D01*
X181836877Y-109841618D01*
X181891594Y-109833551D01*
X181911340Y-109835105D01*
X182610212Y-109136233D01*
X182621482Y-109178292D01*
G37*
G04 #@! TD.AperFunction*
G04 #@! TA.AperFunction,Conductor*
G36*
X182621482Y-106638292D02*
G01*
X182693890Y-106763708D01*
X182796292Y-106866110D01*
X182921708Y-106938518D01*
X182963765Y-106949787D01*
X182264893Y-107648658D01*
X182267854Y-107686276D01*
X182267854Y-107705733D01*
X182264894Y-107743340D01*
X182963766Y-108442212D01*
X182921708Y-108453482D01*
X182796292Y-108525890D01*
X182693890Y-108628292D01*
X182621482Y-108753708D01*
X182610212Y-108795765D01*
X181911340Y-108096893D01*
X181891593Y-108098448D01*
X181823215Y-108084084D01*
X181781547Y-108047716D01*
X181738517Y-107988490D01*
X181571510Y-107821483D01*
X181536872Y-107796317D01*
X181523323Y-107778747D01*
X181506361Y-107764447D01*
X181502404Y-107751620D01*
X181494207Y-107740989D01*
X181492308Y-107718883D01*
X181485769Y-107697680D01*
X181489376Y-107684748D01*
X181488228Y-107671375D01*
X181498581Y-107651751D01*
X181504544Y-107630380D01*
X181516797Y-107617228D01*
X181520833Y-107609580D01*
X181527293Y-107603396D01*
X181531887Y-107599304D01*
X181571510Y-107570517D01*
X181738517Y-107403510D01*
X181781547Y-107344283D01*
X181836877Y-107301618D01*
X181891594Y-107293551D01*
X181911340Y-107295105D01*
X182610212Y-106596233D01*
X182621482Y-106638292D01*
G37*
G04 #@! TD.AperFunction*
G04 #@! TA.AperFunction,Conductor*
G36*
X182621482Y-104098292D02*
G01*
X182693890Y-104223708D01*
X182796292Y-104326110D01*
X182921708Y-104398518D01*
X182963765Y-104409787D01*
X182264893Y-105108658D01*
X182267854Y-105146276D01*
X182267854Y-105165733D01*
X182264894Y-105203340D01*
X182963766Y-105902212D01*
X182921708Y-105913482D01*
X182796292Y-105985890D01*
X182693890Y-106088292D01*
X182621482Y-106213708D01*
X182610212Y-106255765D01*
X181911340Y-105556893D01*
X181891593Y-105558448D01*
X181823215Y-105544084D01*
X181781547Y-105507716D01*
X181738517Y-105448490D01*
X181571510Y-105281483D01*
X181536872Y-105256317D01*
X181523323Y-105238747D01*
X181506361Y-105224447D01*
X181502404Y-105211620D01*
X181494207Y-105200989D01*
X181492308Y-105178883D01*
X181485769Y-105157680D01*
X181489376Y-105144748D01*
X181488228Y-105131375D01*
X181498581Y-105111751D01*
X181504544Y-105090380D01*
X181516797Y-105077228D01*
X181520833Y-105069580D01*
X181527293Y-105063396D01*
X181531887Y-105059304D01*
X181571510Y-105030517D01*
X181738517Y-104863510D01*
X181781547Y-104804283D01*
X181836877Y-104761618D01*
X181891594Y-104753551D01*
X181911340Y-104755105D01*
X182610212Y-104056233D01*
X182621482Y-104098292D01*
G37*
G04 #@! TD.AperFunction*
G04 #@! TA.AperFunction,Conductor*
G36*
X182621482Y-101558292D02*
G01*
X182693890Y-101683708D01*
X182796292Y-101786110D01*
X182921708Y-101858518D01*
X182963765Y-101869787D01*
X182264893Y-102568658D01*
X182267854Y-102606276D01*
X182267854Y-102625733D01*
X182264894Y-102663340D01*
X182963766Y-103362212D01*
X182921708Y-103373482D01*
X182796292Y-103445890D01*
X182693890Y-103548292D01*
X182621482Y-103673708D01*
X182610212Y-103715765D01*
X181911340Y-103016893D01*
X181891593Y-103018448D01*
X181823215Y-103004084D01*
X181781547Y-102967716D01*
X181738517Y-102908490D01*
X181571510Y-102741483D01*
X181536872Y-102716317D01*
X181523323Y-102698747D01*
X181506361Y-102684447D01*
X181502404Y-102671620D01*
X181494207Y-102660989D01*
X181492308Y-102638883D01*
X181485769Y-102617680D01*
X181489376Y-102604748D01*
X181488228Y-102591375D01*
X181498581Y-102571751D01*
X181504544Y-102550380D01*
X181516797Y-102537228D01*
X181520833Y-102529580D01*
X181527293Y-102523396D01*
X181531887Y-102519304D01*
X181571510Y-102490517D01*
X181738517Y-102323510D01*
X181781547Y-102264283D01*
X181836877Y-102221618D01*
X181891594Y-102213551D01*
X181911340Y-102215105D01*
X182610212Y-101516233D01*
X182621482Y-101558292D01*
G37*
G04 #@! TD.AperFunction*
G04 #@! TA.AperFunction,Conductor*
G36*
X182621482Y-99018292D02*
G01*
X182693890Y-99143708D01*
X182796292Y-99246110D01*
X182921708Y-99318518D01*
X182963765Y-99329787D01*
X182264893Y-100028658D01*
X182267854Y-100066276D01*
X182267854Y-100085733D01*
X182264894Y-100123340D01*
X182963766Y-100822212D01*
X182921708Y-100833482D01*
X182796292Y-100905890D01*
X182693890Y-101008292D01*
X182621482Y-101133708D01*
X182610212Y-101175765D01*
X181911340Y-100476893D01*
X181891593Y-100478448D01*
X181823215Y-100464084D01*
X181781547Y-100427716D01*
X181738517Y-100368490D01*
X181571510Y-100201483D01*
X181536872Y-100176317D01*
X181523323Y-100158747D01*
X181506361Y-100144447D01*
X181502404Y-100131620D01*
X181494207Y-100120989D01*
X181492308Y-100098883D01*
X181485769Y-100077680D01*
X181489376Y-100064748D01*
X181488228Y-100051375D01*
X181498581Y-100031751D01*
X181504544Y-100010380D01*
X181516797Y-99997228D01*
X181520833Y-99989580D01*
X181527293Y-99983396D01*
X181531887Y-99979304D01*
X181571510Y-99950517D01*
X181738517Y-99783510D01*
X181781547Y-99724283D01*
X181836877Y-99681618D01*
X181891594Y-99673551D01*
X181911340Y-99675105D01*
X182610212Y-98976233D01*
X182621482Y-99018292D01*
G37*
G04 #@! TD.AperFunction*
G04 #@! TA.AperFunction,Conductor*
G36*
X182621482Y-96478292D02*
G01*
X182693890Y-96603708D01*
X182796292Y-96706110D01*
X182921708Y-96778518D01*
X182963765Y-96789787D01*
X182264893Y-97488658D01*
X182267854Y-97526276D01*
X182267854Y-97545733D01*
X182264894Y-97583340D01*
X182963766Y-98282212D01*
X182921708Y-98293482D01*
X182796292Y-98365890D01*
X182693890Y-98468292D01*
X182621482Y-98593708D01*
X182610212Y-98635765D01*
X181911340Y-97936893D01*
X181891593Y-97938448D01*
X181823215Y-97924084D01*
X181781547Y-97887716D01*
X181738517Y-97828490D01*
X181571510Y-97661483D01*
X181536872Y-97636317D01*
X181523323Y-97618747D01*
X181506361Y-97604447D01*
X181502404Y-97591620D01*
X181494207Y-97580989D01*
X181492308Y-97558883D01*
X181485769Y-97537680D01*
X181489376Y-97524748D01*
X181488228Y-97511375D01*
X181498581Y-97491751D01*
X181504544Y-97470380D01*
X181516797Y-97457228D01*
X181520833Y-97449580D01*
X181527293Y-97443396D01*
X181531887Y-97439304D01*
X181571510Y-97410517D01*
X181738517Y-97243510D01*
X181781547Y-97184283D01*
X181836877Y-97141618D01*
X181891594Y-97133551D01*
X181911340Y-97135105D01*
X182610212Y-96436233D01*
X182621482Y-96478292D01*
G37*
G04 #@! TD.AperFunction*
G04 #@! TA.AperFunction,Conductor*
G36*
X182621482Y-93938292D02*
G01*
X182693890Y-94063708D01*
X182796292Y-94166110D01*
X182921708Y-94238518D01*
X182963765Y-94249787D01*
X182264893Y-94948658D01*
X182267854Y-94986276D01*
X182267854Y-95005733D01*
X182264894Y-95043340D01*
X182963766Y-95742212D01*
X182921708Y-95753482D01*
X182796292Y-95825890D01*
X182693890Y-95928292D01*
X182621482Y-96053708D01*
X182610212Y-96095765D01*
X181911340Y-95396893D01*
X181891593Y-95398448D01*
X181823215Y-95384084D01*
X181781547Y-95347716D01*
X181738517Y-95288490D01*
X181571510Y-95121483D01*
X181536872Y-95096317D01*
X181523323Y-95078747D01*
X181506361Y-95064447D01*
X181502404Y-95051620D01*
X181494207Y-95040989D01*
X181492308Y-95018883D01*
X181485769Y-94997680D01*
X181489376Y-94984748D01*
X181488228Y-94971375D01*
X181498581Y-94951751D01*
X181504544Y-94930380D01*
X181516797Y-94917228D01*
X181520833Y-94909580D01*
X181527293Y-94903396D01*
X181531887Y-94899304D01*
X181571510Y-94870517D01*
X181738517Y-94703510D01*
X181781547Y-94644283D01*
X181836877Y-94601618D01*
X181891594Y-94593551D01*
X181911340Y-94595105D01*
X182610212Y-93896233D01*
X182621482Y-93938292D01*
G37*
G04 #@! TD.AperFunction*
G04 #@! TA.AperFunction,Conductor*
G36*
X181950420Y-92112833D02*
G01*
X181964315Y-92128870D01*
X181989483Y-92163510D01*
X182156490Y-92330517D01*
X182215716Y-92373547D01*
X182258381Y-92428875D01*
X182266448Y-92483593D01*
X182264893Y-92503340D01*
X182963766Y-93202212D01*
X182921708Y-93213482D01*
X182796292Y-93285890D01*
X182693890Y-93388292D01*
X182621482Y-93513708D01*
X182610212Y-93555765D01*
X181911340Y-92856893D01*
X181891593Y-92858448D01*
X181823215Y-92844084D01*
X181781547Y-92807716D01*
X181738517Y-92748490D01*
X181571510Y-92581483D01*
X181536872Y-92556317D01*
X181494207Y-92500989D01*
X181488228Y-92431375D01*
X181520833Y-92369580D01*
X181536873Y-92355682D01*
X181571510Y-92330517D01*
X181738517Y-92163510D01*
X181763682Y-92128872D01*
X181819011Y-92086207D01*
X181888625Y-92080228D01*
X181950420Y-92112833D01*
G37*
G04 #@! TD.AperFunction*
G04 #@! TA.AperFunction,Conductor*
G36*
X185964418Y-73525816D02*
G01*
X186164561Y-73540130D01*
X186182063Y-73542647D01*
X186373797Y-73584355D01*
X186390755Y-73589334D01*
X186574609Y-73657909D01*
X186590701Y-73665259D01*
X186762904Y-73759288D01*
X186777784Y-73768849D01*
X186934867Y-73886441D01*
X186948237Y-73898027D01*
X187086972Y-74036762D01*
X187098558Y-74050132D01*
X187216146Y-74207210D01*
X187225711Y-74222095D01*
X187319740Y-74394298D01*
X187327090Y-74410390D01*
X187395662Y-74594236D01*
X187400646Y-74611212D01*
X187442351Y-74802931D01*
X187444869Y-74820442D01*
X187459184Y-75020580D01*
X187459500Y-75029427D01*
X187459500Y-124995572D01*
X187459184Y-125004419D01*
X187444869Y-125204557D01*
X187442351Y-125222068D01*
X187400646Y-125413787D01*
X187395662Y-125430763D01*
X187327090Y-125614609D01*
X187319740Y-125630701D01*
X187225711Y-125802904D01*
X187216146Y-125817789D01*
X187098558Y-125974867D01*
X187086972Y-125988237D01*
X186948237Y-126126972D01*
X186934867Y-126138558D01*
X186777789Y-126256146D01*
X186762904Y-126265711D01*
X186590701Y-126359740D01*
X186574609Y-126367090D01*
X186390763Y-126435662D01*
X186373787Y-126440646D01*
X186182068Y-126482351D01*
X186164557Y-126484869D01*
X185983779Y-126497799D01*
X185964417Y-126499184D01*
X185955572Y-126499500D01*
X120114428Y-126499500D01*
X120105582Y-126499184D01*
X120083622Y-126497613D01*
X119905442Y-126484869D01*
X119887931Y-126482351D01*
X119696212Y-126440646D01*
X119679236Y-126435662D01*
X119495390Y-126367090D01*
X119479298Y-126359740D01*
X119307095Y-126265711D01*
X119292210Y-126256146D01*
X119135132Y-126138558D01*
X119121762Y-126126972D01*
X118983027Y-125988237D01*
X118971441Y-125974867D01*
X118853849Y-125817784D01*
X118844288Y-125802904D01*
X118750259Y-125630701D01*
X118742909Y-125614609D01*
X118682091Y-125451551D01*
X118674334Y-125430755D01*
X118669355Y-125413797D01*
X118627647Y-125222063D01*
X118625130Y-125204556D01*
X118610816Y-125004418D01*
X118610500Y-124995572D01*
X118610500Y-121841153D01*
X132549500Y-121841153D01*
X132549500Y-121998846D01*
X132580261Y-122153489D01*
X132580264Y-122153501D01*
X132640602Y-122299172D01*
X132640609Y-122299185D01*
X132728210Y-122430288D01*
X132728213Y-122430292D01*
X132839707Y-122541786D01*
X132839711Y-122541789D01*
X132970814Y-122629390D01*
X132970827Y-122629397D01*
X133116498Y-122689735D01*
X133116503Y-122689737D01*
X133271153Y-122720499D01*
X133271156Y-122720500D01*
X133271158Y-122720500D01*
X133428844Y-122720500D01*
X133428845Y-122720499D01*
X133583497Y-122689737D01*
X133729179Y-122629394D01*
X133860289Y-122541789D01*
X133971789Y-122430289D01*
X134059394Y-122299179D01*
X134119737Y-122153497D01*
X134150500Y-121998842D01*
X134150500Y-121841158D01*
X134150500Y-121841155D01*
X134150499Y-121841153D01*
X134143308Y-121804997D01*
X134139158Y-121784135D01*
X173909500Y-121784135D01*
X173909500Y-123579870D01*
X173909501Y-123579876D01*
X173915908Y-123639483D01*
X173966202Y-123774328D01*
X173966206Y-123774335D01*
X174052452Y-123889544D01*
X174052455Y-123889547D01*
X174167664Y-123975793D01*
X174167671Y-123975797D01*
X174302517Y-124026091D01*
X174302516Y-124026091D01*
X174309444Y-124026835D01*
X174362127Y-124032500D01*
X176157872Y-124032499D01*
X176217483Y-124026091D01*
X176352331Y-123975796D01*
X176467546Y-123889546D01*
X176553796Y-123774331D01*
X176602810Y-123642916D01*
X176644681Y-123586984D01*
X176710145Y-123562566D01*
X176778418Y-123577417D01*
X176806673Y-123598569D01*
X176920213Y-123712109D01*
X177092179Y-123837048D01*
X177092181Y-123837049D01*
X177092184Y-123837051D01*
X177281588Y-123933557D01*
X177483757Y-123999246D01*
X177693713Y-124032500D01*
X177693714Y-124032500D01*
X177906286Y-124032500D01*
X177906287Y-124032500D01*
X178116243Y-123999246D01*
X178318412Y-123933557D01*
X178507816Y-123837051D01*
X178594138Y-123774335D01*
X178679786Y-123712109D01*
X178679788Y-123712106D01*
X178679792Y-123712104D01*
X178830104Y-123561792D01*
X178830106Y-123561788D01*
X178830109Y-123561786D01*
X178955048Y-123389820D01*
X178955047Y-123389820D01*
X178955051Y-123389816D01*
X178959514Y-123381054D01*
X179007488Y-123330259D01*
X179075308Y-123313463D01*
X179141444Y-123335999D01*
X179180486Y-123381056D01*
X179184951Y-123389820D01*
X179309890Y-123561786D01*
X179460213Y-123712109D01*
X179632179Y-123837048D01*
X179632181Y-123837049D01*
X179632184Y-123837051D01*
X179821588Y-123933557D01*
X180023757Y-123999246D01*
X180233713Y-124032500D01*
X180233714Y-124032500D01*
X180446286Y-124032500D01*
X180446287Y-124032500D01*
X180656243Y-123999246D01*
X180858412Y-123933557D01*
X181047816Y-123837051D01*
X181134138Y-123774335D01*
X181219786Y-123712109D01*
X181219788Y-123712106D01*
X181219792Y-123712104D01*
X181370104Y-123561792D01*
X181370106Y-123561788D01*
X181370109Y-123561786D01*
X181495048Y-123389820D01*
X181495051Y-123389816D01*
X181499793Y-123380508D01*
X181547763Y-123329711D01*
X181615583Y-123312911D01*
X181681719Y-123335445D01*
X181720763Y-123380500D01*
X181725377Y-123389555D01*
X181850272Y-123561459D01*
X181850276Y-123561464D01*
X182000535Y-123711723D01*
X182000540Y-123711727D01*
X182172442Y-123836620D01*
X182361782Y-123933095D01*
X182563871Y-123998757D01*
X182630000Y-124009231D01*
X182630000Y-123115012D01*
X182687007Y-123147925D01*
X182814174Y-123182000D01*
X182945826Y-123182000D01*
X183072993Y-123147925D01*
X183130000Y-123115012D01*
X183130000Y-124009230D01*
X183196126Y-123998757D01*
X183196129Y-123998757D01*
X183398217Y-123933095D01*
X183587557Y-123836620D01*
X183759459Y-123711727D01*
X183759464Y-123711723D01*
X183909723Y-123561464D01*
X183909727Y-123561459D01*
X184034620Y-123389557D01*
X184131095Y-123200217D01*
X184196757Y-122998129D01*
X184196757Y-122998126D01*
X184207231Y-122932000D01*
X183313012Y-122932000D01*
X183345925Y-122874993D01*
X183380000Y-122747826D01*
X183380000Y-122616174D01*
X183345925Y-122489007D01*
X183313012Y-122432000D01*
X184207231Y-122432000D01*
X184196757Y-122365873D01*
X184196757Y-122365870D01*
X184131095Y-122163782D01*
X184034620Y-121974442D01*
X183909727Y-121802540D01*
X183909723Y-121802535D01*
X183759464Y-121652276D01*
X183759459Y-121652272D01*
X183587557Y-121527379D01*
X183398215Y-121430903D01*
X183196124Y-121365241D01*
X183130000Y-121354768D01*
X183130000Y-122248988D01*
X183072993Y-122216075D01*
X182945826Y-122182000D01*
X182814174Y-122182000D01*
X182687007Y-122216075D01*
X182630000Y-122248988D01*
X182630000Y-121354768D01*
X182629999Y-121354768D01*
X182563875Y-121365241D01*
X182361784Y-121430903D01*
X182172442Y-121527379D01*
X182000540Y-121652272D01*
X182000535Y-121652276D01*
X181850276Y-121802535D01*
X181850272Y-121802540D01*
X181725378Y-121974443D01*
X181720762Y-121983502D01*
X181672784Y-122034295D01*
X181604963Y-122051087D01*
X181538829Y-122028546D01*
X181499794Y-121983493D01*
X181495051Y-121974184D01*
X181495049Y-121974181D01*
X181495048Y-121974179D01*
X181370109Y-121802213D01*
X181219786Y-121651890D01*
X181047820Y-121526951D01*
X180858414Y-121430444D01*
X180858413Y-121430443D01*
X180858412Y-121430443D01*
X180656243Y-121364754D01*
X180656241Y-121364753D01*
X180656240Y-121364753D01*
X180494957Y-121339208D01*
X180446287Y-121331500D01*
X180233713Y-121331500D01*
X180185042Y-121339208D01*
X180023760Y-121364753D01*
X179821585Y-121430444D01*
X179632179Y-121526951D01*
X179460213Y-121651890D01*
X179309890Y-121802213D01*
X179184949Y-121974182D01*
X179180484Y-121982946D01*
X179132509Y-122033742D01*
X179064688Y-122050536D01*
X178998553Y-122027998D01*
X178959516Y-121982946D01*
X178955050Y-121974182D01*
X178830109Y-121802213D01*
X178679786Y-121651890D01*
X178507820Y-121526951D01*
X178318414Y-121430444D01*
X178318413Y-121430443D01*
X178318412Y-121430443D01*
X178116243Y-121364754D01*
X178116241Y-121364753D01*
X178116240Y-121364753D01*
X177954957Y-121339208D01*
X177906287Y-121331500D01*
X177693713Y-121331500D01*
X177645042Y-121339208D01*
X177483760Y-121364753D01*
X177281585Y-121430444D01*
X177092179Y-121526951D01*
X176920215Y-121651889D01*
X176806673Y-121765431D01*
X176745350Y-121798915D01*
X176675658Y-121793931D01*
X176619725Y-121752059D01*
X176602810Y-121721082D01*
X176553797Y-121589671D01*
X176553793Y-121589664D01*
X176467547Y-121474455D01*
X176467544Y-121474452D01*
X176352335Y-121388206D01*
X176352328Y-121388202D01*
X176217482Y-121337908D01*
X176217483Y-121337908D01*
X176157883Y-121331501D01*
X176157881Y-121331500D01*
X176157873Y-121331500D01*
X176157864Y-121331500D01*
X174362129Y-121331500D01*
X174362123Y-121331501D01*
X174302516Y-121337908D01*
X174167671Y-121388202D01*
X174167664Y-121388206D01*
X174052455Y-121474452D01*
X174052452Y-121474455D01*
X173966206Y-121589664D01*
X173966202Y-121589671D01*
X173915908Y-121724517D01*
X173909501Y-121784116D01*
X173909500Y-121784135D01*
X134139158Y-121784135D01*
X134119738Y-121686508D01*
X134119737Y-121686507D01*
X134119737Y-121686503D01*
X134105558Y-121652272D01*
X134059397Y-121540827D01*
X134059390Y-121540814D01*
X133971789Y-121409711D01*
X133971786Y-121409707D01*
X133860292Y-121298213D01*
X133860288Y-121298210D01*
X133729185Y-121210609D01*
X133729172Y-121210602D01*
X133583501Y-121150264D01*
X133583489Y-121150261D01*
X133428845Y-121119500D01*
X133428842Y-121119500D01*
X133271158Y-121119500D01*
X133271155Y-121119500D01*
X133116510Y-121150261D01*
X133116498Y-121150264D01*
X132970827Y-121210602D01*
X132970814Y-121210609D01*
X132839711Y-121298210D01*
X132839707Y-121298213D01*
X132728213Y-121409707D01*
X132728210Y-121409711D01*
X132640609Y-121540814D01*
X132640602Y-121540827D01*
X132580264Y-121686498D01*
X132580261Y-121686510D01*
X132549500Y-121841153D01*
X118610500Y-121841153D01*
X118610500Y-114475153D01*
X150075500Y-114475153D01*
X150075500Y-114632846D01*
X150106261Y-114787489D01*
X150106264Y-114787501D01*
X150166602Y-114933172D01*
X150166609Y-114933185D01*
X150254210Y-115064288D01*
X150254213Y-115064292D01*
X150365707Y-115175786D01*
X150365711Y-115175789D01*
X150496814Y-115263390D01*
X150496827Y-115263397D01*
X150642498Y-115323735D01*
X150642503Y-115323737D01*
X150797153Y-115354499D01*
X150797156Y-115354500D01*
X150797158Y-115354500D01*
X150954844Y-115354500D01*
X150954845Y-115354499D01*
X151109497Y-115323737D01*
X151222166Y-115277067D01*
X151255172Y-115263397D01*
X151255172Y-115263396D01*
X151255179Y-115263394D01*
X151386289Y-115175789D01*
X151497789Y-115064289D01*
X151585394Y-114933179D01*
X151645737Y-114787497D01*
X151676500Y-114632842D01*
X151676500Y-114475158D01*
X151676500Y-114475155D01*
X151676499Y-114475153D01*
X151661461Y-114399554D01*
X151645737Y-114320503D01*
X151619969Y-114258292D01*
X151585397Y-114174827D01*
X151585390Y-114174814D01*
X151497789Y-114043711D01*
X151497786Y-114043707D01*
X151386292Y-113932213D01*
X151386288Y-113932210D01*
X151255185Y-113844609D01*
X151255172Y-113844602D01*
X151109501Y-113784264D01*
X151109489Y-113784261D01*
X150954845Y-113753500D01*
X150954842Y-113753500D01*
X150797158Y-113753500D01*
X150797155Y-113753500D01*
X150642510Y-113784261D01*
X150642498Y-113784264D01*
X150496827Y-113844602D01*
X150496814Y-113844609D01*
X150365711Y-113932210D01*
X150365707Y-113932213D01*
X150254213Y-114043707D01*
X150254210Y-114043711D01*
X150166609Y-114174814D01*
X150166602Y-114174827D01*
X150106264Y-114320498D01*
X150106261Y-114320510D01*
X150075500Y-114475153D01*
X118610500Y-114475153D01*
X118610500Y-112951153D01*
X156833000Y-112951153D01*
X156833000Y-113108846D01*
X156863761Y-113263489D01*
X156863764Y-113263501D01*
X156924102Y-113409172D01*
X156924109Y-113409185D01*
X157011710Y-113540288D01*
X157011713Y-113540292D01*
X157123207Y-113651786D01*
X157123211Y-113651789D01*
X157254314Y-113739390D01*
X157254327Y-113739397D01*
X157399998Y-113799735D01*
X157400003Y-113799737D01*
X157554653Y-113830499D01*
X157554656Y-113830500D01*
X157554658Y-113830500D01*
X157712344Y-113830500D01*
X157712345Y-113830499D01*
X157866997Y-113799737D01*
X158012679Y-113739394D01*
X158143789Y-113651789D01*
X158255289Y-113540289D01*
X158342894Y-113409179D01*
X158403237Y-113263497D01*
X158434000Y-113108842D01*
X158434000Y-112951158D01*
X158434000Y-112951155D01*
X158433999Y-112951153D01*
X158415618Y-112858747D01*
X158403237Y-112796503D01*
X158395440Y-112777680D01*
X158342897Y-112650827D01*
X158342890Y-112650814D01*
X158255289Y-112519711D01*
X158255286Y-112519707D01*
X158143792Y-112408213D01*
X158143788Y-112408210D01*
X158012685Y-112320609D01*
X158012672Y-112320602D01*
X157867001Y-112260264D01*
X157866989Y-112260261D01*
X157712345Y-112229500D01*
X157712342Y-112229500D01*
X157554658Y-112229500D01*
X157554655Y-112229500D01*
X157400010Y-112260261D01*
X157399998Y-112260264D01*
X157254327Y-112320602D01*
X157254314Y-112320609D01*
X157123211Y-112408210D01*
X157123207Y-112408213D01*
X157011713Y-112519707D01*
X157011710Y-112519711D01*
X156924109Y-112650814D01*
X156924102Y-112650827D01*
X156863764Y-112796498D01*
X156863761Y-112796510D01*
X156833000Y-112951153D01*
X118610500Y-112951153D01*
X118610500Y-110665153D01*
X143471500Y-110665153D01*
X143471500Y-110822846D01*
X143502261Y-110977489D01*
X143502264Y-110977501D01*
X143562602Y-111123172D01*
X143562609Y-111123185D01*
X143650210Y-111254288D01*
X143650213Y-111254292D01*
X143761707Y-111365786D01*
X143761711Y-111365789D01*
X143892814Y-111453390D01*
X143892827Y-111453397D01*
X144038498Y-111513735D01*
X144038503Y-111513737D01*
X144193153Y-111544499D01*
X144193156Y-111544500D01*
X144193158Y-111544500D01*
X144350844Y-111544500D01*
X144350845Y-111544499D01*
X144505497Y-111513737D01*
X144651179Y-111453394D01*
X144782289Y-111365789D01*
X144893789Y-111254289D01*
X144981394Y-111123179D01*
X145041737Y-110977497D01*
X145072500Y-110822842D01*
X145072500Y-110665158D01*
X145072500Y-110665155D01*
X145072499Y-110665153D01*
X145064330Y-110624084D01*
X145041737Y-110510503D01*
X145041735Y-110510498D01*
X144981397Y-110364827D01*
X144981390Y-110364814D01*
X144893789Y-110233711D01*
X144893786Y-110233707D01*
X144782292Y-110122213D01*
X144782288Y-110122210D01*
X144651185Y-110034609D01*
X144651172Y-110034602D01*
X144505501Y-109974264D01*
X144505489Y-109974261D01*
X144350845Y-109943500D01*
X144350842Y-109943500D01*
X144193158Y-109943500D01*
X144193155Y-109943500D01*
X144038510Y-109974261D01*
X144038498Y-109974264D01*
X143892827Y-110034602D01*
X143892814Y-110034609D01*
X143761711Y-110122210D01*
X143761707Y-110122213D01*
X143650213Y-110233707D01*
X143650210Y-110233711D01*
X143562609Y-110364814D01*
X143562602Y-110364827D01*
X143502264Y-110510498D01*
X143502261Y-110510510D01*
X143471500Y-110665153D01*
X118610500Y-110665153D01*
X118610500Y-107871153D01*
X169633500Y-107871153D01*
X169633500Y-108028846D01*
X169664261Y-108183489D01*
X169664264Y-108183501D01*
X169724602Y-108329172D01*
X169724609Y-108329185D01*
X169812210Y-108460288D01*
X169812213Y-108460292D01*
X169923707Y-108571786D01*
X169923711Y-108571789D01*
X170054814Y-108659390D01*
X170054827Y-108659397D01*
X170200498Y-108719735D01*
X170200503Y-108719737D01*
X170355153Y-108750499D01*
X170355156Y-108750500D01*
X170355158Y-108750500D01*
X170512844Y-108750500D01*
X170512845Y-108750499D01*
X170667497Y-108719737D01*
X170813179Y-108659394D01*
X170944289Y-108571789D01*
X171055789Y-108460289D01*
X171143394Y-108329179D01*
X171203737Y-108183497D01*
X171234500Y-108028842D01*
X171234500Y-107871158D01*
X171234500Y-107871155D01*
X171234499Y-107871153D01*
X171216118Y-107778747D01*
X171203737Y-107716503D01*
X171195940Y-107697680D01*
X171143397Y-107570827D01*
X171143390Y-107570814D01*
X171055789Y-107439711D01*
X171055786Y-107439707D01*
X170944292Y-107328213D01*
X170944288Y-107328210D01*
X170813185Y-107240609D01*
X170813172Y-107240602D01*
X170667501Y-107180264D01*
X170667489Y-107180261D01*
X170512845Y-107149500D01*
X170512842Y-107149500D01*
X170355158Y-107149500D01*
X170355155Y-107149500D01*
X170200510Y-107180261D01*
X170200498Y-107180264D01*
X170054827Y-107240602D01*
X170054814Y-107240609D01*
X169923711Y-107328210D01*
X169923707Y-107328213D01*
X169812213Y-107439707D01*
X169812210Y-107439711D01*
X169724609Y-107570814D01*
X169724602Y-107570827D01*
X169664264Y-107716498D01*
X169664261Y-107716510D01*
X169633500Y-107871153D01*
X118610500Y-107871153D01*
X118610500Y-106601153D01*
X121119500Y-106601153D01*
X121119500Y-106758846D01*
X121150261Y-106913489D01*
X121150264Y-106913501D01*
X121210602Y-107059172D01*
X121210609Y-107059185D01*
X121298210Y-107190288D01*
X121298213Y-107190292D01*
X121409707Y-107301786D01*
X121409711Y-107301789D01*
X121540814Y-107389390D01*
X121540827Y-107389397D01*
X121662288Y-107439707D01*
X121686503Y-107449737D01*
X121841153Y-107480499D01*
X121841156Y-107480500D01*
X121841158Y-107480500D01*
X121998844Y-107480500D01*
X121998845Y-107480499D01*
X122153497Y-107449737D01*
X122299179Y-107389394D01*
X122430289Y-107301789D01*
X122541789Y-107190289D01*
X122629394Y-107059179D01*
X122689737Y-106913497D01*
X122720500Y-106758842D01*
X122720500Y-106601158D01*
X122720500Y-106601155D01*
X122720499Y-106601153D01*
X122689738Y-106446510D01*
X122689737Y-106446503D01*
X122648586Y-106347153D01*
X152361500Y-106347153D01*
X152361500Y-106504846D01*
X152392261Y-106659489D01*
X152392264Y-106659501D01*
X152452602Y-106805172D01*
X152452609Y-106805185D01*
X152540210Y-106936288D01*
X152540213Y-106936292D01*
X152651707Y-107047786D01*
X152651711Y-107047789D01*
X152782814Y-107135390D01*
X152782827Y-107135397D01*
X152928498Y-107195735D01*
X152928503Y-107195737D01*
X153083153Y-107226499D01*
X153083156Y-107226500D01*
X153083158Y-107226500D01*
X153240844Y-107226500D01*
X153240845Y-107226499D01*
X153395497Y-107195737D01*
X153541179Y-107135394D01*
X153672289Y-107047789D01*
X153783789Y-106936289D01*
X153871394Y-106805179D01*
X153931737Y-106659497D01*
X153962500Y-106504842D01*
X153962500Y-106347158D01*
X153962500Y-106347155D01*
X153962499Y-106347153D01*
X153953283Y-106300821D01*
X153931737Y-106192503D01*
X153890585Y-106093153D01*
X162521500Y-106093153D01*
X162521500Y-106250846D01*
X162552261Y-106405489D01*
X162552264Y-106405501D01*
X162612602Y-106551172D01*
X162612609Y-106551185D01*
X162700210Y-106682288D01*
X162700213Y-106682292D01*
X162811707Y-106793786D01*
X162811711Y-106793789D01*
X162942814Y-106881390D01*
X162942827Y-106881397D01*
X163088498Y-106941735D01*
X163088503Y-106941737D01*
X163243153Y-106972499D01*
X163243156Y-106972500D01*
X163243158Y-106972500D01*
X163400844Y-106972500D01*
X163400845Y-106972499D01*
X163555497Y-106941737D01*
X163701179Y-106881394D01*
X163832289Y-106793789D01*
X163943789Y-106682289D01*
X164031394Y-106551179D01*
X164034328Y-106544097D01*
X164091735Y-106405501D01*
X164091737Y-106405497D01*
X164122500Y-106250842D01*
X164122500Y-106093158D01*
X164122500Y-106093155D01*
X164122499Y-106093153D01*
X164115549Y-106058213D01*
X164091737Y-105938503D01*
X164080039Y-105910261D01*
X164031397Y-105792827D01*
X164031390Y-105792814D01*
X163943789Y-105661711D01*
X163943786Y-105661707D01*
X163832292Y-105550213D01*
X163832288Y-105550210D01*
X163701185Y-105462609D01*
X163701172Y-105462602D01*
X163645703Y-105439627D01*
X163555501Y-105402264D01*
X163555489Y-105402261D01*
X163400845Y-105371500D01*
X163400842Y-105371500D01*
X163243158Y-105371500D01*
X163243155Y-105371500D01*
X163088510Y-105402261D01*
X163088498Y-105402264D01*
X162942827Y-105462602D01*
X162942814Y-105462609D01*
X162811711Y-105550210D01*
X162811707Y-105550213D01*
X162700213Y-105661707D01*
X162700210Y-105661711D01*
X162612609Y-105792814D01*
X162612602Y-105792827D01*
X162552264Y-105938498D01*
X162552261Y-105938510D01*
X162521500Y-106093153D01*
X153890585Y-106093153D01*
X153888572Y-106088292D01*
X153871397Y-106046826D01*
X153871390Y-106046814D01*
X153783789Y-105915711D01*
X153783786Y-105915707D01*
X153672292Y-105804213D01*
X153672288Y-105804210D01*
X153541185Y-105716609D01*
X153541172Y-105716602D01*
X153395501Y-105656264D01*
X153395489Y-105656261D01*
X153240845Y-105625500D01*
X153240842Y-105625500D01*
X153083158Y-105625500D01*
X153083155Y-105625500D01*
X152928510Y-105656261D01*
X152928498Y-105656264D01*
X152782827Y-105716602D01*
X152782814Y-105716609D01*
X152651711Y-105804210D01*
X152651707Y-105804213D01*
X152540213Y-105915707D01*
X152540210Y-105915711D01*
X152452609Y-106046814D01*
X152452602Y-106046827D01*
X152392264Y-106192498D01*
X152392261Y-106192510D01*
X152361500Y-106347153D01*
X122648586Y-106347153D01*
X122632330Y-106307908D01*
X122629397Y-106300826D01*
X122629390Y-106300814D01*
X122541789Y-106169711D01*
X122541786Y-106169707D01*
X122430292Y-106058213D01*
X122430288Y-106058210D01*
X122299185Y-105970609D01*
X122299172Y-105970602D01*
X122153501Y-105910264D01*
X122153489Y-105910261D01*
X121998845Y-105879500D01*
X121998842Y-105879500D01*
X121841158Y-105879500D01*
X121841155Y-105879500D01*
X121686510Y-105910261D01*
X121686498Y-105910264D01*
X121540827Y-105970602D01*
X121540814Y-105970609D01*
X121409711Y-106058210D01*
X121409707Y-106058213D01*
X121298213Y-106169707D01*
X121298210Y-106169711D01*
X121210609Y-106300814D01*
X121210602Y-106300827D01*
X121150264Y-106446498D01*
X121150261Y-106446510D01*
X121119500Y-106601153D01*
X118610500Y-106601153D01*
X118610500Y-105331153D01*
X169633500Y-105331153D01*
X169633500Y-105488846D01*
X169664261Y-105643489D01*
X169664264Y-105643501D01*
X169724602Y-105789172D01*
X169724609Y-105789185D01*
X169812210Y-105920288D01*
X169812213Y-105920292D01*
X169923707Y-106031786D01*
X169923711Y-106031789D01*
X170054814Y-106119390D01*
X170054827Y-106119397D01*
X170176288Y-106169707D01*
X170200503Y-106179737D01*
X170355153Y-106210499D01*
X170355156Y-106210500D01*
X170355158Y-106210500D01*
X170512844Y-106210500D01*
X170512845Y-106210499D01*
X170667497Y-106179737D01*
X170813179Y-106119394D01*
X170944289Y-106031789D01*
X171055789Y-105920289D01*
X171143394Y-105789179D01*
X171203737Y-105643497D01*
X171234500Y-105488842D01*
X171234500Y-105331158D01*
X171234500Y-105331155D01*
X171234499Y-105331153D01*
X171216118Y-105238747D01*
X171203737Y-105176503D01*
X171195940Y-105157680D01*
X171143397Y-105030827D01*
X171143390Y-105030814D01*
X171055789Y-104899711D01*
X171055786Y-104899707D01*
X170944292Y-104788213D01*
X170944288Y-104788210D01*
X170813185Y-104700609D01*
X170813172Y-104700602D01*
X170667501Y-104640264D01*
X170667489Y-104640261D01*
X170512845Y-104609500D01*
X170512842Y-104609500D01*
X170355158Y-104609500D01*
X170355155Y-104609500D01*
X170200510Y-104640261D01*
X170200498Y-104640264D01*
X170054827Y-104700602D01*
X170054814Y-104700609D01*
X169923711Y-104788210D01*
X169923707Y-104788213D01*
X169812213Y-104899707D01*
X169812210Y-104899711D01*
X169724609Y-105030814D01*
X169724602Y-105030827D01*
X169664264Y-105176498D01*
X169664261Y-105176510D01*
X169633500Y-105331153D01*
X118610500Y-105331153D01*
X118610500Y-104315153D01*
X163537500Y-104315153D01*
X163537500Y-104472846D01*
X163568261Y-104627489D01*
X163568264Y-104627501D01*
X163628602Y-104773172D01*
X163628609Y-104773185D01*
X163716210Y-104904288D01*
X163716213Y-104904292D01*
X163827707Y-105015786D01*
X163827711Y-105015789D01*
X163958814Y-105103390D01*
X163958827Y-105103397D01*
X164062348Y-105146276D01*
X164104503Y-105163737D01*
X164259153Y-105194499D01*
X164259156Y-105194500D01*
X164259158Y-105194500D01*
X164416844Y-105194500D01*
X164416845Y-105194499D01*
X164571497Y-105163737D01*
X164698785Y-105111013D01*
X164717172Y-105103397D01*
X164717172Y-105103396D01*
X164717179Y-105103394D01*
X164848289Y-105015789D01*
X164959789Y-104904289D01*
X165047394Y-104773179D01*
X165107737Y-104627497D01*
X165138500Y-104472842D01*
X165138500Y-104315158D01*
X165138500Y-104315155D01*
X165138499Y-104315153D01*
X165123461Y-104239554D01*
X165107737Y-104160503D01*
X165081969Y-104098292D01*
X165047397Y-104014827D01*
X165047390Y-104014814D01*
X164959789Y-103883711D01*
X164959786Y-103883707D01*
X164848292Y-103772213D01*
X164848288Y-103772210D01*
X164717185Y-103684609D01*
X164717172Y-103684602D01*
X164571501Y-103624264D01*
X164571489Y-103624261D01*
X164416845Y-103593500D01*
X164416842Y-103593500D01*
X164259158Y-103593500D01*
X164259155Y-103593500D01*
X164104510Y-103624261D01*
X164104498Y-103624264D01*
X163958827Y-103684602D01*
X163958814Y-103684609D01*
X163827711Y-103772210D01*
X163827707Y-103772213D01*
X163716213Y-103883707D01*
X163716210Y-103883711D01*
X163628609Y-104014814D01*
X163628602Y-104014827D01*
X163568264Y-104160498D01*
X163568261Y-104160510D01*
X163537500Y-104315153D01*
X118610500Y-104315153D01*
X118610500Y-102944653D01*
X132814500Y-102944653D01*
X132814500Y-103102346D01*
X132845261Y-103256989D01*
X132845264Y-103257001D01*
X132905602Y-103402672D01*
X132905609Y-103402685D01*
X132993210Y-103533788D01*
X132993213Y-103533792D01*
X133104707Y-103645286D01*
X133104711Y-103645289D01*
X133235814Y-103732890D01*
X133235827Y-103732897D01*
X133330741Y-103772211D01*
X133381503Y-103793237D01*
X133483829Y-103813591D01*
X133536153Y-103823999D01*
X133536156Y-103824000D01*
X133536158Y-103824000D01*
X133693844Y-103824000D01*
X133693845Y-103823999D01*
X133848497Y-103793237D01*
X133994179Y-103732894D01*
X134125289Y-103645289D01*
X134236789Y-103533789D01*
X134324394Y-103402679D01*
X134384737Y-103256997D01*
X134415500Y-103102342D01*
X134415500Y-102944658D01*
X134415500Y-102944655D01*
X134388567Y-102809258D01*
X134384966Y-102791153D01*
X141693500Y-102791153D01*
X141693500Y-102948846D01*
X141724261Y-103103489D01*
X141724264Y-103103501D01*
X141784602Y-103249172D01*
X141784609Y-103249185D01*
X141872210Y-103380288D01*
X141872213Y-103380292D01*
X141983707Y-103491786D01*
X141983711Y-103491789D01*
X142114814Y-103579390D01*
X142114827Y-103579397D01*
X142260498Y-103639735D01*
X142260503Y-103639737D01*
X142415153Y-103670499D01*
X142415156Y-103670500D01*
X142415158Y-103670500D01*
X142572844Y-103670500D01*
X142572845Y-103670499D01*
X142727497Y-103639737D01*
X142873179Y-103579394D01*
X143004289Y-103491789D01*
X143115789Y-103380289D01*
X143203394Y-103249179D01*
X143263737Y-103103497D01*
X143294500Y-102948842D01*
X143294500Y-102791158D01*
X143294500Y-102791155D01*
X143294499Y-102791153D01*
X143725500Y-102791153D01*
X143725500Y-102948846D01*
X143756261Y-103103489D01*
X143756264Y-103103501D01*
X143816602Y-103249172D01*
X143816609Y-103249185D01*
X143904210Y-103380288D01*
X143904213Y-103380292D01*
X144015707Y-103491786D01*
X144015711Y-103491789D01*
X144146814Y-103579390D01*
X144146827Y-103579397D01*
X144292498Y-103639735D01*
X144292503Y-103639737D01*
X144447153Y-103670499D01*
X144447156Y-103670500D01*
X144447158Y-103670500D01*
X144604844Y-103670500D01*
X144604845Y-103670499D01*
X144759497Y-103639737D01*
X144905179Y-103579394D01*
X145036289Y-103491789D01*
X145147789Y-103380289D01*
X145235394Y-103249179D01*
X145295737Y-103103497D01*
X145326500Y-102948842D01*
X145326500Y-102791158D01*
X145326500Y-102791155D01*
X145326499Y-102791153D01*
X152361500Y-102791153D01*
X152361500Y-102948846D01*
X152392261Y-103103489D01*
X152392264Y-103103501D01*
X152452602Y-103249172D01*
X152452609Y-103249185D01*
X152540210Y-103380288D01*
X152540213Y-103380292D01*
X152651707Y-103491786D01*
X152651711Y-103491789D01*
X152782814Y-103579390D01*
X152782827Y-103579397D01*
X152928498Y-103639735D01*
X152928503Y-103639737D01*
X153083153Y-103670499D01*
X153083156Y-103670500D01*
X153083158Y-103670500D01*
X153240844Y-103670500D01*
X153240845Y-103670499D01*
X153395497Y-103639737D01*
X153541179Y-103579394D01*
X153672289Y-103491789D01*
X153783789Y-103380289D01*
X153871394Y-103249179D01*
X153931737Y-103103497D01*
X153962500Y-102948842D01*
X153962500Y-102791158D01*
X153962500Y-102791155D01*
X153962499Y-102791153D01*
X153944118Y-102698747D01*
X153931737Y-102636503D01*
X153923940Y-102617680D01*
X153871397Y-102490827D01*
X153871390Y-102490814D01*
X153783789Y-102359711D01*
X153783786Y-102359707D01*
X153672292Y-102248213D01*
X153672288Y-102248210D01*
X153541185Y-102160609D01*
X153541172Y-102160602D01*
X153395501Y-102100264D01*
X153395489Y-102100261D01*
X153240845Y-102069500D01*
X153240842Y-102069500D01*
X153083158Y-102069500D01*
X153083155Y-102069500D01*
X152928510Y-102100261D01*
X152928498Y-102100264D01*
X152782827Y-102160602D01*
X152782814Y-102160609D01*
X152651711Y-102248210D01*
X152651707Y-102248213D01*
X152540213Y-102359707D01*
X152540210Y-102359711D01*
X152452609Y-102490814D01*
X152452602Y-102490827D01*
X152392264Y-102636498D01*
X152392261Y-102636510D01*
X152361500Y-102791153D01*
X145326499Y-102791153D01*
X145308118Y-102698747D01*
X145295737Y-102636503D01*
X145287940Y-102617680D01*
X145235397Y-102490827D01*
X145235390Y-102490814D01*
X145147789Y-102359711D01*
X145147786Y-102359707D01*
X145036292Y-102248213D01*
X145036288Y-102248210D01*
X144905185Y-102160609D01*
X144905172Y-102160602D01*
X144759501Y-102100264D01*
X144759489Y-102100261D01*
X144604845Y-102069500D01*
X144604842Y-102069500D01*
X144447158Y-102069500D01*
X144447155Y-102069500D01*
X144292510Y-102100261D01*
X144292498Y-102100264D01*
X144146827Y-102160602D01*
X144146814Y-102160609D01*
X144015711Y-102248210D01*
X144015707Y-102248213D01*
X143904213Y-102359707D01*
X143904210Y-102359711D01*
X143816609Y-102490814D01*
X143816602Y-102490827D01*
X143756264Y-102636498D01*
X143756261Y-102636510D01*
X143725500Y-102791153D01*
X143294499Y-102791153D01*
X143276118Y-102698747D01*
X143263737Y-102636503D01*
X143255940Y-102617680D01*
X143203397Y-102490827D01*
X143203390Y-102490814D01*
X143115789Y-102359711D01*
X143115786Y-102359707D01*
X143004292Y-102248213D01*
X143004288Y-102248210D01*
X142873185Y-102160609D01*
X142873172Y-102160602D01*
X142727501Y-102100264D01*
X142727489Y-102100261D01*
X142572845Y-102069500D01*
X142572842Y-102069500D01*
X142415158Y-102069500D01*
X142415155Y-102069500D01*
X142260510Y-102100261D01*
X142260498Y-102100264D01*
X142114827Y-102160602D01*
X142114814Y-102160609D01*
X141983711Y-102248210D01*
X141983707Y-102248213D01*
X141872213Y-102359707D01*
X141872210Y-102359711D01*
X141784609Y-102490814D01*
X141784602Y-102490827D01*
X141724264Y-102636498D01*
X141724261Y-102636510D01*
X141693500Y-102791153D01*
X134384966Y-102791153D01*
X134384737Y-102790003D01*
X134384735Y-102789998D01*
X134324397Y-102644327D01*
X134324390Y-102644314D01*
X134236789Y-102513211D01*
X134236786Y-102513207D01*
X134125292Y-102401713D01*
X134125288Y-102401710D01*
X133994185Y-102314109D01*
X133994172Y-102314102D01*
X133848501Y-102253764D01*
X133848489Y-102253761D01*
X133693845Y-102223000D01*
X133693842Y-102223000D01*
X133536158Y-102223000D01*
X133536155Y-102223000D01*
X133381510Y-102253761D01*
X133381498Y-102253764D01*
X133235827Y-102314102D01*
X133235814Y-102314109D01*
X133104711Y-102401710D01*
X133104707Y-102401713D01*
X132993213Y-102513207D01*
X132993210Y-102513211D01*
X132905609Y-102644314D01*
X132905602Y-102644327D01*
X132845264Y-102789998D01*
X132845261Y-102790010D01*
X132814500Y-102944653D01*
X118610500Y-102944653D01*
X118610500Y-100457653D01*
X131025500Y-100457653D01*
X131025500Y-100615346D01*
X131056261Y-100769989D01*
X131056264Y-100770001D01*
X131116602Y-100915672D01*
X131116609Y-100915685D01*
X131204210Y-101046788D01*
X131204213Y-101046792D01*
X131315707Y-101158286D01*
X131315711Y-101158289D01*
X131446814Y-101245890D01*
X131446827Y-101245897D01*
X131592498Y-101306235D01*
X131592503Y-101306237D01*
X131747153Y-101336999D01*
X131747156Y-101337000D01*
X131747158Y-101337000D01*
X131904844Y-101337000D01*
X131904845Y-101336999D01*
X132059497Y-101306237D01*
X132205179Y-101245894D01*
X132336289Y-101158289D01*
X132447789Y-101046789D01*
X132535394Y-100915679D01*
X132595737Y-100769997D01*
X132626500Y-100615342D01*
X132626500Y-100457658D01*
X132615957Y-100404653D01*
X136867500Y-100404653D01*
X136867500Y-100562346D01*
X136898261Y-100716989D01*
X136898264Y-100717001D01*
X136958602Y-100862672D01*
X136958609Y-100862685D01*
X137046210Y-100993788D01*
X137046213Y-100993792D01*
X137157707Y-101105286D01*
X137157711Y-101105289D01*
X137288814Y-101192890D01*
X137288827Y-101192897D01*
X137434498Y-101253235D01*
X137434503Y-101253237D01*
X137536829Y-101273591D01*
X137589153Y-101283999D01*
X137589156Y-101284000D01*
X137589158Y-101284000D01*
X137746844Y-101284000D01*
X137746845Y-101283999D01*
X137831536Y-101267153D01*
X157949500Y-101267153D01*
X157949500Y-101424846D01*
X157980261Y-101579489D01*
X157980264Y-101579501D01*
X158040602Y-101725172D01*
X158040609Y-101725185D01*
X158128210Y-101856288D01*
X158128213Y-101856292D01*
X158239707Y-101967786D01*
X158239711Y-101967789D01*
X158370814Y-102055390D01*
X158370827Y-102055397D01*
X158516498Y-102115735D01*
X158516503Y-102115737D01*
X158671153Y-102146499D01*
X158671156Y-102146500D01*
X158671158Y-102146500D01*
X158828844Y-102146500D01*
X158828845Y-102146499D01*
X158983497Y-102115737D01*
X159129179Y-102055394D01*
X159260289Y-101967789D01*
X159371789Y-101856289D01*
X159459394Y-101725179D01*
X159519737Y-101579497D01*
X159550500Y-101424842D01*
X159550500Y-101267158D01*
X159550500Y-101267155D01*
X159550499Y-101267153D01*
X173951500Y-101267153D01*
X173951500Y-101424846D01*
X173982261Y-101579489D01*
X173982264Y-101579501D01*
X174042602Y-101725172D01*
X174042609Y-101725185D01*
X174130210Y-101856288D01*
X174130213Y-101856292D01*
X174241707Y-101967786D01*
X174241711Y-101967789D01*
X174372814Y-102055390D01*
X174372827Y-102055397D01*
X174518498Y-102115735D01*
X174518503Y-102115737D01*
X174673153Y-102146499D01*
X174673156Y-102146500D01*
X174673158Y-102146500D01*
X174830844Y-102146500D01*
X174830845Y-102146499D01*
X174985497Y-102115737D01*
X175131179Y-102055394D01*
X175262289Y-101967789D01*
X175373789Y-101856289D01*
X175461394Y-101725179D01*
X175521737Y-101579497D01*
X175552500Y-101424842D01*
X175552500Y-101267158D01*
X175552500Y-101267155D01*
X175552499Y-101267153D01*
X175549731Y-101253237D01*
X175521737Y-101112503D01*
X175478572Y-101008292D01*
X175461397Y-100966827D01*
X175461390Y-100966814D01*
X175373789Y-100835711D01*
X175373786Y-100835707D01*
X175262292Y-100724213D01*
X175262288Y-100724210D01*
X175131185Y-100636609D01*
X175131172Y-100636602D01*
X174985501Y-100576264D01*
X174985489Y-100576261D01*
X174830845Y-100545500D01*
X174830842Y-100545500D01*
X174673158Y-100545500D01*
X174673155Y-100545500D01*
X174518510Y-100576261D01*
X174518498Y-100576264D01*
X174372827Y-100636602D01*
X174372814Y-100636609D01*
X174241711Y-100724210D01*
X174241707Y-100724213D01*
X174130213Y-100835707D01*
X174130210Y-100835711D01*
X174042609Y-100966814D01*
X174042602Y-100966827D01*
X173982264Y-101112498D01*
X173982261Y-101112510D01*
X173951500Y-101267153D01*
X159550499Y-101267153D01*
X159547731Y-101253237D01*
X159519737Y-101112503D01*
X159476572Y-101008292D01*
X159459397Y-100966827D01*
X159459390Y-100966814D01*
X159371789Y-100835711D01*
X159371786Y-100835707D01*
X159260292Y-100724213D01*
X159260288Y-100724210D01*
X159129185Y-100636609D01*
X159129172Y-100636602D01*
X158983501Y-100576264D01*
X158983489Y-100576261D01*
X158828845Y-100545500D01*
X158828842Y-100545500D01*
X158671158Y-100545500D01*
X158671155Y-100545500D01*
X158516510Y-100576261D01*
X158516498Y-100576264D01*
X158370827Y-100636602D01*
X158370814Y-100636609D01*
X158239711Y-100724210D01*
X158239707Y-100724213D01*
X158128213Y-100835707D01*
X158128210Y-100835711D01*
X158040609Y-100966814D01*
X158040602Y-100966827D01*
X157980264Y-101112498D01*
X157980261Y-101112510D01*
X157949500Y-101267153D01*
X137831536Y-101267153D01*
X137901497Y-101253237D01*
X138047179Y-101192894D01*
X138047185Y-101192890D01*
X138099456Y-101157964D01*
X138135757Y-101133708D01*
X138178289Y-101105289D01*
X138289789Y-100993789D01*
X138377394Y-100862679D01*
X138437737Y-100716997D01*
X138468500Y-100562342D01*
X138468500Y-100404658D01*
X138468500Y-100404655D01*
X138468499Y-100404653D01*
X138437738Y-100250010D01*
X138437737Y-100250003D01*
X138437735Y-100249998D01*
X138377397Y-100104327D01*
X138377390Y-100104314D01*
X138289789Y-99973211D01*
X138289786Y-99973207D01*
X138178292Y-99861713D01*
X138178288Y-99861710D01*
X138047185Y-99774109D01*
X138047172Y-99774102D01*
X137901501Y-99713764D01*
X137901489Y-99713761D01*
X137746845Y-99683000D01*
X137746842Y-99683000D01*
X137589158Y-99683000D01*
X137589155Y-99683000D01*
X137434510Y-99713761D01*
X137434498Y-99713764D01*
X137288827Y-99774102D01*
X137288814Y-99774109D01*
X137157711Y-99861710D01*
X137157707Y-99861713D01*
X137046213Y-99973207D01*
X137046210Y-99973211D01*
X136958609Y-100104314D01*
X136958602Y-100104327D01*
X136898264Y-100249998D01*
X136898261Y-100250010D01*
X136867500Y-100404653D01*
X132615957Y-100404653D01*
X132595737Y-100303003D01*
X132573782Y-100249998D01*
X132535397Y-100157327D01*
X132535390Y-100157314D01*
X132447789Y-100026211D01*
X132447786Y-100026207D01*
X132336292Y-99914713D01*
X132336288Y-99914710D01*
X132205185Y-99827109D01*
X132205172Y-99827102D01*
X132059501Y-99766764D01*
X132059489Y-99766761D01*
X131904845Y-99736000D01*
X131904842Y-99736000D01*
X131747158Y-99736000D01*
X131747155Y-99736000D01*
X131592510Y-99766761D01*
X131592498Y-99766764D01*
X131446827Y-99827102D01*
X131446814Y-99827109D01*
X131315711Y-99914710D01*
X131315707Y-99914713D01*
X131204213Y-100026207D01*
X131204210Y-100026211D01*
X131116609Y-100157314D01*
X131116602Y-100157327D01*
X131056264Y-100302998D01*
X131056261Y-100303010D01*
X131025500Y-100457653D01*
X118610500Y-100457653D01*
X118610500Y-98219153D01*
X147080500Y-98219153D01*
X147080500Y-98376846D01*
X147111261Y-98531489D01*
X147111264Y-98531501D01*
X147171602Y-98677172D01*
X147171609Y-98677185D01*
X147259210Y-98808288D01*
X147259213Y-98808292D01*
X147370707Y-98919786D01*
X147370711Y-98919789D01*
X147501814Y-99007390D01*
X147501827Y-99007397D01*
X147647498Y-99067735D01*
X147647503Y-99067737D01*
X147802153Y-99098499D01*
X147802156Y-99098500D01*
X147802158Y-99098500D01*
X147959844Y-99098500D01*
X147959845Y-99098499D01*
X148114497Y-99067737D01*
X148260179Y-99007394D01*
X148391289Y-98919789D01*
X148502789Y-98808289D01*
X148590394Y-98677179D01*
X148650737Y-98531497D01*
X148681500Y-98376842D01*
X148681500Y-98219158D01*
X148681500Y-98219155D01*
X148681499Y-98219153D01*
X160489500Y-98219153D01*
X160489500Y-98376846D01*
X160520261Y-98531489D01*
X160520264Y-98531501D01*
X160580602Y-98677172D01*
X160580609Y-98677185D01*
X160668210Y-98808288D01*
X160668213Y-98808292D01*
X160779707Y-98919786D01*
X160779711Y-98919789D01*
X160910814Y-99007390D01*
X160910827Y-99007397D01*
X161056498Y-99067735D01*
X161056503Y-99067737D01*
X161211153Y-99098499D01*
X161211156Y-99098500D01*
X161211158Y-99098500D01*
X161368844Y-99098500D01*
X161368845Y-99098499D01*
X161523497Y-99067737D01*
X161669179Y-99007394D01*
X161800289Y-98919789D01*
X161911789Y-98808289D01*
X161999394Y-98677179D01*
X162059737Y-98531497D01*
X162090500Y-98376842D01*
X162090500Y-98219158D01*
X162090500Y-98219155D01*
X162090499Y-98219153D01*
X162059738Y-98064510D01*
X162059737Y-98064503D01*
X162059735Y-98064498D01*
X161999397Y-97918827D01*
X161999390Y-97918814D01*
X161911789Y-97787711D01*
X161911786Y-97787707D01*
X161800292Y-97676213D01*
X161800288Y-97676210D01*
X161669185Y-97588609D01*
X161669172Y-97588602D01*
X161523501Y-97528264D01*
X161523489Y-97528261D01*
X161368845Y-97497500D01*
X161368842Y-97497500D01*
X161211158Y-97497500D01*
X161211155Y-97497500D01*
X161056510Y-97528261D01*
X161056498Y-97528264D01*
X160910827Y-97588602D01*
X160910814Y-97588609D01*
X160779711Y-97676210D01*
X160779707Y-97676213D01*
X160668213Y-97787707D01*
X160668210Y-97787711D01*
X160580609Y-97918814D01*
X160580602Y-97918827D01*
X160520264Y-98064498D01*
X160520261Y-98064510D01*
X160489500Y-98219153D01*
X148681499Y-98219153D01*
X148650738Y-98064510D01*
X148650737Y-98064503D01*
X148650735Y-98064498D01*
X148590397Y-97918827D01*
X148590390Y-97918814D01*
X148502789Y-97787711D01*
X148502786Y-97787707D01*
X148391292Y-97676213D01*
X148391288Y-97676210D01*
X148260185Y-97588609D01*
X148260172Y-97588602D01*
X148114501Y-97528264D01*
X148114489Y-97528261D01*
X147959845Y-97497500D01*
X147959842Y-97497500D01*
X147802158Y-97497500D01*
X147802155Y-97497500D01*
X147647510Y-97528261D01*
X147647498Y-97528264D01*
X147501827Y-97588602D01*
X147501814Y-97588609D01*
X147370711Y-97676210D01*
X147370707Y-97676213D01*
X147259213Y-97787707D01*
X147259210Y-97787711D01*
X147171609Y-97918814D01*
X147171602Y-97918827D01*
X147111264Y-98064498D01*
X147111261Y-98064510D01*
X147080500Y-98219153D01*
X118610500Y-98219153D01*
X118610500Y-96401947D01*
X134970000Y-96401947D01*
X134970000Y-96638052D01*
X135006934Y-96871247D01*
X135079897Y-97095802D01*
X135187087Y-97306174D01*
X135247338Y-97389104D01*
X135247340Y-97389105D01*
X135946212Y-96690233D01*
X135957482Y-96732292D01*
X136029890Y-96857708D01*
X136132292Y-96960110D01*
X136257708Y-97032518D01*
X136299765Y-97043787D01*
X135600893Y-97742658D01*
X135683828Y-97802914D01*
X135894197Y-97910102D01*
X136118752Y-97983065D01*
X136118751Y-97983065D01*
X136351948Y-98020000D01*
X136588052Y-98020000D01*
X136821247Y-97983065D01*
X137045802Y-97910102D01*
X137256163Y-97802918D01*
X137256169Y-97802914D01*
X137339104Y-97742658D01*
X137339105Y-97742658D01*
X136640233Y-97043787D01*
X136682292Y-97032518D01*
X136807708Y-96960110D01*
X136910110Y-96857708D01*
X136982518Y-96732292D01*
X136993787Y-96690233D01*
X137692658Y-97389105D01*
X137692658Y-97389104D01*
X137752914Y-97306169D01*
X137752918Y-97306163D01*
X137860102Y-97095802D01*
X137933065Y-96871247D01*
X137970000Y-96638052D01*
X137970000Y-96401947D01*
X137969993Y-96401902D01*
X139469500Y-96401902D01*
X139469500Y-96638097D01*
X139506446Y-96871368D01*
X139579433Y-97095996D01*
X139654597Y-97243512D01*
X139686657Y-97306433D01*
X139825483Y-97497510D01*
X139992490Y-97664517D01*
X140183567Y-97803343D01*
X140232915Y-97828487D01*
X140394003Y-97910566D01*
X140394005Y-97910566D01*
X140394008Y-97910568D01*
X140475028Y-97936893D01*
X140618631Y-97983553D01*
X140851903Y-98020500D01*
X140851908Y-98020500D01*
X141088097Y-98020500D01*
X141321368Y-97983553D01*
X141322870Y-97983065D01*
X141545992Y-97910568D01*
X141756433Y-97803343D01*
X141947510Y-97664517D01*
X142114517Y-97497510D01*
X142253343Y-97306433D01*
X142360568Y-97095992D01*
X142433553Y-96871368D01*
X142438236Y-96841802D01*
X142470500Y-96638097D01*
X142470500Y-96401902D01*
X142433553Y-96168631D01*
X142404719Y-96079890D01*
X142360568Y-95944008D01*
X142355037Y-95933153D01*
X167347500Y-95933153D01*
X167347500Y-96090846D01*
X167378261Y-96245489D01*
X167378264Y-96245501D01*
X167438602Y-96391172D01*
X167438609Y-96391185D01*
X167526210Y-96522288D01*
X167526213Y-96522292D01*
X167637707Y-96633786D01*
X167637711Y-96633789D01*
X167768814Y-96721390D01*
X167768827Y-96721397D01*
X167914498Y-96781735D01*
X167914503Y-96781737D01*
X168069153Y-96812499D01*
X168069156Y-96812500D01*
X168069158Y-96812500D01*
X168226844Y-96812500D01*
X168226845Y-96812499D01*
X168381497Y-96781737D01*
X168527179Y-96721394D01*
X168658289Y-96633789D01*
X168769789Y-96522289D01*
X168857394Y-96391179D01*
X168860328Y-96384097D01*
X168879252Y-96338409D01*
X168917737Y-96245497D01*
X168948500Y-96090842D01*
X168948500Y-95933158D01*
X168948500Y-95933155D01*
X168948499Y-95933153D01*
X168917738Y-95778510D01*
X168917737Y-95778503D01*
X168881160Y-95690197D01*
X168857397Y-95632827D01*
X168857390Y-95632814D01*
X168769789Y-95501711D01*
X168769786Y-95501707D01*
X168658292Y-95390213D01*
X168658288Y-95390210D01*
X168527185Y-95302609D01*
X168527172Y-95302602D01*
X168381501Y-95242264D01*
X168381489Y-95242261D01*
X168226845Y-95211500D01*
X168226842Y-95211500D01*
X168069158Y-95211500D01*
X168069155Y-95211500D01*
X167914510Y-95242261D01*
X167914498Y-95242264D01*
X167768827Y-95302602D01*
X167768814Y-95302609D01*
X167637711Y-95390210D01*
X167637707Y-95390213D01*
X167526213Y-95501707D01*
X167526210Y-95501711D01*
X167438609Y-95632814D01*
X167438602Y-95632827D01*
X167378264Y-95778498D01*
X167378261Y-95778510D01*
X167347500Y-95933153D01*
X142355037Y-95933153D01*
X142253343Y-95733567D01*
X142114517Y-95542490D01*
X141947510Y-95375483D01*
X141756433Y-95236657D01*
X141707060Y-95211500D01*
X141545996Y-95129433D01*
X141321368Y-95056446D01*
X141088097Y-95019500D01*
X141088092Y-95019500D01*
X140851908Y-95019500D01*
X140851903Y-95019500D01*
X140618631Y-95056446D01*
X140394003Y-95129433D01*
X140183566Y-95236657D01*
X140112229Y-95288487D01*
X139992490Y-95375483D01*
X139992488Y-95375485D01*
X139992487Y-95375485D01*
X139825485Y-95542487D01*
X139825485Y-95542488D01*
X139825483Y-95542490D01*
X139765862Y-95624550D01*
X139686657Y-95733566D01*
X139579433Y-95944003D01*
X139506446Y-96168631D01*
X139469500Y-96401902D01*
X137969993Y-96401902D01*
X137933065Y-96168752D01*
X137860102Y-95944197D01*
X137752914Y-95733828D01*
X137692658Y-95650894D01*
X137692658Y-95650893D01*
X136993787Y-96349765D01*
X136982518Y-96307708D01*
X136910110Y-96182292D01*
X136807708Y-96079890D01*
X136682292Y-96007482D01*
X136640234Y-95996212D01*
X137339105Y-95297340D01*
X137339104Y-95297338D01*
X137256174Y-95237087D01*
X137045802Y-95129897D01*
X136821247Y-95056934D01*
X136821248Y-95056934D01*
X136588052Y-95020000D01*
X136351948Y-95020000D01*
X136118752Y-95056934D01*
X135894197Y-95129897D01*
X135683830Y-95237084D01*
X135600894Y-95297340D01*
X136299766Y-95996212D01*
X136257708Y-96007482D01*
X136132292Y-96079890D01*
X136029890Y-96182292D01*
X135957482Y-96307708D01*
X135946212Y-96349766D01*
X135247340Y-95650894D01*
X135187084Y-95733830D01*
X135079897Y-95944197D01*
X135006934Y-96168752D01*
X134970000Y-96401947D01*
X118610500Y-96401947D01*
X118610500Y-89901947D01*
X134970000Y-89901947D01*
X134970000Y-90138052D01*
X135006934Y-90371247D01*
X135079897Y-90595802D01*
X135187087Y-90806174D01*
X135247338Y-90889104D01*
X135247340Y-90889105D01*
X135946212Y-90190233D01*
X135957482Y-90232292D01*
X136029890Y-90357708D01*
X136132292Y-90460110D01*
X136257708Y-90532518D01*
X136299765Y-90543787D01*
X135600893Y-91242658D01*
X135683828Y-91302914D01*
X135894197Y-91410102D01*
X136118752Y-91483065D01*
X136118751Y-91483065D01*
X136351948Y-91520000D01*
X136588052Y-91520000D01*
X136821247Y-91483065D01*
X137045802Y-91410102D01*
X137256163Y-91302918D01*
X137256169Y-91302914D01*
X137339104Y-91242658D01*
X137339105Y-91242658D01*
X136640233Y-90543787D01*
X136682292Y-90532518D01*
X136807708Y-90460110D01*
X136910110Y-90357708D01*
X136982518Y-90232292D01*
X136993787Y-90190233D01*
X137692658Y-90889105D01*
X137692658Y-90889104D01*
X137752914Y-90806169D01*
X137752918Y-90806163D01*
X137860102Y-90595802D01*
X137933065Y-90371247D01*
X137970000Y-90138052D01*
X137970000Y-89901947D01*
X137969993Y-89901902D01*
X139469500Y-89901902D01*
X139469500Y-90138097D01*
X139506446Y-90371368D01*
X139579433Y-90595996D01*
X139686519Y-90806163D01*
X139686657Y-90806433D01*
X139825483Y-90997510D01*
X139992490Y-91164517D01*
X140183567Y-91303343D01*
X140282991Y-91354002D01*
X140394003Y-91410566D01*
X140394005Y-91410566D01*
X140394008Y-91410568D01*
X140501764Y-91445580D01*
X140618631Y-91483553D01*
X140851903Y-91520500D01*
X140851908Y-91520500D01*
X141088097Y-91520500D01*
X141321368Y-91483553D01*
X141412002Y-91454104D01*
X141545992Y-91410568D01*
X141756433Y-91303343D01*
X141947510Y-91164517D01*
X142114517Y-90997510D01*
X142253343Y-90806433D01*
X142360568Y-90595992D01*
X142433553Y-90371368D01*
X142442051Y-90317713D01*
X145461500Y-90317713D01*
X145461500Y-90530287D01*
X145494754Y-90740243D01*
X145543122Y-90889105D01*
X145560444Y-90942414D01*
X145656951Y-91131820D01*
X145781890Y-91303786D01*
X145895430Y-91417326D01*
X145928915Y-91478649D01*
X145923931Y-91548341D01*
X145882059Y-91604274D01*
X145851083Y-91621189D01*
X145719669Y-91670203D01*
X145719664Y-91670206D01*
X145604455Y-91756452D01*
X145604452Y-91756455D01*
X145518206Y-91871664D01*
X145518202Y-91871671D01*
X145467908Y-92006517D01*
X145461501Y-92066116D01*
X145461501Y-92066123D01*
X145461500Y-92066135D01*
X145461500Y-93861870D01*
X145461501Y-93861876D01*
X145467908Y-93921483D01*
X145518202Y-94056328D01*
X145518206Y-94056335D01*
X145604452Y-94171544D01*
X145604455Y-94171547D01*
X145719664Y-94257793D01*
X145719671Y-94257797D01*
X145854517Y-94308091D01*
X145854516Y-94308091D01*
X145861444Y-94308835D01*
X145914127Y-94314500D01*
X147709872Y-94314499D01*
X147769483Y-94308091D01*
X147904331Y-94257796D01*
X148019546Y-94171546D01*
X148105796Y-94056331D01*
X148156091Y-93921483D01*
X148162500Y-93861873D01*
X148162499Y-92066128D01*
X148156091Y-92006517D01*
X148150228Y-91990798D01*
X148105797Y-91871671D01*
X148105793Y-91871664D01*
X148019547Y-91756455D01*
X148019544Y-91756452D01*
X147904335Y-91670206D01*
X147904328Y-91670202D01*
X147772917Y-91621189D01*
X147716983Y-91579318D01*
X147692566Y-91513853D01*
X147707418Y-91445580D01*
X147728563Y-91417332D01*
X147842104Y-91303792D01*
X147967051Y-91131816D01*
X147999617Y-91067902D01*
X179093500Y-91067902D01*
X179093500Y-91304097D01*
X179130446Y-91537368D01*
X179203433Y-91761996D01*
X179259315Y-91871669D01*
X179310657Y-91972433D01*
X179449483Y-92163510D01*
X179616490Y-92330517D01*
X179651127Y-92355683D01*
X179693792Y-92411013D01*
X179699771Y-92480626D01*
X179667165Y-92542421D01*
X179651130Y-92556315D01*
X179633365Y-92569222D01*
X179616488Y-92581484D01*
X179449485Y-92748487D01*
X179449485Y-92748488D01*
X179449483Y-92748490D01*
X179389862Y-92830550D01*
X179310657Y-92939566D01*
X179203433Y-93150003D01*
X179130446Y-93374631D01*
X179093500Y-93607902D01*
X179093500Y-93844097D01*
X179130446Y-94077368D01*
X179203433Y-94301996D01*
X179310519Y-94512163D01*
X179310657Y-94512433D01*
X179449483Y-94703510D01*
X179616490Y-94870517D01*
X179651127Y-94895683D01*
X179693792Y-94951013D01*
X179699771Y-95020626D01*
X179667165Y-95082421D01*
X179651130Y-95096315D01*
X179633365Y-95109222D01*
X179616488Y-95121484D01*
X179449485Y-95288487D01*
X179449485Y-95288488D01*
X179449483Y-95288490D01*
X179389862Y-95370550D01*
X179310657Y-95479566D01*
X179203433Y-95690003D01*
X179130446Y-95914631D01*
X179093500Y-96147902D01*
X179093500Y-96384097D01*
X179130446Y-96617368D01*
X179203433Y-96841996D01*
X179263616Y-96960110D01*
X179310657Y-97052433D01*
X179449483Y-97243510D01*
X179616490Y-97410517D01*
X179651127Y-97435683D01*
X179693792Y-97491013D01*
X179699771Y-97560626D01*
X179667165Y-97622421D01*
X179651130Y-97636315D01*
X179633365Y-97649222D01*
X179616488Y-97661484D01*
X179449485Y-97828487D01*
X179449485Y-97828488D01*
X179449483Y-97828490D01*
X179390188Y-97910102D01*
X179310657Y-98019566D01*
X179203433Y-98230003D01*
X179130446Y-98454631D01*
X179093500Y-98687902D01*
X179093500Y-98924097D01*
X179130446Y-99157368D01*
X179203433Y-99381996D01*
X179310519Y-99592163D01*
X179310657Y-99592433D01*
X179449483Y-99783510D01*
X179616490Y-99950517D01*
X179651127Y-99975683D01*
X179693792Y-100031013D01*
X179699771Y-100100626D01*
X179667165Y-100162421D01*
X179651130Y-100176315D01*
X179633365Y-100189222D01*
X179616488Y-100201484D01*
X179449485Y-100368487D01*
X179449485Y-100368488D01*
X179449483Y-100368490D01*
X179389862Y-100450550D01*
X179310657Y-100559566D01*
X179203433Y-100770003D01*
X179130446Y-100994631D01*
X179093500Y-101227902D01*
X179093500Y-101464097D01*
X179130446Y-101697368D01*
X179203433Y-101921996D01*
X179294266Y-102100264D01*
X179310657Y-102132433D01*
X179449483Y-102323510D01*
X179616490Y-102490517D01*
X179651127Y-102515683D01*
X179693792Y-102571013D01*
X179699771Y-102640626D01*
X179667165Y-102702421D01*
X179651130Y-102716315D01*
X179633365Y-102729222D01*
X179616488Y-102741484D01*
X179449485Y-102908487D01*
X179449485Y-102908488D01*
X179449483Y-102908490D01*
X179389862Y-102990550D01*
X179310657Y-103099566D01*
X179203433Y-103310003D01*
X179130446Y-103534631D01*
X179093500Y-103767902D01*
X179093500Y-104004097D01*
X179130446Y-104237368D01*
X179203433Y-104461996D01*
X179294266Y-104640264D01*
X179310657Y-104672433D01*
X179449483Y-104863510D01*
X179616490Y-105030517D01*
X179651127Y-105055683D01*
X179693792Y-105111013D01*
X179699771Y-105180626D01*
X179667165Y-105242421D01*
X179651130Y-105256315D01*
X179633365Y-105269222D01*
X179616488Y-105281484D01*
X179449485Y-105448487D01*
X179449485Y-105448488D01*
X179449483Y-105448490D01*
X179389862Y-105530550D01*
X179310657Y-105639566D01*
X179203433Y-105850003D01*
X179130446Y-106074631D01*
X179093500Y-106307902D01*
X179093500Y-106544097D01*
X179130446Y-106777368D01*
X179203433Y-107001996D01*
X179302149Y-107195735D01*
X179310657Y-107212433D01*
X179449483Y-107403510D01*
X179616490Y-107570517D01*
X179651127Y-107595683D01*
X179693792Y-107651013D01*
X179699771Y-107720626D01*
X179667165Y-107782421D01*
X179651130Y-107796315D01*
X179633365Y-107809222D01*
X179616488Y-107821484D01*
X179449485Y-107988487D01*
X179449485Y-107988488D01*
X179449483Y-107988490D01*
X179389862Y-108070550D01*
X179310657Y-108179566D01*
X179203433Y-108390003D01*
X179130446Y-108614631D01*
X179093500Y-108847902D01*
X179093500Y-109084097D01*
X179130446Y-109317368D01*
X179203433Y-109541996D01*
X179310519Y-109752163D01*
X179310657Y-109752433D01*
X179449483Y-109943510D01*
X179616490Y-110110517D01*
X179651127Y-110135683D01*
X179693792Y-110191013D01*
X179699771Y-110260626D01*
X179667165Y-110322421D01*
X179651130Y-110336315D01*
X179633365Y-110349222D01*
X179616488Y-110361484D01*
X179449485Y-110528487D01*
X179449485Y-110528488D01*
X179449483Y-110528490D01*
X179389862Y-110610550D01*
X179310657Y-110719566D01*
X179203433Y-110930003D01*
X179130446Y-111154631D01*
X179093500Y-111387902D01*
X179093500Y-111624097D01*
X179130446Y-111857368D01*
X179203433Y-112081996D01*
X179294266Y-112260264D01*
X179310657Y-112292433D01*
X179449483Y-112483510D01*
X179616490Y-112650517D01*
X179651127Y-112675683D01*
X179693792Y-112731013D01*
X179699771Y-112800626D01*
X179667165Y-112862421D01*
X179651130Y-112876315D01*
X179633365Y-112889222D01*
X179616488Y-112901484D01*
X179449485Y-113068487D01*
X179449485Y-113068488D01*
X179449483Y-113068490D01*
X179389862Y-113150550D01*
X179310657Y-113259566D01*
X179203433Y-113470003D01*
X179130446Y-113694631D01*
X179093500Y-113927902D01*
X179093500Y-114164097D01*
X179130446Y-114397368D01*
X179203433Y-114621996D01*
X179287757Y-114787489D01*
X179310657Y-114832433D01*
X179449483Y-115023510D01*
X179616490Y-115190517D01*
X179807567Y-115329343D01*
X179906991Y-115380002D01*
X180018003Y-115436566D01*
X180018005Y-115436566D01*
X180018008Y-115436568D01*
X180138412Y-115475689D01*
X180242631Y-115509553D01*
X180475903Y-115546500D01*
X180475908Y-115546500D01*
X180712097Y-115546500D01*
X180945368Y-115509553D01*
X180946870Y-115509065D01*
X181169992Y-115436568D01*
X181380433Y-115329343D01*
X181571510Y-115190517D01*
X181738517Y-115023510D01*
X181785370Y-114959022D01*
X181789713Y-114954199D01*
X181814150Y-114939142D01*
X181836877Y-114921618D01*
X181844393Y-114920509D01*
X181849199Y-114917549D01*
X181862730Y-114917806D01*
X181891594Y-114913551D01*
X181911340Y-114915105D01*
X182610212Y-114216233D01*
X182621482Y-114258292D01*
X182693890Y-114383708D01*
X182796292Y-114486110D01*
X182921708Y-114558518D01*
X182963765Y-114569787D01*
X182264893Y-115268658D01*
X182347828Y-115328914D01*
X182558197Y-115436102D01*
X182782752Y-115509065D01*
X182782751Y-115509065D01*
X183015948Y-115546000D01*
X183252052Y-115546000D01*
X183485247Y-115509065D01*
X183709802Y-115436102D01*
X183920163Y-115328918D01*
X183920169Y-115328914D01*
X184003104Y-115268658D01*
X184003105Y-115268658D01*
X183304233Y-114569787D01*
X183346292Y-114558518D01*
X183471708Y-114486110D01*
X183574110Y-114383708D01*
X183646518Y-114258292D01*
X183657787Y-114216234D01*
X184356658Y-114915105D01*
X184356658Y-114915104D01*
X184416914Y-114832169D01*
X184416918Y-114832163D01*
X184524102Y-114621802D01*
X184597065Y-114397247D01*
X184634000Y-114164052D01*
X184634000Y-113927947D01*
X184597065Y-113694752D01*
X184524102Y-113470197D01*
X184416914Y-113259828D01*
X184356658Y-113176894D01*
X184356658Y-113176893D01*
X183657787Y-113875765D01*
X183646518Y-113833708D01*
X183574110Y-113708292D01*
X183471708Y-113605890D01*
X183346292Y-113533482D01*
X183304233Y-113522212D01*
X184003104Y-112823340D01*
X184000144Y-112785735D01*
X184000144Y-112766275D01*
X184003104Y-112728657D01*
X183304233Y-112029787D01*
X183346292Y-112018518D01*
X183471708Y-111946110D01*
X183574110Y-111843708D01*
X183646518Y-111718292D01*
X183657787Y-111676234D01*
X184356658Y-112375105D01*
X184356658Y-112375104D01*
X184416914Y-112292169D01*
X184416918Y-112292163D01*
X184524102Y-112081802D01*
X184597065Y-111857247D01*
X184634000Y-111624052D01*
X184634000Y-111387947D01*
X184597065Y-111154752D01*
X184524102Y-110930197D01*
X184416914Y-110719828D01*
X184356658Y-110636894D01*
X184356658Y-110636893D01*
X183657787Y-111335765D01*
X183646518Y-111293708D01*
X183574110Y-111168292D01*
X183471708Y-111065890D01*
X183346292Y-110993482D01*
X183304233Y-110982212D01*
X184003104Y-110283340D01*
X184000144Y-110245735D01*
X184000144Y-110226275D01*
X184003104Y-110188657D01*
X183304233Y-109489787D01*
X183346292Y-109478518D01*
X183471708Y-109406110D01*
X183574110Y-109303708D01*
X183646518Y-109178292D01*
X183657787Y-109136234D01*
X184356658Y-109835105D01*
X184356658Y-109835104D01*
X184416914Y-109752169D01*
X184416918Y-109752163D01*
X184524102Y-109541802D01*
X184597065Y-109317247D01*
X184634000Y-109084052D01*
X184634000Y-108847947D01*
X184597065Y-108614752D01*
X184524102Y-108390197D01*
X184416914Y-108179828D01*
X184356658Y-108096894D01*
X184356658Y-108096893D01*
X183657787Y-108795765D01*
X183646518Y-108753708D01*
X183574110Y-108628292D01*
X183471708Y-108525890D01*
X183346292Y-108453482D01*
X183304233Y-108442212D01*
X184003104Y-107743340D01*
X184000144Y-107705735D01*
X184000144Y-107686275D01*
X184003104Y-107648657D01*
X183304233Y-106949787D01*
X183346292Y-106938518D01*
X183471708Y-106866110D01*
X183574110Y-106763708D01*
X183646518Y-106638292D01*
X183657787Y-106596234D01*
X184356658Y-107295105D01*
X184356658Y-107295104D01*
X184416914Y-107212169D01*
X184416918Y-107212163D01*
X184524102Y-107001802D01*
X184597065Y-106777247D01*
X184634000Y-106544052D01*
X184634000Y-106307947D01*
X184597065Y-106074752D01*
X184524102Y-105850197D01*
X184416914Y-105639828D01*
X184356658Y-105556894D01*
X184356658Y-105556893D01*
X183657787Y-106255765D01*
X183646518Y-106213708D01*
X183574110Y-106088292D01*
X183471708Y-105985890D01*
X183346292Y-105913482D01*
X183304233Y-105902212D01*
X184003104Y-105203340D01*
X184000144Y-105165735D01*
X184000144Y-105146275D01*
X184003104Y-105108657D01*
X183304233Y-104409787D01*
X183346292Y-104398518D01*
X183471708Y-104326110D01*
X183574110Y-104223708D01*
X183646518Y-104098292D01*
X183657787Y-104056234D01*
X184356658Y-104755105D01*
X184356658Y-104755104D01*
X184416914Y-104672169D01*
X184416918Y-104672163D01*
X184524102Y-104461802D01*
X184597065Y-104237247D01*
X184634000Y-104004052D01*
X184634000Y-103767947D01*
X184597065Y-103534752D01*
X184524102Y-103310197D01*
X184416914Y-103099828D01*
X184356658Y-103016894D01*
X184356658Y-103016893D01*
X183657787Y-103715765D01*
X183646518Y-103673708D01*
X183574110Y-103548292D01*
X183471708Y-103445890D01*
X183346292Y-103373482D01*
X183304233Y-103362212D01*
X184003104Y-102663340D01*
X184000144Y-102625735D01*
X184000144Y-102606275D01*
X184003104Y-102568657D01*
X183304233Y-101869787D01*
X183346292Y-101858518D01*
X183471708Y-101786110D01*
X183574110Y-101683708D01*
X183646518Y-101558292D01*
X183657787Y-101516234D01*
X184356658Y-102215105D01*
X184356658Y-102215104D01*
X184416914Y-102132169D01*
X184416918Y-102132163D01*
X184524102Y-101921802D01*
X184597065Y-101697247D01*
X184634000Y-101464052D01*
X184634000Y-101227947D01*
X184597065Y-100994752D01*
X184524102Y-100770197D01*
X184416914Y-100559828D01*
X184356658Y-100476894D01*
X184356658Y-100476893D01*
X183657787Y-101175765D01*
X183646518Y-101133708D01*
X183574110Y-101008292D01*
X183471708Y-100905890D01*
X183346292Y-100833482D01*
X183304233Y-100822212D01*
X184003104Y-100123340D01*
X184000144Y-100085735D01*
X184000144Y-100066275D01*
X184003104Y-100028657D01*
X183304233Y-99329787D01*
X183346292Y-99318518D01*
X183471708Y-99246110D01*
X183574110Y-99143708D01*
X183646518Y-99018292D01*
X183657787Y-98976234D01*
X184356658Y-99675105D01*
X184356658Y-99675104D01*
X184416914Y-99592169D01*
X184416918Y-99592163D01*
X184524102Y-99381802D01*
X184597065Y-99157247D01*
X184634000Y-98924052D01*
X184634000Y-98687947D01*
X184597065Y-98454752D01*
X184524102Y-98230197D01*
X184416914Y-98019828D01*
X184356658Y-97936894D01*
X184356658Y-97936893D01*
X183657787Y-98635765D01*
X183646518Y-98593708D01*
X183574110Y-98468292D01*
X183471708Y-98365890D01*
X183346292Y-98293482D01*
X183304233Y-98282212D01*
X184003104Y-97583340D01*
X184000144Y-97545735D01*
X184000144Y-97526275D01*
X184003104Y-97488657D01*
X183304233Y-96789787D01*
X183346292Y-96778518D01*
X183471708Y-96706110D01*
X183574110Y-96603708D01*
X183646518Y-96478292D01*
X183657787Y-96436234D01*
X184356658Y-97135105D01*
X184356658Y-97135104D01*
X184416914Y-97052169D01*
X184416918Y-97052163D01*
X184524102Y-96841802D01*
X184597065Y-96617247D01*
X184634000Y-96384052D01*
X184634000Y-96147947D01*
X184597065Y-95914752D01*
X184524102Y-95690197D01*
X184416914Y-95479828D01*
X184356658Y-95396894D01*
X184356658Y-95396893D01*
X183657787Y-96095765D01*
X183646518Y-96053708D01*
X183574110Y-95928292D01*
X183471708Y-95825890D01*
X183346292Y-95753482D01*
X183304233Y-95742212D01*
X184003104Y-95043340D01*
X184000144Y-95005735D01*
X184000144Y-94986275D01*
X184003104Y-94948657D01*
X183304233Y-94249787D01*
X183346292Y-94238518D01*
X183471708Y-94166110D01*
X183574110Y-94063708D01*
X183646518Y-93938292D01*
X183657787Y-93896234D01*
X184356658Y-94595105D01*
X184356658Y-94595104D01*
X184416914Y-94512169D01*
X184416918Y-94512163D01*
X184524102Y-94301802D01*
X184597065Y-94077247D01*
X184634000Y-93844052D01*
X184634000Y-93607947D01*
X184597065Y-93374752D01*
X184524102Y-93150197D01*
X184416914Y-92939828D01*
X184356658Y-92856894D01*
X184356658Y-92856893D01*
X183657787Y-93555765D01*
X183646518Y-93513708D01*
X183574110Y-93388292D01*
X183471708Y-93285890D01*
X183346292Y-93213482D01*
X183304234Y-93202212D01*
X184003105Y-92503340D01*
X184001551Y-92483594D01*
X184015915Y-92415216D01*
X184052284Y-92373547D01*
X184111510Y-92330517D01*
X184278517Y-92163510D01*
X184417343Y-91972433D01*
X184524568Y-91761992D01*
X184597553Y-91537368D01*
X184601277Y-91513853D01*
X184634500Y-91304097D01*
X184634500Y-91067902D01*
X184597553Y-90834631D01*
X184524566Y-90610003D01*
X184417342Y-90399566D01*
X184398443Y-90373554D01*
X184278517Y-90208490D01*
X184111510Y-90041483D01*
X183920433Y-89902657D01*
X183918951Y-89901902D01*
X183709996Y-89795433D01*
X183485368Y-89722446D01*
X183252097Y-89685500D01*
X183252092Y-89685500D01*
X183015908Y-89685500D01*
X183015903Y-89685500D01*
X182782631Y-89722446D01*
X182558003Y-89795433D01*
X182347566Y-89902657D01*
X182238550Y-89981862D01*
X182156490Y-90041483D01*
X182156488Y-90041485D01*
X182156487Y-90041485D01*
X181989484Y-90208488D01*
X181964318Y-90243127D01*
X181908987Y-90285792D01*
X181839374Y-90291771D01*
X181777579Y-90259165D01*
X181763682Y-90243127D01*
X181755810Y-90232292D01*
X181738517Y-90208490D01*
X181571510Y-90041483D01*
X181380433Y-89902657D01*
X181378951Y-89901902D01*
X181169996Y-89795433D01*
X180945368Y-89722446D01*
X180712097Y-89685500D01*
X180712092Y-89685500D01*
X180475908Y-89685500D01*
X180475903Y-89685500D01*
X180242631Y-89722446D01*
X180018003Y-89795433D01*
X179807566Y-89902657D01*
X179698550Y-89981862D01*
X179616490Y-90041483D01*
X179616488Y-90041485D01*
X179616487Y-90041485D01*
X179449485Y-90208487D01*
X179449485Y-90208488D01*
X179449483Y-90208490D01*
X179393320Y-90285792D01*
X179310657Y-90399566D01*
X179203433Y-90610003D01*
X179130446Y-90834631D01*
X179093500Y-91067902D01*
X147999617Y-91067902D01*
X148063557Y-90942412D01*
X148129246Y-90740243D01*
X148162500Y-90530287D01*
X148162500Y-90317713D01*
X148129246Y-90107757D01*
X148063557Y-89905588D01*
X147967051Y-89716184D01*
X147967049Y-89716181D01*
X147967048Y-89716179D01*
X147842109Y-89544213D01*
X147691786Y-89393890D01*
X147519820Y-89268951D01*
X147330414Y-89172444D01*
X147330413Y-89172443D01*
X147330412Y-89172443D01*
X147128243Y-89106754D01*
X147128241Y-89106753D01*
X147128240Y-89106753D01*
X146966957Y-89081208D01*
X146918287Y-89073500D01*
X146705713Y-89073500D01*
X146657042Y-89081208D01*
X146495760Y-89106753D01*
X146293585Y-89172444D01*
X146104179Y-89268951D01*
X145932213Y-89393890D01*
X145781890Y-89544213D01*
X145656951Y-89716179D01*
X145560444Y-89905585D01*
X145494753Y-90107760D01*
X145478799Y-90208490D01*
X145461500Y-90317713D01*
X142442051Y-90317713D01*
X142453864Y-90243127D01*
X142470500Y-90138097D01*
X142470500Y-89901902D01*
X142433553Y-89668631D01*
X142360566Y-89444003D01*
X142253477Y-89233830D01*
X142253343Y-89233567D01*
X142114517Y-89042490D01*
X141947510Y-88875483D01*
X141756433Y-88736657D01*
X141545996Y-88629433D01*
X141321368Y-88556446D01*
X141088097Y-88519500D01*
X141088092Y-88519500D01*
X140851908Y-88519500D01*
X140851903Y-88519500D01*
X140618631Y-88556446D01*
X140394003Y-88629433D01*
X140183566Y-88736657D01*
X140100047Y-88797338D01*
X139992490Y-88875483D01*
X139992488Y-88875485D01*
X139992487Y-88875485D01*
X139825485Y-89042487D01*
X139825485Y-89042488D01*
X139825483Y-89042490D01*
X139802953Y-89073500D01*
X139686657Y-89233566D01*
X139579433Y-89444003D01*
X139506446Y-89668631D01*
X139469500Y-89901902D01*
X137969993Y-89901902D01*
X137933065Y-89668752D01*
X137860102Y-89444197D01*
X137752914Y-89233828D01*
X137692658Y-89150894D01*
X137692658Y-89150893D01*
X136993787Y-89849765D01*
X136982518Y-89807708D01*
X136910110Y-89682292D01*
X136807708Y-89579890D01*
X136682292Y-89507482D01*
X136640234Y-89496212D01*
X137339105Y-88797340D01*
X137339104Y-88797338D01*
X137256174Y-88737087D01*
X137045802Y-88629897D01*
X136821247Y-88556934D01*
X136821248Y-88556934D01*
X136588052Y-88520000D01*
X136351948Y-88520000D01*
X136118752Y-88556934D01*
X135894197Y-88629897D01*
X135683830Y-88737084D01*
X135600894Y-88797340D01*
X136299766Y-89496212D01*
X136257708Y-89507482D01*
X136132292Y-89579890D01*
X136029890Y-89682292D01*
X135957482Y-89807708D01*
X135946212Y-89849766D01*
X135247340Y-89150894D01*
X135187084Y-89233830D01*
X135079897Y-89444197D01*
X135006934Y-89668752D01*
X134970000Y-89901947D01*
X118610500Y-89901947D01*
X118610500Y-86815653D01*
X134555000Y-86815653D01*
X134555000Y-86973346D01*
X134585761Y-87127989D01*
X134585764Y-87128001D01*
X134646102Y-87273672D01*
X134646109Y-87273685D01*
X134733710Y-87404788D01*
X134733713Y-87404792D01*
X134845207Y-87516286D01*
X134845211Y-87516289D01*
X134976314Y-87603890D01*
X134976327Y-87603897D01*
X135121998Y-87664235D01*
X135122003Y-87664237D01*
X135276653Y-87694999D01*
X135276656Y-87695000D01*
X135276658Y-87695000D01*
X135434344Y-87695000D01*
X135434345Y-87694999D01*
X135588997Y-87664237D01*
X135689047Y-87622794D01*
X135758517Y-87615326D01*
X135783950Y-87622794D01*
X135884003Y-87664237D01*
X136038653Y-87694999D01*
X136038656Y-87695000D01*
X136038658Y-87695000D01*
X136196344Y-87695000D01*
X136196345Y-87694999D01*
X136350997Y-87664237D01*
X136496679Y-87603894D01*
X136627789Y-87516289D01*
X136739289Y-87404789D01*
X136826894Y-87273679D01*
X136887237Y-87127997D01*
X136918000Y-86973342D01*
X136918000Y-86815658D01*
X136918000Y-86815655D01*
X136917999Y-86815653D01*
X136887238Y-86661010D01*
X136887237Y-86661003D01*
X136887235Y-86660998D01*
X136826897Y-86515327D01*
X136826890Y-86515314D01*
X136739289Y-86384211D01*
X136739286Y-86384207D01*
X136627792Y-86272713D01*
X136627788Y-86272710D01*
X136496685Y-86185109D01*
X136496672Y-86185102D01*
X136351001Y-86124764D01*
X136350989Y-86124761D01*
X136196345Y-86094000D01*
X136196342Y-86094000D01*
X136038658Y-86094000D01*
X136038655Y-86094000D01*
X135884010Y-86124761D01*
X135884002Y-86124763D01*
X135821528Y-86150640D01*
X135783952Y-86166205D01*
X135714483Y-86173674D01*
X135689049Y-86166205D01*
X135588997Y-86124763D01*
X135588989Y-86124761D01*
X135434345Y-86094000D01*
X135434342Y-86094000D01*
X135276658Y-86094000D01*
X135276655Y-86094000D01*
X135122010Y-86124761D01*
X135121998Y-86124764D01*
X134976327Y-86185102D01*
X134976314Y-86185109D01*
X134845211Y-86272710D01*
X134845207Y-86272713D01*
X134733713Y-86384207D01*
X134733710Y-86384211D01*
X134646109Y-86515314D01*
X134646102Y-86515327D01*
X134585764Y-86660998D01*
X134585761Y-86661010D01*
X134555000Y-86815653D01*
X118610500Y-86815653D01*
X118610500Y-77391153D01*
X183349500Y-77391153D01*
X183349500Y-77548846D01*
X183380261Y-77703489D01*
X183380264Y-77703501D01*
X183440602Y-77849172D01*
X183440609Y-77849185D01*
X183528210Y-77980288D01*
X183528213Y-77980292D01*
X183639707Y-78091786D01*
X183639711Y-78091789D01*
X183770814Y-78179390D01*
X183770827Y-78179397D01*
X183916498Y-78239735D01*
X183916503Y-78239737D01*
X184071153Y-78270499D01*
X184071156Y-78270500D01*
X184071158Y-78270500D01*
X184228844Y-78270500D01*
X184228845Y-78270499D01*
X184383497Y-78239737D01*
X184529179Y-78179394D01*
X184660289Y-78091789D01*
X184771789Y-77980289D01*
X184859394Y-77849179D01*
X184919737Y-77703497D01*
X184950500Y-77548842D01*
X184950500Y-77391158D01*
X184950500Y-77391155D01*
X184950499Y-77391153D01*
X184919738Y-77236510D01*
X184919737Y-77236503D01*
X184919735Y-77236498D01*
X184859397Y-77090827D01*
X184859390Y-77090814D01*
X184771789Y-76959711D01*
X184771786Y-76959707D01*
X184660292Y-76848213D01*
X184660288Y-76848210D01*
X184529185Y-76760609D01*
X184529172Y-76760602D01*
X184383501Y-76700264D01*
X184383489Y-76700261D01*
X184228845Y-76669500D01*
X184228842Y-76669500D01*
X184071158Y-76669500D01*
X184071155Y-76669500D01*
X183916510Y-76700261D01*
X183916498Y-76700264D01*
X183770827Y-76760602D01*
X183770814Y-76760609D01*
X183639711Y-76848210D01*
X183639707Y-76848213D01*
X183528213Y-76959707D01*
X183528210Y-76959711D01*
X183440609Y-77090814D01*
X183440602Y-77090827D01*
X183380264Y-77236498D01*
X183380261Y-77236510D01*
X183349500Y-77391153D01*
X118610500Y-77391153D01*
X118610500Y-75029427D01*
X118610816Y-75020581D01*
X118625130Y-74820443D01*
X118625131Y-74820434D01*
X118627646Y-74802938D01*
X118669356Y-74611199D01*
X118674333Y-74594248D01*
X118742911Y-74410385D01*
X118750259Y-74394298D01*
X118812815Y-74279734D01*
X118844291Y-74222089D01*
X118853845Y-74207221D01*
X118971448Y-74050123D01*
X118983020Y-74036769D01*
X119121769Y-73898020D01*
X119135123Y-73886448D01*
X119292221Y-73768845D01*
X119307089Y-73759291D01*
X119479298Y-73665258D01*
X119495385Y-73657911D01*
X119679248Y-73589333D01*
X119696199Y-73584356D01*
X119887938Y-73542646D01*
X119905436Y-73540130D01*
X120105582Y-73525816D01*
X120114428Y-73525500D01*
X120175892Y-73525500D01*
X185894108Y-73525500D01*
X185955572Y-73525500D01*
X185964418Y-73525816D01*
G37*
G04 #@! TD.AperFunction*
M02*
