G04 #@! TF.GenerationSoftware,KiCad,Pcbnew,9.0.0*
G04 #@! TF.CreationDate,2025-08-17T11:06:40-05:00*
G04 #@! TF.ProjectId,silver-platter,73696c76-6572-42d7-906c-61747465722e,rev?*
G04 #@! TF.SameCoordinates,Original*
G04 #@! TF.FileFunction,Copper,L4,Bot*
G04 #@! TF.FilePolarity,Positive*
%FSLAX46Y46*%
G04 Gerber Fmt 4.6, Leading zero omitted, Abs format (unit mm)*
G04 Created by KiCad (PCBNEW 9.0.0) date 2025-08-17 11:06:40*
%MOMM*%
%LPD*%
G01*
G04 APERTURE LIST*
G04 #@! TA.AperFunction,ComponentPad*
%ADD10C,2.000000*%
G04 #@! TD*
G04 #@! TA.AperFunction,ComponentPad*
%ADD11R,1.700000X1.700000*%
G04 #@! TD*
G04 #@! TA.AperFunction,ComponentPad*
%ADD12O,1.700000X1.700000*%
G04 #@! TD*
G04 #@! TA.AperFunction,ViaPad*
%ADD13C,0.600000*%
G04 #@! TD*
G04 #@! TA.AperFunction,Conductor*
%ADD14C,0.250000*%
G04 #@! TD*
G04 APERTURE END LIST*
D10*
X136470000Y-96520000D03*
X136470000Y-90020000D03*
X140970000Y-96520000D03*
X140970000Y-90020000D03*
X180594000Y-91186000D03*
X183134000Y-91186000D03*
X180594000Y-93726000D03*
X183134000Y-93726000D03*
X180594000Y-96266000D03*
X183134000Y-96266000D03*
X180594000Y-98806000D03*
X183134000Y-98806000D03*
X180594000Y-101346000D03*
X183134000Y-101346000D03*
X180594000Y-103886000D03*
X183134000Y-103886000D03*
X180594000Y-106426000D03*
X183134000Y-106426000D03*
X180594000Y-108966000D03*
X183134000Y-108966000D03*
X180594000Y-111506000D03*
X183134000Y-111506000D03*
X180594000Y-114046000D03*
X183134000Y-114046000D03*
D11*
X175260000Y-122682000D03*
D12*
X177800000Y-122682000D03*
X180340000Y-122682000D03*
X182880000Y-122682000D03*
D11*
X146812000Y-92964000D03*
D12*
X146812000Y-90424000D03*
D13*
X143510000Y-94488000D03*
X133350000Y-121920000D03*
X147881000Y-98298000D03*
X150876000Y-114554000D03*
X144272000Y-110744000D03*
X158750000Y-101346000D03*
X168148000Y-96012000D03*
X137668000Y-100483500D03*
X157633500Y-113030000D03*
X142494000Y-102870000D03*
X144526000Y-102870000D03*
X142494000Y-107087500D03*
X153767000Y-87000000D03*
X132307500Y-78766500D03*
X149151000Y-114554000D03*
X149606000Y-93980000D03*
X144526000Y-101145000D03*
X132541000Y-112014000D03*
X169545000Y-90805000D03*
X173736000Y-102616000D03*
X153977000Y-114554000D03*
X184150000Y-83312000D03*
X142494000Y-101145000D03*
X137160000Y-109855000D03*
X173736000Y-96012000D03*
X144526000Y-107087500D03*
X158750000Y-99621000D03*
X185928000Y-102616000D03*
X173736000Y-99314000D03*
X120015000Y-99695000D03*
X127635000Y-121920000D03*
X166370000Y-77470000D03*
X186182000Y-122682000D03*
X139954000Y-107542500D03*
X135890000Y-104140000D03*
X135128000Y-104140000D03*
X172085000Y-119380000D03*
X126365000Y-89535000D03*
X149606000Y-98298000D03*
X152400000Y-77470000D03*
X131545500Y-78766500D03*
X162500000Y-87000000D03*
X152400000Y-121920000D03*
X158182000Y-87000000D03*
X159358500Y-113030000D03*
X173355000Y-111760000D03*
X121920000Y-121920000D03*
X180340000Y-77470000D03*
X160528000Y-101653000D03*
X153162000Y-106426000D03*
X170434000Y-107950000D03*
X121920000Y-106680000D03*
X136117500Y-86894500D03*
X131826000Y-100536500D03*
X184150000Y-77470000D03*
X135355500Y-86894500D03*
X133615000Y-103023500D03*
X163322000Y-106172000D03*
X164338000Y-104394000D03*
X174752000Y-101346000D03*
X161290000Y-98298000D03*
X170434000Y-105410000D03*
X153162000Y-102870000D03*
D14*
X153162000Y-106426000D02*
X154686000Y-107950000D01*
X154686000Y-107950000D02*
X170434000Y-107950000D01*
X164338000Y-104394000D02*
X163322000Y-105410000D01*
X163322000Y-105410000D02*
X163322000Y-106172000D01*
X174752000Y-101346000D02*
X164338000Y-101346000D01*
X164338000Y-101346000D02*
X161290000Y-98298000D01*
X167894000Y-102870000D02*
X170434000Y-105410000D01*
X153162000Y-102870000D02*
X167894000Y-102870000D01*
G04 #@! TA.AperFunction,Conductor*
G36*
X185968863Y-73526134D02*
G01*
X185996639Y-73528120D01*
X186155645Y-73539493D01*
X186190793Y-73544546D01*
X186365064Y-73582456D01*
X186399143Y-73592463D01*
X186566228Y-73654783D01*
X186598542Y-73669540D01*
X186755062Y-73755006D01*
X186784947Y-73774212D01*
X186927703Y-73881078D01*
X186954553Y-73904343D01*
X187080656Y-74030446D01*
X187103921Y-74057296D01*
X187210787Y-74200052D01*
X187229995Y-74229940D01*
X187315459Y-74386457D01*
X187330216Y-74418771D01*
X187392534Y-74585850D01*
X187402544Y-74619939D01*
X187440451Y-74794195D01*
X187445507Y-74829360D01*
X187458866Y-75016135D01*
X187459500Y-75033899D01*
X187459500Y-124991100D01*
X187458866Y-125008863D01*
X187458866Y-125008864D01*
X187445507Y-125195639D01*
X187440451Y-125230804D01*
X187402544Y-125405060D01*
X187392534Y-125439149D01*
X187330216Y-125606228D01*
X187315459Y-125638542D01*
X187229995Y-125795059D01*
X187210787Y-125824947D01*
X187103921Y-125967703D01*
X187080656Y-125994553D01*
X186954553Y-126120656D01*
X186927703Y-126143921D01*
X186784947Y-126250787D01*
X186755059Y-126269995D01*
X186598542Y-126355459D01*
X186566228Y-126370216D01*
X186399149Y-126432534D01*
X186365060Y-126442544D01*
X186190804Y-126480451D01*
X186155639Y-126485507D01*
X185968864Y-126498866D01*
X185951100Y-126499500D01*
X120118900Y-126499500D01*
X120101136Y-126498866D01*
X119914360Y-126485507D01*
X119879195Y-126480451D01*
X119704939Y-126442544D01*
X119670850Y-126432534D01*
X119503771Y-126370216D01*
X119471457Y-126355459D01*
X119314940Y-126269995D01*
X119285052Y-126250787D01*
X119142296Y-126143921D01*
X119115446Y-126120656D01*
X118989343Y-125994553D01*
X118966078Y-125967703D01*
X118859212Y-125824947D01*
X118840004Y-125795059D01*
X118754540Y-125638542D01*
X118739783Y-125606228D01*
X118677465Y-125439149D01*
X118667455Y-125405060D01*
X118629546Y-125230793D01*
X118624493Y-125195645D01*
X118611134Y-125008863D01*
X118610500Y-124991100D01*
X118610500Y-121817638D01*
X132049500Y-121817638D01*
X132049500Y-122022361D01*
X132081522Y-122224531D01*
X132144778Y-122419214D01*
X132144782Y-122419224D01*
X132216874Y-122560712D01*
X132237713Y-122601610D01*
X132358034Y-122767219D01*
X132502781Y-122911966D01*
X132668390Y-123032287D01*
X132850781Y-123125220D01*
X133045466Y-123188477D01*
X133116575Y-123199739D01*
X133247638Y-123220499D01*
X133247645Y-123220499D01*
X133247648Y-123220500D01*
X133247651Y-123220500D01*
X133452349Y-123220500D01*
X133452352Y-123220500D01*
X133452355Y-123220499D01*
X133452361Y-123220499D01*
X133547870Y-123205371D01*
X133654534Y-123188477D01*
X133849219Y-123125220D01*
X134031610Y-123032287D01*
X134197219Y-122911966D01*
X134341966Y-122767219D01*
X134462287Y-122601610D01*
X134555220Y-122419219D01*
X134618477Y-122224534D01*
X134650500Y-122022352D01*
X134650500Y-121817648D01*
X134650499Y-121817645D01*
X134650499Y-121817638D01*
X134648876Y-121807390D01*
X134648876Y-121807389D01*
X134643582Y-121773963D01*
X173409500Y-121773963D01*
X173409500Y-123590031D01*
X173409501Y-123590043D01*
X173420113Y-123709414D01*
X173420113Y-123709417D01*
X173420114Y-123709418D01*
X173420936Y-123712289D01*
X173476090Y-123905045D01*
X173476093Y-123905053D01*
X173565526Y-124076265D01*
X173570302Y-124085407D01*
X173698891Y-124243109D01*
X173856593Y-124371698D01*
X174036951Y-124465909D01*
X174232582Y-124521886D01*
X174351963Y-124532500D01*
X176168036Y-124532499D01*
X176287418Y-124521886D01*
X176483049Y-124465909D01*
X176663407Y-124371698D01*
X176680453Y-124357797D01*
X176766278Y-124312269D01*
X176862995Y-124303050D01*
X176955877Y-124331544D01*
X176962265Y-124335107D01*
X176979788Y-124345224D01*
X176979789Y-124345224D01*
X176979792Y-124345226D01*
X176979800Y-124345230D01*
X177129196Y-124407110D01*
X177203900Y-124438054D01*
X177203911Y-124438057D01*
X177203917Y-124438059D01*
X177307855Y-124465909D01*
X177438211Y-124500838D01*
X177678712Y-124532500D01*
X177921288Y-124532500D01*
X178161789Y-124500838D01*
X178323275Y-124457567D01*
X178396082Y-124438059D01*
X178396084Y-124438058D01*
X178396100Y-124438054D01*
X178556305Y-124371695D01*
X178620201Y-124345229D01*
X178620206Y-124345226D01*
X178620212Y-124345224D01*
X178830289Y-124223936D01*
X178918423Y-124156308D01*
X179005554Y-124113341D01*
X179102501Y-124106986D01*
X179194500Y-124138216D01*
X179221568Y-124156301D01*
X179309711Y-124223936D01*
X179353568Y-124249257D01*
X179519782Y-124345221D01*
X179519798Y-124345229D01*
X179659858Y-124403242D01*
X179743900Y-124438054D01*
X179743911Y-124438057D01*
X179743917Y-124438059D01*
X179847855Y-124465909D01*
X179978211Y-124500838D01*
X180218712Y-124532500D01*
X180461288Y-124532500D01*
X180701789Y-124500838D01*
X180863275Y-124457567D01*
X180936082Y-124438059D01*
X180936084Y-124438058D01*
X180936100Y-124438054D01*
X181096305Y-124371695D01*
X181160201Y-124345229D01*
X181160206Y-124345226D01*
X181160212Y-124345224D01*
X181370289Y-124223936D01*
X181458830Y-124155995D01*
X181545965Y-124113025D01*
X181642912Y-124106671D01*
X181734911Y-124137901D01*
X181761992Y-124155995D01*
X181849999Y-124223524D01*
X182060004Y-124344771D01*
X182060020Y-124344779D01*
X182284055Y-124437576D01*
X182284064Y-124437579D01*
X182518313Y-124500346D01*
X182758745Y-124532000D01*
X183001255Y-124532000D01*
X183241686Y-124500346D01*
X183475935Y-124437579D01*
X183475944Y-124437576D01*
X183699979Y-124344779D01*
X183699995Y-124344771D01*
X183910000Y-124223524D01*
X183910010Y-124223518D01*
X184102400Y-124075893D01*
X184102410Y-124075884D01*
X184273884Y-123904410D01*
X184273893Y-123904400D01*
X184421518Y-123712010D01*
X184421524Y-123712000D01*
X184542771Y-123501995D01*
X184542779Y-123501979D01*
X184635576Y-123277944D01*
X184635579Y-123277935D01*
X184698346Y-123043686D01*
X184730000Y-122803254D01*
X184730000Y-122560745D01*
X184698346Y-122320313D01*
X184635579Y-122086064D01*
X184635576Y-122086055D01*
X184542779Y-121862020D01*
X184542771Y-121862004D01*
X184421524Y-121651999D01*
X184421518Y-121651989D01*
X184273893Y-121459599D01*
X184273884Y-121459589D01*
X184102410Y-121288115D01*
X184102400Y-121288106D01*
X183910010Y-121140481D01*
X183910000Y-121140475D01*
X183699995Y-121019228D01*
X183699979Y-121019220D01*
X183475944Y-120926423D01*
X183475935Y-120926420D01*
X183241686Y-120863653D01*
X183001255Y-120832000D01*
X182758745Y-120832000D01*
X182518313Y-120863653D01*
X182284064Y-120926420D01*
X182284055Y-120926423D01*
X182060020Y-121019220D01*
X182060004Y-121019228D01*
X181850000Y-121140474D01*
X181761991Y-121208005D01*
X181674854Y-121250974D01*
X181577907Y-121257327D01*
X181485909Y-121226097D01*
X181458831Y-121208004D01*
X181370832Y-121140481D01*
X181370289Y-121140064D01*
X181337084Y-121120893D01*
X181160217Y-121018778D01*
X181160201Y-121018770D01*
X180936105Y-120925948D01*
X180936103Y-120925947D01*
X180936100Y-120925946D01*
X180936096Y-120925945D01*
X180936082Y-120925940D01*
X180701795Y-120863163D01*
X180701790Y-120863162D01*
X180461288Y-120831500D01*
X180218712Y-120831500D01*
X179978209Y-120863162D01*
X179978204Y-120863163D01*
X179743917Y-120925940D01*
X179743894Y-120925948D01*
X179519798Y-121018770D01*
X179519782Y-121018778D01*
X179309720Y-121140058D01*
X179309715Y-121140061D01*
X179309711Y-121140064D01*
X179221578Y-121207690D01*
X179134445Y-121250659D01*
X179037498Y-121257013D01*
X178945499Y-121225783D01*
X178918425Y-121207693D01*
X178830289Y-121140064D01*
X178797084Y-121120893D01*
X178620217Y-121018778D01*
X178620201Y-121018770D01*
X178396105Y-120925948D01*
X178396103Y-120925947D01*
X178396100Y-120925946D01*
X178396096Y-120925945D01*
X178396082Y-120925940D01*
X178161795Y-120863163D01*
X178161790Y-120863162D01*
X177921288Y-120831500D01*
X177678712Y-120831500D01*
X177438209Y-120863162D01*
X177438204Y-120863163D01*
X177203917Y-120925940D01*
X177203894Y-120925948D01*
X176979789Y-121018774D01*
X176979781Y-121018778D01*
X176962303Y-121028869D01*
X176870303Y-121060096D01*
X176773357Y-121053739D01*
X176686222Y-121010765D01*
X176680456Y-121006203D01*
X176663413Y-120992306D01*
X176663402Y-120992299D01*
X176483053Y-120898093D01*
X176483052Y-120898092D01*
X176483049Y-120898091D01*
X176287418Y-120842114D01*
X176168037Y-120831500D01*
X176168035Y-120831500D01*
X174351968Y-120831500D01*
X174351956Y-120831501D01*
X174232585Y-120842113D01*
X174036954Y-120898090D01*
X174036946Y-120898093D01*
X173856597Y-120992299D01*
X173856592Y-120992302D01*
X173698893Y-121120889D01*
X173698889Y-121120893D01*
X173570302Y-121278592D01*
X173570299Y-121278597D01*
X173476093Y-121458946D01*
X173476090Y-121458954D01*
X173420115Y-121654578D01*
X173420114Y-121654582D01*
X173409500Y-121773963D01*
X134643582Y-121773963D01*
X134618477Y-121615467D01*
X134567832Y-121459599D01*
X134555220Y-121420781D01*
X134462287Y-121238390D01*
X134341966Y-121072781D01*
X134197219Y-120928034D01*
X134031610Y-120807713D01*
X134031609Y-120807712D01*
X134031607Y-120807711D01*
X133849224Y-120714782D01*
X133849214Y-120714778D01*
X133654531Y-120651522D01*
X133452361Y-120619500D01*
X133452352Y-120619500D01*
X133247648Y-120619500D01*
X133247638Y-120619500D01*
X133045468Y-120651522D01*
X132850785Y-120714778D01*
X132850775Y-120714782D01*
X132668392Y-120807711D01*
X132502779Y-120928035D01*
X132358035Y-121072779D01*
X132237711Y-121238392D01*
X132144782Y-121420775D01*
X132144778Y-121420785D01*
X132081522Y-121615468D01*
X132049500Y-121817638D01*
X118610500Y-121817638D01*
X118610500Y-114451638D01*
X149575500Y-114451638D01*
X149575500Y-114656361D01*
X149607522Y-114858531D01*
X149670778Y-115053214D01*
X149670782Y-115053224D01*
X149763711Y-115235607D01*
X149763713Y-115235610D01*
X149884034Y-115401219D01*
X150028781Y-115545966D01*
X150194390Y-115666287D01*
X150194392Y-115666288D01*
X150285111Y-115712512D01*
X150376781Y-115759220D01*
X150571466Y-115822477D01*
X150642575Y-115833739D01*
X150773638Y-115854499D01*
X150773645Y-115854499D01*
X150773648Y-115854500D01*
X150773651Y-115854500D01*
X150978349Y-115854500D01*
X150978352Y-115854500D01*
X150978355Y-115854499D01*
X150978361Y-115854499D01*
X151073870Y-115839371D01*
X151180534Y-115822477D01*
X151375219Y-115759220D01*
X151557610Y-115666287D01*
X151723219Y-115545966D01*
X151867966Y-115401219D01*
X151988287Y-115235610D01*
X152081220Y-115053219D01*
X152144477Y-114858534D01*
X152161371Y-114751870D01*
X152176499Y-114656361D01*
X152176500Y-114656349D01*
X152176500Y-114451650D01*
X152176499Y-114451638D01*
X152144477Y-114249468D01*
X152144477Y-114249466D01*
X152081220Y-114054781D01*
X151988287Y-113872390D01*
X151867966Y-113706781D01*
X151723219Y-113562034D01*
X151557610Y-113441713D01*
X151557609Y-113441712D01*
X151557607Y-113441711D01*
X151375224Y-113348782D01*
X151375214Y-113348778D01*
X151180531Y-113285522D01*
X150978361Y-113253500D01*
X150978352Y-113253500D01*
X150773648Y-113253500D01*
X150773638Y-113253500D01*
X150571468Y-113285522D01*
X150376785Y-113348778D01*
X150376775Y-113348782D01*
X150194392Y-113441711D01*
X150028779Y-113562035D01*
X149884035Y-113706779D01*
X149763711Y-113872392D01*
X149670782Y-114054775D01*
X149670778Y-114054785D01*
X149607522Y-114249468D01*
X149575500Y-114451638D01*
X118610500Y-114451638D01*
X118610500Y-112927638D01*
X156333000Y-112927638D01*
X156333000Y-113132361D01*
X156365022Y-113334531D01*
X156428278Y-113529214D01*
X156428282Y-113529224D01*
X156518751Y-113706779D01*
X156521213Y-113711610D01*
X156641534Y-113877219D01*
X156786281Y-114021966D01*
X156951890Y-114142287D01*
X156951892Y-114142288D01*
X157020253Y-114177120D01*
X157134281Y-114235220D01*
X157328966Y-114298477D01*
X157400075Y-114309739D01*
X157531138Y-114330499D01*
X157531145Y-114330499D01*
X157531148Y-114330500D01*
X157531151Y-114330500D01*
X157735849Y-114330500D01*
X157735852Y-114330500D01*
X157735855Y-114330499D01*
X157735861Y-114330499D01*
X157831370Y-114315371D01*
X157938034Y-114298477D01*
X158132719Y-114235220D01*
X158315110Y-114142287D01*
X158480719Y-114021966D01*
X158625466Y-113877219D01*
X158745787Y-113711610D01*
X158838720Y-113529219D01*
X158901977Y-113334534D01*
X158929698Y-113159516D01*
X158933999Y-113132361D01*
X158934000Y-113132349D01*
X158934000Y-112927650D01*
X158933999Y-112927638D01*
X158901977Y-112725468D01*
X158901977Y-112725466D01*
X158838720Y-112530781D01*
X158745787Y-112348390D01*
X158625466Y-112182781D01*
X158480719Y-112038034D01*
X158315110Y-111917713D01*
X158315109Y-111917712D01*
X158315107Y-111917711D01*
X158132724Y-111824782D01*
X158132714Y-111824778D01*
X157938031Y-111761522D01*
X157735861Y-111729500D01*
X157735852Y-111729500D01*
X157531148Y-111729500D01*
X157531138Y-111729500D01*
X157328968Y-111761522D01*
X157134285Y-111824778D01*
X157134275Y-111824782D01*
X156951892Y-111917711D01*
X156786279Y-112038035D01*
X156641535Y-112182779D01*
X156521211Y-112348392D01*
X156428282Y-112530775D01*
X156428278Y-112530785D01*
X156365022Y-112725468D01*
X156333000Y-112927638D01*
X118610500Y-112927638D01*
X118610500Y-110641638D01*
X142971500Y-110641638D01*
X142971500Y-110846361D01*
X143003522Y-111048531D01*
X143066778Y-111243214D01*
X143066782Y-111243224D01*
X143133881Y-111374912D01*
X143159713Y-111425610D01*
X143280034Y-111591219D01*
X143424781Y-111735966D01*
X143590390Y-111856287D01*
X143772781Y-111949220D01*
X143967466Y-112012477D01*
X144038575Y-112023739D01*
X144169638Y-112044499D01*
X144169645Y-112044499D01*
X144169648Y-112044500D01*
X144169651Y-112044500D01*
X144374349Y-112044500D01*
X144374352Y-112044500D01*
X144374355Y-112044499D01*
X144374361Y-112044499D01*
X144469870Y-112029371D01*
X144576534Y-112012477D01*
X144771219Y-111949220D01*
X144953610Y-111856287D01*
X145119219Y-111735966D01*
X145263966Y-111591219D01*
X145384287Y-111425610D01*
X145477220Y-111243219D01*
X145540477Y-111048534D01*
X145572500Y-110846352D01*
X145572500Y-110641648D01*
X145572499Y-110641645D01*
X145572499Y-110641638D01*
X145540477Y-110439468D01*
X145540477Y-110439466D01*
X145477220Y-110244781D01*
X145439912Y-110171561D01*
X145384288Y-110062392D01*
X145384287Y-110062390D01*
X145263966Y-109896781D01*
X145119219Y-109752034D01*
X144953610Y-109631713D01*
X144953609Y-109631712D01*
X144953607Y-109631711D01*
X144771224Y-109538782D01*
X144771214Y-109538778D01*
X144576531Y-109475522D01*
X144374361Y-109443500D01*
X144374352Y-109443500D01*
X144169648Y-109443500D01*
X144169638Y-109443500D01*
X143967468Y-109475522D01*
X143772785Y-109538778D01*
X143772775Y-109538782D01*
X143590392Y-109631711D01*
X143424779Y-109752035D01*
X143280035Y-109896779D01*
X143159711Y-110062392D01*
X143066782Y-110244775D01*
X143066778Y-110244785D01*
X143003522Y-110439468D01*
X142971500Y-110641638D01*
X118610500Y-110641638D01*
X118610500Y-106577638D01*
X120619500Y-106577638D01*
X120619500Y-106782361D01*
X120651522Y-106984531D01*
X120714778Y-107179214D01*
X120714782Y-107179224D01*
X120807711Y-107361607D01*
X120807713Y-107361610D01*
X120928034Y-107527219D01*
X121072781Y-107671966D01*
X121238390Y-107792287D01*
X121420781Y-107885220D01*
X121615466Y-107948477D01*
X121686575Y-107959739D01*
X121817638Y-107980499D01*
X121817645Y-107980499D01*
X121817648Y-107980500D01*
X121817651Y-107980500D01*
X122022349Y-107980500D01*
X122022352Y-107980500D01*
X122022355Y-107980499D01*
X122022361Y-107980499D01*
X122117870Y-107965371D01*
X122224534Y-107948477D01*
X122419219Y-107885220D01*
X122601610Y-107792287D01*
X122767219Y-107671966D01*
X122911966Y-107527219D01*
X123032287Y-107361610D01*
X123125220Y-107179219D01*
X123188477Y-106984534D01*
X123211732Y-106837713D01*
X123220499Y-106782361D01*
X123220500Y-106782349D01*
X123220500Y-106577650D01*
X123220499Y-106577638D01*
X123192674Y-106401964D01*
X123188477Y-106375466D01*
X123125220Y-106180781D01*
X123094998Y-106121468D01*
X123032288Y-105998392D01*
X123032287Y-105998390D01*
X122911966Y-105832781D01*
X122767219Y-105688034D01*
X122601610Y-105567713D01*
X122601609Y-105567712D01*
X122601607Y-105567711D01*
X122419224Y-105474782D01*
X122419214Y-105474778D01*
X122224531Y-105411522D01*
X122022361Y-105379500D01*
X122022352Y-105379500D01*
X121817648Y-105379500D01*
X121817638Y-105379500D01*
X121615468Y-105411522D01*
X121420785Y-105474778D01*
X121420775Y-105474782D01*
X121238392Y-105567711D01*
X121072779Y-105688035D01*
X120928035Y-105832779D01*
X120807711Y-105998392D01*
X120714782Y-106180775D01*
X120714778Y-106180785D01*
X120651522Y-106375468D01*
X120619500Y-106577638D01*
X118610500Y-106577638D01*
X118610500Y-102921138D01*
X132314500Y-102921138D01*
X132314500Y-103125861D01*
X132346522Y-103328031D01*
X132409778Y-103522714D01*
X132409782Y-103522724D01*
X132492027Y-103684138D01*
X132502713Y-103705110D01*
X132623034Y-103870719D01*
X132767781Y-104015466D01*
X132933390Y-104135787D01*
X133115781Y-104228720D01*
X133310466Y-104291977D01*
X133381575Y-104303239D01*
X133512638Y-104323999D01*
X133512645Y-104323999D01*
X133512648Y-104324000D01*
X133512651Y-104324000D01*
X133717349Y-104324000D01*
X133717352Y-104324000D01*
X133717355Y-104323999D01*
X133717361Y-104323999D01*
X133812870Y-104308871D01*
X133919534Y-104291977D01*
X134114219Y-104228720D01*
X134296610Y-104135787D01*
X134462219Y-104015466D01*
X134606966Y-103870719D01*
X134727287Y-103705110D01*
X134820220Y-103522719D01*
X134883477Y-103328034D01*
X134900371Y-103221370D01*
X134915499Y-103125861D01*
X134915500Y-103125849D01*
X134915500Y-102921150D01*
X134915499Y-102921139D01*
X134895808Y-102796818D01*
X134891186Y-102767638D01*
X141193500Y-102767638D01*
X141193500Y-102972361D01*
X141225522Y-103174531D01*
X141288778Y-103369214D01*
X141288782Y-103369224D01*
X141381711Y-103551607D01*
X141381713Y-103551610D01*
X141502034Y-103717219D01*
X141646781Y-103861966D01*
X141812390Y-103982287D01*
X141812392Y-103982288D01*
X141880753Y-104017120D01*
X141994781Y-104075220D01*
X142189466Y-104138477D01*
X142257243Y-104149212D01*
X142391638Y-104170499D01*
X142391645Y-104170499D01*
X142391648Y-104170500D01*
X142391651Y-104170500D01*
X142596349Y-104170500D01*
X142596352Y-104170500D01*
X142596355Y-104170499D01*
X142596361Y-104170499D01*
X142691870Y-104155371D01*
X142798534Y-104138477D01*
X142993219Y-104075220D01*
X143175610Y-103982287D01*
X143341219Y-103861966D01*
X143341232Y-103861952D01*
X143348287Y-103855929D01*
X143433055Y-103808457D01*
X143529536Y-103797038D01*
X143623044Y-103823409D01*
X143671713Y-103855929D01*
X143678773Y-103861958D01*
X143678781Y-103861966D01*
X143844390Y-103982287D01*
X143844392Y-103982288D01*
X143912753Y-104017120D01*
X144026781Y-104075220D01*
X144221466Y-104138477D01*
X144289243Y-104149212D01*
X144423638Y-104170499D01*
X144423645Y-104170499D01*
X144423648Y-104170500D01*
X144423651Y-104170500D01*
X144628349Y-104170500D01*
X144628352Y-104170500D01*
X144628355Y-104170499D01*
X144628361Y-104170499D01*
X144723870Y-104155371D01*
X144830534Y-104138477D01*
X145025219Y-104075220D01*
X145207610Y-103982287D01*
X145373219Y-103861966D01*
X145517966Y-103717219D01*
X145638287Y-103551610D01*
X145731220Y-103369219D01*
X145794477Y-103174534D01*
X145822198Y-102999516D01*
X145826499Y-102972361D01*
X145826500Y-102972349D01*
X145826500Y-102767650D01*
X145826499Y-102767638D01*
X151861500Y-102767638D01*
X151861500Y-102972361D01*
X151893522Y-103174531D01*
X151956778Y-103369214D01*
X151956782Y-103369224D01*
X152049711Y-103551607D01*
X152049713Y-103551610D01*
X152170034Y-103717219D01*
X152314781Y-103861966D01*
X152480390Y-103982287D01*
X152480392Y-103982288D01*
X152548753Y-104017120D01*
X152662781Y-104075220D01*
X152857466Y-104138477D01*
X152925243Y-104149212D01*
X153059638Y-104170499D01*
X153059645Y-104170499D01*
X153059648Y-104170500D01*
X153059651Y-104170500D01*
X153264349Y-104170500D01*
X153264352Y-104170500D01*
X153264355Y-104170499D01*
X153264361Y-104170499D01*
X153359870Y-104155371D01*
X153466534Y-104138477D01*
X153661219Y-104075220D01*
X153764415Y-104022638D01*
X153857922Y-103996268D01*
X153877458Y-103995500D01*
X162543663Y-103995500D01*
X162638951Y-104014454D01*
X162719733Y-104068430D01*
X162773709Y-104149212D01*
X162792663Y-104244500D01*
X162773709Y-104339788D01*
X162719734Y-104420568D01*
X162588786Y-104551517D01*
X162588785Y-104551516D01*
X162463519Y-104676783D01*
X162463516Y-104676787D01*
X162359388Y-104820106D01*
X162284653Y-104966781D01*
X162284652Y-104966780D01*
X162278961Y-104977950D01*
X162278958Y-104977956D01*
X162247230Y-105075607D01*
X162224214Y-105146444D01*
X162222459Y-105157522D01*
X162217552Y-105188508D01*
X162214488Y-105207851D01*
X162196500Y-105321421D01*
X162196500Y-105465645D01*
X162195836Y-105474718D01*
X162185281Y-105512940D01*
X162177546Y-105551829D01*
X162170057Y-105568071D01*
X162169976Y-105568368D01*
X162169841Y-105568540D01*
X162169361Y-105569583D01*
X162116781Y-105672777D01*
X162116777Y-105672788D01*
X162053522Y-105867468D01*
X162021500Y-106069638D01*
X162021500Y-106274361D01*
X162053522Y-106476533D01*
X162053522Y-106476534D01*
X162060678Y-106498556D01*
X162072097Y-106595037D01*
X162045725Y-106688544D01*
X161985577Y-106764842D01*
X161900809Y-106812313D01*
X161823865Y-106824500D01*
X155255337Y-106824500D01*
X155160049Y-106805546D01*
X155079267Y-106751570D01*
X154463752Y-106136055D01*
X154409776Y-106055273D01*
X154403009Y-106036929D01*
X154367223Y-105926791D01*
X154367220Y-105926781D01*
X154274287Y-105744390D01*
X154153966Y-105578781D01*
X154009219Y-105434034D01*
X153843610Y-105313713D01*
X153843609Y-105313712D01*
X153843607Y-105313711D01*
X153661224Y-105220782D01*
X153661214Y-105220778D01*
X153466531Y-105157522D01*
X153264361Y-105125500D01*
X153264352Y-105125500D01*
X153059648Y-105125500D01*
X153059638Y-105125500D01*
X152857468Y-105157522D01*
X152662785Y-105220778D01*
X152662775Y-105220782D01*
X152480392Y-105313711D01*
X152314779Y-105434035D01*
X152170035Y-105578779D01*
X152049711Y-105744392D01*
X151956782Y-105926775D01*
X151956778Y-105926785D01*
X151893522Y-106121468D01*
X151861500Y-106323638D01*
X151861500Y-106528361D01*
X151893522Y-106730531D01*
X151956778Y-106925214D01*
X151956782Y-106925224D01*
X152030762Y-107070417D01*
X152049713Y-107107610D01*
X152170034Y-107273219D01*
X152314781Y-107417966D01*
X152480390Y-107538287D01*
X152662781Y-107631220D01*
X152772929Y-107667009D01*
X152857697Y-107714480D01*
X152872055Y-107727752D01*
X153827517Y-108683214D01*
X153827516Y-108683214D01*
X153941522Y-108797219D01*
X153952786Y-108808483D01*
X154029392Y-108864140D01*
X154096105Y-108912611D01*
X154096107Y-108912612D01*
X154096110Y-108912614D01*
X154153716Y-108941966D01*
X154253957Y-108993042D01*
X154422444Y-109047786D01*
X154446368Y-109051575D01*
X154597421Y-109075500D01*
X169718542Y-109075500D01*
X169813830Y-109094454D01*
X169831577Y-109102635D01*
X169934781Y-109155220D01*
X170129466Y-109218477D01*
X170200575Y-109229739D01*
X170331638Y-109250499D01*
X170331645Y-109250499D01*
X170331648Y-109250500D01*
X170331651Y-109250500D01*
X170536349Y-109250500D01*
X170536352Y-109250500D01*
X170536355Y-109250499D01*
X170536361Y-109250499D01*
X170631870Y-109235371D01*
X170738534Y-109218477D01*
X170933219Y-109155220D01*
X171115610Y-109062287D01*
X171281219Y-108941966D01*
X171425966Y-108797219D01*
X171546287Y-108631610D01*
X171639220Y-108449219D01*
X171702477Y-108254534D01*
X171730198Y-108079516D01*
X171734499Y-108052361D01*
X171734500Y-108052349D01*
X171734500Y-107847650D01*
X171734499Y-107847638D01*
X171702477Y-107645468D01*
X171702477Y-107645466D01*
X171639220Y-107450781D01*
X171546287Y-107268390D01*
X171425966Y-107102781D01*
X171281219Y-106958034D01*
X171175801Y-106881444D01*
X171109854Y-106810103D01*
X171076227Y-106718953D01*
X171080041Y-106621873D01*
X171120715Y-106533642D01*
X171175800Y-106478556D01*
X171281219Y-106401966D01*
X171425966Y-106257219D01*
X171546287Y-106091610D01*
X171639220Y-105909219D01*
X171702477Y-105714534D01*
X171723979Y-105578779D01*
X171734499Y-105512361D01*
X171734500Y-105512349D01*
X171734500Y-105307650D01*
X171734499Y-105307638D01*
X171710481Y-105156000D01*
X171702477Y-105105466D01*
X171639220Y-104910781D01*
X171546287Y-104728390D01*
X171425966Y-104562781D01*
X171281219Y-104418034D01*
X171115610Y-104297713D01*
X171115609Y-104297712D01*
X171115607Y-104297711D01*
X170933224Y-104204782D01*
X170933217Y-104204779D01*
X170823067Y-104168989D01*
X170738300Y-104121517D01*
X170723943Y-104108246D01*
X169512267Y-102896570D01*
X169458291Y-102815788D01*
X169439337Y-102720500D01*
X169458291Y-102625212D01*
X169512267Y-102544430D01*
X169593049Y-102490454D01*
X169688337Y-102471500D01*
X174036542Y-102471500D01*
X174131830Y-102490454D01*
X174149577Y-102498635D01*
X174252781Y-102551220D01*
X174447466Y-102614477D01*
X174515243Y-102625212D01*
X174649638Y-102646499D01*
X174649645Y-102646499D01*
X174649648Y-102646500D01*
X174649651Y-102646500D01*
X174854349Y-102646500D01*
X174854352Y-102646500D01*
X174854355Y-102646499D01*
X174854361Y-102646499D01*
X174949870Y-102631371D01*
X175056534Y-102614477D01*
X175251219Y-102551220D01*
X175433610Y-102458287D01*
X175599219Y-102337966D01*
X175743966Y-102193219D01*
X175864287Y-102027610D01*
X175957220Y-101845219D01*
X176020477Y-101650534D01*
X176039811Y-101528464D01*
X176052499Y-101448361D01*
X176052500Y-101448349D01*
X176052500Y-101243650D01*
X176052499Y-101243638D01*
X176020477Y-101041468D01*
X176020477Y-101041466D01*
X175957220Y-100846781D01*
X175864287Y-100664390D01*
X175743966Y-100498781D01*
X175599219Y-100354034D01*
X175433610Y-100233713D01*
X175433609Y-100233712D01*
X175433607Y-100233711D01*
X175251224Y-100140782D01*
X175251214Y-100140778D01*
X175056531Y-100077522D01*
X174854361Y-100045500D01*
X174854352Y-100045500D01*
X174649648Y-100045500D01*
X174649638Y-100045500D01*
X174447468Y-100077522D01*
X174252785Y-100140778D01*
X174252781Y-100140779D01*
X174252781Y-100140780D01*
X174149584Y-100193361D01*
X174056078Y-100219732D01*
X174036542Y-100220500D01*
X164907338Y-100220500D01*
X164812050Y-100201546D01*
X164731268Y-100147570D01*
X162591752Y-98008055D01*
X162537776Y-97927273D01*
X162531009Y-97908929D01*
X162509212Y-97841845D01*
X162495220Y-97798781D01*
X162402287Y-97616390D01*
X162281966Y-97450781D01*
X162137219Y-97306034D01*
X161971610Y-97185713D01*
X161971609Y-97185712D01*
X161971607Y-97185711D01*
X161789224Y-97092782D01*
X161789214Y-97092778D01*
X161594531Y-97029522D01*
X161392361Y-96997500D01*
X161392352Y-96997500D01*
X161187648Y-96997500D01*
X161187638Y-96997500D01*
X160985468Y-97029522D01*
X160790785Y-97092778D01*
X160790775Y-97092782D01*
X160608392Y-97185711D01*
X160442779Y-97306035D01*
X160298035Y-97450779D01*
X160177711Y-97616392D01*
X160084782Y-97798775D01*
X160084778Y-97798785D01*
X160021522Y-97993468D01*
X159989500Y-98195638D01*
X159989500Y-98400361D01*
X160021522Y-98602531D01*
X160084778Y-98797214D01*
X160084782Y-98797224D01*
X160156063Y-98937120D01*
X160177713Y-98979610D01*
X160298034Y-99145219D01*
X160442781Y-99289966D01*
X160608390Y-99410287D01*
X160790781Y-99503220D01*
X160900929Y-99539009D01*
X160985697Y-99586480D01*
X161000055Y-99599752D01*
X162719732Y-101319430D01*
X162773708Y-101400212D01*
X162792662Y-101495500D01*
X162773708Y-101590788D01*
X162719732Y-101671570D01*
X162638950Y-101725546D01*
X162543662Y-101744500D01*
X160295137Y-101744500D01*
X160199849Y-101725546D01*
X160119067Y-101671570D01*
X160065091Y-101590788D01*
X160046137Y-101495500D01*
X160049202Y-101456554D01*
X160050498Y-101448365D01*
X160050498Y-101448363D01*
X160050500Y-101448352D01*
X160050500Y-101243648D01*
X160050499Y-101243645D01*
X160050499Y-101243638D01*
X160018477Y-101041468D01*
X160018477Y-101041466D01*
X159955220Y-100846781D01*
X159862287Y-100664390D01*
X159741966Y-100498781D01*
X159597219Y-100354034D01*
X159431610Y-100233713D01*
X159431609Y-100233712D01*
X159431607Y-100233711D01*
X159249224Y-100140782D01*
X159249214Y-100140778D01*
X159054531Y-100077522D01*
X158852361Y-100045500D01*
X158852352Y-100045500D01*
X158647648Y-100045500D01*
X158647638Y-100045500D01*
X158445468Y-100077522D01*
X158250785Y-100140778D01*
X158250775Y-100140782D01*
X158068392Y-100233711D01*
X157902779Y-100354035D01*
X157758035Y-100498779D01*
X157637711Y-100664392D01*
X157544782Y-100846775D01*
X157544778Y-100846785D01*
X157481522Y-101041468D01*
X157449500Y-101243638D01*
X157449500Y-101448349D01*
X157449501Y-101448365D01*
X157450798Y-101456554D01*
X157446982Y-101553634D01*
X157406305Y-101641863D01*
X157334960Y-101707810D01*
X157243809Y-101741435D01*
X157204863Y-101744500D01*
X153877458Y-101744500D01*
X153782170Y-101725546D01*
X153764422Y-101717364D01*
X153661219Y-101664780D01*
X153661216Y-101664779D01*
X153661214Y-101664778D01*
X153466531Y-101601522D01*
X153264361Y-101569500D01*
X153264352Y-101569500D01*
X153059648Y-101569500D01*
X153059638Y-101569500D01*
X152857468Y-101601522D01*
X152662785Y-101664778D01*
X152662775Y-101664782D01*
X152480392Y-101757711D01*
X152314779Y-101878035D01*
X152170035Y-102022779D01*
X152049711Y-102188392D01*
X151956782Y-102370775D01*
X151956778Y-102370785D01*
X151893522Y-102565468D01*
X151861500Y-102767638D01*
X145826499Y-102767638D01*
X145794477Y-102565468D01*
X145794477Y-102565466D01*
X145731220Y-102370781D01*
X145638287Y-102188390D01*
X145517966Y-102022781D01*
X145373219Y-101878034D01*
X145207610Y-101757713D01*
X145207609Y-101757712D01*
X145207607Y-101757711D01*
X145025224Y-101664782D01*
X145025214Y-101664778D01*
X144830531Y-101601522D01*
X144628361Y-101569500D01*
X144628352Y-101569500D01*
X144423648Y-101569500D01*
X144423638Y-101569500D01*
X144221468Y-101601522D01*
X144026785Y-101664778D01*
X144026775Y-101664782D01*
X143844392Y-101757711D01*
X143678777Y-101878037D01*
X143671705Y-101884077D01*
X143586936Y-101931545D01*
X143490454Y-101942961D01*
X143396948Y-101916585D01*
X143348295Y-101884077D01*
X143341222Y-101878037D01*
X143341219Y-101878034D01*
X143175610Y-101757713D01*
X143175609Y-101757712D01*
X143175607Y-101757711D01*
X142993224Y-101664782D01*
X142993214Y-101664778D01*
X142798531Y-101601522D01*
X142596361Y-101569500D01*
X142596352Y-101569500D01*
X142391648Y-101569500D01*
X142391638Y-101569500D01*
X142189468Y-101601522D01*
X141994785Y-101664778D01*
X141994775Y-101664782D01*
X141812392Y-101757711D01*
X141646779Y-101878035D01*
X141502035Y-102022779D01*
X141381711Y-102188392D01*
X141288782Y-102370775D01*
X141288778Y-102370785D01*
X141225522Y-102565468D01*
X141193500Y-102767638D01*
X134891186Y-102767638D01*
X134890303Y-102762065D01*
X134883477Y-102718966D01*
X134820220Y-102524281D01*
X134727287Y-102341890D01*
X134606966Y-102176281D01*
X134462219Y-102031534D01*
X134296610Y-101911213D01*
X134296609Y-101911212D01*
X134296607Y-101911211D01*
X134114224Y-101818282D01*
X134114214Y-101818278D01*
X133919531Y-101755022D01*
X133717361Y-101723000D01*
X133717352Y-101723000D01*
X133512648Y-101723000D01*
X133512638Y-101723000D01*
X133310468Y-101755022D01*
X133115785Y-101818278D01*
X133115780Y-101818280D01*
X133040268Y-101856755D01*
X133040263Y-101856757D01*
X132933390Y-101911213D01*
X132767781Y-102031534D01*
X132692474Y-102106840D01*
X132692467Y-102106846D01*
X132623035Y-102176279D01*
X132502711Y-102341892D01*
X132409782Y-102524275D01*
X132409778Y-102524285D01*
X132346522Y-102718968D01*
X132314500Y-102921138D01*
X118610500Y-102921138D01*
X118610500Y-100434138D01*
X130525500Y-100434138D01*
X130525500Y-100638861D01*
X130557522Y-100841031D01*
X130620778Y-101035714D01*
X130620782Y-101035724D01*
X130713711Y-101218107D01*
X130713713Y-101218110D01*
X130834034Y-101383719D01*
X130978781Y-101528466D01*
X131144390Y-101648787D01*
X131326781Y-101741720D01*
X131521466Y-101804977D01*
X131592575Y-101816239D01*
X131723638Y-101836999D01*
X131723645Y-101836999D01*
X131723648Y-101837000D01*
X131723651Y-101837000D01*
X131928349Y-101837000D01*
X131928352Y-101837000D01*
X131928355Y-101836999D01*
X131928361Y-101836999D01*
X132023870Y-101821871D01*
X132130534Y-101804977D01*
X132325219Y-101741720D01*
X132507610Y-101648787D01*
X132673219Y-101528466D01*
X132817966Y-101383719D01*
X132938287Y-101218110D01*
X133031220Y-101035719D01*
X133094477Y-100841034D01*
X133111371Y-100734370D01*
X133126499Y-100638861D01*
X133126500Y-100638849D01*
X133126500Y-100434150D01*
X133126499Y-100434141D01*
X133122726Y-100410319D01*
X133122726Y-100410318D01*
X133118104Y-100381138D01*
X136367500Y-100381138D01*
X136367500Y-100585861D01*
X136399522Y-100788031D01*
X136462778Y-100982714D01*
X136462782Y-100982724D01*
X136489787Y-101035724D01*
X136555713Y-101165110D01*
X136676034Y-101330719D01*
X136820781Y-101475466D01*
X136986390Y-101595787D01*
X137168781Y-101688720D01*
X137363466Y-101751977D01*
X137434575Y-101763239D01*
X137565638Y-101783999D01*
X137565645Y-101783999D01*
X137565648Y-101784000D01*
X137565651Y-101784000D01*
X137770349Y-101784000D01*
X137770352Y-101784000D01*
X137770355Y-101783999D01*
X137770361Y-101783999D01*
X137865870Y-101768871D01*
X137972534Y-101751977D01*
X138167219Y-101688720D01*
X138349610Y-101595787D01*
X138515219Y-101475466D01*
X138659966Y-101330719D01*
X138780287Y-101165110D01*
X138873220Y-100982719D01*
X138936477Y-100788034D01*
X138960104Y-100638861D01*
X138968499Y-100585861D01*
X138968500Y-100585849D01*
X138968500Y-100381150D01*
X138968499Y-100381138D01*
X138944908Y-100232197D01*
X138936477Y-100178966D01*
X138873220Y-99984281D01*
X138780287Y-99801890D01*
X138659966Y-99636281D01*
X138515219Y-99491534D01*
X138349610Y-99371213D01*
X138349609Y-99371212D01*
X138349607Y-99371211D01*
X138167224Y-99278282D01*
X138167214Y-99278278D01*
X137972531Y-99215022D01*
X137770361Y-99183000D01*
X137770352Y-99183000D01*
X137565648Y-99183000D01*
X137565638Y-99183000D01*
X137363468Y-99215022D01*
X137168785Y-99278278D01*
X137168775Y-99278282D01*
X136986392Y-99371211D01*
X136820779Y-99491535D01*
X136676035Y-99636279D01*
X136555711Y-99801892D01*
X136462782Y-99984275D01*
X136462778Y-99984285D01*
X136399522Y-100178968D01*
X136367500Y-100381138D01*
X133118104Y-100381138D01*
X133107657Y-100315181D01*
X133094477Y-100231966D01*
X133031220Y-100037281D01*
X132938287Y-99854890D01*
X132817966Y-99689281D01*
X132673219Y-99544534D01*
X132507610Y-99424213D01*
X132507609Y-99424212D01*
X132507607Y-99424211D01*
X132325224Y-99331282D01*
X132325214Y-99331278D01*
X132130531Y-99268022D01*
X131928361Y-99236000D01*
X131928352Y-99236000D01*
X131723648Y-99236000D01*
X131723638Y-99236000D01*
X131521468Y-99268022D01*
X131326785Y-99331278D01*
X131326775Y-99331282D01*
X131144392Y-99424211D01*
X130978779Y-99544535D01*
X130834035Y-99689279D01*
X130713711Y-99854892D01*
X130620782Y-100037275D01*
X130620778Y-100037285D01*
X130557522Y-100231968D01*
X130525500Y-100434138D01*
X118610500Y-100434138D01*
X118610500Y-96388912D01*
X134470000Y-96388912D01*
X134470000Y-96651087D01*
X134504220Y-96911013D01*
X134572074Y-97164253D01*
X134672410Y-97406483D01*
X134803487Y-97633514D01*
X134963096Y-97841523D01*
X135148476Y-98026903D01*
X135356485Y-98186512D01*
X135356485Y-98186513D01*
X135583516Y-98317589D01*
X135825746Y-98417925D01*
X136078987Y-98485779D01*
X136078985Y-98485779D01*
X136338912Y-98520000D01*
X136601088Y-98520000D01*
X136861013Y-98485779D01*
X137114253Y-98417925D01*
X137356483Y-98317589D01*
X137583514Y-98186513D01*
X137583514Y-98186512D01*
X137791523Y-98026903D01*
X137976903Y-97841523D01*
X138136512Y-97633514D01*
X138136513Y-97633514D01*
X138267589Y-97406483D01*
X138367925Y-97164253D01*
X138435779Y-96911013D01*
X138470000Y-96651087D01*
X138470000Y-96388912D01*
X138469996Y-96388880D01*
X138969500Y-96388880D01*
X138969500Y-96651120D01*
X138975094Y-96693607D01*
X139003729Y-96911112D01*
X139071601Y-97164417D01*
X139171953Y-97406689D01*
X139171955Y-97406693D01*
X139303073Y-97633798D01*
X139303082Y-97633812D01*
X139462466Y-97841523D01*
X139462718Y-97841851D01*
X139648149Y-98027282D01*
X139648153Y-98027285D01*
X139648154Y-98027286D01*
X139856187Y-98186917D01*
X139856192Y-98186920D01*
X139856197Y-98186924D01*
X140083303Y-98318043D01*
X140325581Y-98418398D01*
X140578884Y-98486270D01*
X140838880Y-98520500D01*
X141101120Y-98520500D01*
X141361116Y-98486270D01*
X141614419Y-98418398D01*
X141856697Y-98318043D01*
X142068710Y-98195638D01*
X146580500Y-98195638D01*
X146580500Y-98400361D01*
X146612522Y-98602531D01*
X146675778Y-98797214D01*
X146675782Y-98797224D01*
X146747063Y-98937120D01*
X146768713Y-98979610D01*
X146889034Y-99145219D01*
X147033781Y-99289966D01*
X147199390Y-99410287D01*
X147381781Y-99503220D01*
X147576466Y-99566477D01*
X147647575Y-99577739D01*
X147778638Y-99598499D01*
X147778645Y-99598499D01*
X147778648Y-99598500D01*
X147778651Y-99598500D01*
X147983349Y-99598500D01*
X147983352Y-99598500D01*
X147983355Y-99598499D01*
X147983361Y-99598499D01*
X148078870Y-99583371D01*
X148185534Y-99566477D01*
X148380219Y-99503220D01*
X148562610Y-99410287D01*
X148728219Y-99289966D01*
X148872966Y-99145219D01*
X148993287Y-98979610D01*
X149086220Y-98797219D01*
X149149477Y-98602534D01*
X149167892Y-98486270D01*
X149181499Y-98400361D01*
X149181500Y-98400349D01*
X149181500Y-98195650D01*
X149181499Y-98195638D01*
X149160739Y-98064575D01*
X149149477Y-97993466D01*
X149086220Y-97798781D01*
X148993287Y-97616390D01*
X148872966Y-97450781D01*
X148728219Y-97306034D01*
X148562610Y-97185713D01*
X148562609Y-97185712D01*
X148562607Y-97185711D01*
X148380224Y-97092782D01*
X148380214Y-97092778D01*
X148185531Y-97029522D01*
X147983361Y-96997500D01*
X147983352Y-96997500D01*
X147778648Y-96997500D01*
X147778638Y-96997500D01*
X147576468Y-97029522D01*
X147381785Y-97092778D01*
X147381775Y-97092782D01*
X147199392Y-97185711D01*
X147033779Y-97306035D01*
X146889035Y-97450779D01*
X146768711Y-97616392D01*
X146675782Y-97798775D01*
X146675778Y-97798785D01*
X146612522Y-97993468D01*
X146580500Y-98195638D01*
X142068710Y-98195638D01*
X142083803Y-98186924D01*
X142291851Y-98027282D01*
X142477282Y-97841851D01*
X142636924Y-97633803D01*
X142768043Y-97406697D01*
X142868398Y-97164419D01*
X142936270Y-96911116D01*
X142970500Y-96651120D01*
X142970500Y-96388880D01*
X142936270Y-96128884D01*
X142877524Y-95909638D01*
X166847500Y-95909638D01*
X166847500Y-96114361D01*
X166879522Y-96316531D01*
X166942778Y-96511214D01*
X166942782Y-96511224D01*
X167017116Y-96657112D01*
X167035713Y-96693610D01*
X167156034Y-96859219D01*
X167300781Y-97003966D01*
X167466390Y-97124287D01*
X167648781Y-97217220D01*
X167843466Y-97280477D01*
X167914575Y-97291739D01*
X168045638Y-97312499D01*
X168045645Y-97312499D01*
X168045648Y-97312500D01*
X168045651Y-97312500D01*
X168250349Y-97312500D01*
X168250352Y-97312500D01*
X168250355Y-97312499D01*
X168250361Y-97312499D01*
X168345870Y-97297371D01*
X168452534Y-97280477D01*
X168647219Y-97217220D01*
X168829610Y-97124287D01*
X168995219Y-97003966D01*
X169139966Y-96859219D01*
X169260287Y-96693610D01*
X169353220Y-96511219D01*
X169416477Y-96316534D01*
X169445249Y-96134880D01*
X169448499Y-96114361D01*
X169448500Y-96114349D01*
X169448500Y-95909650D01*
X169448499Y-95909638D01*
X169416477Y-95707468D01*
X169416477Y-95707466D01*
X169353220Y-95512781D01*
X169260287Y-95330390D01*
X169139966Y-95164781D01*
X168995219Y-95020034D01*
X168829610Y-94899713D01*
X168829609Y-94899712D01*
X168829607Y-94899711D01*
X168647224Y-94806782D01*
X168647214Y-94806778D01*
X168452531Y-94743522D01*
X168250361Y-94711500D01*
X168250352Y-94711500D01*
X168045648Y-94711500D01*
X168045638Y-94711500D01*
X167843468Y-94743522D01*
X167648785Y-94806778D01*
X167648775Y-94806782D01*
X167466392Y-94899711D01*
X167300779Y-95020035D01*
X167156035Y-95164779D01*
X167035711Y-95330392D01*
X166942782Y-95512775D01*
X166942778Y-95512785D01*
X166879522Y-95707468D01*
X166847500Y-95909638D01*
X142877524Y-95909638D01*
X142868398Y-95875581D01*
X142768043Y-95633303D01*
X142636924Y-95406197D01*
X142636920Y-95406192D01*
X142636917Y-95406187D01*
X142477286Y-95198154D01*
X142477285Y-95198153D01*
X142477282Y-95198149D01*
X142291851Y-95012718D01*
X142291846Y-95012714D01*
X142291845Y-95012713D01*
X142083812Y-94853082D01*
X142083798Y-94853073D01*
X142003619Y-94806782D01*
X141856697Y-94721957D01*
X141856695Y-94721956D01*
X141856693Y-94721955D01*
X141856689Y-94721953D01*
X141614417Y-94621601D01*
X141504730Y-94592211D01*
X141361116Y-94553730D01*
X141361111Y-94553729D01*
X141361114Y-94553729D01*
X141101120Y-94519500D01*
X140838880Y-94519500D01*
X140578887Y-94553729D01*
X140325582Y-94621601D01*
X140083310Y-94721953D01*
X140083306Y-94721955D01*
X139856201Y-94853073D01*
X139856187Y-94853082D01*
X139648154Y-95012713D01*
X139462713Y-95198154D01*
X139303082Y-95406187D01*
X139303073Y-95406201D01*
X139171955Y-95633306D01*
X139171953Y-95633310D01*
X139071601Y-95875582D01*
X139003729Y-96128887D01*
X139002936Y-96134912D01*
X138969500Y-96388880D01*
X138469996Y-96388880D01*
X138435779Y-96128986D01*
X138367925Y-95875746D01*
X138267589Y-95633516D01*
X138136512Y-95406485D01*
X137976903Y-95198476D01*
X137791523Y-95013096D01*
X137583514Y-94853487D01*
X137583514Y-94853486D01*
X137356483Y-94722410D01*
X137114253Y-94622074D01*
X136861012Y-94554220D01*
X136861014Y-94554220D01*
X136601088Y-94520000D01*
X136338912Y-94520000D01*
X136078986Y-94554220D01*
X135825746Y-94622074D01*
X135583516Y-94722410D01*
X135356485Y-94853486D01*
X135356485Y-94853487D01*
X135148476Y-95013096D01*
X134963096Y-95198476D01*
X134803487Y-95406485D01*
X134803486Y-95406485D01*
X134672410Y-95633516D01*
X134572074Y-95875746D01*
X134504220Y-96128986D01*
X134470000Y-96388912D01*
X118610500Y-96388912D01*
X118610500Y-86792138D01*
X134055000Y-86792138D01*
X134055000Y-86996861D01*
X134087022Y-87199031D01*
X134150278Y-87393714D01*
X134150282Y-87393724D01*
X134243211Y-87576107D01*
X134243213Y-87576110D01*
X134363534Y-87741719D01*
X134508281Y-87886466D01*
X134673890Y-88006787D01*
X134856281Y-88099720D01*
X134923624Y-88121601D01*
X135002375Y-88147189D01*
X135087142Y-88194661D01*
X135147290Y-88270958D01*
X135173662Y-88364465D01*
X135162243Y-88460947D01*
X135114771Y-88545714D01*
X135101500Y-88560071D01*
X134963105Y-88698466D01*
X134963096Y-88698476D01*
X134803487Y-88906485D01*
X134803486Y-88906485D01*
X134672410Y-89133516D01*
X134572074Y-89375746D01*
X134504220Y-89628986D01*
X134470000Y-89888912D01*
X134470000Y-90151087D01*
X134504220Y-90411013D01*
X134572074Y-90664253D01*
X134672410Y-90906483D01*
X134803487Y-91133514D01*
X134963096Y-91341523D01*
X135148476Y-91526903D01*
X135356485Y-91686512D01*
X135356485Y-91686513D01*
X135583516Y-91817589D01*
X135825746Y-91917925D01*
X136078987Y-91985779D01*
X136078985Y-91985779D01*
X136338912Y-92020000D01*
X136601088Y-92020000D01*
X136861013Y-91985779D01*
X137114253Y-91917925D01*
X137356483Y-91817589D01*
X137583514Y-91686513D01*
X137583514Y-91686512D01*
X137791523Y-91526903D01*
X137976903Y-91341523D01*
X138136512Y-91133514D01*
X138136513Y-91133514D01*
X138267589Y-90906483D01*
X138367925Y-90664253D01*
X138435779Y-90411013D01*
X138470000Y-90151087D01*
X138470000Y-89888912D01*
X138469996Y-89888880D01*
X138969500Y-89888880D01*
X138969500Y-90151119D01*
X139003729Y-90411112D01*
X139071601Y-90664417D01*
X139171953Y-90906689D01*
X139171955Y-90906693D01*
X139171957Y-90906697D01*
X139237420Y-91020082D01*
X139303073Y-91133798D01*
X139303082Y-91133812D01*
X139443740Y-91317119D01*
X139462718Y-91341851D01*
X139648149Y-91527282D01*
X139648153Y-91527285D01*
X139648154Y-91527286D01*
X139856187Y-91686917D01*
X139856192Y-91686920D01*
X139856197Y-91686924D01*
X140083303Y-91818043D01*
X140325581Y-91918398D01*
X140578884Y-91986270D01*
X140838880Y-92020500D01*
X141101120Y-92020500D01*
X141361116Y-91986270D01*
X141614419Y-91918398D01*
X141856697Y-91818043D01*
X142083803Y-91686924D01*
X142291851Y-91527282D01*
X142477282Y-91341851D01*
X142636924Y-91133803D01*
X142768043Y-90906697D01*
X142868398Y-90664419D01*
X142936270Y-90411116D01*
X142950542Y-90302712D01*
X144961500Y-90302712D01*
X144961500Y-90545287D01*
X144993162Y-90785790D01*
X144993163Y-90785795D01*
X145055940Y-91020082D01*
X145055948Y-91020105D01*
X145148769Y-91244199D01*
X145148773Y-91244205D01*
X145148776Y-91244212D01*
X145158867Y-91261690D01*
X145190096Y-91353686D01*
X145183742Y-91450633D01*
X145140772Y-91537769D01*
X145136210Y-91543536D01*
X145122300Y-91560595D01*
X145122299Y-91560596D01*
X145028093Y-91740946D01*
X145028090Y-91740954D01*
X144972115Y-91936578D01*
X144972114Y-91936582D01*
X144961500Y-92055963D01*
X144961500Y-93872031D01*
X144961501Y-93872043D01*
X144972113Y-93991414D01*
X144972113Y-93991417D01*
X144972114Y-93991418D01*
X145028091Y-94187049D01*
X145122302Y-94367407D01*
X145250891Y-94525109D01*
X145408593Y-94653698D01*
X145588951Y-94747909D01*
X145784582Y-94803886D01*
X145903963Y-94814500D01*
X147720036Y-94814499D01*
X147839418Y-94803886D01*
X148035049Y-94747909D01*
X148215407Y-94653698D01*
X148373109Y-94525109D01*
X148501698Y-94367407D01*
X148595909Y-94187049D01*
X148651886Y-93991418D01*
X148662500Y-93872037D01*
X148662499Y-92055964D01*
X148651886Y-91936582D01*
X148595909Y-91740951D01*
X148501698Y-91560593D01*
X148501694Y-91560588D01*
X148487793Y-91543539D01*
X148471221Y-91512296D01*
X148451377Y-91483028D01*
X148448635Y-91469717D01*
X148442267Y-91457711D01*
X148438912Y-91422504D01*
X148431780Y-91387871D01*
X148434597Y-91377212D01*
X148433052Y-91360994D01*
X148450089Y-91292456D01*
X148456547Y-91276559D01*
X148475224Y-91244212D01*
X148553648Y-91054880D01*
X178593500Y-91054880D01*
X178593500Y-91317119D01*
X178627729Y-91577112D01*
X178695601Y-91830417D01*
X178795953Y-92072689D01*
X178795955Y-92072693D01*
X178927073Y-92299798D01*
X178927082Y-92299812D01*
X178930621Y-92304424D01*
X178973589Y-92391561D01*
X178979941Y-92488508D01*
X178948709Y-92580506D01*
X178930621Y-92607576D01*
X178927082Y-92612187D01*
X178927073Y-92612201D01*
X178795955Y-92839306D01*
X178795953Y-92839310D01*
X178695601Y-93081582D01*
X178627729Y-93334887D01*
X178593500Y-93594880D01*
X178593500Y-93857119D01*
X178627729Y-94117112D01*
X178695601Y-94370417D01*
X178795953Y-94612689D01*
X178795955Y-94612693D01*
X178795957Y-94612697D01*
X178871489Y-94743523D01*
X178927073Y-94839798D01*
X178927082Y-94839812D01*
X178930621Y-94844424D01*
X178973589Y-94931561D01*
X178979941Y-95028508D01*
X178948709Y-95120506D01*
X178930621Y-95147576D01*
X178927082Y-95152187D01*
X178927073Y-95152201D01*
X178795955Y-95379306D01*
X178795953Y-95379310D01*
X178695601Y-95621582D01*
X178627729Y-95874887D01*
X178593500Y-96134880D01*
X178593500Y-96397119D01*
X178627729Y-96657112D01*
X178695601Y-96910417D01*
X178795953Y-97152689D01*
X178795955Y-97152693D01*
X178795957Y-97152697D01*
X178833209Y-97217220D01*
X178927073Y-97379798D01*
X178927082Y-97379812D01*
X178930621Y-97384424D01*
X178973589Y-97471561D01*
X178979941Y-97568508D01*
X178948709Y-97660506D01*
X178930621Y-97687576D01*
X178927082Y-97692187D01*
X178927073Y-97692201D01*
X178795955Y-97919306D01*
X178795953Y-97919310D01*
X178695601Y-98161582D01*
X178627729Y-98414887D01*
X178593500Y-98674880D01*
X178593500Y-98937119D01*
X178627729Y-99197112D01*
X178695601Y-99450417D01*
X178795953Y-99692689D01*
X178795955Y-99692693D01*
X178795957Y-99692697D01*
X178889599Y-99854890D01*
X178927073Y-99919798D01*
X178927082Y-99919812D01*
X178930621Y-99924424D01*
X178973589Y-100011561D01*
X178979941Y-100108508D01*
X178948709Y-100200506D01*
X178930621Y-100227576D01*
X178927082Y-100232187D01*
X178927073Y-100232201D01*
X178795955Y-100459306D01*
X178795953Y-100459310D01*
X178695601Y-100701582D01*
X178627729Y-100954887D01*
X178593500Y-101214880D01*
X178593500Y-101477119D01*
X178627729Y-101737112D01*
X178695601Y-101990417D01*
X178795953Y-102232689D01*
X178795955Y-102232693D01*
X178795957Y-102232697D01*
X178875676Y-102370775D01*
X178927073Y-102459798D01*
X178927082Y-102459812D01*
X178930621Y-102464424D01*
X178973589Y-102551561D01*
X178979941Y-102648508D01*
X178948709Y-102740506D01*
X178930621Y-102767576D01*
X178927082Y-102772187D01*
X178927073Y-102772201D01*
X178795955Y-102999306D01*
X178795953Y-102999310D01*
X178695601Y-103241582D01*
X178627729Y-103494887D01*
X178593500Y-103754880D01*
X178593500Y-104017119D01*
X178627729Y-104277112D01*
X178695601Y-104530417D01*
X178795953Y-104772689D01*
X178795955Y-104772693D01*
X178795957Y-104772697D01*
X178823331Y-104820110D01*
X178927073Y-104999798D01*
X178927082Y-104999812D01*
X178930621Y-105004424D01*
X178973589Y-105091561D01*
X178979941Y-105188508D01*
X178948709Y-105280506D01*
X178930621Y-105307576D01*
X178927082Y-105312187D01*
X178927073Y-105312201D01*
X178795955Y-105539306D01*
X178795953Y-105539310D01*
X178695601Y-105781582D01*
X178627729Y-106034887D01*
X178593500Y-106294880D01*
X178593500Y-106557119D01*
X178627729Y-106817112D01*
X178695601Y-107070417D01*
X178795953Y-107312689D01*
X178795955Y-107312693D01*
X178927073Y-107539798D01*
X178927082Y-107539812D01*
X178930621Y-107544424D01*
X178973589Y-107631561D01*
X178979941Y-107728508D01*
X178948709Y-107820506D01*
X178930621Y-107847576D01*
X178927082Y-107852187D01*
X178927073Y-107852201D01*
X178795955Y-108079306D01*
X178795953Y-108079310D01*
X178695601Y-108321582D01*
X178627729Y-108574887D01*
X178593500Y-108834880D01*
X178593500Y-109097119D01*
X178627729Y-109357112D01*
X178695601Y-109610417D01*
X178795953Y-109852689D01*
X178795955Y-109852693D01*
X178927073Y-110079798D01*
X178927082Y-110079812D01*
X178930621Y-110084424D01*
X178973589Y-110171561D01*
X178979941Y-110268508D01*
X178948709Y-110360506D01*
X178930621Y-110387576D01*
X178927082Y-110392187D01*
X178927073Y-110392201D01*
X178795955Y-110619306D01*
X178795953Y-110619310D01*
X178695601Y-110861582D01*
X178627729Y-111114887D01*
X178593500Y-111374880D01*
X178593500Y-111637119D01*
X178627729Y-111897112D01*
X178695601Y-112150417D01*
X178795953Y-112392689D01*
X178795955Y-112392693D01*
X178927073Y-112619798D01*
X178927082Y-112619812D01*
X178930621Y-112624424D01*
X178973589Y-112711561D01*
X178979941Y-112808508D01*
X178948709Y-112900506D01*
X178930621Y-112927576D01*
X178927082Y-112932187D01*
X178927073Y-112932201D01*
X178795955Y-113159306D01*
X178795953Y-113159310D01*
X178695601Y-113401582D01*
X178627729Y-113654887D01*
X178593500Y-113914880D01*
X178593500Y-114177119D01*
X178627729Y-114437112D01*
X178695601Y-114690417D01*
X178795953Y-114932689D01*
X178795955Y-114932693D01*
X178927073Y-115159798D01*
X178927082Y-115159812D01*
X179086466Y-115367523D01*
X179086718Y-115367851D01*
X179272149Y-115553282D01*
X179272153Y-115553285D01*
X179272154Y-115553286D01*
X179480187Y-115712917D01*
X179480192Y-115712920D01*
X179480197Y-115712924D01*
X179707303Y-115844043D01*
X179949581Y-115944398D01*
X180202884Y-116012270D01*
X180462880Y-116046500D01*
X180725120Y-116046500D01*
X180985116Y-116012270D01*
X181238419Y-115944398D01*
X181480697Y-115844043D01*
X181707803Y-115712924D01*
X181712828Y-115709067D01*
X181799964Y-115666097D01*
X181896911Y-115659742D01*
X181988910Y-115690971D01*
X182015993Y-115709067D01*
X182020479Y-115712509D01*
X182247516Y-115843589D01*
X182489746Y-115943925D01*
X182742987Y-116011779D01*
X182742985Y-116011779D01*
X183002912Y-116046000D01*
X183265088Y-116046000D01*
X183525013Y-116011779D01*
X183778253Y-115943925D01*
X184020483Y-115843589D01*
X184247514Y-115712513D01*
X184247514Y-115712512D01*
X184455523Y-115552903D01*
X184640903Y-115367523D01*
X184800512Y-115159514D01*
X184800513Y-115159514D01*
X184931589Y-114932483D01*
X185031925Y-114690253D01*
X185099779Y-114437013D01*
X185134000Y-114177087D01*
X185134000Y-113914912D01*
X185099779Y-113654986D01*
X185031925Y-113401746D01*
X184931589Y-113159516D01*
X184800512Y-112932485D01*
X184800508Y-112932478D01*
X184796754Y-112927586D01*
X184753782Y-112840451D01*
X184747426Y-112743504D01*
X184778653Y-112651505D01*
X184796754Y-112624414D01*
X184800508Y-112619521D01*
X184800512Y-112619514D01*
X184931589Y-112392483D01*
X185031925Y-112150253D01*
X185099779Y-111897013D01*
X185134000Y-111637087D01*
X185134000Y-111374912D01*
X185099779Y-111114986D01*
X185031925Y-110861746D01*
X184931589Y-110619516D01*
X184800512Y-110392485D01*
X184800508Y-110392478D01*
X184796754Y-110387586D01*
X184753782Y-110300451D01*
X184747426Y-110203504D01*
X184778653Y-110111505D01*
X184796754Y-110084414D01*
X184800508Y-110079521D01*
X184800512Y-110079514D01*
X184931589Y-109852483D01*
X185031925Y-109610253D01*
X185099779Y-109357013D01*
X185134000Y-109097087D01*
X185134000Y-108834912D01*
X185099779Y-108574986D01*
X185031925Y-108321746D01*
X184931589Y-108079516D01*
X184800512Y-107852485D01*
X184800508Y-107852478D01*
X184796754Y-107847586D01*
X184753782Y-107760451D01*
X184747426Y-107663504D01*
X184778653Y-107571505D01*
X184796754Y-107544414D01*
X184800508Y-107539521D01*
X184800512Y-107539514D01*
X184931589Y-107312483D01*
X185031925Y-107070253D01*
X185099779Y-106817013D01*
X185134000Y-106557087D01*
X185134000Y-106294912D01*
X185099779Y-106034986D01*
X185031925Y-105781746D01*
X184931589Y-105539516D01*
X184800512Y-105312485D01*
X184800508Y-105312478D01*
X184796754Y-105307586D01*
X184753782Y-105220451D01*
X184747426Y-105123504D01*
X184778653Y-105031505D01*
X184796754Y-105004414D01*
X184800508Y-104999521D01*
X184800512Y-104999514D01*
X184931589Y-104772483D01*
X185031925Y-104530253D01*
X185099779Y-104277013D01*
X185134000Y-104017087D01*
X185134000Y-103754912D01*
X185099779Y-103494986D01*
X185031925Y-103241746D01*
X184931589Y-102999516D01*
X184800512Y-102772485D01*
X184800508Y-102772478D01*
X184796754Y-102767586D01*
X184753782Y-102680451D01*
X184747426Y-102583504D01*
X184778653Y-102491505D01*
X184796754Y-102464414D01*
X184800508Y-102459521D01*
X184800512Y-102459514D01*
X184931589Y-102232483D01*
X185031925Y-101990253D01*
X185099779Y-101737013D01*
X185134000Y-101477087D01*
X185134000Y-101214912D01*
X185099779Y-100954986D01*
X185031925Y-100701746D01*
X184931589Y-100459516D01*
X184800512Y-100232485D01*
X184800508Y-100232478D01*
X184796754Y-100227586D01*
X184753782Y-100140451D01*
X184747426Y-100043504D01*
X184778653Y-99951505D01*
X184796754Y-99924414D01*
X184800508Y-99919521D01*
X184800512Y-99919514D01*
X184931589Y-99692483D01*
X185031925Y-99450253D01*
X185099779Y-99197013D01*
X185134000Y-98937087D01*
X185134000Y-98674912D01*
X185099779Y-98414986D01*
X185031925Y-98161746D01*
X184931589Y-97919516D01*
X184800512Y-97692485D01*
X184800508Y-97692478D01*
X184796754Y-97687586D01*
X184753782Y-97600451D01*
X184747426Y-97503504D01*
X184778653Y-97411505D01*
X184796754Y-97384414D01*
X184800508Y-97379521D01*
X184800512Y-97379514D01*
X184931589Y-97152483D01*
X185031925Y-96910253D01*
X185099779Y-96657013D01*
X185134000Y-96397087D01*
X185134000Y-96134912D01*
X185099779Y-95874986D01*
X185031925Y-95621746D01*
X184931589Y-95379516D01*
X184800512Y-95152485D01*
X184800508Y-95152478D01*
X184796754Y-95147586D01*
X184753782Y-95060451D01*
X184747426Y-94963504D01*
X184778653Y-94871505D01*
X184796754Y-94844414D01*
X184800508Y-94839521D01*
X184800512Y-94839514D01*
X184931589Y-94612483D01*
X185031925Y-94370253D01*
X185099779Y-94117013D01*
X185134000Y-93857087D01*
X185134000Y-93594912D01*
X185099779Y-93334986D01*
X185031925Y-93081746D01*
X184931589Y-92839516D01*
X184800509Y-92612479D01*
X184797067Y-92607993D01*
X184754096Y-92520857D01*
X184747742Y-92423910D01*
X184778972Y-92331911D01*
X184797068Y-92304828D01*
X184800922Y-92299805D01*
X184800924Y-92299803D01*
X184932043Y-92072697D01*
X185032398Y-91830419D01*
X185100270Y-91577116D01*
X185134500Y-91317120D01*
X185134500Y-91054880D01*
X185100270Y-90794884D01*
X185032398Y-90541581D01*
X184932043Y-90299303D01*
X184800924Y-90072197D01*
X184800920Y-90072192D01*
X184800917Y-90072187D01*
X184641286Y-89864154D01*
X184641285Y-89864153D01*
X184641282Y-89864149D01*
X184455851Y-89678718D01*
X184455846Y-89678714D01*
X184455845Y-89678713D01*
X184247812Y-89519082D01*
X184247798Y-89519073D01*
X184186937Y-89483935D01*
X184020697Y-89387957D01*
X184020695Y-89387956D01*
X184020693Y-89387955D01*
X184020689Y-89387953D01*
X183778417Y-89287601D01*
X183668730Y-89258211D01*
X183525116Y-89219730D01*
X183525111Y-89219729D01*
X183525114Y-89219729D01*
X183265120Y-89185500D01*
X183002880Y-89185500D01*
X182742887Y-89219729D01*
X182489582Y-89287601D01*
X182247310Y-89387953D01*
X182247306Y-89387955D01*
X182020201Y-89519073D01*
X182020187Y-89519082D01*
X182015576Y-89522621D01*
X181928439Y-89565589D01*
X181831492Y-89571941D01*
X181739494Y-89540709D01*
X181712424Y-89522621D01*
X181707812Y-89519082D01*
X181707798Y-89519073D01*
X181646937Y-89483935D01*
X181480697Y-89387957D01*
X181480695Y-89387956D01*
X181480693Y-89387955D01*
X181480689Y-89387953D01*
X181238417Y-89287601D01*
X181128730Y-89258211D01*
X180985116Y-89219730D01*
X180985111Y-89219729D01*
X180985114Y-89219729D01*
X180725120Y-89185500D01*
X180462880Y-89185500D01*
X180202887Y-89219729D01*
X179949582Y-89287601D01*
X179707310Y-89387953D01*
X179707306Y-89387955D01*
X179480201Y-89519073D01*
X179480187Y-89519082D01*
X179272154Y-89678713D01*
X179086713Y-89864154D01*
X178927082Y-90072187D01*
X178927073Y-90072201D01*
X178795955Y-90299306D01*
X178795953Y-90299310D01*
X178695601Y-90541582D01*
X178627729Y-90794887D01*
X178593500Y-91054880D01*
X148553648Y-91054880D01*
X148568054Y-91020100D01*
X148630838Y-90785789D01*
X148662500Y-90545288D01*
X148662500Y-90302712D01*
X148630838Y-90062211D01*
X148617121Y-90011021D01*
X148568059Y-89827917D01*
X148568057Y-89827911D01*
X148568054Y-89827900D01*
X148489781Y-89638931D01*
X148475229Y-89603798D01*
X148475221Y-89603782D01*
X148353941Y-89393720D01*
X148353935Y-89393710D01*
X148206270Y-89201268D01*
X148206261Y-89201258D01*
X148034741Y-89029738D01*
X148034731Y-89029729D01*
X147842289Y-88882064D01*
X147842279Y-88882058D01*
X147632217Y-88760778D01*
X147632201Y-88760770D01*
X147408105Y-88667948D01*
X147408103Y-88667947D01*
X147408100Y-88667946D01*
X147408096Y-88667945D01*
X147408082Y-88667940D01*
X147173795Y-88605163D01*
X147173790Y-88605162D01*
X146933288Y-88573500D01*
X146690712Y-88573500D01*
X146450209Y-88605162D01*
X146450204Y-88605163D01*
X146215917Y-88667940D01*
X146215894Y-88667948D01*
X145991798Y-88760770D01*
X145991782Y-88760778D01*
X145781720Y-88882058D01*
X145781710Y-88882064D01*
X145589268Y-89029729D01*
X145589258Y-89029738D01*
X145417738Y-89201258D01*
X145417729Y-89201268D01*
X145270064Y-89393710D01*
X145270058Y-89393720D01*
X145148778Y-89603782D01*
X145148770Y-89603798D01*
X145055948Y-89827894D01*
X145055940Y-89827917D01*
X144993163Y-90062204D01*
X144993162Y-90062209D01*
X144961500Y-90302712D01*
X142950542Y-90302712D01*
X142970500Y-90151120D01*
X142970500Y-89888880D01*
X142936270Y-89628884D01*
X142868398Y-89375581D01*
X142768043Y-89133303D01*
X142636924Y-88906197D01*
X142636920Y-88906192D01*
X142636917Y-88906187D01*
X142477286Y-88698154D01*
X142477285Y-88698153D01*
X142477282Y-88698149D01*
X142291851Y-88512718D01*
X142291846Y-88512714D01*
X142291845Y-88512713D01*
X142083812Y-88353082D01*
X142083798Y-88353073D01*
X142022937Y-88317935D01*
X141856697Y-88221957D01*
X141856695Y-88221956D01*
X141856693Y-88221955D01*
X141856689Y-88221953D01*
X141614417Y-88121601D01*
X141504730Y-88092211D01*
X141361116Y-88053730D01*
X141361111Y-88053729D01*
X141361114Y-88053729D01*
X141101120Y-88019500D01*
X140838880Y-88019500D01*
X140578887Y-88053729D01*
X140325582Y-88121601D01*
X140083310Y-88221953D01*
X140083306Y-88221955D01*
X139856201Y-88353073D01*
X139856187Y-88353082D01*
X139648154Y-88512713D01*
X139462713Y-88698154D01*
X139303082Y-88906187D01*
X139303073Y-88906201D01*
X139171955Y-89133306D01*
X139171953Y-89133310D01*
X139071601Y-89375582D01*
X139003729Y-89628887D01*
X138969500Y-89888880D01*
X138469996Y-89888880D01*
X138435779Y-89628986D01*
X138367925Y-89375746D01*
X138267589Y-89133516D01*
X138136512Y-88906485D01*
X137976903Y-88698476D01*
X137791523Y-88513096D01*
X137583514Y-88353487D01*
X137583514Y-88353486D01*
X137356481Y-88222409D01*
X137186204Y-88151878D01*
X137105422Y-88097902D01*
X137051446Y-88017120D01*
X137032492Y-87921832D01*
X137051446Y-87826544D01*
X137103133Y-87749187D01*
X137103107Y-87749165D01*
X137103296Y-87748943D01*
X137105419Y-87745765D01*
X137109466Y-87741719D01*
X137229787Y-87576110D01*
X137322720Y-87393719D01*
X137385977Y-87199034D01*
X137418000Y-86996852D01*
X137418000Y-86792148D01*
X137417999Y-86792145D01*
X137417999Y-86792138D01*
X137385977Y-86589968D01*
X137385977Y-86589966D01*
X137322720Y-86395281D01*
X137229787Y-86212890D01*
X137109466Y-86047281D01*
X136964719Y-85902534D01*
X136799110Y-85782213D01*
X136799109Y-85782212D01*
X136799107Y-85782211D01*
X136616724Y-85689282D01*
X136616714Y-85689278D01*
X136422031Y-85626022D01*
X136219861Y-85594000D01*
X136219852Y-85594000D01*
X136015148Y-85594000D01*
X136015138Y-85594000D01*
X135812977Y-85626020D01*
X135803460Y-85628306D01*
X135803167Y-85627086D01*
X135716945Y-85637285D01*
X135669643Y-85627876D01*
X135669540Y-85628306D01*
X135660022Y-85626020D01*
X135457861Y-85594000D01*
X135457852Y-85594000D01*
X135253148Y-85594000D01*
X135253138Y-85594000D01*
X135050968Y-85626022D01*
X134856285Y-85689278D01*
X134856275Y-85689282D01*
X134673892Y-85782211D01*
X134508279Y-85902535D01*
X134363535Y-86047279D01*
X134243211Y-86212892D01*
X134150282Y-86395275D01*
X134150278Y-86395285D01*
X134087022Y-86589968D01*
X134055000Y-86792138D01*
X118610500Y-86792138D01*
X118610500Y-77367638D01*
X182849500Y-77367638D01*
X182849500Y-77572361D01*
X182881522Y-77774531D01*
X182944778Y-77969214D01*
X182944782Y-77969224D01*
X183037711Y-78151607D01*
X183037713Y-78151610D01*
X183158034Y-78317219D01*
X183302781Y-78461966D01*
X183468390Y-78582287D01*
X183650781Y-78675220D01*
X183845466Y-78738477D01*
X183916575Y-78749739D01*
X184047638Y-78770499D01*
X184047645Y-78770499D01*
X184047648Y-78770500D01*
X184047651Y-78770500D01*
X184252349Y-78770500D01*
X184252352Y-78770500D01*
X184252355Y-78770499D01*
X184252361Y-78770499D01*
X184347870Y-78755371D01*
X184454534Y-78738477D01*
X184649219Y-78675220D01*
X184831610Y-78582287D01*
X184997219Y-78461966D01*
X185141966Y-78317219D01*
X185262287Y-78151610D01*
X185355220Y-77969219D01*
X185418477Y-77774534D01*
X185450500Y-77572352D01*
X185450500Y-77367648D01*
X185450499Y-77367645D01*
X185450499Y-77367638D01*
X185418477Y-77165468D01*
X185418477Y-77165466D01*
X185355220Y-76970781D01*
X185262287Y-76788390D01*
X185141966Y-76622781D01*
X184997219Y-76478034D01*
X184831610Y-76357713D01*
X184831609Y-76357712D01*
X184831607Y-76357711D01*
X184649224Y-76264782D01*
X184649214Y-76264778D01*
X184454531Y-76201522D01*
X184252361Y-76169500D01*
X184252352Y-76169500D01*
X184047648Y-76169500D01*
X184047638Y-76169500D01*
X183845468Y-76201522D01*
X183650785Y-76264778D01*
X183650775Y-76264782D01*
X183468392Y-76357711D01*
X183302779Y-76478035D01*
X183158035Y-76622779D01*
X183037711Y-76788392D01*
X182944782Y-76970775D01*
X182944778Y-76970785D01*
X182881522Y-77165468D01*
X182849500Y-77367638D01*
X118610500Y-77367638D01*
X118610500Y-75033899D01*
X118611134Y-75016136D01*
X118615213Y-74959108D01*
X118624493Y-74829350D01*
X118629546Y-74794208D01*
X118667457Y-74619931D01*
X118677461Y-74585860D01*
X118739785Y-74418766D01*
X118754540Y-74386457D01*
X118812815Y-74279734D01*
X118840009Y-74229931D01*
X118859207Y-74200058D01*
X118966085Y-74057287D01*
X118989336Y-74030453D01*
X119115453Y-73904336D01*
X119142287Y-73881085D01*
X119285058Y-73774207D01*
X119314931Y-73755009D01*
X119471462Y-73669537D01*
X119503766Y-73654785D01*
X119670860Y-73592461D01*
X119704931Y-73582457D01*
X119879208Y-73544546D01*
X119914352Y-73539493D01*
X120076158Y-73527920D01*
X120101137Y-73526134D01*
X120118900Y-73525500D01*
X120175892Y-73525500D01*
X185894108Y-73525500D01*
X185951100Y-73525500D01*
X185968863Y-73526134D01*
G37*
G04 #@! TD.AperFunction*
M02*
