G04 #@! TF.GenerationSoftware,KiCad,Pcbnew,9.0.0*
G04 #@! TF.CreationDate,2025-07-06T16:44:13-05:00*
G04 #@! TF.ProjectId,silver-platter,73696c76-6572-42d7-906c-61747465722e,rev?*
G04 #@! TF.SameCoordinates,Original*
G04 #@! TF.FileFunction,Copper,L3,Inr*
G04 #@! TF.FilePolarity,Positive*
%FSLAX46Y46*%
G04 Gerber Fmt 4.6, Leading zero omitted, Abs format (unit mm)*
G04 Created by KiCad (PCBNEW 9.0.0) date 2025-07-06 16:44:13*
%MOMM*%
%LPD*%
G01*
G04 APERTURE LIST*
G04 #@! TA.AperFunction,ComponentPad*
%ADD10C,2.000000*%
G04 #@! TD*
G04 #@! TA.AperFunction,ComponentPad*
%ADD11C,1.750000*%
G04 #@! TD*
G04 #@! TA.AperFunction,ComponentPad*
%ADD12R,1.700000X1.700000*%
G04 #@! TD*
G04 #@! TA.AperFunction,ComponentPad*
%ADD13O,1.700000X1.700000*%
G04 #@! TD*
G04 #@! TA.AperFunction,ViaPad*
%ADD14C,0.600000*%
G04 #@! TD*
G04 APERTURE END LIST*
D10*
X137740000Y-96520000D03*
X137740000Y-90020000D03*
X142240000Y-96520000D03*
X142240000Y-90020000D03*
D11*
X179705000Y-92075000D03*
X182245000Y-92075000D03*
X179705000Y-94615000D03*
X182245000Y-94615000D03*
X179705000Y-97155000D03*
X182245000Y-97155000D03*
X179705000Y-99695000D03*
X182245000Y-99695000D03*
X179705000Y-102235000D03*
X182245000Y-102235000D03*
X179705000Y-104775000D03*
X182245000Y-104775000D03*
X179705000Y-107315000D03*
X182245000Y-107315000D03*
X179705000Y-109855000D03*
X182245000Y-109855000D03*
X179705000Y-112395000D03*
X182245000Y-112395000D03*
X179705000Y-114935000D03*
X182245000Y-114935000D03*
D12*
X175260000Y-121920000D03*
D13*
X177800000Y-121920000D03*
X180340000Y-121920000D03*
X182880000Y-121920000D03*
D12*
X146812000Y-92964000D03*
D13*
X146812000Y-90424000D03*
D14*
X137160000Y-109855000D03*
X144780000Y-97790000D03*
X152400000Y-88265000D03*
X159385000Y-88265000D03*
X120015000Y-99695000D03*
X126365000Y-89535000D03*
X180340000Y-77470000D03*
X152400000Y-77470000D03*
X166370000Y-77470000D03*
X182880000Y-85090000D03*
X169545000Y-90805000D03*
X173355000Y-111760000D03*
X172085000Y-119380000D03*
X127635000Y-121920000D03*
X133350000Y-121920000D03*
X147881000Y-98298000D03*
X150876000Y-114554000D03*
X144272000Y-110744000D03*
X158750000Y-101346000D03*
X166624000Y-96012000D03*
X137668000Y-100483500D03*
X157633500Y-113030000D03*
X142494000Y-102870000D03*
X144526000Y-102870000D03*
X142494000Y-107087500D03*
X153767000Y-90744000D03*
X132307500Y-78766500D03*
X149151000Y-114554000D03*
X149606000Y-93980000D03*
X144526000Y-101145000D03*
X132541000Y-112014000D03*
X172212000Y-102616000D03*
X153977000Y-114554000D03*
X142494000Y-101145000D03*
X172212000Y-96012000D03*
X144526000Y-107087500D03*
X158750000Y-99621000D03*
X172212000Y-99314000D03*
X139954000Y-107542500D03*
X135890000Y-104140000D03*
X135128000Y-104140000D03*
X149606000Y-98298000D03*
X131545500Y-78766500D03*
X162500000Y-90744000D03*
X152400000Y-121920000D03*
X158182000Y-90744000D03*
X159358500Y-113030000D03*
X121920000Y-121920000D03*
X160528000Y-101653000D03*
X153162000Y-106426000D03*
X170434000Y-107950000D03*
X121920000Y-106680000D03*
X136117500Y-86894500D03*
X131826000Y-100536500D03*
X184150000Y-77470000D03*
X135355500Y-86894500D03*
X133615000Y-103023500D03*
X163322000Y-106172000D03*
X164338000Y-104394000D03*
X170434000Y-105410000D03*
X153162000Y-102870000D03*
G04 #@! TA.AperFunction,Conductor*
G36*
X184389648Y-87390352D02*
G01*
X184404000Y-87425000D01*
X184404000Y-124411000D01*
X184389648Y-124445648D01*
X184355000Y-124460000D01*
X130859000Y-124460000D01*
X130824352Y-124445648D01*
X130810000Y-124411000D01*
X130810000Y-121854104D01*
X151899500Y-121854104D01*
X151899500Y-121985895D01*
X151933607Y-122113184D01*
X151933608Y-122113188D01*
X151998982Y-122226417D01*
X151999500Y-122227314D01*
X152092686Y-122320500D01*
X152134457Y-122344617D01*
X152206811Y-122386391D01*
X152206813Y-122386391D01*
X152206814Y-122386392D01*
X152307207Y-122413292D01*
X152334104Y-122420499D01*
X152334105Y-122420500D01*
X152334108Y-122420500D01*
X152465895Y-122420500D01*
X152465895Y-122420499D01*
X152593186Y-122386392D01*
X152707314Y-122320500D01*
X152800500Y-122227314D01*
X152866392Y-122113186D01*
X152900499Y-121985895D01*
X152900500Y-121985895D01*
X152900500Y-121854106D01*
X152893186Y-121826811D01*
X152893186Y-121826810D01*
X152866392Y-121726814D01*
X152866391Y-121726811D01*
X152801016Y-121613580D01*
X152800500Y-121612686D01*
X152707314Y-121519500D01*
X152593188Y-121453608D01*
X152593184Y-121453607D01*
X152465895Y-121419500D01*
X152465892Y-121419500D01*
X152334108Y-121419500D01*
X152334105Y-121419500D01*
X152206815Y-121453607D01*
X152206811Y-121453608D01*
X152092685Y-121519500D01*
X152092685Y-121519501D01*
X151999501Y-121612685D01*
X151999500Y-121612685D01*
X151933608Y-121726811D01*
X151933607Y-121726815D01*
X151899500Y-121854104D01*
X130810000Y-121854104D01*
X130810000Y-121022165D01*
X173910000Y-121022165D01*
X173910000Y-121670000D01*
X174826988Y-121670000D01*
X174794075Y-121727007D01*
X174760000Y-121854174D01*
X174760000Y-121985826D01*
X174794075Y-122112993D01*
X174826988Y-122170000D01*
X173910000Y-122170000D01*
X173910000Y-122817834D01*
X173916401Y-122877372D01*
X173916401Y-122877373D01*
X173966648Y-123012091D01*
X174052811Y-123127188D01*
X174167908Y-123213351D01*
X174302626Y-123263598D01*
X174362166Y-123270000D01*
X175010000Y-123270000D01*
X175010000Y-122353012D01*
X175067007Y-122385925D01*
X175194174Y-122420000D01*
X175325826Y-122420000D01*
X175452993Y-122385925D01*
X175510000Y-122353012D01*
X175510000Y-123270000D01*
X176157834Y-123270000D01*
X176217372Y-123263598D01*
X176217373Y-123263598D01*
X176352091Y-123213351D01*
X176467188Y-123127188D01*
X176553351Y-123012091D01*
X176603598Y-122877373D01*
X176603598Y-122877372D01*
X176610000Y-122817834D01*
X176610000Y-122170000D01*
X175693012Y-122170000D01*
X175725925Y-122112993D01*
X175760000Y-121985826D01*
X175760000Y-121854174D01*
X175749914Y-121816535D01*
X176749500Y-121816535D01*
X176749500Y-122023465D01*
X176767308Y-122112993D01*
X176789869Y-122226417D01*
X176789871Y-122226423D01*
X176856133Y-122386392D01*
X176869059Y-122417598D01*
X176984023Y-122589655D01*
X177130345Y-122735977D01*
X177302402Y-122850941D01*
X177493580Y-122930130D01*
X177696535Y-122970500D01*
X177696538Y-122970500D01*
X177903462Y-122970500D01*
X177903465Y-122970500D01*
X178106420Y-122930130D01*
X178297598Y-122850941D01*
X178469655Y-122735977D01*
X178615977Y-122589655D01*
X178730941Y-122417598D01*
X178810130Y-122226420D01*
X178850500Y-122023465D01*
X178850500Y-121816535D01*
X179289500Y-121816535D01*
X179289500Y-122023465D01*
X179307308Y-122112993D01*
X179329869Y-122226417D01*
X179329871Y-122226423D01*
X179396133Y-122386392D01*
X179409059Y-122417598D01*
X179524023Y-122589655D01*
X179670345Y-122735977D01*
X179842402Y-122850941D01*
X180033580Y-122930130D01*
X180236535Y-122970500D01*
X180236538Y-122970500D01*
X180443462Y-122970500D01*
X180443465Y-122970500D01*
X180646420Y-122930130D01*
X180837598Y-122850941D01*
X181009655Y-122735977D01*
X181155977Y-122589655D01*
X181270941Y-122417598D01*
X181350130Y-122226420D01*
X181390500Y-122023465D01*
X181390500Y-121816535D01*
X181829500Y-121816535D01*
X181829500Y-122023465D01*
X181847308Y-122112993D01*
X181869869Y-122226417D01*
X181869871Y-122226423D01*
X181936133Y-122386392D01*
X181949059Y-122417598D01*
X182064023Y-122589655D01*
X182210345Y-122735977D01*
X182382402Y-122850941D01*
X182573580Y-122930130D01*
X182776535Y-122970500D01*
X182776538Y-122970500D01*
X182983462Y-122970500D01*
X182983465Y-122970500D01*
X183186420Y-122930130D01*
X183377598Y-122850941D01*
X183549655Y-122735977D01*
X183695977Y-122589655D01*
X183810941Y-122417598D01*
X183890130Y-122226420D01*
X183930500Y-122023465D01*
X183930500Y-121816535D01*
X183890130Y-121613580D01*
X183810941Y-121422402D01*
X183695977Y-121250345D01*
X183549655Y-121104023D01*
X183377598Y-120989059D01*
X183313786Y-120962627D01*
X183186423Y-120909871D01*
X183186417Y-120909869D01*
X183104572Y-120893589D01*
X182983465Y-120869500D01*
X182776535Y-120869500D01*
X182675520Y-120889592D01*
X182573582Y-120909869D01*
X182573576Y-120909871D01*
X182382403Y-120989058D01*
X182210345Y-121104022D01*
X182064022Y-121250345D01*
X181949058Y-121422403D01*
X181869871Y-121613576D01*
X181869869Y-121613582D01*
X181858647Y-121670000D01*
X181829500Y-121816535D01*
X181390500Y-121816535D01*
X181350130Y-121613580D01*
X181270941Y-121422402D01*
X181155977Y-121250345D01*
X181009655Y-121104023D01*
X180837598Y-120989059D01*
X180773786Y-120962627D01*
X180646423Y-120909871D01*
X180646417Y-120909869D01*
X180564572Y-120893589D01*
X180443465Y-120869500D01*
X180236535Y-120869500D01*
X180135520Y-120889592D01*
X180033582Y-120909869D01*
X180033576Y-120909871D01*
X179842403Y-120989058D01*
X179670345Y-121104022D01*
X179524022Y-121250345D01*
X179409058Y-121422403D01*
X179329871Y-121613576D01*
X179329869Y-121613582D01*
X179318647Y-121670000D01*
X179289500Y-121816535D01*
X178850500Y-121816535D01*
X178810130Y-121613580D01*
X178730941Y-121422402D01*
X178615977Y-121250345D01*
X178469655Y-121104023D01*
X178297598Y-120989059D01*
X178233786Y-120962627D01*
X178106423Y-120909871D01*
X178106417Y-120909869D01*
X178024572Y-120893589D01*
X177903465Y-120869500D01*
X177696535Y-120869500D01*
X177595520Y-120889592D01*
X177493582Y-120909869D01*
X177493576Y-120909871D01*
X177302403Y-120989058D01*
X177130345Y-121104022D01*
X176984022Y-121250345D01*
X176869058Y-121422403D01*
X176789871Y-121613576D01*
X176789869Y-121613582D01*
X176778647Y-121670000D01*
X176749500Y-121816535D01*
X175749914Y-121816535D01*
X175725925Y-121727007D01*
X175693012Y-121670000D01*
X176610000Y-121670000D01*
X176610000Y-121022165D01*
X176603598Y-120962627D01*
X176603598Y-120962626D01*
X176553351Y-120827908D01*
X176467188Y-120712811D01*
X176352091Y-120626648D01*
X176217373Y-120576401D01*
X176157834Y-120570000D01*
X175510000Y-120570000D01*
X175510000Y-121486988D01*
X175452993Y-121454075D01*
X175325826Y-121420000D01*
X175194174Y-121420000D01*
X175067007Y-121454075D01*
X175010000Y-121486988D01*
X175010000Y-120570000D01*
X174362166Y-120570000D01*
X174302627Y-120576401D01*
X174302626Y-120576401D01*
X174167908Y-120626648D01*
X174052811Y-120712811D01*
X173966648Y-120827908D01*
X173916401Y-120962626D01*
X173916401Y-120962627D01*
X173910000Y-121022165D01*
X130810000Y-121022165D01*
X130810000Y-119314104D01*
X171584500Y-119314104D01*
X171584500Y-119445895D01*
X171618607Y-119573184D01*
X171618608Y-119573188D01*
X171684500Y-119687314D01*
X171777686Y-119780500D01*
X171819457Y-119804617D01*
X171891811Y-119846391D01*
X171891813Y-119846391D01*
X171891814Y-119846392D01*
X171992207Y-119873292D01*
X172019104Y-119880499D01*
X172019105Y-119880500D01*
X172019108Y-119880500D01*
X172150895Y-119880500D01*
X172150895Y-119880499D01*
X172278186Y-119846392D01*
X172392314Y-119780500D01*
X172485500Y-119687314D01*
X172551392Y-119573186D01*
X172585499Y-119445895D01*
X172585500Y-119445895D01*
X172585500Y-119314105D01*
X172585499Y-119314104D01*
X172551392Y-119186815D01*
X172551391Y-119186811D01*
X172485499Y-119072685D01*
X172392314Y-118979500D01*
X172278188Y-118913608D01*
X172278184Y-118913607D01*
X172150895Y-118879500D01*
X172150892Y-118879500D01*
X172019108Y-118879500D01*
X172019105Y-118879500D01*
X171891815Y-118913607D01*
X171891811Y-118913608D01*
X171777685Y-118979500D01*
X171777685Y-118979501D01*
X171684501Y-119072685D01*
X171684500Y-119072685D01*
X171618608Y-119186811D01*
X171618607Y-119186815D01*
X171584500Y-119314104D01*
X130810000Y-119314104D01*
X130810000Y-114488104D01*
X148650500Y-114488104D01*
X148650500Y-114619895D01*
X148684607Y-114747184D01*
X148684608Y-114747188D01*
X148744173Y-114850356D01*
X148750500Y-114861314D01*
X148843686Y-114954500D01*
X148885457Y-114978617D01*
X148957811Y-115020391D01*
X148957813Y-115020391D01*
X148957814Y-115020392D01*
X149058207Y-115047292D01*
X149085104Y-115054499D01*
X149085105Y-115054500D01*
X149085108Y-115054500D01*
X149216895Y-115054500D01*
X149216895Y-115054499D01*
X149344186Y-115020392D01*
X149345484Y-115019643D01*
X149359478Y-115011563D01*
X149458314Y-114954500D01*
X149551500Y-114861314D01*
X149617392Y-114747186D01*
X149651499Y-114619895D01*
X149651500Y-114619895D01*
X149651500Y-114488105D01*
X149651499Y-114488104D01*
X153476500Y-114488104D01*
X153476500Y-114619895D01*
X153510607Y-114747184D01*
X153510608Y-114747188D01*
X153570173Y-114850356D01*
X153576500Y-114861314D01*
X153669686Y-114954500D01*
X153711457Y-114978617D01*
X153783811Y-115020391D01*
X153783813Y-115020391D01*
X153783814Y-115020392D01*
X153884207Y-115047292D01*
X153911104Y-115054499D01*
X153911105Y-115054500D01*
X153911108Y-115054500D01*
X154042895Y-115054500D01*
X154042895Y-115054499D01*
X154170186Y-115020392D01*
X154171484Y-115019643D01*
X154185478Y-115011563D01*
X154284314Y-114954500D01*
X154377500Y-114861314D01*
X154383827Y-114850356D01*
X178629500Y-114850356D01*
X178629500Y-115019644D01*
X178635020Y-115054499D01*
X178655981Y-115186844D01*
X178655982Y-115186847D01*
X178708295Y-115347849D01*
X178785150Y-115498685D01*
X178884654Y-115635641D01*
X178884655Y-115635642D01*
X178884659Y-115635647D01*
X179004353Y-115755341D01*
X179004357Y-115755344D01*
X179004359Y-115755346D01*
X179141315Y-115854850D01*
X179292151Y-115931705D01*
X179453153Y-115984018D01*
X179620356Y-116010500D01*
X179620357Y-116010500D01*
X179789643Y-116010500D01*
X179789644Y-116010500D01*
X179956847Y-115984018D01*
X180117849Y-115931705D01*
X180268685Y-115854850D01*
X180405641Y-115755346D01*
X180405644Y-115755342D01*
X180405647Y-115755341D01*
X180525341Y-115635647D01*
X180525342Y-115635644D01*
X180525346Y-115635641D01*
X180624850Y-115498685D01*
X180701705Y-115347849D01*
X180754018Y-115186847D01*
X180780500Y-115019644D01*
X180780500Y-114850356D01*
X181169500Y-114850356D01*
X181169500Y-115019644D01*
X181175020Y-115054499D01*
X181195981Y-115186844D01*
X181195982Y-115186847D01*
X181248295Y-115347849D01*
X181325150Y-115498685D01*
X181424654Y-115635641D01*
X181424655Y-115635642D01*
X181424659Y-115635647D01*
X181544353Y-115755341D01*
X181544357Y-115755344D01*
X181544359Y-115755346D01*
X181681315Y-115854850D01*
X181832151Y-115931705D01*
X181993153Y-115984018D01*
X182160356Y-116010500D01*
X182160357Y-116010500D01*
X182329643Y-116010500D01*
X182329644Y-116010500D01*
X182496847Y-115984018D01*
X182657849Y-115931705D01*
X182808685Y-115854850D01*
X182945641Y-115755346D01*
X182945644Y-115755342D01*
X182945647Y-115755341D01*
X183065341Y-115635647D01*
X183065342Y-115635644D01*
X183065346Y-115635641D01*
X183164850Y-115498685D01*
X183241705Y-115347849D01*
X183294018Y-115186847D01*
X183320500Y-115019644D01*
X183320500Y-114850356D01*
X183294018Y-114683153D01*
X183241705Y-114522151D01*
X183164850Y-114371315D01*
X183065346Y-114234359D01*
X183065344Y-114234357D01*
X183065341Y-114234353D01*
X182945647Y-114114659D01*
X182945642Y-114114655D01*
X182908415Y-114087608D01*
X182808685Y-114015150D01*
X182657849Y-113938295D01*
X182657848Y-113938294D01*
X182657847Y-113938294D01*
X182496847Y-113885982D01*
X182496844Y-113885981D01*
X182368402Y-113865638D01*
X182329644Y-113859500D01*
X182160356Y-113859500D01*
X182128891Y-113864483D01*
X181993155Y-113885981D01*
X181993152Y-113885982D01*
X181832152Y-113938294D01*
X181681315Y-114015150D01*
X181544357Y-114114655D01*
X181424655Y-114234357D01*
X181325150Y-114371315D01*
X181248294Y-114522152D01*
X181195982Y-114683152D01*
X181195981Y-114683155D01*
X181185840Y-114747186D01*
X181169500Y-114850356D01*
X180780500Y-114850356D01*
X180754018Y-114683153D01*
X180701705Y-114522151D01*
X180624850Y-114371315D01*
X180525346Y-114234359D01*
X180525344Y-114234357D01*
X180525341Y-114234353D01*
X180405647Y-114114659D01*
X180405642Y-114114655D01*
X180368415Y-114087608D01*
X180268685Y-114015150D01*
X180117849Y-113938295D01*
X180117848Y-113938294D01*
X180117847Y-113938294D01*
X179956847Y-113885982D01*
X179956844Y-113885981D01*
X179828402Y-113865638D01*
X179789644Y-113859500D01*
X179620356Y-113859500D01*
X179588891Y-113864483D01*
X179453155Y-113885981D01*
X179453152Y-113885982D01*
X179292152Y-113938294D01*
X179141315Y-114015150D01*
X179004357Y-114114655D01*
X178884655Y-114234357D01*
X178785150Y-114371315D01*
X178708294Y-114522152D01*
X178655982Y-114683152D01*
X178655981Y-114683155D01*
X178645840Y-114747186D01*
X178629500Y-114850356D01*
X154383827Y-114850356D01*
X154443392Y-114747186D01*
X154477499Y-114619895D01*
X154477500Y-114619895D01*
X154477500Y-114488105D01*
X154477499Y-114488104D01*
X154470292Y-114461207D01*
X154443392Y-114360814D01*
X154443391Y-114360813D01*
X154443391Y-114360811D01*
X154377499Y-114246685D01*
X154284314Y-114153500D01*
X154170188Y-114087608D01*
X154170184Y-114087607D01*
X154042895Y-114053500D01*
X154042892Y-114053500D01*
X153911108Y-114053500D01*
X153911105Y-114053500D01*
X153783815Y-114087607D01*
X153783811Y-114087608D01*
X153669685Y-114153500D01*
X153669685Y-114153501D01*
X153576501Y-114246685D01*
X153576500Y-114246685D01*
X153510608Y-114360811D01*
X153510607Y-114360815D01*
X153476500Y-114488104D01*
X149651499Y-114488104D01*
X149644292Y-114461207D01*
X149617392Y-114360814D01*
X149617391Y-114360813D01*
X149617391Y-114360811D01*
X149551499Y-114246685D01*
X149458314Y-114153500D01*
X149344188Y-114087608D01*
X149344184Y-114087607D01*
X149216895Y-114053500D01*
X149216892Y-114053500D01*
X149085108Y-114053500D01*
X149085105Y-114053500D01*
X148957815Y-114087607D01*
X148957811Y-114087608D01*
X148843685Y-114153500D01*
X148843685Y-114153501D01*
X148750501Y-114246685D01*
X148750500Y-114246685D01*
X148684608Y-114360811D01*
X148684607Y-114360815D01*
X148650500Y-114488104D01*
X130810000Y-114488104D01*
X130810000Y-112964104D01*
X158858000Y-112964104D01*
X158858000Y-113095895D01*
X158892107Y-113223184D01*
X158892108Y-113223188D01*
X158945030Y-113314849D01*
X158958000Y-113337314D01*
X159051186Y-113430500D01*
X159074598Y-113444017D01*
X159165311Y-113496391D01*
X159165313Y-113496391D01*
X159165314Y-113496392D01*
X159265707Y-113523292D01*
X159292604Y-113530499D01*
X159292605Y-113530500D01*
X159292608Y-113530500D01*
X159424395Y-113530500D01*
X159424395Y-113530499D01*
X159551686Y-113496392D01*
X159665814Y-113430500D01*
X159759000Y-113337314D01*
X159824892Y-113223186D01*
X159858999Y-113095895D01*
X159859000Y-113095895D01*
X159859000Y-112964105D01*
X159858999Y-112964104D01*
X159824892Y-112836815D01*
X159824891Y-112836811D01*
X159758999Y-112722685D01*
X159665814Y-112629500D01*
X159551688Y-112563608D01*
X159551684Y-112563607D01*
X159424395Y-112529500D01*
X159424392Y-112529500D01*
X159292608Y-112529500D01*
X159292605Y-112529500D01*
X159165315Y-112563607D01*
X159165311Y-112563608D01*
X159051185Y-112629500D01*
X159051185Y-112629501D01*
X158958001Y-112722685D01*
X158958000Y-112722685D01*
X158892108Y-112836811D01*
X158892107Y-112836815D01*
X158858000Y-112964104D01*
X130810000Y-112964104D01*
X130810000Y-111948104D01*
X132040500Y-111948104D01*
X132040500Y-112079895D01*
X132074607Y-112207184D01*
X132074608Y-112207188D01*
X132134173Y-112310356D01*
X132140500Y-112321314D01*
X132233686Y-112414500D01*
X132275457Y-112438617D01*
X132347811Y-112480391D01*
X132347813Y-112480391D01*
X132347814Y-112480392D01*
X132448207Y-112507292D01*
X132475104Y-112514499D01*
X132475105Y-112514500D01*
X132475108Y-112514500D01*
X132606895Y-112514500D01*
X132606895Y-112514499D01*
X132734186Y-112480392D01*
X132735484Y-112479643D01*
X132749478Y-112471563D01*
X132848314Y-112414500D01*
X132941500Y-112321314D01*
X132947827Y-112310356D01*
X178629500Y-112310356D01*
X178629500Y-112479644D01*
X178635020Y-112514499D01*
X178655981Y-112646844D01*
X178655982Y-112646847D01*
X178708295Y-112807849D01*
X178785150Y-112958685D01*
X178884654Y-113095641D01*
X178884655Y-113095642D01*
X178884659Y-113095647D01*
X179004353Y-113215341D01*
X179004357Y-113215344D01*
X179004359Y-113215346D01*
X179141315Y-113314850D01*
X179292151Y-113391705D01*
X179453153Y-113444018D01*
X179620356Y-113470500D01*
X179620357Y-113470500D01*
X179789643Y-113470500D01*
X179789644Y-113470500D01*
X179956847Y-113444018D01*
X180117849Y-113391705D01*
X180268685Y-113314850D01*
X180405641Y-113215346D01*
X180405644Y-113215342D01*
X180405647Y-113215341D01*
X180525341Y-113095647D01*
X180525342Y-113095644D01*
X180525346Y-113095641D01*
X180624850Y-112958685D01*
X180701705Y-112807849D01*
X180754018Y-112646847D01*
X180780500Y-112479644D01*
X180780500Y-112310356D01*
X181169500Y-112310356D01*
X181169500Y-112479644D01*
X181175020Y-112514499D01*
X181195981Y-112646844D01*
X181195982Y-112646847D01*
X181248295Y-112807849D01*
X181325150Y-112958685D01*
X181424654Y-113095641D01*
X181424655Y-113095642D01*
X181424659Y-113095647D01*
X181544353Y-113215341D01*
X181544357Y-113215344D01*
X181544359Y-113215346D01*
X181681315Y-113314850D01*
X181832151Y-113391705D01*
X181993153Y-113444018D01*
X182160356Y-113470500D01*
X182160357Y-113470500D01*
X182329643Y-113470500D01*
X182329644Y-113470500D01*
X182496847Y-113444018D01*
X182657849Y-113391705D01*
X182808685Y-113314850D01*
X182945641Y-113215346D01*
X182945644Y-113215342D01*
X182945647Y-113215341D01*
X183065341Y-113095647D01*
X183065342Y-113095644D01*
X183065346Y-113095641D01*
X183164850Y-112958685D01*
X183241705Y-112807849D01*
X183294018Y-112646847D01*
X183320500Y-112479644D01*
X183320500Y-112310356D01*
X183294018Y-112143153D01*
X183241705Y-111982151D01*
X183164850Y-111831315D01*
X183065346Y-111694359D01*
X183065344Y-111694357D01*
X183065341Y-111694353D01*
X182945647Y-111574659D01*
X182945642Y-111574655D01*
X182945641Y-111574654D01*
X182808685Y-111475150D01*
X182657849Y-111398295D01*
X182657848Y-111398294D01*
X182657847Y-111398294D01*
X182496847Y-111345982D01*
X182496844Y-111345981D01*
X182368402Y-111325638D01*
X182329644Y-111319500D01*
X182160356Y-111319500D01*
X182128891Y-111324483D01*
X181993155Y-111345981D01*
X181993152Y-111345982D01*
X181832152Y-111398294D01*
X181681315Y-111475150D01*
X181544357Y-111574655D01*
X181424655Y-111694357D01*
X181325150Y-111831315D01*
X181248294Y-111982152D01*
X181195982Y-112143152D01*
X181195981Y-112143155D01*
X181182798Y-112226392D01*
X181169500Y-112310356D01*
X180780500Y-112310356D01*
X180754018Y-112143153D01*
X180701705Y-111982151D01*
X180624850Y-111831315D01*
X180525346Y-111694359D01*
X180525344Y-111694357D01*
X180525341Y-111694353D01*
X180405647Y-111574659D01*
X180405642Y-111574655D01*
X180405641Y-111574654D01*
X180268685Y-111475150D01*
X180117849Y-111398295D01*
X180117848Y-111398294D01*
X180117847Y-111398294D01*
X179956847Y-111345982D01*
X179956844Y-111345981D01*
X179828402Y-111325638D01*
X179789644Y-111319500D01*
X179620356Y-111319500D01*
X179588891Y-111324483D01*
X179453155Y-111345981D01*
X179453152Y-111345982D01*
X179292152Y-111398294D01*
X179141315Y-111475150D01*
X179004357Y-111574655D01*
X178884655Y-111694357D01*
X178785150Y-111831315D01*
X178708294Y-111982152D01*
X178655982Y-112143152D01*
X178655981Y-112143155D01*
X178642798Y-112226392D01*
X178629500Y-112310356D01*
X132947827Y-112310356D01*
X133007392Y-112207186D01*
X133041499Y-112079895D01*
X133041500Y-112079895D01*
X133041500Y-111948105D01*
X133041499Y-111948104D01*
X133034292Y-111921207D01*
X133007392Y-111820814D01*
X132941500Y-111706686D01*
X132928918Y-111694104D01*
X172854500Y-111694104D01*
X172854500Y-111825895D01*
X172888607Y-111953184D01*
X172888608Y-111953188D01*
X172954500Y-112067314D01*
X173047686Y-112160500D01*
X173089457Y-112184617D01*
X173161811Y-112226391D01*
X173161813Y-112226391D01*
X173161814Y-112226392D01*
X173262207Y-112253292D01*
X173289104Y-112260499D01*
X173289105Y-112260500D01*
X173289108Y-112260500D01*
X173420894Y-112260500D01*
X173484539Y-112243446D01*
X173548186Y-112226392D01*
X173662314Y-112160500D01*
X173755500Y-112067314D01*
X173821392Y-111953186D01*
X173855499Y-111825895D01*
X173855500Y-111825895D01*
X173855500Y-111694105D01*
X173855499Y-111694104D01*
X173848292Y-111667207D01*
X173821392Y-111566814D01*
X173821391Y-111566813D01*
X173821391Y-111566811D01*
X173779617Y-111494457D01*
X173755500Y-111452686D01*
X173662314Y-111359500D01*
X173548188Y-111293608D01*
X173548184Y-111293607D01*
X173420895Y-111259500D01*
X173420892Y-111259500D01*
X173289108Y-111259500D01*
X173289105Y-111259500D01*
X173161815Y-111293607D01*
X173161811Y-111293608D01*
X173047685Y-111359500D01*
X173047685Y-111359501D01*
X172954501Y-111452685D01*
X172954500Y-111452685D01*
X172888608Y-111566811D01*
X172888607Y-111566815D01*
X172854500Y-111694104D01*
X132928918Y-111694104D01*
X132848314Y-111613500D01*
X132734188Y-111547608D01*
X132734184Y-111547607D01*
X132606895Y-111513500D01*
X132606892Y-111513500D01*
X132475108Y-111513500D01*
X132475105Y-111513500D01*
X132347815Y-111547607D01*
X132347811Y-111547608D01*
X132233685Y-111613500D01*
X132233685Y-111613501D01*
X132140501Y-111706685D01*
X132140500Y-111706685D01*
X132074608Y-111820811D01*
X132074607Y-111820815D01*
X132040500Y-111948104D01*
X130810000Y-111948104D01*
X130810000Y-109789104D01*
X136659500Y-109789104D01*
X136659500Y-109920895D01*
X136693607Y-110048184D01*
X136693608Y-110048188D01*
X136759500Y-110162314D01*
X136852686Y-110255500D01*
X136874072Y-110267847D01*
X136966811Y-110321391D01*
X136966813Y-110321391D01*
X136966814Y-110321392D01*
X137067207Y-110348292D01*
X137094104Y-110355499D01*
X137094105Y-110355500D01*
X137094108Y-110355500D01*
X137225895Y-110355500D01*
X137225895Y-110355499D01*
X137353186Y-110321392D01*
X137467314Y-110255500D01*
X137560500Y-110162314D01*
X137626392Y-110048186D01*
X137660499Y-109920895D01*
X137660500Y-109920895D01*
X137660500Y-109789106D01*
X137658358Y-109781111D01*
X137658358Y-109781109D01*
X137655477Y-109770356D01*
X178629500Y-109770356D01*
X178629500Y-109939643D01*
X178655981Y-110106844D01*
X178655982Y-110106847D01*
X178704282Y-110255500D01*
X178708295Y-110267849D01*
X178785150Y-110418685D01*
X178884654Y-110555641D01*
X178884655Y-110555642D01*
X178884659Y-110555647D01*
X179004353Y-110675341D01*
X179004357Y-110675344D01*
X179004359Y-110675346D01*
X179141315Y-110774850D01*
X179292151Y-110851705D01*
X179453153Y-110904018D01*
X179620356Y-110930500D01*
X179620357Y-110930500D01*
X179789643Y-110930500D01*
X179789644Y-110930500D01*
X179956847Y-110904018D01*
X180117849Y-110851705D01*
X180268685Y-110774850D01*
X180405641Y-110675346D01*
X180405644Y-110675342D01*
X180405647Y-110675341D01*
X180525341Y-110555647D01*
X180525342Y-110555644D01*
X180525346Y-110555641D01*
X180624850Y-110418685D01*
X180701705Y-110267849D01*
X180754018Y-110106847D01*
X180780500Y-109939644D01*
X180780500Y-109770356D01*
X181169500Y-109770356D01*
X181169500Y-109939643D01*
X181195981Y-110106844D01*
X181195982Y-110106847D01*
X181244282Y-110255500D01*
X181248295Y-110267849D01*
X181325150Y-110418685D01*
X181424654Y-110555641D01*
X181424655Y-110555642D01*
X181424659Y-110555647D01*
X181544353Y-110675341D01*
X181544357Y-110675344D01*
X181544359Y-110675346D01*
X181681315Y-110774850D01*
X181832151Y-110851705D01*
X181993153Y-110904018D01*
X182160356Y-110930500D01*
X182160357Y-110930500D01*
X182329643Y-110930500D01*
X182329644Y-110930500D01*
X182496847Y-110904018D01*
X182657849Y-110851705D01*
X182808685Y-110774850D01*
X182945641Y-110675346D01*
X182945644Y-110675342D01*
X182945647Y-110675341D01*
X183065341Y-110555647D01*
X183065342Y-110555644D01*
X183065346Y-110555641D01*
X183164850Y-110418685D01*
X183241705Y-110267849D01*
X183294018Y-110106847D01*
X183320500Y-109939644D01*
X183320500Y-109770356D01*
X183294018Y-109603153D01*
X183241705Y-109442151D01*
X183164850Y-109291315D01*
X183065346Y-109154359D01*
X183065344Y-109154357D01*
X183065341Y-109154353D01*
X182945647Y-109034659D01*
X182945642Y-109034655D01*
X182945641Y-109034654D01*
X182808685Y-108935150D01*
X182657849Y-108858295D01*
X182657848Y-108858294D01*
X182657847Y-108858294D01*
X182496847Y-108805982D01*
X182496844Y-108805981D01*
X182368402Y-108785638D01*
X182329644Y-108779500D01*
X182160356Y-108779500D01*
X182128891Y-108784483D01*
X181993155Y-108805981D01*
X181993152Y-108805982D01*
X181832152Y-108858294D01*
X181681315Y-108935150D01*
X181544357Y-109034655D01*
X181424655Y-109154357D01*
X181325150Y-109291315D01*
X181248294Y-109442152D01*
X181195982Y-109603152D01*
X181195981Y-109603155D01*
X181169500Y-109770356D01*
X180780500Y-109770356D01*
X180754018Y-109603153D01*
X180701705Y-109442151D01*
X180624850Y-109291315D01*
X180525346Y-109154359D01*
X180525344Y-109154357D01*
X180525341Y-109154353D01*
X180405647Y-109034659D01*
X180405642Y-109034655D01*
X180405641Y-109034654D01*
X180268685Y-108935150D01*
X180117849Y-108858295D01*
X180117848Y-108858294D01*
X180117847Y-108858294D01*
X179956847Y-108805982D01*
X179956844Y-108805981D01*
X179828402Y-108785638D01*
X179789644Y-108779500D01*
X179620356Y-108779500D01*
X179588891Y-108784483D01*
X179453155Y-108805981D01*
X179453152Y-108805982D01*
X179292152Y-108858294D01*
X179141315Y-108935150D01*
X179004357Y-109034655D01*
X178884655Y-109154357D01*
X178785150Y-109291315D01*
X178708294Y-109442152D01*
X178655982Y-109603152D01*
X178655981Y-109603155D01*
X178629500Y-109770356D01*
X137655477Y-109770356D01*
X137626392Y-109661815D01*
X137626391Y-109661811D01*
X137560499Y-109547685D01*
X137467314Y-109454500D01*
X137353188Y-109388608D01*
X137353184Y-109388607D01*
X137225895Y-109354500D01*
X137225892Y-109354500D01*
X137094108Y-109354500D01*
X137094105Y-109354500D01*
X136966815Y-109388607D01*
X136966811Y-109388608D01*
X136852685Y-109454500D01*
X136852685Y-109454501D01*
X136759501Y-109547685D01*
X136759500Y-109547685D01*
X136693608Y-109661811D01*
X136693607Y-109661815D01*
X136659500Y-109789104D01*
X130810000Y-109789104D01*
X130810000Y-107476604D01*
X139453500Y-107476604D01*
X139453500Y-107608395D01*
X139487607Y-107735684D01*
X139487608Y-107735688D01*
X139553500Y-107849814D01*
X139646686Y-107943000D01*
X139688457Y-107967117D01*
X139760811Y-108008891D01*
X139760813Y-108008891D01*
X139760814Y-108008892D01*
X139861207Y-108035792D01*
X139888104Y-108042999D01*
X139888105Y-108043000D01*
X139888108Y-108043000D01*
X140019895Y-108043000D01*
X140019895Y-108042999D01*
X140147186Y-108008892D01*
X140261314Y-107943000D01*
X140320210Y-107884104D01*
X169933500Y-107884104D01*
X169933500Y-108015895D01*
X169967607Y-108143184D01*
X169967608Y-108143188D01*
X170020530Y-108234849D01*
X170033500Y-108257314D01*
X170126686Y-108350500D01*
X170150098Y-108364017D01*
X170240811Y-108416391D01*
X170240813Y-108416391D01*
X170240814Y-108416392D01*
X170341207Y-108443292D01*
X170368104Y-108450499D01*
X170368105Y-108450500D01*
X170368108Y-108450500D01*
X170499895Y-108450500D01*
X170499895Y-108450499D01*
X170627186Y-108416392D01*
X170741314Y-108350500D01*
X170834500Y-108257314D01*
X170900392Y-108143186D01*
X170934499Y-108015895D01*
X170934500Y-108015895D01*
X170934500Y-107884105D01*
X170934499Y-107884104D01*
X170900392Y-107756815D01*
X170900391Y-107756811D01*
X170834499Y-107642685D01*
X170741314Y-107549500D01*
X170627188Y-107483608D01*
X170627184Y-107483607D01*
X170499895Y-107449500D01*
X170499892Y-107449500D01*
X170368108Y-107449500D01*
X170368105Y-107449500D01*
X170240815Y-107483607D01*
X170240811Y-107483608D01*
X170126685Y-107549500D01*
X170126685Y-107549501D01*
X170033501Y-107642685D01*
X170033500Y-107642685D01*
X169967608Y-107756811D01*
X169967607Y-107756815D01*
X169933500Y-107884104D01*
X140320210Y-107884104D01*
X140354500Y-107849814D01*
X140420392Y-107735686D01*
X140454499Y-107608395D01*
X140454500Y-107608395D01*
X140454500Y-107476605D01*
X140454499Y-107476604D01*
X140432584Y-107394815D01*
X140420392Y-107349314D01*
X140420391Y-107349313D01*
X140420391Y-107349311D01*
X140354499Y-107235185D01*
X140261314Y-107142000D01*
X140147188Y-107076108D01*
X140147184Y-107076107D01*
X140108441Y-107065726D01*
X140019895Y-107042000D01*
X140019892Y-107042000D01*
X139888108Y-107042000D01*
X139888105Y-107042000D01*
X139760815Y-107076107D01*
X139760811Y-107076108D01*
X139646685Y-107142000D01*
X139646685Y-107142001D01*
X139553501Y-107235185D01*
X139553500Y-107235185D01*
X139487608Y-107349311D01*
X139487607Y-107349315D01*
X139453500Y-107476604D01*
X130810000Y-107476604D01*
X130810000Y-107021604D01*
X141993500Y-107021604D01*
X141993500Y-107153395D01*
X142027607Y-107280684D01*
X142027608Y-107280688D01*
X142067230Y-107349314D01*
X142093500Y-107394814D01*
X142186686Y-107488000D01*
X142228457Y-107512117D01*
X142300811Y-107553891D01*
X142300813Y-107553891D01*
X142300814Y-107553892D01*
X142401207Y-107580792D01*
X142428104Y-107587999D01*
X142428105Y-107588000D01*
X142428108Y-107588000D01*
X142559895Y-107588000D01*
X142559895Y-107587999D01*
X142687186Y-107553892D01*
X142694792Y-107549501D01*
X142702478Y-107545063D01*
X142801314Y-107488000D01*
X142894500Y-107394814D01*
X142960392Y-107280686D01*
X142994499Y-107153395D01*
X142994500Y-107153395D01*
X142994500Y-107021605D01*
X142994499Y-107021604D01*
X144025500Y-107021604D01*
X144025500Y-107153395D01*
X144059607Y-107280684D01*
X144059608Y-107280688D01*
X144099230Y-107349314D01*
X144125500Y-107394814D01*
X144218686Y-107488000D01*
X144260457Y-107512117D01*
X144332811Y-107553891D01*
X144332813Y-107553891D01*
X144332814Y-107553892D01*
X144433207Y-107580792D01*
X144460104Y-107587999D01*
X144460105Y-107588000D01*
X144460108Y-107588000D01*
X144591895Y-107588000D01*
X144591895Y-107587999D01*
X144719186Y-107553892D01*
X144726792Y-107549501D01*
X144734478Y-107545063D01*
X144833314Y-107488000D01*
X144926500Y-107394814D01*
X144992392Y-107280686D01*
X145005878Y-107230356D01*
X178629500Y-107230356D01*
X178629500Y-107399643D01*
X178655981Y-107566844D01*
X178655982Y-107566847D01*
X178708295Y-107727849D01*
X178785150Y-107878685D01*
X178879750Y-108008891D01*
X178884655Y-108015642D01*
X178884659Y-108015647D01*
X179004353Y-108135341D01*
X179004357Y-108135344D01*
X179004359Y-108135346D01*
X179141315Y-108234850D01*
X179292151Y-108311705D01*
X179453153Y-108364018D01*
X179620356Y-108390500D01*
X179620357Y-108390500D01*
X179789643Y-108390500D01*
X179789644Y-108390500D01*
X179956847Y-108364018D01*
X180117849Y-108311705D01*
X180268685Y-108234850D01*
X180405641Y-108135346D01*
X180405644Y-108135342D01*
X180405647Y-108135341D01*
X180525341Y-108015647D01*
X180525342Y-108015644D01*
X180525346Y-108015641D01*
X180624850Y-107878685D01*
X180701705Y-107727849D01*
X180754018Y-107566847D01*
X180780500Y-107399644D01*
X180780500Y-107230356D01*
X181169500Y-107230356D01*
X181169500Y-107399643D01*
X181195981Y-107566844D01*
X181195982Y-107566847D01*
X181248295Y-107727849D01*
X181325150Y-107878685D01*
X181419750Y-108008891D01*
X181424655Y-108015642D01*
X181424659Y-108015647D01*
X181544353Y-108135341D01*
X181544357Y-108135344D01*
X181544359Y-108135346D01*
X181681315Y-108234850D01*
X181832151Y-108311705D01*
X181993153Y-108364018D01*
X182160356Y-108390500D01*
X182160357Y-108390500D01*
X182329643Y-108390500D01*
X182329644Y-108390500D01*
X182496847Y-108364018D01*
X182657849Y-108311705D01*
X182808685Y-108234850D01*
X182945641Y-108135346D01*
X182945644Y-108135342D01*
X182945647Y-108135341D01*
X183065341Y-108015647D01*
X183065342Y-108015644D01*
X183065346Y-108015641D01*
X183164850Y-107878685D01*
X183241705Y-107727849D01*
X183294018Y-107566847D01*
X183320500Y-107399644D01*
X183320500Y-107230356D01*
X183294018Y-107063153D01*
X183241705Y-106902151D01*
X183164850Y-106751315D01*
X183065346Y-106614359D01*
X183065344Y-106614357D01*
X183065341Y-106614353D01*
X182945647Y-106494659D01*
X182945642Y-106494655D01*
X182945641Y-106494654D01*
X182808685Y-106395150D01*
X182657849Y-106318295D01*
X182657848Y-106318294D01*
X182657847Y-106318294D01*
X182496847Y-106265982D01*
X182496844Y-106265981D01*
X182368402Y-106245638D01*
X182329644Y-106239500D01*
X182160356Y-106239500D01*
X182128891Y-106244483D01*
X181993155Y-106265981D01*
X181993152Y-106265982D01*
X181832152Y-106318294D01*
X181681315Y-106395150D01*
X181544357Y-106494655D01*
X181424655Y-106614357D01*
X181325150Y-106751315D01*
X181248294Y-106902152D01*
X181195982Y-107063152D01*
X181195981Y-107063155D01*
X181169500Y-107230356D01*
X180780500Y-107230356D01*
X180754018Y-107063153D01*
X180701705Y-106902151D01*
X180624850Y-106751315D01*
X180525346Y-106614359D01*
X180525344Y-106614357D01*
X180525341Y-106614353D01*
X180405647Y-106494659D01*
X180405642Y-106494655D01*
X180405641Y-106494654D01*
X180268685Y-106395150D01*
X180117849Y-106318295D01*
X180117848Y-106318294D01*
X180117847Y-106318294D01*
X179956847Y-106265982D01*
X179956844Y-106265981D01*
X179828402Y-106245638D01*
X179789644Y-106239500D01*
X179620356Y-106239500D01*
X179588891Y-106244483D01*
X179453155Y-106265981D01*
X179453152Y-106265982D01*
X179292152Y-106318294D01*
X179141315Y-106395150D01*
X179004357Y-106494655D01*
X178884655Y-106614357D01*
X178785150Y-106751315D01*
X178708294Y-106902152D01*
X178655982Y-107063152D01*
X178655981Y-107063155D01*
X178629500Y-107230356D01*
X145005878Y-107230356D01*
X145026499Y-107153395D01*
X145026500Y-107153395D01*
X145026500Y-107021605D01*
X145026499Y-107021604D01*
X144992392Y-106894315D01*
X144992391Y-106894311D01*
X144926499Y-106780185D01*
X144833314Y-106687000D01*
X144719188Y-106621108D01*
X144719184Y-106621107D01*
X144591895Y-106587000D01*
X144591892Y-106587000D01*
X144460108Y-106587000D01*
X144460105Y-106587000D01*
X144332815Y-106621107D01*
X144332811Y-106621108D01*
X144218685Y-106687000D01*
X144218685Y-106687001D01*
X144125501Y-106780185D01*
X144125500Y-106780185D01*
X144059608Y-106894311D01*
X144059607Y-106894315D01*
X144025500Y-107021604D01*
X142994499Y-107021604D01*
X142960392Y-106894315D01*
X142960391Y-106894311D01*
X142894499Y-106780185D01*
X142801314Y-106687000D01*
X142687188Y-106621108D01*
X142687184Y-106621107D01*
X142559895Y-106587000D01*
X142559892Y-106587000D01*
X142428108Y-106587000D01*
X142428105Y-106587000D01*
X142300815Y-106621107D01*
X142300811Y-106621108D01*
X142186685Y-106687000D01*
X142186685Y-106687001D01*
X142093501Y-106780185D01*
X142093500Y-106780185D01*
X142027608Y-106894311D01*
X142027607Y-106894315D01*
X141993500Y-107021604D01*
X130810000Y-107021604D01*
X130810000Y-106360104D01*
X152661500Y-106360104D01*
X152661500Y-106491895D01*
X152695607Y-106619184D01*
X152695608Y-106619188D01*
X152734761Y-106687001D01*
X152761500Y-106733314D01*
X152854686Y-106826500D01*
X152896457Y-106850617D01*
X152968811Y-106892391D01*
X152968813Y-106892391D01*
X152968814Y-106892392D01*
X153069207Y-106919292D01*
X153096104Y-106926499D01*
X153096105Y-106926500D01*
X153096108Y-106926500D01*
X153227895Y-106926500D01*
X153227895Y-106926499D01*
X153355186Y-106892392D01*
X153469314Y-106826500D01*
X153562500Y-106733314D01*
X153628392Y-106619186D01*
X153662499Y-106491895D01*
X153662500Y-106491895D01*
X153662500Y-106360105D01*
X153662499Y-106360104D01*
X153629753Y-106237895D01*
X153628392Y-106232814D01*
X153562500Y-106118686D01*
X153549918Y-106106104D01*
X162821500Y-106106104D01*
X162821500Y-106237895D01*
X162855607Y-106365184D01*
X162855608Y-106365188D01*
X162921500Y-106479314D01*
X163014686Y-106572500D01*
X163039801Y-106587000D01*
X163128811Y-106638391D01*
X163128813Y-106638391D01*
X163128814Y-106638392D01*
X163229207Y-106665292D01*
X163256104Y-106672499D01*
X163256105Y-106672500D01*
X163256108Y-106672500D01*
X163387895Y-106672500D01*
X163387895Y-106672499D01*
X163515186Y-106638392D01*
X163629314Y-106572500D01*
X163722500Y-106479314D01*
X163788392Y-106365186D01*
X163822499Y-106237895D01*
X163822500Y-106237895D01*
X163822500Y-106106105D01*
X163822499Y-106106104D01*
X163815292Y-106079207D01*
X163788392Y-105978814D01*
X163788391Y-105978813D01*
X163788391Y-105978811D01*
X163722499Y-105864685D01*
X163629314Y-105771500D01*
X163515188Y-105705608D01*
X163515184Y-105705607D01*
X163387895Y-105671500D01*
X163387892Y-105671500D01*
X163256108Y-105671500D01*
X163256105Y-105671500D01*
X163128815Y-105705607D01*
X163128811Y-105705608D01*
X163014685Y-105771500D01*
X163014685Y-105771501D01*
X162921501Y-105864685D01*
X162921500Y-105864685D01*
X162855608Y-105978811D01*
X162855607Y-105978815D01*
X162821500Y-106106104D01*
X153549918Y-106106104D01*
X153469314Y-106025500D01*
X153355188Y-105959608D01*
X153355184Y-105959607D01*
X153227895Y-105925500D01*
X153227892Y-105925500D01*
X153096108Y-105925500D01*
X153096105Y-105925500D01*
X152968815Y-105959607D01*
X152968811Y-105959608D01*
X152854685Y-106025500D01*
X152854685Y-106025501D01*
X152761501Y-106118685D01*
X152761500Y-106118685D01*
X152695608Y-106232811D01*
X152695607Y-106232815D01*
X152661500Y-106360104D01*
X130810000Y-106360104D01*
X130810000Y-105344104D01*
X169933500Y-105344104D01*
X169933500Y-105475895D01*
X169967607Y-105603184D01*
X169967608Y-105603188D01*
X170033500Y-105717314D01*
X170126686Y-105810500D01*
X170150098Y-105824017D01*
X170240811Y-105876391D01*
X170240813Y-105876391D01*
X170240814Y-105876392D01*
X170341207Y-105903292D01*
X170368104Y-105910499D01*
X170368105Y-105910500D01*
X170368108Y-105910500D01*
X170499895Y-105910500D01*
X170499895Y-105910499D01*
X170627186Y-105876392D01*
X170741314Y-105810500D01*
X170834500Y-105717314D01*
X170900392Y-105603186D01*
X170934499Y-105475895D01*
X170934500Y-105475895D01*
X170934500Y-105344105D01*
X170934499Y-105344104D01*
X170900392Y-105216815D01*
X170900391Y-105216811D01*
X170834499Y-105102685D01*
X170741314Y-105009500D01*
X170627188Y-104943608D01*
X170627184Y-104943607D01*
X170499895Y-104909500D01*
X170499892Y-104909500D01*
X170368108Y-104909500D01*
X170368105Y-104909500D01*
X170240815Y-104943607D01*
X170240811Y-104943608D01*
X170126685Y-105009500D01*
X170126685Y-105009501D01*
X170033501Y-105102685D01*
X170033500Y-105102685D01*
X169967608Y-105216811D01*
X169967607Y-105216815D01*
X169933500Y-105344104D01*
X130810000Y-105344104D01*
X130810000Y-105205000D01*
X130824352Y-105170352D01*
X130859000Y-105156000D01*
X136906000Y-105156000D01*
X136906000Y-104328104D01*
X163837500Y-104328104D01*
X163837500Y-104459895D01*
X163871607Y-104587184D01*
X163871608Y-104587188D01*
X163931173Y-104690356D01*
X163937500Y-104701314D01*
X164030686Y-104794500D01*
X164072457Y-104818617D01*
X164144811Y-104860391D01*
X164144813Y-104860391D01*
X164144814Y-104860392D01*
X164245207Y-104887292D01*
X164272104Y-104894499D01*
X164272105Y-104894500D01*
X164272108Y-104894500D01*
X164403895Y-104894500D01*
X164403895Y-104894499D01*
X164531186Y-104860392D01*
X164532484Y-104859643D01*
X164546478Y-104851563D01*
X164645314Y-104794500D01*
X164738500Y-104701314D01*
X164744827Y-104690356D01*
X178629500Y-104690356D01*
X178629500Y-104859644D01*
X178635020Y-104894499D01*
X178655981Y-105026844D01*
X178655982Y-105026847D01*
X178697946Y-105156000D01*
X178708295Y-105187849D01*
X178785150Y-105338685D01*
X178884654Y-105475641D01*
X178884655Y-105475642D01*
X178884659Y-105475647D01*
X179004353Y-105595341D01*
X179004357Y-105595344D01*
X179004359Y-105595346D01*
X179141315Y-105694850D01*
X179292151Y-105771705D01*
X179453153Y-105824018D01*
X179620356Y-105850500D01*
X179620357Y-105850500D01*
X179789643Y-105850500D01*
X179789644Y-105850500D01*
X179956847Y-105824018D01*
X180117849Y-105771705D01*
X180268685Y-105694850D01*
X180405641Y-105595346D01*
X180405644Y-105595342D01*
X180405647Y-105595341D01*
X180525341Y-105475647D01*
X180525342Y-105475644D01*
X180525346Y-105475641D01*
X180624850Y-105338685D01*
X180701705Y-105187849D01*
X180754018Y-105026847D01*
X180780500Y-104859644D01*
X180780500Y-104690356D01*
X181169500Y-104690356D01*
X181169500Y-104859644D01*
X181175020Y-104894499D01*
X181195981Y-105026844D01*
X181195982Y-105026847D01*
X181237946Y-105156000D01*
X181248295Y-105187849D01*
X181325150Y-105338685D01*
X181424654Y-105475641D01*
X181424655Y-105475642D01*
X181424659Y-105475647D01*
X181544353Y-105595341D01*
X181544357Y-105595344D01*
X181544359Y-105595346D01*
X181681315Y-105694850D01*
X181832151Y-105771705D01*
X181993153Y-105824018D01*
X182160356Y-105850500D01*
X182160357Y-105850500D01*
X182329643Y-105850500D01*
X182329644Y-105850500D01*
X182496847Y-105824018D01*
X182657849Y-105771705D01*
X182808685Y-105694850D01*
X182945641Y-105595346D01*
X182945644Y-105595342D01*
X182945647Y-105595341D01*
X183065341Y-105475647D01*
X183065342Y-105475644D01*
X183065346Y-105475641D01*
X183164850Y-105338685D01*
X183241705Y-105187849D01*
X183294018Y-105026847D01*
X183320500Y-104859644D01*
X183320500Y-104690356D01*
X183294018Y-104523153D01*
X183241705Y-104362151D01*
X183164850Y-104211315D01*
X183065346Y-104074359D01*
X183065344Y-104074357D01*
X183065341Y-104074353D01*
X182945647Y-103954659D01*
X182945642Y-103954655D01*
X182908415Y-103927608D01*
X182808685Y-103855150D01*
X182657849Y-103778295D01*
X182657848Y-103778294D01*
X182657847Y-103778294D01*
X182496847Y-103725982D01*
X182496844Y-103725981D01*
X182368402Y-103705638D01*
X182329644Y-103699500D01*
X182160356Y-103699500D01*
X182128891Y-103704483D01*
X181993155Y-103725981D01*
X181993152Y-103725982D01*
X181832152Y-103778294D01*
X181681315Y-103855150D01*
X181544357Y-103954655D01*
X181424655Y-104074357D01*
X181325150Y-104211315D01*
X181248294Y-104362152D01*
X181195982Y-104523152D01*
X181195981Y-104523155D01*
X181185840Y-104587186D01*
X181169500Y-104690356D01*
X180780500Y-104690356D01*
X180754018Y-104523153D01*
X180701705Y-104362151D01*
X180624850Y-104211315D01*
X180525346Y-104074359D01*
X180525344Y-104074357D01*
X180525341Y-104074353D01*
X180405647Y-103954659D01*
X180405642Y-103954655D01*
X180368415Y-103927608D01*
X180268685Y-103855150D01*
X180117849Y-103778295D01*
X180117848Y-103778294D01*
X180117847Y-103778294D01*
X179956847Y-103725982D01*
X179956844Y-103725981D01*
X179828402Y-103705638D01*
X179789644Y-103699500D01*
X179620356Y-103699500D01*
X179588891Y-103704483D01*
X179453155Y-103725981D01*
X179453152Y-103725982D01*
X179292152Y-103778294D01*
X179141315Y-103855150D01*
X179004357Y-103954655D01*
X178884655Y-104074357D01*
X178785150Y-104211315D01*
X178708294Y-104362152D01*
X178655982Y-104523152D01*
X178655981Y-104523155D01*
X178645840Y-104587186D01*
X178629500Y-104690356D01*
X164744827Y-104690356D01*
X164804392Y-104587186D01*
X164838499Y-104459895D01*
X164838500Y-104459895D01*
X164838500Y-104328105D01*
X164838499Y-104328104D01*
X164831292Y-104301207D01*
X164804392Y-104200814D01*
X164804391Y-104200813D01*
X164804391Y-104200811D01*
X164738499Y-104086685D01*
X164645314Y-103993500D01*
X164531188Y-103927608D01*
X164531184Y-103927607D01*
X164403895Y-103893500D01*
X164403892Y-103893500D01*
X164272108Y-103893500D01*
X164272105Y-103893500D01*
X164144815Y-103927607D01*
X164144811Y-103927608D01*
X164030685Y-103993500D01*
X164030685Y-103993501D01*
X163937501Y-104086685D01*
X163937500Y-104086685D01*
X163871608Y-104200811D01*
X163871607Y-104200815D01*
X163837500Y-104328104D01*
X136906000Y-104328104D01*
X136906000Y-102804104D01*
X152661500Y-102804104D01*
X152661500Y-102935895D01*
X152695607Y-103063184D01*
X152695608Y-103063188D01*
X152748530Y-103154849D01*
X152761500Y-103177314D01*
X152854686Y-103270500D01*
X152878098Y-103284017D01*
X152968811Y-103336391D01*
X152968813Y-103336391D01*
X152968814Y-103336392D01*
X153069207Y-103363292D01*
X153096104Y-103370499D01*
X153096105Y-103370500D01*
X153096108Y-103370500D01*
X153227895Y-103370500D01*
X153227895Y-103370499D01*
X153355186Y-103336392D01*
X153469314Y-103270500D01*
X153562500Y-103177314D01*
X153628392Y-103063186D01*
X153662499Y-102935895D01*
X153662500Y-102935895D01*
X153662500Y-102804105D01*
X153662499Y-102804104D01*
X153655292Y-102777207D01*
X153628392Y-102676814D01*
X153562500Y-102562686D01*
X153549918Y-102550104D01*
X171711500Y-102550104D01*
X171711500Y-102681895D01*
X171745607Y-102809184D01*
X171745608Y-102809188D01*
X171811500Y-102923314D01*
X171904686Y-103016500D01*
X171946457Y-103040617D01*
X172018811Y-103082391D01*
X172018813Y-103082391D01*
X172018814Y-103082392D01*
X172044939Y-103089392D01*
X172146104Y-103116499D01*
X172146105Y-103116500D01*
X172146108Y-103116500D01*
X172277895Y-103116500D01*
X172277895Y-103116499D01*
X172405186Y-103082392D01*
X172519314Y-103016500D01*
X172612500Y-102923314D01*
X172678392Y-102809186D01*
X172712499Y-102681895D01*
X172712500Y-102681895D01*
X172712500Y-102550105D01*
X172712499Y-102550104D01*
X172695549Y-102486844D01*
X172678392Y-102422814D01*
X172678391Y-102422813D01*
X172678391Y-102422811D01*
X172636617Y-102350457D01*
X172612500Y-102308686D01*
X172519314Y-102215500D01*
X172476647Y-102190866D01*
X172406484Y-102150356D01*
X178629500Y-102150356D01*
X178629500Y-102319643D01*
X178655981Y-102486844D01*
X178655982Y-102486847D01*
X178676535Y-102550104D01*
X178708295Y-102647849D01*
X178785150Y-102798685D01*
X178808130Y-102830314D01*
X178884655Y-102935642D01*
X178884659Y-102935647D01*
X179004353Y-103055341D01*
X179004357Y-103055344D01*
X179004359Y-103055346D01*
X179141315Y-103154850D01*
X179292151Y-103231705D01*
X179453153Y-103284018D01*
X179620356Y-103310500D01*
X179620357Y-103310500D01*
X179789643Y-103310500D01*
X179789644Y-103310500D01*
X179956847Y-103284018D01*
X180117849Y-103231705D01*
X180268685Y-103154850D01*
X180405641Y-103055346D01*
X180405644Y-103055342D01*
X180405647Y-103055341D01*
X180525341Y-102935647D01*
X180525342Y-102935644D01*
X180525346Y-102935641D01*
X180624850Y-102798685D01*
X180701705Y-102647849D01*
X180754018Y-102486847D01*
X180780500Y-102319644D01*
X180780500Y-102150356D01*
X181169500Y-102150356D01*
X181169500Y-102319643D01*
X181195981Y-102486844D01*
X181195982Y-102486847D01*
X181216535Y-102550104D01*
X181248295Y-102647849D01*
X181325150Y-102798685D01*
X181348130Y-102830314D01*
X181424655Y-102935642D01*
X181424659Y-102935647D01*
X181544353Y-103055341D01*
X181544357Y-103055344D01*
X181544359Y-103055346D01*
X181681315Y-103154850D01*
X181832151Y-103231705D01*
X181993153Y-103284018D01*
X182160356Y-103310500D01*
X182160357Y-103310500D01*
X182329643Y-103310500D01*
X182329644Y-103310500D01*
X182496847Y-103284018D01*
X182657849Y-103231705D01*
X182808685Y-103154850D01*
X182945641Y-103055346D01*
X182945644Y-103055342D01*
X182945647Y-103055341D01*
X183065341Y-102935647D01*
X183065342Y-102935644D01*
X183065346Y-102935641D01*
X183164850Y-102798685D01*
X183241705Y-102647849D01*
X183294018Y-102486847D01*
X183320500Y-102319644D01*
X183320500Y-102150356D01*
X183294018Y-101983153D01*
X183241705Y-101822151D01*
X183164850Y-101671315D01*
X183065346Y-101534359D01*
X183065344Y-101534357D01*
X183065341Y-101534353D01*
X182945647Y-101414659D01*
X182945642Y-101414655D01*
X182850714Y-101345686D01*
X182808685Y-101315150D01*
X182657849Y-101238295D01*
X182657848Y-101238294D01*
X182657847Y-101238294D01*
X182496847Y-101185982D01*
X182496844Y-101185981D01*
X182368402Y-101165638D01*
X182329644Y-101159500D01*
X182160356Y-101159500D01*
X182128891Y-101164483D01*
X181993155Y-101185981D01*
X181993152Y-101185982D01*
X181832152Y-101238294D01*
X181681315Y-101315150D01*
X181544357Y-101414655D01*
X181424655Y-101534357D01*
X181325150Y-101671315D01*
X181248294Y-101822152D01*
X181195982Y-101983152D01*
X181195981Y-101983155D01*
X181169500Y-102150356D01*
X180780500Y-102150356D01*
X180754018Y-101983153D01*
X180701705Y-101822151D01*
X180624850Y-101671315D01*
X180525346Y-101534359D01*
X180525344Y-101534357D01*
X180525341Y-101534353D01*
X180405647Y-101414659D01*
X180405642Y-101414655D01*
X180310714Y-101345686D01*
X180268685Y-101315150D01*
X180117849Y-101238295D01*
X180117848Y-101238294D01*
X180117847Y-101238294D01*
X179956847Y-101185982D01*
X179956844Y-101185981D01*
X179828402Y-101165638D01*
X179789644Y-101159500D01*
X179620356Y-101159500D01*
X179588891Y-101164483D01*
X179453155Y-101185981D01*
X179453152Y-101185982D01*
X179292152Y-101238294D01*
X179141315Y-101315150D01*
X179004357Y-101414655D01*
X178884655Y-101534357D01*
X178785150Y-101671315D01*
X178708294Y-101822152D01*
X178655982Y-101983152D01*
X178655981Y-101983155D01*
X178629500Y-102150356D01*
X172406484Y-102150356D01*
X172405188Y-102149608D01*
X172405184Y-102149607D01*
X172277895Y-102115500D01*
X172277892Y-102115500D01*
X172146108Y-102115500D01*
X172146105Y-102115500D01*
X172018815Y-102149607D01*
X172018811Y-102149608D01*
X171904685Y-102215500D01*
X171904685Y-102215501D01*
X171811501Y-102308685D01*
X171811500Y-102308685D01*
X171745608Y-102422811D01*
X171745607Y-102422815D01*
X171711500Y-102550104D01*
X153549918Y-102550104D01*
X153469314Y-102469500D01*
X153355188Y-102403608D01*
X153355184Y-102403607D01*
X153227895Y-102369500D01*
X153227892Y-102369500D01*
X153096108Y-102369500D01*
X153096105Y-102369500D01*
X152968815Y-102403607D01*
X152968811Y-102403608D01*
X152854685Y-102469500D01*
X152854685Y-102469501D01*
X152761501Y-102562685D01*
X152761500Y-102562685D01*
X152695608Y-102676811D01*
X152695607Y-102676815D01*
X152661500Y-102804104D01*
X136906000Y-102804104D01*
X136906000Y-101079104D01*
X141993500Y-101079104D01*
X141993500Y-101210895D01*
X142027607Y-101338184D01*
X142027608Y-101338188D01*
X142093500Y-101452314D01*
X142186686Y-101545500D01*
X142228457Y-101569617D01*
X142300811Y-101611391D01*
X142300813Y-101611391D01*
X142300814Y-101611392D01*
X142401207Y-101638292D01*
X142428104Y-101645499D01*
X142428105Y-101645500D01*
X142428108Y-101645500D01*
X142559895Y-101645500D01*
X142559895Y-101645499D01*
X142687186Y-101611392D01*
X142801314Y-101545500D01*
X142894500Y-101452314D01*
X142956062Y-101345686D01*
X142960391Y-101338188D01*
X142960391Y-101338187D01*
X142960392Y-101338186D01*
X142994499Y-101210895D01*
X142994500Y-101210895D01*
X142994500Y-101079105D01*
X142994499Y-101079104D01*
X144025500Y-101079104D01*
X144025500Y-101210895D01*
X144059607Y-101338184D01*
X144059608Y-101338188D01*
X144125500Y-101452314D01*
X144218686Y-101545500D01*
X144260457Y-101569617D01*
X144332811Y-101611391D01*
X144332813Y-101611391D01*
X144332814Y-101611392D01*
X144433207Y-101638292D01*
X144460104Y-101645499D01*
X144460105Y-101645500D01*
X144460108Y-101645500D01*
X144591895Y-101645500D01*
X144591895Y-101645499D01*
X144719186Y-101611392D01*
X144761254Y-101587104D01*
X160027500Y-101587104D01*
X160027500Y-101718895D01*
X160061607Y-101846184D01*
X160061608Y-101846188D01*
X160127500Y-101960314D01*
X160220686Y-102053500D01*
X160262457Y-102077617D01*
X160334811Y-102119391D01*
X160334813Y-102119391D01*
X160334814Y-102119392D01*
X160435207Y-102146292D01*
X160462104Y-102153499D01*
X160462105Y-102153500D01*
X160462108Y-102153500D01*
X160593895Y-102153500D01*
X160593895Y-102153499D01*
X160721186Y-102119392D01*
X160835314Y-102053500D01*
X160928500Y-101960314D01*
X160994392Y-101846186D01*
X161028499Y-101718895D01*
X161028500Y-101718895D01*
X161028500Y-101587105D01*
X161028499Y-101587104D01*
X161014366Y-101534359D01*
X160994392Y-101459814D01*
X160994391Y-101459813D01*
X160994391Y-101459811D01*
X160928499Y-101345685D01*
X160835314Y-101252500D01*
X160721188Y-101186608D01*
X160721184Y-101186607D01*
X160593895Y-101152500D01*
X160593892Y-101152500D01*
X160462108Y-101152500D01*
X160462105Y-101152500D01*
X160334815Y-101186607D01*
X160334811Y-101186608D01*
X160220685Y-101252500D01*
X160220685Y-101252501D01*
X160127501Y-101345685D01*
X160127500Y-101345685D01*
X160061608Y-101459811D01*
X160061607Y-101459815D01*
X160027500Y-101587104D01*
X144761254Y-101587104D01*
X144833314Y-101545500D01*
X144926500Y-101452314D01*
X144988062Y-101345686D01*
X144992391Y-101338188D01*
X144992391Y-101338187D01*
X144992392Y-101338186D01*
X145026499Y-101210895D01*
X145026500Y-101210895D01*
X145026500Y-101079105D01*
X145026499Y-101079104D01*
X144992392Y-100951815D01*
X144992391Y-100951811D01*
X144926499Y-100837685D01*
X144833314Y-100744500D01*
X144719188Y-100678608D01*
X144719184Y-100678607D01*
X144591895Y-100644500D01*
X144591892Y-100644500D01*
X144460108Y-100644500D01*
X144460105Y-100644500D01*
X144332815Y-100678607D01*
X144332811Y-100678608D01*
X144218685Y-100744500D01*
X144218685Y-100744501D01*
X144125501Y-100837685D01*
X144125500Y-100837685D01*
X144059608Y-100951811D01*
X144059607Y-100951815D01*
X144025500Y-101079104D01*
X142994499Y-101079104D01*
X142960392Y-100951815D01*
X142960391Y-100951811D01*
X142894499Y-100837685D01*
X142801314Y-100744500D01*
X142687188Y-100678608D01*
X142687184Y-100678607D01*
X142559895Y-100644500D01*
X142559892Y-100644500D01*
X142428108Y-100644500D01*
X142428105Y-100644500D01*
X142300815Y-100678607D01*
X142300811Y-100678608D01*
X142186685Y-100744500D01*
X142186685Y-100744501D01*
X142093501Y-100837685D01*
X142093500Y-100837685D01*
X142027608Y-100951811D01*
X142027607Y-100951815D01*
X141993500Y-101079104D01*
X136906000Y-101079104D01*
X136906000Y-99555104D01*
X158249500Y-99555104D01*
X158249500Y-99686895D01*
X158283607Y-99814184D01*
X158283608Y-99814188D01*
X158349500Y-99928314D01*
X158442686Y-100021500D01*
X158467801Y-100036000D01*
X158556811Y-100087391D01*
X158556813Y-100087391D01*
X158556814Y-100087392D01*
X158657207Y-100114292D01*
X158684104Y-100121499D01*
X158684105Y-100121500D01*
X158684108Y-100121500D01*
X158815895Y-100121500D01*
X158815895Y-100121499D01*
X158943186Y-100087392D01*
X159057314Y-100021500D01*
X159150500Y-99928314D01*
X159216392Y-99814186D01*
X159250499Y-99686895D01*
X159250500Y-99686895D01*
X159250500Y-99555105D01*
X159250499Y-99555104D01*
X159237659Y-99507184D01*
X159216392Y-99427814D01*
X159216391Y-99427813D01*
X159216391Y-99427811D01*
X159150499Y-99313685D01*
X159084918Y-99248104D01*
X171711500Y-99248104D01*
X171711500Y-99379895D01*
X171745607Y-99507184D01*
X171745608Y-99507188D01*
X171805173Y-99610356D01*
X171811500Y-99621314D01*
X171904686Y-99714500D01*
X171946457Y-99738617D01*
X172018811Y-99780391D01*
X172018813Y-99780391D01*
X172018814Y-99780392D01*
X172119207Y-99807292D01*
X172146104Y-99814499D01*
X172146105Y-99814500D01*
X172146108Y-99814500D01*
X172277895Y-99814500D01*
X172277895Y-99814499D01*
X172405186Y-99780392D01*
X172406484Y-99779643D01*
X172420478Y-99771563D01*
X172519314Y-99714500D01*
X172612500Y-99621314D01*
X172618827Y-99610356D01*
X178629500Y-99610356D01*
X178629500Y-99779644D01*
X178634971Y-99814184D01*
X178655981Y-99946844D01*
X178655982Y-99946847D01*
X178701647Y-100087391D01*
X178708295Y-100107849D01*
X178785150Y-100258685D01*
X178884654Y-100395641D01*
X178884655Y-100395642D01*
X178884659Y-100395647D01*
X179004353Y-100515341D01*
X179004357Y-100515344D01*
X179004359Y-100515346D01*
X179141315Y-100614850D01*
X179292151Y-100691705D01*
X179453153Y-100744018D01*
X179620356Y-100770500D01*
X179620357Y-100770500D01*
X179789643Y-100770500D01*
X179789644Y-100770500D01*
X179956847Y-100744018D01*
X180117849Y-100691705D01*
X180268685Y-100614850D01*
X180405641Y-100515346D01*
X180405644Y-100515342D01*
X180405647Y-100515341D01*
X180525341Y-100395647D01*
X180525342Y-100395644D01*
X180525346Y-100395641D01*
X180624850Y-100258685D01*
X180701705Y-100107849D01*
X180754018Y-99946847D01*
X180780500Y-99779644D01*
X180780500Y-99610356D01*
X181169500Y-99610356D01*
X181169500Y-99779644D01*
X181174971Y-99814184D01*
X181195981Y-99946844D01*
X181195982Y-99946847D01*
X181241647Y-100087391D01*
X181248295Y-100107849D01*
X181325150Y-100258685D01*
X181424654Y-100395641D01*
X181424655Y-100395642D01*
X181424659Y-100395647D01*
X181544353Y-100515341D01*
X181544357Y-100515344D01*
X181544359Y-100515346D01*
X181681315Y-100614850D01*
X181832151Y-100691705D01*
X181993153Y-100744018D01*
X182160356Y-100770500D01*
X182160357Y-100770500D01*
X182329643Y-100770500D01*
X182329644Y-100770500D01*
X182496847Y-100744018D01*
X182657849Y-100691705D01*
X182808685Y-100614850D01*
X182945641Y-100515346D01*
X182945644Y-100515342D01*
X182945647Y-100515341D01*
X183065341Y-100395647D01*
X183065342Y-100395644D01*
X183065346Y-100395641D01*
X183164850Y-100258685D01*
X183241705Y-100107849D01*
X183294018Y-99946847D01*
X183320500Y-99779644D01*
X183320500Y-99610356D01*
X183294018Y-99443153D01*
X183241705Y-99282151D01*
X183164850Y-99131315D01*
X183065346Y-98994359D01*
X183065344Y-98994357D01*
X183065341Y-98994353D01*
X182945647Y-98874659D01*
X182945642Y-98874655D01*
X182908415Y-98847608D01*
X182808685Y-98775150D01*
X182657849Y-98698295D01*
X182657848Y-98698294D01*
X182657847Y-98698294D01*
X182496847Y-98645982D01*
X182496844Y-98645981D01*
X182368402Y-98625638D01*
X182329644Y-98619500D01*
X182160356Y-98619500D01*
X182128891Y-98624483D01*
X181993155Y-98645981D01*
X181993152Y-98645982D01*
X181832152Y-98698294D01*
X181681315Y-98775150D01*
X181544357Y-98874655D01*
X181424655Y-98994357D01*
X181325150Y-99131315D01*
X181248294Y-99282152D01*
X181195982Y-99443152D01*
X181195981Y-99443155D01*
X181185840Y-99507186D01*
X181169500Y-99610356D01*
X180780500Y-99610356D01*
X180754018Y-99443153D01*
X180701705Y-99282151D01*
X180624850Y-99131315D01*
X180525346Y-98994359D01*
X180525344Y-98994357D01*
X180525341Y-98994353D01*
X180405647Y-98874659D01*
X180405642Y-98874655D01*
X180368415Y-98847608D01*
X180268685Y-98775150D01*
X180117849Y-98698295D01*
X180117848Y-98698294D01*
X180117847Y-98698294D01*
X179956847Y-98645982D01*
X179956844Y-98645981D01*
X179828402Y-98625638D01*
X179789644Y-98619500D01*
X179620356Y-98619500D01*
X179588891Y-98624483D01*
X179453155Y-98645981D01*
X179453152Y-98645982D01*
X179292152Y-98698294D01*
X179141315Y-98775150D01*
X179004357Y-98874655D01*
X178884655Y-98994357D01*
X178785150Y-99131315D01*
X178708294Y-99282152D01*
X178655982Y-99443152D01*
X178655981Y-99443155D01*
X178645840Y-99507186D01*
X178629500Y-99610356D01*
X172618827Y-99610356D01*
X172678392Y-99507186D01*
X172712499Y-99379895D01*
X172712500Y-99379895D01*
X172712500Y-99248105D01*
X172712499Y-99248104D01*
X172687447Y-99154607D01*
X172678392Y-99120814D01*
X172678391Y-99120813D01*
X172678391Y-99120811D01*
X172612499Y-99006685D01*
X172519314Y-98913500D01*
X172405188Y-98847608D01*
X172405184Y-98847607D01*
X172277895Y-98813500D01*
X172277892Y-98813500D01*
X172146108Y-98813500D01*
X172146105Y-98813500D01*
X172018815Y-98847607D01*
X172018811Y-98847608D01*
X171904685Y-98913500D01*
X171904685Y-98913501D01*
X171811501Y-99006685D01*
X171811500Y-99006685D01*
X171745608Y-99120811D01*
X171745607Y-99120815D01*
X171711500Y-99248104D01*
X159084918Y-99248104D01*
X159057314Y-99220500D01*
X158943188Y-99154608D01*
X158943184Y-99154607D01*
X158815895Y-99120500D01*
X158815892Y-99120500D01*
X158684108Y-99120500D01*
X158684105Y-99120500D01*
X158556815Y-99154607D01*
X158556811Y-99154608D01*
X158442685Y-99220500D01*
X158442685Y-99220501D01*
X158349501Y-99313685D01*
X158349500Y-99313685D01*
X158283608Y-99427811D01*
X158283607Y-99427815D01*
X158249500Y-99555104D01*
X136906000Y-99555104D01*
X136906000Y-97724104D01*
X144279500Y-97724104D01*
X144279500Y-97855895D01*
X144313607Y-97983184D01*
X144313608Y-97983188D01*
X144366530Y-98074849D01*
X144379500Y-98097314D01*
X144472686Y-98190500D01*
X144496098Y-98204017D01*
X144586811Y-98256391D01*
X144586813Y-98256391D01*
X144586814Y-98256392D01*
X144687207Y-98283292D01*
X144714104Y-98290499D01*
X144714105Y-98290500D01*
X144714108Y-98290500D01*
X144845895Y-98290500D01*
X144845895Y-98290499D01*
X144973186Y-98256392D01*
X145015254Y-98232104D01*
X149105500Y-98232104D01*
X149105500Y-98363895D01*
X149139607Y-98491184D01*
X149139608Y-98491188D01*
X149205500Y-98605314D01*
X149298686Y-98698500D01*
X149340457Y-98722617D01*
X149412811Y-98764391D01*
X149412813Y-98764391D01*
X149412814Y-98764392D01*
X149452964Y-98775150D01*
X149540104Y-98798499D01*
X149540105Y-98798500D01*
X149540108Y-98798500D01*
X149671895Y-98798500D01*
X149671895Y-98798499D01*
X149799186Y-98764392D01*
X149913314Y-98698500D01*
X150006500Y-98605314D01*
X150072392Y-98491186D01*
X150106499Y-98363895D01*
X150106500Y-98363895D01*
X150106500Y-98232105D01*
X150106499Y-98232104D01*
X150072392Y-98104815D01*
X150072391Y-98104811D01*
X150006499Y-97990685D01*
X149913314Y-97897500D01*
X149799188Y-97831608D01*
X149799184Y-97831607D01*
X149671895Y-97797500D01*
X149671892Y-97797500D01*
X149540108Y-97797500D01*
X149540105Y-97797500D01*
X149412815Y-97831607D01*
X149412811Y-97831608D01*
X149298685Y-97897500D01*
X149298685Y-97897501D01*
X149205501Y-97990685D01*
X149205500Y-97990685D01*
X149139608Y-98104811D01*
X149139607Y-98104815D01*
X149105500Y-98232104D01*
X145015254Y-98232104D01*
X145087314Y-98190500D01*
X145180500Y-98097314D01*
X145242062Y-97990686D01*
X145246391Y-97983188D01*
X145246391Y-97983187D01*
X145246392Y-97983186D01*
X145280499Y-97855895D01*
X145280500Y-97855895D01*
X145280500Y-97724105D01*
X145280499Y-97724104D01*
X145271612Y-97690939D01*
X145246392Y-97596814D01*
X145246391Y-97596813D01*
X145246391Y-97596811D01*
X145180499Y-97482685D01*
X145087314Y-97389500D01*
X144973188Y-97323608D01*
X144973184Y-97323607D01*
X144845895Y-97289500D01*
X144845892Y-97289500D01*
X144714108Y-97289500D01*
X144714105Y-97289500D01*
X144586815Y-97323607D01*
X144586811Y-97323608D01*
X144472685Y-97389500D01*
X144472685Y-97389501D01*
X144379501Y-97482685D01*
X144379500Y-97482685D01*
X144313608Y-97596811D01*
X144313607Y-97596815D01*
X144279500Y-97724104D01*
X136906000Y-97724104D01*
X136906000Y-97585000D01*
X136920352Y-97550352D01*
X136955000Y-97536000D01*
X137080069Y-97536000D01*
X137108869Y-97545357D01*
X137110796Y-97546757D01*
X137110800Y-97546759D01*
X137110801Y-97546760D01*
X137279168Y-97632547D01*
X137458882Y-97690940D01*
X137645519Y-97720500D01*
X137645520Y-97720500D01*
X137834480Y-97720500D01*
X137834481Y-97720500D01*
X138021118Y-97690940D01*
X138200832Y-97632547D01*
X138369199Y-97546760D01*
X138369434Y-97546588D01*
X138371131Y-97545357D01*
X138399931Y-97536000D01*
X141580069Y-97536000D01*
X141608869Y-97545357D01*
X141610796Y-97546757D01*
X141610800Y-97546759D01*
X141610801Y-97546760D01*
X141779168Y-97632547D01*
X141958882Y-97690940D01*
X142145519Y-97720500D01*
X142145520Y-97720500D01*
X142334480Y-97720500D01*
X142334481Y-97720500D01*
X142521118Y-97690940D01*
X142700832Y-97632547D01*
X142869199Y-97546760D01*
X142869434Y-97546588D01*
X142871131Y-97545357D01*
X142899931Y-97536000D01*
X143764000Y-97536000D01*
X143764000Y-97070356D01*
X178629500Y-97070356D01*
X178629500Y-97239643D01*
X178655981Y-97406844D01*
X178655982Y-97406847D01*
X178701442Y-97546760D01*
X178708295Y-97567849D01*
X178785150Y-97718685D01*
X178867193Y-97831608D01*
X178884655Y-97855642D01*
X178884659Y-97855647D01*
X179004353Y-97975341D01*
X179004357Y-97975344D01*
X179004359Y-97975346D01*
X179141315Y-98074850D01*
X179292151Y-98151705D01*
X179453153Y-98204018D01*
X179620356Y-98230500D01*
X179620357Y-98230500D01*
X179789643Y-98230500D01*
X179789644Y-98230500D01*
X179956847Y-98204018D01*
X180117849Y-98151705D01*
X180268685Y-98074850D01*
X180405641Y-97975346D01*
X180405644Y-97975342D01*
X180405647Y-97975341D01*
X180525341Y-97855647D01*
X180525342Y-97855644D01*
X180525346Y-97855641D01*
X180624850Y-97718685D01*
X180701705Y-97567849D01*
X180754018Y-97406847D01*
X180780500Y-97239644D01*
X180780500Y-97070356D01*
X181169500Y-97070356D01*
X181169500Y-97239643D01*
X181195981Y-97406844D01*
X181195982Y-97406847D01*
X181241442Y-97546760D01*
X181248295Y-97567849D01*
X181325150Y-97718685D01*
X181407193Y-97831608D01*
X181424655Y-97855642D01*
X181424659Y-97855647D01*
X181544353Y-97975341D01*
X181544357Y-97975344D01*
X181544359Y-97975346D01*
X181681315Y-98074850D01*
X181832151Y-98151705D01*
X181993153Y-98204018D01*
X182160356Y-98230500D01*
X182160357Y-98230500D01*
X182329643Y-98230500D01*
X182329644Y-98230500D01*
X182496847Y-98204018D01*
X182657849Y-98151705D01*
X182808685Y-98074850D01*
X182945641Y-97975346D01*
X182945644Y-97975342D01*
X182945647Y-97975341D01*
X183065341Y-97855647D01*
X183065342Y-97855644D01*
X183065346Y-97855641D01*
X183164850Y-97718685D01*
X183241705Y-97567849D01*
X183294018Y-97406847D01*
X183320500Y-97239644D01*
X183320500Y-97070356D01*
X183294018Y-96903153D01*
X183241705Y-96742151D01*
X183164850Y-96591315D01*
X183065346Y-96454359D01*
X183065344Y-96454357D01*
X183065341Y-96454353D01*
X182945647Y-96334659D01*
X182945642Y-96334655D01*
X182945641Y-96334654D01*
X182808685Y-96235150D01*
X182657849Y-96158295D01*
X182657848Y-96158294D01*
X182657847Y-96158294D01*
X182496847Y-96105982D01*
X182496844Y-96105981D01*
X182368402Y-96085638D01*
X182329644Y-96079500D01*
X182160356Y-96079500D01*
X182128891Y-96084483D01*
X181993155Y-96105981D01*
X181993152Y-96105982D01*
X181832152Y-96158294D01*
X181681315Y-96235150D01*
X181544357Y-96334655D01*
X181424655Y-96454357D01*
X181325150Y-96591315D01*
X181248294Y-96742152D01*
X181195982Y-96903152D01*
X181195981Y-96903155D01*
X181169500Y-97070356D01*
X180780500Y-97070356D01*
X180754018Y-96903153D01*
X180701705Y-96742151D01*
X180624850Y-96591315D01*
X180525346Y-96454359D01*
X180525344Y-96454357D01*
X180525341Y-96454353D01*
X180405647Y-96334659D01*
X180405642Y-96334655D01*
X180405641Y-96334654D01*
X180268685Y-96235150D01*
X180117849Y-96158295D01*
X180117848Y-96158294D01*
X180117847Y-96158294D01*
X179956847Y-96105982D01*
X179956844Y-96105981D01*
X179828402Y-96085638D01*
X179789644Y-96079500D01*
X179620356Y-96079500D01*
X179588891Y-96084483D01*
X179453155Y-96105981D01*
X179453152Y-96105982D01*
X179292152Y-96158294D01*
X179141315Y-96235150D01*
X179004357Y-96334655D01*
X178884655Y-96454357D01*
X178785150Y-96591315D01*
X178708294Y-96742152D01*
X178655982Y-96903152D01*
X178655981Y-96903155D01*
X178629500Y-97070356D01*
X143764000Y-97070356D01*
X143764000Y-95946104D01*
X171711500Y-95946104D01*
X171711500Y-96077895D01*
X171745607Y-96205184D01*
X171745608Y-96205188D01*
X171765062Y-96238882D01*
X171811500Y-96319314D01*
X171904686Y-96412500D01*
X171927236Y-96425519D01*
X172018811Y-96478391D01*
X172018813Y-96478391D01*
X172018814Y-96478392D01*
X172119207Y-96505292D01*
X172146104Y-96512499D01*
X172146105Y-96512500D01*
X172146108Y-96512500D01*
X172277895Y-96512500D01*
X172277895Y-96512499D01*
X172405186Y-96478392D01*
X172519314Y-96412500D01*
X172612500Y-96319314D01*
X172678392Y-96205186D01*
X172712499Y-96077895D01*
X172712500Y-96077895D01*
X172712500Y-95946105D01*
X172712499Y-95946104D01*
X172678392Y-95818815D01*
X172678391Y-95818811D01*
X172612499Y-95704685D01*
X172519314Y-95611500D01*
X172405188Y-95545608D01*
X172405184Y-95545607D01*
X172277895Y-95511500D01*
X172277892Y-95511500D01*
X172146108Y-95511500D01*
X172146105Y-95511500D01*
X172018815Y-95545607D01*
X172018811Y-95545608D01*
X171904685Y-95611500D01*
X171904685Y-95611501D01*
X171811501Y-95704685D01*
X171811500Y-95704685D01*
X171745608Y-95818811D01*
X171745607Y-95818815D01*
X171711500Y-95946104D01*
X143764000Y-95946104D01*
X143764000Y-92094252D01*
X145761500Y-92094252D01*
X145761500Y-93833748D01*
X145773133Y-93892231D01*
X145787748Y-93914104D01*
X145817447Y-93958552D01*
X145844012Y-93976301D01*
X145883769Y-94002867D01*
X145942252Y-94014500D01*
X145942255Y-94014500D01*
X147681745Y-94014500D01*
X147681748Y-94014500D01*
X147740231Y-94002867D01*
X147806552Y-93958552D01*
X147836252Y-93914104D01*
X149105500Y-93914104D01*
X149105500Y-94045895D01*
X149139607Y-94173184D01*
X149139608Y-94173188D01*
X149205500Y-94287314D01*
X149298686Y-94380500D01*
X149340457Y-94404617D01*
X149412811Y-94446391D01*
X149412813Y-94446391D01*
X149412814Y-94446392D01*
X149513207Y-94473292D01*
X149540104Y-94480499D01*
X149540105Y-94480500D01*
X149540108Y-94480500D01*
X149671894Y-94480500D01*
X149735539Y-94463446D01*
X149799186Y-94446392D01*
X149913314Y-94380500D01*
X150006500Y-94287314D01*
X150072392Y-94173186D01*
X150106499Y-94045895D01*
X150106500Y-94045895D01*
X150106500Y-93914105D01*
X150106499Y-93914104D01*
X150074493Y-93794655D01*
X150072392Y-93786814D01*
X150072391Y-93786813D01*
X150072391Y-93786811D01*
X150030617Y-93714457D01*
X150006500Y-93672686D01*
X149913314Y-93579500D01*
X149799188Y-93513608D01*
X149799184Y-93513607D01*
X149671895Y-93479500D01*
X149671892Y-93479500D01*
X149540108Y-93479500D01*
X149540105Y-93479500D01*
X149412815Y-93513607D01*
X149412811Y-93513608D01*
X149298685Y-93579500D01*
X149298685Y-93579501D01*
X149205501Y-93672685D01*
X149205500Y-93672685D01*
X149139608Y-93786811D01*
X149139607Y-93786815D01*
X149105500Y-93914104D01*
X147836252Y-93914104D01*
X147850867Y-93892231D01*
X147862500Y-93833748D01*
X147862500Y-92094252D01*
X147850867Y-92035769D01*
X147828698Y-92002591D01*
X147821677Y-91992083D01*
X147806552Y-91969447D01*
X147802568Y-91966785D01*
X178330000Y-91966785D01*
X178330000Y-92183214D01*
X178363856Y-92396977D01*
X178363857Y-92396980D01*
X178430736Y-92602815D01*
X178528994Y-92795656D01*
X178571829Y-92854616D01*
X179181212Y-92245233D01*
X179192482Y-92287292D01*
X179264890Y-92412708D01*
X179367292Y-92515110D01*
X179492708Y-92587518D01*
X179534765Y-92598787D01*
X178925382Y-93208169D01*
X178984343Y-93251005D01*
X179177184Y-93349263D01*
X179383019Y-93416142D01*
X179383022Y-93416143D01*
X179585544Y-93448219D01*
X179617521Y-93467814D01*
X179626276Y-93504281D01*
X179606681Y-93536258D01*
X179585544Y-93545013D01*
X179453155Y-93565981D01*
X179453152Y-93565982D01*
X179292152Y-93618294D01*
X179141315Y-93695150D01*
X179004357Y-93794655D01*
X178884655Y-93914357D01*
X178785150Y-94051315D01*
X178708294Y-94202152D01*
X178655982Y-94363152D01*
X178655981Y-94363155D01*
X178629500Y-94530356D01*
X178629500Y-94699643D01*
X178655981Y-94866844D01*
X178655982Y-94866847D01*
X178708295Y-95027849D01*
X178785150Y-95178685D01*
X178884654Y-95315641D01*
X178884655Y-95315642D01*
X178884659Y-95315647D01*
X179004353Y-95435341D01*
X179004357Y-95435344D01*
X179004359Y-95435346D01*
X179141315Y-95534850D01*
X179292151Y-95611705D01*
X179453153Y-95664018D01*
X179620356Y-95690500D01*
X179620357Y-95690500D01*
X179789643Y-95690500D01*
X179789644Y-95690500D01*
X179956847Y-95664018D01*
X180117849Y-95611705D01*
X180268685Y-95534850D01*
X180405641Y-95435346D01*
X180405644Y-95435342D01*
X180405647Y-95435341D01*
X180525341Y-95315647D01*
X180525342Y-95315644D01*
X180525346Y-95315641D01*
X180624850Y-95178685D01*
X180701705Y-95027849D01*
X180754018Y-94866847D01*
X180780500Y-94699644D01*
X180780500Y-94530356D01*
X180754018Y-94363153D01*
X180701705Y-94202151D01*
X180624850Y-94051315D01*
X180525346Y-93914359D01*
X180525344Y-93914357D01*
X180525341Y-93914353D01*
X180405647Y-93794659D01*
X180405642Y-93794655D01*
X180405641Y-93794654D01*
X180268685Y-93695150D01*
X180117849Y-93618295D01*
X180117848Y-93618294D01*
X180117847Y-93618294D01*
X179956847Y-93565982D01*
X179956844Y-93565981D01*
X179824455Y-93545013D01*
X179792478Y-93525418D01*
X179783723Y-93488951D01*
X179803318Y-93456974D01*
X179824455Y-93448219D01*
X180026977Y-93416143D01*
X180026980Y-93416142D01*
X180232815Y-93349263D01*
X180425653Y-93251007D01*
X180484615Y-93208168D01*
X179875234Y-92598787D01*
X179917292Y-92587518D01*
X180042708Y-92515110D01*
X180145110Y-92412708D01*
X180217518Y-92287292D01*
X180228787Y-92245234D01*
X180838168Y-92854615D01*
X180881009Y-92795651D01*
X180931341Y-92696869D01*
X180959858Y-92672512D01*
X180997245Y-92675455D01*
X181018659Y-92696869D01*
X181068992Y-92795654D01*
X181068993Y-92795656D01*
X181111830Y-92854615D01*
X181721212Y-92245233D01*
X181732482Y-92287292D01*
X181804890Y-92412708D01*
X181907292Y-92515110D01*
X182032708Y-92587518D01*
X182074765Y-92598787D01*
X181465382Y-93208169D01*
X181524343Y-93251005D01*
X181717184Y-93349263D01*
X181923019Y-93416142D01*
X181923022Y-93416143D01*
X182125544Y-93448219D01*
X182157521Y-93467814D01*
X182166276Y-93504281D01*
X182146681Y-93536258D01*
X182125544Y-93545013D01*
X181993155Y-93565981D01*
X181993152Y-93565982D01*
X181832152Y-93618294D01*
X181681315Y-93695150D01*
X181544357Y-93794655D01*
X181424655Y-93914357D01*
X181325150Y-94051315D01*
X181248294Y-94202152D01*
X181195982Y-94363152D01*
X181195981Y-94363155D01*
X181169500Y-94530356D01*
X181169500Y-94699643D01*
X181195981Y-94866844D01*
X181195982Y-94866847D01*
X181248295Y-95027849D01*
X181325150Y-95178685D01*
X181424654Y-95315641D01*
X181424655Y-95315642D01*
X181424659Y-95315647D01*
X181544353Y-95435341D01*
X181544357Y-95435344D01*
X181544359Y-95435346D01*
X181681315Y-95534850D01*
X181832151Y-95611705D01*
X181993153Y-95664018D01*
X182160356Y-95690500D01*
X182160357Y-95690500D01*
X182329643Y-95690500D01*
X182329644Y-95690500D01*
X182496847Y-95664018D01*
X182657849Y-95611705D01*
X182808685Y-95534850D01*
X182945641Y-95435346D01*
X182945644Y-95435342D01*
X182945647Y-95435341D01*
X183065341Y-95315647D01*
X183065342Y-95315644D01*
X183065346Y-95315641D01*
X183164850Y-95178685D01*
X183241705Y-95027849D01*
X183294018Y-94866847D01*
X183320500Y-94699644D01*
X183320500Y-94530356D01*
X183294018Y-94363153D01*
X183241705Y-94202151D01*
X183164850Y-94051315D01*
X183065346Y-93914359D01*
X183065344Y-93914357D01*
X183065341Y-93914353D01*
X182945647Y-93794659D01*
X182945642Y-93794655D01*
X182945641Y-93794654D01*
X182808685Y-93695150D01*
X182657849Y-93618295D01*
X182657848Y-93618294D01*
X182657847Y-93618294D01*
X182496847Y-93565982D01*
X182496844Y-93565981D01*
X182364455Y-93545013D01*
X182332478Y-93525418D01*
X182323723Y-93488951D01*
X182343318Y-93456974D01*
X182364455Y-93448219D01*
X182566977Y-93416143D01*
X182566980Y-93416142D01*
X182772815Y-93349263D01*
X182965653Y-93251007D01*
X183024615Y-93208168D01*
X182415234Y-92598787D01*
X182457292Y-92587518D01*
X182582708Y-92515110D01*
X182685110Y-92412708D01*
X182757518Y-92287292D01*
X182768787Y-92245234D01*
X183378168Y-92854615D01*
X183421007Y-92795653D01*
X183519263Y-92602815D01*
X183586142Y-92396980D01*
X183586143Y-92396977D01*
X183620000Y-92183214D01*
X183620000Y-91966785D01*
X183586143Y-91753022D01*
X183586142Y-91753019D01*
X183519263Y-91547184D01*
X183421005Y-91354343D01*
X183378169Y-91295382D01*
X182768787Y-91904764D01*
X182757518Y-91862708D01*
X182685110Y-91737292D01*
X182582708Y-91634890D01*
X182457292Y-91562482D01*
X182415232Y-91551212D01*
X183024616Y-90941829D01*
X182965656Y-90898994D01*
X182772815Y-90800736D01*
X182566980Y-90733857D01*
X182566977Y-90733856D01*
X182353214Y-90700000D01*
X182136786Y-90700000D01*
X181923022Y-90733856D01*
X181923019Y-90733857D01*
X181717184Y-90800736D01*
X181524340Y-90898995D01*
X181524336Y-90898997D01*
X181465383Y-90941829D01*
X181465383Y-90941830D01*
X182074765Y-91551212D01*
X182032708Y-91562482D01*
X181907292Y-91634890D01*
X181804890Y-91737292D01*
X181732482Y-91862708D01*
X181721212Y-91904765D01*
X181111830Y-91295383D01*
X181111829Y-91295383D01*
X181068997Y-91354336D01*
X181068995Y-91354340D01*
X181018659Y-91453130D01*
X180990142Y-91477486D01*
X180952754Y-91474543D01*
X180931341Y-91453130D01*
X180881006Y-91354343D01*
X180838169Y-91295382D01*
X180228787Y-91904764D01*
X180217518Y-91862708D01*
X180145110Y-91737292D01*
X180042708Y-91634890D01*
X179917292Y-91562482D01*
X179875232Y-91551212D01*
X180484616Y-90941829D01*
X180425656Y-90898994D01*
X180232815Y-90800736D01*
X180026980Y-90733857D01*
X180026977Y-90733856D01*
X179813214Y-90700000D01*
X179596786Y-90700000D01*
X179383022Y-90733856D01*
X179383019Y-90733857D01*
X179177184Y-90800736D01*
X178984340Y-90898995D01*
X178984336Y-90898997D01*
X178925383Y-90941829D01*
X178925383Y-90941830D01*
X179534765Y-91551212D01*
X179492708Y-91562482D01*
X179367292Y-91634890D01*
X179264890Y-91737292D01*
X179192482Y-91862708D01*
X179181212Y-91904765D01*
X178571830Y-91295383D01*
X178571829Y-91295383D01*
X178528997Y-91354336D01*
X178528995Y-91354340D01*
X178430736Y-91547184D01*
X178363857Y-91753019D01*
X178363856Y-91753022D01*
X178330000Y-91966785D01*
X147802568Y-91966785D01*
X147766795Y-91942882D01*
X147740231Y-91925133D01*
X147681748Y-91913500D01*
X145942252Y-91913500D01*
X145883769Y-91925133D01*
X145817447Y-91969447D01*
X145773134Y-92035768D01*
X145773133Y-92035769D01*
X145761500Y-92094252D01*
X143764000Y-92094252D01*
X143764000Y-90173999D01*
X145484769Y-90173999D01*
X145484770Y-90174000D01*
X146378988Y-90174000D01*
X146346075Y-90231007D01*
X146312000Y-90358174D01*
X146312000Y-90489826D01*
X146346075Y-90616993D01*
X146378988Y-90674000D01*
X145484769Y-90674000D01*
X145495241Y-90740123D01*
X145495242Y-90740126D01*
X145560905Y-90942218D01*
X145657377Y-91131553D01*
X145782279Y-91303467D01*
X145782283Y-91303472D01*
X145932528Y-91453717D01*
X145932532Y-91453720D01*
X146104446Y-91578622D01*
X146293781Y-91675094D01*
X146495873Y-91740757D01*
X146495876Y-91740758D01*
X146561999Y-91751230D01*
X146562000Y-91751230D01*
X146562000Y-90857012D01*
X146619007Y-90889925D01*
X146746174Y-90924000D01*
X146877826Y-90924000D01*
X147004993Y-90889925D01*
X147062000Y-90857012D01*
X147062000Y-91751230D01*
X147128123Y-91740758D01*
X147128126Y-91740757D01*
X147330218Y-91675094D01*
X147519553Y-91578622D01*
X147691467Y-91453720D01*
X147691472Y-91453717D01*
X147841717Y-91303472D01*
X147841720Y-91303467D01*
X147966622Y-91131553D01*
X148063094Y-90942218D01*
X148128757Y-90740126D01*
X148128758Y-90740123D01*
X148138581Y-90678104D01*
X153266500Y-90678104D01*
X153266500Y-90809895D01*
X153300607Y-90937184D01*
X153300608Y-90937188D01*
X153363871Y-91046760D01*
X153366500Y-91051314D01*
X153459686Y-91144500D01*
X153501457Y-91168617D01*
X153573811Y-91210391D01*
X153573813Y-91210391D01*
X153573814Y-91210392D01*
X153674207Y-91237292D01*
X153701104Y-91244499D01*
X153701105Y-91244500D01*
X153701108Y-91244500D01*
X153832895Y-91244500D01*
X153832895Y-91244499D01*
X153960186Y-91210392D01*
X154074314Y-91144500D01*
X154167500Y-91051314D01*
X154233392Y-90937186D01*
X154267499Y-90809895D01*
X154267500Y-90809895D01*
X154267500Y-90678105D01*
X154267499Y-90678104D01*
X157681500Y-90678104D01*
X157681500Y-90809895D01*
X157715607Y-90937184D01*
X157715608Y-90937188D01*
X157778871Y-91046760D01*
X157781500Y-91051314D01*
X157874686Y-91144500D01*
X157916457Y-91168617D01*
X157988811Y-91210391D01*
X157988813Y-91210391D01*
X157988814Y-91210392D01*
X158089207Y-91237292D01*
X158116104Y-91244499D01*
X158116105Y-91244500D01*
X158116108Y-91244500D01*
X158247895Y-91244500D01*
X158247895Y-91244499D01*
X158375186Y-91210392D01*
X158489314Y-91144500D01*
X158582500Y-91051314D01*
X158648392Y-90937186D01*
X158682499Y-90809895D01*
X158682500Y-90809895D01*
X158682500Y-90678105D01*
X158682499Y-90678104D01*
X161999500Y-90678104D01*
X161999500Y-90809895D01*
X162033607Y-90937184D01*
X162033608Y-90937188D01*
X162096871Y-91046760D01*
X162099500Y-91051314D01*
X162192686Y-91144500D01*
X162234457Y-91168617D01*
X162306811Y-91210391D01*
X162306813Y-91210391D01*
X162306814Y-91210392D01*
X162407207Y-91237292D01*
X162434104Y-91244499D01*
X162434105Y-91244500D01*
X162434108Y-91244500D01*
X162565895Y-91244500D01*
X162565895Y-91244499D01*
X162693186Y-91210392D01*
X162807314Y-91144500D01*
X162900500Y-91051314D01*
X162966392Y-90937186D01*
X163000499Y-90809895D01*
X163000500Y-90809895D01*
X163000500Y-90739104D01*
X169044500Y-90739104D01*
X169044500Y-90870895D01*
X169078607Y-90998184D01*
X169078608Y-90998188D01*
X169109282Y-91051315D01*
X169144500Y-91112314D01*
X169237686Y-91205500D01*
X169263667Y-91220500D01*
X169351811Y-91271391D01*
X169351813Y-91271391D01*
X169351814Y-91271392D01*
X169452207Y-91298292D01*
X169479104Y-91305499D01*
X169479105Y-91305500D01*
X169479108Y-91305500D01*
X169610895Y-91305500D01*
X169610895Y-91305499D01*
X169738186Y-91271392D01*
X169852314Y-91205500D01*
X169945500Y-91112314D01*
X170011392Y-90998186D01*
X170026389Y-90942218D01*
X170045499Y-90870895D01*
X170045500Y-90870895D01*
X170045500Y-90739105D01*
X170045499Y-90739104D01*
X170029154Y-90678104D01*
X170011392Y-90611814D01*
X170011391Y-90611813D01*
X170011391Y-90611811D01*
X169945499Y-90497685D01*
X169852314Y-90404500D01*
X169738188Y-90338608D01*
X169738184Y-90338607D01*
X169610895Y-90304500D01*
X169610892Y-90304500D01*
X169479108Y-90304500D01*
X169479105Y-90304500D01*
X169351815Y-90338607D01*
X169351811Y-90338608D01*
X169237685Y-90404500D01*
X169237685Y-90404501D01*
X169144501Y-90497685D01*
X169144500Y-90497685D01*
X169078608Y-90611811D01*
X169078607Y-90611815D01*
X169044500Y-90739104D01*
X163000500Y-90739104D01*
X163000500Y-90678105D01*
X163000499Y-90678104D01*
X162966392Y-90550815D01*
X162966391Y-90550811D01*
X162900499Y-90436685D01*
X162807314Y-90343500D01*
X162693188Y-90277608D01*
X162693184Y-90277607D01*
X162565895Y-90243500D01*
X162565892Y-90243500D01*
X162434108Y-90243500D01*
X162434105Y-90243500D01*
X162306815Y-90277607D01*
X162306811Y-90277608D01*
X162192685Y-90343500D01*
X162192685Y-90343501D01*
X162099501Y-90436685D01*
X162099500Y-90436685D01*
X162033608Y-90550811D01*
X162033607Y-90550815D01*
X161999500Y-90678104D01*
X158682499Y-90678104D01*
X158648392Y-90550815D01*
X158648391Y-90550811D01*
X158582499Y-90436685D01*
X158489314Y-90343500D01*
X158375188Y-90277608D01*
X158375184Y-90277607D01*
X158247895Y-90243500D01*
X158247892Y-90243500D01*
X158116108Y-90243500D01*
X158116105Y-90243500D01*
X157988815Y-90277607D01*
X157988811Y-90277608D01*
X157874685Y-90343500D01*
X157874685Y-90343501D01*
X157781501Y-90436685D01*
X157781500Y-90436685D01*
X157715608Y-90550811D01*
X157715607Y-90550815D01*
X157681500Y-90678104D01*
X154267499Y-90678104D01*
X154233392Y-90550815D01*
X154233391Y-90550811D01*
X154167499Y-90436685D01*
X154074314Y-90343500D01*
X153960188Y-90277608D01*
X153960184Y-90277607D01*
X153832895Y-90243500D01*
X153832892Y-90243500D01*
X153701108Y-90243500D01*
X153701105Y-90243500D01*
X153573815Y-90277607D01*
X153573811Y-90277608D01*
X153459685Y-90343500D01*
X153459685Y-90343501D01*
X153366501Y-90436685D01*
X153366500Y-90436685D01*
X153300608Y-90550811D01*
X153300607Y-90550815D01*
X153266500Y-90678104D01*
X148138581Y-90678104D01*
X148139231Y-90674000D01*
X147245012Y-90674000D01*
X147277925Y-90616993D01*
X147312000Y-90489826D01*
X147312000Y-90358174D01*
X147277925Y-90231007D01*
X147245012Y-90174000D01*
X148139230Y-90174000D01*
X148139230Y-90173999D01*
X148128758Y-90107876D01*
X148128757Y-90107873D01*
X148063094Y-89905781D01*
X147966622Y-89716446D01*
X147841720Y-89544532D01*
X147841717Y-89544528D01*
X147691472Y-89394283D01*
X147691467Y-89394279D01*
X147519553Y-89269377D01*
X147330218Y-89172905D01*
X147128133Y-89107244D01*
X147128129Y-89107243D01*
X147062000Y-89096768D01*
X147062000Y-89990988D01*
X147004993Y-89958075D01*
X146877826Y-89924000D01*
X146746174Y-89924000D01*
X146619007Y-89958075D01*
X146562000Y-89990988D01*
X146562000Y-89096768D01*
X146495870Y-89107243D01*
X146495866Y-89107244D01*
X146293781Y-89172905D01*
X146104446Y-89269377D01*
X145932532Y-89394279D01*
X145782279Y-89544532D01*
X145657377Y-89716446D01*
X145560905Y-89905781D01*
X145495242Y-90107873D01*
X145495241Y-90107876D01*
X145484769Y-90173999D01*
X143764000Y-90173999D01*
X143764000Y-88199104D01*
X151899500Y-88199104D01*
X151899500Y-88330895D01*
X151933607Y-88458184D01*
X151933608Y-88458188D01*
X151999500Y-88572314D01*
X152092686Y-88665500D01*
X152134457Y-88689617D01*
X152206811Y-88731391D01*
X152206813Y-88731391D01*
X152206814Y-88731392D01*
X152307207Y-88758292D01*
X152334104Y-88765499D01*
X152334105Y-88765500D01*
X152334108Y-88765500D01*
X152465895Y-88765500D01*
X152465895Y-88765499D01*
X152593186Y-88731392D01*
X152707314Y-88665500D01*
X152800500Y-88572314D01*
X152866392Y-88458186D01*
X152900499Y-88330895D01*
X152900500Y-88330895D01*
X152900500Y-88199105D01*
X152900499Y-88199104D01*
X158884500Y-88199104D01*
X158884500Y-88330895D01*
X158918607Y-88458184D01*
X158918608Y-88458188D01*
X158984500Y-88572314D01*
X159077686Y-88665500D01*
X159119457Y-88689617D01*
X159191811Y-88731391D01*
X159191813Y-88731391D01*
X159191814Y-88731392D01*
X159292207Y-88758292D01*
X159319104Y-88765499D01*
X159319105Y-88765500D01*
X159319108Y-88765500D01*
X159450895Y-88765500D01*
X159450895Y-88765499D01*
X159578186Y-88731392D01*
X159692314Y-88665500D01*
X159785500Y-88572314D01*
X159851392Y-88458186D01*
X159885499Y-88330895D01*
X159885500Y-88330895D01*
X159885500Y-88199105D01*
X159885499Y-88199104D01*
X159851392Y-88071815D01*
X159851391Y-88071811D01*
X159785499Y-87957685D01*
X159692314Y-87864500D01*
X159578188Y-87798608D01*
X159578184Y-87798607D01*
X159450895Y-87764500D01*
X159450892Y-87764500D01*
X159319108Y-87764500D01*
X159319105Y-87764500D01*
X159191815Y-87798607D01*
X159191811Y-87798608D01*
X159077685Y-87864500D01*
X159077685Y-87864501D01*
X158984501Y-87957685D01*
X158984500Y-87957685D01*
X158918608Y-88071811D01*
X158918607Y-88071815D01*
X158884500Y-88199104D01*
X152900499Y-88199104D01*
X152866392Y-88071815D01*
X152866391Y-88071811D01*
X152800499Y-87957685D01*
X152707314Y-87864500D01*
X152593188Y-87798608D01*
X152593184Y-87798607D01*
X152465895Y-87764500D01*
X152465892Y-87764500D01*
X152334108Y-87764500D01*
X152334105Y-87764500D01*
X152206815Y-87798607D01*
X152206811Y-87798608D01*
X152092685Y-87864500D01*
X152092685Y-87864501D01*
X151999501Y-87957685D01*
X151999500Y-87957685D01*
X151933608Y-88071811D01*
X151933607Y-88071815D01*
X151899500Y-88199104D01*
X143764000Y-88199104D01*
X143764000Y-87425000D01*
X143778352Y-87390352D01*
X143813000Y-87376000D01*
X184355000Y-87376000D01*
X184389648Y-87390352D01*
G37*
G04 #@! TD.AperFunction*
G04 #@! TA.AperFunction,Conductor*
G36*
X185961748Y-73525625D02*
G01*
X186169905Y-73540513D01*
X186176825Y-73541508D01*
X186379029Y-73585494D01*
X186385736Y-73587462D01*
X186579641Y-73659785D01*
X186585992Y-73662687D01*
X186767622Y-73761864D01*
X186773488Y-73765634D01*
X186939159Y-73889654D01*
X186944442Y-73894232D01*
X187090767Y-74040557D01*
X187095345Y-74045840D01*
X187219363Y-74211508D01*
X187223140Y-74217385D01*
X187322310Y-74399003D01*
X187325215Y-74405362D01*
X187397536Y-74599262D01*
X187399505Y-74605970D01*
X187443491Y-74808174D01*
X187444486Y-74815094D01*
X187459375Y-75023252D01*
X187459500Y-75026748D01*
X187459500Y-85041000D01*
X187445148Y-85075648D01*
X187410500Y-85090000D01*
X183429500Y-85090000D01*
X183394852Y-85075648D01*
X183380500Y-85041000D01*
X183380500Y-85024105D01*
X183380499Y-85024104D01*
X183346392Y-84896815D01*
X183346391Y-84896811D01*
X183280499Y-84782685D01*
X183187314Y-84689500D01*
X183073188Y-84623608D01*
X183073184Y-84623607D01*
X182945895Y-84589500D01*
X182945892Y-84589500D01*
X182814108Y-84589500D01*
X182814105Y-84589500D01*
X182686815Y-84623607D01*
X182686811Y-84623608D01*
X182572685Y-84689500D01*
X182572685Y-84689501D01*
X182479501Y-84782685D01*
X182479500Y-84782685D01*
X182413608Y-84896811D01*
X182413607Y-84896815D01*
X182379500Y-85024104D01*
X182379500Y-85041000D01*
X182365148Y-85075648D01*
X182330500Y-85090000D01*
X139700000Y-85090000D01*
X139700000Y-92661000D01*
X139685648Y-92695648D01*
X139651000Y-92710000D01*
X135890000Y-92710000D01*
X135890000Y-103456000D01*
X135875648Y-103490648D01*
X135841000Y-103505000D01*
X128270000Y-103505000D01*
X128270000Y-110441000D01*
X128255648Y-110475648D01*
X128221000Y-110490000D01*
X118659500Y-110490000D01*
X118624852Y-110475648D01*
X118610500Y-110441000D01*
X118610500Y-99629104D01*
X119514500Y-99629104D01*
X119514500Y-99760895D01*
X119548607Y-99888184D01*
X119548608Y-99888188D01*
X119603349Y-99983000D01*
X119614500Y-100002314D01*
X119707686Y-100095500D01*
X119729075Y-100107849D01*
X119821811Y-100161391D01*
X119821813Y-100161391D01*
X119821814Y-100161392D01*
X119922207Y-100188292D01*
X119949104Y-100195499D01*
X119949105Y-100195500D01*
X119949108Y-100195500D01*
X120080895Y-100195500D01*
X120080895Y-100195499D01*
X120208186Y-100161392D01*
X120322314Y-100095500D01*
X120415500Y-100002314D01*
X120481392Y-99888186D01*
X120515499Y-99760895D01*
X120515500Y-99760895D01*
X120515500Y-99629105D01*
X120515499Y-99629104D01*
X120481392Y-99501815D01*
X120481391Y-99501811D01*
X120415499Y-99387685D01*
X120322314Y-99294500D01*
X120208188Y-99228608D01*
X120208184Y-99228607D01*
X120080895Y-99194500D01*
X120080892Y-99194500D01*
X119949108Y-99194500D01*
X119949105Y-99194500D01*
X119821815Y-99228607D01*
X119821811Y-99228608D01*
X119707685Y-99294500D01*
X119707685Y-99294501D01*
X119614501Y-99387685D01*
X119614500Y-99387685D01*
X119548608Y-99501811D01*
X119548607Y-99501815D01*
X119514500Y-99629104D01*
X118610500Y-99629104D01*
X118610500Y-89469104D01*
X125864500Y-89469104D01*
X125864500Y-89600895D01*
X125898607Y-89728184D01*
X125898608Y-89728188D01*
X125964500Y-89842314D01*
X126057686Y-89935500D01*
X126099457Y-89959617D01*
X126171811Y-90001391D01*
X126171813Y-90001391D01*
X126171814Y-90001392D01*
X126272207Y-90028292D01*
X126299104Y-90035499D01*
X126299105Y-90035500D01*
X126299108Y-90035500D01*
X126430895Y-90035500D01*
X126430895Y-90035499D01*
X126558186Y-90001392D01*
X126672314Y-89935500D01*
X126682295Y-89925519D01*
X136539500Y-89925519D01*
X136539500Y-90114480D01*
X136569059Y-90301115D01*
X136569060Y-90301118D01*
X136627453Y-90480833D01*
X136713236Y-90649193D01*
X136713239Y-90649197D01*
X136713240Y-90649199D01*
X136824310Y-90802073D01*
X136824312Y-90802075D01*
X136824315Y-90802079D01*
X136957920Y-90935684D01*
X136957923Y-90935686D01*
X136957927Y-90935690D01*
X137110801Y-91046760D01*
X137110803Y-91046761D01*
X137110806Y-91046763D01*
X137239458Y-91112314D01*
X137279168Y-91132547D01*
X137458882Y-91190940D01*
X137645519Y-91220500D01*
X137645520Y-91220500D01*
X137834480Y-91220500D01*
X137834481Y-91220500D01*
X138021118Y-91190940D01*
X138200832Y-91132547D01*
X138369199Y-91046760D01*
X138522073Y-90935690D01*
X138655690Y-90802073D01*
X138766760Y-90649199D01*
X138852547Y-90480832D01*
X138910940Y-90301118D01*
X138940500Y-90114481D01*
X138940500Y-89925519D01*
X138910940Y-89738882D01*
X138852547Y-89559168D01*
X138818863Y-89493059D01*
X138766763Y-89390806D01*
X138766761Y-89390803D01*
X138766760Y-89390801D01*
X138655690Y-89237927D01*
X138655686Y-89237923D01*
X138655684Y-89237920D01*
X138522079Y-89104315D01*
X138522080Y-89104315D01*
X138369193Y-88993236D01*
X138200833Y-88907453D01*
X138021118Y-88849060D01*
X138021115Y-88849059D01*
X137877744Y-88826352D01*
X137834481Y-88819500D01*
X137645519Y-88819500D01*
X137610397Y-88825062D01*
X137458884Y-88849059D01*
X137458881Y-88849060D01*
X137279166Y-88907453D01*
X137110806Y-88993236D01*
X136957920Y-89104315D01*
X136824315Y-89237920D01*
X136713236Y-89390806D01*
X136627453Y-89559166D01*
X136569060Y-89738881D01*
X136569059Y-89738884D01*
X136539500Y-89925519D01*
X126682295Y-89925519D01*
X126765500Y-89842314D01*
X126822563Y-89743478D01*
X126831391Y-89728188D01*
X126831391Y-89728187D01*
X126831392Y-89728186D01*
X126865499Y-89600895D01*
X126865500Y-89600895D01*
X126865500Y-89469105D01*
X126865499Y-89469104D01*
X126831392Y-89341815D01*
X126831391Y-89341811D01*
X126789617Y-89269457D01*
X126765500Y-89227686D01*
X126672314Y-89134500D01*
X126558188Y-89068608D01*
X126558184Y-89068607D01*
X126430895Y-89034500D01*
X126430892Y-89034500D01*
X126299108Y-89034500D01*
X126299105Y-89034500D01*
X126171815Y-89068607D01*
X126171811Y-89068608D01*
X126057685Y-89134500D01*
X126057685Y-89134501D01*
X125964501Y-89227685D01*
X125964500Y-89227685D01*
X125898608Y-89341811D01*
X125898607Y-89341815D01*
X125864500Y-89469104D01*
X118610500Y-89469104D01*
X118610500Y-78700604D01*
X131045000Y-78700604D01*
X131045000Y-78832395D01*
X131079107Y-78959684D01*
X131079108Y-78959688D01*
X131145000Y-79073814D01*
X131238186Y-79167000D01*
X131279957Y-79191117D01*
X131352311Y-79232891D01*
X131352313Y-79232891D01*
X131352314Y-79232892D01*
X131452707Y-79259792D01*
X131479604Y-79266999D01*
X131479605Y-79267000D01*
X131479608Y-79267000D01*
X131611395Y-79267000D01*
X131611395Y-79266999D01*
X131738686Y-79232892D01*
X131852814Y-79167000D01*
X131891852Y-79127962D01*
X131926500Y-79113610D01*
X131961148Y-79127962D01*
X132000186Y-79167000D01*
X132041957Y-79191117D01*
X132114311Y-79232891D01*
X132114313Y-79232891D01*
X132114314Y-79232892D01*
X132214707Y-79259792D01*
X132241604Y-79266999D01*
X132241605Y-79267000D01*
X132241608Y-79267000D01*
X132373395Y-79267000D01*
X132373395Y-79266999D01*
X132500686Y-79232892D01*
X132614814Y-79167000D01*
X132708000Y-79073814D01*
X132773892Y-78959686D01*
X132807999Y-78832395D01*
X132808000Y-78832395D01*
X132808000Y-78700605D01*
X132807999Y-78700604D01*
X132773892Y-78573315D01*
X132773891Y-78573311D01*
X132707999Y-78459185D01*
X132614814Y-78366000D01*
X132500688Y-78300108D01*
X132500684Y-78300107D01*
X132373395Y-78266000D01*
X132373392Y-78266000D01*
X132241608Y-78266000D01*
X132241605Y-78266000D01*
X132114315Y-78300107D01*
X132114311Y-78300108D01*
X132000185Y-78366000D01*
X132000185Y-78366001D01*
X131961148Y-78405038D01*
X131926500Y-78419390D01*
X131891852Y-78405038D01*
X131852814Y-78366000D01*
X131738688Y-78300108D01*
X131738684Y-78300107D01*
X131611395Y-78266000D01*
X131611392Y-78266000D01*
X131479608Y-78266000D01*
X131479605Y-78266000D01*
X131352315Y-78300107D01*
X131352311Y-78300108D01*
X131238185Y-78366000D01*
X131238185Y-78366001D01*
X131145001Y-78459185D01*
X131145000Y-78459185D01*
X131079108Y-78573311D01*
X131079107Y-78573315D01*
X131045000Y-78700604D01*
X118610500Y-78700604D01*
X118610500Y-77404104D01*
X151899500Y-77404104D01*
X151899500Y-77535895D01*
X151933607Y-77663184D01*
X151933608Y-77663188D01*
X151999500Y-77777314D01*
X152092686Y-77870500D01*
X152134457Y-77894617D01*
X152206811Y-77936391D01*
X152206813Y-77936391D01*
X152206814Y-77936392D01*
X152307207Y-77963292D01*
X152334104Y-77970499D01*
X152334105Y-77970500D01*
X152334108Y-77970500D01*
X152465895Y-77970500D01*
X152465895Y-77970499D01*
X152593186Y-77936392D01*
X152707314Y-77870500D01*
X152800500Y-77777314D01*
X152866392Y-77663186D01*
X152900499Y-77535895D01*
X152900500Y-77535895D01*
X152900500Y-77404105D01*
X152900499Y-77404104D01*
X165869500Y-77404104D01*
X165869500Y-77535895D01*
X165903607Y-77663184D01*
X165903608Y-77663188D01*
X165969500Y-77777314D01*
X166062686Y-77870500D01*
X166104457Y-77894617D01*
X166176811Y-77936391D01*
X166176813Y-77936391D01*
X166176814Y-77936392D01*
X166277207Y-77963292D01*
X166304104Y-77970499D01*
X166304105Y-77970500D01*
X166304108Y-77970500D01*
X166435895Y-77970500D01*
X166435895Y-77970499D01*
X166563186Y-77936392D01*
X166677314Y-77870500D01*
X166770500Y-77777314D01*
X166836392Y-77663186D01*
X166870499Y-77535895D01*
X166870500Y-77535895D01*
X166870500Y-77404105D01*
X166870499Y-77404104D01*
X179839500Y-77404104D01*
X179839500Y-77535895D01*
X179873607Y-77663184D01*
X179873608Y-77663188D01*
X179939500Y-77777314D01*
X180032686Y-77870500D01*
X180074457Y-77894617D01*
X180146811Y-77936391D01*
X180146813Y-77936391D01*
X180146814Y-77936392D01*
X180247207Y-77963292D01*
X180274104Y-77970499D01*
X180274105Y-77970500D01*
X180274108Y-77970500D01*
X180405895Y-77970500D01*
X180405895Y-77970499D01*
X180533186Y-77936392D01*
X180647314Y-77870500D01*
X180740500Y-77777314D01*
X180806392Y-77663186D01*
X180840499Y-77535895D01*
X180840500Y-77535895D01*
X180840500Y-77404105D01*
X180840499Y-77404104D01*
X180806392Y-77276815D01*
X180806391Y-77276811D01*
X180740499Y-77162685D01*
X180647314Y-77069500D01*
X180533188Y-77003608D01*
X180533184Y-77003607D01*
X180405895Y-76969500D01*
X180405892Y-76969500D01*
X180274108Y-76969500D01*
X180274105Y-76969500D01*
X180146815Y-77003607D01*
X180146811Y-77003608D01*
X180032685Y-77069500D01*
X180032685Y-77069501D01*
X179939501Y-77162685D01*
X179939500Y-77162685D01*
X179873608Y-77276811D01*
X179873607Y-77276815D01*
X179839500Y-77404104D01*
X166870499Y-77404104D01*
X166836392Y-77276815D01*
X166836391Y-77276811D01*
X166770499Y-77162685D01*
X166677314Y-77069500D01*
X166563188Y-77003608D01*
X166563184Y-77003607D01*
X166435895Y-76969500D01*
X166435892Y-76969500D01*
X166304108Y-76969500D01*
X166304105Y-76969500D01*
X166176815Y-77003607D01*
X166176811Y-77003608D01*
X166062685Y-77069500D01*
X166062685Y-77069501D01*
X165969501Y-77162685D01*
X165969500Y-77162685D01*
X165903608Y-77276811D01*
X165903607Y-77276815D01*
X165869500Y-77404104D01*
X152900499Y-77404104D01*
X152866392Y-77276815D01*
X152866391Y-77276811D01*
X152800499Y-77162685D01*
X152707314Y-77069500D01*
X152593188Y-77003608D01*
X152593184Y-77003607D01*
X152465895Y-76969500D01*
X152465892Y-76969500D01*
X152334108Y-76969500D01*
X152334105Y-76969500D01*
X152206815Y-77003607D01*
X152206811Y-77003608D01*
X152092685Y-77069500D01*
X152092685Y-77069501D01*
X151999501Y-77162685D01*
X151999500Y-77162685D01*
X151933608Y-77276811D01*
X151933607Y-77276815D01*
X151899500Y-77404104D01*
X118610500Y-77404104D01*
X118610500Y-75026748D01*
X118610625Y-75023252D01*
X118625513Y-74815094D01*
X118626508Y-74808174D01*
X118670494Y-74605970D01*
X118672463Y-74599262D01*
X118682091Y-74573449D01*
X118744788Y-74405353D01*
X118747684Y-74399012D01*
X118846868Y-74217370D01*
X118850629Y-74211517D01*
X118974660Y-74045832D01*
X118979225Y-74040564D01*
X119125564Y-73894225D01*
X119130832Y-73889660D01*
X119296517Y-73765629D01*
X119302370Y-73761868D01*
X119484012Y-73662684D01*
X119490353Y-73659788D01*
X119684266Y-73587461D01*
X119690966Y-73585495D01*
X119893174Y-73541507D01*
X119900094Y-73540513D01*
X120108252Y-73525625D01*
X120111748Y-73525500D01*
X120175892Y-73525500D01*
X185894108Y-73525500D01*
X185958252Y-73525500D01*
X185961748Y-73525625D01*
G37*
G04 #@! TD.AperFunction*
M02*
