G04 #@! TF.GenerationSoftware,KiCad,Pcbnew,9.0.0*
G04 #@! TF.CreationDate,2025-07-06T15:52:53-05:00*
G04 #@! TF.ProjectId,silver-platter,73696c76-6572-42d7-906c-61747465722e,rev?*
G04 #@! TF.SameCoordinates,Original*
G04 #@! TF.FileFunction,Legend,Top*
G04 #@! TF.FilePolarity,Positive*
%FSLAX46Y46*%
G04 Gerber Fmt 4.6, Leading zero omitted, Abs format (unit mm)*
G04 Created by KiCad (PCBNEW 9.0.0) date 2025-07-06 15:52:53*
%MOMM*%
%LPD*%
G01*
G04 APERTURE LIST*
%ADD10C,0.100000*%
%ADD11C,0.153000*%
%ADD12C,0.200000*%
%ADD13C,0.150000*%
%ADD14C,0.120000*%
G04 APERTURE END LIST*
D10*
X170815000Y-118110000D02*
X170815000Y-118745000D01*
D11*
X165862000Y-101600000D02*
X162560000Y-101600000D01*
D10*
X119380000Y-91440000D02*
X120480000Y-91440000D01*
X120880000Y-91440000D02*
X121980000Y-91440000D01*
X122380000Y-91440000D02*
X123480000Y-91440000D01*
X123880000Y-91440000D02*
X124980000Y-91440000D01*
X125380000Y-91440000D02*
X126480000Y-91440000D01*
X126880000Y-91440000D02*
X127980000Y-91440000D01*
X128380000Y-91440000D02*
X129480000Y-91440000D01*
X129880000Y-91440000D02*
X130980000Y-91440000D01*
X131380000Y-91440000D02*
X132080000Y-91440000D01*
X132080000Y-91440000D02*
X132080000Y-92540000D01*
X132080000Y-92940000D02*
X132080000Y-94040000D01*
X132080000Y-94440000D02*
X132080000Y-95540000D01*
X132080000Y-95940000D02*
X132080000Y-97040000D01*
X132080000Y-97440000D02*
X132080000Y-97790000D01*
X132080000Y-97790000D02*
X130980000Y-97790000D01*
X130580000Y-97790000D02*
X129480000Y-97790000D01*
X129080000Y-97790000D02*
X127980000Y-97790000D01*
X127580000Y-97790000D02*
X126480000Y-97790000D01*
X126080000Y-97790000D02*
X124980000Y-97790000D01*
X124580000Y-97790000D02*
X123480000Y-97790000D01*
X123080000Y-97790000D02*
X121980000Y-97790000D01*
X121580000Y-97790000D02*
X120480000Y-97790000D01*
X120080000Y-97790000D02*
X119380000Y-97790000D01*
X119380000Y-97790000D02*
X119380000Y-96690000D01*
X119380000Y-96290000D02*
X119380000Y-95190000D01*
X119380000Y-94790000D02*
X119380000Y-93690000D01*
X119380000Y-93290000D02*
X119380000Y-92190000D01*
X119380000Y-91790000D02*
X119380000Y-91440000D01*
X125095000Y-103505000D02*
X125730000Y-103505000D01*
X139065000Y-81915000D02*
X187325000Y-81915000D01*
D11*
X162560000Y-98298000D02*
X162560000Y-100330000D01*
D10*
X130175000Y-118110000D02*
X155575000Y-118110000D01*
D11*
X162560000Y-94996000D02*
X162560000Y-97028000D01*
X162560000Y-100330000D02*
X165862000Y-100330000D01*
X165862000Y-98298000D02*
X162560000Y-98298000D01*
X165862000Y-94996000D02*
X162560000Y-94996000D01*
D10*
X155575000Y-118110000D02*
X155575000Y-118745000D01*
D11*
X162560000Y-101600000D02*
X162560000Y-103632000D01*
D10*
X125730000Y-103505000D02*
X125730000Y-125095000D01*
D11*
X162560000Y-103632000D02*
X165862000Y-103632000D01*
X162560000Y-97028000D02*
X165862000Y-97028000D01*
D10*
X158115000Y-118110000D02*
X170815000Y-118110000D01*
X158115000Y-118745000D02*
X158115000Y-118110000D01*
X139065000Y-81280000D02*
X139065000Y-81915000D01*
X187325000Y-81915000D02*
X187325000Y-81280000D01*
X125095000Y-125095000D02*
X125730000Y-125095000D01*
X130175000Y-118745000D02*
X130175000Y-118110000D01*
D11*
X160993752Y-117979663D02*
X160993752Y-116979663D01*
X160993752Y-116979663D02*
X161231847Y-116979663D01*
X161231847Y-116979663D02*
X161374704Y-117027282D01*
X161374704Y-117027282D02*
X161469942Y-117122520D01*
X161469942Y-117122520D02*
X161517561Y-117217758D01*
X161517561Y-117217758D02*
X161565180Y-117408234D01*
X161565180Y-117408234D02*
X161565180Y-117551091D01*
X161565180Y-117551091D02*
X161517561Y-117741567D01*
X161517561Y-117741567D02*
X161469942Y-117836805D01*
X161469942Y-117836805D02*
X161374704Y-117932044D01*
X161374704Y-117932044D02*
X161231847Y-117979663D01*
X161231847Y-117979663D02*
X160993752Y-117979663D01*
X161946133Y-117932044D02*
X162088990Y-117979663D01*
X162088990Y-117979663D02*
X162327085Y-117979663D01*
X162327085Y-117979663D02*
X162422323Y-117932044D01*
X162422323Y-117932044D02*
X162469942Y-117884424D01*
X162469942Y-117884424D02*
X162517561Y-117789186D01*
X162517561Y-117789186D02*
X162517561Y-117693948D01*
X162517561Y-117693948D02*
X162469942Y-117598710D01*
X162469942Y-117598710D02*
X162422323Y-117551091D01*
X162422323Y-117551091D02*
X162327085Y-117503472D01*
X162327085Y-117503472D02*
X162136609Y-117455853D01*
X162136609Y-117455853D02*
X162041371Y-117408234D01*
X162041371Y-117408234D02*
X161993752Y-117360615D01*
X161993752Y-117360615D02*
X161946133Y-117265377D01*
X161946133Y-117265377D02*
X161946133Y-117170139D01*
X161946133Y-117170139D02*
X161993752Y-117074901D01*
X161993752Y-117074901D02*
X162041371Y-117027282D01*
X162041371Y-117027282D02*
X162136609Y-116979663D01*
X162136609Y-116979663D02*
X162374704Y-116979663D01*
X162374704Y-116979663D02*
X162517561Y-117027282D01*
X162946133Y-117979663D02*
X162946133Y-116979663D01*
X163374704Y-117979663D02*
X163374704Y-117455853D01*
X163374704Y-117455853D02*
X163327085Y-117360615D01*
X163327085Y-117360615D02*
X163231847Y-117312996D01*
X163231847Y-117312996D02*
X163088990Y-117312996D01*
X163088990Y-117312996D02*
X162993752Y-117360615D01*
X162993752Y-117360615D02*
X162946133Y-117408234D01*
X163993752Y-117979663D02*
X163898514Y-117932044D01*
X163898514Y-117932044D02*
X163850895Y-117884424D01*
X163850895Y-117884424D02*
X163803276Y-117789186D01*
X163803276Y-117789186D02*
X163803276Y-117503472D01*
X163803276Y-117503472D02*
X163850895Y-117408234D01*
X163850895Y-117408234D02*
X163898514Y-117360615D01*
X163898514Y-117360615D02*
X163993752Y-117312996D01*
X163993752Y-117312996D02*
X164136609Y-117312996D01*
X164136609Y-117312996D02*
X164231847Y-117360615D01*
X164231847Y-117360615D02*
X164279466Y-117408234D01*
X164279466Y-117408234D02*
X164327085Y-117503472D01*
X164327085Y-117503472D02*
X164327085Y-117789186D01*
X164327085Y-117789186D02*
X164279466Y-117884424D01*
X164279466Y-117884424D02*
X164231847Y-117932044D01*
X164231847Y-117932044D02*
X164136609Y-117979663D01*
X164136609Y-117979663D02*
X163993752Y-117979663D01*
X164612800Y-117312996D02*
X164993752Y-117312996D01*
X164755657Y-116979663D02*
X164755657Y-117836805D01*
X164755657Y-117836805D02*
X164803276Y-117932044D01*
X164803276Y-117932044D02*
X164898514Y-117979663D01*
X164898514Y-117979663D02*
X164993752Y-117979663D01*
X166088991Y-117455853D02*
X166422324Y-117455853D01*
X166565181Y-117979663D02*
X166088991Y-117979663D01*
X166088991Y-117979663D02*
X166088991Y-116979663D01*
X166088991Y-116979663D02*
X166565181Y-116979663D01*
X166946134Y-117932044D02*
X167088991Y-117979663D01*
X167088991Y-117979663D02*
X167327086Y-117979663D01*
X167327086Y-117979663D02*
X167422324Y-117932044D01*
X167422324Y-117932044D02*
X167469943Y-117884424D01*
X167469943Y-117884424D02*
X167517562Y-117789186D01*
X167517562Y-117789186D02*
X167517562Y-117693948D01*
X167517562Y-117693948D02*
X167469943Y-117598710D01*
X167469943Y-117598710D02*
X167422324Y-117551091D01*
X167422324Y-117551091D02*
X167327086Y-117503472D01*
X167327086Y-117503472D02*
X167136610Y-117455853D01*
X167136610Y-117455853D02*
X167041372Y-117408234D01*
X167041372Y-117408234D02*
X166993753Y-117360615D01*
X166993753Y-117360615D02*
X166946134Y-117265377D01*
X166946134Y-117265377D02*
X166946134Y-117170139D01*
X166946134Y-117170139D02*
X166993753Y-117074901D01*
X166993753Y-117074901D02*
X167041372Y-117027282D01*
X167041372Y-117027282D02*
X167136610Y-116979663D01*
X167136610Y-116979663D02*
X167374705Y-116979663D01*
X167374705Y-116979663D02*
X167517562Y-117027282D01*
X168517562Y-117884424D02*
X168469943Y-117932044D01*
X168469943Y-117932044D02*
X168327086Y-117979663D01*
X168327086Y-117979663D02*
X168231848Y-117979663D01*
X168231848Y-117979663D02*
X168088991Y-117932044D01*
X168088991Y-117932044D02*
X167993753Y-117836805D01*
X167993753Y-117836805D02*
X167946134Y-117741567D01*
X167946134Y-117741567D02*
X167898515Y-117551091D01*
X167898515Y-117551091D02*
X167898515Y-117408234D01*
X167898515Y-117408234D02*
X167946134Y-117217758D01*
X167946134Y-117217758D02*
X167993753Y-117122520D01*
X167993753Y-117122520D02*
X168088991Y-117027282D01*
X168088991Y-117027282D02*
X168231848Y-116979663D01*
X168231848Y-116979663D02*
X168327086Y-116979663D01*
X168327086Y-116979663D02*
X168469943Y-117027282D01*
X168469943Y-117027282D02*
X168517562Y-117074901D01*
X138721133Y-125552044D02*
X138863990Y-125599663D01*
X138863990Y-125599663D02*
X139102085Y-125599663D01*
X139102085Y-125599663D02*
X139197323Y-125552044D01*
X139197323Y-125552044D02*
X139244942Y-125504424D01*
X139244942Y-125504424D02*
X139292561Y-125409186D01*
X139292561Y-125409186D02*
X139292561Y-125313948D01*
X139292561Y-125313948D02*
X139244942Y-125218710D01*
X139244942Y-125218710D02*
X139197323Y-125171091D01*
X139197323Y-125171091D02*
X139102085Y-125123472D01*
X139102085Y-125123472D02*
X138911609Y-125075853D01*
X138911609Y-125075853D02*
X138816371Y-125028234D01*
X138816371Y-125028234D02*
X138768752Y-124980615D01*
X138768752Y-124980615D02*
X138721133Y-124885377D01*
X138721133Y-124885377D02*
X138721133Y-124790139D01*
X138721133Y-124790139D02*
X138768752Y-124694901D01*
X138768752Y-124694901D02*
X138816371Y-124647282D01*
X138816371Y-124647282D02*
X138911609Y-124599663D01*
X138911609Y-124599663D02*
X139149704Y-124599663D01*
X139149704Y-124599663D02*
X139292561Y-124647282D01*
X140292561Y-125504424D02*
X140244942Y-125552044D01*
X140244942Y-125552044D02*
X140102085Y-125599663D01*
X140102085Y-125599663D02*
X140006847Y-125599663D01*
X140006847Y-125599663D02*
X139863990Y-125552044D01*
X139863990Y-125552044D02*
X139768752Y-125456805D01*
X139768752Y-125456805D02*
X139721133Y-125361567D01*
X139721133Y-125361567D02*
X139673514Y-125171091D01*
X139673514Y-125171091D02*
X139673514Y-125028234D01*
X139673514Y-125028234D02*
X139721133Y-124837758D01*
X139721133Y-124837758D02*
X139768752Y-124742520D01*
X139768752Y-124742520D02*
X139863990Y-124647282D01*
X139863990Y-124647282D02*
X140006847Y-124599663D01*
X140006847Y-124599663D02*
X140102085Y-124599663D01*
X140102085Y-124599663D02*
X140244942Y-124647282D01*
X140244942Y-124647282D02*
X140292561Y-124694901D01*
X141197323Y-125599663D02*
X140721133Y-125599663D01*
X140721133Y-125599663D02*
X140721133Y-124599663D01*
X182456752Y-124202710D02*
X183218657Y-124202710D01*
X131148752Y-125218710D02*
X131910657Y-125218710D01*
X131529704Y-125599663D02*
X131529704Y-124837758D01*
X132291609Y-124599663D02*
X132910656Y-124599663D01*
X132910656Y-124599663D02*
X132577323Y-124980615D01*
X132577323Y-124980615D02*
X132720180Y-124980615D01*
X132720180Y-124980615D02*
X132815418Y-125028234D01*
X132815418Y-125028234D02*
X132863037Y-125075853D01*
X132863037Y-125075853D02*
X132910656Y-125171091D01*
X132910656Y-125171091D02*
X132910656Y-125409186D01*
X132910656Y-125409186D02*
X132863037Y-125504424D01*
X132863037Y-125504424D02*
X132815418Y-125552044D01*
X132815418Y-125552044D02*
X132720180Y-125599663D01*
X132720180Y-125599663D02*
X132434466Y-125599663D01*
X132434466Y-125599663D02*
X132339228Y-125552044D01*
X132339228Y-125552044D02*
X132291609Y-125504424D01*
X133196371Y-124599663D02*
X133529704Y-125599663D01*
X133529704Y-125599663D02*
X133863037Y-124599663D01*
X134101133Y-124599663D02*
X134720180Y-124599663D01*
X134720180Y-124599663D02*
X134386847Y-124980615D01*
X134386847Y-124980615D02*
X134529704Y-124980615D01*
X134529704Y-124980615D02*
X134624942Y-125028234D01*
X134624942Y-125028234D02*
X134672561Y-125075853D01*
X134672561Y-125075853D02*
X134720180Y-125171091D01*
X134720180Y-125171091D02*
X134720180Y-125409186D01*
X134720180Y-125409186D02*
X134672561Y-125504424D01*
X134672561Y-125504424D02*
X134624942Y-125552044D01*
X134624942Y-125552044D02*
X134529704Y-125599663D01*
X134529704Y-125599663D02*
X134243990Y-125599663D01*
X134243990Y-125599663D02*
X134148752Y-125552044D01*
X134148752Y-125552044D02*
X134101133Y-125504424D01*
X164025895Y-102247663D02*
X164597323Y-102247663D01*
X164311609Y-103247663D02*
X164311609Y-102247663D01*
X164835419Y-102247663D02*
X165502085Y-103247663D01*
X165502085Y-102247663D02*
X164835419Y-103247663D01*
X182583752Y-80768710D02*
X183345657Y-80768710D01*
X182964704Y-81149663D02*
X182964704Y-80387758D01*
X184298037Y-80149663D02*
X183821847Y-80149663D01*
X183821847Y-80149663D02*
X183774228Y-80625853D01*
X183774228Y-80625853D02*
X183821847Y-80578234D01*
X183821847Y-80578234D02*
X183917085Y-80530615D01*
X183917085Y-80530615D02*
X184155180Y-80530615D01*
X184155180Y-80530615D02*
X184250418Y-80578234D01*
X184250418Y-80578234D02*
X184298037Y-80625853D01*
X184298037Y-80625853D02*
X184345656Y-80721091D01*
X184345656Y-80721091D02*
X184345656Y-80959186D01*
X184345656Y-80959186D02*
X184298037Y-81054424D01*
X184298037Y-81054424D02*
X184250418Y-81102044D01*
X184250418Y-81102044D02*
X184155180Y-81149663D01*
X184155180Y-81149663D02*
X183917085Y-81149663D01*
X183917085Y-81149663D02*
X183821847Y-81102044D01*
X183821847Y-81102044D02*
X183774228Y-81054424D01*
X184631371Y-80149663D02*
X184964704Y-81149663D01*
X184964704Y-81149663D02*
X185298037Y-80149663D01*
X164486180Y-99945663D02*
X164152847Y-99469472D01*
X163914752Y-99945663D02*
X163914752Y-98945663D01*
X163914752Y-98945663D02*
X164295704Y-98945663D01*
X164295704Y-98945663D02*
X164390942Y-98993282D01*
X164390942Y-98993282D02*
X164438561Y-99040901D01*
X164438561Y-99040901D02*
X164486180Y-99136139D01*
X164486180Y-99136139D02*
X164486180Y-99278996D01*
X164486180Y-99278996D02*
X164438561Y-99374234D01*
X164438561Y-99374234D02*
X164390942Y-99421853D01*
X164390942Y-99421853D02*
X164295704Y-99469472D01*
X164295704Y-99469472D02*
X163914752Y-99469472D01*
X164819514Y-98945663D02*
X165486180Y-99945663D01*
X165486180Y-98945663D02*
X164819514Y-99945663D01*
X151992561Y-124647282D02*
X151897323Y-124599663D01*
X151897323Y-124599663D02*
X151754466Y-124599663D01*
X151754466Y-124599663D02*
X151611609Y-124647282D01*
X151611609Y-124647282D02*
X151516371Y-124742520D01*
X151516371Y-124742520D02*
X151468752Y-124837758D01*
X151468752Y-124837758D02*
X151421133Y-125028234D01*
X151421133Y-125028234D02*
X151421133Y-125171091D01*
X151421133Y-125171091D02*
X151468752Y-125361567D01*
X151468752Y-125361567D02*
X151516371Y-125456805D01*
X151516371Y-125456805D02*
X151611609Y-125552044D01*
X151611609Y-125552044D02*
X151754466Y-125599663D01*
X151754466Y-125599663D02*
X151849704Y-125599663D01*
X151849704Y-125599663D02*
X151992561Y-125552044D01*
X151992561Y-125552044D02*
X152040180Y-125504424D01*
X152040180Y-125504424D02*
X152040180Y-125171091D01*
X152040180Y-125171091D02*
X151849704Y-125171091D01*
X152468752Y-125599663D02*
X152468752Y-124599663D01*
X152468752Y-124599663D02*
X153040180Y-125599663D01*
X153040180Y-125599663D02*
X153040180Y-124599663D01*
X153516371Y-125599663D02*
X153516371Y-124599663D01*
X153516371Y-124599663D02*
X153754466Y-124599663D01*
X153754466Y-124599663D02*
X153897323Y-124647282D01*
X153897323Y-124647282D02*
X153992561Y-124742520D01*
X153992561Y-124742520D02*
X154040180Y-124837758D01*
X154040180Y-124837758D02*
X154087799Y-125028234D01*
X154087799Y-125028234D02*
X154087799Y-125171091D01*
X154087799Y-125171091D02*
X154040180Y-125361567D01*
X154040180Y-125361567D02*
X153992561Y-125456805D01*
X153992561Y-125456805D02*
X153897323Y-125552044D01*
X153897323Y-125552044D02*
X153754466Y-125599663D01*
X153754466Y-125599663D02*
X153516371Y-125599663D01*
X160930180Y-83054663D02*
X160596847Y-82578472D01*
X160358752Y-83054663D02*
X160358752Y-82054663D01*
X160358752Y-82054663D02*
X160739704Y-82054663D01*
X160739704Y-82054663D02*
X160834942Y-82102282D01*
X160834942Y-82102282D02*
X160882561Y-82149901D01*
X160882561Y-82149901D02*
X160930180Y-82245139D01*
X160930180Y-82245139D02*
X160930180Y-82387996D01*
X160930180Y-82387996D02*
X160882561Y-82483234D01*
X160882561Y-82483234D02*
X160834942Y-82530853D01*
X160834942Y-82530853D02*
X160739704Y-82578472D01*
X160739704Y-82578472D02*
X160358752Y-82578472D01*
X161882561Y-82102282D02*
X161787323Y-82054663D01*
X161787323Y-82054663D02*
X161644466Y-82054663D01*
X161644466Y-82054663D02*
X161501609Y-82102282D01*
X161501609Y-82102282D02*
X161406371Y-82197520D01*
X161406371Y-82197520D02*
X161358752Y-82292758D01*
X161358752Y-82292758D02*
X161311133Y-82483234D01*
X161311133Y-82483234D02*
X161311133Y-82626091D01*
X161311133Y-82626091D02*
X161358752Y-82816567D01*
X161358752Y-82816567D02*
X161406371Y-82911805D01*
X161406371Y-82911805D02*
X161501609Y-83007044D01*
X161501609Y-83007044D02*
X161644466Y-83054663D01*
X161644466Y-83054663D02*
X161739704Y-83054663D01*
X161739704Y-83054663D02*
X161882561Y-83007044D01*
X161882561Y-83007044D02*
X161930180Y-82959424D01*
X161930180Y-82959424D02*
X161930180Y-82626091D01*
X161930180Y-82626091D02*
X161739704Y-82626091D01*
X162692085Y-82530853D02*
X162834942Y-82578472D01*
X162834942Y-82578472D02*
X162882561Y-82626091D01*
X162882561Y-82626091D02*
X162930180Y-82721329D01*
X162930180Y-82721329D02*
X162930180Y-82864186D01*
X162930180Y-82864186D02*
X162882561Y-82959424D01*
X162882561Y-82959424D02*
X162834942Y-83007044D01*
X162834942Y-83007044D02*
X162739704Y-83054663D01*
X162739704Y-83054663D02*
X162358752Y-83054663D01*
X162358752Y-83054663D02*
X162358752Y-82054663D01*
X162358752Y-82054663D02*
X162692085Y-82054663D01*
X162692085Y-82054663D02*
X162787323Y-82102282D01*
X162787323Y-82102282D02*
X162834942Y-82149901D01*
X162834942Y-82149901D02*
X162882561Y-82245139D01*
X162882561Y-82245139D02*
X162882561Y-82340377D01*
X162882561Y-82340377D02*
X162834942Y-82435615D01*
X162834942Y-82435615D02*
X162787323Y-82483234D01*
X162787323Y-82483234D02*
X162692085Y-82530853D01*
X162692085Y-82530853D02*
X162358752Y-82530853D01*
X164596847Y-83054663D02*
X164120657Y-83054663D01*
X164120657Y-83054663D02*
X164120657Y-82054663D01*
X164930181Y-82530853D02*
X165263514Y-82530853D01*
X165406371Y-83054663D02*
X164930181Y-83054663D01*
X164930181Y-83054663D02*
X164930181Y-82054663D01*
X164930181Y-82054663D02*
X165406371Y-82054663D01*
X165834943Y-83054663D02*
X165834943Y-82054663D01*
X165834943Y-82054663D02*
X166073038Y-82054663D01*
X166073038Y-82054663D02*
X166215895Y-82102282D01*
X166215895Y-82102282D02*
X166311133Y-82197520D01*
X166311133Y-82197520D02*
X166358752Y-82292758D01*
X166358752Y-82292758D02*
X166406371Y-82483234D01*
X166406371Y-82483234D02*
X166406371Y-82626091D01*
X166406371Y-82626091D02*
X166358752Y-82816567D01*
X166358752Y-82816567D02*
X166311133Y-82911805D01*
X166311133Y-82911805D02*
X166215895Y-83007044D01*
X166215895Y-83007044D02*
X166073038Y-83054663D01*
X166073038Y-83054663D02*
X165834943Y-83054663D01*
X176805180Y-81149663D02*
X176471847Y-80673472D01*
X176233752Y-81149663D02*
X176233752Y-80149663D01*
X176233752Y-80149663D02*
X176614704Y-80149663D01*
X176614704Y-80149663D02*
X176709942Y-80197282D01*
X176709942Y-80197282D02*
X176757561Y-80244901D01*
X176757561Y-80244901D02*
X176805180Y-80340139D01*
X176805180Y-80340139D02*
X176805180Y-80482996D01*
X176805180Y-80482996D02*
X176757561Y-80578234D01*
X176757561Y-80578234D02*
X176709942Y-80625853D01*
X176709942Y-80625853D02*
X176614704Y-80673472D01*
X176614704Y-80673472D02*
X176233752Y-80673472D01*
X142277085Y-80625853D02*
X142419942Y-80673472D01*
X142419942Y-80673472D02*
X142467561Y-80721091D01*
X142467561Y-80721091D02*
X142515180Y-80816329D01*
X142515180Y-80816329D02*
X142515180Y-80959186D01*
X142515180Y-80959186D02*
X142467561Y-81054424D01*
X142467561Y-81054424D02*
X142419942Y-81102044D01*
X142419942Y-81102044D02*
X142324704Y-81149663D01*
X142324704Y-81149663D02*
X141943752Y-81149663D01*
X141943752Y-81149663D02*
X141943752Y-80149663D01*
X141943752Y-80149663D02*
X142277085Y-80149663D01*
X142277085Y-80149663D02*
X142372323Y-80197282D01*
X142372323Y-80197282D02*
X142419942Y-80244901D01*
X142419942Y-80244901D02*
X142467561Y-80340139D01*
X142467561Y-80340139D02*
X142467561Y-80435377D01*
X142467561Y-80435377D02*
X142419942Y-80530615D01*
X142419942Y-80530615D02*
X142372323Y-80578234D01*
X142372323Y-80578234D02*
X142277085Y-80625853D01*
X142277085Y-80625853D02*
X141943752Y-80625853D01*
X145071133Y-125552044D02*
X145213990Y-125599663D01*
X145213990Y-125599663D02*
X145452085Y-125599663D01*
X145452085Y-125599663D02*
X145547323Y-125552044D01*
X145547323Y-125552044D02*
X145594942Y-125504424D01*
X145594942Y-125504424D02*
X145642561Y-125409186D01*
X145642561Y-125409186D02*
X145642561Y-125313948D01*
X145642561Y-125313948D02*
X145594942Y-125218710D01*
X145594942Y-125218710D02*
X145547323Y-125171091D01*
X145547323Y-125171091D02*
X145452085Y-125123472D01*
X145452085Y-125123472D02*
X145261609Y-125075853D01*
X145261609Y-125075853D02*
X145166371Y-125028234D01*
X145166371Y-125028234D02*
X145118752Y-124980615D01*
X145118752Y-124980615D02*
X145071133Y-124885377D01*
X145071133Y-124885377D02*
X145071133Y-124790139D01*
X145071133Y-124790139D02*
X145118752Y-124694901D01*
X145118752Y-124694901D02*
X145166371Y-124647282D01*
X145166371Y-124647282D02*
X145261609Y-124599663D01*
X145261609Y-124599663D02*
X145499704Y-124599663D01*
X145499704Y-124599663D02*
X145642561Y-124647282D01*
X146071133Y-125599663D02*
X146071133Y-124599663D01*
X146071133Y-124599663D02*
X146309228Y-124599663D01*
X146309228Y-124599663D02*
X146452085Y-124647282D01*
X146452085Y-124647282D02*
X146547323Y-124742520D01*
X146547323Y-124742520D02*
X146594942Y-124837758D01*
X146594942Y-124837758D02*
X146642561Y-125028234D01*
X146642561Y-125028234D02*
X146642561Y-125171091D01*
X146642561Y-125171091D02*
X146594942Y-125361567D01*
X146594942Y-125361567D02*
X146547323Y-125456805D01*
X146547323Y-125456805D02*
X146452085Y-125552044D01*
X146452085Y-125552044D02*
X146309228Y-125599663D01*
X146309228Y-125599663D02*
X146071133Y-125599663D01*
X147023514Y-125313948D02*
X147499704Y-125313948D01*
X146928276Y-125599663D02*
X147261609Y-124599663D01*
X147261609Y-124599663D02*
X147594942Y-125599663D01*
X160930180Y-125504424D02*
X160882561Y-125552044D01*
X160882561Y-125552044D02*
X160739704Y-125599663D01*
X160739704Y-125599663D02*
X160644466Y-125599663D01*
X160644466Y-125599663D02*
X160501609Y-125552044D01*
X160501609Y-125552044D02*
X160406371Y-125456805D01*
X160406371Y-125456805D02*
X160358752Y-125361567D01*
X160358752Y-125361567D02*
X160311133Y-125171091D01*
X160311133Y-125171091D02*
X160311133Y-125028234D01*
X160311133Y-125028234D02*
X160358752Y-124837758D01*
X160358752Y-124837758D02*
X160406371Y-124742520D01*
X160406371Y-124742520D02*
X160501609Y-124647282D01*
X160501609Y-124647282D02*
X160644466Y-124599663D01*
X160644466Y-124599663D02*
X160739704Y-124599663D01*
X160739704Y-124599663D02*
X160882561Y-124647282D01*
X160882561Y-124647282D02*
X160930180Y-124694901D01*
X161358752Y-125599663D02*
X161358752Y-124599663D01*
X161358752Y-125075853D02*
X161930180Y-125075853D01*
X161930180Y-125599663D02*
X161930180Y-124599663D01*
X162358752Y-124694901D02*
X162406371Y-124647282D01*
X162406371Y-124647282D02*
X162501609Y-124599663D01*
X162501609Y-124599663D02*
X162739704Y-124599663D01*
X162739704Y-124599663D02*
X162834942Y-124647282D01*
X162834942Y-124647282D02*
X162882561Y-124694901D01*
X162882561Y-124694901D02*
X162930180Y-124790139D01*
X162930180Y-124790139D02*
X162930180Y-124885377D01*
X162930180Y-124885377D02*
X162882561Y-125028234D01*
X162882561Y-125028234D02*
X162311133Y-125599663D01*
X162311133Y-125599663D02*
X162930180Y-125599663D01*
X170455180Y-81149663D02*
X170121847Y-80673472D01*
X169883752Y-81149663D02*
X169883752Y-80149663D01*
X169883752Y-80149663D02*
X170264704Y-80149663D01*
X170264704Y-80149663D02*
X170359942Y-80197282D01*
X170359942Y-80197282D02*
X170407561Y-80244901D01*
X170407561Y-80244901D02*
X170455180Y-80340139D01*
X170455180Y-80340139D02*
X170455180Y-80482996D01*
X170455180Y-80482996D02*
X170407561Y-80578234D01*
X170407561Y-80578234D02*
X170359942Y-80625853D01*
X170359942Y-80625853D02*
X170264704Y-80673472D01*
X170264704Y-80673472D02*
X169883752Y-80673472D01*
X120353752Y-109978710D02*
X121115657Y-109978710D01*
X120734704Y-110359663D02*
X120734704Y-109597758D01*
X122068037Y-109359663D02*
X121591847Y-109359663D01*
X121591847Y-109359663D02*
X121544228Y-109835853D01*
X121544228Y-109835853D02*
X121591847Y-109788234D01*
X121591847Y-109788234D02*
X121687085Y-109740615D01*
X121687085Y-109740615D02*
X121925180Y-109740615D01*
X121925180Y-109740615D02*
X122020418Y-109788234D01*
X122020418Y-109788234D02*
X122068037Y-109835853D01*
X122068037Y-109835853D02*
X122115656Y-109931091D01*
X122115656Y-109931091D02*
X122115656Y-110169186D01*
X122115656Y-110169186D02*
X122068037Y-110264424D01*
X122068037Y-110264424D02*
X122020418Y-110312044D01*
X122020418Y-110312044D02*
X121925180Y-110359663D01*
X121925180Y-110359663D02*
X121687085Y-110359663D01*
X121687085Y-110359663D02*
X121591847Y-110312044D01*
X121591847Y-110312044D02*
X121544228Y-110264424D01*
X122401371Y-109359663D02*
X122734704Y-110359663D01*
X122734704Y-110359663D02*
X123068037Y-109359663D01*
D12*
X121019673Y-93167331D02*
X121019673Y-92167331D01*
X121019673Y-92167331D02*
X121353006Y-92881616D01*
X121353006Y-92881616D02*
X121686339Y-92167331D01*
X121686339Y-92167331D02*
X121686339Y-93167331D01*
X122543482Y-93119712D02*
X122448244Y-93167331D01*
X122448244Y-93167331D02*
X122257768Y-93167331D01*
X122257768Y-93167331D02*
X122162530Y-93119712D01*
X122162530Y-93119712D02*
X122114911Y-93024473D01*
X122114911Y-93024473D02*
X122114911Y-92643521D01*
X122114911Y-92643521D02*
X122162530Y-92548283D01*
X122162530Y-92548283D02*
X122257768Y-92500664D01*
X122257768Y-92500664D02*
X122448244Y-92500664D01*
X122448244Y-92500664D02*
X122543482Y-92548283D01*
X122543482Y-92548283D02*
X122591101Y-92643521D01*
X122591101Y-92643521D02*
X122591101Y-92738759D01*
X122591101Y-92738759D02*
X122114911Y-92833997D01*
X123162530Y-93167331D02*
X123067292Y-93119712D01*
X123067292Y-93119712D02*
X123019673Y-93024473D01*
X123019673Y-93024473D02*
X123019673Y-92167331D01*
X123400626Y-92500664D02*
X123781578Y-92500664D01*
X123543483Y-92167331D02*
X123543483Y-93024473D01*
X123543483Y-93024473D02*
X123591102Y-93119712D01*
X123591102Y-93119712D02*
X123686340Y-93167331D01*
X123686340Y-93167331D02*
X123781578Y-93167331D01*
X124019674Y-92500664D02*
X124257769Y-93167331D01*
X124495864Y-92500664D02*
X124257769Y-93167331D01*
X124257769Y-93167331D02*
X124162531Y-93405426D01*
X124162531Y-93405426D02*
X124114912Y-93453045D01*
X124114912Y-93453045D02*
X124019674Y-93500664D01*
X124876817Y-93167331D02*
X124876817Y-92167331D01*
X124876817Y-92548283D02*
X124972055Y-92500664D01*
X124972055Y-92500664D02*
X125162531Y-92500664D01*
X125162531Y-92500664D02*
X125257769Y-92548283D01*
X125257769Y-92548283D02*
X125305388Y-92595902D01*
X125305388Y-92595902D02*
X125353007Y-92691140D01*
X125353007Y-92691140D02*
X125353007Y-92976854D01*
X125353007Y-92976854D02*
X125305388Y-93072092D01*
X125305388Y-93072092D02*
X125257769Y-93119712D01*
X125257769Y-93119712D02*
X125162531Y-93167331D01*
X125162531Y-93167331D02*
X124972055Y-93167331D01*
X124972055Y-93167331D02*
X124876817Y-93119712D01*
X125781579Y-93167331D02*
X125781579Y-92500664D01*
X125781579Y-92691140D02*
X125829198Y-92595902D01*
X125829198Y-92595902D02*
X125876817Y-92548283D01*
X125876817Y-92548283D02*
X125972055Y-92500664D01*
X125972055Y-92500664D02*
X126067293Y-92500664D01*
X126829198Y-93167331D02*
X126829198Y-92643521D01*
X126829198Y-92643521D02*
X126781579Y-92548283D01*
X126781579Y-92548283D02*
X126686341Y-92500664D01*
X126686341Y-92500664D02*
X126495865Y-92500664D01*
X126495865Y-92500664D02*
X126400627Y-92548283D01*
X126829198Y-93119712D02*
X126733960Y-93167331D01*
X126733960Y-93167331D02*
X126495865Y-93167331D01*
X126495865Y-93167331D02*
X126400627Y-93119712D01*
X126400627Y-93119712D02*
X126353008Y-93024473D01*
X126353008Y-93024473D02*
X126353008Y-92929235D01*
X126353008Y-92929235D02*
X126400627Y-92833997D01*
X126400627Y-92833997D02*
X126495865Y-92786378D01*
X126495865Y-92786378D02*
X126733960Y-92786378D01*
X126733960Y-92786378D02*
X126829198Y-92738759D01*
X127305389Y-93167331D02*
X127305389Y-92500664D01*
X127305389Y-92167331D02*
X127257770Y-92214950D01*
X127257770Y-92214950D02*
X127305389Y-92262569D01*
X127305389Y-92262569D02*
X127353008Y-92214950D01*
X127353008Y-92214950D02*
X127305389Y-92167331D01*
X127305389Y-92167331D02*
X127305389Y-92262569D01*
X127781579Y-92500664D02*
X127781579Y-93167331D01*
X127781579Y-92595902D02*
X127829198Y-92548283D01*
X127829198Y-92548283D02*
X127924436Y-92500664D01*
X127924436Y-92500664D02*
X128067293Y-92500664D01*
X128067293Y-92500664D02*
X128162531Y-92548283D01*
X128162531Y-92548283D02*
X128210150Y-92643521D01*
X128210150Y-92643521D02*
X128210150Y-93167331D01*
X121591101Y-94682036D02*
X121543482Y-94729656D01*
X121543482Y-94729656D02*
X121400625Y-94777275D01*
X121400625Y-94777275D02*
X121305387Y-94777275D01*
X121305387Y-94777275D02*
X121162530Y-94729656D01*
X121162530Y-94729656D02*
X121067292Y-94634417D01*
X121067292Y-94634417D02*
X121019673Y-94539179D01*
X121019673Y-94539179D02*
X120972054Y-94348703D01*
X120972054Y-94348703D02*
X120972054Y-94205846D01*
X120972054Y-94205846D02*
X121019673Y-94015370D01*
X121019673Y-94015370D02*
X121067292Y-93920132D01*
X121067292Y-93920132D02*
X121162530Y-93824894D01*
X121162530Y-93824894D02*
X121305387Y-93777275D01*
X121305387Y-93777275D02*
X121400625Y-93777275D01*
X121400625Y-93777275D02*
X121543482Y-93824894D01*
X121543482Y-93824894D02*
X121591101Y-93872513D01*
X122162530Y-94777275D02*
X122067292Y-94729656D01*
X122067292Y-94729656D02*
X122019673Y-94682036D01*
X122019673Y-94682036D02*
X121972054Y-94586798D01*
X121972054Y-94586798D02*
X121972054Y-94301084D01*
X121972054Y-94301084D02*
X122019673Y-94205846D01*
X122019673Y-94205846D02*
X122067292Y-94158227D01*
X122067292Y-94158227D02*
X122162530Y-94110608D01*
X122162530Y-94110608D02*
X122305387Y-94110608D01*
X122305387Y-94110608D02*
X122400625Y-94158227D01*
X122400625Y-94158227D02*
X122448244Y-94205846D01*
X122448244Y-94205846D02*
X122495863Y-94301084D01*
X122495863Y-94301084D02*
X122495863Y-94586798D01*
X122495863Y-94586798D02*
X122448244Y-94682036D01*
X122448244Y-94682036D02*
X122400625Y-94729656D01*
X122400625Y-94729656D02*
X122305387Y-94777275D01*
X122305387Y-94777275D02*
X122162530Y-94777275D01*
X122924435Y-94110608D02*
X122924435Y-94777275D01*
X122924435Y-94205846D02*
X122972054Y-94158227D01*
X122972054Y-94158227D02*
X123067292Y-94110608D01*
X123067292Y-94110608D02*
X123210149Y-94110608D01*
X123210149Y-94110608D02*
X123305387Y-94158227D01*
X123305387Y-94158227D02*
X123353006Y-94253465D01*
X123353006Y-94253465D02*
X123353006Y-94777275D01*
X123686340Y-94110608D02*
X124067292Y-94110608D01*
X123829197Y-93777275D02*
X123829197Y-94634417D01*
X123829197Y-94634417D02*
X123876816Y-94729656D01*
X123876816Y-94729656D02*
X123972054Y-94777275D01*
X123972054Y-94777275D02*
X124067292Y-94777275D01*
X124400626Y-94777275D02*
X124400626Y-94110608D01*
X124400626Y-94301084D02*
X124448245Y-94205846D01*
X124448245Y-94205846D02*
X124495864Y-94158227D01*
X124495864Y-94158227D02*
X124591102Y-94110608D01*
X124591102Y-94110608D02*
X124686340Y-94110608D01*
X125162531Y-94777275D02*
X125067293Y-94729656D01*
X125067293Y-94729656D02*
X125019674Y-94682036D01*
X125019674Y-94682036D02*
X124972055Y-94586798D01*
X124972055Y-94586798D02*
X124972055Y-94301084D01*
X124972055Y-94301084D02*
X125019674Y-94205846D01*
X125019674Y-94205846D02*
X125067293Y-94158227D01*
X125067293Y-94158227D02*
X125162531Y-94110608D01*
X125162531Y-94110608D02*
X125305388Y-94110608D01*
X125305388Y-94110608D02*
X125400626Y-94158227D01*
X125400626Y-94158227D02*
X125448245Y-94205846D01*
X125448245Y-94205846D02*
X125495864Y-94301084D01*
X125495864Y-94301084D02*
X125495864Y-94586798D01*
X125495864Y-94586798D02*
X125448245Y-94682036D01*
X125448245Y-94682036D02*
X125400626Y-94729656D01*
X125400626Y-94729656D02*
X125305388Y-94777275D01*
X125305388Y-94777275D02*
X125162531Y-94777275D01*
X126067293Y-94777275D02*
X125972055Y-94729656D01*
X125972055Y-94729656D02*
X125924436Y-94634417D01*
X125924436Y-94634417D02*
X125924436Y-93777275D01*
X127543484Y-94253465D02*
X127686341Y-94301084D01*
X127686341Y-94301084D02*
X127733960Y-94348703D01*
X127733960Y-94348703D02*
X127781579Y-94443941D01*
X127781579Y-94443941D02*
X127781579Y-94586798D01*
X127781579Y-94586798D02*
X127733960Y-94682036D01*
X127733960Y-94682036D02*
X127686341Y-94729656D01*
X127686341Y-94729656D02*
X127591103Y-94777275D01*
X127591103Y-94777275D02*
X127210151Y-94777275D01*
X127210151Y-94777275D02*
X127210151Y-93777275D01*
X127210151Y-93777275D02*
X127543484Y-93777275D01*
X127543484Y-93777275D02*
X127638722Y-93824894D01*
X127638722Y-93824894D02*
X127686341Y-93872513D01*
X127686341Y-93872513D02*
X127733960Y-93967751D01*
X127733960Y-93967751D02*
X127733960Y-94062989D01*
X127733960Y-94062989D02*
X127686341Y-94158227D01*
X127686341Y-94158227D02*
X127638722Y-94205846D01*
X127638722Y-94205846D02*
X127543484Y-94253465D01*
X127543484Y-94253465D02*
X127210151Y-94253465D01*
X128353008Y-94777275D02*
X128257770Y-94729656D01*
X128257770Y-94729656D02*
X128210151Y-94682036D01*
X128210151Y-94682036D02*
X128162532Y-94586798D01*
X128162532Y-94586798D02*
X128162532Y-94301084D01*
X128162532Y-94301084D02*
X128210151Y-94205846D01*
X128210151Y-94205846D02*
X128257770Y-94158227D01*
X128257770Y-94158227D02*
X128353008Y-94110608D01*
X128353008Y-94110608D02*
X128495865Y-94110608D01*
X128495865Y-94110608D02*
X128591103Y-94158227D01*
X128591103Y-94158227D02*
X128638722Y-94205846D01*
X128638722Y-94205846D02*
X128686341Y-94301084D01*
X128686341Y-94301084D02*
X128686341Y-94586798D01*
X128686341Y-94586798D02*
X128638722Y-94682036D01*
X128638722Y-94682036D02*
X128591103Y-94729656D01*
X128591103Y-94729656D02*
X128495865Y-94777275D01*
X128495865Y-94777275D02*
X128353008Y-94777275D01*
X129543484Y-94777275D02*
X129543484Y-94253465D01*
X129543484Y-94253465D02*
X129495865Y-94158227D01*
X129495865Y-94158227D02*
X129400627Y-94110608D01*
X129400627Y-94110608D02*
X129210151Y-94110608D01*
X129210151Y-94110608D02*
X129114913Y-94158227D01*
X129543484Y-94729656D02*
X129448246Y-94777275D01*
X129448246Y-94777275D02*
X129210151Y-94777275D01*
X129210151Y-94777275D02*
X129114913Y-94729656D01*
X129114913Y-94729656D02*
X129067294Y-94634417D01*
X129067294Y-94634417D02*
X129067294Y-94539179D01*
X129067294Y-94539179D02*
X129114913Y-94443941D01*
X129114913Y-94443941D02*
X129210151Y-94396322D01*
X129210151Y-94396322D02*
X129448246Y-94396322D01*
X129448246Y-94396322D02*
X129543484Y-94348703D01*
X130019675Y-94777275D02*
X130019675Y-94110608D01*
X130019675Y-94301084D02*
X130067294Y-94205846D01*
X130067294Y-94205846D02*
X130114913Y-94158227D01*
X130114913Y-94158227D02*
X130210151Y-94110608D01*
X130210151Y-94110608D02*
X130305389Y-94110608D01*
X131067294Y-94777275D02*
X131067294Y-93777275D01*
X131067294Y-94729656D02*
X130972056Y-94777275D01*
X130972056Y-94777275D02*
X130781580Y-94777275D01*
X130781580Y-94777275D02*
X130686342Y-94729656D01*
X130686342Y-94729656D02*
X130638723Y-94682036D01*
X130638723Y-94682036D02*
X130591104Y-94586798D01*
X130591104Y-94586798D02*
X130591104Y-94301084D01*
X130591104Y-94301084D02*
X130638723Y-94205846D01*
X130638723Y-94205846D02*
X130686342Y-94158227D01*
X130686342Y-94158227D02*
X130781580Y-94110608D01*
X130781580Y-94110608D02*
X130972056Y-94110608D01*
X130972056Y-94110608D02*
X131067294Y-94158227D01*
X120924435Y-95720552D02*
X121162530Y-96387219D01*
X121162530Y-96387219D02*
X121400625Y-95720552D01*
X122305387Y-96387219D02*
X121733959Y-96387219D01*
X122019673Y-96387219D02*
X122019673Y-95387219D01*
X122019673Y-95387219D02*
X121924435Y-95530076D01*
X121924435Y-95530076D02*
X121829197Y-95625314D01*
X121829197Y-95625314D02*
X121733959Y-95672933D01*
X122733959Y-96291980D02*
X122781578Y-96339600D01*
X122781578Y-96339600D02*
X122733959Y-96387219D01*
X122733959Y-96387219D02*
X122686340Y-96339600D01*
X122686340Y-96339600D02*
X122733959Y-96291980D01*
X122733959Y-96291980D02*
X122733959Y-96387219D01*
X123400625Y-95387219D02*
X123495863Y-95387219D01*
X123495863Y-95387219D02*
X123591101Y-95434838D01*
X123591101Y-95434838D02*
X123638720Y-95482457D01*
X123638720Y-95482457D02*
X123686339Y-95577695D01*
X123686339Y-95577695D02*
X123733958Y-95768171D01*
X123733958Y-95768171D02*
X123733958Y-96006266D01*
X123733958Y-96006266D02*
X123686339Y-96196742D01*
X123686339Y-96196742D02*
X123638720Y-96291980D01*
X123638720Y-96291980D02*
X123591101Y-96339600D01*
X123591101Y-96339600D02*
X123495863Y-96387219D01*
X123495863Y-96387219D02*
X123400625Y-96387219D01*
X123400625Y-96387219D02*
X123305387Y-96339600D01*
X123305387Y-96339600D02*
X123257768Y-96291980D01*
X123257768Y-96291980D02*
X123210149Y-96196742D01*
X123210149Y-96196742D02*
X123162530Y-96006266D01*
X123162530Y-96006266D02*
X123162530Y-95768171D01*
X123162530Y-95768171D02*
X123210149Y-95577695D01*
X123210149Y-95577695D02*
X123257768Y-95482457D01*
X123257768Y-95482457D02*
X123305387Y-95434838D01*
X123305387Y-95434838D02*
X123400625Y-95387219D01*
D11*
X167280180Y-125504424D02*
X167232561Y-125552044D01*
X167232561Y-125552044D02*
X167089704Y-125599663D01*
X167089704Y-125599663D02*
X166994466Y-125599663D01*
X166994466Y-125599663D02*
X166851609Y-125552044D01*
X166851609Y-125552044D02*
X166756371Y-125456805D01*
X166756371Y-125456805D02*
X166708752Y-125361567D01*
X166708752Y-125361567D02*
X166661133Y-125171091D01*
X166661133Y-125171091D02*
X166661133Y-125028234D01*
X166661133Y-125028234D02*
X166708752Y-124837758D01*
X166708752Y-124837758D02*
X166756371Y-124742520D01*
X166756371Y-124742520D02*
X166851609Y-124647282D01*
X166851609Y-124647282D02*
X166994466Y-124599663D01*
X166994466Y-124599663D02*
X167089704Y-124599663D01*
X167089704Y-124599663D02*
X167232561Y-124647282D01*
X167232561Y-124647282D02*
X167280180Y-124694901D01*
X167708752Y-125599663D02*
X167708752Y-124599663D01*
X167708752Y-125075853D02*
X168280180Y-125075853D01*
X168280180Y-125599663D02*
X168280180Y-124599663D01*
X169280180Y-125599663D02*
X168708752Y-125599663D01*
X168994466Y-125599663D02*
X168994466Y-124599663D01*
X168994466Y-124599663D02*
X168899228Y-124742520D01*
X168899228Y-124742520D02*
X168803990Y-124837758D01*
X168803990Y-124837758D02*
X168708752Y-124885377D01*
X156437561Y-80197282D02*
X156342323Y-80149663D01*
X156342323Y-80149663D02*
X156199466Y-80149663D01*
X156199466Y-80149663D02*
X156056609Y-80197282D01*
X156056609Y-80197282D02*
X155961371Y-80292520D01*
X155961371Y-80292520D02*
X155913752Y-80387758D01*
X155913752Y-80387758D02*
X155866133Y-80578234D01*
X155866133Y-80578234D02*
X155866133Y-80721091D01*
X155866133Y-80721091D02*
X155913752Y-80911567D01*
X155913752Y-80911567D02*
X155961371Y-81006805D01*
X155961371Y-81006805D02*
X156056609Y-81102044D01*
X156056609Y-81102044D02*
X156199466Y-81149663D01*
X156199466Y-81149663D02*
X156294704Y-81149663D01*
X156294704Y-81149663D02*
X156437561Y-81102044D01*
X156437561Y-81102044D02*
X156485180Y-81054424D01*
X156485180Y-81054424D02*
X156485180Y-80721091D01*
X156485180Y-80721091D02*
X156294704Y-80721091D01*
X138086133Y-117693948D02*
X138562323Y-117693948D01*
X137990895Y-117979663D02*
X138324228Y-116979663D01*
X138324228Y-116979663D02*
X138657561Y-117979663D01*
X139419466Y-117932044D02*
X139324228Y-117979663D01*
X139324228Y-117979663D02*
X139133752Y-117979663D01*
X139133752Y-117979663D02*
X139038514Y-117932044D01*
X139038514Y-117932044D02*
X138990895Y-117884424D01*
X138990895Y-117884424D02*
X138943276Y-117789186D01*
X138943276Y-117789186D02*
X138943276Y-117503472D01*
X138943276Y-117503472D02*
X138990895Y-117408234D01*
X138990895Y-117408234D02*
X139038514Y-117360615D01*
X139038514Y-117360615D02*
X139133752Y-117312996D01*
X139133752Y-117312996D02*
X139324228Y-117312996D01*
X139324228Y-117312996D02*
X139419466Y-117360615D01*
X140276609Y-117932044D02*
X140181371Y-117979663D01*
X140181371Y-117979663D02*
X139990895Y-117979663D01*
X139990895Y-117979663D02*
X139895657Y-117932044D01*
X139895657Y-117932044D02*
X139848038Y-117884424D01*
X139848038Y-117884424D02*
X139800419Y-117789186D01*
X139800419Y-117789186D02*
X139800419Y-117503472D01*
X139800419Y-117503472D02*
X139848038Y-117408234D01*
X139848038Y-117408234D02*
X139895657Y-117360615D01*
X139895657Y-117360615D02*
X139990895Y-117312996D01*
X139990895Y-117312996D02*
X140181371Y-117312996D01*
X140181371Y-117312996D02*
X140276609Y-117360615D01*
X141086133Y-117932044D02*
X140990895Y-117979663D01*
X140990895Y-117979663D02*
X140800419Y-117979663D01*
X140800419Y-117979663D02*
X140705181Y-117932044D01*
X140705181Y-117932044D02*
X140657562Y-117836805D01*
X140657562Y-117836805D02*
X140657562Y-117455853D01*
X140657562Y-117455853D02*
X140705181Y-117360615D01*
X140705181Y-117360615D02*
X140800419Y-117312996D01*
X140800419Y-117312996D02*
X140990895Y-117312996D01*
X140990895Y-117312996D02*
X141086133Y-117360615D01*
X141086133Y-117360615D02*
X141133752Y-117455853D01*
X141133752Y-117455853D02*
X141133752Y-117551091D01*
X141133752Y-117551091D02*
X140657562Y-117646329D01*
X141705181Y-117979663D02*
X141609943Y-117932044D01*
X141609943Y-117932044D02*
X141562324Y-117836805D01*
X141562324Y-117836805D02*
X141562324Y-116979663D01*
X142467086Y-117932044D02*
X142371848Y-117979663D01*
X142371848Y-117979663D02*
X142181372Y-117979663D01*
X142181372Y-117979663D02*
X142086134Y-117932044D01*
X142086134Y-117932044D02*
X142038515Y-117836805D01*
X142038515Y-117836805D02*
X142038515Y-117455853D01*
X142038515Y-117455853D02*
X142086134Y-117360615D01*
X142086134Y-117360615D02*
X142181372Y-117312996D01*
X142181372Y-117312996D02*
X142371848Y-117312996D01*
X142371848Y-117312996D02*
X142467086Y-117360615D01*
X142467086Y-117360615D02*
X142514705Y-117455853D01*
X142514705Y-117455853D02*
X142514705Y-117551091D01*
X142514705Y-117551091D02*
X142038515Y-117646329D01*
X142943277Y-117979663D02*
X142943277Y-117312996D01*
X142943277Y-117503472D02*
X142990896Y-117408234D01*
X142990896Y-117408234D02*
X143038515Y-117360615D01*
X143038515Y-117360615D02*
X143133753Y-117312996D01*
X143133753Y-117312996D02*
X143228991Y-117312996D01*
X143705182Y-117979663D02*
X143609944Y-117932044D01*
X143609944Y-117932044D02*
X143562325Y-117884424D01*
X143562325Y-117884424D02*
X143514706Y-117789186D01*
X143514706Y-117789186D02*
X143514706Y-117503472D01*
X143514706Y-117503472D02*
X143562325Y-117408234D01*
X143562325Y-117408234D02*
X143609944Y-117360615D01*
X143609944Y-117360615D02*
X143705182Y-117312996D01*
X143705182Y-117312996D02*
X143848039Y-117312996D01*
X143848039Y-117312996D02*
X143943277Y-117360615D01*
X143943277Y-117360615D02*
X143990896Y-117408234D01*
X143990896Y-117408234D02*
X144038515Y-117503472D01*
X144038515Y-117503472D02*
X144038515Y-117789186D01*
X144038515Y-117789186D02*
X143990896Y-117884424D01*
X143990896Y-117884424D02*
X143943277Y-117932044D01*
X143943277Y-117932044D02*
X143848039Y-117979663D01*
X143848039Y-117979663D02*
X143705182Y-117979663D01*
X144467087Y-117979663D02*
X144467087Y-117312996D01*
X144467087Y-117408234D02*
X144514706Y-117360615D01*
X144514706Y-117360615D02*
X144609944Y-117312996D01*
X144609944Y-117312996D02*
X144752801Y-117312996D01*
X144752801Y-117312996D02*
X144848039Y-117360615D01*
X144848039Y-117360615D02*
X144895658Y-117455853D01*
X144895658Y-117455853D02*
X144895658Y-117979663D01*
X144895658Y-117455853D02*
X144943277Y-117360615D01*
X144943277Y-117360615D02*
X145038515Y-117312996D01*
X145038515Y-117312996D02*
X145181372Y-117312996D01*
X145181372Y-117312996D02*
X145276611Y-117360615D01*
X145276611Y-117360615D02*
X145324230Y-117455853D01*
X145324230Y-117455853D02*
X145324230Y-117979663D01*
X146181372Y-117932044D02*
X146086134Y-117979663D01*
X146086134Y-117979663D02*
X145895658Y-117979663D01*
X145895658Y-117979663D02*
X145800420Y-117932044D01*
X145800420Y-117932044D02*
X145752801Y-117836805D01*
X145752801Y-117836805D02*
X145752801Y-117455853D01*
X145752801Y-117455853D02*
X145800420Y-117360615D01*
X145800420Y-117360615D02*
X145895658Y-117312996D01*
X145895658Y-117312996D02*
X146086134Y-117312996D01*
X146086134Y-117312996D02*
X146181372Y-117360615D01*
X146181372Y-117360615D02*
X146228991Y-117455853D01*
X146228991Y-117455853D02*
X146228991Y-117551091D01*
X146228991Y-117551091D02*
X145752801Y-117646329D01*
X146514706Y-117312996D02*
X146895658Y-117312996D01*
X146657563Y-116979663D02*
X146657563Y-117836805D01*
X146657563Y-117836805D02*
X146705182Y-117932044D01*
X146705182Y-117932044D02*
X146800420Y-117979663D01*
X146800420Y-117979663D02*
X146895658Y-117979663D01*
X147609944Y-117932044D02*
X147514706Y-117979663D01*
X147514706Y-117979663D02*
X147324230Y-117979663D01*
X147324230Y-117979663D02*
X147228992Y-117932044D01*
X147228992Y-117932044D02*
X147181373Y-117836805D01*
X147181373Y-117836805D02*
X147181373Y-117455853D01*
X147181373Y-117455853D02*
X147228992Y-117360615D01*
X147228992Y-117360615D02*
X147324230Y-117312996D01*
X147324230Y-117312996D02*
X147514706Y-117312996D01*
X147514706Y-117312996D02*
X147609944Y-117360615D01*
X147609944Y-117360615D02*
X147657563Y-117455853D01*
X147657563Y-117455853D02*
X147657563Y-117551091D01*
X147657563Y-117551091D02*
X147181373Y-117646329D01*
X148086135Y-117979663D02*
X148086135Y-117312996D01*
X148086135Y-117503472D02*
X148133754Y-117408234D01*
X148133754Y-117408234D02*
X148181373Y-117360615D01*
X148181373Y-117360615D02*
X148276611Y-117312996D01*
X148276611Y-117312996D02*
X148371849Y-117312996D01*
X162898752Y-96643663D02*
X162898752Y-95643663D01*
X162898752Y-95643663D02*
X163279704Y-95643663D01*
X163279704Y-95643663D02*
X163374942Y-95691282D01*
X163374942Y-95691282D02*
X163422561Y-95738901D01*
X163422561Y-95738901D02*
X163470180Y-95834139D01*
X163470180Y-95834139D02*
X163470180Y-95976996D01*
X163470180Y-95976996D02*
X163422561Y-96072234D01*
X163422561Y-96072234D02*
X163374942Y-96119853D01*
X163374942Y-96119853D02*
X163279704Y-96167472D01*
X163279704Y-96167472D02*
X162898752Y-96167472D01*
X163803514Y-95643663D02*
X164041609Y-96643663D01*
X164041609Y-96643663D02*
X164232085Y-95929377D01*
X164232085Y-95929377D02*
X164422561Y-96643663D01*
X164422561Y-96643663D02*
X164660657Y-95643663D01*
X165613037Y-96643663D02*
X165279704Y-96167472D01*
X165041609Y-96643663D02*
X165041609Y-95643663D01*
X165041609Y-95643663D02*
X165422561Y-95643663D01*
X165422561Y-95643663D02*
X165517799Y-95691282D01*
X165517799Y-95691282D02*
X165565418Y-95738901D01*
X165565418Y-95738901D02*
X165613037Y-95834139D01*
X165613037Y-95834139D02*
X165613037Y-95976996D01*
X165613037Y-95976996D02*
X165565418Y-96072234D01*
X165565418Y-96072234D02*
X165517799Y-96119853D01*
X165517799Y-96119853D02*
X165422561Y-96167472D01*
X165422561Y-96167472D02*
X165041609Y-96167472D01*
X148627085Y-80625853D02*
X148769942Y-80673472D01*
X148769942Y-80673472D02*
X148817561Y-80721091D01*
X148817561Y-80721091D02*
X148865180Y-80816329D01*
X148865180Y-80816329D02*
X148865180Y-80959186D01*
X148865180Y-80959186D02*
X148817561Y-81054424D01*
X148817561Y-81054424D02*
X148769942Y-81102044D01*
X148769942Y-81102044D02*
X148674704Y-81149663D01*
X148674704Y-81149663D02*
X148293752Y-81149663D01*
X148293752Y-81149663D02*
X148293752Y-80149663D01*
X148293752Y-80149663D02*
X148627085Y-80149663D01*
X148627085Y-80149663D02*
X148722323Y-80197282D01*
X148722323Y-80197282D02*
X148769942Y-80244901D01*
X148769942Y-80244901D02*
X148817561Y-80340139D01*
X148817561Y-80340139D02*
X148817561Y-80435377D01*
X148817561Y-80435377D02*
X148769942Y-80530615D01*
X148769942Y-80530615D02*
X148722323Y-80578234D01*
X148722323Y-80578234D02*
X148627085Y-80625853D01*
X148627085Y-80625853D02*
X148293752Y-80625853D01*
X177233895Y-123837663D02*
X177805323Y-123837663D01*
X177519609Y-124837663D02*
X177519609Y-123837663D01*
X178043419Y-123837663D02*
X178710085Y-124837663D01*
X178710085Y-123837663D02*
X178043419Y-124837663D01*
X125860336Y-112035180D02*
X126336527Y-111701847D01*
X125860336Y-111463752D02*
X126860336Y-111463752D01*
X126860336Y-111463752D02*
X126860336Y-111844704D01*
X126860336Y-111844704D02*
X126812717Y-111939942D01*
X126812717Y-111939942D02*
X126765098Y-111987561D01*
X126765098Y-111987561D02*
X126669860Y-112035180D01*
X126669860Y-112035180D02*
X126527003Y-112035180D01*
X126527003Y-112035180D02*
X126431765Y-111987561D01*
X126431765Y-111987561D02*
X126384146Y-111939942D01*
X126384146Y-111939942D02*
X126336527Y-111844704D01*
X126336527Y-111844704D02*
X126336527Y-111463752D01*
X125907956Y-112844704D02*
X125860336Y-112749466D01*
X125860336Y-112749466D02*
X125860336Y-112558990D01*
X125860336Y-112558990D02*
X125907956Y-112463752D01*
X125907956Y-112463752D02*
X126003194Y-112416133D01*
X126003194Y-112416133D02*
X126384146Y-112416133D01*
X126384146Y-112416133D02*
X126479384Y-112463752D01*
X126479384Y-112463752D02*
X126527003Y-112558990D01*
X126527003Y-112558990D02*
X126527003Y-112749466D01*
X126527003Y-112749466D02*
X126479384Y-112844704D01*
X126479384Y-112844704D02*
X126384146Y-112892323D01*
X126384146Y-112892323D02*
X126288908Y-112892323D01*
X126288908Y-112892323D02*
X126193670Y-112416133D01*
X125907956Y-113749466D02*
X125860336Y-113654228D01*
X125860336Y-113654228D02*
X125860336Y-113463752D01*
X125860336Y-113463752D02*
X125907956Y-113368514D01*
X125907956Y-113368514D02*
X125955575Y-113320895D01*
X125955575Y-113320895D02*
X126050813Y-113273276D01*
X126050813Y-113273276D02*
X126336527Y-113273276D01*
X126336527Y-113273276D02*
X126431765Y-113320895D01*
X126431765Y-113320895D02*
X126479384Y-113368514D01*
X126479384Y-113368514D02*
X126527003Y-113463752D01*
X126527003Y-113463752D02*
X126527003Y-113654228D01*
X126527003Y-113654228D02*
X126479384Y-113749466D01*
X125907956Y-114558990D02*
X125860336Y-114463752D01*
X125860336Y-114463752D02*
X125860336Y-114273276D01*
X125860336Y-114273276D02*
X125907956Y-114178038D01*
X125907956Y-114178038D02*
X126003194Y-114130419D01*
X126003194Y-114130419D02*
X126384146Y-114130419D01*
X126384146Y-114130419D02*
X126479384Y-114178038D01*
X126479384Y-114178038D02*
X126527003Y-114273276D01*
X126527003Y-114273276D02*
X126527003Y-114463752D01*
X126527003Y-114463752D02*
X126479384Y-114558990D01*
X126479384Y-114558990D02*
X126384146Y-114606609D01*
X126384146Y-114606609D02*
X126288908Y-114606609D01*
X126288908Y-114606609D02*
X126193670Y-114130419D01*
X125860336Y-115035181D02*
X126527003Y-115035181D01*
X126860336Y-115035181D02*
X126812717Y-114987562D01*
X126812717Y-114987562D02*
X126765098Y-115035181D01*
X126765098Y-115035181D02*
X126812717Y-115082800D01*
X126812717Y-115082800D02*
X126860336Y-115035181D01*
X126860336Y-115035181D02*
X126765098Y-115035181D01*
X126527003Y-115416133D02*
X125860336Y-115654228D01*
X125860336Y-115654228D02*
X126527003Y-115892323D01*
X125907956Y-116654228D02*
X125860336Y-116558990D01*
X125860336Y-116558990D02*
X125860336Y-116368514D01*
X125860336Y-116368514D02*
X125907956Y-116273276D01*
X125907956Y-116273276D02*
X126003194Y-116225657D01*
X126003194Y-116225657D02*
X126384146Y-116225657D01*
X126384146Y-116225657D02*
X126479384Y-116273276D01*
X126479384Y-116273276D02*
X126527003Y-116368514D01*
X126527003Y-116368514D02*
X126527003Y-116558990D01*
X126527003Y-116558990D02*
X126479384Y-116654228D01*
X126479384Y-116654228D02*
X126384146Y-116701847D01*
X126384146Y-116701847D02*
X126288908Y-116701847D01*
X126288908Y-116701847D02*
X126193670Y-116225657D01*
X125860336Y-117130419D02*
X126527003Y-117130419D01*
X126336527Y-117130419D02*
X126431765Y-117178038D01*
X126431765Y-117178038D02*
X126479384Y-117225657D01*
X126479384Y-117225657D02*
X126527003Y-117320895D01*
X126527003Y-117320895D02*
X126527003Y-117416133D01*
X174836752Y-124202710D02*
X175598657Y-124202710D01*
X175217704Y-124583663D02*
X175217704Y-123821758D01*
X138578180Y-88007663D02*
X138244847Y-87531472D01*
X138006752Y-88007663D02*
X138006752Y-87007663D01*
X138006752Y-87007663D02*
X138387704Y-87007663D01*
X138387704Y-87007663D02*
X138482942Y-87055282D01*
X138482942Y-87055282D02*
X138530561Y-87102901D01*
X138530561Y-87102901D02*
X138578180Y-87198139D01*
X138578180Y-87198139D02*
X138578180Y-87340996D01*
X138578180Y-87340996D02*
X138530561Y-87436234D01*
X138530561Y-87436234D02*
X138482942Y-87483853D01*
X138482942Y-87483853D02*
X138387704Y-87531472D01*
X138387704Y-87531472D02*
X138006752Y-87531472D01*
X139006752Y-87483853D02*
X139340085Y-87483853D01*
X139482942Y-88007663D02*
X139006752Y-88007663D01*
X139006752Y-88007663D02*
X139006752Y-87007663D01*
X139006752Y-87007663D02*
X139482942Y-87007663D01*
X139863895Y-87960044D02*
X140006752Y-88007663D01*
X140006752Y-88007663D02*
X140244847Y-88007663D01*
X140244847Y-88007663D02*
X140340085Y-87960044D01*
X140340085Y-87960044D02*
X140387704Y-87912424D01*
X140387704Y-87912424D02*
X140435323Y-87817186D01*
X140435323Y-87817186D02*
X140435323Y-87721948D01*
X140435323Y-87721948D02*
X140387704Y-87626710D01*
X140387704Y-87626710D02*
X140340085Y-87579091D01*
X140340085Y-87579091D02*
X140244847Y-87531472D01*
X140244847Y-87531472D02*
X140054371Y-87483853D01*
X140054371Y-87483853D02*
X139959133Y-87436234D01*
X139959133Y-87436234D02*
X139911514Y-87388615D01*
X139911514Y-87388615D02*
X139863895Y-87293377D01*
X139863895Y-87293377D02*
X139863895Y-87198139D01*
X139863895Y-87198139D02*
X139911514Y-87102901D01*
X139911514Y-87102901D02*
X139959133Y-87055282D01*
X139959133Y-87055282D02*
X140054371Y-87007663D01*
X140054371Y-87007663D02*
X140292466Y-87007663D01*
X140292466Y-87007663D02*
X140435323Y-87055282D01*
X140863895Y-87483853D02*
X141197228Y-87483853D01*
X141340085Y-88007663D02*
X140863895Y-88007663D01*
X140863895Y-88007663D02*
X140863895Y-87007663D01*
X140863895Y-87007663D02*
X141340085Y-87007663D01*
X141625800Y-87007663D02*
X142197228Y-87007663D01*
X141911514Y-88007663D02*
X141911514Y-87007663D01*
X180234180Y-124837663D02*
X179900847Y-124361472D01*
X179662752Y-124837663D02*
X179662752Y-123837663D01*
X179662752Y-123837663D02*
X180043704Y-123837663D01*
X180043704Y-123837663D02*
X180138942Y-123885282D01*
X180138942Y-123885282D02*
X180186561Y-123932901D01*
X180186561Y-123932901D02*
X180234180Y-124028139D01*
X180234180Y-124028139D02*
X180234180Y-124170996D01*
X180234180Y-124170996D02*
X180186561Y-124266234D01*
X180186561Y-124266234D02*
X180138942Y-124313853D01*
X180138942Y-124313853D02*
X180043704Y-124361472D01*
X180043704Y-124361472D02*
X179662752Y-124361472D01*
X180567514Y-123837663D02*
X181234180Y-124837663D01*
X181234180Y-123837663D02*
X180567514Y-124837663D01*
X162787561Y-80197282D02*
X162692323Y-80149663D01*
X162692323Y-80149663D02*
X162549466Y-80149663D01*
X162549466Y-80149663D02*
X162406609Y-80197282D01*
X162406609Y-80197282D02*
X162311371Y-80292520D01*
X162311371Y-80292520D02*
X162263752Y-80387758D01*
X162263752Y-80387758D02*
X162216133Y-80578234D01*
X162216133Y-80578234D02*
X162216133Y-80721091D01*
X162216133Y-80721091D02*
X162263752Y-80911567D01*
X162263752Y-80911567D02*
X162311371Y-81006805D01*
X162311371Y-81006805D02*
X162406609Y-81102044D01*
X162406609Y-81102044D02*
X162549466Y-81149663D01*
X162549466Y-81149663D02*
X162644704Y-81149663D01*
X162644704Y-81149663D02*
X162787561Y-81102044D01*
X162787561Y-81102044D02*
X162835180Y-81054424D01*
X162835180Y-81054424D02*
X162835180Y-80721091D01*
X162835180Y-80721091D02*
X162644704Y-80721091D01*
D13*
X144359333Y-105870080D02*
X144311714Y-105917700D01*
X144311714Y-105917700D02*
X144168857Y-105965319D01*
X144168857Y-105965319D02*
X144073619Y-105965319D01*
X144073619Y-105965319D02*
X143930762Y-105917700D01*
X143930762Y-105917700D02*
X143835524Y-105822461D01*
X143835524Y-105822461D02*
X143787905Y-105727223D01*
X143787905Y-105727223D02*
X143740286Y-105536747D01*
X143740286Y-105536747D02*
X143740286Y-105393890D01*
X143740286Y-105393890D02*
X143787905Y-105203414D01*
X143787905Y-105203414D02*
X143835524Y-105108176D01*
X143835524Y-105108176D02*
X143930762Y-105012938D01*
X143930762Y-105012938D02*
X144073619Y-104965319D01*
X144073619Y-104965319D02*
X144168857Y-104965319D01*
X144168857Y-104965319D02*
X144311714Y-105012938D01*
X144311714Y-105012938D02*
X144359333Y-105060557D01*
X144692667Y-104965319D02*
X145359333Y-104965319D01*
X145359333Y-104965319D02*
X144930762Y-105965319D01*
X171132833Y-104500819D02*
X170799500Y-104024628D01*
X170561405Y-104500819D02*
X170561405Y-103500819D01*
X170561405Y-103500819D02*
X170942357Y-103500819D01*
X170942357Y-103500819D02*
X171037595Y-103548438D01*
X171037595Y-103548438D02*
X171085214Y-103596057D01*
X171085214Y-103596057D02*
X171132833Y-103691295D01*
X171132833Y-103691295D02*
X171132833Y-103834152D01*
X171132833Y-103834152D02*
X171085214Y-103929390D01*
X171085214Y-103929390D02*
X171037595Y-103977009D01*
X171037595Y-103977009D02*
X170942357Y-104024628D01*
X170942357Y-104024628D02*
X170561405Y-104024628D01*
X171989976Y-103834152D02*
X171989976Y-104500819D01*
X171751881Y-103453200D02*
X171513786Y-104167485D01*
X171513786Y-104167485D02*
X172132833Y-104167485D01*
X161750476Y-74026819D02*
X161750476Y-74741104D01*
X161750476Y-74741104D02*
X161702857Y-74883961D01*
X161702857Y-74883961D02*
X161607619Y-74979200D01*
X161607619Y-74979200D02*
X161464762Y-75026819D01*
X161464762Y-75026819D02*
X161369524Y-75026819D01*
X162750476Y-75026819D02*
X162179048Y-75026819D01*
X162464762Y-75026819D02*
X162464762Y-74026819D01*
X162464762Y-74026819D02*
X162369524Y-74169676D01*
X162369524Y-74169676D02*
X162274286Y-74264914D01*
X162274286Y-74264914D02*
X162179048Y-74312533D01*
X163607619Y-74026819D02*
X163417143Y-74026819D01*
X163417143Y-74026819D02*
X163321905Y-74074438D01*
X163321905Y-74074438D02*
X163274286Y-74122057D01*
X163274286Y-74122057D02*
X163179048Y-74264914D01*
X163179048Y-74264914D02*
X163131429Y-74455390D01*
X163131429Y-74455390D02*
X163131429Y-74836342D01*
X163131429Y-74836342D02*
X163179048Y-74931580D01*
X163179048Y-74931580D02*
X163226667Y-74979200D01*
X163226667Y-74979200D02*
X163321905Y-75026819D01*
X163321905Y-75026819D02*
X163512381Y-75026819D01*
X163512381Y-75026819D02*
X163607619Y-74979200D01*
X163607619Y-74979200D02*
X163655238Y-74931580D01*
X163655238Y-74931580D02*
X163702857Y-74836342D01*
X163702857Y-74836342D02*
X163702857Y-74598247D01*
X163702857Y-74598247D02*
X163655238Y-74503009D01*
X163655238Y-74503009D02*
X163607619Y-74455390D01*
X163607619Y-74455390D02*
X163512381Y-74407771D01*
X163512381Y-74407771D02*
X163321905Y-74407771D01*
X163321905Y-74407771D02*
X163226667Y-74455390D01*
X163226667Y-74455390D02*
X163179048Y-74503009D01*
X163179048Y-74503009D02*
X163131429Y-74598247D01*
X138001080Y-82811857D02*
X138048700Y-82859476D01*
X138048700Y-82859476D02*
X138096319Y-83002333D01*
X138096319Y-83002333D02*
X138096319Y-83097571D01*
X138096319Y-83097571D02*
X138048700Y-83240428D01*
X138048700Y-83240428D02*
X137953461Y-83335666D01*
X137953461Y-83335666D02*
X137858223Y-83383285D01*
X137858223Y-83383285D02*
X137667747Y-83430904D01*
X137667747Y-83430904D02*
X137524890Y-83430904D01*
X137524890Y-83430904D02*
X137334414Y-83383285D01*
X137334414Y-83383285D02*
X137239176Y-83335666D01*
X137239176Y-83335666D02*
X137143938Y-83240428D01*
X137143938Y-83240428D02*
X137096319Y-83097571D01*
X137096319Y-83097571D02*
X137096319Y-83002333D01*
X137096319Y-83002333D02*
X137143938Y-82859476D01*
X137143938Y-82859476D02*
X137191557Y-82811857D01*
X138096319Y-81859476D02*
X138096319Y-82430904D01*
X138096319Y-82145190D02*
X137096319Y-82145190D01*
X137096319Y-82145190D02*
X137239176Y-82240428D01*
X137239176Y-82240428D02*
X137334414Y-82335666D01*
X137334414Y-82335666D02*
X137382033Y-82430904D01*
X137096319Y-81526142D02*
X137096319Y-80859476D01*
X137096319Y-80859476D02*
X138096319Y-81288047D01*
X121110476Y-73876819D02*
X121110476Y-74591104D01*
X121110476Y-74591104D02*
X121062857Y-74733961D01*
X121062857Y-74733961D02*
X120967619Y-74829200D01*
X120967619Y-74829200D02*
X120824762Y-74876819D01*
X120824762Y-74876819D02*
X120729524Y-74876819D01*
X121539048Y-73972057D02*
X121586667Y-73924438D01*
X121586667Y-73924438D02*
X121681905Y-73876819D01*
X121681905Y-73876819D02*
X121920000Y-73876819D01*
X121920000Y-73876819D02*
X122015238Y-73924438D01*
X122015238Y-73924438D02*
X122062857Y-73972057D01*
X122062857Y-73972057D02*
X122110476Y-74067295D01*
X122110476Y-74067295D02*
X122110476Y-74162533D01*
X122110476Y-74162533D02*
X122062857Y-74305390D01*
X122062857Y-74305390D02*
X121491429Y-74876819D01*
X121491429Y-74876819D02*
X122110476Y-74876819D01*
X122967619Y-74210152D02*
X122967619Y-74876819D01*
X122729524Y-73829200D02*
X122491429Y-74543485D01*
X122491429Y-74543485D02*
X123110476Y-74543485D01*
X119848571Y-80845866D02*
X120610476Y-80845866D01*
X121419999Y-80703009D02*
X121562856Y-80750628D01*
X121562856Y-80750628D02*
X121610475Y-80798247D01*
X121610475Y-80798247D02*
X121658094Y-80893485D01*
X121658094Y-80893485D02*
X121658094Y-81036342D01*
X121658094Y-81036342D02*
X121610475Y-81131580D01*
X121610475Y-81131580D02*
X121562856Y-81179200D01*
X121562856Y-81179200D02*
X121467618Y-81226819D01*
X121467618Y-81226819D02*
X121086666Y-81226819D01*
X121086666Y-81226819D02*
X121086666Y-80226819D01*
X121086666Y-80226819D02*
X121419999Y-80226819D01*
X121419999Y-80226819D02*
X121515237Y-80274438D01*
X121515237Y-80274438D02*
X121562856Y-80322057D01*
X121562856Y-80322057D02*
X121610475Y-80417295D01*
X121610475Y-80417295D02*
X121610475Y-80512533D01*
X121610475Y-80512533D02*
X121562856Y-80607771D01*
X121562856Y-80607771D02*
X121515237Y-80655390D01*
X121515237Y-80655390D02*
X121419999Y-80703009D01*
X121419999Y-80703009D02*
X121086666Y-80703009D01*
X122039047Y-80941104D02*
X122515237Y-80941104D01*
X121943809Y-81226819D02*
X122277142Y-80226819D01*
X122277142Y-80226819D02*
X122610475Y-81226819D01*
X122800952Y-80226819D02*
X123372380Y-80226819D01*
X123086666Y-81226819D02*
X123086666Y-80226819D01*
X123562857Y-80226819D02*
X124134285Y-80226819D01*
X123848571Y-81226819D02*
X123848571Y-80226819D01*
X155400476Y-74026819D02*
X155400476Y-74741104D01*
X155400476Y-74741104D02*
X155352857Y-74883961D01*
X155352857Y-74883961D02*
X155257619Y-74979200D01*
X155257619Y-74979200D02*
X155114762Y-75026819D01*
X155114762Y-75026819D02*
X155019524Y-75026819D01*
X156400476Y-75026819D02*
X155829048Y-75026819D01*
X156114762Y-75026819D02*
X156114762Y-74026819D01*
X156114762Y-74026819D02*
X156019524Y-74169676D01*
X156019524Y-74169676D02*
X155924286Y-74264914D01*
X155924286Y-74264914D02*
X155829048Y-74312533D01*
X156781429Y-74122057D02*
X156829048Y-74074438D01*
X156829048Y-74074438D02*
X156924286Y-74026819D01*
X156924286Y-74026819D02*
X157162381Y-74026819D01*
X157162381Y-74026819D02*
X157257619Y-74074438D01*
X157257619Y-74074438D02*
X157305238Y-74122057D01*
X157305238Y-74122057D02*
X157352857Y-74217295D01*
X157352857Y-74217295D02*
X157352857Y-74312533D01*
X157352857Y-74312533D02*
X157305238Y-74455390D01*
X157305238Y-74455390D02*
X156733810Y-75026819D01*
X156733810Y-75026819D02*
X157352857Y-75026819D01*
X183340476Y-74026819D02*
X183340476Y-74741104D01*
X183340476Y-74741104D02*
X183292857Y-74883961D01*
X183292857Y-74883961D02*
X183197619Y-74979200D01*
X183197619Y-74979200D02*
X183054762Y-75026819D01*
X183054762Y-75026819D02*
X182959524Y-75026819D01*
X184340476Y-75026819D02*
X183769048Y-75026819D01*
X184054762Y-75026819D02*
X184054762Y-74026819D01*
X184054762Y-74026819D02*
X183959524Y-74169676D01*
X183959524Y-74169676D02*
X183864286Y-74264914D01*
X183864286Y-74264914D02*
X183769048Y-74312533D01*
X185197619Y-74360152D02*
X185197619Y-75026819D01*
X184959524Y-73979200D02*
X184721429Y-74693485D01*
X184721429Y-74693485D02*
X185340476Y-74693485D01*
X130661580Y-102041857D02*
X130709200Y-102089476D01*
X130709200Y-102089476D02*
X130756819Y-102232333D01*
X130756819Y-102232333D02*
X130756819Y-102327571D01*
X130756819Y-102327571D02*
X130709200Y-102470428D01*
X130709200Y-102470428D02*
X130613961Y-102565666D01*
X130613961Y-102565666D02*
X130518723Y-102613285D01*
X130518723Y-102613285D02*
X130328247Y-102660904D01*
X130328247Y-102660904D02*
X130185390Y-102660904D01*
X130185390Y-102660904D02*
X129994914Y-102613285D01*
X129994914Y-102613285D02*
X129899676Y-102565666D01*
X129899676Y-102565666D02*
X129804438Y-102470428D01*
X129804438Y-102470428D02*
X129756819Y-102327571D01*
X129756819Y-102327571D02*
X129756819Y-102232333D01*
X129756819Y-102232333D02*
X129804438Y-102089476D01*
X129804438Y-102089476D02*
X129852057Y-102041857D01*
X130756819Y-101089476D02*
X130756819Y-101660904D01*
X130756819Y-101375190D02*
X129756819Y-101375190D01*
X129756819Y-101375190D02*
X129899676Y-101470428D01*
X129899676Y-101470428D02*
X129994914Y-101565666D01*
X129994914Y-101565666D02*
X130042533Y-101660904D01*
X129756819Y-100756142D02*
X129756819Y-100137095D01*
X129756819Y-100137095D02*
X130137771Y-100470428D01*
X130137771Y-100470428D02*
X130137771Y-100327571D01*
X130137771Y-100327571D02*
X130185390Y-100232333D01*
X130185390Y-100232333D02*
X130233009Y-100184714D01*
X130233009Y-100184714D02*
X130328247Y-100137095D01*
X130328247Y-100137095D02*
X130566342Y-100137095D01*
X130566342Y-100137095D02*
X130661580Y-100184714D01*
X130661580Y-100184714D02*
X130709200Y-100232333D01*
X130709200Y-100232333D02*
X130756819Y-100327571D01*
X130756819Y-100327571D02*
X130756819Y-100613285D01*
X130756819Y-100613285D02*
X130709200Y-100708523D01*
X130709200Y-100708523D02*
X130661580Y-100756142D01*
X145716666Y-118476819D02*
X145716666Y-119191104D01*
X145716666Y-119191104D02*
X145669047Y-119333961D01*
X145669047Y-119333961D02*
X145573809Y-119429200D01*
X145573809Y-119429200D02*
X145430952Y-119476819D01*
X145430952Y-119476819D02*
X145335714Y-119476819D01*
X146669047Y-118476819D02*
X146192857Y-118476819D01*
X146192857Y-118476819D02*
X146145238Y-118953009D01*
X146145238Y-118953009D02*
X146192857Y-118905390D01*
X146192857Y-118905390D02*
X146288095Y-118857771D01*
X146288095Y-118857771D02*
X146526190Y-118857771D01*
X146526190Y-118857771D02*
X146621428Y-118905390D01*
X146621428Y-118905390D02*
X146669047Y-118953009D01*
X146669047Y-118953009D02*
X146716666Y-119048247D01*
X146716666Y-119048247D02*
X146716666Y-119286342D01*
X146716666Y-119286342D02*
X146669047Y-119381580D01*
X146669047Y-119381580D02*
X146621428Y-119429200D01*
X146621428Y-119429200D02*
X146526190Y-119476819D01*
X146526190Y-119476819D02*
X146288095Y-119476819D01*
X146288095Y-119476819D02*
X146192857Y-119429200D01*
X146192857Y-119429200D02*
X146145238Y-119381580D01*
X141430476Y-74026819D02*
X141430476Y-74741104D01*
X141430476Y-74741104D02*
X141382857Y-74883961D01*
X141382857Y-74883961D02*
X141287619Y-74979200D01*
X141287619Y-74979200D02*
X141144762Y-75026819D01*
X141144762Y-75026819D02*
X141049524Y-75026819D01*
X142430476Y-75026819D02*
X141859048Y-75026819D01*
X142144762Y-75026819D02*
X142144762Y-74026819D01*
X142144762Y-74026819D02*
X142049524Y-74169676D01*
X142049524Y-74169676D02*
X141954286Y-74264914D01*
X141954286Y-74264914D02*
X141859048Y-74312533D01*
X143382857Y-75026819D02*
X142811429Y-75026819D01*
X143097143Y-75026819D02*
X143097143Y-74026819D01*
X143097143Y-74026819D02*
X143001905Y-74169676D01*
X143001905Y-74169676D02*
X142906667Y-74264914D01*
X142906667Y-74264914D02*
X142811429Y-74312533D01*
X121110476Y-110856819D02*
X121110476Y-111571104D01*
X121110476Y-111571104D02*
X121062857Y-111713961D01*
X121062857Y-111713961D02*
X120967619Y-111809200D01*
X120967619Y-111809200D02*
X120824762Y-111856819D01*
X120824762Y-111856819D02*
X120729524Y-111856819D01*
X121539048Y-110952057D02*
X121586667Y-110904438D01*
X121586667Y-110904438D02*
X121681905Y-110856819D01*
X121681905Y-110856819D02*
X121920000Y-110856819D01*
X121920000Y-110856819D02*
X122015238Y-110904438D01*
X122015238Y-110904438D02*
X122062857Y-110952057D01*
X122062857Y-110952057D02*
X122110476Y-111047295D01*
X122110476Y-111047295D02*
X122110476Y-111142533D01*
X122110476Y-111142533D02*
X122062857Y-111285390D01*
X122062857Y-111285390D02*
X121491429Y-111856819D01*
X121491429Y-111856819D02*
X122110476Y-111856819D01*
X122729524Y-110856819D02*
X122824762Y-110856819D01*
X122824762Y-110856819D02*
X122920000Y-110904438D01*
X122920000Y-110904438D02*
X122967619Y-110952057D01*
X122967619Y-110952057D02*
X123015238Y-111047295D01*
X123015238Y-111047295D02*
X123062857Y-111237771D01*
X123062857Y-111237771D02*
X123062857Y-111475866D01*
X123062857Y-111475866D02*
X123015238Y-111666342D01*
X123015238Y-111666342D02*
X122967619Y-111761580D01*
X122967619Y-111761580D02*
X122920000Y-111809200D01*
X122920000Y-111809200D02*
X122824762Y-111856819D01*
X122824762Y-111856819D02*
X122729524Y-111856819D01*
X122729524Y-111856819D02*
X122634286Y-111809200D01*
X122634286Y-111809200D02*
X122586667Y-111761580D01*
X122586667Y-111761580D02*
X122539048Y-111666342D01*
X122539048Y-111666342D02*
X122491429Y-111475866D01*
X122491429Y-111475866D02*
X122491429Y-111237771D01*
X122491429Y-111237771D02*
X122539048Y-111047295D01*
X122539048Y-111047295D02*
X122586667Y-110952057D01*
X122586667Y-110952057D02*
X122634286Y-110904438D01*
X122634286Y-110904438D02*
X122729524Y-110856819D01*
X120420000Y-117929819D02*
X120420000Y-117263152D01*
X120420000Y-116929819D02*
X120372381Y-116977438D01*
X120372381Y-116977438D02*
X120420000Y-117025057D01*
X120420000Y-117025057D02*
X120467619Y-116977438D01*
X120467619Y-116977438D02*
X120420000Y-116929819D01*
X120420000Y-116929819D02*
X120420000Y-117025057D01*
X121229523Y-117406009D02*
X121372380Y-117453628D01*
X121372380Y-117453628D02*
X121419999Y-117501247D01*
X121419999Y-117501247D02*
X121467618Y-117596485D01*
X121467618Y-117596485D02*
X121467618Y-117739342D01*
X121467618Y-117739342D02*
X121419999Y-117834580D01*
X121419999Y-117834580D02*
X121372380Y-117882200D01*
X121372380Y-117882200D02*
X121277142Y-117929819D01*
X121277142Y-117929819D02*
X120896190Y-117929819D01*
X120896190Y-117929819D02*
X120896190Y-116929819D01*
X120896190Y-116929819D02*
X121229523Y-116929819D01*
X121229523Y-116929819D02*
X121324761Y-116977438D01*
X121324761Y-116977438D02*
X121372380Y-117025057D01*
X121372380Y-117025057D02*
X121419999Y-117120295D01*
X121419999Y-117120295D02*
X121419999Y-117215533D01*
X121419999Y-117215533D02*
X121372380Y-117310771D01*
X121372380Y-117310771D02*
X121324761Y-117358390D01*
X121324761Y-117358390D02*
X121229523Y-117406009D01*
X121229523Y-117406009D02*
X120896190Y-117406009D01*
X121896190Y-116929819D02*
X121896190Y-117739342D01*
X121896190Y-117739342D02*
X121943809Y-117834580D01*
X121943809Y-117834580D02*
X121991428Y-117882200D01*
X121991428Y-117882200D02*
X122086666Y-117929819D01*
X122086666Y-117929819D02*
X122277142Y-117929819D01*
X122277142Y-117929819D02*
X122372380Y-117882200D01*
X122372380Y-117882200D02*
X122419999Y-117834580D01*
X122419999Y-117834580D02*
X122467618Y-117739342D01*
X122467618Y-117739342D02*
X122467618Y-116929819D01*
X122896190Y-117882200D02*
X123039047Y-117929819D01*
X123039047Y-117929819D02*
X123277142Y-117929819D01*
X123277142Y-117929819D02*
X123372380Y-117882200D01*
X123372380Y-117882200D02*
X123419999Y-117834580D01*
X123419999Y-117834580D02*
X123467618Y-117739342D01*
X123467618Y-117739342D02*
X123467618Y-117644104D01*
X123467618Y-117644104D02*
X123419999Y-117548866D01*
X123419999Y-117548866D02*
X123372380Y-117501247D01*
X123372380Y-117501247D02*
X123277142Y-117453628D01*
X123277142Y-117453628D02*
X123086666Y-117406009D01*
X123086666Y-117406009D02*
X122991428Y-117358390D01*
X122991428Y-117358390D02*
X122943809Y-117310771D01*
X122943809Y-117310771D02*
X122896190Y-117215533D01*
X122896190Y-117215533D02*
X122896190Y-117120295D01*
X122896190Y-117120295D02*
X122943809Y-117025057D01*
X122943809Y-117025057D02*
X122991428Y-116977438D01*
X122991428Y-116977438D02*
X123086666Y-116929819D01*
X123086666Y-116929819D02*
X123324761Y-116929819D01*
X123324761Y-116929819D02*
X123467618Y-116977438D01*
X133990595Y-99128319D02*
X133990595Y-99937842D01*
X133990595Y-99937842D02*
X134038214Y-100033080D01*
X134038214Y-100033080D02*
X134085833Y-100080700D01*
X134085833Y-100080700D02*
X134181071Y-100128319D01*
X134181071Y-100128319D02*
X134371547Y-100128319D01*
X134371547Y-100128319D02*
X134466785Y-100080700D01*
X134466785Y-100080700D02*
X134514404Y-100033080D01*
X134514404Y-100033080D02*
X134562023Y-99937842D01*
X134562023Y-99937842D02*
X134562023Y-99128319D01*
X134990595Y-99223557D02*
X135038214Y-99175938D01*
X135038214Y-99175938D02*
X135133452Y-99128319D01*
X135133452Y-99128319D02*
X135371547Y-99128319D01*
X135371547Y-99128319D02*
X135466785Y-99175938D01*
X135466785Y-99175938D02*
X135514404Y-99223557D01*
X135514404Y-99223557D02*
X135562023Y-99318795D01*
X135562023Y-99318795D02*
X135562023Y-99414033D01*
X135562023Y-99414033D02*
X135514404Y-99556890D01*
X135514404Y-99556890D02*
X134942976Y-100128319D01*
X134942976Y-100128319D02*
X135562023Y-100128319D01*
X147780476Y-74026819D02*
X147780476Y-74741104D01*
X147780476Y-74741104D02*
X147732857Y-74883961D01*
X147732857Y-74883961D02*
X147637619Y-74979200D01*
X147637619Y-74979200D02*
X147494762Y-75026819D01*
X147494762Y-75026819D02*
X147399524Y-75026819D01*
X148780476Y-75026819D02*
X148209048Y-75026819D01*
X148494762Y-75026819D02*
X148494762Y-74026819D01*
X148494762Y-74026819D02*
X148399524Y-74169676D01*
X148399524Y-74169676D02*
X148304286Y-74264914D01*
X148304286Y-74264914D02*
X148209048Y-74312533D01*
X149685238Y-74026819D02*
X149209048Y-74026819D01*
X149209048Y-74026819D02*
X149161429Y-74503009D01*
X149161429Y-74503009D02*
X149209048Y-74455390D01*
X149209048Y-74455390D02*
X149304286Y-74407771D01*
X149304286Y-74407771D02*
X149542381Y-74407771D01*
X149542381Y-74407771D02*
X149637619Y-74455390D01*
X149637619Y-74455390D02*
X149685238Y-74503009D01*
X149685238Y-74503009D02*
X149732857Y-74598247D01*
X149732857Y-74598247D02*
X149732857Y-74836342D01*
X149732857Y-74836342D02*
X149685238Y-74931580D01*
X149685238Y-74931580D02*
X149637619Y-74979200D01*
X149637619Y-74979200D02*
X149542381Y-75026819D01*
X149542381Y-75026819D02*
X149304286Y-75026819D01*
X149304286Y-75026819D02*
X149209048Y-74979200D01*
X149209048Y-74979200D02*
X149161429Y-74931580D01*
X121110476Y-103236819D02*
X121110476Y-103951104D01*
X121110476Y-103951104D02*
X121062857Y-104093961D01*
X121062857Y-104093961D02*
X120967619Y-104189200D01*
X120967619Y-104189200D02*
X120824762Y-104236819D01*
X120824762Y-104236819D02*
X120729524Y-104236819D01*
X122110476Y-104236819D02*
X121539048Y-104236819D01*
X121824762Y-104236819D02*
X121824762Y-103236819D01*
X121824762Y-103236819D02*
X121729524Y-103379676D01*
X121729524Y-103379676D02*
X121634286Y-103474914D01*
X121634286Y-103474914D02*
X121539048Y-103522533D01*
X122586667Y-104236819D02*
X122777143Y-104236819D01*
X122777143Y-104236819D02*
X122872381Y-104189200D01*
X122872381Y-104189200D02*
X122920000Y-104141580D01*
X122920000Y-104141580D02*
X123015238Y-103998723D01*
X123015238Y-103998723D02*
X123062857Y-103808247D01*
X123062857Y-103808247D02*
X123062857Y-103427295D01*
X123062857Y-103427295D02*
X123015238Y-103332057D01*
X123015238Y-103332057D02*
X122967619Y-103284438D01*
X122967619Y-103284438D02*
X122872381Y-103236819D01*
X122872381Y-103236819D02*
X122681905Y-103236819D01*
X122681905Y-103236819D02*
X122586667Y-103284438D01*
X122586667Y-103284438D02*
X122539048Y-103332057D01*
X122539048Y-103332057D02*
X122491429Y-103427295D01*
X122491429Y-103427295D02*
X122491429Y-103665390D01*
X122491429Y-103665390D02*
X122539048Y-103760628D01*
X122539048Y-103760628D02*
X122586667Y-103808247D01*
X122586667Y-103808247D02*
X122681905Y-103855866D01*
X122681905Y-103855866D02*
X122872381Y-103855866D01*
X122872381Y-103855866D02*
X122967619Y-103808247D01*
X122967619Y-103808247D02*
X123015238Y-103760628D01*
X123015238Y-103760628D02*
X123062857Y-103665390D01*
X149439333Y-91132819D02*
X149106000Y-90656628D01*
X148867905Y-91132819D02*
X148867905Y-90132819D01*
X148867905Y-90132819D02*
X149248857Y-90132819D01*
X149248857Y-90132819D02*
X149344095Y-90180438D01*
X149344095Y-90180438D02*
X149391714Y-90228057D01*
X149391714Y-90228057D02*
X149439333Y-90323295D01*
X149439333Y-90323295D02*
X149439333Y-90466152D01*
X149439333Y-90466152D02*
X149391714Y-90561390D01*
X149391714Y-90561390D02*
X149344095Y-90609009D01*
X149344095Y-90609009D02*
X149248857Y-90656628D01*
X149248857Y-90656628D02*
X148867905Y-90656628D01*
X150391714Y-91132819D02*
X149820286Y-91132819D01*
X150106000Y-91132819D02*
X150106000Y-90132819D01*
X150106000Y-90132819D02*
X150010762Y-90275676D01*
X150010762Y-90275676D02*
X149915524Y-90370914D01*
X149915524Y-90370914D02*
X149820286Y-90418533D01*
X139533333Y-85798819D02*
X139200000Y-85322628D01*
X138961905Y-85798819D02*
X138961905Y-84798819D01*
X138961905Y-84798819D02*
X139342857Y-84798819D01*
X139342857Y-84798819D02*
X139438095Y-84846438D01*
X139438095Y-84846438D02*
X139485714Y-84894057D01*
X139485714Y-84894057D02*
X139533333Y-84989295D01*
X139533333Y-84989295D02*
X139533333Y-85132152D01*
X139533333Y-85132152D02*
X139485714Y-85227390D01*
X139485714Y-85227390D02*
X139438095Y-85275009D01*
X139438095Y-85275009D02*
X139342857Y-85322628D01*
X139342857Y-85322628D02*
X138961905Y-85322628D01*
X140104762Y-85227390D02*
X140009524Y-85179771D01*
X140009524Y-85179771D02*
X139961905Y-85132152D01*
X139961905Y-85132152D02*
X139914286Y-85036914D01*
X139914286Y-85036914D02*
X139914286Y-84989295D01*
X139914286Y-84989295D02*
X139961905Y-84894057D01*
X139961905Y-84894057D02*
X140009524Y-84846438D01*
X140009524Y-84846438D02*
X140104762Y-84798819D01*
X140104762Y-84798819D02*
X140295238Y-84798819D01*
X140295238Y-84798819D02*
X140390476Y-84846438D01*
X140390476Y-84846438D02*
X140438095Y-84894057D01*
X140438095Y-84894057D02*
X140485714Y-84989295D01*
X140485714Y-84989295D02*
X140485714Y-85036914D01*
X140485714Y-85036914D02*
X140438095Y-85132152D01*
X140438095Y-85132152D02*
X140390476Y-85179771D01*
X140390476Y-85179771D02*
X140295238Y-85227390D01*
X140295238Y-85227390D02*
X140104762Y-85227390D01*
X140104762Y-85227390D02*
X140009524Y-85275009D01*
X140009524Y-85275009D02*
X139961905Y-85322628D01*
X139961905Y-85322628D02*
X139914286Y-85417866D01*
X139914286Y-85417866D02*
X139914286Y-85608342D01*
X139914286Y-85608342D02*
X139961905Y-85703580D01*
X139961905Y-85703580D02*
X140009524Y-85751200D01*
X140009524Y-85751200D02*
X140104762Y-85798819D01*
X140104762Y-85798819D02*
X140295238Y-85798819D01*
X140295238Y-85798819D02*
X140390476Y-85751200D01*
X140390476Y-85751200D02*
X140438095Y-85703580D01*
X140438095Y-85703580D02*
X140485714Y-85608342D01*
X140485714Y-85608342D02*
X140485714Y-85417866D01*
X140485714Y-85417866D02*
X140438095Y-85322628D01*
X140438095Y-85322628D02*
X140390476Y-85275009D01*
X140390476Y-85275009D02*
X140295238Y-85227390D01*
X142327333Y-105870080D02*
X142279714Y-105917700D01*
X142279714Y-105917700D02*
X142136857Y-105965319D01*
X142136857Y-105965319D02*
X142041619Y-105965319D01*
X142041619Y-105965319D02*
X141898762Y-105917700D01*
X141898762Y-105917700D02*
X141803524Y-105822461D01*
X141803524Y-105822461D02*
X141755905Y-105727223D01*
X141755905Y-105727223D02*
X141708286Y-105536747D01*
X141708286Y-105536747D02*
X141708286Y-105393890D01*
X141708286Y-105393890D02*
X141755905Y-105203414D01*
X141755905Y-105203414D02*
X141803524Y-105108176D01*
X141803524Y-105108176D02*
X141898762Y-105012938D01*
X141898762Y-105012938D02*
X142041619Y-104965319D01*
X142041619Y-104965319D02*
X142136857Y-104965319D01*
X142136857Y-104965319D02*
X142279714Y-105012938D01*
X142279714Y-105012938D02*
X142327333Y-105060557D01*
X142898762Y-105393890D02*
X142803524Y-105346271D01*
X142803524Y-105346271D02*
X142755905Y-105298652D01*
X142755905Y-105298652D02*
X142708286Y-105203414D01*
X142708286Y-105203414D02*
X142708286Y-105155795D01*
X142708286Y-105155795D02*
X142755905Y-105060557D01*
X142755905Y-105060557D02*
X142803524Y-105012938D01*
X142803524Y-105012938D02*
X142898762Y-104965319D01*
X142898762Y-104965319D02*
X143089238Y-104965319D01*
X143089238Y-104965319D02*
X143184476Y-105012938D01*
X143184476Y-105012938D02*
X143232095Y-105060557D01*
X143232095Y-105060557D02*
X143279714Y-105155795D01*
X143279714Y-105155795D02*
X143279714Y-105203414D01*
X143279714Y-105203414D02*
X143232095Y-105298652D01*
X143232095Y-105298652D02*
X143184476Y-105346271D01*
X143184476Y-105346271D02*
X143089238Y-105393890D01*
X143089238Y-105393890D02*
X142898762Y-105393890D01*
X142898762Y-105393890D02*
X142803524Y-105441509D01*
X142803524Y-105441509D02*
X142755905Y-105489128D01*
X142755905Y-105489128D02*
X142708286Y-105584366D01*
X142708286Y-105584366D02*
X142708286Y-105774842D01*
X142708286Y-105774842D02*
X142755905Y-105870080D01*
X142755905Y-105870080D02*
X142803524Y-105917700D01*
X142803524Y-105917700D02*
X142898762Y-105965319D01*
X142898762Y-105965319D02*
X143089238Y-105965319D01*
X143089238Y-105965319D02*
X143184476Y-105917700D01*
X143184476Y-105917700D02*
X143232095Y-105870080D01*
X143232095Y-105870080D02*
X143279714Y-105774842D01*
X143279714Y-105774842D02*
X143279714Y-105584366D01*
X143279714Y-105584366D02*
X143232095Y-105489128D01*
X143232095Y-105489128D02*
X143184476Y-105441509D01*
X143184476Y-105441509D02*
X143089238Y-105393890D01*
X158329333Y-114913580D02*
X158281714Y-114961200D01*
X158281714Y-114961200D02*
X158138857Y-115008819D01*
X158138857Y-115008819D02*
X158043619Y-115008819D01*
X158043619Y-115008819D02*
X157900762Y-114961200D01*
X157900762Y-114961200D02*
X157805524Y-114865961D01*
X157805524Y-114865961D02*
X157757905Y-114770723D01*
X157757905Y-114770723D02*
X157710286Y-114580247D01*
X157710286Y-114580247D02*
X157710286Y-114437390D01*
X157710286Y-114437390D02*
X157757905Y-114246914D01*
X157757905Y-114246914D02*
X157805524Y-114151676D01*
X157805524Y-114151676D02*
X157900762Y-114056438D01*
X157900762Y-114056438D02*
X158043619Y-114008819D01*
X158043619Y-114008819D02*
X158138857Y-114008819D01*
X158138857Y-114008819D02*
X158281714Y-114056438D01*
X158281714Y-114056438D02*
X158329333Y-114104057D01*
X158710286Y-114104057D02*
X158757905Y-114056438D01*
X158757905Y-114056438D02*
X158853143Y-114008819D01*
X158853143Y-114008819D02*
X159091238Y-114008819D01*
X159091238Y-114008819D02*
X159186476Y-114056438D01*
X159186476Y-114056438D02*
X159234095Y-114104057D01*
X159234095Y-114104057D02*
X159281714Y-114199295D01*
X159281714Y-114199295D02*
X159281714Y-114294533D01*
X159281714Y-114294533D02*
X159234095Y-114437390D01*
X159234095Y-114437390D02*
X158662667Y-115008819D01*
X158662667Y-115008819D02*
X159281714Y-115008819D01*
X139366666Y-118476819D02*
X139366666Y-119191104D01*
X139366666Y-119191104D02*
X139319047Y-119333961D01*
X139319047Y-119333961D02*
X139223809Y-119429200D01*
X139223809Y-119429200D02*
X139080952Y-119476819D01*
X139080952Y-119476819D02*
X138985714Y-119476819D01*
X140271428Y-118810152D02*
X140271428Y-119476819D01*
X140033333Y-118429200D02*
X139795238Y-119143485D01*
X139795238Y-119143485D02*
X140414285Y-119143485D01*
X148576833Y-97133580D02*
X148529214Y-97181200D01*
X148529214Y-97181200D02*
X148386357Y-97228819D01*
X148386357Y-97228819D02*
X148291119Y-97228819D01*
X148291119Y-97228819D02*
X148148262Y-97181200D01*
X148148262Y-97181200D02*
X148053024Y-97085961D01*
X148053024Y-97085961D02*
X148005405Y-96990723D01*
X148005405Y-96990723D02*
X147957786Y-96800247D01*
X147957786Y-96800247D02*
X147957786Y-96657390D01*
X147957786Y-96657390D02*
X148005405Y-96466914D01*
X148005405Y-96466914D02*
X148053024Y-96371676D01*
X148053024Y-96371676D02*
X148148262Y-96276438D01*
X148148262Y-96276438D02*
X148291119Y-96228819D01*
X148291119Y-96228819D02*
X148386357Y-96228819D01*
X148386357Y-96228819D02*
X148529214Y-96276438D01*
X148529214Y-96276438D02*
X148576833Y-96324057D01*
X149433976Y-96228819D02*
X149243500Y-96228819D01*
X149243500Y-96228819D02*
X149148262Y-96276438D01*
X149148262Y-96276438D02*
X149100643Y-96324057D01*
X149100643Y-96324057D02*
X149005405Y-96466914D01*
X149005405Y-96466914D02*
X148957786Y-96657390D01*
X148957786Y-96657390D02*
X148957786Y-97038342D01*
X148957786Y-97038342D02*
X149005405Y-97133580D01*
X149005405Y-97133580D02*
X149053024Y-97181200D01*
X149053024Y-97181200D02*
X149148262Y-97228819D01*
X149148262Y-97228819D02*
X149338738Y-97228819D01*
X149338738Y-97228819D02*
X149433976Y-97181200D01*
X149433976Y-97181200D02*
X149481595Y-97133580D01*
X149481595Y-97133580D02*
X149529214Y-97038342D01*
X149529214Y-97038342D02*
X149529214Y-96800247D01*
X149529214Y-96800247D02*
X149481595Y-96705009D01*
X149481595Y-96705009D02*
X149433976Y-96657390D01*
X149433976Y-96657390D02*
X149338738Y-96609771D01*
X149338738Y-96609771D02*
X149148262Y-96609771D01*
X149148262Y-96609771D02*
X149053024Y-96657390D01*
X149053024Y-96657390D02*
X149005405Y-96705009D01*
X149005405Y-96705009D02*
X148957786Y-96800247D01*
X135861200Y-94603332D02*
X135908819Y-94460475D01*
X135908819Y-94460475D02*
X135908819Y-94222380D01*
X135908819Y-94222380D02*
X135861200Y-94127142D01*
X135861200Y-94127142D02*
X135813580Y-94079523D01*
X135813580Y-94079523D02*
X135718342Y-94031904D01*
X135718342Y-94031904D02*
X135623104Y-94031904D01*
X135623104Y-94031904D02*
X135527866Y-94079523D01*
X135527866Y-94079523D02*
X135480247Y-94127142D01*
X135480247Y-94127142D02*
X135432628Y-94222380D01*
X135432628Y-94222380D02*
X135385009Y-94412856D01*
X135385009Y-94412856D02*
X135337390Y-94508094D01*
X135337390Y-94508094D02*
X135289771Y-94555713D01*
X135289771Y-94555713D02*
X135194533Y-94603332D01*
X135194533Y-94603332D02*
X135099295Y-94603332D01*
X135099295Y-94603332D02*
X135004057Y-94555713D01*
X135004057Y-94555713D02*
X134956438Y-94508094D01*
X134956438Y-94508094D02*
X134908819Y-94412856D01*
X134908819Y-94412856D02*
X134908819Y-94174761D01*
X134908819Y-94174761D02*
X134956438Y-94031904D01*
X134908819Y-93698570D02*
X135908819Y-93460475D01*
X135908819Y-93460475D02*
X135194533Y-93269999D01*
X135194533Y-93269999D02*
X135908819Y-93079523D01*
X135908819Y-93079523D02*
X134908819Y-92841428D01*
X135908819Y-91936666D02*
X135908819Y-92508094D01*
X135908819Y-92222380D02*
X134908819Y-92222380D01*
X134908819Y-92222380D02*
X135051676Y-92317618D01*
X135051676Y-92317618D02*
X135146914Y-92412856D01*
X135146914Y-92412856D02*
X135194533Y-92508094D01*
X173569333Y-85798819D02*
X173236000Y-85322628D01*
X172997905Y-85798819D02*
X172997905Y-84798819D01*
X172997905Y-84798819D02*
X173378857Y-84798819D01*
X173378857Y-84798819D02*
X173474095Y-84846438D01*
X173474095Y-84846438D02*
X173521714Y-84894057D01*
X173521714Y-84894057D02*
X173569333Y-84989295D01*
X173569333Y-84989295D02*
X173569333Y-85132152D01*
X173569333Y-85132152D02*
X173521714Y-85227390D01*
X173521714Y-85227390D02*
X173474095Y-85275009D01*
X173474095Y-85275009D02*
X173378857Y-85322628D01*
X173378857Y-85322628D02*
X172997905Y-85322628D01*
X174474095Y-84798819D02*
X173997905Y-84798819D01*
X173997905Y-84798819D02*
X173950286Y-85275009D01*
X173950286Y-85275009D02*
X173997905Y-85227390D01*
X173997905Y-85227390D02*
X174093143Y-85179771D01*
X174093143Y-85179771D02*
X174331238Y-85179771D01*
X174331238Y-85179771D02*
X174426476Y-85227390D01*
X174426476Y-85227390D02*
X174474095Y-85275009D01*
X174474095Y-85275009D02*
X174521714Y-85370247D01*
X174521714Y-85370247D02*
X174521714Y-85608342D01*
X174521714Y-85608342D02*
X174474095Y-85703580D01*
X174474095Y-85703580D02*
X174426476Y-85751200D01*
X174426476Y-85751200D02*
X174331238Y-85798819D01*
X174331238Y-85798819D02*
X174093143Y-85798819D01*
X174093143Y-85798819D02*
X173997905Y-85751200D01*
X173997905Y-85751200D02*
X173950286Y-85703580D01*
X129600833Y-89039319D02*
X129124643Y-89039319D01*
X129124643Y-89039319D02*
X129124643Y-88039319D01*
X130457976Y-89039319D02*
X129886548Y-89039319D01*
X130172262Y-89039319D02*
X130172262Y-88039319D01*
X130172262Y-88039319D02*
X130077024Y-88182176D01*
X130077024Y-88182176D02*
X129981786Y-88277414D01*
X129981786Y-88277414D02*
X129886548Y-88325033D01*
X175720476Y-74026819D02*
X175720476Y-74741104D01*
X175720476Y-74741104D02*
X175672857Y-74883961D01*
X175672857Y-74883961D02*
X175577619Y-74979200D01*
X175577619Y-74979200D02*
X175434762Y-75026819D01*
X175434762Y-75026819D02*
X175339524Y-75026819D01*
X176720476Y-75026819D02*
X176149048Y-75026819D01*
X176434762Y-75026819D02*
X176434762Y-74026819D01*
X176434762Y-74026819D02*
X176339524Y-74169676D01*
X176339524Y-74169676D02*
X176244286Y-74264914D01*
X176244286Y-74264914D02*
X176149048Y-74312533D01*
X177053810Y-74026819D02*
X177720476Y-74026819D01*
X177720476Y-74026819D02*
X177291905Y-75026819D01*
X171132833Y-101198819D02*
X170799500Y-100722628D01*
X170561405Y-101198819D02*
X170561405Y-100198819D01*
X170561405Y-100198819D02*
X170942357Y-100198819D01*
X170942357Y-100198819D02*
X171037595Y-100246438D01*
X171037595Y-100246438D02*
X171085214Y-100294057D01*
X171085214Y-100294057D02*
X171132833Y-100389295D01*
X171132833Y-100389295D02*
X171132833Y-100532152D01*
X171132833Y-100532152D02*
X171085214Y-100627390D01*
X171085214Y-100627390D02*
X171037595Y-100675009D01*
X171037595Y-100675009D02*
X170942357Y-100722628D01*
X170942357Y-100722628D02*
X170561405Y-100722628D01*
X171466167Y-100198819D02*
X172085214Y-100198819D01*
X172085214Y-100198819D02*
X171751881Y-100579771D01*
X171751881Y-100579771D02*
X171894738Y-100579771D01*
X171894738Y-100579771D02*
X171989976Y-100627390D01*
X171989976Y-100627390D02*
X172037595Y-100675009D01*
X172037595Y-100675009D02*
X172085214Y-100770247D01*
X172085214Y-100770247D02*
X172085214Y-101008342D01*
X172085214Y-101008342D02*
X172037595Y-101103580D01*
X172037595Y-101103580D02*
X171989976Y-101151200D01*
X171989976Y-101151200D02*
X171894738Y-101198819D01*
X171894738Y-101198819D02*
X171609024Y-101198819D01*
X171609024Y-101198819D02*
X171513786Y-101151200D01*
X171513786Y-101151200D02*
X171466167Y-101103580D01*
X132810642Y-111008819D02*
X132477309Y-110532628D01*
X132239214Y-111008819D02*
X132239214Y-110008819D01*
X132239214Y-110008819D02*
X132620166Y-110008819D01*
X132620166Y-110008819D02*
X132715404Y-110056438D01*
X132715404Y-110056438D02*
X132763023Y-110104057D01*
X132763023Y-110104057D02*
X132810642Y-110199295D01*
X132810642Y-110199295D02*
X132810642Y-110342152D01*
X132810642Y-110342152D02*
X132763023Y-110437390D01*
X132763023Y-110437390D02*
X132715404Y-110485009D01*
X132715404Y-110485009D02*
X132620166Y-110532628D01*
X132620166Y-110532628D02*
X132239214Y-110532628D01*
X133763023Y-111008819D02*
X133191595Y-111008819D01*
X133477309Y-111008819D02*
X133477309Y-110008819D01*
X133477309Y-110008819D02*
X133382071Y-110151676D01*
X133382071Y-110151676D02*
X133286833Y-110246914D01*
X133286833Y-110246914D02*
X133191595Y-110294533D01*
X134143976Y-110104057D02*
X134191595Y-110056438D01*
X134191595Y-110056438D02*
X134286833Y-110008819D01*
X134286833Y-110008819D02*
X134524928Y-110008819D01*
X134524928Y-110008819D02*
X134620166Y-110056438D01*
X134620166Y-110056438D02*
X134667785Y-110104057D01*
X134667785Y-110104057D02*
X134715404Y-110199295D01*
X134715404Y-110199295D02*
X134715404Y-110294533D01*
X134715404Y-110294533D02*
X134667785Y-110437390D01*
X134667785Y-110437390D02*
X134096357Y-111008819D01*
X134096357Y-111008819D02*
X134715404Y-111008819D01*
X166788905Y-104500819D02*
X166788905Y-103500819D01*
X166788905Y-103500819D02*
X167027000Y-103500819D01*
X167027000Y-103500819D02*
X167169857Y-103548438D01*
X167169857Y-103548438D02*
X167265095Y-103643676D01*
X167265095Y-103643676D02*
X167312714Y-103738914D01*
X167312714Y-103738914D02*
X167360333Y-103929390D01*
X167360333Y-103929390D02*
X167360333Y-104072247D01*
X167360333Y-104072247D02*
X167312714Y-104262723D01*
X167312714Y-104262723D02*
X167265095Y-104357961D01*
X167265095Y-104357961D02*
X167169857Y-104453200D01*
X167169857Y-104453200D02*
X167027000Y-104500819D01*
X167027000Y-104500819D02*
X166788905Y-104500819D01*
X167741286Y-103596057D02*
X167788905Y-103548438D01*
X167788905Y-103548438D02*
X167884143Y-103500819D01*
X167884143Y-103500819D02*
X168122238Y-103500819D01*
X168122238Y-103500819D02*
X168217476Y-103548438D01*
X168217476Y-103548438D02*
X168265095Y-103596057D01*
X168265095Y-103596057D02*
X168312714Y-103691295D01*
X168312714Y-103691295D02*
X168312714Y-103786533D01*
X168312714Y-103786533D02*
X168265095Y-103929390D01*
X168265095Y-103929390D02*
X167693667Y-104500819D01*
X167693667Y-104500819D02*
X168312714Y-104500819D01*
X166760905Y-97896819D02*
X166760905Y-96896819D01*
X166760905Y-96896819D02*
X166999000Y-96896819D01*
X166999000Y-96896819D02*
X167141857Y-96944438D01*
X167141857Y-96944438D02*
X167237095Y-97039676D01*
X167237095Y-97039676D02*
X167284714Y-97134914D01*
X167284714Y-97134914D02*
X167332333Y-97325390D01*
X167332333Y-97325390D02*
X167332333Y-97468247D01*
X167332333Y-97468247D02*
X167284714Y-97658723D01*
X167284714Y-97658723D02*
X167237095Y-97753961D01*
X167237095Y-97753961D02*
X167141857Y-97849200D01*
X167141857Y-97849200D02*
X166999000Y-97896819D01*
X166999000Y-97896819D02*
X166760905Y-97896819D01*
X168284714Y-97896819D02*
X167713286Y-97896819D01*
X167999000Y-97896819D02*
X167999000Y-96896819D01*
X167999000Y-96896819D02*
X167903762Y-97039676D01*
X167903762Y-97039676D02*
X167808524Y-97134914D01*
X167808524Y-97134914D02*
X167713286Y-97182533D01*
D10*
X175098419Y-103838333D02*
X175812704Y-103838333D01*
X175812704Y-103838333D02*
X175955561Y-103885952D01*
X175955561Y-103885952D02*
X176050800Y-103981190D01*
X176050800Y-103981190D02*
X176098419Y-104124047D01*
X176098419Y-104124047D02*
X176098419Y-104219285D01*
X175193657Y-103409761D02*
X175146038Y-103362142D01*
X175146038Y-103362142D02*
X175098419Y-103266904D01*
X175098419Y-103266904D02*
X175098419Y-103028809D01*
X175098419Y-103028809D02*
X175146038Y-102933571D01*
X175146038Y-102933571D02*
X175193657Y-102885952D01*
X175193657Y-102885952D02*
X175288895Y-102838333D01*
X175288895Y-102838333D02*
X175384133Y-102838333D01*
X175384133Y-102838333D02*
X175526990Y-102885952D01*
X175526990Y-102885952D02*
X176098419Y-103457380D01*
X176098419Y-103457380D02*
X176098419Y-102838333D01*
D13*
X177855952Y-87973819D02*
X177855952Y-88688104D01*
X177855952Y-88688104D02*
X177808333Y-88830961D01*
X177808333Y-88830961D02*
X177713095Y-88926200D01*
X177713095Y-88926200D02*
X177570238Y-88973819D01*
X177570238Y-88973819D02*
X177475000Y-88973819D01*
X178189286Y-87973819D02*
X178760714Y-87973819D01*
X178475000Y-88973819D02*
X178475000Y-87973819D01*
X179046429Y-88688104D02*
X179522619Y-88688104D01*
X178951191Y-88973819D02*
X179284524Y-87973819D01*
X179284524Y-87973819D02*
X179617857Y-88973819D01*
X180475000Y-88021438D02*
X180379762Y-87973819D01*
X180379762Y-87973819D02*
X180236905Y-87973819D01*
X180236905Y-87973819D02*
X180094048Y-88021438D01*
X180094048Y-88021438D02*
X179998810Y-88116676D01*
X179998810Y-88116676D02*
X179951191Y-88211914D01*
X179951191Y-88211914D02*
X179903572Y-88402390D01*
X179903572Y-88402390D02*
X179903572Y-88545247D01*
X179903572Y-88545247D02*
X179951191Y-88735723D01*
X179951191Y-88735723D02*
X179998810Y-88830961D01*
X179998810Y-88830961D02*
X180094048Y-88926200D01*
X180094048Y-88926200D02*
X180236905Y-88973819D01*
X180236905Y-88973819D02*
X180332143Y-88973819D01*
X180332143Y-88973819D02*
X180475000Y-88926200D01*
X180475000Y-88926200D02*
X180522619Y-88878580D01*
X180522619Y-88878580D02*
X180522619Y-88545247D01*
X180522619Y-88545247D02*
X180332143Y-88545247D01*
X181665476Y-87926200D02*
X180808334Y-89211914D01*
X181951191Y-88926200D02*
X182094048Y-88973819D01*
X182094048Y-88973819D02*
X182332143Y-88973819D01*
X182332143Y-88973819D02*
X182427381Y-88926200D01*
X182427381Y-88926200D02*
X182475000Y-88878580D01*
X182475000Y-88878580D02*
X182522619Y-88783342D01*
X182522619Y-88783342D02*
X182522619Y-88688104D01*
X182522619Y-88688104D02*
X182475000Y-88592866D01*
X182475000Y-88592866D02*
X182427381Y-88545247D01*
X182427381Y-88545247D02*
X182332143Y-88497628D01*
X182332143Y-88497628D02*
X182141667Y-88450009D01*
X182141667Y-88450009D02*
X182046429Y-88402390D01*
X182046429Y-88402390D02*
X181998810Y-88354771D01*
X181998810Y-88354771D02*
X181951191Y-88259533D01*
X181951191Y-88259533D02*
X181951191Y-88164295D01*
X181951191Y-88164295D02*
X181998810Y-88069057D01*
X181998810Y-88069057D02*
X182046429Y-88021438D01*
X182046429Y-88021438D02*
X182141667Y-87973819D01*
X182141667Y-87973819D02*
X182379762Y-87973819D01*
X182379762Y-87973819D02*
X182522619Y-88021438D01*
X182855953Y-87973819D02*
X183094048Y-88973819D01*
X183094048Y-88973819D02*
X183284524Y-88259533D01*
X183284524Y-88259533D02*
X183475000Y-88973819D01*
X183475000Y-88973819D02*
X183713096Y-87973819D01*
X184379762Y-87973819D02*
X184379762Y-88688104D01*
X184379762Y-88688104D02*
X184332143Y-88830961D01*
X184332143Y-88830961D02*
X184236905Y-88926200D01*
X184236905Y-88926200D02*
X184094048Y-88973819D01*
X184094048Y-88973819D02*
X183998810Y-88973819D01*
X121110476Y-118476819D02*
X121110476Y-119191104D01*
X121110476Y-119191104D02*
X121062857Y-119333961D01*
X121062857Y-119333961D02*
X120967619Y-119429200D01*
X120967619Y-119429200D02*
X120824762Y-119476819D01*
X120824762Y-119476819D02*
X120729524Y-119476819D01*
X121539048Y-118572057D02*
X121586667Y-118524438D01*
X121586667Y-118524438D02*
X121681905Y-118476819D01*
X121681905Y-118476819D02*
X121920000Y-118476819D01*
X121920000Y-118476819D02*
X122015238Y-118524438D01*
X122015238Y-118524438D02*
X122062857Y-118572057D01*
X122062857Y-118572057D02*
X122110476Y-118667295D01*
X122110476Y-118667295D02*
X122110476Y-118762533D01*
X122110476Y-118762533D02*
X122062857Y-118905390D01*
X122062857Y-118905390D02*
X121491429Y-119476819D01*
X121491429Y-119476819D02*
X122110476Y-119476819D01*
X123062857Y-119476819D02*
X122491429Y-119476819D01*
X122777143Y-119476819D02*
X122777143Y-118476819D01*
X122777143Y-118476819D02*
X122681905Y-118619676D01*
X122681905Y-118619676D02*
X122586667Y-118714914D01*
X122586667Y-118714914D02*
X122491429Y-118762533D01*
X121158095Y-124522438D02*
X121062857Y-124474819D01*
X121062857Y-124474819D02*
X120920000Y-124474819D01*
X120920000Y-124474819D02*
X120777143Y-124522438D01*
X120777143Y-124522438D02*
X120681905Y-124617676D01*
X120681905Y-124617676D02*
X120634286Y-124712914D01*
X120634286Y-124712914D02*
X120586667Y-124903390D01*
X120586667Y-124903390D02*
X120586667Y-125046247D01*
X120586667Y-125046247D02*
X120634286Y-125236723D01*
X120634286Y-125236723D02*
X120681905Y-125331961D01*
X120681905Y-125331961D02*
X120777143Y-125427200D01*
X120777143Y-125427200D02*
X120920000Y-125474819D01*
X120920000Y-125474819D02*
X121015238Y-125474819D01*
X121015238Y-125474819D02*
X121158095Y-125427200D01*
X121158095Y-125427200D02*
X121205714Y-125379580D01*
X121205714Y-125379580D02*
X121205714Y-125046247D01*
X121205714Y-125046247D02*
X121015238Y-125046247D01*
X121634286Y-125474819D02*
X121634286Y-124474819D01*
X121634286Y-124474819D02*
X122205714Y-125474819D01*
X122205714Y-125474819D02*
X122205714Y-124474819D01*
X122681905Y-125474819D02*
X122681905Y-124474819D01*
X122681905Y-124474819D02*
X122920000Y-124474819D01*
X122920000Y-124474819D02*
X123062857Y-124522438D01*
X123062857Y-124522438D02*
X123158095Y-124617676D01*
X123158095Y-124617676D02*
X123205714Y-124712914D01*
X123205714Y-124712914D02*
X123253333Y-124903390D01*
X123253333Y-124903390D02*
X123253333Y-125046247D01*
X123253333Y-125046247D02*
X123205714Y-125236723D01*
X123205714Y-125236723D02*
X123158095Y-125331961D01*
X123158095Y-125331961D02*
X123062857Y-125427200D01*
X123062857Y-125427200D02*
X122920000Y-125474819D01*
X122920000Y-125474819D02*
X122681905Y-125474819D01*
X131879595Y-77967319D02*
X131879595Y-78776842D01*
X131879595Y-78776842D02*
X131927214Y-78872080D01*
X131927214Y-78872080D02*
X131974833Y-78919700D01*
X131974833Y-78919700D02*
X132070071Y-78967319D01*
X132070071Y-78967319D02*
X132260547Y-78967319D01*
X132260547Y-78967319D02*
X132355785Y-78919700D01*
X132355785Y-78919700D02*
X132403404Y-78872080D01*
X132403404Y-78872080D02*
X132451023Y-78776842D01*
X132451023Y-78776842D02*
X132451023Y-77967319D01*
X132831976Y-77967319D02*
X133451023Y-77967319D01*
X133451023Y-77967319D02*
X133117690Y-78348271D01*
X133117690Y-78348271D02*
X133260547Y-78348271D01*
X133260547Y-78348271D02*
X133355785Y-78395890D01*
X133355785Y-78395890D02*
X133403404Y-78443509D01*
X133403404Y-78443509D02*
X133451023Y-78538747D01*
X133451023Y-78538747D02*
X133451023Y-78776842D01*
X133451023Y-78776842D02*
X133403404Y-78872080D01*
X133403404Y-78872080D02*
X133355785Y-78919700D01*
X133355785Y-78919700D02*
X133260547Y-78967319D01*
X133260547Y-78967319D02*
X132974833Y-78967319D01*
X132974833Y-78967319D02*
X132879595Y-78919700D01*
X132879595Y-78919700D02*
X132831976Y-78872080D01*
X171132833Y-97896819D02*
X170799500Y-97420628D01*
X170561405Y-97896819D02*
X170561405Y-96896819D01*
X170561405Y-96896819D02*
X170942357Y-96896819D01*
X170942357Y-96896819D02*
X171037595Y-96944438D01*
X171037595Y-96944438D02*
X171085214Y-96992057D01*
X171085214Y-96992057D02*
X171132833Y-97087295D01*
X171132833Y-97087295D02*
X171132833Y-97230152D01*
X171132833Y-97230152D02*
X171085214Y-97325390D01*
X171085214Y-97325390D02*
X171037595Y-97373009D01*
X171037595Y-97373009D02*
X170942357Y-97420628D01*
X170942357Y-97420628D02*
X170561405Y-97420628D01*
X171513786Y-96992057D02*
X171561405Y-96944438D01*
X171561405Y-96944438D02*
X171656643Y-96896819D01*
X171656643Y-96896819D02*
X171894738Y-96896819D01*
X171894738Y-96896819D02*
X171989976Y-96944438D01*
X171989976Y-96944438D02*
X172037595Y-96992057D01*
X172037595Y-96992057D02*
X172085214Y-97087295D01*
X172085214Y-97087295D02*
X172085214Y-97182533D01*
X172085214Y-97182533D02*
X172037595Y-97325390D01*
X172037595Y-97325390D02*
X171466167Y-97896819D01*
X171466167Y-97896819D02*
X172085214Y-97896819D01*
X133016666Y-118476819D02*
X133016666Y-119191104D01*
X133016666Y-119191104D02*
X132969047Y-119333961D01*
X132969047Y-119333961D02*
X132873809Y-119429200D01*
X132873809Y-119429200D02*
X132730952Y-119476819D01*
X132730952Y-119476819D02*
X132635714Y-119476819D01*
X133397619Y-118476819D02*
X134016666Y-118476819D01*
X134016666Y-118476819D02*
X133683333Y-118857771D01*
X133683333Y-118857771D02*
X133826190Y-118857771D01*
X133826190Y-118857771D02*
X133921428Y-118905390D01*
X133921428Y-118905390D02*
X133969047Y-118953009D01*
X133969047Y-118953009D02*
X134016666Y-119048247D01*
X134016666Y-119048247D02*
X134016666Y-119286342D01*
X134016666Y-119286342D02*
X133969047Y-119381580D01*
X133969047Y-119381580D02*
X133921428Y-119429200D01*
X133921428Y-119429200D02*
X133826190Y-119476819D01*
X133826190Y-119476819D02*
X133540476Y-119476819D01*
X133540476Y-119476819D02*
X133445238Y-119429200D01*
X133445238Y-119429200D02*
X133397619Y-119381580D01*
X172384819Y-122253333D02*
X173099104Y-122253333D01*
X173099104Y-122253333D02*
X173241961Y-122300952D01*
X173241961Y-122300952D02*
X173337200Y-122396190D01*
X173337200Y-122396190D02*
X173384819Y-122539047D01*
X173384819Y-122539047D02*
X173384819Y-122634285D01*
X173384819Y-121253333D02*
X173384819Y-121824761D01*
X173384819Y-121539047D02*
X172384819Y-121539047D01*
X172384819Y-121539047D02*
X172527676Y-121634285D01*
X172527676Y-121634285D02*
X172622914Y-121729523D01*
X172622914Y-121729523D02*
X172670533Y-121824761D01*
X177474762Y-119088819D02*
X177474762Y-119898342D01*
X177474762Y-119898342D02*
X177522381Y-119993580D01*
X177522381Y-119993580D02*
X177570000Y-120041200D01*
X177570000Y-120041200D02*
X177665238Y-120088819D01*
X177665238Y-120088819D02*
X177855714Y-120088819D01*
X177855714Y-120088819D02*
X177950952Y-120041200D01*
X177950952Y-120041200D02*
X177998571Y-119993580D01*
X177998571Y-119993580D02*
X178046190Y-119898342D01*
X178046190Y-119898342D02*
X178046190Y-119088819D01*
X178474762Y-119803104D02*
X178950952Y-119803104D01*
X178379524Y-120088819D02*
X178712857Y-119088819D01*
X178712857Y-119088819D02*
X179046190Y-120088819D01*
X179950952Y-120088819D02*
X179617619Y-119612628D01*
X179379524Y-120088819D02*
X179379524Y-119088819D01*
X179379524Y-119088819D02*
X179760476Y-119088819D01*
X179760476Y-119088819D02*
X179855714Y-119136438D01*
X179855714Y-119136438D02*
X179903333Y-119184057D01*
X179903333Y-119184057D02*
X179950952Y-119279295D01*
X179950952Y-119279295D02*
X179950952Y-119422152D01*
X179950952Y-119422152D02*
X179903333Y-119517390D01*
X179903333Y-119517390D02*
X179855714Y-119565009D01*
X179855714Y-119565009D02*
X179760476Y-119612628D01*
X179760476Y-119612628D02*
X179379524Y-119612628D01*
X180236667Y-119088819D02*
X180808095Y-119088819D01*
X180522381Y-120088819D02*
X180522381Y-119088819D01*
X121110476Y-82004819D02*
X121110476Y-82719104D01*
X121110476Y-82719104D02*
X121062857Y-82861961D01*
X121062857Y-82861961D02*
X120967619Y-82957200D01*
X120967619Y-82957200D02*
X120824762Y-83004819D01*
X120824762Y-83004819D02*
X120729524Y-83004819D01*
X121539048Y-82100057D02*
X121586667Y-82052438D01*
X121586667Y-82052438D02*
X121681905Y-82004819D01*
X121681905Y-82004819D02*
X121920000Y-82004819D01*
X121920000Y-82004819D02*
X122015238Y-82052438D01*
X122015238Y-82052438D02*
X122062857Y-82100057D01*
X122062857Y-82100057D02*
X122110476Y-82195295D01*
X122110476Y-82195295D02*
X122110476Y-82290533D01*
X122110476Y-82290533D02*
X122062857Y-82433390D01*
X122062857Y-82433390D02*
X121491429Y-83004819D01*
X121491429Y-83004819D02*
X122110476Y-83004819D01*
X122443810Y-82004819D02*
X123062857Y-82004819D01*
X123062857Y-82004819D02*
X122729524Y-82385771D01*
X122729524Y-82385771D02*
X122872381Y-82385771D01*
X122872381Y-82385771D02*
X122967619Y-82433390D01*
X122967619Y-82433390D02*
X123015238Y-82481009D01*
X123015238Y-82481009D02*
X123062857Y-82576247D01*
X123062857Y-82576247D02*
X123062857Y-82814342D01*
X123062857Y-82814342D02*
X123015238Y-82909580D01*
X123015238Y-82909580D02*
X122967619Y-82957200D01*
X122967619Y-82957200D02*
X122872381Y-83004819D01*
X122872381Y-83004819D02*
X122586667Y-83004819D01*
X122586667Y-83004819D02*
X122491429Y-82957200D01*
X122491429Y-82957200D02*
X122443810Y-82909580D01*
X119848571Y-88973866D02*
X120610476Y-88973866D01*
X120229523Y-89354819D02*
X120229523Y-88592914D01*
X121419999Y-88831009D02*
X121562856Y-88878628D01*
X121562856Y-88878628D02*
X121610475Y-88926247D01*
X121610475Y-88926247D02*
X121658094Y-89021485D01*
X121658094Y-89021485D02*
X121658094Y-89164342D01*
X121658094Y-89164342D02*
X121610475Y-89259580D01*
X121610475Y-89259580D02*
X121562856Y-89307200D01*
X121562856Y-89307200D02*
X121467618Y-89354819D01*
X121467618Y-89354819D02*
X121086666Y-89354819D01*
X121086666Y-89354819D02*
X121086666Y-88354819D01*
X121086666Y-88354819D02*
X121419999Y-88354819D01*
X121419999Y-88354819D02*
X121515237Y-88402438D01*
X121515237Y-88402438D02*
X121562856Y-88450057D01*
X121562856Y-88450057D02*
X121610475Y-88545295D01*
X121610475Y-88545295D02*
X121610475Y-88640533D01*
X121610475Y-88640533D02*
X121562856Y-88735771D01*
X121562856Y-88735771D02*
X121515237Y-88783390D01*
X121515237Y-88783390D02*
X121419999Y-88831009D01*
X121419999Y-88831009D02*
X121086666Y-88831009D01*
X122039047Y-89069104D02*
X122515237Y-89069104D01*
X121943809Y-89354819D02*
X122277142Y-88354819D01*
X122277142Y-88354819D02*
X122610475Y-89354819D01*
X122800952Y-88354819D02*
X123372380Y-88354819D01*
X123086666Y-89354819D02*
X123086666Y-88354819D01*
X123562857Y-88354819D02*
X124134285Y-88354819D01*
X123848571Y-89354819D02*
X123848571Y-88354819D01*
X152066666Y-118476819D02*
X152066666Y-119191104D01*
X152066666Y-119191104D02*
X152019047Y-119333961D01*
X152019047Y-119333961D02*
X151923809Y-119429200D01*
X151923809Y-119429200D02*
X151780952Y-119476819D01*
X151780952Y-119476819D02*
X151685714Y-119476819D01*
X152971428Y-118476819D02*
X152780952Y-118476819D01*
X152780952Y-118476819D02*
X152685714Y-118524438D01*
X152685714Y-118524438D02*
X152638095Y-118572057D01*
X152638095Y-118572057D02*
X152542857Y-118714914D01*
X152542857Y-118714914D02*
X152495238Y-118905390D01*
X152495238Y-118905390D02*
X152495238Y-119286342D01*
X152495238Y-119286342D02*
X152542857Y-119381580D01*
X152542857Y-119381580D02*
X152590476Y-119429200D01*
X152590476Y-119429200D02*
X152685714Y-119476819D01*
X152685714Y-119476819D02*
X152876190Y-119476819D01*
X152876190Y-119476819D02*
X152971428Y-119429200D01*
X152971428Y-119429200D02*
X153019047Y-119381580D01*
X153019047Y-119381580D02*
X153066666Y-119286342D01*
X153066666Y-119286342D02*
X153066666Y-119048247D01*
X153066666Y-119048247D02*
X153019047Y-118953009D01*
X153019047Y-118953009D02*
X152971428Y-118905390D01*
X152971428Y-118905390D02*
X152876190Y-118857771D01*
X152876190Y-118857771D02*
X152685714Y-118857771D01*
X152685714Y-118857771D02*
X152590476Y-118905390D01*
X152590476Y-118905390D02*
X152542857Y-118953009D01*
X152542857Y-118953009D02*
X152495238Y-119048247D01*
X160361333Y-100435580D02*
X160313714Y-100483200D01*
X160313714Y-100483200D02*
X160170857Y-100530819D01*
X160170857Y-100530819D02*
X160075619Y-100530819D01*
X160075619Y-100530819D02*
X159932762Y-100483200D01*
X159932762Y-100483200D02*
X159837524Y-100387961D01*
X159837524Y-100387961D02*
X159789905Y-100292723D01*
X159789905Y-100292723D02*
X159742286Y-100102247D01*
X159742286Y-100102247D02*
X159742286Y-99959390D01*
X159742286Y-99959390D02*
X159789905Y-99768914D01*
X159789905Y-99768914D02*
X159837524Y-99673676D01*
X159837524Y-99673676D02*
X159932762Y-99578438D01*
X159932762Y-99578438D02*
X160075619Y-99530819D01*
X160075619Y-99530819D02*
X160170857Y-99530819D01*
X160170857Y-99530819D02*
X160313714Y-99578438D01*
X160313714Y-99578438D02*
X160361333Y-99626057D01*
X160837524Y-100530819D02*
X161028000Y-100530819D01*
X161028000Y-100530819D02*
X161123238Y-100483200D01*
X161123238Y-100483200D02*
X161170857Y-100435580D01*
X161170857Y-100435580D02*
X161266095Y-100292723D01*
X161266095Y-100292723D02*
X161313714Y-100102247D01*
X161313714Y-100102247D02*
X161313714Y-99721295D01*
X161313714Y-99721295D02*
X161266095Y-99626057D01*
X161266095Y-99626057D02*
X161218476Y-99578438D01*
X161218476Y-99578438D02*
X161123238Y-99530819D01*
X161123238Y-99530819D02*
X160932762Y-99530819D01*
X160932762Y-99530819D02*
X160837524Y-99578438D01*
X160837524Y-99578438D02*
X160789905Y-99626057D01*
X160789905Y-99626057D02*
X160742286Y-99721295D01*
X160742286Y-99721295D02*
X160742286Y-99959390D01*
X160742286Y-99959390D02*
X160789905Y-100054628D01*
X160789905Y-100054628D02*
X160837524Y-100102247D01*
X160837524Y-100102247D02*
X160932762Y-100149866D01*
X160932762Y-100149866D02*
X161123238Y-100149866D01*
X161123238Y-100149866D02*
X161218476Y-100102247D01*
X161218476Y-100102247D02*
X161266095Y-100054628D01*
X161266095Y-100054628D02*
X161313714Y-99959390D01*
X132527142Y-86144080D02*
X132479523Y-86191700D01*
X132479523Y-86191700D02*
X132336666Y-86239319D01*
X132336666Y-86239319D02*
X132241428Y-86239319D01*
X132241428Y-86239319D02*
X132098571Y-86191700D01*
X132098571Y-86191700D02*
X132003333Y-86096461D01*
X132003333Y-86096461D02*
X131955714Y-86001223D01*
X131955714Y-86001223D02*
X131908095Y-85810747D01*
X131908095Y-85810747D02*
X131908095Y-85667890D01*
X131908095Y-85667890D02*
X131955714Y-85477414D01*
X131955714Y-85477414D02*
X132003333Y-85382176D01*
X132003333Y-85382176D02*
X132098571Y-85286938D01*
X132098571Y-85286938D02*
X132241428Y-85239319D01*
X132241428Y-85239319D02*
X132336666Y-85239319D01*
X132336666Y-85239319D02*
X132479523Y-85286938D01*
X132479523Y-85286938D02*
X132527142Y-85334557D01*
X133479523Y-86239319D02*
X132908095Y-86239319D01*
X133193809Y-86239319D02*
X133193809Y-85239319D01*
X133193809Y-85239319D02*
X133098571Y-85382176D01*
X133098571Y-85382176D02*
X133003333Y-85477414D01*
X133003333Y-85477414D02*
X132908095Y-85525033D01*
X134336666Y-85239319D02*
X134146190Y-85239319D01*
X134146190Y-85239319D02*
X134050952Y-85286938D01*
X134050952Y-85286938D02*
X134003333Y-85334557D01*
X134003333Y-85334557D02*
X133908095Y-85477414D01*
X133908095Y-85477414D02*
X133860476Y-85667890D01*
X133860476Y-85667890D02*
X133860476Y-86048842D01*
X133860476Y-86048842D02*
X133908095Y-86144080D01*
X133908095Y-86144080D02*
X133955714Y-86191700D01*
X133955714Y-86191700D02*
X134050952Y-86239319D01*
X134050952Y-86239319D02*
X134241428Y-86239319D01*
X134241428Y-86239319D02*
X134336666Y-86191700D01*
X134336666Y-86191700D02*
X134384285Y-86144080D01*
X134384285Y-86144080D02*
X134431904Y-86048842D01*
X134431904Y-86048842D02*
X134431904Y-85810747D01*
X134431904Y-85810747D02*
X134384285Y-85715509D01*
X134384285Y-85715509D02*
X134336666Y-85667890D01*
X134336666Y-85667890D02*
X134241428Y-85620271D01*
X134241428Y-85620271D02*
X134050952Y-85620271D01*
X134050952Y-85620271D02*
X133955714Y-85667890D01*
X133955714Y-85667890D02*
X133908095Y-85715509D01*
X133908095Y-85715509D02*
X133860476Y-85810747D01*
X139551580Y-101988857D02*
X139599200Y-102036476D01*
X139599200Y-102036476D02*
X139646819Y-102179333D01*
X139646819Y-102179333D02*
X139646819Y-102274571D01*
X139646819Y-102274571D02*
X139599200Y-102417428D01*
X139599200Y-102417428D02*
X139503961Y-102512666D01*
X139503961Y-102512666D02*
X139408723Y-102560285D01*
X139408723Y-102560285D02*
X139218247Y-102607904D01*
X139218247Y-102607904D02*
X139075390Y-102607904D01*
X139075390Y-102607904D02*
X138884914Y-102560285D01*
X138884914Y-102560285D02*
X138789676Y-102512666D01*
X138789676Y-102512666D02*
X138694438Y-102417428D01*
X138694438Y-102417428D02*
X138646819Y-102274571D01*
X138646819Y-102274571D02*
X138646819Y-102179333D01*
X138646819Y-102179333D02*
X138694438Y-102036476D01*
X138694438Y-102036476D02*
X138742057Y-101988857D01*
X139646819Y-101036476D02*
X139646819Y-101607904D01*
X139646819Y-101322190D02*
X138646819Y-101322190D01*
X138646819Y-101322190D02*
X138789676Y-101417428D01*
X138789676Y-101417428D02*
X138884914Y-101512666D01*
X138884914Y-101512666D02*
X138932533Y-101607904D01*
X138980152Y-100179333D02*
X139646819Y-100179333D01*
X138599200Y-100417428D02*
X139313485Y-100655523D01*
X139313485Y-100655523D02*
X139313485Y-100036476D01*
X161467261Y-94644057D02*
X161372023Y-94596438D01*
X161372023Y-94596438D02*
X161276785Y-94501200D01*
X161276785Y-94501200D02*
X161133928Y-94358342D01*
X161133928Y-94358342D02*
X161038690Y-94310723D01*
X161038690Y-94310723D02*
X160943452Y-94310723D01*
X160991071Y-94548819D02*
X160895833Y-94501200D01*
X160895833Y-94501200D02*
X160800595Y-94405961D01*
X160800595Y-94405961D02*
X160752976Y-94215485D01*
X160752976Y-94215485D02*
X160752976Y-93882152D01*
X160752976Y-93882152D02*
X160800595Y-93691676D01*
X160800595Y-93691676D02*
X160895833Y-93596438D01*
X160895833Y-93596438D02*
X160991071Y-93548819D01*
X160991071Y-93548819D02*
X161181547Y-93548819D01*
X161181547Y-93548819D02*
X161276785Y-93596438D01*
X161276785Y-93596438D02*
X161372023Y-93691676D01*
X161372023Y-93691676D02*
X161419642Y-93882152D01*
X161419642Y-93882152D02*
X161419642Y-94215485D01*
X161419642Y-94215485D02*
X161372023Y-94405961D01*
X161372023Y-94405961D02*
X161276785Y-94501200D01*
X161276785Y-94501200D02*
X161181547Y-94548819D01*
X161181547Y-94548819D02*
X160991071Y-94548819D01*
X162372023Y-94548819D02*
X161800595Y-94548819D01*
X162086309Y-94548819D02*
X162086309Y-93548819D01*
X162086309Y-93548819D02*
X161991071Y-93691676D01*
X161991071Y-93691676D02*
X161895833Y-93786914D01*
X161895833Y-93786914D02*
X161800595Y-93834533D01*
X149846833Y-116437580D02*
X149799214Y-116485200D01*
X149799214Y-116485200D02*
X149656357Y-116532819D01*
X149656357Y-116532819D02*
X149561119Y-116532819D01*
X149561119Y-116532819D02*
X149418262Y-116485200D01*
X149418262Y-116485200D02*
X149323024Y-116389961D01*
X149323024Y-116389961D02*
X149275405Y-116294723D01*
X149275405Y-116294723D02*
X149227786Y-116104247D01*
X149227786Y-116104247D02*
X149227786Y-115961390D01*
X149227786Y-115961390D02*
X149275405Y-115770914D01*
X149275405Y-115770914D02*
X149323024Y-115675676D01*
X149323024Y-115675676D02*
X149418262Y-115580438D01*
X149418262Y-115580438D02*
X149561119Y-115532819D01*
X149561119Y-115532819D02*
X149656357Y-115532819D01*
X149656357Y-115532819D02*
X149799214Y-115580438D01*
X149799214Y-115580438D02*
X149846833Y-115628057D01*
X150180167Y-115532819D02*
X150799214Y-115532819D01*
X150799214Y-115532819D02*
X150465881Y-115913771D01*
X150465881Y-115913771D02*
X150608738Y-115913771D01*
X150608738Y-115913771D02*
X150703976Y-115961390D01*
X150703976Y-115961390D02*
X150751595Y-116009009D01*
X150751595Y-116009009D02*
X150799214Y-116104247D01*
X150799214Y-116104247D02*
X150799214Y-116342342D01*
X150799214Y-116342342D02*
X150751595Y-116437580D01*
X150751595Y-116437580D02*
X150703976Y-116485200D01*
X150703976Y-116485200D02*
X150608738Y-116532819D01*
X150608738Y-116532819D02*
X150323024Y-116532819D01*
X150323024Y-116532819D02*
X150227786Y-116485200D01*
X150227786Y-116485200D02*
X150180167Y-116437580D01*
X139311142Y-104499580D02*
X139263523Y-104547200D01*
X139263523Y-104547200D02*
X139120666Y-104594819D01*
X139120666Y-104594819D02*
X139025428Y-104594819D01*
X139025428Y-104594819D02*
X138882571Y-104547200D01*
X138882571Y-104547200D02*
X138787333Y-104451961D01*
X138787333Y-104451961D02*
X138739714Y-104356723D01*
X138739714Y-104356723D02*
X138692095Y-104166247D01*
X138692095Y-104166247D02*
X138692095Y-104023390D01*
X138692095Y-104023390D02*
X138739714Y-103832914D01*
X138739714Y-103832914D02*
X138787333Y-103737676D01*
X138787333Y-103737676D02*
X138882571Y-103642438D01*
X138882571Y-103642438D02*
X139025428Y-103594819D01*
X139025428Y-103594819D02*
X139120666Y-103594819D01*
X139120666Y-103594819D02*
X139263523Y-103642438D01*
X139263523Y-103642438D02*
X139311142Y-103690057D01*
X140263523Y-104594819D02*
X139692095Y-104594819D01*
X139977809Y-104594819D02*
X139977809Y-103594819D01*
X139977809Y-103594819D02*
X139882571Y-103737676D01*
X139882571Y-103737676D02*
X139787333Y-103832914D01*
X139787333Y-103832914D02*
X139692095Y-103880533D01*
X140644476Y-103690057D02*
X140692095Y-103642438D01*
X140692095Y-103642438D02*
X140787333Y-103594819D01*
X140787333Y-103594819D02*
X141025428Y-103594819D01*
X141025428Y-103594819D02*
X141120666Y-103642438D01*
X141120666Y-103642438D02*
X141168285Y-103690057D01*
X141168285Y-103690057D02*
X141215904Y-103785295D01*
X141215904Y-103785295D02*
X141215904Y-103880533D01*
X141215904Y-103880533D02*
X141168285Y-104023390D01*
X141168285Y-104023390D02*
X140596857Y-104594819D01*
X140596857Y-104594819D02*
X141215904Y-104594819D01*
X159853333Y-85798819D02*
X159520000Y-85322628D01*
X159281905Y-85798819D02*
X159281905Y-84798819D01*
X159281905Y-84798819D02*
X159662857Y-84798819D01*
X159662857Y-84798819D02*
X159758095Y-84846438D01*
X159758095Y-84846438D02*
X159805714Y-84894057D01*
X159805714Y-84894057D02*
X159853333Y-84989295D01*
X159853333Y-84989295D02*
X159853333Y-85132152D01*
X159853333Y-85132152D02*
X159805714Y-85227390D01*
X159805714Y-85227390D02*
X159758095Y-85275009D01*
X159758095Y-85275009D02*
X159662857Y-85322628D01*
X159662857Y-85322628D02*
X159281905Y-85322628D01*
X160710476Y-84798819D02*
X160520000Y-84798819D01*
X160520000Y-84798819D02*
X160424762Y-84846438D01*
X160424762Y-84846438D02*
X160377143Y-84894057D01*
X160377143Y-84894057D02*
X160281905Y-85036914D01*
X160281905Y-85036914D02*
X160234286Y-85227390D01*
X160234286Y-85227390D02*
X160234286Y-85608342D01*
X160234286Y-85608342D02*
X160281905Y-85703580D01*
X160281905Y-85703580D02*
X160329524Y-85751200D01*
X160329524Y-85751200D02*
X160424762Y-85798819D01*
X160424762Y-85798819D02*
X160615238Y-85798819D01*
X160615238Y-85798819D02*
X160710476Y-85751200D01*
X160710476Y-85751200D02*
X160758095Y-85703580D01*
X160758095Y-85703580D02*
X160805714Y-85608342D01*
X160805714Y-85608342D02*
X160805714Y-85370247D01*
X160805714Y-85370247D02*
X160758095Y-85275009D01*
X160758095Y-85275009D02*
X160710476Y-85227390D01*
X160710476Y-85227390D02*
X160615238Y-85179771D01*
X160615238Y-85179771D02*
X160424762Y-85179771D01*
X160424762Y-85179771D02*
X160329524Y-85227390D01*
X160329524Y-85227390D02*
X160281905Y-85275009D01*
X160281905Y-85275009D02*
X160234286Y-85370247D01*
X152734261Y-94644057D02*
X152639023Y-94596438D01*
X152639023Y-94596438D02*
X152543785Y-94501200D01*
X152543785Y-94501200D02*
X152400928Y-94358342D01*
X152400928Y-94358342D02*
X152305690Y-94310723D01*
X152305690Y-94310723D02*
X152210452Y-94310723D01*
X152258071Y-94548819D02*
X152162833Y-94501200D01*
X152162833Y-94501200D02*
X152067595Y-94405961D01*
X152067595Y-94405961D02*
X152019976Y-94215485D01*
X152019976Y-94215485D02*
X152019976Y-93882152D01*
X152019976Y-93882152D02*
X152067595Y-93691676D01*
X152067595Y-93691676D02*
X152162833Y-93596438D01*
X152162833Y-93596438D02*
X152258071Y-93548819D01*
X152258071Y-93548819D02*
X152448547Y-93548819D01*
X152448547Y-93548819D02*
X152543785Y-93596438D01*
X152543785Y-93596438D02*
X152639023Y-93691676D01*
X152639023Y-93691676D02*
X152686642Y-93882152D01*
X152686642Y-93882152D02*
X152686642Y-94215485D01*
X152686642Y-94215485D02*
X152639023Y-94405961D01*
X152639023Y-94405961D02*
X152543785Y-94501200D01*
X152543785Y-94501200D02*
X152448547Y-94548819D01*
X152448547Y-94548819D02*
X152258071Y-94548819D01*
X153019976Y-93548819D02*
X153639023Y-93548819D01*
X153639023Y-93548819D02*
X153305690Y-93929771D01*
X153305690Y-93929771D02*
X153448547Y-93929771D01*
X153448547Y-93929771D02*
X153543785Y-93977390D01*
X153543785Y-93977390D02*
X153591404Y-94025009D01*
X153591404Y-94025009D02*
X153639023Y-94120247D01*
X153639023Y-94120247D02*
X153639023Y-94358342D01*
X153639023Y-94358342D02*
X153591404Y-94453580D01*
X153591404Y-94453580D02*
X153543785Y-94501200D01*
X153543785Y-94501200D02*
X153448547Y-94548819D01*
X153448547Y-94548819D02*
X153162833Y-94548819D01*
X153162833Y-94548819D02*
X153067595Y-94501200D01*
X153067595Y-94501200D02*
X153019976Y-94453580D01*
X154196642Y-116343580D02*
X154149023Y-116391200D01*
X154149023Y-116391200D02*
X154006166Y-116438819D01*
X154006166Y-116438819D02*
X153910928Y-116438819D01*
X153910928Y-116438819D02*
X153768071Y-116391200D01*
X153768071Y-116391200D02*
X153672833Y-116295961D01*
X153672833Y-116295961D02*
X153625214Y-116200723D01*
X153625214Y-116200723D02*
X153577595Y-116010247D01*
X153577595Y-116010247D02*
X153577595Y-115867390D01*
X153577595Y-115867390D02*
X153625214Y-115676914D01*
X153625214Y-115676914D02*
X153672833Y-115581676D01*
X153672833Y-115581676D02*
X153768071Y-115486438D01*
X153768071Y-115486438D02*
X153910928Y-115438819D01*
X153910928Y-115438819D02*
X154006166Y-115438819D01*
X154006166Y-115438819D02*
X154149023Y-115486438D01*
X154149023Y-115486438D02*
X154196642Y-115534057D01*
X155149023Y-116438819D02*
X154577595Y-116438819D01*
X154863309Y-116438819D02*
X154863309Y-115438819D01*
X154863309Y-115438819D02*
X154768071Y-115581676D01*
X154768071Y-115581676D02*
X154672833Y-115676914D01*
X154672833Y-115676914D02*
X154577595Y-115724533D01*
X155768071Y-115438819D02*
X155863309Y-115438819D01*
X155863309Y-115438819D02*
X155958547Y-115486438D01*
X155958547Y-115486438D02*
X156006166Y-115534057D01*
X156006166Y-115534057D02*
X156053785Y-115629295D01*
X156053785Y-115629295D02*
X156101404Y-115819771D01*
X156101404Y-115819771D02*
X156101404Y-116057866D01*
X156101404Y-116057866D02*
X156053785Y-116248342D01*
X156053785Y-116248342D02*
X156006166Y-116343580D01*
X156006166Y-116343580D02*
X155958547Y-116391200D01*
X155958547Y-116391200D02*
X155863309Y-116438819D01*
X155863309Y-116438819D02*
X155768071Y-116438819D01*
X155768071Y-116438819D02*
X155672833Y-116391200D01*
X155672833Y-116391200D02*
X155625214Y-116343580D01*
X155625214Y-116343580D02*
X155577595Y-116248342D01*
X155577595Y-116248342D02*
X155529976Y-116057866D01*
X155529976Y-116057866D02*
X155529976Y-115819771D01*
X155529976Y-115819771D02*
X155577595Y-115629295D01*
X155577595Y-115629295D02*
X155625214Y-115534057D01*
X155625214Y-115534057D02*
X155672833Y-115486438D01*
X155672833Y-115486438D02*
X155768071Y-115438819D01*
X169370476Y-74026819D02*
X169370476Y-74741104D01*
X169370476Y-74741104D02*
X169322857Y-74883961D01*
X169322857Y-74883961D02*
X169227619Y-74979200D01*
X169227619Y-74979200D02*
X169084762Y-75026819D01*
X169084762Y-75026819D02*
X168989524Y-75026819D01*
X170370476Y-75026819D02*
X169799048Y-75026819D01*
X170084762Y-75026819D02*
X170084762Y-74026819D01*
X170084762Y-74026819D02*
X169989524Y-74169676D01*
X169989524Y-74169676D02*
X169894286Y-74264914D01*
X169894286Y-74264914D02*
X169799048Y-74312533D01*
X170703810Y-74026819D02*
X171322857Y-74026819D01*
X171322857Y-74026819D02*
X170989524Y-74407771D01*
X170989524Y-74407771D02*
X171132381Y-74407771D01*
X171132381Y-74407771D02*
X171227619Y-74455390D01*
X171227619Y-74455390D02*
X171275238Y-74503009D01*
X171275238Y-74503009D02*
X171322857Y-74598247D01*
X171322857Y-74598247D02*
X171322857Y-74836342D01*
X171322857Y-74836342D02*
X171275238Y-74931580D01*
X171275238Y-74931580D02*
X171227619Y-74979200D01*
X171227619Y-74979200D02*
X171132381Y-75026819D01*
X171132381Y-75026819D02*
X170846667Y-75026819D01*
X170846667Y-75026819D02*
X170751429Y-74979200D01*
X170751429Y-74979200D02*
X170703810Y-74931580D01*
X144359333Y-99927580D02*
X144311714Y-99975200D01*
X144311714Y-99975200D02*
X144168857Y-100022819D01*
X144168857Y-100022819D02*
X144073619Y-100022819D01*
X144073619Y-100022819D02*
X143930762Y-99975200D01*
X143930762Y-99975200D02*
X143835524Y-99879961D01*
X143835524Y-99879961D02*
X143787905Y-99784723D01*
X143787905Y-99784723D02*
X143740286Y-99594247D01*
X143740286Y-99594247D02*
X143740286Y-99451390D01*
X143740286Y-99451390D02*
X143787905Y-99260914D01*
X143787905Y-99260914D02*
X143835524Y-99165676D01*
X143835524Y-99165676D02*
X143930762Y-99070438D01*
X143930762Y-99070438D02*
X144073619Y-99022819D01*
X144073619Y-99022819D02*
X144168857Y-99022819D01*
X144168857Y-99022819D02*
X144311714Y-99070438D01*
X144311714Y-99070438D02*
X144359333Y-99118057D01*
X145216476Y-99356152D02*
X145216476Y-100022819D01*
X144978381Y-98975200D02*
X144740286Y-99689485D01*
X144740286Y-99689485D02*
X145359333Y-99689485D01*
X167306666Y-118476819D02*
X167306666Y-119191104D01*
X167306666Y-119191104D02*
X167259047Y-119333961D01*
X167259047Y-119333961D02*
X167163809Y-119429200D01*
X167163809Y-119429200D02*
X167020952Y-119476819D01*
X167020952Y-119476819D02*
X166925714Y-119476819D01*
X167925714Y-118905390D02*
X167830476Y-118857771D01*
X167830476Y-118857771D02*
X167782857Y-118810152D01*
X167782857Y-118810152D02*
X167735238Y-118714914D01*
X167735238Y-118714914D02*
X167735238Y-118667295D01*
X167735238Y-118667295D02*
X167782857Y-118572057D01*
X167782857Y-118572057D02*
X167830476Y-118524438D01*
X167830476Y-118524438D02*
X167925714Y-118476819D01*
X167925714Y-118476819D02*
X168116190Y-118476819D01*
X168116190Y-118476819D02*
X168211428Y-118524438D01*
X168211428Y-118524438D02*
X168259047Y-118572057D01*
X168259047Y-118572057D02*
X168306666Y-118667295D01*
X168306666Y-118667295D02*
X168306666Y-118714914D01*
X168306666Y-118714914D02*
X168259047Y-118810152D01*
X168259047Y-118810152D02*
X168211428Y-118857771D01*
X168211428Y-118857771D02*
X168116190Y-118905390D01*
X168116190Y-118905390D02*
X167925714Y-118905390D01*
X167925714Y-118905390D02*
X167830476Y-118953009D01*
X167830476Y-118953009D02*
X167782857Y-119000628D01*
X167782857Y-119000628D02*
X167735238Y-119095866D01*
X167735238Y-119095866D02*
X167735238Y-119286342D01*
X167735238Y-119286342D02*
X167782857Y-119381580D01*
X167782857Y-119381580D02*
X167830476Y-119429200D01*
X167830476Y-119429200D02*
X167925714Y-119476819D01*
X167925714Y-119476819D02*
X168116190Y-119476819D01*
X168116190Y-119476819D02*
X168211428Y-119429200D01*
X168211428Y-119429200D02*
X168259047Y-119381580D01*
X168259047Y-119381580D02*
X168306666Y-119286342D01*
X168306666Y-119286342D02*
X168306666Y-119095866D01*
X168306666Y-119095866D02*
X168259047Y-119000628D01*
X168259047Y-119000628D02*
X168211428Y-118953009D01*
X168211428Y-118953009D02*
X168116190Y-118905390D01*
X160956666Y-118476819D02*
X160956666Y-119191104D01*
X160956666Y-119191104D02*
X160909047Y-119333961D01*
X160909047Y-119333961D02*
X160813809Y-119429200D01*
X160813809Y-119429200D02*
X160670952Y-119476819D01*
X160670952Y-119476819D02*
X160575714Y-119476819D01*
X161480476Y-119476819D02*
X161670952Y-119476819D01*
X161670952Y-119476819D02*
X161766190Y-119429200D01*
X161766190Y-119429200D02*
X161813809Y-119381580D01*
X161813809Y-119381580D02*
X161909047Y-119238723D01*
X161909047Y-119238723D02*
X161956666Y-119048247D01*
X161956666Y-119048247D02*
X161956666Y-118667295D01*
X161956666Y-118667295D02*
X161909047Y-118572057D01*
X161909047Y-118572057D02*
X161861428Y-118524438D01*
X161861428Y-118524438D02*
X161766190Y-118476819D01*
X161766190Y-118476819D02*
X161575714Y-118476819D01*
X161575714Y-118476819D02*
X161480476Y-118524438D01*
X161480476Y-118524438D02*
X161432857Y-118572057D01*
X161432857Y-118572057D02*
X161385238Y-118667295D01*
X161385238Y-118667295D02*
X161385238Y-118905390D01*
X161385238Y-118905390D02*
X161432857Y-119000628D01*
X161432857Y-119000628D02*
X161480476Y-119048247D01*
X161480476Y-119048247D02*
X161575714Y-119095866D01*
X161575714Y-119095866D02*
X161766190Y-119095866D01*
X161766190Y-119095866D02*
X161861428Y-119048247D01*
X161861428Y-119048247D02*
X161909047Y-119000628D01*
X161909047Y-119000628D02*
X161956666Y-118905390D01*
X132810642Y-107706819D02*
X132477309Y-107230628D01*
X132239214Y-107706819D02*
X132239214Y-106706819D01*
X132239214Y-106706819D02*
X132620166Y-106706819D01*
X132620166Y-106706819D02*
X132715404Y-106754438D01*
X132715404Y-106754438D02*
X132763023Y-106802057D01*
X132763023Y-106802057D02*
X132810642Y-106897295D01*
X132810642Y-106897295D02*
X132810642Y-107040152D01*
X132810642Y-107040152D02*
X132763023Y-107135390D01*
X132763023Y-107135390D02*
X132715404Y-107183009D01*
X132715404Y-107183009D02*
X132620166Y-107230628D01*
X132620166Y-107230628D02*
X132239214Y-107230628D01*
X133763023Y-107706819D02*
X133191595Y-107706819D01*
X133477309Y-107706819D02*
X133477309Y-106706819D01*
X133477309Y-106706819D02*
X133382071Y-106849676D01*
X133382071Y-106849676D02*
X133286833Y-106944914D01*
X133286833Y-106944914D02*
X133191595Y-106992533D01*
X134715404Y-107706819D02*
X134143976Y-107706819D01*
X134429690Y-107706819D02*
X134429690Y-106706819D01*
X134429690Y-106706819D02*
X134334452Y-106849676D01*
X134334452Y-106849676D02*
X134239214Y-106944914D01*
X134239214Y-106944914D02*
X134143976Y-106992533D01*
X128189080Y-80525857D02*
X128236700Y-80573476D01*
X128236700Y-80573476D02*
X128284319Y-80716333D01*
X128284319Y-80716333D02*
X128284319Y-80811571D01*
X128284319Y-80811571D02*
X128236700Y-80954428D01*
X128236700Y-80954428D02*
X128141461Y-81049666D01*
X128141461Y-81049666D02*
X128046223Y-81097285D01*
X128046223Y-81097285D02*
X127855747Y-81144904D01*
X127855747Y-81144904D02*
X127712890Y-81144904D01*
X127712890Y-81144904D02*
X127522414Y-81097285D01*
X127522414Y-81097285D02*
X127427176Y-81049666D01*
X127427176Y-81049666D02*
X127331938Y-80954428D01*
X127331938Y-80954428D02*
X127284319Y-80811571D01*
X127284319Y-80811571D02*
X127284319Y-80716333D01*
X127284319Y-80716333D02*
X127331938Y-80573476D01*
X127331938Y-80573476D02*
X127379557Y-80525857D01*
X128284319Y-79573476D02*
X128284319Y-80144904D01*
X128284319Y-79859190D02*
X127284319Y-79859190D01*
X127284319Y-79859190D02*
X127427176Y-79954428D01*
X127427176Y-79954428D02*
X127522414Y-80049666D01*
X127522414Y-80049666D02*
X127570033Y-80144904D01*
X127284319Y-78668714D02*
X127284319Y-79144904D01*
X127284319Y-79144904D02*
X127760509Y-79192523D01*
X127760509Y-79192523D02*
X127712890Y-79144904D01*
X127712890Y-79144904D02*
X127665271Y-79049666D01*
X127665271Y-79049666D02*
X127665271Y-78811571D01*
X127665271Y-78811571D02*
X127712890Y-78716333D01*
X127712890Y-78716333D02*
X127760509Y-78668714D01*
X127760509Y-78668714D02*
X127855747Y-78621095D01*
X127855747Y-78621095D02*
X128093842Y-78621095D01*
X128093842Y-78621095D02*
X128189080Y-78668714D01*
X128189080Y-78668714D02*
X128236700Y-78716333D01*
X128236700Y-78716333D02*
X128284319Y-78811571D01*
X128284319Y-78811571D02*
X128284319Y-79049666D01*
X128284319Y-79049666D02*
X128236700Y-79144904D01*
X128236700Y-79144904D02*
X128189080Y-79192523D01*
X166788905Y-101198819D02*
X166788905Y-100198819D01*
X166788905Y-100198819D02*
X167027000Y-100198819D01*
X167027000Y-100198819D02*
X167169857Y-100246438D01*
X167169857Y-100246438D02*
X167265095Y-100341676D01*
X167265095Y-100341676D02*
X167312714Y-100436914D01*
X167312714Y-100436914D02*
X167360333Y-100627390D01*
X167360333Y-100627390D02*
X167360333Y-100770247D01*
X167360333Y-100770247D02*
X167312714Y-100960723D01*
X167312714Y-100960723D02*
X167265095Y-101055961D01*
X167265095Y-101055961D02*
X167169857Y-101151200D01*
X167169857Y-101151200D02*
X167027000Y-101198819D01*
X167027000Y-101198819D02*
X166788905Y-101198819D01*
X167693667Y-100198819D02*
X168312714Y-100198819D01*
X168312714Y-100198819D02*
X167979381Y-100579771D01*
X167979381Y-100579771D02*
X168122238Y-100579771D01*
X168122238Y-100579771D02*
X168217476Y-100627390D01*
X168217476Y-100627390D02*
X168265095Y-100675009D01*
X168265095Y-100675009D02*
X168312714Y-100770247D01*
X168312714Y-100770247D02*
X168312714Y-101008342D01*
X168312714Y-101008342D02*
X168265095Y-101103580D01*
X168265095Y-101103580D02*
X168217476Y-101151200D01*
X168217476Y-101151200D02*
X168122238Y-101198819D01*
X168122238Y-101198819D02*
X167836524Y-101198819D01*
X167836524Y-101198819D02*
X167741286Y-101151200D01*
X167741286Y-101151200D02*
X167693667Y-101103580D01*
X153503333Y-85798819D02*
X153170000Y-85322628D01*
X152931905Y-85798819D02*
X152931905Y-84798819D01*
X152931905Y-84798819D02*
X153312857Y-84798819D01*
X153312857Y-84798819D02*
X153408095Y-84846438D01*
X153408095Y-84846438D02*
X153455714Y-84894057D01*
X153455714Y-84894057D02*
X153503333Y-84989295D01*
X153503333Y-84989295D02*
X153503333Y-85132152D01*
X153503333Y-85132152D02*
X153455714Y-85227390D01*
X153455714Y-85227390D02*
X153408095Y-85275009D01*
X153408095Y-85275009D02*
X153312857Y-85322628D01*
X153312857Y-85322628D02*
X152931905Y-85322628D01*
X153979524Y-85798819D02*
X154170000Y-85798819D01*
X154170000Y-85798819D02*
X154265238Y-85751200D01*
X154265238Y-85751200D02*
X154312857Y-85703580D01*
X154312857Y-85703580D02*
X154408095Y-85560723D01*
X154408095Y-85560723D02*
X154455714Y-85370247D01*
X154455714Y-85370247D02*
X154455714Y-84989295D01*
X154455714Y-84989295D02*
X154408095Y-84894057D01*
X154408095Y-84894057D02*
X154360476Y-84846438D01*
X154360476Y-84846438D02*
X154265238Y-84798819D01*
X154265238Y-84798819D02*
X154074762Y-84798819D01*
X154074762Y-84798819D02*
X153979524Y-84846438D01*
X153979524Y-84846438D02*
X153931905Y-84894057D01*
X153931905Y-84894057D02*
X153884286Y-84989295D01*
X153884286Y-84989295D02*
X153884286Y-85227390D01*
X153884286Y-85227390D02*
X153931905Y-85322628D01*
X153931905Y-85322628D02*
X153979524Y-85370247D01*
X153979524Y-85370247D02*
X154074762Y-85417866D01*
X154074762Y-85417866D02*
X154265238Y-85417866D01*
X154265238Y-85417866D02*
X154360476Y-85370247D01*
X154360476Y-85370247D02*
X154408095Y-85322628D01*
X154408095Y-85322628D02*
X154455714Y-85227390D01*
X151638095Y-98734819D02*
X151638095Y-99544342D01*
X151638095Y-99544342D02*
X151685714Y-99639580D01*
X151685714Y-99639580D02*
X151733333Y-99687200D01*
X151733333Y-99687200D02*
X151828571Y-99734819D01*
X151828571Y-99734819D02*
X152019047Y-99734819D01*
X152019047Y-99734819D02*
X152114285Y-99687200D01*
X152114285Y-99687200D02*
X152161904Y-99639580D01*
X152161904Y-99639580D02*
X152209523Y-99544342D01*
X152209523Y-99544342D02*
X152209523Y-98734819D01*
X153209523Y-99734819D02*
X152638095Y-99734819D01*
X152923809Y-99734819D02*
X152923809Y-98734819D01*
X152923809Y-98734819D02*
X152828571Y-98877676D01*
X152828571Y-98877676D02*
X152733333Y-98972914D01*
X152733333Y-98972914D02*
X152638095Y-99020533D01*
X157149261Y-94644057D02*
X157054023Y-94596438D01*
X157054023Y-94596438D02*
X156958785Y-94501200D01*
X156958785Y-94501200D02*
X156815928Y-94358342D01*
X156815928Y-94358342D02*
X156720690Y-94310723D01*
X156720690Y-94310723D02*
X156625452Y-94310723D01*
X156673071Y-94548819D02*
X156577833Y-94501200D01*
X156577833Y-94501200D02*
X156482595Y-94405961D01*
X156482595Y-94405961D02*
X156434976Y-94215485D01*
X156434976Y-94215485D02*
X156434976Y-93882152D01*
X156434976Y-93882152D02*
X156482595Y-93691676D01*
X156482595Y-93691676D02*
X156577833Y-93596438D01*
X156577833Y-93596438D02*
X156673071Y-93548819D01*
X156673071Y-93548819D02*
X156863547Y-93548819D01*
X156863547Y-93548819D02*
X156958785Y-93596438D01*
X156958785Y-93596438D02*
X157054023Y-93691676D01*
X157054023Y-93691676D02*
X157101642Y-93882152D01*
X157101642Y-93882152D02*
X157101642Y-94215485D01*
X157101642Y-94215485D02*
X157054023Y-94405961D01*
X157054023Y-94405961D02*
X156958785Y-94501200D01*
X156958785Y-94501200D02*
X156863547Y-94548819D01*
X156863547Y-94548819D02*
X156673071Y-94548819D01*
X157482595Y-93644057D02*
X157530214Y-93596438D01*
X157530214Y-93596438D02*
X157625452Y-93548819D01*
X157625452Y-93548819D02*
X157863547Y-93548819D01*
X157863547Y-93548819D02*
X157958785Y-93596438D01*
X157958785Y-93596438D02*
X158006404Y-93644057D01*
X158006404Y-93644057D02*
X158054023Y-93739295D01*
X158054023Y-93739295D02*
X158054023Y-93834533D01*
X158054023Y-93834533D02*
X158006404Y-93977390D01*
X158006404Y-93977390D02*
X157434976Y-94548819D01*
X157434976Y-94548819D02*
X158054023Y-94548819D01*
X158583333Y-98403580D02*
X158535714Y-98451200D01*
X158535714Y-98451200D02*
X158392857Y-98498819D01*
X158392857Y-98498819D02*
X158297619Y-98498819D01*
X158297619Y-98498819D02*
X158154762Y-98451200D01*
X158154762Y-98451200D02*
X158059524Y-98355961D01*
X158059524Y-98355961D02*
X158011905Y-98260723D01*
X158011905Y-98260723D02*
X157964286Y-98070247D01*
X157964286Y-98070247D02*
X157964286Y-97927390D01*
X157964286Y-97927390D02*
X158011905Y-97736914D01*
X158011905Y-97736914D02*
X158059524Y-97641676D01*
X158059524Y-97641676D02*
X158154762Y-97546438D01*
X158154762Y-97546438D02*
X158297619Y-97498819D01*
X158297619Y-97498819D02*
X158392857Y-97498819D01*
X158392857Y-97498819D02*
X158535714Y-97546438D01*
X158535714Y-97546438D02*
X158583333Y-97594057D01*
X159488095Y-97498819D02*
X159011905Y-97498819D01*
X159011905Y-97498819D02*
X158964286Y-97975009D01*
X158964286Y-97975009D02*
X159011905Y-97927390D01*
X159011905Y-97927390D02*
X159107143Y-97879771D01*
X159107143Y-97879771D02*
X159345238Y-97879771D01*
X159345238Y-97879771D02*
X159440476Y-97927390D01*
X159440476Y-97927390D02*
X159488095Y-97975009D01*
X159488095Y-97975009D02*
X159535714Y-98070247D01*
X159535714Y-98070247D02*
X159535714Y-98308342D01*
X159535714Y-98308342D02*
X159488095Y-98403580D01*
X159488095Y-98403580D02*
X159440476Y-98451200D01*
X159440476Y-98451200D02*
X159345238Y-98498819D01*
X159345238Y-98498819D02*
X159107143Y-98498819D01*
X159107143Y-98498819D02*
X159011905Y-98451200D01*
X159011905Y-98451200D02*
X158964286Y-98403580D01*
X142563666Y-112312009D02*
X142230333Y-112312009D01*
X142230333Y-112835819D02*
X142230333Y-111835819D01*
X142230333Y-111835819D02*
X142706523Y-111835819D01*
X143420809Y-112312009D02*
X143563666Y-112359628D01*
X143563666Y-112359628D02*
X143611285Y-112407247D01*
X143611285Y-112407247D02*
X143658904Y-112502485D01*
X143658904Y-112502485D02*
X143658904Y-112645342D01*
X143658904Y-112645342D02*
X143611285Y-112740580D01*
X143611285Y-112740580D02*
X143563666Y-112788200D01*
X143563666Y-112788200D02*
X143468428Y-112835819D01*
X143468428Y-112835819D02*
X143087476Y-112835819D01*
X143087476Y-112835819D02*
X143087476Y-111835819D01*
X143087476Y-111835819D02*
X143420809Y-111835819D01*
X143420809Y-111835819D02*
X143516047Y-111883438D01*
X143516047Y-111883438D02*
X143563666Y-111931057D01*
X143563666Y-111931057D02*
X143611285Y-112026295D01*
X143611285Y-112026295D02*
X143611285Y-112121533D01*
X143611285Y-112121533D02*
X143563666Y-112216771D01*
X143563666Y-112216771D02*
X143516047Y-112264390D01*
X143516047Y-112264390D02*
X143420809Y-112312009D01*
X143420809Y-112312009D02*
X143087476Y-112312009D01*
X144611285Y-112835819D02*
X144039857Y-112835819D01*
X144325571Y-112835819D02*
X144325571Y-111835819D01*
X144325571Y-111835819D02*
X144230333Y-111978676D01*
X144230333Y-111978676D02*
X144135095Y-112073914D01*
X144135095Y-112073914D02*
X144039857Y-112121533D01*
X146002476Y-94958819D02*
X146002476Y-95673104D01*
X146002476Y-95673104D02*
X145954857Y-95815961D01*
X145954857Y-95815961D02*
X145859619Y-95911200D01*
X145859619Y-95911200D02*
X145716762Y-95958819D01*
X145716762Y-95958819D02*
X145621524Y-95958819D01*
X146431048Y-95054057D02*
X146478667Y-95006438D01*
X146478667Y-95006438D02*
X146573905Y-94958819D01*
X146573905Y-94958819D02*
X146812000Y-94958819D01*
X146812000Y-94958819D02*
X146907238Y-95006438D01*
X146907238Y-95006438D02*
X146954857Y-95054057D01*
X146954857Y-95054057D02*
X147002476Y-95149295D01*
X147002476Y-95149295D02*
X147002476Y-95244533D01*
X147002476Y-95244533D02*
X146954857Y-95387390D01*
X146954857Y-95387390D02*
X146383429Y-95958819D01*
X146383429Y-95958819D02*
X147002476Y-95958819D01*
X147383429Y-95054057D02*
X147431048Y-95006438D01*
X147431048Y-95006438D02*
X147526286Y-94958819D01*
X147526286Y-94958819D02*
X147764381Y-94958819D01*
X147764381Y-94958819D02*
X147859619Y-95006438D01*
X147859619Y-95006438D02*
X147907238Y-95054057D01*
X147907238Y-95054057D02*
X147954857Y-95149295D01*
X147954857Y-95149295D02*
X147954857Y-95244533D01*
X147954857Y-95244533D02*
X147907238Y-95387390D01*
X147907238Y-95387390D02*
X147335810Y-95958819D01*
X147335810Y-95958819D02*
X147954857Y-95958819D01*
X145454857Y-87561009D02*
X145597714Y-87608628D01*
X145597714Y-87608628D02*
X145645333Y-87656247D01*
X145645333Y-87656247D02*
X145692952Y-87751485D01*
X145692952Y-87751485D02*
X145692952Y-87894342D01*
X145692952Y-87894342D02*
X145645333Y-87989580D01*
X145645333Y-87989580D02*
X145597714Y-88037200D01*
X145597714Y-88037200D02*
X145502476Y-88084819D01*
X145502476Y-88084819D02*
X145121524Y-88084819D01*
X145121524Y-88084819D02*
X145121524Y-87084819D01*
X145121524Y-87084819D02*
X145454857Y-87084819D01*
X145454857Y-87084819D02*
X145550095Y-87132438D01*
X145550095Y-87132438D02*
X145597714Y-87180057D01*
X145597714Y-87180057D02*
X145645333Y-87275295D01*
X145645333Y-87275295D02*
X145645333Y-87370533D01*
X145645333Y-87370533D02*
X145597714Y-87465771D01*
X145597714Y-87465771D02*
X145550095Y-87513390D01*
X145550095Y-87513390D02*
X145454857Y-87561009D01*
X145454857Y-87561009D02*
X145121524Y-87561009D01*
X146312000Y-87084819D02*
X146502476Y-87084819D01*
X146502476Y-87084819D02*
X146597714Y-87132438D01*
X146597714Y-87132438D02*
X146692952Y-87227676D01*
X146692952Y-87227676D02*
X146740571Y-87418152D01*
X146740571Y-87418152D02*
X146740571Y-87751485D01*
X146740571Y-87751485D02*
X146692952Y-87941961D01*
X146692952Y-87941961D02*
X146597714Y-88037200D01*
X146597714Y-88037200D02*
X146502476Y-88084819D01*
X146502476Y-88084819D02*
X146312000Y-88084819D01*
X146312000Y-88084819D02*
X146216762Y-88037200D01*
X146216762Y-88037200D02*
X146121524Y-87941961D01*
X146121524Y-87941961D02*
X146073905Y-87751485D01*
X146073905Y-87751485D02*
X146073905Y-87418152D01*
X146073905Y-87418152D02*
X146121524Y-87227676D01*
X146121524Y-87227676D02*
X146216762Y-87132438D01*
X146216762Y-87132438D02*
X146312000Y-87084819D01*
X147359619Y-87084819D02*
X147550095Y-87084819D01*
X147550095Y-87084819D02*
X147645333Y-87132438D01*
X147645333Y-87132438D02*
X147740571Y-87227676D01*
X147740571Y-87227676D02*
X147788190Y-87418152D01*
X147788190Y-87418152D02*
X147788190Y-87751485D01*
X147788190Y-87751485D02*
X147740571Y-87941961D01*
X147740571Y-87941961D02*
X147645333Y-88037200D01*
X147645333Y-88037200D02*
X147550095Y-88084819D01*
X147550095Y-88084819D02*
X147359619Y-88084819D01*
X147359619Y-88084819D02*
X147264381Y-88037200D01*
X147264381Y-88037200D02*
X147169143Y-87941961D01*
X147169143Y-87941961D02*
X147121524Y-87751485D01*
X147121524Y-87751485D02*
X147121524Y-87418152D01*
X147121524Y-87418152D02*
X147169143Y-87227676D01*
X147169143Y-87227676D02*
X147264381Y-87132438D01*
X147264381Y-87132438D02*
X147359619Y-87084819D01*
X148073905Y-87084819D02*
X148645333Y-87084819D01*
X148359619Y-88084819D02*
X148359619Y-87084819D01*
X166489142Y-85798819D02*
X166155809Y-85322628D01*
X165917714Y-85798819D02*
X165917714Y-84798819D01*
X165917714Y-84798819D02*
X166298666Y-84798819D01*
X166298666Y-84798819D02*
X166393904Y-84846438D01*
X166393904Y-84846438D02*
X166441523Y-84894057D01*
X166441523Y-84894057D02*
X166489142Y-84989295D01*
X166489142Y-84989295D02*
X166489142Y-85132152D01*
X166489142Y-85132152D02*
X166441523Y-85227390D01*
X166441523Y-85227390D02*
X166393904Y-85275009D01*
X166393904Y-85275009D02*
X166298666Y-85322628D01*
X166298666Y-85322628D02*
X165917714Y-85322628D01*
X167441523Y-85798819D02*
X166870095Y-85798819D01*
X167155809Y-85798819D02*
X167155809Y-84798819D01*
X167155809Y-84798819D02*
X167060571Y-84941676D01*
X167060571Y-84941676D02*
X166965333Y-85036914D01*
X166965333Y-85036914D02*
X166870095Y-85084533D01*
X168060571Y-84798819D02*
X168155809Y-84798819D01*
X168155809Y-84798819D02*
X168251047Y-84846438D01*
X168251047Y-84846438D02*
X168298666Y-84894057D01*
X168298666Y-84894057D02*
X168346285Y-84989295D01*
X168346285Y-84989295D02*
X168393904Y-85179771D01*
X168393904Y-85179771D02*
X168393904Y-85417866D01*
X168393904Y-85417866D02*
X168346285Y-85608342D01*
X168346285Y-85608342D02*
X168298666Y-85703580D01*
X168298666Y-85703580D02*
X168251047Y-85751200D01*
X168251047Y-85751200D02*
X168155809Y-85798819D01*
X168155809Y-85798819D02*
X168060571Y-85798819D01*
X168060571Y-85798819D02*
X167965333Y-85751200D01*
X167965333Y-85751200D02*
X167917714Y-85703580D01*
X167917714Y-85703580D02*
X167870095Y-85608342D01*
X167870095Y-85608342D02*
X167822476Y-85417866D01*
X167822476Y-85417866D02*
X167822476Y-85179771D01*
X167822476Y-85179771D02*
X167870095Y-84989295D01*
X167870095Y-84989295D02*
X167917714Y-84894057D01*
X167917714Y-84894057D02*
X167965333Y-84846438D01*
X167965333Y-84846438D02*
X168060571Y-84798819D01*
X145883333Y-85798819D02*
X145550000Y-85322628D01*
X145311905Y-85798819D02*
X145311905Y-84798819D01*
X145311905Y-84798819D02*
X145692857Y-84798819D01*
X145692857Y-84798819D02*
X145788095Y-84846438D01*
X145788095Y-84846438D02*
X145835714Y-84894057D01*
X145835714Y-84894057D02*
X145883333Y-84989295D01*
X145883333Y-84989295D02*
X145883333Y-85132152D01*
X145883333Y-85132152D02*
X145835714Y-85227390D01*
X145835714Y-85227390D02*
X145788095Y-85275009D01*
X145788095Y-85275009D02*
X145692857Y-85322628D01*
X145692857Y-85322628D02*
X145311905Y-85322628D01*
X146216667Y-84798819D02*
X146883333Y-84798819D01*
X146883333Y-84798819D02*
X146454762Y-85798819D01*
X142327333Y-99927580D02*
X142279714Y-99975200D01*
X142279714Y-99975200D02*
X142136857Y-100022819D01*
X142136857Y-100022819D02*
X142041619Y-100022819D01*
X142041619Y-100022819D02*
X141898762Y-99975200D01*
X141898762Y-99975200D02*
X141803524Y-99879961D01*
X141803524Y-99879961D02*
X141755905Y-99784723D01*
X141755905Y-99784723D02*
X141708286Y-99594247D01*
X141708286Y-99594247D02*
X141708286Y-99451390D01*
X141708286Y-99451390D02*
X141755905Y-99260914D01*
X141755905Y-99260914D02*
X141803524Y-99165676D01*
X141803524Y-99165676D02*
X141898762Y-99070438D01*
X141898762Y-99070438D02*
X142041619Y-99022819D01*
X142041619Y-99022819D02*
X142136857Y-99022819D01*
X142136857Y-99022819D02*
X142279714Y-99070438D01*
X142279714Y-99070438D02*
X142327333Y-99118057D01*
X143279714Y-100022819D02*
X142708286Y-100022819D01*
X142994000Y-100022819D02*
X142994000Y-99022819D01*
X142994000Y-99022819D02*
X142898762Y-99165676D01*
X142898762Y-99165676D02*
X142803524Y-99260914D01*
X142803524Y-99260914D02*
X142708286Y-99308533D01*
D14*
X144016000Y-108096267D02*
X144016000Y-107803733D01*
X145036000Y-108096267D02*
X145036000Y-107803733D01*
X171554224Y-102093500D02*
X171044776Y-102093500D01*
X171554224Y-103138500D02*
X171044776Y-103138500D01*
X160360000Y-75270000D02*
X164760000Y-75270000D01*
X160360000Y-79670000D02*
X160360000Y-75270000D01*
X164760000Y-75270000D02*
X164760000Y-79670000D01*
X164760000Y-79670000D02*
X160360000Y-79670000D01*
X135607500Y-82315267D02*
X135607500Y-82022733D01*
X136627500Y-82315267D02*
X136627500Y-82022733D01*
X119720000Y-75270000D02*
X124120000Y-75270000D01*
X119720000Y-79670000D02*
X119720000Y-75270000D01*
X124120000Y-75270000D02*
X124120000Y-79670000D01*
X124120000Y-79670000D02*
X119720000Y-79670000D01*
X154010000Y-75270000D02*
X158410000Y-75270000D01*
X154010000Y-79670000D02*
X154010000Y-75270000D01*
X158410000Y-75270000D02*
X158410000Y-79670000D01*
X158410000Y-79670000D02*
X154010000Y-79670000D01*
X181950000Y-75270000D02*
X186350000Y-75270000D01*
X181950000Y-79670000D02*
X181950000Y-75270000D01*
X186350000Y-75270000D02*
X186350000Y-79670000D01*
X186350000Y-79670000D02*
X181950000Y-79670000D01*
X131316000Y-101252733D02*
X131316000Y-101545267D01*
X132336000Y-101252733D02*
X132336000Y-101545267D01*
X143850000Y-119720000D02*
X148250000Y-119720000D01*
X143850000Y-124120000D02*
X143850000Y-119720000D01*
X148250000Y-119720000D02*
X148250000Y-124120000D01*
X148250000Y-124120000D02*
X143850000Y-124120000D01*
X140040000Y-75270000D02*
X144440000Y-75270000D01*
X140040000Y-79670000D02*
X140040000Y-75270000D01*
X144440000Y-75270000D02*
X144440000Y-79670000D01*
X144440000Y-79670000D02*
X140040000Y-79670000D01*
X119720000Y-112100000D02*
X124120000Y-112100000D01*
X119720000Y-116500000D02*
X119720000Y-112100000D01*
X124120000Y-112100000D02*
X124120000Y-116500000D01*
X124120000Y-116500000D02*
X119720000Y-116500000D01*
X134752500Y-100513500D02*
X133952500Y-100513500D01*
X134752500Y-100513500D02*
X135552500Y-100513500D01*
X134752500Y-103633500D02*
X133952500Y-103633500D01*
X134752500Y-103633500D02*
X135552500Y-103633500D01*
X133452500Y-100563500D02*
X133212500Y-100233500D01*
X133692500Y-100233500D01*
X133452500Y-100563500D01*
G36*
X133452500Y-100563500D02*
G01*
X133212500Y-100233500D01*
X133692500Y-100233500D01*
X133452500Y-100563500D01*
G37*
X146390000Y-75270000D02*
X150790000Y-75270000D01*
X146390000Y-79670000D02*
X146390000Y-75270000D01*
X150790000Y-75270000D02*
X150790000Y-79670000D01*
X150790000Y-79670000D02*
X146390000Y-79670000D01*
X119720000Y-104480000D02*
X124120000Y-104480000D01*
X119720000Y-108880000D02*
X119720000Y-104480000D01*
X124120000Y-104480000D02*
X124120000Y-108880000D01*
X124120000Y-108880000D02*
X119720000Y-108880000D01*
X149083500Y-93322224D02*
X149083500Y-92812776D01*
X150128500Y-93322224D02*
X150128500Y-92812776D01*
X142088776Y-84821500D02*
X142598224Y-84821500D01*
X142088776Y-85866500D02*
X142598224Y-85866500D01*
X141984000Y-108096267D02*
X141984000Y-107803733D01*
X143004000Y-108096267D02*
X143004000Y-107803733D01*
X158349733Y-112520000D02*
X158642267Y-112520000D01*
X158349733Y-113540000D02*
X158642267Y-113540000D01*
X137500000Y-119720000D02*
X141900000Y-119720000D01*
X137500000Y-124120000D02*
X137500000Y-119720000D01*
X141900000Y-119720000D02*
X141900000Y-124120000D01*
X141900000Y-124120000D02*
X137500000Y-124120000D01*
X148889767Y-97788000D02*
X148597233Y-97788000D01*
X148889767Y-98808000D02*
X148597233Y-98808000D01*
X136740000Y-91020000D02*
X136740000Y-95520000D01*
X139240000Y-96770000D02*
X140740000Y-96770000D01*
X140740000Y-89770000D02*
X139240000Y-89770000D01*
X143240000Y-95520000D02*
X143240000Y-91020000D01*
X176171776Y-84821500D02*
X176681224Y-84821500D01*
X176171776Y-85866500D02*
X176681224Y-85866500D01*
X128657500Y-85255748D02*
X128657500Y-85778252D01*
X130877500Y-85255748D02*
X130877500Y-85778252D01*
X174330000Y-75270000D02*
X178730000Y-75270000D01*
X174330000Y-79670000D02*
X174330000Y-75270000D01*
X178730000Y-75270000D02*
X178730000Y-79670000D01*
X178730000Y-79670000D02*
X174330000Y-79670000D01*
X171554224Y-98791500D02*
X171044776Y-98791500D01*
X171554224Y-99836500D02*
X171044776Y-99836500D01*
X133198776Y-111491500D02*
X133708224Y-111491500D01*
X133198776Y-112536500D02*
X133708224Y-112536500D01*
X166727000Y-103351000D02*
X169187000Y-103351000D01*
X169187000Y-101881000D02*
X166727000Y-101881000D01*
X169187000Y-103351000D02*
X169187000Y-101881000D01*
X166699000Y-96747000D02*
X169159000Y-96747000D01*
X169159000Y-95277000D02*
X166699000Y-95277000D01*
X169159000Y-96747000D02*
X169159000Y-95277000D01*
D10*
X176550000Y-89505000D02*
X176550000Y-100983703D01*
X176550000Y-117505000D02*
X176550000Y-106026297D01*
X176550000Y-117505000D02*
X185400000Y-117505000D01*
X185400000Y-89505000D02*
X176550000Y-89505000D01*
X185400000Y-89505000D02*
X185400000Y-117505000D01*
D14*
X119720000Y-119720000D02*
X124120000Y-119720000D01*
X119720000Y-124120000D02*
X119720000Y-119720000D01*
X124120000Y-119720000D02*
X124120000Y-124120000D01*
X124120000Y-124120000D02*
X119720000Y-124120000D01*
X132541500Y-82850500D02*
X131741500Y-82850500D01*
X132541500Y-82850500D02*
X133341500Y-82850500D01*
X133541500Y-79630500D02*
X131741500Y-79630500D01*
X134081500Y-83130500D02*
X133601500Y-83130500D01*
X133841500Y-82800500D01*
X134081500Y-83130500D01*
G36*
X134081500Y-83130500D02*
G01*
X133601500Y-83130500D01*
X133841500Y-82800500D01*
X134081500Y-83130500D01*
G37*
X171554224Y-95489500D02*
X171044776Y-95489500D01*
X171554224Y-96534500D02*
X171044776Y-96534500D01*
X131150000Y-119720000D02*
X135550000Y-119720000D01*
X131150000Y-124120000D02*
X131150000Y-119720000D01*
X135550000Y-119720000D02*
X135550000Y-124120000D01*
X135550000Y-124120000D02*
X131150000Y-124120000D01*
X173930000Y-123250000D02*
X173930000Y-121920000D01*
X175260000Y-123250000D02*
X173930000Y-123250000D01*
X176530000Y-120590000D02*
X184210000Y-120590000D01*
X176530000Y-123250000D02*
X176530000Y-120590000D01*
X176530000Y-123250000D02*
X184210000Y-123250000D01*
X184210000Y-123250000D02*
X184210000Y-120590000D01*
X119720000Y-83398000D02*
X124120000Y-83398000D01*
X119720000Y-87798000D02*
X119720000Y-83398000D01*
X124120000Y-83398000D02*
X124120000Y-87798000D01*
X124120000Y-87798000D02*
X119720000Y-87798000D01*
X150200000Y-119720000D02*
X154600000Y-119720000D01*
X150200000Y-124120000D02*
X150200000Y-119720000D01*
X154600000Y-119720000D02*
X154600000Y-124120000D01*
X154600000Y-124120000D02*
X150200000Y-124120000D01*
X160018000Y-102661767D02*
X160018000Y-102369233D01*
X161038000Y-102661767D02*
X161038000Y-102369233D01*
X133316267Y-83844500D02*
X133023733Y-83844500D01*
X133316267Y-84864500D02*
X133023733Y-84864500D01*
X137158000Y-101199733D02*
X137158000Y-101492267D01*
X138178000Y-101199733D02*
X138178000Y-101492267D01*
X161562500Y-90134000D02*
X160912500Y-90134000D01*
X161562500Y-90134000D02*
X162212500Y-90134000D01*
X161562500Y-93254000D02*
X160912500Y-93254000D01*
X161562500Y-93254000D02*
X162212500Y-93254000D01*
X162965000Y-93534000D02*
X162485000Y-93534000D01*
X162725000Y-93204000D01*
X162965000Y-93534000D01*
G36*
X162965000Y-93534000D02*
G01*
X162485000Y-93534000D01*
X162725000Y-93204000D01*
X162965000Y-93534000D01*
G37*
X150159767Y-114044000D02*
X149867233Y-114044000D01*
X150159767Y-115064000D02*
X149867233Y-115064000D01*
X139444000Y-106533733D02*
X139444000Y-106826267D01*
X140464000Y-106533733D02*
X140464000Y-106826267D01*
X162408776Y-84821500D02*
X162918224Y-84821500D01*
X162408776Y-85866500D02*
X162918224Y-85866500D01*
X152829500Y-90134000D02*
X152179500Y-90134000D01*
X152829500Y-90134000D02*
X153479500Y-90134000D01*
X152829500Y-93254000D02*
X152179500Y-93254000D01*
X152829500Y-93254000D02*
X153479500Y-93254000D01*
X154232000Y-93534000D02*
X153752000Y-93534000D01*
X153992000Y-93204000D01*
X154232000Y-93534000D01*
G36*
X154232000Y-93534000D02*
G01*
X153752000Y-93534000D01*
X153992000Y-93204000D01*
X154232000Y-93534000D01*
G37*
X154985767Y-114044000D02*
X154693233Y-114044000D01*
X154985767Y-115064000D02*
X154693233Y-115064000D01*
X167980000Y-75270000D02*
X172380000Y-75270000D01*
X167980000Y-79670000D02*
X167980000Y-75270000D01*
X172380000Y-75270000D02*
X172380000Y-79670000D01*
X172380000Y-79670000D02*
X167980000Y-79670000D01*
X144016000Y-102153767D02*
X144016000Y-101861233D01*
X145036000Y-102153767D02*
X145036000Y-101861233D01*
X165440000Y-119720000D02*
X169840000Y-119720000D01*
X165440000Y-124120000D02*
X165440000Y-119720000D01*
X169840000Y-119720000D02*
X169840000Y-124120000D01*
X169840000Y-124120000D02*
X165440000Y-124120000D01*
X159090000Y-119720000D02*
X163490000Y-119720000D01*
X159090000Y-124120000D02*
X159090000Y-119720000D01*
X163490000Y-119720000D02*
X163490000Y-124120000D01*
X163490000Y-124120000D02*
X159090000Y-124120000D01*
X133708224Y-108189500D02*
X133198776Y-108189500D01*
X133708224Y-109234500D02*
X133198776Y-109234500D01*
X128749500Y-80029267D02*
X128749500Y-79736733D01*
X129769500Y-80029267D02*
X129769500Y-79736733D01*
X166727000Y-100049000D02*
X169187000Y-100049000D01*
X169187000Y-98579000D02*
X166727000Y-98579000D01*
X169187000Y-100049000D02*
X169187000Y-98579000D01*
X156058776Y-84821500D02*
X156568224Y-84821500D01*
X156058776Y-85866500D02*
X156568224Y-85866500D01*
X147290000Y-101570000D02*
X147290000Y-102520000D01*
X147290000Y-111790000D02*
X147290000Y-110840000D01*
X148240000Y-101570000D02*
X147290000Y-101570000D01*
X148240000Y-111790000D02*
X147290000Y-111790000D01*
X156560000Y-101570000D02*
X157510000Y-101570000D01*
X156560000Y-111790000D02*
X157510000Y-111790000D01*
X157510000Y-101570000D02*
X157510000Y-102520000D01*
X157510000Y-111790000D02*
X157510000Y-110840000D01*
X146675000Y-102520000D02*
X146335000Y-102050000D01*
X147015000Y-102050000D01*
X146675000Y-102520000D01*
G36*
X146675000Y-102520000D02*
G01*
X146335000Y-102050000D01*
X147015000Y-102050000D01*
X146675000Y-102520000D01*
G37*
X157244500Y-90134000D02*
X156594500Y-90134000D01*
X157244500Y-90134000D02*
X157894500Y-90134000D01*
X157244500Y-93254000D02*
X156594500Y-93254000D01*
X157244500Y-93254000D02*
X157894500Y-93254000D01*
X158647000Y-93534000D02*
X158167000Y-93534000D01*
X158407000Y-93204000D01*
X158647000Y-93534000D01*
G36*
X158647000Y-93534000D02*
G01*
X158167000Y-93534000D01*
X158407000Y-93204000D01*
X158647000Y-93534000D01*
G37*
X158240000Y-100629767D02*
X158240000Y-100337233D01*
X159260000Y-100629767D02*
X159260000Y-100337233D01*
X143225733Y-110234000D02*
X143568267Y-110234000D01*
X143225733Y-111254000D02*
X143568267Y-111254000D01*
X145482000Y-91694000D02*
X145482000Y-89094000D01*
X148142000Y-89094000D02*
X145482000Y-89094000D01*
X148142000Y-91694000D02*
X145482000Y-91694000D01*
X148142000Y-91694000D02*
X148142000Y-89094000D01*
X148142000Y-92964000D02*
X148142000Y-94294000D01*
X148142000Y-94294000D02*
X146812000Y-94294000D01*
X170028776Y-84821500D02*
X170538224Y-84821500D01*
X170028776Y-85866500D02*
X170538224Y-85866500D01*
X148438776Y-84821500D02*
X148948224Y-84821500D01*
X148438776Y-85866500D02*
X148948224Y-85866500D01*
X141984000Y-102153767D02*
X141984000Y-101861233D01*
X143004000Y-102153767D02*
X143004000Y-101861233D01*
M02*
