G04 #@! TF.GenerationSoftware,KiCad,Pcbnew,9.0.0*
G04 #@! TF.CreationDate,2025-07-06T15:52:52-05:00*
G04 #@! TF.ProjectId,silver-platter,73696c76-6572-42d7-906c-61747465722e,rev?*
G04 #@! TF.SameCoordinates,Original*
G04 #@! TF.FileFunction,Copper,L1,Top*
G04 #@! TF.FilePolarity,Positive*
%FSLAX46Y46*%
G04 Gerber Fmt 4.6, Leading zero omitted, Abs format (unit mm)*
G04 Created by KiCad (PCBNEW 9.0.0) date 2025-07-06 15:52:52*
%MOMM*%
%LPD*%
G01*
G04 APERTURE LIST*
G04 Aperture macros list*
%AMRoundRect*
0 Rectangle with rounded corners*
0 $1 Rounding radius*
0 $2 $3 $4 $5 $6 $7 $8 $9 X,Y pos of 4 corners*
0 Add a 4 corners polygon primitive as box body*
4,1,4,$2,$3,$4,$5,$6,$7,$8,$9,$2,$3,0*
0 Add four circle primitives for the rounded corners*
1,1,$1+$1,$2,$3*
1,1,$1+$1,$4,$5*
1,1,$1+$1,$6,$7*
1,1,$1+$1,$8,$9*
0 Add four rect primitives between the rounded corners*
20,1,$1+$1,$2,$3,$4,$5,0*
20,1,$1+$1,$4,$5,$6,$7,0*
20,1,$1+$1,$6,$7,$8,$9,0*
20,1,$1+$1,$8,$9,$2,$3,0*%
G04 Aperture macros list end*
G04 #@! TA.AperFunction,SMDPad,CuDef*
%ADD10RoundRect,0.237500X0.237500X-0.300000X0.237500X0.300000X-0.237500X0.300000X-0.237500X-0.300000X0*%
G04 #@! TD*
G04 #@! TA.AperFunction,SMDPad,CuDef*
%ADD11RoundRect,0.237500X0.250000X0.237500X-0.250000X0.237500X-0.250000X-0.237500X0.250000X-0.237500X0*%
G04 #@! TD*
G04 #@! TA.AperFunction,SMDPad,CuDef*
%ADD12R,4.000000X4.000000*%
G04 #@! TD*
G04 #@! TA.AperFunction,SMDPad,CuDef*
%ADD13RoundRect,0.237500X-0.237500X0.300000X-0.237500X-0.300000X0.237500X-0.300000X0.237500X0.300000X0*%
G04 #@! TD*
G04 #@! TA.AperFunction,SMDPad,CuDef*
%ADD14RoundRect,0.150000X-0.512500X-0.150000X0.512500X-0.150000X0.512500X0.150000X-0.512500X0.150000X0*%
G04 #@! TD*
G04 #@! TA.AperFunction,SMDPad,CuDef*
%ADD15RoundRect,0.237500X0.237500X-0.250000X0.237500X0.250000X-0.237500X0.250000X-0.237500X-0.250000X0*%
G04 #@! TD*
G04 #@! TA.AperFunction,SMDPad,CuDef*
%ADD16RoundRect,0.237500X-0.250000X-0.237500X0.250000X-0.237500X0.250000X0.237500X-0.250000X0.237500X0*%
G04 #@! TD*
G04 #@! TA.AperFunction,SMDPad,CuDef*
%ADD17RoundRect,0.237500X-0.300000X-0.237500X0.300000X-0.237500X0.300000X0.237500X-0.300000X0.237500X0*%
G04 #@! TD*
G04 #@! TA.AperFunction,SMDPad,CuDef*
%ADD18RoundRect,0.237500X0.300000X0.237500X-0.300000X0.237500X-0.300000X-0.237500X0.300000X-0.237500X0*%
G04 #@! TD*
G04 #@! TA.AperFunction,ComponentPad*
%ADD19C,2.000000*%
G04 #@! TD*
G04 #@! TA.AperFunction,SMDPad,CuDef*
%ADD20RoundRect,0.250001X-0.849999X0.462499X-0.849999X-0.462499X0.849999X-0.462499X0.849999X0.462499X0*%
G04 #@! TD*
G04 #@! TA.AperFunction,SMDPad,CuDef*
%ADD21RoundRect,0.237500X0.287500X0.237500X-0.287500X0.237500X-0.287500X-0.237500X0.287500X-0.237500X0*%
G04 #@! TD*
G04 #@! TA.AperFunction,ComponentPad*
%ADD22C,1.750000*%
G04 #@! TD*
G04 #@! TA.AperFunction,SMDPad,CuDef*
%ADD23RoundRect,0.162500X0.617500X0.162500X-0.617500X0.162500X-0.617500X-0.162500X0.617500X-0.162500X0*%
G04 #@! TD*
G04 #@! TA.AperFunction,ComponentPad*
%ADD24R,1.700000X1.700000*%
G04 #@! TD*
G04 #@! TA.AperFunction,ComponentPad*
%ADD25O,1.700000X1.700000*%
G04 #@! TD*
G04 #@! TA.AperFunction,SMDPad,CuDef*
%ADD26RoundRect,0.150000X0.587500X0.150000X-0.587500X0.150000X-0.587500X-0.150000X0.587500X-0.150000X0*%
G04 #@! TD*
G04 #@! TA.AperFunction,SMDPad,CuDef*
%ADD27RoundRect,0.075000X-0.700000X-0.075000X0.700000X-0.075000X0.700000X0.075000X-0.700000X0.075000X0*%
G04 #@! TD*
G04 #@! TA.AperFunction,SMDPad,CuDef*
%ADD28RoundRect,0.075000X-0.075000X-0.700000X0.075000X-0.700000X0.075000X0.700000X-0.075000X0.700000X0*%
G04 #@! TD*
G04 #@! TA.AperFunction,SMDPad,CuDef*
%ADD29RoundRect,0.237500X-0.287500X-0.237500X0.287500X-0.237500X0.287500X0.237500X-0.287500X0.237500X0*%
G04 #@! TD*
G04 #@! TA.AperFunction,ViaPad*
%ADD30C,0.600000*%
G04 #@! TD*
G04 #@! TA.AperFunction,Conductor*
%ADD31C,0.250000*%
G04 #@! TD*
G04 #@! TA.AperFunction,Conductor*
%ADD32C,0.750000*%
G04 #@! TD*
G04 #@! TA.AperFunction,Conductor*
%ADD33C,2.000000*%
G04 #@! TD*
G04 APERTURE END LIST*
D10*
X144526000Y-108812500D03*
X144526000Y-107087500D03*
D11*
X172212000Y-102616000D03*
X170387000Y-102616000D03*
D12*
X162560000Y-77470000D03*
D10*
X136117500Y-83031500D03*
X136117500Y-81306500D03*
D12*
X121920000Y-77470000D03*
X156210000Y-77470000D03*
X184150000Y-77470000D03*
D13*
X131826000Y-100536500D03*
X131826000Y-102261500D03*
D12*
X146050000Y-121920000D03*
X142240000Y-77470000D03*
X121920000Y-114300000D03*
D14*
X133615000Y-101123500D03*
X133615000Y-102073500D03*
X133615000Y-103023500D03*
X135890000Y-103023500D03*
X135890000Y-101123500D03*
D12*
X148590000Y-77470000D03*
X121920000Y-106680000D03*
D15*
X149606000Y-93980000D03*
X149606000Y-92155000D03*
D16*
X141431000Y-85344000D03*
X143256000Y-85344000D03*
D10*
X142494000Y-108812500D03*
X142494000Y-107087500D03*
D17*
X157633500Y-113030000D03*
X159358500Y-113030000D03*
D12*
X139700000Y-121920000D03*
D18*
X149606000Y-98298000D03*
X147881000Y-98298000D03*
D19*
X137740000Y-96520000D03*
X137740000Y-90020000D03*
X142240000Y-96520000D03*
X142240000Y-90020000D03*
D16*
X175514000Y-85344000D03*
X177339000Y-85344000D03*
D20*
X129767500Y-84354500D03*
X129767500Y-86679500D03*
D12*
X176530000Y-77470000D03*
D11*
X172212000Y-99314000D03*
X170387000Y-99314000D03*
D16*
X132541000Y-112014000D03*
X134366000Y-112014000D03*
D21*
X168402000Y-102616000D03*
X166652000Y-102616000D03*
X168374000Y-96012000D03*
X166624000Y-96012000D03*
D22*
X179705000Y-92075000D03*
X182245000Y-92075000D03*
X179705000Y-94615000D03*
X182245000Y-94615000D03*
X179705000Y-97155000D03*
X182245000Y-97155000D03*
X179705000Y-99695000D03*
X182245000Y-99695000D03*
X179705000Y-102235000D03*
X182245000Y-102235000D03*
X179705000Y-104775000D03*
X182245000Y-104775000D03*
X179705000Y-107315000D03*
X182245000Y-107315000D03*
X179705000Y-109855000D03*
X182245000Y-109855000D03*
X179705000Y-112395000D03*
X182245000Y-112395000D03*
X179705000Y-114935000D03*
X182245000Y-114935000D03*
D12*
X121920000Y-121920000D03*
D23*
X133991500Y-82190500D03*
X133991500Y-81240500D03*
X133991500Y-80290500D03*
X131291500Y-80290500D03*
X131291500Y-81240500D03*
X131291500Y-82190500D03*
D11*
X172212000Y-96012000D03*
X170387000Y-96012000D03*
D12*
X133350000Y-121920000D03*
D24*
X175260000Y-121920000D03*
D25*
X177800000Y-121920000D03*
X180340000Y-121920000D03*
X182880000Y-121920000D03*
D12*
X121920000Y-85598000D03*
X152400000Y-121920000D03*
D10*
X160528000Y-103378000D03*
X160528000Y-101653000D03*
D18*
X134032500Y-84354500D03*
X132307500Y-84354500D03*
D13*
X137668000Y-100483500D03*
X137668000Y-102208500D03*
D26*
X162500000Y-92644000D03*
X162500000Y-90744000D03*
X160625000Y-91694000D03*
D18*
X150876000Y-114554000D03*
X149151000Y-114554000D03*
D13*
X139954000Y-105817500D03*
X139954000Y-107542500D03*
D16*
X161751000Y-85344000D03*
X163576000Y-85344000D03*
D26*
X153767000Y-92644000D03*
X153767000Y-90744000D03*
X151892000Y-91694000D03*
D18*
X155702000Y-114554000D03*
X153977000Y-114554000D03*
D12*
X170180000Y-77470000D03*
D10*
X144526000Y-102870000D03*
X144526000Y-101145000D03*
D12*
X167640000Y-121920000D03*
X161290000Y-121920000D03*
D11*
X134366000Y-108712000D03*
X132541000Y-108712000D03*
D10*
X129259500Y-80745500D03*
X129259500Y-79020500D03*
D21*
X168402000Y-99314000D03*
X166652000Y-99314000D03*
D16*
X155401000Y-85344000D03*
X157226000Y-85344000D03*
D27*
X146725000Y-102930000D03*
X146725000Y-103430000D03*
X146725000Y-103930000D03*
X146725000Y-104430000D03*
X146725000Y-104930000D03*
X146725000Y-105430000D03*
X146725000Y-105930000D03*
X146725000Y-106430000D03*
X146725000Y-106930000D03*
X146725000Y-107430000D03*
X146725000Y-107930000D03*
X146725000Y-108430000D03*
X146725000Y-108930000D03*
X146725000Y-109430000D03*
X146725000Y-109930000D03*
X146725000Y-110430000D03*
D28*
X148650000Y-112355000D03*
X149150000Y-112355000D03*
X149650000Y-112355000D03*
X150150000Y-112355000D03*
X150650000Y-112355000D03*
X151150000Y-112355000D03*
X151650000Y-112355000D03*
X152150000Y-112355000D03*
X152650000Y-112355000D03*
X153150000Y-112355000D03*
X153650000Y-112355000D03*
X154150000Y-112355000D03*
X154650000Y-112355000D03*
X155150000Y-112355000D03*
X155650000Y-112355000D03*
X156150000Y-112355000D03*
D27*
X158075000Y-110430000D03*
X158075000Y-109930000D03*
X158075000Y-109430000D03*
X158075000Y-108930000D03*
X158075000Y-108430000D03*
X158075000Y-107930000D03*
X158075000Y-107430000D03*
X158075000Y-106930000D03*
X158075000Y-106430000D03*
X158075000Y-105930000D03*
X158075000Y-105430000D03*
X158075000Y-104930000D03*
X158075000Y-104430000D03*
X158075000Y-103930000D03*
X158075000Y-103430000D03*
X158075000Y-102930000D03*
D28*
X156150000Y-101005000D03*
X155650000Y-101005000D03*
X155150000Y-101005000D03*
X154650000Y-101005000D03*
X154150000Y-101005000D03*
X153650000Y-101005000D03*
X153150000Y-101005000D03*
X152650000Y-101005000D03*
X152150000Y-101005000D03*
X151650000Y-101005000D03*
X151150000Y-101005000D03*
X150650000Y-101005000D03*
X150150000Y-101005000D03*
X149650000Y-101005000D03*
X149150000Y-101005000D03*
X148650000Y-101005000D03*
D26*
X158182000Y-92644000D03*
X158182000Y-90744000D03*
X156307000Y-91694000D03*
D10*
X158750000Y-101346000D03*
X158750000Y-99621000D03*
D29*
X142522000Y-110744000D03*
X144272000Y-110744000D03*
D24*
X146812000Y-92964000D03*
D25*
X146812000Y-90424000D03*
D16*
X169371000Y-85344000D03*
X171196000Y-85344000D03*
X147781000Y-85344000D03*
X149606000Y-85344000D03*
D10*
X142494000Y-102870000D03*
X142494000Y-101145000D03*
D30*
X133350000Y-121920000D03*
X147881000Y-98298000D03*
X150876000Y-114554000D03*
X144272000Y-110744000D03*
X158750000Y-101346000D03*
X166624000Y-96012000D03*
X137668000Y-100483500D03*
X157633500Y-113030000D03*
X142494000Y-102870000D03*
X144526000Y-102870000D03*
X142494000Y-107087500D03*
X153767000Y-90744000D03*
X132307500Y-78766500D03*
X149151000Y-114554000D03*
X149606000Y-93980000D03*
X144526000Y-101145000D03*
X132541000Y-112014000D03*
X172212000Y-102616000D03*
X153977000Y-114554000D03*
X142494000Y-101145000D03*
X172212000Y-96012000D03*
X144526000Y-107087500D03*
X158750000Y-99621000D03*
X172212000Y-99314000D03*
X139954000Y-107542500D03*
X135890000Y-104140000D03*
X135128000Y-104140000D03*
X149606000Y-98298000D03*
X131545500Y-78766500D03*
X162500000Y-90744000D03*
X152400000Y-121920000D03*
X158182000Y-90744000D03*
X159358500Y-113030000D03*
X121920000Y-121920000D03*
X160528000Y-101653000D03*
X153162000Y-106426000D03*
X170434000Y-107950000D03*
X121920000Y-106680000D03*
X136117500Y-86894500D03*
X131826000Y-100536500D03*
X184150000Y-77470000D03*
X135355500Y-86894500D03*
X133615000Y-103023500D03*
X163322000Y-106172000D03*
X164338000Y-104394000D03*
X170434000Y-105410000D03*
X153162000Y-102870000D03*
D31*
X148650000Y-99067000D02*
X147881000Y-98298000D01*
D32*
X136652000Y-100330000D02*
X137514500Y-100330000D01*
D31*
X156958500Y-112355000D02*
X157633500Y-113030000D01*
X146725000Y-102930000D02*
X144586000Y-102930000D01*
D32*
X137514500Y-100330000D02*
X137668000Y-100483500D01*
D31*
X144586000Y-102930000D02*
X144526000Y-102870000D01*
X148650000Y-101005000D02*
X148650000Y-99067000D01*
X158075000Y-102930000D02*
X158075000Y-102021000D01*
D32*
X136652000Y-100361500D02*
X135890000Y-101123500D01*
X136652000Y-100361500D02*
X136652000Y-100330000D01*
D31*
X158075000Y-102021000D02*
X158750000Y-101346000D01*
X149650000Y-112355000D02*
X149650000Y-113328000D01*
X149650000Y-113328000D02*
X150876000Y-114554000D01*
X156150000Y-112355000D02*
X156958500Y-112355000D01*
X149150000Y-101005000D02*
X149150000Y-98754000D01*
X146725000Y-108430000D02*
X145868500Y-108430000D01*
X149150000Y-98754000D02*
X149606000Y-98298000D01*
X145868500Y-108430000D02*
X144526000Y-107087500D01*
X149150000Y-114553000D02*
X149151000Y-114554000D01*
D33*
X129540000Y-77470000D02*
X129540000Y-78232000D01*
D31*
X149150000Y-112355000D02*
X149150000Y-114553000D01*
D33*
X121920000Y-77470000D02*
X129540000Y-77470000D01*
D31*
X144643500Y-108930000D02*
X146725000Y-108930000D01*
X142522000Y-108840500D02*
X142494000Y-108812500D01*
X142522000Y-110744000D02*
X142522000Y-108840500D01*
X144526000Y-108812500D02*
X144643500Y-108930000D01*
X142494000Y-108812500D02*
X144526000Y-108812500D01*
X160476000Y-103430000D02*
X160528000Y-103378000D01*
X158075000Y-103430000D02*
X160476000Y-103430000D01*
X155650000Y-114502000D02*
X155650000Y-112355000D01*
X155702000Y-114554000D02*
X155650000Y-114502000D01*
X139954000Y-105817500D02*
X140066500Y-105930000D01*
X139954000Y-105817500D02*
X139954000Y-98806000D01*
X153162000Y-106426000D02*
X152666000Y-105930000D01*
X142240000Y-90020000D02*
X142240000Y-96520000D01*
X179705000Y-109855000D02*
X172339000Y-109855000D01*
X139954000Y-98806000D02*
X142240000Y-96520000D01*
X152666000Y-105930000D02*
X146725000Y-105930000D01*
X140066500Y-105930000D02*
X146725000Y-105930000D01*
X172339000Y-109855000D02*
X170434000Y-107950000D01*
D32*
X137641500Y-82068500D02*
X136678500Y-83031500D01*
X133991500Y-80290500D02*
X134245500Y-80036500D01*
X136879500Y-80036500D02*
X137641500Y-80798500D01*
X133096000Y-100604500D02*
X133096000Y-100584000D01*
X134245500Y-80036500D02*
X136879500Y-80036500D01*
X136678500Y-83031500D02*
X136117500Y-83031500D01*
X137641500Y-80798500D02*
X137641500Y-82068500D01*
D31*
X136170500Y-83031500D02*
X136117500Y-83031500D01*
D32*
X133615000Y-101123500D02*
X133096000Y-100604500D01*
X133096000Y-100584000D02*
X133048500Y-100536500D01*
X133048500Y-100536500D02*
X131826000Y-100536500D01*
D33*
X124206000Y-85598000D02*
X127000000Y-82804000D01*
D31*
X121920000Y-98091000D02*
X121920000Y-85598000D01*
D33*
X121920000Y-85598000D02*
X124206000Y-85598000D01*
X127000000Y-82804000D02*
X127000000Y-81026000D01*
D31*
X121920000Y-98091000D02*
X132541000Y-108712000D01*
D32*
X133991500Y-82190500D02*
X133991500Y-84313500D01*
X133991500Y-84313500D02*
X134032500Y-84354500D01*
D31*
X170387000Y-96012000D02*
X168374000Y-96012000D01*
X166652000Y-102616000D02*
X166116000Y-102616000D01*
X163322000Y-106172000D02*
X163080000Y-105930000D01*
X166116000Y-102616000D02*
X164338000Y-104394000D01*
X161810000Y-105930000D02*
X158075000Y-105930000D01*
X163080000Y-105930000D02*
X161810000Y-105930000D01*
X177800000Y-121920000D02*
X161810000Y-105930000D01*
X170387000Y-102616000D02*
X168402000Y-102616000D01*
X180340000Y-121920000D02*
X163850000Y-105430000D01*
X163850000Y-105430000D02*
X158075000Y-105430000D01*
X166652000Y-99314000D02*
X160536000Y-105430000D01*
X160536000Y-105430000D02*
X158075000Y-105430000D01*
X168402000Y-99314000D02*
X170387000Y-99314000D01*
X176722000Y-94172000D02*
X179705000Y-97155000D01*
X160590000Y-94172000D02*
X176722000Y-94172000D01*
X155650000Y-101005000D02*
X155650000Y-99112000D01*
X155650000Y-99112000D02*
X160590000Y-94172000D01*
X156150000Y-100230001D02*
X161169001Y-95211000D01*
X161169001Y-95211000D02*
X172701990Y-95211000D01*
X179705000Y-102214010D02*
X179705000Y-102235000D01*
X156150000Y-101005000D02*
X156150000Y-100230001D01*
X172701990Y-95211000D02*
X179705000Y-102214010D01*
X172339000Y-107315000D02*
X170434000Y-105410000D01*
X153162000Y-101017000D02*
X153150000Y-101005000D01*
X179705000Y-107315000D02*
X172339000Y-107315000D01*
X153162000Y-102870000D02*
X153162000Y-101017000D01*
X159089822Y-93721000D02*
X152650000Y-100160822D01*
X178811000Y-93721000D02*
X179705000Y-94615000D01*
X159089822Y-93721000D02*
X178811000Y-93721000D01*
X152650000Y-100160822D02*
X152650000Y-101005000D01*
X180906000Y-100896000D02*
X180906000Y-102732471D01*
X159230678Y-104241500D02*
X158919178Y-103930000D01*
X180202471Y-103436000D02*
X177624990Y-103436000D01*
X165100000Y-97790000D02*
X165100000Y-100146990D01*
X180906000Y-102732471D02*
X180202471Y-103436000D01*
X165974999Y-96915001D02*
X165100000Y-97790000D01*
X179705000Y-99695000D02*
X180906000Y-100896000D01*
X177624990Y-103436000D02*
X171103991Y-96915001D01*
X158919178Y-103930000D02*
X158075000Y-103930000D01*
X171103991Y-96915001D02*
X165974999Y-96915001D01*
X165100000Y-100146990D02*
X161005490Y-104241500D01*
X161005490Y-104241500D02*
X159230678Y-104241500D01*
X154650000Y-113199178D02*
X154650000Y-112355000D01*
X146265000Y-115355000D02*
X151494178Y-115355000D01*
X153393178Y-113456000D02*
X154393178Y-113456000D01*
X139700000Y-121920000D02*
X146265000Y-115355000D01*
X151494178Y-115355000D02*
X153393178Y-113456000D01*
X154393178Y-113456000D02*
X154650000Y-113199178D01*
X154516990Y-115355000D02*
X154839500Y-115032490D01*
X152615000Y-115355000D02*
X154516990Y-115355000D01*
X155150000Y-113336988D02*
X155150000Y-112355000D01*
X154839500Y-113647488D02*
X155150000Y-113336988D01*
X154839500Y-115032490D02*
X154839500Y-113647488D01*
X146050000Y-121920000D02*
X152615000Y-115355000D01*
X167640000Y-121920000D02*
X167640000Y-115062000D01*
X159008000Y-106430000D02*
X158075000Y-106430000D01*
X167640000Y-115062000D02*
X159008000Y-106430000D01*
X158919178Y-108430000D02*
X158075000Y-108430000D01*
X161290000Y-110800822D02*
X158919178Y-108430000D01*
X161290000Y-121920000D02*
X161290000Y-110800822D01*
X141431000Y-85344000D02*
X141431000Y-78279000D01*
X141431000Y-78279000D02*
X142240000Y-77470000D01*
X155401000Y-78279000D02*
X156210000Y-77470000D01*
X155401000Y-85344000D02*
X155401000Y-78279000D01*
X169371000Y-78279000D02*
X170180000Y-77470000D01*
X169371000Y-85344000D02*
X169371000Y-78279000D01*
X149606000Y-78486000D02*
X148590000Y-77470000D01*
X149606000Y-85344000D02*
X149606000Y-78486000D01*
X163576000Y-78486000D02*
X162560000Y-77470000D01*
X163576000Y-85344000D02*
X163576000Y-78486000D01*
X177339000Y-78279000D02*
X176530000Y-77470000D01*
X177339000Y-85344000D02*
X177339000Y-78279000D01*
X121920000Y-114300000D02*
X146705000Y-114300000D01*
X146705000Y-114300000D02*
X148650000Y-112355000D01*
X147621000Y-92155000D02*
X146812000Y-92964000D01*
X146812000Y-92964000D02*
X146812000Y-101092000D01*
X150137178Y-102362000D02*
X150650000Y-101849178D01*
X148082000Y-102362000D02*
X150137178Y-102362000D01*
X146812000Y-101092000D02*
X148082000Y-102362000D01*
X150650000Y-101849178D02*
X150650000Y-101005000D01*
X149606000Y-92155000D02*
X147621000Y-92155000D01*
X175514000Y-85344000D02*
X171196000Y-85344000D01*
X171196000Y-85344000D02*
X164846000Y-91694000D01*
X164846000Y-91694000D02*
X160625000Y-91694000D01*
X157226000Y-85344000D02*
X161751000Y-85344000D01*
X156307000Y-86263000D02*
X156307000Y-91694000D01*
X157226000Y-85344000D02*
X156307000Y-86263000D01*
X151892000Y-91694000D02*
X147781000Y-87583000D01*
X147781000Y-85344000D02*
X143256000Y-85344000D01*
X147781000Y-87583000D02*
X147781000Y-85344000D01*
X134366000Y-112014000D02*
X134366000Y-108712000D01*
X145848000Y-109930000D02*
X146725000Y-109930000D01*
X145624000Y-110154000D02*
X145848000Y-109930000D01*
X145624000Y-110720490D02*
X145624000Y-110154000D01*
X134366000Y-112014000D02*
X144330490Y-112014000D01*
X144330490Y-112014000D02*
X145624000Y-110720490D01*
X151150000Y-101005000D02*
X151150000Y-100160822D01*
X151150000Y-100160822D02*
X158040822Y-93270000D01*
X158040822Y-93270000D02*
X161874000Y-93270000D01*
X161874000Y-93270000D02*
X162500000Y-92644000D01*
X149650000Y-99778000D02*
X149650000Y-101005000D01*
X153767000Y-95661000D02*
X149650000Y-99778000D01*
X153767000Y-92644000D02*
X153767000Y-95661000D01*
X150150000Y-99938501D02*
X150150000Y-101005000D01*
X158182000Y-92644000D02*
X157444501Y-92644000D01*
X157444501Y-92644000D02*
X150150000Y-99938501D01*
G04 #@! TA.AperFunction,Conductor*
G36*
X132039148Y-79796852D02*
G01*
X132053500Y-79831500D01*
X132053500Y-81511500D01*
X132039148Y-81546148D01*
X132004500Y-81560500D01*
X126006500Y-81560500D01*
X125971852Y-81546148D01*
X125957500Y-81511500D01*
X125957500Y-79831500D01*
X125971852Y-79796852D01*
X126006500Y-79782500D01*
X132004500Y-79782500D01*
X132039148Y-79796852D01*
G37*
G04 #@! TD.AperFunction*
G04 #@! TA.AperFunction,Conductor*
G36*
X133055148Y-78018852D02*
G01*
X133069500Y-78053500D01*
X133069500Y-79913019D01*
X133064521Y-79934539D01*
X133021281Y-80022987D01*
X133021280Y-80022991D01*
X133011000Y-80093548D01*
X133011000Y-80487450D01*
X133011001Y-80487451D01*
X133021279Y-80558007D01*
X133021279Y-80558008D01*
X133040493Y-80597310D01*
X133064521Y-80646460D01*
X133069500Y-80667979D01*
X133069500Y-80798500D01*
X133242886Y-80798500D01*
X133264409Y-80803480D01*
X133268988Y-80805719D01*
X133268989Y-80805719D01*
X133268991Y-80805720D01*
X133339551Y-80816000D01*
X133737560Y-80815999D01*
X133762059Y-80822562D01*
X133769365Y-80826781D01*
X133898440Y-80861366D01*
X133915730Y-80865999D01*
X133915731Y-80866000D01*
X133915734Y-80866000D01*
X134067269Y-80866000D01*
X134067269Y-80865999D01*
X134213635Y-80826781D01*
X134213637Y-80826779D01*
X134213639Y-80826779D01*
X134220938Y-80822565D01*
X134245439Y-80815999D01*
X134643451Y-80815999D01*
X134643451Y-80815998D01*
X134714009Y-80805720D01*
X134718593Y-80803478D01*
X134740114Y-80798500D01*
X136807324Y-80798500D01*
X136841972Y-80812852D01*
X136865148Y-80836028D01*
X136879500Y-80870676D01*
X136879500Y-81765500D01*
X136865148Y-81800148D01*
X136830500Y-81814500D01*
X134929156Y-81814500D01*
X134894508Y-81800148D01*
X134822849Y-81728490D01*
X134822847Y-81728488D01*
X134714009Y-81675280D01*
X134690489Y-81671853D01*
X134643451Y-81665000D01*
X134643449Y-81665000D01*
X134245438Y-81665000D01*
X134220938Y-81658435D01*
X134213637Y-81654219D01*
X134213633Y-81654218D01*
X134067269Y-81615000D01*
X134067266Y-81615000D01*
X133915734Y-81615000D01*
X133915731Y-81615000D01*
X133769369Y-81654217D01*
X133769364Y-81654219D01*
X133762059Y-81658437D01*
X133737561Y-81665000D01*
X133339549Y-81665000D01*
X133339548Y-81665001D01*
X133268992Y-81675279D01*
X133268990Y-81675279D01*
X133160155Y-81728486D01*
X133160150Y-81728490D01*
X133088492Y-81800148D01*
X133053844Y-81814500D01*
X132356500Y-81814500D01*
X132321852Y-81800148D01*
X132307500Y-81765500D01*
X132307500Y-79528500D01*
X128546500Y-79528500D01*
X128511852Y-79514148D01*
X128497500Y-79479500D01*
X128497500Y-78053500D01*
X128511852Y-78018852D01*
X128546500Y-78004500D01*
X133020500Y-78004500D01*
X133055148Y-78018852D01*
G37*
G04 #@! TD.AperFunction*
G04 #@! TA.AperFunction,Conductor*
G36*
X136865148Y-82082852D02*
G01*
X136879500Y-82117500D01*
X136879500Y-87607500D01*
X136865148Y-87642148D01*
X136830500Y-87656500D01*
X128546500Y-87656500D01*
X128511852Y-87642148D01*
X128497500Y-87607500D01*
X128497500Y-85673500D01*
X128511852Y-85638852D01*
X128546500Y-85624500D01*
X135101500Y-85624500D01*
X135101500Y-82117500D01*
X135115852Y-82082852D01*
X135150500Y-82068500D01*
X136830500Y-82068500D01*
X136865148Y-82082852D01*
G37*
G04 #@! TD.AperFunction*
G04 #@! TA.AperFunction,Conductor*
G36*
X132039148Y-81828852D02*
G01*
X132053500Y-81863500D01*
X132053500Y-83592500D01*
X133020500Y-83592500D01*
X133055148Y-83606852D01*
X133069500Y-83641500D01*
X133069500Y-85067500D01*
X133055148Y-85102148D01*
X133020500Y-85116500D01*
X128546500Y-85116500D01*
X128511852Y-85102148D01*
X128497500Y-85067500D01*
X128497500Y-81863500D01*
X128511852Y-81828852D01*
X128546500Y-81814500D01*
X132004500Y-81814500D01*
X132039148Y-81828852D01*
G37*
G04 #@! TD.AperFunction*
G04 #@! TA.AperFunction,Conductor*
G36*
X132982504Y-101604979D02*
G01*
X132999183Y-101613132D01*
X133001107Y-101614073D01*
X133049384Y-101621106D01*
X133069238Y-101624000D01*
X133069240Y-101624000D01*
X133317762Y-101624000D01*
X133342261Y-101630564D01*
X133392865Y-101659781D01*
X133508303Y-101690712D01*
X133539230Y-101698999D01*
X133539231Y-101699000D01*
X133539234Y-101699000D01*
X133690770Y-101699000D01*
X133690770Y-101698999D01*
X133837135Y-101659781D01*
X133887738Y-101630564D01*
X133912238Y-101624000D01*
X134160762Y-101624000D01*
X134178090Y-101621474D01*
X134228893Y-101614073D01*
X134239675Y-101608801D01*
X134247496Y-101604979D01*
X134269017Y-101600000D01*
X135235983Y-101600000D01*
X135257504Y-101604979D01*
X135274183Y-101613132D01*
X135276107Y-101614073D01*
X135324384Y-101621106D01*
X135344238Y-101624000D01*
X135344240Y-101624000D01*
X135592762Y-101624000D01*
X135617261Y-101630564D01*
X135667865Y-101659781D01*
X135783303Y-101690712D01*
X135814230Y-101698999D01*
X135814231Y-101699000D01*
X135814234Y-101699000D01*
X135965769Y-101699000D01*
X135965769Y-101698999D01*
X136112135Y-101659781D01*
X136162738Y-101630564D01*
X136187238Y-101624000D01*
X136435762Y-101624000D01*
X136453090Y-101621474D01*
X136503893Y-101614073D01*
X136514675Y-101608801D01*
X136522496Y-101604979D01*
X136544017Y-101600000D01*
X138381000Y-101600000D01*
X138415648Y-101614352D01*
X138430000Y-101649000D01*
X138430000Y-104599000D01*
X138415648Y-104633648D01*
X138381000Y-104648000D01*
X134669000Y-104648000D01*
X134634352Y-104633648D01*
X134620000Y-104599000D01*
X134620000Y-102362000D01*
X132588000Y-102362000D01*
X132588000Y-103075000D01*
X132573648Y-103109648D01*
X132539000Y-103124000D01*
X131113000Y-103124000D01*
X131078352Y-103109648D01*
X131064000Y-103075000D01*
X131064000Y-101649000D01*
X131078352Y-101614352D01*
X131113000Y-101600000D01*
X132960983Y-101600000D01*
X132982504Y-101604979D01*
G37*
G04 #@! TD.AperFunction*
M02*
