G04 #@! TF.GenerationSoftware,KiCad,Pcbnew,9.0.0*
G04 #@! TF.CreationDate,2025-07-06T16:44:13-05:00*
G04 #@! TF.ProjectId,silver-platter,73696c76-6572-42d7-906c-61747465722e,rev?*
G04 #@! TF.SameCoordinates,Original*
G04 #@! TF.FileFunction,Copper,L4,Bot*
G04 #@! TF.FilePolarity,Positive*
%FSLAX46Y46*%
G04 Gerber Fmt 4.6, Leading zero omitted, Abs format (unit mm)*
G04 Created by KiCad (PCBNEW 9.0.0) date 2025-07-06 16:44:13*
%MOMM*%
%LPD*%
G01*
G04 APERTURE LIST*
G04 #@! TA.AperFunction,ComponentPad*
%ADD10C,2.000000*%
G04 #@! TD*
G04 #@! TA.AperFunction,ComponentPad*
%ADD11C,1.750000*%
G04 #@! TD*
G04 #@! TA.AperFunction,ComponentPad*
%ADD12R,1.700000X1.700000*%
G04 #@! TD*
G04 #@! TA.AperFunction,ComponentPad*
%ADD13O,1.700000X1.700000*%
G04 #@! TD*
G04 #@! TA.AperFunction,ViaPad*
%ADD14C,0.600000*%
G04 #@! TD*
G04 #@! TA.AperFunction,Conductor*
%ADD15C,0.250000*%
G04 #@! TD*
G04 APERTURE END LIST*
D10*
X137740000Y-96520000D03*
X137740000Y-90020000D03*
X142240000Y-96520000D03*
X142240000Y-90020000D03*
D11*
X179705000Y-92075000D03*
X182245000Y-92075000D03*
X179705000Y-94615000D03*
X182245000Y-94615000D03*
X179705000Y-97155000D03*
X182245000Y-97155000D03*
X179705000Y-99695000D03*
X182245000Y-99695000D03*
X179705000Y-102235000D03*
X182245000Y-102235000D03*
X179705000Y-104775000D03*
X182245000Y-104775000D03*
X179705000Y-107315000D03*
X182245000Y-107315000D03*
X179705000Y-109855000D03*
X182245000Y-109855000D03*
X179705000Y-112395000D03*
X182245000Y-112395000D03*
X179705000Y-114935000D03*
X182245000Y-114935000D03*
D12*
X175260000Y-121920000D03*
D13*
X177800000Y-121920000D03*
X180340000Y-121920000D03*
X182880000Y-121920000D03*
D12*
X146812000Y-92964000D03*
D13*
X146812000Y-90424000D03*
D14*
X137160000Y-109855000D03*
X144780000Y-97790000D03*
X152400000Y-88265000D03*
X159385000Y-88265000D03*
X120015000Y-99695000D03*
X126365000Y-89535000D03*
X180340000Y-77470000D03*
X152400000Y-77470000D03*
X166370000Y-77470000D03*
X182880000Y-85090000D03*
X169545000Y-90805000D03*
X173355000Y-111760000D03*
X172085000Y-119380000D03*
X127635000Y-121920000D03*
X133350000Y-121920000D03*
X147881000Y-98298000D03*
X150876000Y-114554000D03*
X144272000Y-110744000D03*
X158750000Y-101346000D03*
X166624000Y-96012000D03*
X137668000Y-100483500D03*
X157633500Y-113030000D03*
X142494000Y-102870000D03*
X144526000Y-102870000D03*
X142494000Y-107087500D03*
X153767000Y-90744000D03*
X132307500Y-78766500D03*
X149151000Y-114554000D03*
X149606000Y-93980000D03*
X144526000Y-101145000D03*
X132541000Y-112014000D03*
X172212000Y-102616000D03*
X153977000Y-114554000D03*
X142494000Y-101145000D03*
X172212000Y-96012000D03*
X144526000Y-107087500D03*
X158750000Y-99621000D03*
X172212000Y-99314000D03*
X139954000Y-107542500D03*
X135890000Y-104140000D03*
X135128000Y-104140000D03*
X149606000Y-98298000D03*
X131545500Y-78766500D03*
X162500000Y-90744000D03*
X152400000Y-121920000D03*
X158182000Y-90744000D03*
X159358500Y-113030000D03*
X121920000Y-121920000D03*
X160528000Y-101653000D03*
X153162000Y-106426000D03*
X170434000Y-107950000D03*
X121920000Y-106680000D03*
X136117500Y-86894500D03*
X131826000Y-100536500D03*
X184150000Y-77470000D03*
X135355500Y-86894500D03*
X133615000Y-103023500D03*
X163322000Y-106172000D03*
X164338000Y-104394000D03*
X170434000Y-105410000D03*
X153162000Y-102870000D03*
D15*
X153162000Y-106426000D02*
X154686000Y-107950000D01*
X154686000Y-107950000D02*
X170434000Y-107950000D01*
X164338000Y-104394000D02*
X163322000Y-105410000D01*
X163322000Y-105410000D02*
X163322000Y-106172000D01*
X167894000Y-102870000D02*
X170434000Y-105410000D01*
X153162000Y-102870000D02*
X167894000Y-102870000D01*
G04 #@! TA.AperFunction,Conductor*
G36*
X185968863Y-73526134D02*
G01*
X185996639Y-73528120D01*
X186155645Y-73539493D01*
X186190793Y-73544546D01*
X186365064Y-73582456D01*
X186399143Y-73592463D01*
X186566228Y-73654783D01*
X186598542Y-73669540D01*
X186755062Y-73755006D01*
X186784947Y-73774212D01*
X186927703Y-73881078D01*
X186954553Y-73904343D01*
X187080656Y-74030446D01*
X187103921Y-74057296D01*
X187210787Y-74200052D01*
X187229995Y-74229940D01*
X187315459Y-74386457D01*
X187330216Y-74418771D01*
X187392534Y-74585850D01*
X187402544Y-74619939D01*
X187440451Y-74794195D01*
X187445507Y-74829360D01*
X187458866Y-75016135D01*
X187459500Y-75033899D01*
X187459500Y-124991100D01*
X187458866Y-125008863D01*
X187458866Y-125008864D01*
X187445507Y-125195639D01*
X187440451Y-125230804D01*
X187402544Y-125405060D01*
X187392534Y-125439149D01*
X187330216Y-125606228D01*
X187315459Y-125638542D01*
X187229995Y-125795059D01*
X187210787Y-125824947D01*
X187103921Y-125967703D01*
X187080656Y-125994553D01*
X186954553Y-126120656D01*
X186927703Y-126143921D01*
X186784947Y-126250787D01*
X186755059Y-126269995D01*
X186598542Y-126355459D01*
X186566228Y-126370216D01*
X186399149Y-126432534D01*
X186365060Y-126442544D01*
X186190804Y-126480451D01*
X186155639Y-126485507D01*
X185968864Y-126498866D01*
X185951100Y-126499500D01*
X120118900Y-126499500D01*
X120101136Y-126498866D01*
X119914360Y-126485507D01*
X119879195Y-126480451D01*
X119704939Y-126442544D01*
X119670850Y-126432534D01*
X119503771Y-126370216D01*
X119471457Y-126355459D01*
X119314940Y-126269995D01*
X119285052Y-126250787D01*
X119142296Y-126143921D01*
X119115446Y-126120656D01*
X118989343Y-125994553D01*
X118966078Y-125967703D01*
X118859212Y-125824947D01*
X118840004Y-125795059D01*
X118754540Y-125638542D01*
X118739783Y-125606228D01*
X118677465Y-125439149D01*
X118667455Y-125405060D01*
X118629546Y-125230793D01*
X118624493Y-125195645D01*
X118611134Y-125008863D01*
X118610500Y-124991100D01*
X118610500Y-121817638D01*
X132049500Y-121817638D01*
X132049500Y-122022361D01*
X132081522Y-122224531D01*
X132144778Y-122419214D01*
X132144782Y-122419224D01*
X132194143Y-122516100D01*
X132237713Y-122601610D01*
X132358034Y-122767219D01*
X132502781Y-122911966D01*
X132668390Y-123032287D01*
X132850781Y-123125220D01*
X133045466Y-123188477D01*
X133116575Y-123199739D01*
X133247638Y-123220499D01*
X133247645Y-123220499D01*
X133247648Y-123220500D01*
X133247651Y-123220500D01*
X133452349Y-123220500D01*
X133452352Y-123220500D01*
X133452355Y-123220499D01*
X133452361Y-123220499D01*
X133547870Y-123205371D01*
X133654534Y-123188477D01*
X133849219Y-123125220D01*
X134031610Y-123032287D01*
X134197219Y-122911966D01*
X134341966Y-122767219D01*
X134462287Y-122601610D01*
X134555220Y-122419219D01*
X134618477Y-122224534D01*
X134647501Y-122041288D01*
X134650499Y-122022361D01*
X134650500Y-122022349D01*
X134650500Y-121817650D01*
X134650499Y-121817638D01*
X134618477Y-121615468D01*
X134618477Y-121615466D01*
X134555220Y-121420781D01*
X134462287Y-121238390D01*
X134341966Y-121072781D01*
X134281148Y-121011963D01*
X173409500Y-121011963D01*
X173409500Y-122828031D01*
X173409501Y-122828043D01*
X173420113Y-122947414D01*
X173420113Y-122947417D01*
X173420114Y-122947418D01*
X173470990Y-123125220D01*
X173476090Y-123143045D01*
X173476093Y-123143053D01*
X173565526Y-123314265D01*
X173570302Y-123323407D01*
X173698891Y-123481109D01*
X173856593Y-123609698D01*
X174036951Y-123703909D01*
X174232582Y-123759886D01*
X174351963Y-123770500D01*
X176168036Y-123770499D01*
X176287418Y-123759886D01*
X176483049Y-123703909D01*
X176663407Y-123609698D01*
X176680453Y-123595797D01*
X176766278Y-123550269D01*
X176862995Y-123541050D01*
X176955877Y-123569544D01*
X176962265Y-123573107D01*
X176979788Y-123583224D01*
X176979789Y-123583224D01*
X176979792Y-123583226D01*
X176979800Y-123583230D01*
X177129196Y-123645110D01*
X177203900Y-123676054D01*
X177203911Y-123676057D01*
X177203917Y-123676059D01*
X177307855Y-123703909D01*
X177438211Y-123738838D01*
X177678712Y-123770500D01*
X177921288Y-123770500D01*
X178161789Y-123738838D01*
X178323275Y-123695567D01*
X178396082Y-123676059D01*
X178396084Y-123676058D01*
X178396100Y-123676054D01*
X178556305Y-123609695D01*
X178620201Y-123583229D01*
X178620206Y-123583226D01*
X178620212Y-123583224D01*
X178830289Y-123461936D01*
X178918423Y-123394308D01*
X179005554Y-123351341D01*
X179102501Y-123344986D01*
X179194500Y-123376216D01*
X179221568Y-123394301D01*
X179309711Y-123461936D01*
X179353568Y-123487257D01*
X179519782Y-123583221D01*
X179519798Y-123583229D01*
X179659858Y-123641242D01*
X179743900Y-123676054D01*
X179743911Y-123676057D01*
X179743917Y-123676059D01*
X179847855Y-123703909D01*
X179978211Y-123738838D01*
X180218712Y-123770500D01*
X180461288Y-123770500D01*
X180701789Y-123738838D01*
X180863275Y-123695567D01*
X180936082Y-123676059D01*
X180936084Y-123676058D01*
X180936100Y-123676054D01*
X181096305Y-123609695D01*
X181160201Y-123583229D01*
X181160206Y-123583226D01*
X181160212Y-123583224D01*
X181370289Y-123461936D01*
X181458830Y-123393995D01*
X181545965Y-123351025D01*
X181642912Y-123344671D01*
X181734911Y-123375901D01*
X181761992Y-123393995D01*
X181849999Y-123461524D01*
X182060004Y-123582771D01*
X182060020Y-123582779D01*
X182284055Y-123675576D01*
X182284064Y-123675579D01*
X182518313Y-123738346D01*
X182758745Y-123770000D01*
X183001255Y-123770000D01*
X183241686Y-123738346D01*
X183475935Y-123675579D01*
X183475944Y-123675576D01*
X183699979Y-123582779D01*
X183699995Y-123582771D01*
X183910000Y-123461524D01*
X183910010Y-123461518D01*
X184102400Y-123313893D01*
X184102410Y-123313884D01*
X184273884Y-123142410D01*
X184273893Y-123142400D01*
X184421518Y-122950010D01*
X184421524Y-122950000D01*
X184542771Y-122739995D01*
X184542779Y-122739979D01*
X184635576Y-122515944D01*
X184635579Y-122515935D01*
X184698346Y-122281686D01*
X184730000Y-122041254D01*
X184730000Y-121798745D01*
X184698346Y-121558313D01*
X184635579Y-121324064D01*
X184635576Y-121324055D01*
X184542779Y-121100020D01*
X184542771Y-121100004D01*
X184421524Y-120889999D01*
X184421518Y-120889989D01*
X184273893Y-120697599D01*
X184273884Y-120697589D01*
X184102410Y-120526115D01*
X184102400Y-120526106D01*
X183910010Y-120378481D01*
X183910000Y-120378475D01*
X183699995Y-120257228D01*
X183699979Y-120257220D01*
X183475944Y-120164423D01*
X183475935Y-120164420D01*
X183241686Y-120101653D01*
X183001255Y-120070000D01*
X182758745Y-120070000D01*
X182518313Y-120101653D01*
X182284064Y-120164420D01*
X182284055Y-120164423D01*
X182060020Y-120257220D01*
X182060004Y-120257228D01*
X181850000Y-120378474D01*
X181761991Y-120446005D01*
X181674854Y-120488974D01*
X181577907Y-120495327D01*
X181485909Y-120464097D01*
X181458831Y-120446004D01*
X181370832Y-120378481D01*
X181370289Y-120378064D01*
X181337084Y-120358893D01*
X181160217Y-120256778D01*
X181160201Y-120256770D01*
X180936105Y-120163948D01*
X180936103Y-120163947D01*
X180936100Y-120163946D01*
X180936096Y-120163945D01*
X180936082Y-120163940D01*
X180701795Y-120101163D01*
X180701790Y-120101162D01*
X180461288Y-120069500D01*
X180218712Y-120069500D01*
X179978209Y-120101162D01*
X179978204Y-120101163D01*
X179743917Y-120163940D01*
X179743894Y-120163948D01*
X179519798Y-120256770D01*
X179519782Y-120256778D01*
X179309720Y-120378058D01*
X179309715Y-120378061D01*
X179309711Y-120378064D01*
X179221578Y-120445690D01*
X179134445Y-120488659D01*
X179037498Y-120495013D01*
X178945499Y-120463783D01*
X178918425Y-120445693D01*
X178830289Y-120378064D01*
X178797084Y-120358893D01*
X178620217Y-120256778D01*
X178620201Y-120256770D01*
X178396105Y-120163948D01*
X178396103Y-120163947D01*
X178396100Y-120163946D01*
X178396096Y-120163945D01*
X178396082Y-120163940D01*
X178161795Y-120101163D01*
X178161790Y-120101162D01*
X177921288Y-120069500D01*
X177678712Y-120069500D01*
X177438209Y-120101162D01*
X177438204Y-120101163D01*
X177203917Y-120163940D01*
X177203894Y-120163948D01*
X176979789Y-120256774D01*
X176979781Y-120256778D01*
X176962303Y-120266869D01*
X176870303Y-120298096D01*
X176773357Y-120291739D01*
X176686222Y-120248765D01*
X176680456Y-120244203D01*
X176663413Y-120230306D01*
X176663402Y-120230299D01*
X176483053Y-120136093D01*
X176483052Y-120136092D01*
X176483049Y-120136091D01*
X176287418Y-120080114D01*
X176168037Y-120069500D01*
X176168035Y-120069500D01*
X174351968Y-120069500D01*
X174351956Y-120069501D01*
X174232585Y-120080113D01*
X174036954Y-120136090D01*
X174036946Y-120136093D01*
X173856597Y-120230299D01*
X173856592Y-120230302D01*
X173698893Y-120358889D01*
X173698889Y-120358893D01*
X173570302Y-120516592D01*
X173570299Y-120516597D01*
X173476093Y-120696946D01*
X173476090Y-120696954D01*
X173420115Y-120892578D01*
X173420114Y-120892582D01*
X173409500Y-121011963D01*
X134281148Y-121011963D01*
X134197219Y-120928034D01*
X134031610Y-120807713D01*
X134031609Y-120807712D01*
X134031607Y-120807711D01*
X133849224Y-120714782D01*
X133849214Y-120714778D01*
X133654531Y-120651522D01*
X133452361Y-120619500D01*
X133452352Y-120619500D01*
X133247648Y-120619500D01*
X133247638Y-120619500D01*
X133045468Y-120651522D01*
X132850785Y-120714778D01*
X132850775Y-120714782D01*
X132668392Y-120807711D01*
X132502779Y-120928035D01*
X132358035Y-121072779D01*
X132237711Y-121238392D01*
X132144782Y-121420775D01*
X132144778Y-121420785D01*
X132081522Y-121615468D01*
X132049500Y-121817638D01*
X118610500Y-121817638D01*
X118610500Y-114451638D01*
X149575500Y-114451638D01*
X149575500Y-114656361D01*
X149607522Y-114858531D01*
X149670778Y-115053214D01*
X149670782Y-115053224D01*
X149763711Y-115235607D01*
X149763713Y-115235610D01*
X149884034Y-115401219D01*
X150028781Y-115545966D01*
X150194390Y-115666287D01*
X150376781Y-115759220D01*
X150571466Y-115822477D01*
X150642575Y-115833739D01*
X150773638Y-115854499D01*
X150773645Y-115854499D01*
X150773648Y-115854500D01*
X150773651Y-115854500D01*
X150978349Y-115854500D01*
X150978352Y-115854500D01*
X150978355Y-115854499D01*
X150978361Y-115854499D01*
X151073870Y-115839371D01*
X151180534Y-115822477D01*
X151375219Y-115759220D01*
X151557610Y-115666287D01*
X151723219Y-115545966D01*
X151867966Y-115401219D01*
X151988287Y-115235610D01*
X152081220Y-115053219D01*
X152144477Y-114858534D01*
X152176500Y-114656352D01*
X152176500Y-114451648D01*
X152176499Y-114451645D01*
X152176499Y-114451638D01*
X152144477Y-114249468D01*
X152144477Y-114249466D01*
X152081220Y-114054781D01*
X151988287Y-113872390D01*
X151867966Y-113706781D01*
X151723219Y-113562034D01*
X151557610Y-113441713D01*
X151557609Y-113441712D01*
X151557607Y-113441711D01*
X151375224Y-113348782D01*
X151375214Y-113348778D01*
X151180531Y-113285522D01*
X150978361Y-113253500D01*
X150978352Y-113253500D01*
X150773648Y-113253500D01*
X150773638Y-113253500D01*
X150571468Y-113285522D01*
X150376785Y-113348778D01*
X150376775Y-113348782D01*
X150194392Y-113441711D01*
X150028779Y-113562035D01*
X149884035Y-113706779D01*
X149763711Y-113872392D01*
X149670782Y-114054775D01*
X149670778Y-114054785D01*
X149607522Y-114249468D01*
X149575500Y-114451638D01*
X118610500Y-114451638D01*
X118610500Y-112927638D01*
X156333000Y-112927638D01*
X156333000Y-113132361D01*
X156365022Y-113334531D01*
X156428278Y-113529214D01*
X156428282Y-113529224D01*
X156518751Y-113706779D01*
X156521213Y-113711610D01*
X156641534Y-113877219D01*
X156786281Y-114021966D01*
X156951890Y-114142287D01*
X157134281Y-114235220D01*
X157328966Y-114298477D01*
X157400075Y-114309739D01*
X157531138Y-114330499D01*
X157531145Y-114330499D01*
X157531148Y-114330500D01*
X157531151Y-114330500D01*
X157735849Y-114330500D01*
X157735852Y-114330500D01*
X157735855Y-114330499D01*
X157735861Y-114330499D01*
X157831370Y-114315371D01*
X157938034Y-114298477D01*
X158132719Y-114235220D01*
X158315110Y-114142287D01*
X158480719Y-114021966D01*
X158625466Y-113877219D01*
X158745787Y-113711610D01*
X158838720Y-113529219D01*
X158901977Y-113334534D01*
X158934000Y-113132352D01*
X158934000Y-112927648D01*
X158933999Y-112927645D01*
X158933999Y-112927638D01*
X158901977Y-112725468D01*
X158901977Y-112725466D01*
X158838720Y-112530781D01*
X158745787Y-112348390D01*
X158625466Y-112182781D01*
X158480719Y-112038034D01*
X158315110Y-111917713D01*
X158315109Y-111917712D01*
X158315107Y-111917711D01*
X158132724Y-111824782D01*
X158132714Y-111824778D01*
X157938031Y-111761522D01*
X157735861Y-111729500D01*
X157735852Y-111729500D01*
X157531148Y-111729500D01*
X157531138Y-111729500D01*
X157328968Y-111761522D01*
X157134285Y-111824778D01*
X157134275Y-111824782D01*
X156951892Y-111917711D01*
X156786279Y-112038035D01*
X156641535Y-112182779D01*
X156521211Y-112348392D01*
X156428282Y-112530775D01*
X156428278Y-112530785D01*
X156365022Y-112725468D01*
X156333000Y-112927638D01*
X118610500Y-112927638D01*
X118610500Y-110641638D01*
X142971500Y-110641638D01*
X142971500Y-110846361D01*
X143003522Y-111048531D01*
X143066778Y-111243214D01*
X143066782Y-111243224D01*
X143159711Y-111425607D01*
X143159713Y-111425610D01*
X143280034Y-111591219D01*
X143424781Y-111735966D01*
X143590390Y-111856287D01*
X143772781Y-111949220D01*
X143967466Y-112012477D01*
X144038575Y-112023739D01*
X144169638Y-112044499D01*
X144169645Y-112044499D01*
X144169648Y-112044500D01*
X144169651Y-112044500D01*
X144374349Y-112044500D01*
X144374352Y-112044500D01*
X144374355Y-112044499D01*
X144374361Y-112044499D01*
X144476488Y-112028323D01*
X144576534Y-112012477D01*
X144771219Y-111949220D01*
X144953610Y-111856287D01*
X145119219Y-111735966D01*
X145263966Y-111591219D01*
X145384287Y-111425610D01*
X145477220Y-111243219D01*
X145540477Y-111048534D01*
X145564130Y-110899198D01*
X145572499Y-110846361D01*
X145572500Y-110846349D01*
X145572500Y-110641650D01*
X145572499Y-110641638D01*
X145540477Y-110439468D01*
X145540477Y-110439466D01*
X145477220Y-110244781D01*
X145384287Y-110062390D01*
X145263966Y-109896781D01*
X145119219Y-109752034D01*
X144953610Y-109631713D01*
X144953609Y-109631712D01*
X144953607Y-109631711D01*
X144771224Y-109538782D01*
X144771214Y-109538778D01*
X144576531Y-109475522D01*
X144374361Y-109443500D01*
X144374352Y-109443500D01*
X144169648Y-109443500D01*
X144169638Y-109443500D01*
X143967468Y-109475522D01*
X143772785Y-109538778D01*
X143772775Y-109538782D01*
X143590392Y-109631711D01*
X143424779Y-109752035D01*
X143280035Y-109896779D01*
X143159711Y-110062392D01*
X143066782Y-110244775D01*
X143066778Y-110244785D01*
X143003522Y-110439468D01*
X142971500Y-110641638D01*
X118610500Y-110641638D01*
X118610500Y-106577638D01*
X120619500Y-106577638D01*
X120619500Y-106782361D01*
X120651522Y-106984531D01*
X120714778Y-107179214D01*
X120714782Y-107179224D01*
X120807711Y-107361607D01*
X120807713Y-107361610D01*
X120928034Y-107527219D01*
X121072781Y-107671966D01*
X121238390Y-107792287D01*
X121420781Y-107885220D01*
X121615466Y-107948477D01*
X121686575Y-107959739D01*
X121817638Y-107980499D01*
X121817645Y-107980499D01*
X121817648Y-107980500D01*
X121817651Y-107980500D01*
X122022349Y-107980500D01*
X122022352Y-107980500D01*
X122022355Y-107980499D01*
X122022361Y-107980499D01*
X122117870Y-107965371D01*
X122224534Y-107948477D01*
X122419219Y-107885220D01*
X122601610Y-107792287D01*
X122767219Y-107671966D01*
X122911966Y-107527219D01*
X123032287Y-107361610D01*
X123125220Y-107179219D01*
X123188477Y-106984534D01*
X123211732Y-106837713D01*
X123220499Y-106782361D01*
X123220500Y-106782349D01*
X123220500Y-106577650D01*
X123220499Y-106577638D01*
X123192674Y-106401964D01*
X123188477Y-106375466D01*
X123125220Y-106180781D01*
X123094998Y-106121468D01*
X123032288Y-105998392D01*
X123019329Y-105980555D01*
X122911966Y-105832781D01*
X122767219Y-105688034D01*
X122601610Y-105567713D01*
X122601609Y-105567712D01*
X122601607Y-105567711D01*
X122419224Y-105474782D01*
X122419214Y-105474778D01*
X122224531Y-105411522D01*
X122022361Y-105379500D01*
X122022352Y-105379500D01*
X121817648Y-105379500D01*
X121817638Y-105379500D01*
X121615468Y-105411522D01*
X121420785Y-105474778D01*
X121420775Y-105474782D01*
X121238392Y-105567711D01*
X121072779Y-105688035D01*
X120928035Y-105832779D01*
X120807711Y-105998392D01*
X120714782Y-106180775D01*
X120714778Y-106180785D01*
X120651522Y-106375468D01*
X120619500Y-106577638D01*
X118610500Y-106577638D01*
X118610500Y-102921138D01*
X132314500Y-102921138D01*
X132314500Y-103125861D01*
X132346522Y-103328031D01*
X132409778Y-103522714D01*
X132409782Y-103522724D01*
X132492027Y-103684138D01*
X132502713Y-103705110D01*
X132623034Y-103870719D01*
X132767781Y-104015466D01*
X132933390Y-104135787D01*
X133115781Y-104228720D01*
X133310466Y-104291977D01*
X133381575Y-104303239D01*
X133512638Y-104323999D01*
X133512645Y-104323999D01*
X133512648Y-104324000D01*
X133512651Y-104324000D01*
X133717349Y-104324000D01*
X133717352Y-104324000D01*
X133717355Y-104323999D01*
X133717361Y-104323999D01*
X133812870Y-104308871D01*
X133919534Y-104291977D01*
X134114219Y-104228720D01*
X134296610Y-104135787D01*
X134462219Y-104015466D01*
X134606966Y-103870719D01*
X134727287Y-103705110D01*
X134820220Y-103522719D01*
X134883477Y-103328034D01*
X134900371Y-103221370D01*
X134915499Y-103125861D01*
X134915500Y-103125849D01*
X134915500Y-102921150D01*
X134915499Y-102921139D01*
X134895808Y-102796818D01*
X134891186Y-102767638D01*
X141193500Y-102767638D01*
X141193500Y-102972361D01*
X141225522Y-103174531D01*
X141288778Y-103369214D01*
X141288782Y-103369224D01*
X141381711Y-103551607D01*
X141381713Y-103551610D01*
X141502034Y-103717219D01*
X141646781Y-103861966D01*
X141812390Y-103982287D01*
X141994781Y-104075220D01*
X142189466Y-104138477D01*
X142257243Y-104149212D01*
X142391638Y-104170499D01*
X142391645Y-104170499D01*
X142391648Y-104170500D01*
X142391651Y-104170500D01*
X142596349Y-104170500D01*
X142596352Y-104170500D01*
X142596355Y-104170499D01*
X142596361Y-104170499D01*
X142691870Y-104155371D01*
X142798534Y-104138477D01*
X142993219Y-104075220D01*
X143175610Y-103982287D01*
X143341219Y-103861966D01*
X143341232Y-103861952D01*
X143348287Y-103855929D01*
X143433055Y-103808457D01*
X143529536Y-103797038D01*
X143623044Y-103823409D01*
X143671713Y-103855929D01*
X143678773Y-103861958D01*
X143678781Y-103861966D01*
X143844390Y-103982287D01*
X144026781Y-104075220D01*
X144221466Y-104138477D01*
X144289243Y-104149212D01*
X144423638Y-104170499D01*
X144423645Y-104170499D01*
X144423648Y-104170500D01*
X144423651Y-104170500D01*
X144628349Y-104170500D01*
X144628352Y-104170500D01*
X144628355Y-104170499D01*
X144628361Y-104170499D01*
X144723870Y-104155371D01*
X144830534Y-104138477D01*
X145025219Y-104075220D01*
X145207610Y-103982287D01*
X145373219Y-103861966D01*
X145517966Y-103717219D01*
X145638287Y-103551610D01*
X145731220Y-103369219D01*
X145794477Y-103174534D01*
X145826500Y-102972352D01*
X145826500Y-102767648D01*
X145826499Y-102767645D01*
X145826499Y-102767638D01*
X151861500Y-102767638D01*
X151861500Y-102972361D01*
X151893522Y-103174531D01*
X151956778Y-103369214D01*
X151956782Y-103369224D01*
X152049711Y-103551607D01*
X152049713Y-103551610D01*
X152170034Y-103717219D01*
X152314781Y-103861966D01*
X152480390Y-103982287D01*
X152662781Y-104075220D01*
X152857466Y-104138477D01*
X152925243Y-104149212D01*
X153059638Y-104170499D01*
X153059645Y-104170499D01*
X153059648Y-104170500D01*
X153059651Y-104170500D01*
X153264349Y-104170500D01*
X153264352Y-104170500D01*
X153264355Y-104170499D01*
X153264361Y-104170499D01*
X153359870Y-104155371D01*
X153466534Y-104138477D01*
X153661219Y-104075220D01*
X153764415Y-104022638D01*
X153857922Y-103996268D01*
X153877458Y-103995500D01*
X162543663Y-103995500D01*
X162638951Y-104014454D01*
X162719733Y-104068430D01*
X162773709Y-104149212D01*
X162792663Y-104244500D01*
X162773709Y-104339788D01*
X162719734Y-104420568D01*
X162588786Y-104551517D01*
X162588785Y-104551516D01*
X162463519Y-104676783D01*
X162463516Y-104676787D01*
X162359387Y-104820106D01*
X162359385Y-104820110D01*
X162325604Y-104886408D01*
X162325601Y-104886416D01*
X162316885Y-104903523D01*
X162278958Y-104977958D01*
X162224214Y-105146444D01*
X162212440Y-105220780D01*
X162209312Y-105240524D01*
X162209312Y-105240527D01*
X162196501Y-105321412D01*
X162196500Y-105321425D01*
X162196500Y-105456541D01*
X162177546Y-105551829D01*
X162169361Y-105569583D01*
X162116781Y-105672777D01*
X162116777Y-105672788D01*
X162053522Y-105867468D01*
X162021500Y-106069638D01*
X162021500Y-106274361D01*
X162053522Y-106476533D01*
X162053522Y-106476534D01*
X162060678Y-106498556D01*
X162072097Y-106595037D01*
X162045725Y-106688544D01*
X161985577Y-106764842D01*
X161900809Y-106812313D01*
X161823865Y-106824500D01*
X155255337Y-106824500D01*
X155160049Y-106805546D01*
X155079267Y-106751570D01*
X154463752Y-106136055D01*
X154409776Y-106055273D01*
X154403009Y-106036929D01*
X154367223Y-105926791D01*
X154367220Y-105926781D01*
X154274287Y-105744390D01*
X154153966Y-105578781D01*
X154009219Y-105434034D01*
X153843610Y-105313713D01*
X153843609Y-105313712D01*
X153843607Y-105313711D01*
X153661224Y-105220782D01*
X153661214Y-105220778D01*
X153466531Y-105157522D01*
X153264361Y-105125500D01*
X153264352Y-105125500D01*
X153059648Y-105125500D01*
X153059638Y-105125500D01*
X152857468Y-105157522D01*
X152662785Y-105220778D01*
X152662775Y-105220782D01*
X152480392Y-105313711D01*
X152314779Y-105434035D01*
X152170035Y-105578779D01*
X152049711Y-105744392D01*
X151956782Y-105926775D01*
X151956778Y-105926785D01*
X151893522Y-106121468D01*
X151861500Y-106323638D01*
X151861500Y-106528361D01*
X151893522Y-106730531D01*
X151956778Y-106925214D01*
X151956782Y-106925224D01*
X152047251Y-107102779D01*
X152049713Y-107107610D01*
X152170034Y-107273219D01*
X152314781Y-107417966D01*
X152480390Y-107538287D01*
X152662781Y-107631220D01*
X152772929Y-107667009D01*
X152857697Y-107714480D01*
X152872055Y-107727752D01*
X153827517Y-108683214D01*
X153827516Y-108683214D01*
X153941522Y-108797219D01*
X153952786Y-108808483D01*
X154029392Y-108864140D01*
X154096105Y-108912611D01*
X154096107Y-108912612D01*
X154096110Y-108912614D01*
X154153716Y-108941966D01*
X154253957Y-108993042D01*
X154422444Y-109047786D01*
X154446368Y-109051575D01*
X154597421Y-109075500D01*
X169718542Y-109075500D01*
X169813830Y-109094454D01*
X169831577Y-109102635D01*
X169934781Y-109155220D01*
X170129466Y-109218477D01*
X170200575Y-109229739D01*
X170331638Y-109250499D01*
X170331645Y-109250499D01*
X170331648Y-109250500D01*
X170331651Y-109250500D01*
X170536349Y-109250500D01*
X170536352Y-109250500D01*
X170536355Y-109250499D01*
X170536361Y-109250499D01*
X170631870Y-109235371D01*
X170738534Y-109218477D01*
X170933219Y-109155220D01*
X171115610Y-109062287D01*
X171281219Y-108941966D01*
X171425966Y-108797219D01*
X171546287Y-108631610D01*
X171639220Y-108449219D01*
X171702477Y-108254534D01*
X171734500Y-108052352D01*
X171734500Y-107847648D01*
X171734499Y-107847645D01*
X171734499Y-107847638D01*
X171702477Y-107645468D01*
X171702477Y-107645466D01*
X171639220Y-107450781D01*
X171546287Y-107268390D01*
X171425966Y-107102781D01*
X171281219Y-106958034D01*
X171175801Y-106881444D01*
X171109854Y-106810103D01*
X171076227Y-106718953D01*
X171080041Y-106621873D01*
X171120715Y-106533642D01*
X171175800Y-106478556D01*
X171281219Y-106401966D01*
X171425966Y-106257219D01*
X171546287Y-106091610D01*
X171639220Y-105909219D01*
X171702477Y-105714534D01*
X171723979Y-105578779D01*
X171734499Y-105512361D01*
X171734500Y-105512349D01*
X171734500Y-105307650D01*
X171734499Y-105307638D01*
X171702477Y-105105468D01*
X171702477Y-105105466D01*
X171639220Y-104910781D01*
X171546287Y-104728390D01*
X171425966Y-104562781D01*
X171281219Y-104418034D01*
X171115610Y-104297713D01*
X171115609Y-104297712D01*
X171115607Y-104297711D01*
X170933224Y-104204782D01*
X170933217Y-104204779D01*
X170823067Y-104168989D01*
X170738300Y-104121517D01*
X170723943Y-104108246D01*
X169681764Y-103066067D01*
X168627214Y-102011517D01*
X168627210Y-102011514D01*
X168627208Y-102011512D01*
X168627209Y-102011512D01*
X168600970Y-101992450D01*
X168600967Y-101992447D01*
X168483894Y-101907389D01*
X168483881Y-101907380D01*
X168326052Y-101826963D01*
X168326049Y-101826961D01*
X168326042Y-101826958D01*
X168326039Y-101826957D01*
X168326035Y-101826955D01*
X168157553Y-101772213D01*
X167982588Y-101744500D01*
X167982579Y-101744500D01*
X160295137Y-101744500D01*
X160199849Y-101725546D01*
X160119067Y-101671570D01*
X160065091Y-101590788D01*
X160046137Y-101495500D01*
X160049202Y-101456554D01*
X160050498Y-101448365D01*
X160050500Y-101448349D01*
X160050500Y-101243650D01*
X160050499Y-101243638D01*
X160018477Y-101041468D01*
X160018477Y-101041466D01*
X159955220Y-100846781D01*
X159862287Y-100664390D01*
X159741966Y-100498781D01*
X159597219Y-100354034D01*
X159431610Y-100233713D01*
X159431609Y-100233712D01*
X159431607Y-100233711D01*
X159249224Y-100140782D01*
X159249214Y-100140778D01*
X159054531Y-100077522D01*
X158852361Y-100045500D01*
X158852352Y-100045500D01*
X158647648Y-100045500D01*
X158647638Y-100045500D01*
X158445468Y-100077522D01*
X158250785Y-100140778D01*
X158250775Y-100140782D01*
X158068392Y-100233711D01*
X157902779Y-100354035D01*
X157758035Y-100498779D01*
X157637711Y-100664392D01*
X157544782Y-100846775D01*
X157544778Y-100846785D01*
X157481522Y-101041468D01*
X157449500Y-101243638D01*
X157449500Y-101448349D01*
X157449501Y-101448365D01*
X157450798Y-101456554D01*
X157446982Y-101553634D01*
X157406305Y-101641863D01*
X157334960Y-101707810D01*
X157243809Y-101741435D01*
X157204863Y-101744500D01*
X153877458Y-101744500D01*
X153782170Y-101725546D01*
X153764422Y-101717364D01*
X153661219Y-101664780D01*
X153661216Y-101664779D01*
X153661214Y-101664778D01*
X153466531Y-101601522D01*
X153264361Y-101569500D01*
X153264352Y-101569500D01*
X153059648Y-101569500D01*
X153059638Y-101569500D01*
X152857468Y-101601522D01*
X152662785Y-101664778D01*
X152662775Y-101664782D01*
X152480392Y-101757711D01*
X152314779Y-101878035D01*
X152170035Y-102022779D01*
X152049711Y-102188392D01*
X151956782Y-102370775D01*
X151956778Y-102370785D01*
X151893522Y-102565468D01*
X151861500Y-102767638D01*
X145826499Y-102767638D01*
X145794477Y-102565468D01*
X145794477Y-102565466D01*
X145731220Y-102370781D01*
X145638287Y-102188390D01*
X145517966Y-102022781D01*
X145373219Y-101878034D01*
X145207610Y-101757713D01*
X145207609Y-101757712D01*
X145207607Y-101757711D01*
X145025224Y-101664782D01*
X145025214Y-101664778D01*
X144830531Y-101601522D01*
X144628361Y-101569500D01*
X144628352Y-101569500D01*
X144423648Y-101569500D01*
X144423638Y-101569500D01*
X144221468Y-101601522D01*
X144026785Y-101664778D01*
X144026775Y-101664782D01*
X143844392Y-101757711D01*
X143678777Y-101878037D01*
X143671705Y-101884077D01*
X143586936Y-101931545D01*
X143490454Y-101942961D01*
X143396948Y-101916585D01*
X143348295Y-101884077D01*
X143341222Y-101878037D01*
X143341219Y-101878034D01*
X143175610Y-101757713D01*
X143175609Y-101757712D01*
X143175607Y-101757711D01*
X142993224Y-101664782D01*
X142993214Y-101664778D01*
X142798531Y-101601522D01*
X142596361Y-101569500D01*
X142596352Y-101569500D01*
X142391648Y-101569500D01*
X142391638Y-101569500D01*
X142189468Y-101601522D01*
X141994785Y-101664778D01*
X141994775Y-101664782D01*
X141812392Y-101757711D01*
X141646779Y-101878035D01*
X141502035Y-102022779D01*
X141381711Y-102188392D01*
X141288782Y-102370775D01*
X141288778Y-102370785D01*
X141225522Y-102565468D01*
X141193500Y-102767638D01*
X134891186Y-102767638D01*
X134883477Y-102718968D01*
X134883477Y-102718966D01*
X134820220Y-102524281D01*
X134727287Y-102341890D01*
X134606966Y-102176281D01*
X134462219Y-102031534D01*
X134296610Y-101911213D01*
X134296609Y-101911212D01*
X134296607Y-101911211D01*
X134114224Y-101818282D01*
X134114214Y-101818278D01*
X133919531Y-101755022D01*
X133717361Y-101723000D01*
X133717352Y-101723000D01*
X133512648Y-101723000D01*
X133512638Y-101723000D01*
X133310468Y-101755022D01*
X133115785Y-101818278D01*
X133115780Y-101818280D01*
X133040268Y-101856755D01*
X133040263Y-101856757D01*
X132933390Y-101911213D01*
X132767781Y-102031534D01*
X132692474Y-102106840D01*
X132692467Y-102106846D01*
X132623035Y-102176279D01*
X132502711Y-102341892D01*
X132409782Y-102524275D01*
X132409778Y-102524285D01*
X132346522Y-102718968D01*
X132314500Y-102921138D01*
X118610500Y-102921138D01*
X118610500Y-100434138D01*
X130525500Y-100434138D01*
X130525500Y-100638861D01*
X130557522Y-100841031D01*
X130620778Y-101035714D01*
X130620782Y-101035724D01*
X130699794Y-101190793D01*
X130713713Y-101218110D01*
X130834034Y-101383719D01*
X130978781Y-101528466D01*
X131144390Y-101648787D01*
X131326781Y-101741720D01*
X131521466Y-101804977D01*
X131592575Y-101816239D01*
X131723638Y-101836999D01*
X131723645Y-101836999D01*
X131723648Y-101837000D01*
X131723651Y-101837000D01*
X131928349Y-101837000D01*
X131928352Y-101837000D01*
X131928355Y-101836999D01*
X131928361Y-101836999D01*
X132023870Y-101821871D01*
X132130534Y-101804977D01*
X132325219Y-101741720D01*
X132507610Y-101648787D01*
X132673219Y-101528466D01*
X132817966Y-101383719D01*
X132938287Y-101218110D01*
X133031220Y-101035719D01*
X133094477Y-100841034D01*
X133126500Y-100638852D01*
X133126500Y-100434148D01*
X133126499Y-100434141D01*
X133122726Y-100410319D01*
X133122726Y-100410318D01*
X133118104Y-100381138D01*
X136367500Y-100381138D01*
X136367500Y-100585861D01*
X136399522Y-100788031D01*
X136462778Y-100982714D01*
X136462782Y-100982724D01*
X136555711Y-101165107D01*
X136555713Y-101165110D01*
X136676034Y-101330719D01*
X136820781Y-101475466D01*
X136986390Y-101595787D01*
X137168781Y-101688720D01*
X137363466Y-101751977D01*
X137434575Y-101763239D01*
X137565638Y-101783999D01*
X137565645Y-101783999D01*
X137565648Y-101784000D01*
X137565651Y-101784000D01*
X137770349Y-101784000D01*
X137770352Y-101784000D01*
X137770355Y-101783999D01*
X137770361Y-101783999D01*
X137865870Y-101768871D01*
X137972534Y-101751977D01*
X138167219Y-101688720D01*
X138349610Y-101595787D01*
X138515219Y-101475466D01*
X138659966Y-101330719D01*
X138780287Y-101165110D01*
X138873220Y-100982719D01*
X138936477Y-100788034D01*
X138960104Y-100638861D01*
X138968499Y-100585861D01*
X138968500Y-100585849D01*
X138968500Y-100381150D01*
X138968499Y-100381138D01*
X138944872Y-100231968D01*
X138936477Y-100178966D01*
X138873220Y-99984281D01*
X138780287Y-99801890D01*
X138659966Y-99636281D01*
X138515219Y-99491534D01*
X138349610Y-99371213D01*
X138349609Y-99371212D01*
X138349607Y-99371211D01*
X138167224Y-99278282D01*
X138167214Y-99278278D01*
X137972531Y-99215022D01*
X137770361Y-99183000D01*
X137770352Y-99183000D01*
X137565648Y-99183000D01*
X137565638Y-99183000D01*
X137363468Y-99215022D01*
X137168785Y-99278278D01*
X137168775Y-99278282D01*
X136986392Y-99371211D01*
X136820779Y-99491535D01*
X136676035Y-99636279D01*
X136555711Y-99801892D01*
X136462782Y-99984275D01*
X136462778Y-99984285D01*
X136399522Y-100178968D01*
X136367500Y-100381138D01*
X133118104Y-100381138D01*
X133105119Y-100299154D01*
X133094477Y-100231966D01*
X133031220Y-100037281D01*
X132938287Y-99854890D01*
X132817966Y-99689281D01*
X132673219Y-99544534D01*
X132507610Y-99424213D01*
X132507609Y-99424212D01*
X132507607Y-99424211D01*
X132325224Y-99331282D01*
X132325214Y-99331278D01*
X132130531Y-99268022D01*
X131928361Y-99236000D01*
X131928352Y-99236000D01*
X131723648Y-99236000D01*
X131723638Y-99236000D01*
X131521468Y-99268022D01*
X131326785Y-99331278D01*
X131326775Y-99331282D01*
X131144392Y-99424211D01*
X130978779Y-99544535D01*
X130834035Y-99689279D01*
X130713711Y-99854892D01*
X130620782Y-100037275D01*
X130620778Y-100037285D01*
X130557522Y-100231968D01*
X130525500Y-100434138D01*
X118610500Y-100434138D01*
X118610500Y-96388912D01*
X135740000Y-96388912D01*
X135740000Y-96651087D01*
X135774220Y-96911013D01*
X135842074Y-97164253D01*
X135942410Y-97406483D01*
X136073487Y-97633514D01*
X136233096Y-97841523D01*
X136418476Y-98026903D01*
X136626485Y-98186512D01*
X136626485Y-98186513D01*
X136853516Y-98317589D01*
X137095746Y-98417925D01*
X137348987Y-98485779D01*
X137348985Y-98485779D01*
X137608912Y-98520000D01*
X137871088Y-98520000D01*
X138131013Y-98485779D01*
X138384253Y-98417925D01*
X138626483Y-98317589D01*
X138853514Y-98186513D01*
X138853514Y-98186512D01*
X139061523Y-98026903D01*
X139246903Y-97841523D01*
X139406512Y-97633514D01*
X139406513Y-97633514D01*
X139537589Y-97406483D01*
X139637925Y-97164253D01*
X139705779Y-96911013D01*
X139740000Y-96651087D01*
X139740000Y-96388912D01*
X139739996Y-96388880D01*
X140239500Y-96388880D01*
X140239500Y-96651119D01*
X140273729Y-96911112D01*
X140341601Y-97164417D01*
X140441953Y-97406689D01*
X140441955Y-97406693D01*
X140573073Y-97633798D01*
X140573082Y-97633812D01*
X140699672Y-97798785D01*
X140732718Y-97841851D01*
X140918149Y-98027282D01*
X140918153Y-98027285D01*
X140918154Y-98027286D01*
X141126187Y-98186917D01*
X141126192Y-98186920D01*
X141126197Y-98186924D01*
X141353303Y-98318043D01*
X141595581Y-98418398D01*
X141848884Y-98486270D01*
X142108880Y-98520500D01*
X142371120Y-98520500D01*
X142631116Y-98486270D01*
X142884419Y-98418398D01*
X143126697Y-98318043D01*
X143338710Y-98195638D01*
X146580500Y-98195638D01*
X146580500Y-98400361D01*
X146612522Y-98602531D01*
X146675778Y-98797214D01*
X146675782Y-98797224D01*
X146709769Y-98863927D01*
X146768713Y-98979610D01*
X146889034Y-99145219D01*
X147033781Y-99289966D01*
X147199390Y-99410287D01*
X147381781Y-99503220D01*
X147576466Y-99566477D01*
X147647575Y-99577739D01*
X147778638Y-99598499D01*
X147778645Y-99598499D01*
X147778648Y-99598500D01*
X147778651Y-99598500D01*
X147983349Y-99598500D01*
X147983352Y-99598500D01*
X147983355Y-99598499D01*
X147983361Y-99598499D01*
X148078870Y-99583371D01*
X148185534Y-99566477D01*
X148380219Y-99503220D01*
X148562610Y-99410287D01*
X148728219Y-99289966D01*
X148872966Y-99145219D01*
X148993287Y-98979610D01*
X149086220Y-98797219D01*
X149149477Y-98602534D01*
X149167892Y-98486270D01*
X149181499Y-98400361D01*
X149181500Y-98400349D01*
X149181500Y-98195650D01*
X149181499Y-98195638D01*
X149160739Y-98064575D01*
X149149477Y-97993466D01*
X149086220Y-97798781D01*
X149066028Y-97759153D01*
X148993288Y-97616392D01*
X148993287Y-97616390D01*
X148872966Y-97450781D01*
X148728219Y-97306034D01*
X148562610Y-97185713D01*
X148562609Y-97185712D01*
X148562607Y-97185711D01*
X148380224Y-97092782D01*
X148380214Y-97092778D01*
X148185531Y-97029522D01*
X147983361Y-96997500D01*
X147983352Y-96997500D01*
X147778648Y-96997500D01*
X147778638Y-96997500D01*
X147576468Y-97029522D01*
X147381785Y-97092778D01*
X147381775Y-97092782D01*
X147199392Y-97185711D01*
X147033779Y-97306035D01*
X146889035Y-97450779D01*
X146768711Y-97616392D01*
X146675782Y-97798775D01*
X146675778Y-97798785D01*
X146612522Y-97993468D01*
X146580500Y-98195638D01*
X143338710Y-98195638D01*
X143353803Y-98186924D01*
X143561851Y-98027282D01*
X143747282Y-97841851D01*
X143906924Y-97633803D01*
X144038043Y-97406697D01*
X144138398Y-97164419D01*
X144206270Y-96911116D01*
X144240500Y-96651120D01*
X144240500Y-96388880D01*
X144206270Y-96128884D01*
X144147524Y-95909638D01*
X165323500Y-95909638D01*
X165323500Y-96114361D01*
X165355522Y-96316531D01*
X165418778Y-96511214D01*
X165418782Y-96511224D01*
X165490063Y-96651120D01*
X165511713Y-96693610D01*
X165632034Y-96859219D01*
X165776781Y-97003966D01*
X165942390Y-97124287D01*
X166124781Y-97217220D01*
X166319466Y-97280477D01*
X166390575Y-97291739D01*
X166521638Y-97312499D01*
X166521645Y-97312499D01*
X166521648Y-97312500D01*
X166521651Y-97312500D01*
X166726349Y-97312500D01*
X166726352Y-97312500D01*
X166726355Y-97312499D01*
X166726361Y-97312499D01*
X166821870Y-97297371D01*
X166928534Y-97280477D01*
X167123219Y-97217220D01*
X167305610Y-97124287D01*
X167471219Y-97003966D01*
X167615966Y-96859219D01*
X167736287Y-96693610D01*
X167829220Y-96511219D01*
X167892477Y-96316534D01*
X167909371Y-96209870D01*
X167924499Y-96114361D01*
X167924500Y-96114349D01*
X167924500Y-95909650D01*
X167924499Y-95909638D01*
X167900877Y-95760500D01*
X167892477Y-95707466D01*
X167829220Y-95512781D01*
X167736287Y-95330390D01*
X167615966Y-95164781D01*
X167471219Y-95020034D01*
X167305610Y-94899713D01*
X167305609Y-94899712D01*
X167305607Y-94899711D01*
X167123224Y-94806782D01*
X167123214Y-94806778D01*
X166928531Y-94743522D01*
X166726361Y-94711500D01*
X166726352Y-94711500D01*
X166521648Y-94711500D01*
X166521638Y-94711500D01*
X166319468Y-94743522D01*
X166124785Y-94806778D01*
X166124775Y-94806782D01*
X165942392Y-94899711D01*
X165776779Y-95020035D01*
X165632035Y-95164779D01*
X165511711Y-95330392D01*
X165418782Y-95512775D01*
X165418778Y-95512785D01*
X165355522Y-95707468D01*
X165323500Y-95909638D01*
X144147524Y-95909638D01*
X144138398Y-95875581D01*
X144038043Y-95633303D01*
X143906924Y-95406197D01*
X143906920Y-95406192D01*
X143906917Y-95406187D01*
X143747286Y-95198154D01*
X143747285Y-95198153D01*
X143747282Y-95198149D01*
X143561851Y-95012718D01*
X143561846Y-95012714D01*
X143561845Y-95012713D01*
X143353812Y-94853082D01*
X143353798Y-94853073D01*
X143273619Y-94806782D01*
X143126697Y-94721957D01*
X143126695Y-94721956D01*
X143126693Y-94721955D01*
X143126689Y-94721953D01*
X142884417Y-94621601D01*
X142774730Y-94592211D01*
X142631116Y-94553730D01*
X142631111Y-94553729D01*
X142631114Y-94553729D01*
X142371120Y-94519500D01*
X142108880Y-94519500D01*
X141848887Y-94553729D01*
X141595582Y-94621601D01*
X141353310Y-94721953D01*
X141353306Y-94721955D01*
X141126201Y-94853073D01*
X141126187Y-94853082D01*
X140918154Y-95012713D01*
X140732713Y-95198154D01*
X140573082Y-95406187D01*
X140573073Y-95406201D01*
X140441955Y-95633306D01*
X140441953Y-95633310D01*
X140341601Y-95875582D01*
X140273729Y-96128887D01*
X140239500Y-96388880D01*
X139739996Y-96388880D01*
X139705779Y-96128986D01*
X139637925Y-95875746D01*
X139537589Y-95633516D01*
X139406512Y-95406485D01*
X139246903Y-95198476D01*
X139061523Y-95013096D01*
X138853514Y-94853487D01*
X138853514Y-94853486D01*
X138626483Y-94722410D01*
X138384253Y-94622074D01*
X138131012Y-94554220D01*
X138131014Y-94554220D01*
X137871088Y-94520000D01*
X137608912Y-94520000D01*
X137348986Y-94554220D01*
X137095746Y-94622074D01*
X136853516Y-94722410D01*
X136626485Y-94853486D01*
X136626485Y-94853487D01*
X136418476Y-95013096D01*
X136233096Y-95198476D01*
X136073487Y-95406485D01*
X136073486Y-95406485D01*
X135942410Y-95633516D01*
X135842074Y-95875746D01*
X135774220Y-96128986D01*
X135740000Y-96388912D01*
X118610500Y-96388912D01*
X118610500Y-86792138D01*
X134055000Y-86792138D01*
X134055000Y-86996861D01*
X134087022Y-87199031D01*
X134150278Y-87393714D01*
X134150282Y-87393724D01*
X134243211Y-87576107D01*
X134243213Y-87576110D01*
X134363534Y-87741719D01*
X134508281Y-87886466D01*
X134673890Y-88006787D01*
X134856281Y-88099720D01*
X135050966Y-88162977D01*
X135122075Y-88174239D01*
X135253138Y-88194999D01*
X135253145Y-88194999D01*
X135253148Y-88195000D01*
X135253151Y-88195000D01*
X135457849Y-88195000D01*
X135457852Y-88195000D01*
X135457855Y-88194999D01*
X135457861Y-88194999D01*
X135660034Y-88162977D01*
X135669545Y-88160694D01*
X135669838Y-88161918D01*
X135756013Y-88151711D01*
X135763831Y-88152450D01*
X135789185Y-88155249D01*
X135812966Y-88162977D01*
X136015148Y-88195000D01*
X136149136Y-88195000D01*
X136162764Y-88196505D01*
X136196260Y-88207099D01*
X136230721Y-88213954D01*
X136242215Y-88221634D01*
X136255396Y-88225803D01*
X136282286Y-88248408D01*
X136311503Y-88267930D01*
X136319184Y-88279426D01*
X136329765Y-88288321D01*
X136345957Y-88319496D01*
X136365479Y-88348712D01*
X136368176Y-88362271D01*
X136374548Y-88374539D01*
X136377578Y-88409538D01*
X136384433Y-88444000D01*
X136381735Y-88457560D01*
X136382928Y-88471331D01*
X136372333Y-88504827D01*
X136365479Y-88539288D01*
X136357798Y-88550782D01*
X136353630Y-88563963D01*
X136331024Y-88590853D01*
X136311503Y-88620070D01*
X136233097Y-88698475D01*
X136233096Y-88698476D01*
X136073487Y-88906485D01*
X136073486Y-88906485D01*
X135942410Y-89133516D01*
X135842074Y-89375746D01*
X135774220Y-89628986D01*
X135740000Y-89888912D01*
X135740000Y-90151087D01*
X135774220Y-90411013D01*
X135842074Y-90664253D01*
X135942410Y-90906483D01*
X136073487Y-91133514D01*
X136233096Y-91341523D01*
X136418476Y-91526903D01*
X136626485Y-91686512D01*
X136626485Y-91686513D01*
X136853516Y-91817589D01*
X137095746Y-91917925D01*
X137348987Y-91985779D01*
X137348985Y-91985779D01*
X137608912Y-92020000D01*
X137871088Y-92020000D01*
X138131013Y-91985779D01*
X138384253Y-91917925D01*
X138626483Y-91817589D01*
X138853514Y-91686513D01*
X138853514Y-91686512D01*
X139061523Y-91526903D01*
X139246903Y-91341523D01*
X139406512Y-91133514D01*
X139406513Y-91133514D01*
X139537589Y-90906483D01*
X139637925Y-90664253D01*
X139705779Y-90411013D01*
X139740000Y-90151087D01*
X139740000Y-89888912D01*
X139739996Y-89888880D01*
X140239500Y-89888880D01*
X140239500Y-90151119D01*
X140273729Y-90411112D01*
X140341601Y-90664417D01*
X140441953Y-90906689D01*
X140441955Y-90906693D01*
X140573073Y-91133798D01*
X140573082Y-91133812D01*
X140676136Y-91268113D01*
X140732718Y-91341851D01*
X140918149Y-91527282D01*
X140918153Y-91527285D01*
X140918154Y-91527286D01*
X141126187Y-91686917D01*
X141126192Y-91686920D01*
X141126197Y-91686924D01*
X141353303Y-91818043D01*
X141595581Y-91918398D01*
X141848884Y-91986270D01*
X142108880Y-92020500D01*
X142371120Y-92020500D01*
X142631116Y-91986270D01*
X142884419Y-91918398D01*
X143126697Y-91818043D01*
X143353803Y-91686924D01*
X143561851Y-91527282D01*
X143747282Y-91341851D01*
X143906924Y-91133803D01*
X144038043Y-90906697D01*
X144138398Y-90664419D01*
X144206270Y-90411116D01*
X144220542Y-90302712D01*
X144961500Y-90302712D01*
X144961500Y-90545287D01*
X144993162Y-90785790D01*
X144993163Y-90785795D01*
X145055940Y-91020082D01*
X145055948Y-91020105D01*
X145148769Y-91244199D01*
X145148773Y-91244205D01*
X145148776Y-91244212D01*
X145158867Y-91261690D01*
X145190096Y-91353686D01*
X145183742Y-91450633D01*
X145140772Y-91537769D01*
X145136210Y-91543536D01*
X145122300Y-91560595D01*
X145122299Y-91560596D01*
X145028093Y-91740946D01*
X145028090Y-91740954D01*
X144972115Y-91936578D01*
X144972114Y-91936582D01*
X144961500Y-92055963D01*
X144961500Y-93872031D01*
X144961501Y-93872043D01*
X144972113Y-93991414D01*
X144972113Y-93991417D01*
X144972114Y-93991418D01*
X145028091Y-94187049D01*
X145122302Y-94367407D01*
X145250891Y-94525109D01*
X145408593Y-94653698D01*
X145588951Y-94747909D01*
X145784582Y-94803886D01*
X145903963Y-94814500D01*
X147720036Y-94814499D01*
X147839418Y-94803886D01*
X148035049Y-94747909D01*
X148215407Y-94653698D01*
X148373109Y-94525109D01*
X148501698Y-94367407D01*
X148595909Y-94187049D01*
X148651886Y-93991418D01*
X148662500Y-93872037D01*
X148662499Y-92055964D01*
X148659302Y-92020000D01*
X148654499Y-91965969D01*
X148653263Y-91952073D01*
X177829500Y-91952073D01*
X177829500Y-92197926D01*
X177861590Y-92441673D01*
X177925222Y-92679154D01*
X178019300Y-92906281D01*
X178019308Y-92906297D01*
X178142227Y-93119198D01*
X178142233Y-93119208D01*
X178142235Y-93119210D01*
X178199177Y-93193419D01*
X178242147Y-93280555D01*
X178248501Y-93377502D01*
X178217271Y-93469501D01*
X178199177Y-93496581D01*
X178142232Y-93570793D01*
X178142227Y-93570801D01*
X178019308Y-93783702D01*
X178019300Y-93783718D01*
X177925222Y-94010845D01*
X177861590Y-94248326D01*
X177829500Y-94492073D01*
X177829500Y-94737926D01*
X177861590Y-94981673D01*
X177925222Y-95219154D01*
X178019300Y-95446281D01*
X178019308Y-95446297D01*
X178142072Y-95658929D01*
X178142233Y-95659208D01*
X178179263Y-95707466D01*
X178199177Y-95733419D01*
X178242147Y-95820555D01*
X178248501Y-95917502D01*
X178217271Y-96009501D01*
X178199177Y-96036581D01*
X178142232Y-96110793D01*
X178142227Y-96110801D01*
X178019308Y-96323702D01*
X178019300Y-96323718D01*
X177925222Y-96550845D01*
X177861590Y-96788326D01*
X177829500Y-97032073D01*
X177829500Y-97277926D01*
X177861590Y-97521673D01*
X177925222Y-97759154D01*
X178019300Y-97986281D01*
X178019308Y-97986297D01*
X178140179Y-98195650D01*
X178142233Y-98199208D01*
X178180669Y-98249298D01*
X178199177Y-98273419D01*
X178242147Y-98360555D01*
X178248501Y-98457502D01*
X178217271Y-98549501D01*
X178199177Y-98576581D01*
X178142232Y-98650793D01*
X178142227Y-98650801D01*
X178019308Y-98863702D01*
X178019300Y-98863718D01*
X177925222Y-99090845D01*
X177861590Y-99328326D01*
X177829500Y-99572073D01*
X177829500Y-99817926D01*
X177861590Y-100061673D01*
X177925222Y-100299154D01*
X178019300Y-100526281D01*
X178019308Y-100526297D01*
X178099038Y-100664392D01*
X178142233Y-100739208D01*
X178179696Y-100788031D01*
X178199177Y-100813419D01*
X178242147Y-100900555D01*
X178248501Y-100997502D01*
X178217271Y-101089501D01*
X178199177Y-101116581D01*
X178142232Y-101190793D01*
X178142227Y-101190801D01*
X178019308Y-101403702D01*
X178019300Y-101403718D01*
X177925222Y-101630845D01*
X177861590Y-101868326D01*
X177829500Y-102112073D01*
X177829500Y-102357926D01*
X177861590Y-102601673D01*
X177925222Y-102839154D01*
X178019300Y-103066281D01*
X178019308Y-103066297D01*
X178081799Y-103174534D01*
X178142233Y-103279208D01*
X178179696Y-103328031D01*
X178199177Y-103353419D01*
X178242147Y-103440555D01*
X178248501Y-103537502D01*
X178217271Y-103629501D01*
X178199177Y-103656581D01*
X178142232Y-103730793D01*
X178142227Y-103730801D01*
X178019308Y-103943702D01*
X178019300Y-103943718D01*
X177925222Y-104170845D01*
X177861590Y-104408326D01*
X177829500Y-104652073D01*
X177829500Y-104897926D01*
X177861590Y-105141673D01*
X177925222Y-105379154D01*
X178019300Y-105606281D01*
X178019308Y-105606297D01*
X178132047Y-105801565D01*
X178142233Y-105819208D01*
X178152648Y-105832781D01*
X178199177Y-105893419D01*
X178242147Y-105980555D01*
X178248501Y-106077502D01*
X178217271Y-106169501D01*
X178199177Y-106196581D01*
X178142232Y-106270793D01*
X178142227Y-106270801D01*
X178019308Y-106483702D01*
X178019300Y-106483718D01*
X177925222Y-106710845D01*
X177861590Y-106948326D01*
X177829500Y-107192073D01*
X177829500Y-107437926D01*
X177861590Y-107681673D01*
X177925222Y-107919154D01*
X178019300Y-108146281D01*
X178019308Y-108146297D01*
X178081799Y-108254534D01*
X178142233Y-108359208D01*
X178180669Y-108409298D01*
X178199177Y-108433419D01*
X178242147Y-108520555D01*
X178248501Y-108617502D01*
X178217271Y-108709501D01*
X178199177Y-108736581D01*
X178142232Y-108810793D01*
X178142227Y-108810801D01*
X178019308Y-109023702D01*
X178019300Y-109023718D01*
X177925222Y-109250845D01*
X177861590Y-109488326D01*
X177829500Y-109732073D01*
X177829500Y-109977926D01*
X177861590Y-110221673D01*
X177925222Y-110459154D01*
X178019300Y-110686281D01*
X178019308Y-110686297D01*
X178142072Y-110898929D01*
X178142233Y-110899208D01*
X178180669Y-110949298D01*
X178199177Y-110973419D01*
X178242147Y-111060555D01*
X178248501Y-111157502D01*
X178217271Y-111249501D01*
X178199177Y-111276581D01*
X178142232Y-111350793D01*
X178142227Y-111350801D01*
X178019308Y-111563702D01*
X178019300Y-111563718D01*
X177925222Y-111790845D01*
X177861590Y-112028326D01*
X177829500Y-112272073D01*
X177829500Y-112517926D01*
X177861590Y-112761673D01*
X177925222Y-112999154D01*
X178019300Y-113226281D01*
X178019308Y-113226297D01*
X178142072Y-113438929D01*
X178142233Y-113439208D01*
X178180669Y-113489298D01*
X178199177Y-113513419D01*
X178242147Y-113600555D01*
X178248501Y-113697502D01*
X178217271Y-113789501D01*
X178199177Y-113816581D01*
X178142232Y-113890793D01*
X178142227Y-113890801D01*
X178019308Y-114103702D01*
X178019300Y-114103718D01*
X177925222Y-114330845D01*
X177861590Y-114568326D01*
X177829500Y-114812073D01*
X177829500Y-115057926D01*
X177861590Y-115301673D01*
X177925222Y-115539154D01*
X178019300Y-115766281D01*
X178019308Y-115766297D01*
X178142227Y-115979198D01*
X178142238Y-115979216D01*
X178291891Y-116174247D01*
X178291895Y-116174251D01*
X178291899Y-116174256D01*
X178465744Y-116348101D01*
X178465748Y-116348104D01*
X178465752Y-116348108D01*
X178660783Y-116497761D01*
X178660788Y-116497764D01*
X178660792Y-116497767D01*
X178660801Y-116497772D01*
X178873702Y-116620691D01*
X178873718Y-116620699D01*
X179062990Y-116699097D01*
X179100847Y-116714778D01*
X179338323Y-116778409D01*
X179582073Y-116810500D01*
X179827927Y-116810500D01*
X180071677Y-116778409D01*
X180309153Y-116714778D01*
X180438397Y-116661243D01*
X180536281Y-116620699D01*
X180536286Y-116620696D01*
X180536292Y-116620694D01*
X180749208Y-116497767D01*
X180823829Y-116440507D01*
X180910963Y-116397538D01*
X181007910Y-116391183D01*
X181099909Y-116422412D01*
X181126991Y-116440508D01*
X181201066Y-116497347D01*
X181413927Y-116620243D01*
X181413932Y-116620246D01*
X181641002Y-116714301D01*
X181878425Y-116777918D01*
X182122105Y-116810000D01*
X182367895Y-116810000D01*
X182611574Y-116777918D01*
X182848997Y-116714301D01*
X183076067Y-116620246D01*
X183076072Y-116620243D01*
X183288929Y-116497350D01*
X183483920Y-116347728D01*
X183657728Y-116173920D01*
X183807350Y-115978929D01*
X183930243Y-115766072D01*
X183930246Y-115766067D01*
X184024301Y-115538997D01*
X184087918Y-115301574D01*
X184120000Y-115057894D01*
X184120000Y-114812105D01*
X184087918Y-114568425D01*
X184024301Y-114331002D01*
X183930246Y-114103932D01*
X183930243Y-114103927D01*
X183807350Y-113891070D01*
X183750193Y-113816582D01*
X183707223Y-113729446D01*
X183700868Y-113632500D01*
X183732097Y-113540500D01*
X183750193Y-113513418D01*
X183807350Y-113438929D01*
X183930243Y-113226072D01*
X183930246Y-113226067D01*
X184024301Y-112998997D01*
X184087918Y-112761574D01*
X184120000Y-112517894D01*
X184120000Y-112272105D01*
X184087918Y-112028425D01*
X184024301Y-111791002D01*
X183930246Y-111563932D01*
X183930243Y-111563927D01*
X183807350Y-111351070D01*
X183750193Y-111276582D01*
X183707223Y-111189446D01*
X183700868Y-111092500D01*
X183732097Y-111000500D01*
X183750193Y-110973418D01*
X183807350Y-110898929D01*
X183930243Y-110686072D01*
X183930246Y-110686067D01*
X184024301Y-110458997D01*
X184087918Y-110221574D01*
X184120000Y-109977894D01*
X184120000Y-109732105D01*
X184087918Y-109488425D01*
X184024301Y-109251002D01*
X183930246Y-109023932D01*
X183930243Y-109023927D01*
X183807350Y-108811070D01*
X183750193Y-108736582D01*
X183707223Y-108649446D01*
X183700868Y-108552500D01*
X183732097Y-108460500D01*
X183750193Y-108433418D01*
X183807350Y-108358929D01*
X183930243Y-108146072D01*
X183930246Y-108146067D01*
X184024301Y-107918997D01*
X184087918Y-107681574D01*
X184120000Y-107437894D01*
X184120000Y-107192105D01*
X184087918Y-106948425D01*
X184024301Y-106711002D01*
X183930246Y-106483932D01*
X183930243Y-106483927D01*
X183807350Y-106271070D01*
X183750193Y-106196582D01*
X183707223Y-106109446D01*
X183700868Y-106012500D01*
X183732097Y-105920500D01*
X183750193Y-105893418D01*
X183807350Y-105818929D01*
X183930243Y-105606072D01*
X183930246Y-105606067D01*
X184024301Y-105378997D01*
X184087918Y-105141574D01*
X184120000Y-104897894D01*
X184120000Y-104652105D01*
X184087918Y-104408425D01*
X184024301Y-104171002D01*
X183930246Y-103943932D01*
X183930243Y-103943927D01*
X183807350Y-103731070D01*
X183750193Y-103656582D01*
X183707223Y-103569446D01*
X183700868Y-103472500D01*
X183732097Y-103380500D01*
X183750193Y-103353418D01*
X183807350Y-103278929D01*
X183930243Y-103066072D01*
X183930246Y-103066067D01*
X184024301Y-102838997D01*
X184087918Y-102601574D01*
X184120000Y-102357894D01*
X184120000Y-102112105D01*
X184087918Y-101868425D01*
X184024301Y-101631002D01*
X183930246Y-101403932D01*
X183930243Y-101403927D01*
X183807350Y-101191070D01*
X183750193Y-101116582D01*
X183707223Y-101029446D01*
X183700868Y-100932500D01*
X183732097Y-100840500D01*
X183750193Y-100813418D01*
X183807350Y-100738929D01*
X183930243Y-100526072D01*
X183930246Y-100526067D01*
X184024301Y-100298997D01*
X184087918Y-100061574D01*
X184120000Y-99817894D01*
X184120000Y-99572105D01*
X184087918Y-99328425D01*
X184024301Y-99091002D01*
X183930246Y-98863932D01*
X183930243Y-98863927D01*
X183807350Y-98651070D01*
X183750193Y-98576582D01*
X183707223Y-98489446D01*
X183700868Y-98392500D01*
X183732097Y-98300500D01*
X183750193Y-98273418D01*
X183807350Y-98198929D01*
X183930243Y-97986072D01*
X183930246Y-97986067D01*
X184024301Y-97758997D01*
X184087918Y-97521574D01*
X184120000Y-97277894D01*
X184120000Y-97032105D01*
X184087918Y-96788425D01*
X184024301Y-96551002D01*
X183930246Y-96323932D01*
X183930243Y-96323927D01*
X183807350Y-96111070D01*
X183750193Y-96036582D01*
X183707223Y-95949446D01*
X183700868Y-95852500D01*
X183732097Y-95760500D01*
X183750193Y-95733418D01*
X183807350Y-95658929D01*
X183930243Y-95446072D01*
X183930246Y-95446067D01*
X184024301Y-95218997D01*
X184087918Y-94981574D01*
X184120000Y-94737894D01*
X184120000Y-94492105D01*
X184087918Y-94248425D01*
X184024301Y-94011002D01*
X183930246Y-93783932D01*
X183930243Y-93783927D01*
X183807347Y-93571066D01*
X183750508Y-93496991D01*
X183707537Y-93409856D01*
X183701183Y-93312909D01*
X183732413Y-93220910D01*
X183750504Y-93193833D01*
X183807767Y-93119208D01*
X183930694Y-92906292D01*
X184024778Y-92679153D01*
X184088409Y-92441677D01*
X184120500Y-92197927D01*
X184120500Y-91952073D01*
X184088409Y-91708323D01*
X184024778Y-91470847D01*
X183999753Y-91410431D01*
X183930699Y-91243718D01*
X183930691Y-91243702D01*
X183807772Y-91030801D01*
X183807767Y-91030792D01*
X183807764Y-91030788D01*
X183807761Y-91030783D01*
X183658108Y-90835752D01*
X183658104Y-90835748D01*
X183658101Y-90835744D01*
X183484256Y-90661899D01*
X183484251Y-90661895D01*
X183484247Y-90661891D01*
X183289216Y-90512238D01*
X183289198Y-90512227D01*
X183076297Y-90389308D01*
X183076281Y-90389300D01*
X182849154Y-90295222D01*
X182776482Y-90275750D01*
X182611677Y-90231591D01*
X182611672Y-90231590D01*
X182611675Y-90231590D01*
X182367927Y-90199500D01*
X182122073Y-90199500D01*
X181878326Y-90231590D01*
X181640845Y-90295222D01*
X181413718Y-90389300D01*
X181413702Y-90389308D01*
X181200801Y-90512227D01*
X181200793Y-90512232D01*
X181126581Y-90569177D01*
X181039445Y-90612147D01*
X180942498Y-90618501D01*
X180850499Y-90587271D01*
X180823419Y-90569177D01*
X180792285Y-90545287D01*
X180749208Y-90512233D01*
X180749198Y-90512227D01*
X180536297Y-90389308D01*
X180536281Y-90389300D01*
X180309154Y-90295222D01*
X180236482Y-90275750D01*
X180071677Y-90231591D01*
X180071672Y-90231590D01*
X180071675Y-90231590D01*
X179827927Y-90199500D01*
X179582073Y-90199500D01*
X179338326Y-90231590D01*
X179100845Y-90295222D01*
X178873718Y-90389300D01*
X178873702Y-90389308D01*
X178660801Y-90512227D01*
X178660783Y-90512238D01*
X178465752Y-90661891D01*
X178291891Y-90835752D01*
X178142238Y-91030783D01*
X178142227Y-91030801D01*
X178019308Y-91243702D01*
X178019300Y-91243718D01*
X177925222Y-91470845D01*
X177861590Y-91708326D01*
X177829500Y-91952073D01*
X148653263Y-91952073D01*
X148651886Y-91936585D01*
X148651886Y-91936582D01*
X148595909Y-91740951D01*
X148501698Y-91560593D01*
X148501694Y-91560588D01*
X148487793Y-91543539D01*
X148442267Y-91457711D01*
X148433052Y-91360994D01*
X148461550Y-91268113D01*
X148465105Y-91261737D01*
X148475224Y-91244212D01*
X148475230Y-91244199D01*
X148521076Y-91133514D01*
X148568054Y-91020100D01*
X148630838Y-90785789D01*
X148662500Y-90545288D01*
X148662500Y-90302712D01*
X148630838Y-90062211D01*
X148617121Y-90011021D01*
X148568059Y-89827917D01*
X148568057Y-89827911D01*
X148568054Y-89827900D01*
X148533242Y-89743858D01*
X148475229Y-89603798D01*
X148475221Y-89603782D01*
X148353941Y-89393720D01*
X148353935Y-89393710D01*
X148206270Y-89201268D01*
X148206261Y-89201258D01*
X148034741Y-89029738D01*
X148034731Y-89029729D01*
X147842289Y-88882064D01*
X147842279Y-88882058D01*
X147632217Y-88760778D01*
X147632201Y-88760770D01*
X147408105Y-88667948D01*
X147408103Y-88667947D01*
X147408100Y-88667946D01*
X147408096Y-88667945D01*
X147408082Y-88667940D01*
X147173795Y-88605163D01*
X147173790Y-88605162D01*
X146933288Y-88573500D01*
X146690712Y-88573500D01*
X146450209Y-88605162D01*
X146450204Y-88605163D01*
X146215917Y-88667940D01*
X146215894Y-88667948D01*
X145991798Y-88760770D01*
X145991782Y-88760778D01*
X145781720Y-88882058D01*
X145781710Y-88882064D01*
X145589268Y-89029729D01*
X145589258Y-89029738D01*
X145417738Y-89201258D01*
X145417729Y-89201268D01*
X145270064Y-89393710D01*
X145270058Y-89393720D01*
X145148778Y-89603782D01*
X145148770Y-89603798D01*
X145055948Y-89827894D01*
X145055940Y-89827917D01*
X144993163Y-90062204D01*
X144993162Y-90062209D01*
X144961500Y-90302712D01*
X144220542Y-90302712D01*
X144240500Y-90151120D01*
X144240500Y-89888880D01*
X144206270Y-89628884D01*
X144138398Y-89375581D01*
X144038043Y-89133303D01*
X143906924Y-88906197D01*
X143906920Y-88906192D01*
X143906917Y-88906187D01*
X143747286Y-88698154D01*
X143747285Y-88698153D01*
X143747282Y-88698149D01*
X143561851Y-88512718D01*
X143561846Y-88512714D01*
X143561845Y-88512713D01*
X143353812Y-88353082D01*
X143353798Y-88353073D01*
X143206325Y-88267930D01*
X143126697Y-88221957D01*
X143126695Y-88221956D01*
X143126693Y-88221955D01*
X143126689Y-88221953D01*
X142884417Y-88121601D01*
X142774730Y-88092211D01*
X142631116Y-88053730D01*
X142631111Y-88053729D01*
X142631114Y-88053729D01*
X142371120Y-88019500D01*
X142108880Y-88019500D01*
X141848887Y-88053729D01*
X141595582Y-88121601D01*
X141353310Y-88221953D01*
X141353306Y-88221955D01*
X141126201Y-88353073D01*
X141126187Y-88353082D01*
X140918154Y-88512713D01*
X140732713Y-88698154D01*
X140573082Y-88906187D01*
X140573073Y-88906201D01*
X140441955Y-89133306D01*
X140441953Y-89133310D01*
X140341601Y-89375582D01*
X140273729Y-89628887D01*
X140239500Y-89888880D01*
X139739996Y-89888880D01*
X139705779Y-89628986D01*
X139637925Y-89375746D01*
X139537589Y-89133516D01*
X139406512Y-88906485D01*
X139246903Y-88698476D01*
X139061523Y-88513096D01*
X138853514Y-88353487D01*
X138853514Y-88353486D01*
X138626483Y-88222410D01*
X138384253Y-88122074D01*
X138131012Y-88054220D01*
X138131014Y-88054220D01*
X137871088Y-88020000D01*
X137608912Y-88020000D01*
X137407677Y-88046493D01*
X137310730Y-88040138D01*
X137223594Y-87997168D01*
X137159536Y-87924123D01*
X137128306Y-87832124D01*
X137134661Y-87735177D01*
X137173729Y-87653267D01*
X137229787Y-87576110D01*
X137322720Y-87393719D01*
X137385977Y-87199034D01*
X137418000Y-86996852D01*
X137418000Y-86792148D01*
X137417999Y-86792145D01*
X137417999Y-86792138D01*
X137385977Y-86589968D01*
X137385977Y-86589966D01*
X137322720Y-86395281D01*
X137229787Y-86212890D01*
X137109466Y-86047281D01*
X136964719Y-85902534D01*
X136799110Y-85782213D01*
X136799109Y-85782212D01*
X136799107Y-85782211D01*
X136616724Y-85689282D01*
X136616714Y-85689278D01*
X136422031Y-85626022D01*
X136219861Y-85594000D01*
X136219852Y-85594000D01*
X136015148Y-85594000D01*
X136015138Y-85594000D01*
X135812977Y-85626020D01*
X135803460Y-85628306D01*
X135803167Y-85627086D01*
X135716945Y-85637285D01*
X135669643Y-85627876D01*
X135669540Y-85628306D01*
X135660022Y-85626020D01*
X135457861Y-85594000D01*
X135457852Y-85594000D01*
X135253148Y-85594000D01*
X135253138Y-85594000D01*
X135050968Y-85626022D01*
X134856285Y-85689278D01*
X134856275Y-85689282D01*
X134673892Y-85782211D01*
X134508279Y-85902535D01*
X134363535Y-86047279D01*
X134243211Y-86212892D01*
X134150282Y-86395275D01*
X134150278Y-86395285D01*
X134087022Y-86589968D01*
X134055000Y-86792138D01*
X118610500Y-86792138D01*
X118610500Y-77367638D01*
X182849500Y-77367638D01*
X182849500Y-77572361D01*
X182881522Y-77774531D01*
X182944778Y-77969214D01*
X182944782Y-77969224D01*
X183037711Y-78151607D01*
X183037713Y-78151610D01*
X183158034Y-78317219D01*
X183302781Y-78461966D01*
X183468390Y-78582287D01*
X183650781Y-78675220D01*
X183845466Y-78738477D01*
X183916575Y-78749739D01*
X184047638Y-78770499D01*
X184047645Y-78770499D01*
X184047648Y-78770500D01*
X184047651Y-78770500D01*
X184252349Y-78770500D01*
X184252352Y-78770500D01*
X184252355Y-78770499D01*
X184252361Y-78770499D01*
X184347870Y-78755371D01*
X184454534Y-78738477D01*
X184649219Y-78675220D01*
X184831610Y-78582287D01*
X184997219Y-78461966D01*
X185141966Y-78317219D01*
X185262287Y-78151610D01*
X185355220Y-77969219D01*
X185418477Y-77774534D01*
X185450500Y-77572352D01*
X185450500Y-77367648D01*
X185450499Y-77367645D01*
X185450499Y-77367638D01*
X185418477Y-77165468D01*
X185418477Y-77165466D01*
X185355220Y-76970781D01*
X185262287Y-76788390D01*
X185141966Y-76622781D01*
X184997219Y-76478034D01*
X184831610Y-76357713D01*
X184831609Y-76357712D01*
X184831607Y-76357711D01*
X184649224Y-76264782D01*
X184649214Y-76264778D01*
X184454531Y-76201522D01*
X184252361Y-76169500D01*
X184252352Y-76169500D01*
X184047648Y-76169500D01*
X184047638Y-76169500D01*
X183845468Y-76201522D01*
X183650785Y-76264778D01*
X183650775Y-76264782D01*
X183468392Y-76357711D01*
X183302779Y-76478035D01*
X183158035Y-76622779D01*
X183037711Y-76788392D01*
X182944782Y-76970775D01*
X182944778Y-76970785D01*
X182881522Y-77165468D01*
X182849500Y-77367638D01*
X118610500Y-77367638D01*
X118610500Y-75033899D01*
X118611134Y-75016136D01*
X118615213Y-74959108D01*
X118624493Y-74829350D01*
X118629546Y-74794208D01*
X118667457Y-74619931D01*
X118677461Y-74585860D01*
X118739785Y-74418766D01*
X118754540Y-74386457D01*
X118812815Y-74279734D01*
X118840009Y-74229931D01*
X118859207Y-74200058D01*
X118966085Y-74057287D01*
X118989336Y-74030453D01*
X119115453Y-73904336D01*
X119142287Y-73881085D01*
X119285058Y-73774207D01*
X119314931Y-73755009D01*
X119471462Y-73669537D01*
X119503766Y-73654785D01*
X119670860Y-73592461D01*
X119704931Y-73582457D01*
X119879208Y-73544546D01*
X119914352Y-73539493D01*
X120076158Y-73527920D01*
X120101137Y-73526134D01*
X120118900Y-73525500D01*
X120175892Y-73525500D01*
X185894108Y-73525500D01*
X185951100Y-73525500D01*
X185968863Y-73526134D01*
G37*
G04 #@! TD.AperFunction*
M02*
