M48
; DRILL file {KiCad 9.0.0} date 2025-07-06T15:53:32-0500
; FORMAT={-:-/ absolute / metric / decimal}
; #@! TF.CreationDate,2025-07-06T15:53:32-05:00
; #@! TF.GenerationSoftware,Kicad,Pcbnew,9.0.0
; #@! TF.FileFunction,Plated,1,4,PTH
FMAT,2
METRIC
; #@! TA.AperFunction,Plated,PTH,ViaDrill
T1C0.300
; #@! TA.AperFunction,Plated,PTH,ComponentDrill
T2C1.000
; #@! TA.AperFunction,Plated,PTH,ComponentDrill
T3C1.100
%
G90
G05
T1
X121.92Y-106.68
X121.92Y-121.92
X131.546Y-78.766
X131.826Y-100.536
X132.308Y-78.766
X132.541Y-112.014
X133.35Y-121.92
X133.615Y-103.023
X135.128Y-104.14
X135.356Y-86.894
X135.89Y-104.14
X136.118Y-86.894
X137.668Y-100.483
X139.954Y-107.542
X142.494Y-101.145
X142.494Y-102.87
X142.494Y-107.087
X144.272Y-110.744
X144.526Y-101.145
X144.526Y-102.87
X144.526Y-107.087
X147.881Y-98.298
X149.151Y-114.554
X149.606Y-93.98
X149.606Y-98.298
X150.876Y-114.554
X152.4Y-121.92
X153.162Y-102.87
X153.162Y-106.426
X153.767Y-90.744
X153.977Y-114.554
X157.633Y-113.03
X158.182Y-90.744
X158.75Y-99.621
X158.75Y-101.346
X159.358Y-113.03
X160.528Y-101.653
X162.5Y-90.744
X163.322Y-106.172
X164.338Y-104.394
X166.624Y-96.012
X170.434Y-105.41
X170.434Y-107.95
X172.212Y-96.012
X172.212Y-99.314
X172.212Y-102.616
X184.15Y-77.47
T2
X146.812Y-90.424
X146.812Y-92.964
X175.26Y-121.92
X177.8Y-121.92
X180.34Y-121.92
X182.88Y-121.92
T3
X137.74Y-90.02
X137.74Y-96.52
X142.24Y-90.02
X142.24Y-96.52
X179.705Y-92.075
X179.705Y-94.615
X179.705Y-97.155
X179.705Y-99.695
X179.705Y-102.235
X179.705Y-104.775
X179.705Y-107.315
X179.705Y-109.855
X179.705Y-112.395
X179.705Y-114.935
X182.245Y-92.075
X182.245Y-94.615
X182.245Y-97.155
X182.245Y-99.695
X182.245Y-102.235
X182.245Y-104.775
X182.245Y-107.315
X182.245Y-109.855
X182.245Y-112.395
X182.245Y-114.935
M30
