%TF.GenerationSoftware,KiCad,Pcbnew,9.0.0*%
%TF.CreationDate,2025-07-06T15:53:32-05:00*%
%TF.ProjectId,silver-platter,73696c76-6572-42d7-906c-61747465722e,rev?*%
%TF.SameCoordinates,Original*%
%TF.FileFunction,Drillmap*%
%TF.FilePolarity,Positive*%
%FSLAX45Y45*%
G04 Gerber Fmt 4.5, Leading zero omitted, Abs format (unit mm)*
G04 Created by KiCad (PCBNEW 9.0.0) date 2025-07-06 15:53:32*
%MOMM*%
%LPD*%
G01*
G04 APERTURE LIST*
%ADD10C,0.050000*%
%ADD11C,0.200000*%
%ADD12C,0.100000*%
%ADD13C,0.110000*%
G04 APERTURE END LIST*
D10*
X11811000Y-7502500D02*
G75*
G02*
X12011000Y-7302500I200000J0D01*
G01*
X11811000Y-12500000D02*
X11811000Y-7502500D01*
X18796000Y-12500000D02*
G75*
G02*
X18596000Y-12700000I-200000J0D01*
G01*
X12011000Y-7302500D02*
X18596000Y-7302500D01*
X18596000Y-12700000D02*
X12011000Y-12700000D01*
X18796000Y-7502500D02*
X18796000Y-12500000D01*
X18596000Y-7302500D02*
G75*
G02*
X18796000Y-7502500I0J-200000D01*
G01*
X12011000Y-12700000D02*
G75*
G02*
X11811000Y-12500000I0J200000D01*
G01*
D11*
D12*
X12177000Y-10653000D02*
X12207000Y-10683000D01*
X12207000Y-10653000D02*
X12177000Y-10683000D01*
X12177000Y-12177000D02*
X12207000Y-12207000D01*
X12207000Y-12177000D02*
X12177000Y-12207000D01*
X13139550Y-7861650D02*
X13169550Y-7891650D01*
X13169550Y-7861650D02*
X13139550Y-7891650D01*
X13167600Y-10038650D02*
X13197600Y-10068650D01*
X13197600Y-10038650D02*
X13167600Y-10068650D01*
X13215750Y-7861650D02*
X13245750Y-7891650D01*
X13245750Y-7861650D02*
X13215750Y-7891650D01*
X13239100Y-11186400D02*
X13269100Y-11216400D01*
X13269100Y-11186400D02*
X13239100Y-11216400D01*
X13320000Y-12177000D02*
X13350000Y-12207000D01*
X13350000Y-12177000D02*
X13320000Y-12207000D01*
X13346500Y-10287350D02*
X13376500Y-10317350D01*
X13376500Y-10287350D02*
X13346500Y-10317350D01*
X13497800Y-10399000D02*
X13527800Y-10429000D01*
X13527800Y-10399000D02*
X13497800Y-10429000D01*
X13520550Y-8674450D02*
X13550550Y-8704450D01*
X13550550Y-8674450D02*
X13520550Y-8704450D01*
X13574000Y-10399000D02*
X13604000Y-10429000D01*
X13604000Y-10399000D02*
X13574000Y-10429000D01*
X13596750Y-8674450D02*
X13626750Y-8704450D01*
X13626750Y-8674450D02*
X13596750Y-8704450D01*
X13751800Y-10033350D02*
X13781800Y-10063350D01*
X13781800Y-10033350D02*
X13751800Y-10063350D01*
X13980400Y-10739250D02*
X14010400Y-10769250D01*
X14010400Y-10739250D02*
X13980400Y-10769250D01*
X14234400Y-10099500D02*
X14264400Y-10129500D01*
X14264400Y-10099500D02*
X14234400Y-10129500D01*
X14234400Y-10272000D02*
X14264400Y-10302000D01*
X14264400Y-10272000D02*
X14234400Y-10302000D01*
X14234400Y-10693750D02*
X14264400Y-10723750D01*
X14264400Y-10693750D02*
X14234400Y-10723750D01*
X14412200Y-11059400D02*
X14442200Y-11089400D01*
X14442200Y-11059400D02*
X14412200Y-11089400D01*
X14437600Y-10099500D02*
X14467600Y-10129500D01*
X14467600Y-10099500D02*
X14437600Y-10129500D01*
X14437600Y-10272000D02*
X14467600Y-10302000D01*
X14467600Y-10272000D02*
X14437600Y-10302000D01*
X14437600Y-10693750D02*
X14467600Y-10723750D01*
X14467600Y-10693750D02*
X14437600Y-10723750D01*
X14773100Y-9814800D02*
X14803100Y-9844800D01*
X14803100Y-9814800D02*
X14773100Y-9844800D01*
X14900100Y-11440400D02*
X14930100Y-11470400D01*
X14930100Y-11440400D02*
X14900100Y-11470400D01*
X14945600Y-9383000D02*
X14975600Y-9413000D01*
X14975600Y-9383000D02*
X14945600Y-9413000D01*
X14945600Y-9814800D02*
X14975600Y-9844800D01*
X14975600Y-9814800D02*
X14945600Y-9844800D01*
X15072600Y-11440400D02*
X15102600Y-11470400D01*
X15102600Y-11440400D02*
X15072600Y-11470400D01*
X15225000Y-12177000D02*
X15255000Y-12207000D01*
X15255000Y-12177000D02*
X15225000Y-12207000D01*
X15301200Y-10272000D02*
X15331200Y-10302000D01*
X15331200Y-10272000D02*
X15301200Y-10302000D01*
X15301200Y-10627600D02*
X15331200Y-10657600D01*
X15331200Y-10627600D02*
X15301200Y-10657600D01*
X15361700Y-9059400D02*
X15391700Y-9089400D01*
X15391700Y-9059400D02*
X15361700Y-9089400D01*
X15382700Y-11440400D02*
X15412700Y-11470400D01*
X15412700Y-11440400D02*
X15382700Y-11470400D01*
X15748350Y-11288000D02*
X15778350Y-11318000D01*
X15778350Y-11288000D02*
X15748350Y-11318000D01*
X15803200Y-9059400D02*
X15833200Y-9089400D01*
X15833200Y-9059400D02*
X15803200Y-9089400D01*
X15860000Y-9947100D02*
X15890000Y-9977100D01*
X15890000Y-9947100D02*
X15860000Y-9977100D01*
X15860000Y-10119600D02*
X15890000Y-10149600D01*
X15890000Y-10119600D02*
X15860000Y-10149600D01*
X15920850Y-11288000D02*
X15950850Y-11318000D01*
X15950850Y-11288000D02*
X15920850Y-11318000D01*
X16037800Y-10150300D02*
X16067800Y-10180300D01*
X16067800Y-10150300D02*
X16037800Y-10180300D01*
X16235000Y-9059400D02*
X16265000Y-9089400D01*
X16265000Y-9059400D02*
X16235000Y-9089400D01*
X16317200Y-10602200D02*
X16347200Y-10632200D01*
X16347200Y-10602200D02*
X16317200Y-10632200D01*
X16418800Y-10424400D02*
X16448800Y-10454400D01*
X16448800Y-10424400D02*
X16418800Y-10454400D01*
X16647400Y-9586200D02*
X16677400Y-9616200D01*
X16677400Y-9586200D02*
X16647400Y-9616200D01*
X17028400Y-10526000D02*
X17058400Y-10556000D01*
X17058400Y-10526000D02*
X17028400Y-10556000D01*
X17028400Y-10780000D02*
X17058400Y-10810000D01*
X17058400Y-10780000D02*
X17028400Y-10810000D01*
X17206200Y-9586200D02*
X17236200Y-9616200D01*
X17236200Y-9586200D02*
X17206200Y-9616200D01*
X17206200Y-9916400D02*
X17236200Y-9946400D01*
X17236200Y-9916400D02*
X17206200Y-9946400D01*
X17206200Y-10246600D02*
X17236200Y-10276600D01*
X17236200Y-10246600D02*
X17206200Y-10276600D01*
X18400000Y-7732000D02*
X18430000Y-7762000D01*
X18430000Y-7732000D02*
X18400000Y-7762000D01*
X14731200Y-9042400D02*
G75*
G02*
X14631200Y-9042400I-50000J0D01*
G01*
X14631200Y-9042400D02*
G75*
G02*
X14731200Y-9042400I50000J0D01*
G01*
X14731200Y-9296400D02*
G75*
G02*
X14631200Y-9296400I-50000J0D01*
G01*
X14631200Y-9296400D02*
G75*
G02*
X14731200Y-9296400I50000J0D01*
G01*
X17576000Y-12192000D02*
G75*
G02*
X17476000Y-12192000I-50000J0D01*
G01*
X17476000Y-12192000D02*
G75*
G02*
X17576000Y-12192000I50000J0D01*
G01*
X17830000Y-12192000D02*
G75*
G02*
X17730000Y-12192000I-50000J0D01*
G01*
X17730000Y-12192000D02*
G75*
G02*
X17830000Y-12192000I50000J0D01*
G01*
X18084000Y-12192000D02*
G75*
G02*
X17984000Y-12192000I-50000J0D01*
G01*
X17984000Y-12192000D02*
G75*
G02*
X18084000Y-12192000I50000J0D01*
G01*
X18338000Y-12192000D02*
G75*
G02*
X18238000Y-12192000I-50000J0D01*
G01*
X18238000Y-12192000D02*
G75*
G02*
X18338000Y-12192000I50000J0D01*
G01*
D13*
X13774000Y-8947000D02*
X13774000Y-9057000D01*
X13719000Y-9002000D02*
X13829000Y-9002000D01*
X13774000Y-9597000D02*
X13774000Y-9707000D01*
X13719000Y-9652000D02*
X13829000Y-9652000D01*
X14224000Y-8947000D02*
X14224000Y-9057000D01*
X14169000Y-9002000D02*
X14279000Y-9002000D01*
X14224000Y-9597000D02*
X14224000Y-9707000D01*
X14169000Y-9652000D02*
X14279000Y-9652000D01*
X17970500Y-9152500D02*
X17970500Y-9262500D01*
X17915500Y-9207500D02*
X18025500Y-9207500D01*
X17970500Y-9406500D02*
X17970500Y-9516500D01*
X17915500Y-9461500D02*
X18025500Y-9461500D01*
X17970500Y-9660500D02*
X17970500Y-9770500D01*
X17915500Y-9715500D02*
X18025500Y-9715500D01*
X17970500Y-9914500D02*
X17970500Y-10024500D01*
X17915500Y-9969500D02*
X18025500Y-9969500D01*
X17970500Y-10168500D02*
X17970500Y-10278500D01*
X17915500Y-10223500D02*
X18025500Y-10223500D01*
X17970500Y-10422500D02*
X17970500Y-10532500D01*
X17915500Y-10477500D02*
X18025500Y-10477500D01*
X17970500Y-10676500D02*
X17970500Y-10786500D01*
X17915500Y-10731500D02*
X18025500Y-10731500D01*
X17970500Y-10930500D02*
X17970500Y-11040500D01*
X17915500Y-10985500D02*
X18025500Y-10985500D01*
X17970500Y-11184500D02*
X17970500Y-11294500D01*
X17915500Y-11239500D02*
X18025500Y-11239500D01*
X17970500Y-11438500D02*
X17970500Y-11548500D01*
X17915500Y-11493500D02*
X18025500Y-11493500D01*
X18224500Y-9152500D02*
X18224500Y-9262500D01*
X18169500Y-9207500D02*
X18279500Y-9207500D01*
X18224500Y-9406500D02*
X18224500Y-9516500D01*
X18169500Y-9461500D02*
X18279500Y-9461500D01*
X18224500Y-9660500D02*
X18224500Y-9770500D01*
X18169500Y-9715500D02*
X18279500Y-9715500D01*
X18224500Y-9914500D02*
X18224500Y-10024500D01*
X18169500Y-9969500D02*
X18279500Y-9969500D01*
X18224500Y-10168500D02*
X18224500Y-10278500D01*
X18169500Y-10223500D02*
X18279500Y-10223500D01*
X18224500Y-10422500D02*
X18224500Y-10532500D01*
X18169500Y-10477500D02*
X18279500Y-10477500D01*
X18224500Y-10676500D02*
X18224500Y-10786500D01*
X18169500Y-10731500D02*
X18279500Y-10731500D01*
X18224500Y-10930500D02*
X18224500Y-11040500D01*
X18169500Y-10985500D02*
X18279500Y-10985500D01*
X18224500Y-11184500D02*
X18224500Y-11294500D01*
X18169500Y-11239500D02*
X18279500Y-11239500D01*
X18224500Y-11438500D02*
X18224500Y-11548500D01*
X18169500Y-11493500D02*
X18279500Y-11493500D01*
D11*
X12069277Y-13013984D02*
X12069277Y-12813984D01*
X12069277Y-12813984D02*
X12116896Y-12813984D01*
X12116896Y-12813984D02*
X12145467Y-12823508D01*
X12145467Y-12823508D02*
X12164515Y-12842555D01*
X12164515Y-12842555D02*
X12174039Y-12861603D01*
X12174039Y-12861603D02*
X12183562Y-12899698D01*
X12183562Y-12899698D02*
X12183562Y-12928269D01*
X12183562Y-12928269D02*
X12174039Y-12966365D01*
X12174039Y-12966365D02*
X12164515Y-12985412D01*
X12164515Y-12985412D02*
X12145467Y-13004460D01*
X12145467Y-13004460D02*
X12116896Y-13013984D01*
X12116896Y-13013984D02*
X12069277Y-13013984D01*
X12269277Y-13013984D02*
X12269277Y-12880650D01*
X12269277Y-12918746D02*
X12278801Y-12899698D01*
X12278801Y-12899698D02*
X12288324Y-12890174D01*
X12288324Y-12890174D02*
X12307372Y-12880650D01*
X12307372Y-12880650D02*
X12326420Y-12880650D01*
X12393086Y-13013984D02*
X12393086Y-12880650D01*
X12393086Y-12813984D02*
X12383562Y-12823508D01*
X12383562Y-12823508D02*
X12393086Y-12833031D01*
X12393086Y-12833031D02*
X12402610Y-12823508D01*
X12402610Y-12823508D02*
X12393086Y-12813984D01*
X12393086Y-12813984D02*
X12393086Y-12833031D01*
X12516896Y-13013984D02*
X12497848Y-13004460D01*
X12497848Y-13004460D02*
X12488324Y-12985412D01*
X12488324Y-12985412D02*
X12488324Y-12813984D01*
X12621658Y-13013984D02*
X12602610Y-13004460D01*
X12602610Y-13004460D02*
X12593086Y-12985412D01*
X12593086Y-12985412D02*
X12593086Y-12813984D01*
X12850229Y-13013984D02*
X12850229Y-12813984D01*
X12850229Y-12813984D02*
X12916896Y-12956841D01*
X12916896Y-12956841D02*
X12983562Y-12813984D01*
X12983562Y-12813984D02*
X12983562Y-13013984D01*
X13164515Y-13013984D02*
X13164515Y-12909222D01*
X13164515Y-12909222D02*
X13154991Y-12890174D01*
X13154991Y-12890174D02*
X13135943Y-12880650D01*
X13135943Y-12880650D02*
X13097848Y-12880650D01*
X13097848Y-12880650D02*
X13078801Y-12890174D01*
X13164515Y-13004460D02*
X13145467Y-13013984D01*
X13145467Y-13013984D02*
X13097848Y-13013984D01*
X13097848Y-13013984D02*
X13078801Y-13004460D01*
X13078801Y-13004460D02*
X13069277Y-12985412D01*
X13069277Y-12985412D02*
X13069277Y-12966365D01*
X13069277Y-12966365D02*
X13078801Y-12947317D01*
X13078801Y-12947317D02*
X13097848Y-12937793D01*
X13097848Y-12937793D02*
X13145467Y-12937793D01*
X13145467Y-12937793D02*
X13164515Y-12928269D01*
X13259753Y-12880650D02*
X13259753Y-13080650D01*
X13259753Y-12890174D02*
X13278801Y-12880650D01*
X13278801Y-12880650D02*
X13316896Y-12880650D01*
X13316896Y-12880650D02*
X13335943Y-12890174D01*
X13335943Y-12890174D02*
X13345467Y-12899698D01*
X13345467Y-12899698D02*
X13354991Y-12918746D01*
X13354991Y-12918746D02*
X13354991Y-12975888D01*
X13354991Y-12975888D02*
X13345467Y-12994936D01*
X13345467Y-12994936D02*
X13335943Y-13004460D01*
X13335943Y-13004460D02*
X13316896Y-13013984D01*
X13316896Y-13013984D02*
X13278801Y-13013984D01*
X13278801Y-13013984D02*
X13259753Y-13004460D01*
X13440705Y-12994936D02*
X13450229Y-13004460D01*
X13450229Y-13004460D02*
X13440705Y-13013984D01*
X13440705Y-13013984D02*
X13431182Y-13004460D01*
X13431182Y-13004460D02*
X13440705Y-12994936D01*
X13440705Y-12994936D02*
X13440705Y-13013984D01*
X13440705Y-12890174D02*
X13450229Y-12899698D01*
X13450229Y-12899698D02*
X13440705Y-12909222D01*
X13440705Y-12909222D02*
X13431182Y-12899698D01*
X13431182Y-12899698D02*
X13440705Y-12890174D01*
X13440705Y-12890174D02*
X13440705Y-12909222D01*
D12*
X11778500Y-13327500D02*
X11808500Y-13357500D01*
X11808500Y-13327500D02*
X11778500Y-13357500D01*
D11*
X12107372Y-13233984D02*
X12126420Y-13233984D01*
X12126420Y-13233984D02*
X12145467Y-13243508D01*
X12145467Y-13243508D02*
X12154991Y-13253031D01*
X12154991Y-13253031D02*
X12164515Y-13272079D01*
X12164515Y-13272079D02*
X12174039Y-13310174D01*
X12174039Y-13310174D02*
X12174039Y-13357793D01*
X12174039Y-13357793D02*
X12164515Y-13395888D01*
X12164515Y-13395888D02*
X12154991Y-13414936D01*
X12154991Y-13414936D02*
X12145467Y-13424460D01*
X12145467Y-13424460D02*
X12126420Y-13433984D01*
X12126420Y-13433984D02*
X12107372Y-13433984D01*
X12107372Y-13433984D02*
X12088324Y-13424460D01*
X12088324Y-13424460D02*
X12078801Y-13414936D01*
X12078801Y-13414936D02*
X12069277Y-13395888D01*
X12069277Y-13395888D02*
X12059753Y-13357793D01*
X12059753Y-13357793D02*
X12059753Y-13310174D01*
X12059753Y-13310174D02*
X12069277Y-13272079D01*
X12069277Y-13272079D02*
X12078801Y-13253031D01*
X12078801Y-13253031D02*
X12088324Y-13243508D01*
X12088324Y-13243508D02*
X12107372Y-13233984D01*
X12259753Y-13414936D02*
X12269277Y-13424460D01*
X12269277Y-13424460D02*
X12259753Y-13433984D01*
X12259753Y-13433984D02*
X12250229Y-13424460D01*
X12250229Y-13424460D02*
X12259753Y-13414936D01*
X12259753Y-13414936D02*
X12259753Y-13433984D01*
X12335943Y-13233984D02*
X12459753Y-13233984D01*
X12459753Y-13233984D02*
X12393086Y-13310174D01*
X12393086Y-13310174D02*
X12421658Y-13310174D01*
X12421658Y-13310174D02*
X12440705Y-13319698D01*
X12440705Y-13319698D02*
X12450229Y-13329222D01*
X12450229Y-13329222D02*
X12459753Y-13348269D01*
X12459753Y-13348269D02*
X12459753Y-13395888D01*
X12459753Y-13395888D02*
X12450229Y-13414936D01*
X12450229Y-13414936D02*
X12440705Y-13424460D01*
X12440705Y-13424460D02*
X12421658Y-13433984D01*
X12421658Y-13433984D02*
X12364515Y-13433984D01*
X12364515Y-13433984D02*
X12345467Y-13424460D01*
X12345467Y-13424460D02*
X12335943Y-13414936D01*
X12583562Y-13233984D02*
X12602610Y-13233984D01*
X12602610Y-13233984D02*
X12621658Y-13243508D01*
X12621658Y-13243508D02*
X12631182Y-13253031D01*
X12631182Y-13253031D02*
X12640705Y-13272079D01*
X12640705Y-13272079D02*
X12650229Y-13310174D01*
X12650229Y-13310174D02*
X12650229Y-13357793D01*
X12650229Y-13357793D02*
X12640705Y-13395888D01*
X12640705Y-13395888D02*
X12631182Y-13414936D01*
X12631182Y-13414936D02*
X12621658Y-13424460D01*
X12621658Y-13424460D02*
X12602610Y-13433984D01*
X12602610Y-13433984D02*
X12583562Y-13433984D01*
X12583562Y-13433984D02*
X12564515Y-13424460D01*
X12564515Y-13424460D02*
X12554991Y-13414936D01*
X12554991Y-13414936D02*
X12545467Y-13395888D01*
X12545467Y-13395888D02*
X12535943Y-13357793D01*
X12535943Y-13357793D02*
X12535943Y-13310174D01*
X12535943Y-13310174D02*
X12545467Y-13272079D01*
X12545467Y-13272079D02*
X12554991Y-13253031D01*
X12554991Y-13253031D02*
X12564515Y-13243508D01*
X12564515Y-13243508D02*
X12583562Y-13233984D01*
X12774039Y-13233984D02*
X12793086Y-13233984D01*
X12793086Y-13233984D02*
X12812134Y-13243508D01*
X12812134Y-13243508D02*
X12821658Y-13253031D01*
X12821658Y-13253031D02*
X12831182Y-13272079D01*
X12831182Y-13272079D02*
X12840705Y-13310174D01*
X12840705Y-13310174D02*
X12840705Y-13357793D01*
X12840705Y-13357793D02*
X12831182Y-13395888D01*
X12831182Y-13395888D02*
X12821658Y-13414936D01*
X12821658Y-13414936D02*
X12812134Y-13424460D01*
X12812134Y-13424460D02*
X12793086Y-13433984D01*
X12793086Y-13433984D02*
X12774039Y-13433984D01*
X12774039Y-13433984D02*
X12754991Y-13424460D01*
X12754991Y-13424460D02*
X12745467Y-13414936D01*
X12745467Y-13414936D02*
X12735943Y-13395888D01*
X12735943Y-13395888D02*
X12726420Y-13357793D01*
X12726420Y-13357793D02*
X12726420Y-13310174D01*
X12726420Y-13310174D02*
X12735943Y-13272079D01*
X12735943Y-13272079D02*
X12745467Y-13253031D01*
X12745467Y-13253031D02*
X12754991Y-13243508D01*
X12754991Y-13243508D02*
X12774039Y-13233984D01*
X12926420Y-13433984D02*
X12926420Y-13300650D01*
X12926420Y-13319698D02*
X12935943Y-13310174D01*
X12935943Y-13310174D02*
X12954991Y-13300650D01*
X12954991Y-13300650D02*
X12983563Y-13300650D01*
X12983563Y-13300650D02*
X13002610Y-13310174D01*
X13002610Y-13310174D02*
X13012134Y-13329222D01*
X13012134Y-13329222D02*
X13012134Y-13433984D01*
X13012134Y-13329222D02*
X13021658Y-13310174D01*
X13021658Y-13310174D02*
X13040705Y-13300650D01*
X13040705Y-13300650D02*
X13069277Y-13300650D01*
X13069277Y-13300650D02*
X13088324Y-13310174D01*
X13088324Y-13310174D02*
X13097848Y-13329222D01*
X13097848Y-13329222D02*
X13097848Y-13433984D01*
X13193086Y-13433984D02*
X13193086Y-13300650D01*
X13193086Y-13319698D02*
X13202610Y-13310174D01*
X13202610Y-13310174D02*
X13221658Y-13300650D01*
X13221658Y-13300650D02*
X13250229Y-13300650D01*
X13250229Y-13300650D02*
X13269277Y-13310174D01*
X13269277Y-13310174D02*
X13278801Y-13329222D01*
X13278801Y-13329222D02*
X13278801Y-13433984D01*
X13278801Y-13329222D02*
X13288324Y-13310174D01*
X13288324Y-13310174D02*
X13307372Y-13300650D01*
X13307372Y-13300650D02*
X13335943Y-13300650D01*
X13335943Y-13300650D02*
X13354991Y-13310174D01*
X13354991Y-13310174D02*
X13364515Y-13329222D01*
X13364515Y-13329222D02*
X13364515Y-13433984D01*
X13754991Y-13224460D02*
X13583563Y-13481603D01*
X14012134Y-13233984D02*
X14031182Y-13233984D01*
X14031182Y-13233984D02*
X14050229Y-13243508D01*
X14050229Y-13243508D02*
X14059753Y-13253031D01*
X14059753Y-13253031D02*
X14069277Y-13272079D01*
X14069277Y-13272079D02*
X14078801Y-13310174D01*
X14078801Y-13310174D02*
X14078801Y-13357793D01*
X14078801Y-13357793D02*
X14069277Y-13395888D01*
X14069277Y-13395888D02*
X14059753Y-13414936D01*
X14059753Y-13414936D02*
X14050229Y-13424460D01*
X14050229Y-13424460D02*
X14031182Y-13433984D01*
X14031182Y-13433984D02*
X14012134Y-13433984D01*
X14012134Y-13433984D02*
X13993086Y-13424460D01*
X13993086Y-13424460D02*
X13983563Y-13414936D01*
X13983563Y-13414936D02*
X13974039Y-13395888D01*
X13974039Y-13395888D02*
X13964515Y-13357793D01*
X13964515Y-13357793D02*
X13964515Y-13310174D01*
X13964515Y-13310174D02*
X13974039Y-13272079D01*
X13974039Y-13272079D02*
X13983563Y-13253031D01*
X13983563Y-13253031D02*
X13993086Y-13243508D01*
X13993086Y-13243508D02*
X14012134Y-13233984D01*
X14164515Y-13414936D02*
X14174039Y-13424460D01*
X14174039Y-13424460D02*
X14164515Y-13433984D01*
X14164515Y-13433984D02*
X14154991Y-13424460D01*
X14154991Y-13424460D02*
X14164515Y-13414936D01*
X14164515Y-13414936D02*
X14164515Y-13433984D01*
X14297848Y-13233984D02*
X14316896Y-13233984D01*
X14316896Y-13233984D02*
X14335944Y-13243508D01*
X14335944Y-13243508D02*
X14345467Y-13253031D01*
X14345467Y-13253031D02*
X14354991Y-13272079D01*
X14354991Y-13272079D02*
X14364515Y-13310174D01*
X14364515Y-13310174D02*
X14364515Y-13357793D01*
X14364515Y-13357793D02*
X14354991Y-13395888D01*
X14354991Y-13395888D02*
X14345467Y-13414936D01*
X14345467Y-13414936D02*
X14335944Y-13424460D01*
X14335944Y-13424460D02*
X14316896Y-13433984D01*
X14316896Y-13433984D02*
X14297848Y-13433984D01*
X14297848Y-13433984D02*
X14278801Y-13424460D01*
X14278801Y-13424460D02*
X14269277Y-13414936D01*
X14269277Y-13414936D02*
X14259753Y-13395888D01*
X14259753Y-13395888D02*
X14250229Y-13357793D01*
X14250229Y-13357793D02*
X14250229Y-13310174D01*
X14250229Y-13310174D02*
X14259753Y-13272079D01*
X14259753Y-13272079D02*
X14269277Y-13253031D01*
X14269277Y-13253031D02*
X14278801Y-13243508D01*
X14278801Y-13243508D02*
X14297848Y-13233984D01*
X14554991Y-13433984D02*
X14440706Y-13433984D01*
X14497848Y-13433984D02*
X14497848Y-13233984D01*
X14497848Y-13233984D02*
X14478801Y-13262555D01*
X14478801Y-13262555D02*
X14459753Y-13281603D01*
X14459753Y-13281603D02*
X14440706Y-13291127D01*
X14745467Y-13433984D02*
X14631182Y-13433984D01*
X14688325Y-13433984D02*
X14688325Y-13233984D01*
X14688325Y-13233984D02*
X14669277Y-13262555D01*
X14669277Y-13262555D02*
X14650229Y-13281603D01*
X14650229Y-13281603D02*
X14631182Y-13291127D01*
X14859753Y-13319698D02*
X14840706Y-13310174D01*
X14840706Y-13310174D02*
X14831182Y-13300650D01*
X14831182Y-13300650D02*
X14821658Y-13281603D01*
X14821658Y-13281603D02*
X14821658Y-13272079D01*
X14821658Y-13272079D02*
X14831182Y-13253031D01*
X14831182Y-13253031D02*
X14840706Y-13243508D01*
X14840706Y-13243508D02*
X14859753Y-13233984D01*
X14859753Y-13233984D02*
X14897848Y-13233984D01*
X14897848Y-13233984D02*
X14916896Y-13243508D01*
X14916896Y-13243508D02*
X14926420Y-13253031D01*
X14926420Y-13253031D02*
X14935944Y-13272079D01*
X14935944Y-13272079D02*
X14935944Y-13281603D01*
X14935944Y-13281603D02*
X14926420Y-13300650D01*
X14926420Y-13300650D02*
X14916896Y-13310174D01*
X14916896Y-13310174D02*
X14897848Y-13319698D01*
X14897848Y-13319698D02*
X14859753Y-13319698D01*
X14859753Y-13319698D02*
X14840706Y-13329222D01*
X14840706Y-13329222D02*
X14831182Y-13338746D01*
X14831182Y-13338746D02*
X14821658Y-13357793D01*
X14821658Y-13357793D02*
X14821658Y-13395888D01*
X14821658Y-13395888D02*
X14831182Y-13414936D01*
X14831182Y-13414936D02*
X14840706Y-13424460D01*
X14840706Y-13424460D02*
X14859753Y-13433984D01*
X14859753Y-13433984D02*
X14897848Y-13433984D01*
X14897848Y-13433984D02*
X14916896Y-13424460D01*
X14916896Y-13424460D02*
X14926420Y-13414936D01*
X14926420Y-13414936D02*
X14935944Y-13395888D01*
X14935944Y-13395888D02*
X14935944Y-13357793D01*
X14935944Y-13357793D02*
X14926420Y-13338746D01*
X14926420Y-13338746D02*
X14916896Y-13329222D01*
X14916896Y-13329222D02*
X14897848Y-13319698D01*
X15012134Y-13233984D02*
X15012134Y-13272079D01*
X15088325Y-13233984D02*
X15088325Y-13272079D01*
X15383563Y-13510174D02*
X15374039Y-13500650D01*
X15374039Y-13500650D02*
X15354991Y-13472079D01*
X15354991Y-13472079D02*
X15345468Y-13453031D01*
X15345468Y-13453031D02*
X15335944Y-13424460D01*
X15335944Y-13424460D02*
X15326420Y-13376841D01*
X15326420Y-13376841D02*
X15326420Y-13338746D01*
X15326420Y-13338746D02*
X15335944Y-13291127D01*
X15335944Y-13291127D02*
X15345468Y-13262555D01*
X15345468Y-13262555D02*
X15354991Y-13243508D01*
X15354991Y-13243508D02*
X15374039Y-13214936D01*
X15374039Y-13214936D02*
X15383563Y-13205412D01*
X15545468Y-13300650D02*
X15545468Y-13433984D01*
X15497848Y-13224460D02*
X15450229Y-13367317D01*
X15450229Y-13367317D02*
X15574039Y-13367317D01*
X15631182Y-13233984D02*
X15764515Y-13233984D01*
X15764515Y-13233984D02*
X15678801Y-13433984D01*
X15993087Y-13433984D02*
X15993087Y-13233984D01*
X16078801Y-13433984D02*
X16078801Y-13329222D01*
X16078801Y-13329222D02*
X16069277Y-13310174D01*
X16069277Y-13310174D02*
X16050230Y-13300650D01*
X16050230Y-13300650D02*
X16021658Y-13300650D01*
X16021658Y-13300650D02*
X16002610Y-13310174D01*
X16002610Y-13310174D02*
X15993087Y-13319698D01*
X16202610Y-13433984D02*
X16183563Y-13424460D01*
X16183563Y-13424460D02*
X16174039Y-13414936D01*
X16174039Y-13414936D02*
X16164515Y-13395888D01*
X16164515Y-13395888D02*
X16164515Y-13338746D01*
X16164515Y-13338746D02*
X16174039Y-13319698D01*
X16174039Y-13319698D02*
X16183563Y-13310174D01*
X16183563Y-13310174D02*
X16202610Y-13300650D01*
X16202610Y-13300650D02*
X16231182Y-13300650D01*
X16231182Y-13300650D02*
X16250230Y-13310174D01*
X16250230Y-13310174D02*
X16259753Y-13319698D01*
X16259753Y-13319698D02*
X16269277Y-13338746D01*
X16269277Y-13338746D02*
X16269277Y-13395888D01*
X16269277Y-13395888D02*
X16259753Y-13414936D01*
X16259753Y-13414936D02*
X16250230Y-13424460D01*
X16250230Y-13424460D02*
X16231182Y-13433984D01*
X16231182Y-13433984D02*
X16202610Y-13433984D01*
X16383563Y-13433984D02*
X16364515Y-13424460D01*
X16364515Y-13424460D02*
X16354991Y-13405412D01*
X16354991Y-13405412D02*
X16354991Y-13233984D01*
X16535944Y-13424460D02*
X16516896Y-13433984D01*
X16516896Y-13433984D02*
X16478801Y-13433984D01*
X16478801Y-13433984D02*
X16459753Y-13424460D01*
X16459753Y-13424460D02*
X16450230Y-13405412D01*
X16450230Y-13405412D02*
X16450230Y-13329222D01*
X16450230Y-13329222D02*
X16459753Y-13310174D01*
X16459753Y-13310174D02*
X16478801Y-13300650D01*
X16478801Y-13300650D02*
X16516896Y-13300650D01*
X16516896Y-13300650D02*
X16535944Y-13310174D01*
X16535944Y-13310174D02*
X16545468Y-13329222D01*
X16545468Y-13329222D02*
X16545468Y-13348269D01*
X16545468Y-13348269D02*
X16450230Y-13367317D01*
X16621658Y-13424460D02*
X16640706Y-13433984D01*
X16640706Y-13433984D02*
X16678801Y-13433984D01*
X16678801Y-13433984D02*
X16697849Y-13424460D01*
X16697849Y-13424460D02*
X16707372Y-13405412D01*
X16707372Y-13405412D02*
X16707372Y-13395888D01*
X16707372Y-13395888D02*
X16697849Y-13376841D01*
X16697849Y-13376841D02*
X16678801Y-13367317D01*
X16678801Y-13367317D02*
X16650230Y-13367317D01*
X16650230Y-13367317D02*
X16631182Y-13357793D01*
X16631182Y-13357793D02*
X16621658Y-13338746D01*
X16621658Y-13338746D02*
X16621658Y-13329222D01*
X16621658Y-13329222D02*
X16631182Y-13310174D01*
X16631182Y-13310174D02*
X16650230Y-13300650D01*
X16650230Y-13300650D02*
X16678801Y-13300650D01*
X16678801Y-13300650D02*
X16697849Y-13310174D01*
X16774039Y-13510174D02*
X16783563Y-13500650D01*
X16783563Y-13500650D02*
X16802611Y-13472079D01*
X16802611Y-13472079D02*
X16812134Y-13453031D01*
X16812134Y-13453031D02*
X16821658Y-13424460D01*
X16821658Y-13424460D02*
X16831182Y-13376841D01*
X16831182Y-13376841D02*
X16831182Y-13338746D01*
X16831182Y-13338746D02*
X16821658Y-13291127D01*
X16821658Y-13291127D02*
X16812134Y-13262555D01*
X16812134Y-13262555D02*
X16802611Y-13243508D01*
X16802611Y-13243508D02*
X16783563Y-13214936D01*
X16783563Y-13214936D02*
X16774039Y-13205412D01*
D12*
X11808500Y-13606500D02*
G75*
G02*
X11708500Y-13606500I-50000J0D01*
G01*
X11708500Y-13606500D02*
G75*
G02*
X11808500Y-13606500I50000J0D01*
G01*
D11*
X12174039Y-13697984D02*
X12059753Y-13697984D01*
X12116896Y-13697984D02*
X12116896Y-13497984D01*
X12116896Y-13497984D02*
X12097848Y-13526555D01*
X12097848Y-13526555D02*
X12078801Y-13545603D01*
X12078801Y-13545603D02*
X12059753Y-13555127D01*
X12259753Y-13678936D02*
X12269277Y-13688460D01*
X12269277Y-13688460D02*
X12259753Y-13697984D01*
X12259753Y-13697984D02*
X12250229Y-13688460D01*
X12250229Y-13688460D02*
X12259753Y-13678936D01*
X12259753Y-13678936D02*
X12259753Y-13697984D01*
X12393086Y-13497984D02*
X12412134Y-13497984D01*
X12412134Y-13497984D02*
X12431182Y-13507508D01*
X12431182Y-13507508D02*
X12440705Y-13517031D01*
X12440705Y-13517031D02*
X12450229Y-13536079D01*
X12450229Y-13536079D02*
X12459753Y-13574174D01*
X12459753Y-13574174D02*
X12459753Y-13621793D01*
X12459753Y-13621793D02*
X12450229Y-13659888D01*
X12450229Y-13659888D02*
X12440705Y-13678936D01*
X12440705Y-13678936D02*
X12431182Y-13688460D01*
X12431182Y-13688460D02*
X12412134Y-13697984D01*
X12412134Y-13697984D02*
X12393086Y-13697984D01*
X12393086Y-13697984D02*
X12374039Y-13688460D01*
X12374039Y-13688460D02*
X12364515Y-13678936D01*
X12364515Y-13678936D02*
X12354991Y-13659888D01*
X12354991Y-13659888D02*
X12345467Y-13621793D01*
X12345467Y-13621793D02*
X12345467Y-13574174D01*
X12345467Y-13574174D02*
X12354991Y-13536079D01*
X12354991Y-13536079D02*
X12364515Y-13517031D01*
X12364515Y-13517031D02*
X12374039Y-13507508D01*
X12374039Y-13507508D02*
X12393086Y-13497984D01*
X12583562Y-13497984D02*
X12602610Y-13497984D01*
X12602610Y-13497984D02*
X12621658Y-13507508D01*
X12621658Y-13507508D02*
X12631182Y-13517031D01*
X12631182Y-13517031D02*
X12640705Y-13536079D01*
X12640705Y-13536079D02*
X12650229Y-13574174D01*
X12650229Y-13574174D02*
X12650229Y-13621793D01*
X12650229Y-13621793D02*
X12640705Y-13659888D01*
X12640705Y-13659888D02*
X12631182Y-13678936D01*
X12631182Y-13678936D02*
X12621658Y-13688460D01*
X12621658Y-13688460D02*
X12602610Y-13697984D01*
X12602610Y-13697984D02*
X12583562Y-13697984D01*
X12583562Y-13697984D02*
X12564515Y-13688460D01*
X12564515Y-13688460D02*
X12554991Y-13678936D01*
X12554991Y-13678936D02*
X12545467Y-13659888D01*
X12545467Y-13659888D02*
X12535943Y-13621793D01*
X12535943Y-13621793D02*
X12535943Y-13574174D01*
X12535943Y-13574174D02*
X12545467Y-13536079D01*
X12545467Y-13536079D02*
X12554991Y-13517031D01*
X12554991Y-13517031D02*
X12564515Y-13507508D01*
X12564515Y-13507508D02*
X12583562Y-13497984D01*
X12774039Y-13497984D02*
X12793086Y-13497984D01*
X12793086Y-13497984D02*
X12812134Y-13507508D01*
X12812134Y-13507508D02*
X12821658Y-13517031D01*
X12821658Y-13517031D02*
X12831182Y-13536079D01*
X12831182Y-13536079D02*
X12840705Y-13574174D01*
X12840705Y-13574174D02*
X12840705Y-13621793D01*
X12840705Y-13621793D02*
X12831182Y-13659888D01*
X12831182Y-13659888D02*
X12821658Y-13678936D01*
X12821658Y-13678936D02*
X12812134Y-13688460D01*
X12812134Y-13688460D02*
X12793086Y-13697984D01*
X12793086Y-13697984D02*
X12774039Y-13697984D01*
X12774039Y-13697984D02*
X12754991Y-13688460D01*
X12754991Y-13688460D02*
X12745467Y-13678936D01*
X12745467Y-13678936D02*
X12735943Y-13659888D01*
X12735943Y-13659888D02*
X12726420Y-13621793D01*
X12726420Y-13621793D02*
X12726420Y-13574174D01*
X12726420Y-13574174D02*
X12735943Y-13536079D01*
X12735943Y-13536079D02*
X12745467Y-13517031D01*
X12745467Y-13517031D02*
X12754991Y-13507508D01*
X12754991Y-13507508D02*
X12774039Y-13497984D01*
X12926420Y-13697984D02*
X12926420Y-13564650D01*
X12926420Y-13583698D02*
X12935943Y-13574174D01*
X12935943Y-13574174D02*
X12954991Y-13564650D01*
X12954991Y-13564650D02*
X12983563Y-13564650D01*
X12983563Y-13564650D02*
X13002610Y-13574174D01*
X13002610Y-13574174D02*
X13012134Y-13593222D01*
X13012134Y-13593222D02*
X13012134Y-13697984D01*
X13012134Y-13593222D02*
X13021658Y-13574174D01*
X13021658Y-13574174D02*
X13040705Y-13564650D01*
X13040705Y-13564650D02*
X13069277Y-13564650D01*
X13069277Y-13564650D02*
X13088324Y-13574174D01*
X13088324Y-13574174D02*
X13097848Y-13593222D01*
X13097848Y-13593222D02*
X13097848Y-13697984D01*
X13193086Y-13697984D02*
X13193086Y-13564650D01*
X13193086Y-13583698D02*
X13202610Y-13574174D01*
X13202610Y-13574174D02*
X13221658Y-13564650D01*
X13221658Y-13564650D02*
X13250229Y-13564650D01*
X13250229Y-13564650D02*
X13269277Y-13574174D01*
X13269277Y-13574174D02*
X13278801Y-13593222D01*
X13278801Y-13593222D02*
X13278801Y-13697984D01*
X13278801Y-13593222D02*
X13288324Y-13574174D01*
X13288324Y-13574174D02*
X13307372Y-13564650D01*
X13307372Y-13564650D02*
X13335943Y-13564650D01*
X13335943Y-13564650D02*
X13354991Y-13574174D01*
X13354991Y-13574174D02*
X13364515Y-13593222D01*
X13364515Y-13593222D02*
X13364515Y-13697984D01*
X13754991Y-13488460D02*
X13583563Y-13745603D01*
X14012134Y-13497984D02*
X14031182Y-13497984D01*
X14031182Y-13497984D02*
X14050229Y-13507508D01*
X14050229Y-13507508D02*
X14059753Y-13517031D01*
X14059753Y-13517031D02*
X14069277Y-13536079D01*
X14069277Y-13536079D02*
X14078801Y-13574174D01*
X14078801Y-13574174D02*
X14078801Y-13621793D01*
X14078801Y-13621793D02*
X14069277Y-13659888D01*
X14069277Y-13659888D02*
X14059753Y-13678936D01*
X14059753Y-13678936D02*
X14050229Y-13688460D01*
X14050229Y-13688460D02*
X14031182Y-13697984D01*
X14031182Y-13697984D02*
X14012134Y-13697984D01*
X14012134Y-13697984D02*
X13993086Y-13688460D01*
X13993086Y-13688460D02*
X13983563Y-13678936D01*
X13983563Y-13678936D02*
X13974039Y-13659888D01*
X13974039Y-13659888D02*
X13964515Y-13621793D01*
X13964515Y-13621793D02*
X13964515Y-13574174D01*
X13964515Y-13574174D02*
X13974039Y-13536079D01*
X13974039Y-13536079D02*
X13983563Y-13517031D01*
X13983563Y-13517031D02*
X13993086Y-13507508D01*
X13993086Y-13507508D02*
X14012134Y-13497984D01*
X14164515Y-13678936D02*
X14174039Y-13688460D01*
X14174039Y-13688460D02*
X14164515Y-13697984D01*
X14164515Y-13697984D02*
X14154991Y-13688460D01*
X14154991Y-13688460D02*
X14164515Y-13678936D01*
X14164515Y-13678936D02*
X14164515Y-13697984D01*
X14297848Y-13497984D02*
X14316896Y-13497984D01*
X14316896Y-13497984D02*
X14335944Y-13507508D01*
X14335944Y-13507508D02*
X14345467Y-13517031D01*
X14345467Y-13517031D02*
X14354991Y-13536079D01*
X14354991Y-13536079D02*
X14364515Y-13574174D01*
X14364515Y-13574174D02*
X14364515Y-13621793D01*
X14364515Y-13621793D02*
X14354991Y-13659888D01*
X14354991Y-13659888D02*
X14345467Y-13678936D01*
X14345467Y-13678936D02*
X14335944Y-13688460D01*
X14335944Y-13688460D02*
X14316896Y-13697984D01*
X14316896Y-13697984D02*
X14297848Y-13697984D01*
X14297848Y-13697984D02*
X14278801Y-13688460D01*
X14278801Y-13688460D02*
X14269277Y-13678936D01*
X14269277Y-13678936D02*
X14259753Y-13659888D01*
X14259753Y-13659888D02*
X14250229Y-13621793D01*
X14250229Y-13621793D02*
X14250229Y-13574174D01*
X14250229Y-13574174D02*
X14259753Y-13536079D01*
X14259753Y-13536079D02*
X14269277Y-13517031D01*
X14269277Y-13517031D02*
X14278801Y-13507508D01*
X14278801Y-13507508D02*
X14297848Y-13497984D01*
X14431182Y-13497984D02*
X14554991Y-13497984D01*
X14554991Y-13497984D02*
X14488325Y-13574174D01*
X14488325Y-13574174D02*
X14516896Y-13574174D01*
X14516896Y-13574174D02*
X14535944Y-13583698D01*
X14535944Y-13583698D02*
X14545467Y-13593222D01*
X14545467Y-13593222D02*
X14554991Y-13612269D01*
X14554991Y-13612269D02*
X14554991Y-13659888D01*
X14554991Y-13659888D02*
X14545467Y-13678936D01*
X14545467Y-13678936D02*
X14535944Y-13688460D01*
X14535944Y-13688460D02*
X14516896Y-13697984D01*
X14516896Y-13697984D02*
X14459753Y-13697984D01*
X14459753Y-13697984D02*
X14440706Y-13688460D01*
X14440706Y-13688460D02*
X14431182Y-13678936D01*
X14650229Y-13697984D02*
X14688325Y-13697984D01*
X14688325Y-13697984D02*
X14707372Y-13688460D01*
X14707372Y-13688460D02*
X14716896Y-13678936D01*
X14716896Y-13678936D02*
X14735944Y-13650365D01*
X14735944Y-13650365D02*
X14745467Y-13612269D01*
X14745467Y-13612269D02*
X14745467Y-13536079D01*
X14745467Y-13536079D02*
X14735944Y-13517031D01*
X14735944Y-13517031D02*
X14726420Y-13507508D01*
X14726420Y-13507508D02*
X14707372Y-13497984D01*
X14707372Y-13497984D02*
X14669277Y-13497984D01*
X14669277Y-13497984D02*
X14650229Y-13507508D01*
X14650229Y-13507508D02*
X14640706Y-13517031D01*
X14640706Y-13517031D02*
X14631182Y-13536079D01*
X14631182Y-13536079D02*
X14631182Y-13583698D01*
X14631182Y-13583698D02*
X14640706Y-13602746D01*
X14640706Y-13602746D02*
X14650229Y-13612269D01*
X14650229Y-13612269D02*
X14669277Y-13621793D01*
X14669277Y-13621793D02*
X14707372Y-13621793D01*
X14707372Y-13621793D02*
X14726420Y-13612269D01*
X14726420Y-13612269D02*
X14735944Y-13602746D01*
X14735944Y-13602746D02*
X14745467Y-13583698D01*
X14916896Y-13564650D02*
X14916896Y-13697984D01*
X14869277Y-13488460D02*
X14821658Y-13631317D01*
X14821658Y-13631317D02*
X14945467Y-13631317D01*
X15012134Y-13497984D02*
X15012134Y-13536079D01*
X15088325Y-13497984D02*
X15088325Y-13536079D01*
X15383563Y-13774174D02*
X15374039Y-13764650D01*
X15374039Y-13764650D02*
X15354991Y-13736079D01*
X15354991Y-13736079D02*
X15345468Y-13717031D01*
X15345468Y-13717031D02*
X15335944Y-13688460D01*
X15335944Y-13688460D02*
X15326420Y-13640841D01*
X15326420Y-13640841D02*
X15326420Y-13602746D01*
X15326420Y-13602746D02*
X15335944Y-13555127D01*
X15335944Y-13555127D02*
X15345468Y-13526555D01*
X15345468Y-13526555D02*
X15354991Y-13507508D01*
X15354991Y-13507508D02*
X15374039Y-13478936D01*
X15374039Y-13478936D02*
X15383563Y-13469412D01*
X15545468Y-13497984D02*
X15507372Y-13497984D01*
X15507372Y-13497984D02*
X15488325Y-13507508D01*
X15488325Y-13507508D02*
X15478801Y-13517031D01*
X15478801Y-13517031D02*
X15459753Y-13545603D01*
X15459753Y-13545603D02*
X15450229Y-13583698D01*
X15450229Y-13583698D02*
X15450229Y-13659888D01*
X15450229Y-13659888D02*
X15459753Y-13678936D01*
X15459753Y-13678936D02*
X15469277Y-13688460D01*
X15469277Y-13688460D02*
X15488325Y-13697984D01*
X15488325Y-13697984D02*
X15526420Y-13697984D01*
X15526420Y-13697984D02*
X15545468Y-13688460D01*
X15545468Y-13688460D02*
X15554991Y-13678936D01*
X15554991Y-13678936D02*
X15564515Y-13659888D01*
X15564515Y-13659888D02*
X15564515Y-13612269D01*
X15564515Y-13612269D02*
X15554991Y-13593222D01*
X15554991Y-13593222D02*
X15545468Y-13583698D01*
X15545468Y-13583698D02*
X15526420Y-13574174D01*
X15526420Y-13574174D02*
X15488325Y-13574174D01*
X15488325Y-13574174D02*
X15469277Y-13583698D01*
X15469277Y-13583698D02*
X15459753Y-13593222D01*
X15459753Y-13593222D02*
X15450229Y-13612269D01*
X15802610Y-13697984D02*
X15802610Y-13497984D01*
X15888325Y-13697984D02*
X15888325Y-13593222D01*
X15888325Y-13593222D02*
X15878801Y-13574174D01*
X15878801Y-13574174D02*
X15859753Y-13564650D01*
X15859753Y-13564650D02*
X15831182Y-13564650D01*
X15831182Y-13564650D02*
X15812134Y-13574174D01*
X15812134Y-13574174D02*
X15802610Y-13583698D01*
X16012134Y-13697984D02*
X15993087Y-13688460D01*
X15993087Y-13688460D02*
X15983563Y-13678936D01*
X15983563Y-13678936D02*
X15974039Y-13659888D01*
X15974039Y-13659888D02*
X15974039Y-13602746D01*
X15974039Y-13602746D02*
X15983563Y-13583698D01*
X15983563Y-13583698D02*
X15993087Y-13574174D01*
X15993087Y-13574174D02*
X16012134Y-13564650D01*
X16012134Y-13564650D02*
X16040706Y-13564650D01*
X16040706Y-13564650D02*
X16059753Y-13574174D01*
X16059753Y-13574174D02*
X16069277Y-13583698D01*
X16069277Y-13583698D02*
X16078801Y-13602746D01*
X16078801Y-13602746D02*
X16078801Y-13659888D01*
X16078801Y-13659888D02*
X16069277Y-13678936D01*
X16069277Y-13678936D02*
X16059753Y-13688460D01*
X16059753Y-13688460D02*
X16040706Y-13697984D01*
X16040706Y-13697984D02*
X16012134Y-13697984D01*
X16193087Y-13697984D02*
X16174039Y-13688460D01*
X16174039Y-13688460D02*
X16164515Y-13669412D01*
X16164515Y-13669412D02*
X16164515Y-13497984D01*
X16345468Y-13688460D02*
X16326420Y-13697984D01*
X16326420Y-13697984D02*
X16288325Y-13697984D01*
X16288325Y-13697984D02*
X16269277Y-13688460D01*
X16269277Y-13688460D02*
X16259753Y-13669412D01*
X16259753Y-13669412D02*
X16259753Y-13593222D01*
X16259753Y-13593222D02*
X16269277Y-13574174D01*
X16269277Y-13574174D02*
X16288325Y-13564650D01*
X16288325Y-13564650D02*
X16326420Y-13564650D01*
X16326420Y-13564650D02*
X16345468Y-13574174D01*
X16345468Y-13574174D02*
X16354991Y-13593222D01*
X16354991Y-13593222D02*
X16354991Y-13612269D01*
X16354991Y-13612269D02*
X16259753Y-13631317D01*
X16431182Y-13688460D02*
X16450230Y-13697984D01*
X16450230Y-13697984D02*
X16488325Y-13697984D01*
X16488325Y-13697984D02*
X16507372Y-13688460D01*
X16507372Y-13688460D02*
X16516896Y-13669412D01*
X16516896Y-13669412D02*
X16516896Y-13659888D01*
X16516896Y-13659888D02*
X16507372Y-13640841D01*
X16507372Y-13640841D02*
X16488325Y-13631317D01*
X16488325Y-13631317D02*
X16459753Y-13631317D01*
X16459753Y-13631317D02*
X16440706Y-13621793D01*
X16440706Y-13621793D02*
X16431182Y-13602746D01*
X16431182Y-13602746D02*
X16431182Y-13593222D01*
X16431182Y-13593222D02*
X16440706Y-13574174D01*
X16440706Y-13574174D02*
X16459753Y-13564650D01*
X16459753Y-13564650D02*
X16488325Y-13564650D01*
X16488325Y-13564650D02*
X16507372Y-13574174D01*
X16583563Y-13774174D02*
X16593087Y-13764650D01*
X16593087Y-13764650D02*
X16612134Y-13736079D01*
X16612134Y-13736079D02*
X16621658Y-13717031D01*
X16621658Y-13717031D02*
X16631182Y-13688460D01*
X16631182Y-13688460D02*
X16640706Y-13640841D01*
X16640706Y-13640841D02*
X16640706Y-13602746D01*
X16640706Y-13602746D02*
X16631182Y-13555127D01*
X16631182Y-13555127D02*
X16621658Y-13526555D01*
X16621658Y-13526555D02*
X16612134Y-13507508D01*
X16612134Y-13507508D02*
X16593087Y-13478936D01*
X16593087Y-13478936D02*
X16583563Y-13469412D01*
D13*
X11753500Y-13815500D02*
X11753500Y-13925500D01*
X11698500Y-13870500D02*
X11808500Y-13870500D01*
D11*
X12174039Y-13961984D02*
X12059753Y-13961984D01*
X12116896Y-13961984D02*
X12116896Y-13761984D01*
X12116896Y-13761984D02*
X12097848Y-13790555D01*
X12097848Y-13790555D02*
X12078801Y-13809603D01*
X12078801Y-13809603D02*
X12059753Y-13819127D01*
X12259753Y-13942936D02*
X12269277Y-13952460D01*
X12269277Y-13952460D02*
X12259753Y-13961984D01*
X12259753Y-13961984D02*
X12250229Y-13952460D01*
X12250229Y-13952460D02*
X12259753Y-13942936D01*
X12259753Y-13942936D02*
X12259753Y-13961984D01*
X12459753Y-13961984D02*
X12345467Y-13961984D01*
X12402610Y-13961984D02*
X12402610Y-13761984D01*
X12402610Y-13761984D02*
X12383562Y-13790555D01*
X12383562Y-13790555D02*
X12364515Y-13809603D01*
X12364515Y-13809603D02*
X12345467Y-13819127D01*
X12583562Y-13761984D02*
X12602610Y-13761984D01*
X12602610Y-13761984D02*
X12621658Y-13771508D01*
X12621658Y-13771508D02*
X12631182Y-13781031D01*
X12631182Y-13781031D02*
X12640705Y-13800079D01*
X12640705Y-13800079D02*
X12650229Y-13838174D01*
X12650229Y-13838174D02*
X12650229Y-13885793D01*
X12650229Y-13885793D02*
X12640705Y-13923888D01*
X12640705Y-13923888D02*
X12631182Y-13942936D01*
X12631182Y-13942936D02*
X12621658Y-13952460D01*
X12621658Y-13952460D02*
X12602610Y-13961984D01*
X12602610Y-13961984D02*
X12583562Y-13961984D01*
X12583562Y-13961984D02*
X12564515Y-13952460D01*
X12564515Y-13952460D02*
X12554991Y-13942936D01*
X12554991Y-13942936D02*
X12545467Y-13923888D01*
X12545467Y-13923888D02*
X12535943Y-13885793D01*
X12535943Y-13885793D02*
X12535943Y-13838174D01*
X12535943Y-13838174D02*
X12545467Y-13800079D01*
X12545467Y-13800079D02*
X12554991Y-13781031D01*
X12554991Y-13781031D02*
X12564515Y-13771508D01*
X12564515Y-13771508D02*
X12583562Y-13761984D01*
X12774039Y-13761984D02*
X12793086Y-13761984D01*
X12793086Y-13761984D02*
X12812134Y-13771508D01*
X12812134Y-13771508D02*
X12821658Y-13781031D01*
X12821658Y-13781031D02*
X12831182Y-13800079D01*
X12831182Y-13800079D02*
X12840705Y-13838174D01*
X12840705Y-13838174D02*
X12840705Y-13885793D01*
X12840705Y-13885793D02*
X12831182Y-13923888D01*
X12831182Y-13923888D02*
X12821658Y-13942936D01*
X12821658Y-13942936D02*
X12812134Y-13952460D01*
X12812134Y-13952460D02*
X12793086Y-13961984D01*
X12793086Y-13961984D02*
X12774039Y-13961984D01*
X12774039Y-13961984D02*
X12754991Y-13952460D01*
X12754991Y-13952460D02*
X12745467Y-13942936D01*
X12745467Y-13942936D02*
X12735943Y-13923888D01*
X12735943Y-13923888D02*
X12726420Y-13885793D01*
X12726420Y-13885793D02*
X12726420Y-13838174D01*
X12726420Y-13838174D02*
X12735943Y-13800079D01*
X12735943Y-13800079D02*
X12745467Y-13781031D01*
X12745467Y-13781031D02*
X12754991Y-13771508D01*
X12754991Y-13771508D02*
X12774039Y-13761984D01*
X12926420Y-13961984D02*
X12926420Y-13828650D01*
X12926420Y-13847698D02*
X12935943Y-13838174D01*
X12935943Y-13838174D02*
X12954991Y-13828650D01*
X12954991Y-13828650D02*
X12983563Y-13828650D01*
X12983563Y-13828650D02*
X13002610Y-13838174D01*
X13002610Y-13838174D02*
X13012134Y-13857222D01*
X13012134Y-13857222D02*
X13012134Y-13961984D01*
X13012134Y-13857222D02*
X13021658Y-13838174D01*
X13021658Y-13838174D02*
X13040705Y-13828650D01*
X13040705Y-13828650D02*
X13069277Y-13828650D01*
X13069277Y-13828650D02*
X13088324Y-13838174D01*
X13088324Y-13838174D02*
X13097848Y-13857222D01*
X13097848Y-13857222D02*
X13097848Y-13961984D01*
X13193086Y-13961984D02*
X13193086Y-13828650D01*
X13193086Y-13847698D02*
X13202610Y-13838174D01*
X13202610Y-13838174D02*
X13221658Y-13828650D01*
X13221658Y-13828650D02*
X13250229Y-13828650D01*
X13250229Y-13828650D02*
X13269277Y-13838174D01*
X13269277Y-13838174D02*
X13278801Y-13857222D01*
X13278801Y-13857222D02*
X13278801Y-13961984D01*
X13278801Y-13857222D02*
X13288324Y-13838174D01*
X13288324Y-13838174D02*
X13307372Y-13828650D01*
X13307372Y-13828650D02*
X13335943Y-13828650D01*
X13335943Y-13828650D02*
X13354991Y-13838174D01*
X13354991Y-13838174D02*
X13364515Y-13857222D01*
X13364515Y-13857222D02*
X13364515Y-13961984D01*
X13754991Y-13752460D02*
X13583563Y-14009603D01*
X14012134Y-13761984D02*
X14031182Y-13761984D01*
X14031182Y-13761984D02*
X14050229Y-13771508D01*
X14050229Y-13771508D02*
X14059753Y-13781031D01*
X14059753Y-13781031D02*
X14069277Y-13800079D01*
X14069277Y-13800079D02*
X14078801Y-13838174D01*
X14078801Y-13838174D02*
X14078801Y-13885793D01*
X14078801Y-13885793D02*
X14069277Y-13923888D01*
X14069277Y-13923888D02*
X14059753Y-13942936D01*
X14059753Y-13942936D02*
X14050229Y-13952460D01*
X14050229Y-13952460D02*
X14031182Y-13961984D01*
X14031182Y-13961984D02*
X14012134Y-13961984D01*
X14012134Y-13961984D02*
X13993086Y-13952460D01*
X13993086Y-13952460D02*
X13983563Y-13942936D01*
X13983563Y-13942936D02*
X13974039Y-13923888D01*
X13974039Y-13923888D02*
X13964515Y-13885793D01*
X13964515Y-13885793D02*
X13964515Y-13838174D01*
X13964515Y-13838174D02*
X13974039Y-13800079D01*
X13974039Y-13800079D02*
X13983563Y-13781031D01*
X13983563Y-13781031D02*
X13993086Y-13771508D01*
X13993086Y-13771508D02*
X14012134Y-13761984D01*
X14164515Y-13942936D02*
X14174039Y-13952460D01*
X14174039Y-13952460D02*
X14164515Y-13961984D01*
X14164515Y-13961984D02*
X14154991Y-13952460D01*
X14154991Y-13952460D02*
X14164515Y-13942936D01*
X14164515Y-13942936D02*
X14164515Y-13961984D01*
X14297848Y-13761984D02*
X14316896Y-13761984D01*
X14316896Y-13761984D02*
X14335944Y-13771508D01*
X14335944Y-13771508D02*
X14345467Y-13781031D01*
X14345467Y-13781031D02*
X14354991Y-13800079D01*
X14354991Y-13800079D02*
X14364515Y-13838174D01*
X14364515Y-13838174D02*
X14364515Y-13885793D01*
X14364515Y-13885793D02*
X14354991Y-13923888D01*
X14354991Y-13923888D02*
X14345467Y-13942936D01*
X14345467Y-13942936D02*
X14335944Y-13952460D01*
X14335944Y-13952460D02*
X14316896Y-13961984D01*
X14316896Y-13961984D02*
X14297848Y-13961984D01*
X14297848Y-13961984D02*
X14278801Y-13952460D01*
X14278801Y-13952460D02*
X14269277Y-13942936D01*
X14269277Y-13942936D02*
X14259753Y-13923888D01*
X14259753Y-13923888D02*
X14250229Y-13885793D01*
X14250229Y-13885793D02*
X14250229Y-13838174D01*
X14250229Y-13838174D02*
X14259753Y-13800079D01*
X14259753Y-13800079D02*
X14269277Y-13781031D01*
X14269277Y-13781031D02*
X14278801Y-13771508D01*
X14278801Y-13771508D02*
X14297848Y-13761984D01*
X14535944Y-13828650D02*
X14535944Y-13961984D01*
X14488325Y-13752460D02*
X14440706Y-13895317D01*
X14440706Y-13895317D02*
X14564515Y-13895317D01*
X14621658Y-13761984D02*
X14745467Y-13761984D01*
X14745467Y-13761984D02*
X14678801Y-13838174D01*
X14678801Y-13838174D02*
X14707372Y-13838174D01*
X14707372Y-13838174D02*
X14726420Y-13847698D01*
X14726420Y-13847698D02*
X14735944Y-13857222D01*
X14735944Y-13857222D02*
X14745467Y-13876269D01*
X14745467Y-13876269D02*
X14745467Y-13923888D01*
X14745467Y-13923888D02*
X14735944Y-13942936D01*
X14735944Y-13942936D02*
X14726420Y-13952460D01*
X14726420Y-13952460D02*
X14707372Y-13961984D01*
X14707372Y-13961984D02*
X14650229Y-13961984D01*
X14650229Y-13961984D02*
X14631182Y-13952460D01*
X14631182Y-13952460D02*
X14621658Y-13942936D01*
X14812134Y-13761984D02*
X14935944Y-13761984D01*
X14935944Y-13761984D02*
X14869277Y-13838174D01*
X14869277Y-13838174D02*
X14897848Y-13838174D01*
X14897848Y-13838174D02*
X14916896Y-13847698D01*
X14916896Y-13847698D02*
X14926420Y-13857222D01*
X14926420Y-13857222D02*
X14935944Y-13876269D01*
X14935944Y-13876269D02*
X14935944Y-13923888D01*
X14935944Y-13923888D02*
X14926420Y-13942936D01*
X14926420Y-13942936D02*
X14916896Y-13952460D01*
X14916896Y-13952460D02*
X14897848Y-13961984D01*
X14897848Y-13961984D02*
X14840706Y-13961984D01*
X14840706Y-13961984D02*
X14821658Y-13952460D01*
X14821658Y-13952460D02*
X14812134Y-13942936D01*
X15012134Y-13761984D02*
X15012134Y-13800079D01*
X15088325Y-13761984D02*
X15088325Y-13800079D01*
X15383563Y-14038174D02*
X15374039Y-14028650D01*
X15374039Y-14028650D02*
X15354991Y-14000079D01*
X15354991Y-14000079D02*
X15345468Y-13981031D01*
X15345468Y-13981031D02*
X15335944Y-13952460D01*
X15335944Y-13952460D02*
X15326420Y-13904841D01*
X15326420Y-13904841D02*
X15326420Y-13866746D01*
X15326420Y-13866746D02*
X15335944Y-13819127D01*
X15335944Y-13819127D02*
X15345468Y-13790555D01*
X15345468Y-13790555D02*
X15354991Y-13771508D01*
X15354991Y-13771508D02*
X15374039Y-13742936D01*
X15374039Y-13742936D02*
X15383563Y-13733412D01*
X15450229Y-13781031D02*
X15459753Y-13771508D01*
X15459753Y-13771508D02*
X15478801Y-13761984D01*
X15478801Y-13761984D02*
X15526420Y-13761984D01*
X15526420Y-13761984D02*
X15545468Y-13771508D01*
X15545468Y-13771508D02*
X15554991Y-13781031D01*
X15554991Y-13781031D02*
X15564515Y-13800079D01*
X15564515Y-13800079D02*
X15564515Y-13819127D01*
X15564515Y-13819127D02*
X15554991Y-13847698D01*
X15554991Y-13847698D02*
X15440706Y-13961984D01*
X15440706Y-13961984D02*
X15564515Y-13961984D01*
X15735944Y-13828650D02*
X15735944Y-13961984D01*
X15688325Y-13752460D02*
X15640706Y-13895317D01*
X15640706Y-13895317D02*
X15764515Y-13895317D01*
X15993087Y-13961984D02*
X15993087Y-13761984D01*
X16078801Y-13961984D02*
X16078801Y-13857222D01*
X16078801Y-13857222D02*
X16069277Y-13838174D01*
X16069277Y-13838174D02*
X16050230Y-13828650D01*
X16050230Y-13828650D02*
X16021658Y-13828650D01*
X16021658Y-13828650D02*
X16002610Y-13838174D01*
X16002610Y-13838174D02*
X15993087Y-13847698D01*
X16202610Y-13961984D02*
X16183563Y-13952460D01*
X16183563Y-13952460D02*
X16174039Y-13942936D01*
X16174039Y-13942936D02*
X16164515Y-13923888D01*
X16164515Y-13923888D02*
X16164515Y-13866746D01*
X16164515Y-13866746D02*
X16174039Y-13847698D01*
X16174039Y-13847698D02*
X16183563Y-13838174D01*
X16183563Y-13838174D02*
X16202610Y-13828650D01*
X16202610Y-13828650D02*
X16231182Y-13828650D01*
X16231182Y-13828650D02*
X16250230Y-13838174D01*
X16250230Y-13838174D02*
X16259753Y-13847698D01*
X16259753Y-13847698D02*
X16269277Y-13866746D01*
X16269277Y-13866746D02*
X16269277Y-13923888D01*
X16269277Y-13923888D02*
X16259753Y-13942936D01*
X16259753Y-13942936D02*
X16250230Y-13952460D01*
X16250230Y-13952460D02*
X16231182Y-13961984D01*
X16231182Y-13961984D02*
X16202610Y-13961984D01*
X16383563Y-13961984D02*
X16364515Y-13952460D01*
X16364515Y-13952460D02*
X16354991Y-13933412D01*
X16354991Y-13933412D02*
X16354991Y-13761984D01*
X16535944Y-13952460D02*
X16516896Y-13961984D01*
X16516896Y-13961984D02*
X16478801Y-13961984D01*
X16478801Y-13961984D02*
X16459753Y-13952460D01*
X16459753Y-13952460D02*
X16450230Y-13933412D01*
X16450230Y-13933412D02*
X16450230Y-13857222D01*
X16450230Y-13857222D02*
X16459753Y-13838174D01*
X16459753Y-13838174D02*
X16478801Y-13828650D01*
X16478801Y-13828650D02*
X16516896Y-13828650D01*
X16516896Y-13828650D02*
X16535944Y-13838174D01*
X16535944Y-13838174D02*
X16545468Y-13857222D01*
X16545468Y-13857222D02*
X16545468Y-13876269D01*
X16545468Y-13876269D02*
X16450230Y-13895317D01*
X16621658Y-13952460D02*
X16640706Y-13961984D01*
X16640706Y-13961984D02*
X16678801Y-13961984D01*
X16678801Y-13961984D02*
X16697849Y-13952460D01*
X16697849Y-13952460D02*
X16707372Y-13933412D01*
X16707372Y-13933412D02*
X16707372Y-13923888D01*
X16707372Y-13923888D02*
X16697849Y-13904841D01*
X16697849Y-13904841D02*
X16678801Y-13895317D01*
X16678801Y-13895317D02*
X16650230Y-13895317D01*
X16650230Y-13895317D02*
X16631182Y-13885793D01*
X16631182Y-13885793D02*
X16621658Y-13866746D01*
X16621658Y-13866746D02*
X16621658Y-13857222D01*
X16621658Y-13857222D02*
X16631182Y-13838174D01*
X16631182Y-13838174D02*
X16650230Y-13828650D01*
X16650230Y-13828650D02*
X16678801Y-13828650D01*
X16678801Y-13828650D02*
X16697849Y-13838174D01*
X16774039Y-14038174D02*
X16783563Y-14028650D01*
X16783563Y-14028650D02*
X16802611Y-14000079D01*
X16802611Y-14000079D02*
X16812134Y-13981031D01*
X16812134Y-13981031D02*
X16821658Y-13952460D01*
X16821658Y-13952460D02*
X16831182Y-13904841D01*
X16831182Y-13904841D02*
X16831182Y-13866746D01*
X16831182Y-13866746D02*
X16821658Y-13819127D01*
X16821658Y-13819127D02*
X16812134Y-13790555D01*
X16812134Y-13790555D02*
X16802611Y-13771508D01*
X16802611Y-13771508D02*
X16783563Y-13742936D01*
X16783563Y-13742936D02*
X16774039Y-13733412D01*
M02*
