G04 #@! TF.GenerationSoftware,KiCad,Pcbnew,9.0.0*
G04 #@! TF.CreationDate,2025-07-06T15:52:53-05:00*
G04 #@! TF.ProjectId,silver-platter,73696c76-6572-42d7-906c-61747465722e,rev?*
G04 #@! TF.SameCoordinates,Original*
G04 #@! TF.FileFunction,Copper,L4,Bot*
G04 #@! TF.FilePolarity,Positive*
%FSLAX46Y46*%
G04 Gerber Fmt 4.6, Leading zero omitted, Abs format (unit mm)*
G04 Created by KiCad (PCBNEW 9.0.0) date 2025-07-06 15:52:53*
%MOMM*%
%LPD*%
G01*
G04 APERTURE LIST*
G04 #@! TA.AperFunction,ComponentPad*
%ADD10C,2.000000*%
G04 #@! TD*
G04 #@! TA.AperFunction,ComponentPad*
%ADD11C,1.750000*%
G04 #@! TD*
G04 #@! TA.AperFunction,ComponentPad*
%ADD12R,1.700000X1.700000*%
G04 #@! TD*
G04 #@! TA.AperFunction,ComponentPad*
%ADD13O,1.700000X1.700000*%
G04 #@! TD*
G04 #@! TA.AperFunction,ViaPad*
%ADD14C,0.600000*%
G04 #@! TD*
G04 #@! TA.AperFunction,Conductor*
%ADD15C,0.250000*%
G04 #@! TD*
G04 APERTURE END LIST*
D10*
X137740000Y-96520000D03*
X137740000Y-90020000D03*
X142240000Y-96520000D03*
X142240000Y-90020000D03*
D11*
X179705000Y-92075000D03*
X182245000Y-92075000D03*
X179705000Y-94615000D03*
X182245000Y-94615000D03*
X179705000Y-97155000D03*
X182245000Y-97155000D03*
X179705000Y-99695000D03*
X182245000Y-99695000D03*
X179705000Y-102235000D03*
X182245000Y-102235000D03*
X179705000Y-104775000D03*
X182245000Y-104775000D03*
X179705000Y-107315000D03*
X182245000Y-107315000D03*
X179705000Y-109855000D03*
X182245000Y-109855000D03*
X179705000Y-112395000D03*
X182245000Y-112395000D03*
X179705000Y-114935000D03*
X182245000Y-114935000D03*
D12*
X175260000Y-121920000D03*
D13*
X177800000Y-121920000D03*
X180340000Y-121920000D03*
X182880000Y-121920000D03*
D12*
X146812000Y-92964000D03*
D13*
X146812000Y-90424000D03*
D14*
X133350000Y-121920000D03*
X147881000Y-98298000D03*
X150876000Y-114554000D03*
X144272000Y-110744000D03*
X158750000Y-101346000D03*
X166624000Y-96012000D03*
X137668000Y-100483500D03*
X157633500Y-113030000D03*
X142494000Y-102870000D03*
X144526000Y-102870000D03*
X142494000Y-107087500D03*
X153767000Y-90744000D03*
X132307500Y-78766500D03*
X149151000Y-114554000D03*
X149606000Y-93980000D03*
X144526000Y-101145000D03*
X132541000Y-112014000D03*
X172212000Y-102616000D03*
X153977000Y-114554000D03*
X142494000Y-101145000D03*
X172212000Y-96012000D03*
X144526000Y-107087500D03*
X158750000Y-99621000D03*
X172212000Y-99314000D03*
X139954000Y-107542500D03*
X135890000Y-104140000D03*
X135128000Y-104140000D03*
X149606000Y-98298000D03*
X131545500Y-78766500D03*
X162500000Y-90744000D03*
X152400000Y-121920000D03*
X158182000Y-90744000D03*
X159358500Y-113030000D03*
X121920000Y-121920000D03*
X160528000Y-101653000D03*
X153162000Y-106426000D03*
X170434000Y-107950000D03*
X121920000Y-106680000D03*
X136117500Y-86894500D03*
X131826000Y-100536500D03*
X184150000Y-77470000D03*
X135355500Y-86894500D03*
X133615000Y-103023500D03*
X163322000Y-106172000D03*
X164338000Y-104394000D03*
X170434000Y-105410000D03*
X153162000Y-102870000D03*
D15*
X153162000Y-106426000D02*
X154686000Y-107950000D01*
X154686000Y-107950000D02*
X170434000Y-107950000D01*
X164338000Y-104394000D02*
X163322000Y-105410000D01*
X163322000Y-105410000D02*
X163322000Y-106172000D01*
X167894000Y-102870000D02*
X170434000Y-105410000D01*
X153162000Y-102870000D02*
X167894000Y-102870000D01*
M02*
