%TF.GenerationSoftware,KiCad,Pcbnew,9.0.0*%
%TF.CreationDate,2025-07-06T16:44:18-05:00*%
%TF.ProjectId,silver-platter,73696c76-6572-42d7-906c-61747465722e,rev?*%
%TF.SameCoordinates,Original*%
%TF.FileFunction,Drillmap*%
%TF.FilePolarity,Positive*%
%FSLAX45Y45*%
G04 Gerber Fmt 4.5, Leading zero omitted, Abs format (unit mm)*
G04 Created by KiCad (PCBNEW 9.0.0) date 2025-07-06 16:44:18*
%MOMM*%
%LPD*%
G01*
G04 APERTURE LIST*
%ADD10C,0.050000*%
%ADD11C,0.200000*%
G04 APERTURE END LIST*
D10*
X11811000Y-7502500D02*
G75*
G02*
X12011000Y-7302500I200000J0D01*
G01*
X11811000Y-12500000D02*
X11811000Y-7502500D01*
X18796000Y-12500000D02*
G75*
G02*
X18596000Y-12700000I-200000J0D01*
G01*
X12011000Y-7302500D02*
X18596000Y-7302500D01*
X18596000Y-12700000D02*
X12011000Y-12700000D01*
X18796000Y-7502500D02*
X18796000Y-12500000D01*
X18596000Y-7302500D02*
G75*
G02*
X18796000Y-7502500I0J-200000D01*
G01*
X12011000Y-12700000D02*
G75*
G02*
X11811000Y-12500000I0J200000D01*
G01*
D11*
X12069277Y-13013984D02*
X12069277Y-12813984D01*
X12069277Y-12813984D02*
X12116896Y-12813984D01*
X12116896Y-12813984D02*
X12145467Y-12823508D01*
X12145467Y-12823508D02*
X12164515Y-12842555D01*
X12164515Y-12842555D02*
X12174039Y-12861603D01*
X12174039Y-12861603D02*
X12183562Y-12899698D01*
X12183562Y-12899698D02*
X12183562Y-12928269D01*
X12183562Y-12928269D02*
X12174039Y-12966365D01*
X12174039Y-12966365D02*
X12164515Y-12985412D01*
X12164515Y-12985412D02*
X12145467Y-13004460D01*
X12145467Y-13004460D02*
X12116896Y-13013984D01*
X12116896Y-13013984D02*
X12069277Y-13013984D01*
X12269277Y-13013984D02*
X12269277Y-12880650D01*
X12269277Y-12918746D02*
X12278801Y-12899698D01*
X12278801Y-12899698D02*
X12288324Y-12890174D01*
X12288324Y-12890174D02*
X12307372Y-12880650D01*
X12307372Y-12880650D02*
X12326420Y-12880650D01*
X12393086Y-13013984D02*
X12393086Y-12880650D01*
X12393086Y-12813984D02*
X12383562Y-12823508D01*
X12383562Y-12823508D02*
X12393086Y-12833031D01*
X12393086Y-12833031D02*
X12402610Y-12823508D01*
X12402610Y-12823508D02*
X12393086Y-12813984D01*
X12393086Y-12813984D02*
X12393086Y-12833031D01*
X12516896Y-13013984D02*
X12497848Y-13004460D01*
X12497848Y-13004460D02*
X12488324Y-12985412D01*
X12488324Y-12985412D02*
X12488324Y-12813984D01*
X12621658Y-13013984D02*
X12602610Y-13004460D01*
X12602610Y-13004460D02*
X12593086Y-12985412D01*
X12593086Y-12985412D02*
X12593086Y-12813984D01*
X12850229Y-13013984D02*
X12850229Y-12813984D01*
X12850229Y-12813984D02*
X12916896Y-12956841D01*
X12916896Y-12956841D02*
X12983562Y-12813984D01*
X12983562Y-12813984D02*
X12983562Y-13013984D01*
X13164515Y-13013984D02*
X13164515Y-12909222D01*
X13164515Y-12909222D02*
X13154991Y-12890174D01*
X13154991Y-12890174D02*
X13135943Y-12880650D01*
X13135943Y-12880650D02*
X13097848Y-12880650D01*
X13097848Y-12880650D02*
X13078801Y-12890174D01*
X13164515Y-13004460D02*
X13145467Y-13013984D01*
X13145467Y-13013984D02*
X13097848Y-13013984D01*
X13097848Y-13013984D02*
X13078801Y-13004460D01*
X13078801Y-13004460D02*
X13069277Y-12985412D01*
X13069277Y-12985412D02*
X13069277Y-12966365D01*
X13069277Y-12966365D02*
X13078801Y-12947317D01*
X13078801Y-12947317D02*
X13097848Y-12937793D01*
X13097848Y-12937793D02*
X13145467Y-12937793D01*
X13145467Y-12937793D02*
X13164515Y-12928269D01*
X13259753Y-12880650D02*
X13259753Y-13080650D01*
X13259753Y-12890174D02*
X13278801Y-12880650D01*
X13278801Y-12880650D02*
X13316896Y-12880650D01*
X13316896Y-12880650D02*
X13335943Y-12890174D01*
X13335943Y-12890174D02*
X13345467Y-12899698D01*
X13345467Y-12899698D02*
X13354991Y-12918746D01*
X13354991Y-12918746D02*
X13354991Y-12975888D01*
X13354991Y-12975888D02*
X13345467Y-12994936D01*
X13345467Y-12994936D02*
X13335943Y-13004460D01*
X13335943Y-13004460D02*
X13316896Y-13013984D01*
X13316896Y-13013984D02*
X13278801Y-13013984D01*
X13278801Y-13013984D02*
X13259753Y-13004460D01*
X13440705Y-12994936D02*
X13450229Y-13004460D01*
X13450229Y-13004460D02*
X13440705Y-13013984D01*
X13440705Y-13013984D02*
X13431182Y-13004460D01*
X13431182Y-13004460D02*
X13440705Y-12994936D01*
X13440705Y-12994936D02*
X13440705Y-13013984D01*
X13440705Y-12890174D02*
X13450229Y-12899698D01*
X13450229Y-12899698D02*
X13440705Y-12909222D01*
X13440705Y-12909222D02*
X13431182Y-12899698D01*
X13431182Y-12899698D02*
X13440705Y-12890174D01*
X13440705Y-12890174D02*
X13440705Y-12909222D01*
M02*
