G04 #@! TF.GenerationSoftware,KiCad,Pcbnew,9.0.0*
G04 #@! TF.CreationDate,2025-07-06T16:44:13-05:00*
G04 #@! TF.ProjectId,silver-platter,73696c76-6572-42d7-906c-61747465722e,rev?*
G04 #@! TF.SameCoordinates,Original*
G04 #@! TF.FileFunction,Copper,L1,Top*
G04 #@! TF.FilePolarity,Positive*
%FSLAX46Y46*%
G04 Gerber Fmt 4.6, Leading zero omitted, Abs format (unit mm)*
G04 Created by KiCad (PCBNEW 9.0.0) date 2025-07-06 16:44:13*
%MOMM*%
%LPD*%
G01*
G04 APERTURE LIST*
G04 Aperture macros list*
%AMRoundRect*
0 Rectangle with rounded corners*
0 $1 Rounding radius*
0 $2 $3 $4 $5 $6 $7 $8 $9 X,Y pos of 4 corners*
0 Add a 4 corners polygon primitive as box body*
4,1,4,$2,$3,$4,$5,$6,$7,$8,$9,$2,$3,0*
0 Add four circle primitives for the rounded corners*
1,1,$1+$1,$2,$3*
1,1,$1+$1,$4,$5*
1,1,$1+$1,$6,$7*
1,1,$1+$1,$8,$9*
0 Add four rect primitives between the rounded corners*
20,1,$1+$1,$2,$3,$4,$5,0*
20,1,$1+$1,$4,$5,$6,$7,0*
20,1,$1+$1,$6,$7,$8,$9,0*
20,1,$1+$1,$8,$9,$2,$3,0*%
G04 Aperture macros list end*
G04 #@! TA.AperFunction,SMDPad,CuDef*
%ADD10RoundRect,0.237500X0.237500X-0.300000X0.237500X0.300000X-0.237500X0.300000X-0.237500X-0.300000X0*%
G04 #@! TD*
G04 #@! TA.AperFunction,SMDPad,CuDef*
%ADD11RoundRect,0.237500X0.250000X0.237500X-0.250000X0.237500X-0.250000X-0.237500X0.250000X-0.237500X0*%
G04 #@! TD*
G04 #@! TA.AperFunction,SMDPad,CuDef*
%ADD12R,4.000000X4.000000*%
G04 #@! TD*
G04 #@! TA.AperFunction,SMDPad,CuDef*
%ADD13RoundRect,0.237500X-0.237500X0.300000X-0.237500X-0.300000X0.237500X-0.300000X0.237500X0.300000X0*%
G04 #@! TD*
G04 #@! TA.AperFunction,SMDPad,CuDef*
%ADD14RoundRect,0.150000X-0.512500X-0.150000X0.512500X-0.150000X0.512500X0.150000X-0.512500X0.150000X0*%
G04 #@! TD*
G04 #@! TA.AperFunction,SMDPad,CuDef*
%ADD15RoundRect,0.237500X0.237500X-0.250000X0.237500X0.250000X-0.237500X0.250000X-0.237500X-0.250000X0*%
G04 #@! TD*
G04 #@! TA.AperFunction,SMDPad,CuDef*
%ADD16RoundRect,0.237500X-0.250000X-0.237500X0.250000X-0.237500X0.250000X0.237500X-0.250000X0.237500X0*%
G04 #@! TD*
G04 #@! TA.AperFunction,SMDPad,CuDef*
%ADD17RoundRect,0.237500X-0.300000X-0.237500X0.300000X-0.237500X0.300000X0.237500X-0.300000X0.237500X0*%
G04 #@! TD*
G04 #@! TA.AperFunction,SMDPad,CuDef*
%ADD18RoundRect,0.237500X0.300000X0.237500X-0.300000X0.237500X-0.300000X-0.237500X0.300000X-0.237500X0*%
G04 #@! TD*
G04 #@! TA.AperFunction,ComponentPad*
%ADD19C,2.000000*%
G04 #@! TD*
G04 #@! TA.AperFunction,SMDPad,CuDef*
%ADD20RoundRect,0.250001X-0.849999X0.462499X-0.849999X-0.462499X0.849999X-0.462499X0.849999X0.462499X0*%
G04 #@! TD*
G04 #@! TA.AperFunction,SMDPad,CuDef*
%ADD21RoundRect,0.237500X0.287500X0.237500X-0.287500X0.237500X-0.287500X-0.237500X0.287500X-0.237500X0*%
G04 #@! TD*
G04 #@! TA.AperFunction,ComponentPad*
%ADD22C,1.750000*%
G04 #@! TD*
G04 #@! TA.AperFunction,SMDPad,CuDef*
%ADD23RoundRect,0.162500X0.617500X0.162500X-0.617500X0.162500X-0.617500X-0.162500X0.617500X-0.162500X0*%
G04 #@! TD*
G04 #@! TA.AperFunction,ComponentPad*
%ADD24R,1.700000X1.700000*%
G04 #@! TD*
G04 #@! TA.AperFunction,ComponentPad*
%ADD25O,1.700000X1.700000*%
G04 #@! TD*
G04 #@! TA.AperFunction,SMDPad,CuDef*
%ADD26RoundRect,0.150000X0.587500X0.150000X-0.587500X0.150000X-0.587500X-0.150000X0.587500X-0.150000X0*%
G04 #@! TD*
G04 #@! TA.AperFunction,SMDPad,CuDef*
%ADD27RoundRect,0.075000X-0.700000X-0.075000X0.700000X-0.075000X0.700000X0.075000X-0.700000X0.075000X0*%
G04 #@! TD*
G04 #@! TA.AperFunction,SMDPad,CuDef*
%ADD28RoundRect,0.075000X-0.075000X-0.700000X0.075000X-0.700000X0.075000X0.700000X-0.075000X0.700000X0*%
G04 #@! TD*
G04 #@! TA.AperFunction,SMDPad,CuDef*
%ADD29RoundRect,0.237500X-0.287500X-0.237500X0.287500X-0.237500X0.287500X0.237500X-0.287500X0.237500X0*%
G04 #@! TD*
G04 #@! TA.AperFunction,ViaPad*
%ADD30C,0.600000*%
G04 #@! TD*
G04 #@! TA.AperFunction,Conductor*
%ADD31C,0.250000*%
G04 #@! TD*
G04 #@! TA.AperFunction,Conductor*
%ADD32C,0.750000*%
G04 #@! TD*
G04 #@! TA.AperFunction,Conductor*
%ADD33C,2.000000*%
G04 #@! TD*
G04 APERTURE END LIST*
D10*
X144526000Y-108812500D03*
X144526000Y-107087500D03*
D11*
X172212000Y-102616000D03*
X170387000Y-102616000D03*
D12*
X162560000Y-77470000D03*
D10*
X136117500Y-83031500D03*
X136117500Y-81306500D03*
D12*
X121920000Y-77470000D03*
X156210000Y-77470000D03*
X184150000Y-77470000D03*
D13*
X131826000Y-100536500D03*
X131826000Y-102261500D03*
D12*
X146050000Y-121920000D03*
X142240000Y-77470000D03*
X121920000Y-114300000D03*
D14*
X133615000Y-101123500D03*
X133615000Y-102073500D03*
X133615000Y-103023500D03*
X135890000Y-103023500D03*
X135890000Y-101123500D03*
D12*
X148590000Y-77470000D03*
X121920000Y-106680000D03*
D15*
X149606000Y-93980000D03*
X149606000Y-92155000D03*
D16*
X141431000Y-85344000D03*
X143256000Y-85344000D03*
D10*
X142494000Y-108812500D03*
X142494000Y-107087500D03*
D17*
X157633500Y-113030000D03*
X159358500Y-113030000D03*
D12*
X139700000Y-121920000D03*
D18*
X149606000Y-98298000D03*
X147881000Y-98298000D03*
D19*
X137740000Y-96520000D03*
X137740000Y-90020000D03*
X142240000Y-96520000D03*
X142240000Y-90020000D03*
D16*
X175514000Y-85344000D03*
X177339000Y-85344000D03*
D20*
X129767500Y-84354500D03*
X129767500Y-86679500D03*
D12*
X176530000Y-77470000D03*
D11*
X172212000Y-99314000D03*
X170387000Y-99314000D03*
D16*
X132541000Y-112014000D03*
X134366000Y-112014000D03*
D21*
X168402000Y-102616000D03*
X166652000Y-102616000D03*
X168374000Y-96012000D03*
X166624000Y-96012000D03*
D22*
X179705000Y-92075000D03*
X182245000Y-92075000D03*
X179705000Y-94615000D03*
X182245000Y-94615000D03*
X179705000Y-97155000D03*
X182245000Y-97155000D03*
X179705000Y-99695000D03*
X182245000Y-99695000D03*
X179705000Y-102235000D03*
X182245000Y-102235000D03*
X179705000Y-104775000D03*
X182245000Y-104775000D03*
X179705000Y-107315000D03*
X182245000Y-107315000D03*
X179705000Y-109855000D03*
X182245000Y-109855000D03*
X179705000Y-112395000D03*
X182245000Y-112395000D03*
X179705000Y-114935000D03*
X182245000Y-114935000D03*
D12*
X121920000Y-121920000D03*
D23*
X133991500Y-82190500D03*
X133991500Y-81240500D03*
X133991500Y-80290500D03*
X131291500Y-80290500D03*
X131291500Y-81240500D03*
X131291500Y-82190500D03*
D11*
X172212000Y-96012000D03*
X170387000Y-96012000D03*
D12*
X133350000Y-121920000D03*
D24*
X175260000Y-121920000D03*
D25*
X177800000Y-121920000D03*
X180340000Y-121920000D03*
X182880000Y-121920000D03*
D12*
X121920000Y-85598000D03*
X152400000Y-121920000D03*
D10*
X160528000Y-103378000D03*
X160528000Y-101653000D03*
D18*
X134032500Y-84354500D03*
X132307500Y-84354500D03*
D13*
X137668000Y-100483500D03*
X137668000Y-102208500D03*
D26*
X162500000Y-92644000D03*
X162500000Y-90744000D03*
X160625000Y-91694000D03*
D18*
X150876000Y-114554000D03*
X149151000Y-114554000D03*
D13*
X139954000Y-105817500D03*
X139954000Y-107542500D03*
D16*
X161751000Y-85344000D03*
X163576000Y-85344000D03*
D26*
X153767000Y-92644000D03*
X153767000Y-90744000D03*
X151892000Y-91694000D03*
D18*
X155702000Y-114554000D03*
X153977000Y-114554000D03*
D12*
X170180000Y-77470000D03*
D10*
X144526000Y-102870000D03*
X144526000Y-101145000D03*
D12*
X167640000Y-121920000D03*
X161290000Y-121920000D03*
D11*
X134366000Y-108712000D03*
X132541000Y-108712000D03*
D10*
X129259500Y-80745500D03*
X129259500Y-79020500D03*
D21*
X168402000Y-99314000D03*
X166652000Y-99314000D03*
D16*
X155401000Y-85344000D03*
X157226000Y-85344000D03*
D27*
X146725000Y-102930000D03*
X146725000Y-103430000D03*
X146725000Y-103930000D03*
X146725000Y-104430000D03*
X146725000Y-104930000D03*
X146725000Y-105430000D03*
X146725000Y-105930000D03*
X146725000Y-106430000D03*
X146725000Y-106930000D03*
X146725000Y-107430000D03*
X146725000Y-107930000D03*
X146725000Y-108430000D03*
X146725000Y-108930000D03*
X146725000Y-109430000D03*
X146725000Y-109930000D03*
X146725000Y-110430000D03*
D28*
X148650000Y-112355000D03*
X149150000Y-112355000D03*
X149650000Y-112355000D03*
X150150000Y-112355000D03*
X150650000Y-112355000D03*
X151150000Y-112355000D03*
X151650000Y-112355000D03*
X152150000Y-112355000D03*
X152650000Y-112355000D03*
X153150000Y-112355000D03*
X153650000Y-112355000D03*
X154150000Y-112355000D03*
X154650000Y-112355000D03*
X155150000Y-112355000D03*
X155650000Y-112355000D03*
X156150000Y-112355000D03*
D27*
X158075000Y-110430000D03*
X158075000Y-109930000D03*
X158075000Y-109430000D03*
X158075000Y-108930000D03*
X158075000Y-108430000D03*
X158075000Y-107930000D03*
X158075000Y-107430000D03*
X158075000Y-106930000D03*
X158075000Y-106430000D03*
X158075000Y-105930000D03*
X158075000Y-105430000D03*
X158075000Y-104930000D03*
X158075000Y-104430000D03*
X158075000Y-103930000D03*
X158075000Y-103430000D03*
X158075000Y-102930000D03*
D28*
X156150000Y-101005000D03*
X155650000Y-101005000D03*
X155150000Y-101005000D03*
X154650000Y-101005000D03*
X154150000Y-101005000D03*
X153650000Y-101005000D03*
X153150000Y-101005000D03*
X152650000Y-101005000D03*
X152150000Y-101005000D03*
X151650000Y-101005000D03*
X151150000Y-101005000D03*
X150650000Y-101005000D03*
X150150000Y-101005000D03*
X149650000Y-101005000D03*
X149150000Y-101005000D03*
X148650000Y-101005000D03*
D26*
X158182000Y-92644000D03*
X158182000Y-90744000D03*
X156307000Y-91694000D03*
D10*
X158750000Y-101346000D03*
X158750000Y-99621000D03*
D29*
X142522000Y-110744000D03*
X144272000Y-110744000D03*
D24*
X146812000Y-92964000D03*
D25*
X146812000Y-90424000D03*
D16*
X169371000Y-85344000D03*
X171196000Y-85344000D03*
X147781000Y-85344000D03*
X149606000Y-85344000D03*
D10*
X142494000Y-102870000D03*
X142494000Y-101145000D03*
D30*
X137160000Y-109855000D03*
X144780000Y-97790000D03*
X152400000Y-88265000D03*
X159385000Y-88265000D03*
X120015000Y-99695000D03*
X126365000Y-89535000D03*
X180340000Y-77470000D03*
X152400000Y-77470000D03*
X166370000Y-77470000D03*
X182880000Y-85090000D03*
X169545000Y-90805000D03*
X173355000Y-111760000D03*
X172085000Y-119380000D03*
X127635000Y-121920000D03*
X133350000Y-121920000D03*
X147881000Y-98298000D03*
X150876000Y-114554000D03*
X144272000Y-110744000D03*
X158750000Y-101346000D03*
X166624000Y-96012000D03*
X137668000Y-100483500D03*
X157633500Y-113030000D03*
X142494000Y-102870000D03*
X144526000Y-102870000D03*
X142494000Y-107087500D03*
X153767000Y-90744000D03*
X132307500Y-78766500D03*
X149151000Y-114554000D03*
X149606000Y-93980000D03*
X144526000Y-101145000D03*
X132541000Y-112014000D03*
X172212000Y-102616000D03*
X153977000Y-114554000D03*
X142494000Y-101145000D03*
X172212000Y-96012000D03*
X144526000Y-107087500D03*
X158750000Y-99621000D03*
X172212000Y-99314000D03*
X139954000Y-107542500D03*
X135890000Y-104140000D03*
X135128000Y-104140000D03*
X149606000Y-98298000D03*
X131545500Y-78766500D03*
X162500000Y-90744000D03*
X152400000Y-121920000D03*
X158182000Y-90744000D03*
X159358500Y-113030000D03*
X121920000Y-121920000D03*
X160528000Y-101653000D03*
X153162000Y-106426000D03*
X170434000Y-107950000D03*
X121920000Y-106680000D03*
X136117500Y-86894500D03*
X131826000Y-100536500D03*
X184150000Y-77470000D03*
X135355500Y-86894500D03*
X133615000Y-103023500D03*
X163322000Y-106172000D03*
X164338000Y-104394000D03*
X170434000Y-105410000D03*
X153162000Y-102870000D03*
D31*
X148650000Y-99067000D02*
X147881000Y-98298000D01*
D32*
X136652000Y-100330000D02*
X137514500Y-100330000D01*
D31*
X156958500Y-112355000D02*
X157633500Y-113030000D01*
X146725000Y-102930000D02*
X144586000Y-102930000D01*
D32*
X137514500Y-100330000D02*
X137668000Y-100483500D01*
D31*
X144586000Y-102930000D02*
X144526000Y-102870000D01*
X148650000Y-101005000D02*
X148650000Y-99067000D01*
X158075000Y-102930000D02*
X158075000Y-102021000D01*
D32*
X136652000Y-100361500D02*
X135890000Y-101123500D01*
X136652000Y-100361500D02*
X136652000Y-100330000D01*
D31*
X158075000Y-102021000D02*
X158750000Y-101346000D01*
X149650000Y-112355000D02*
X149650000Y-113328000D01*
X149650000Y-113328000D02*
X150876000Y-114554000D01*
X156150000Y-112355000D02*
X156958500Y-112355000D01*
X149150000Y-101005000D02*
X149150000Y-98754000D01*
X146725000Y-108430000D02*
X145868500Y-108430000D01*
X149150000Y-98754000D02*
X149606000Y-98298000D01*
X145868500Y-108430000D02*
X144526000Y-107087500D01*
X149150000Y-114553000D02*
X149151000Y-114554000D01*
D33*
X129540000Y-77470000D02*
X129540000Y-78232000D01*
D31*
X149150000Y-112355000D02*
X149150000Y-114553000D01*
D33*
X121920000Y-77470000D02*
X129540000Y-77470000D01*
D31*
X144643500Y-108930000D02*
X146725000Y-108930000D01*
X142522000Y-108840500D02*
X142494000Y-108812500D01*
X142522000Y-110744000D02*
X142522000Y-108840500D01*
X144526000Y-108812500D02*
X144643500Y-108930000D01*
X142494000Y-108812500D02*
X144526000Y-108812500D01*
X160476000Y-103430000D02*
X160528000Y-103378000D01*
X158075000Y-103430000D02*
X160476000Y-103430000D01*
X155650000Y-114502000D02*
X155650000Y-112355000D01*
X155702000Y-114554000D02*
X155650000Y-114502000D01*
X139954000Y-105817500D02*
X140066500Y-105930000D01*
X139954000Y-105817500D02*
X139954000Y-98806000D01*
X153162000Y-106426000D02*
X152666000Y-105930000D01*
X142240000Y-90020000D02*
X142240000Y-96520000D01*
X179705000Y-109855000D02*
X172339000Y-109855000D01*
X139954000Y-98806000D02*
X142240000Y-96520000D01*
X152666000Y-105930000D02*
X146725000Y-105930000D01*
X140066500Y-105930000D02*
X146725000Y-105930000D01*
X172339000Y-109855000D02*
X170434000Y-107950000D01*
D32*
X137641500Y-82068500D02*
X136678500Y-83031500D01*
X133991500Y-80290500D02*
X134245500Y-80036500D01*
X136879500Y-80036500D02*
X137641500Y-80798500D01*
X133096000Y-100604500D02*
X133096000Y-100584000D01*
X134245500Y-80036500D02*
X136879500Y-80036500D01*
X136678500Y-83031500D02*
X136117500Y-83031500D01*
X137641500Y-80798500D02*
X137641500Y-82068500D01*
D31*
X136170500Y-83031500D02*
X136117500Y-83031500D01*
D32*
X133615000Y-101123500D02*
X133096000Y-100604500D01*
X133096000Y-100584000D02*
X133048500Y-100536500D01*
X133048500Y-100536500D02*
X131826000Y-100536500D01*
D33*
X124206000Y-85598000D02*
X127000000Y-82804000D01*
D31*
X121920000Y-98091000D02*
X121920000Y-85598000D01*
D33*
X121920000Y-85598000D02*
X124206000Y-85598000D01*
X127000000Y-82804000D02*
X127000000Y-81026000D01*
D31*
X121920000Y-98091000D02*
X132541000Y-108712000D01*
D32*
X133991500Y-82190500D02*
X133991500Y-84313500D01*
X133991500Y-84313500D02*
X134032500Y-84354500D01*
D31*
X170387000Y-96012000D02*
X168374000Y-96012000D01*
X166652000Y-102616000D02*
X166116000Y-102616000D01*
X163322000Y-106172000D02*
X163080000Y-105930000D01*
X166116000Y-102616000D02*
X164338000Y-104394000D01*
X161810000Y-105930000D02*
X158075000Y-105930000D01*
X163080000Y-105930000D02*
X161810000Y-105930000D01*
X177800000Y-121920000D02*
X161810000Y-105930000D01*
X170387000Y-102616000D02*
X168402000Y-102616000D01*
X180340000Y-121920000D02*
X163850000Y-105430000D01*
X163850000Y-105430000D02*
X158075000Y-105430000D01*
X166652000Y-99314000D02*
X160536000Y-105430000D01*
X160536000Y-105430000D02*
X158075000Y-105430000D01*
X168402000Y-99314000D02*
X170387000Y-99314000D01*
X176722000Y-94172000D02*
X179705000Y-97155000D01*
X160590000Y-94172000D02*
X176722000Y-94172000D01*
X155650000Y-101005000D02*
X155650000Y-99112000D01*
X155650000Y-99112000D02*
X160590000Y-94172000D01*
X156150000Y-100230001D02*
X161169001Y-95211000D01*
X161169001Y-95211000D02*
X172701990Y-95211000D01*
X179705000Y-102214010D02*
X179705000Y-102235000D01*
X156150000Y-101005000D02*
X156150000Y-100230001D01*
X172701990Y-95211000D02*
X179705000Y-102214010D01*
X172339000Y-107315000D02*
X170434000Y-105410000D01*
X153162000Y-101017000D02*
X153150000Y-101005000D01*
X179705000Y-107315000D02*
X172339000Y-107315000D01*
X153162000Y-102870000D02*
X153162000Y-101017000D01*
X159089822Y-93721000D02*
X152650000Y-100160822D01*
X178811000Y-93721000D02*
X179705000Y-94615000D01*
X159089822Y-93721000D02*
X178811000Y-93721000D01*
X152650000Y-100160822D02*
X152650000Y-101005000D01*
X180906000Y-100896000D02*
X180906000Y-102732471D01*
X159230678Y-104241500D02*
X158919178Y-103930000D01*
X180202471Y-103436000D02*
X177624990Y-103436000D01*
X165100000Y-97790000D02*
X165100000Y-100146990D01*
X180906000Y-102732471D02*
X180202471Y-103436000D01*
X165974999Y-96915001D02*
X165100000Y-97790000D01*
X179705000Y-99695000D02*
X180906000Y-100896000D01*
X177624990Y-103436000D02*
X171103991Y-96915001D01*
X158919178Y-103930000D02*
X158075000Y-103930000D01*
X171103991Y-96915001D02*
X165974999Y-96915001D01*
X165100000Y-100146990D02*
X161005490Y-104241500D01*
X161005490Y-104241500D02*
X159230678Y-104241500D01*
X154650000Y-113199178D02*
X154650000Y-112355000D01*
X146265000Y-115355000D02*
X151494178Y-115355000D01*
X153393178Y-113456000D02*
X154393178Y-113456000D01*
X139700000Y-121920000D02*
X146265000Y-115355000D01*
X151494178Y-115355000D02*
X153393178Y-113456000D01*
X154393178Y-113456000D02*
X154650000Y-113199178D01*
X154516990Y-115355000D02*
X154839500Y-115032490D01*
X152615000Y-115355000D02*
X154516990Y-115355000D01*
X155150000Y-113336988D02*
X155150000Y-112355000D01*
X154839500Y-113647488D02*
X155150000Y-113336988D01*
X154839500Y-115032490D02*
X154839500Y-113647488D01*
X146050000Y-121920000D02*
X152615000Y-115355000D01*
X167640000Y-121920000D02*
X167640000Y-115062000D01*
X159008000Y-106430000D02*
X158075000Y-106430000D01*
X167640000Y-115062000D02*
X159008000Y-106430000D01*
X158919178Y-108430000D02*
X158075000Y-108430000D01*
X161290000Y-110800822D02*
X158919178Y-108430000D01*
X161290000Y-121920000D02*
X161290000Y-110800822D01*
X141431000Y-85344000D02*
X141431000Y-78279000D01*
X141431000Y-78279000D02*
X142240000Y-77470000D01*
X155401000Y-78279000D02*
X156210000Y-77470000D01*
X155401000Y-85344000D02*
X155401000Y-78279000D01*
X169371000Y-78279000D02*
X170180000Y-77470000D01*
X169371000Y-85344000D02*
X169371000Y-78279000D01*
X149606000Y-78486000D02*
X148590000Y-77470000D01*
X149606000Y-85344000D02*
X149606000Y-78486000D01*
X163576000Y-78486000D02*
X162560000Y-77470000D01*
X163576000Y-85344000D02*
X163576000Y-78486000D01*
X177339000Y-78279000D02*
X176530000Y-77470000D01*
X177339000Y-85344000D02*
X177339000Y-78279000D01*
X121920000Y-114300000D02*
X146705000Y-114300000D01*
X146705000Y-114300000D02*
X148650000Y-112355000D01*
X147621000Y-92155000D02*
X146812000Y-92964000D01*
X146812000Y-92964000D02*
X146812000Y-101092000D01*
X150137178Y-102362000D02*
X150650000Y-101849178D01*
X148082000Y-102362000D02*
X150137178Y-102362000D01*
X146812000Y-101092000D02*
X148082000Y-102362000D01*
X150650000Y-101849178D02*
X150650000Y-101005000D01*
X149606000Y-92155000D02*
X147621000Y-92155000D01*
X175514000Y-85344000D02*
X171196000Y-85344000D01*
X171196000Y-85344000D02*
X164846000Y-91694000D01*
X164846000Y-91694000D02*
X160625000Y-91694000D01*
X157226000Y-85344000D02*
X161751000Y-85344000D01*
X156307000Y-86263000D02*
X156307000Y-91694000D01*
X157226000Y-85344000D02*
X156307000Y-86263000D01*
X151892000Y-91694000D02*
X147781000Y-87583000D01*
X147781000Y-85344000D02*
X143256000Y-85344000D01*
X147781000Y-87583000D02*
X147781000Y-85344000D01*
X134366000Y-112014000D02*
X134366000Y-108712000D01*
X145848000Y-109930000D02*
X146725000Y-109930000D01*
X145624000Y-110154000D02*
X145848000Y-109930000D01*
X145624000Y-110720490D02*
X145624000Y-110154000D01*
X134366000Y-112014000D02*
X144330490Y-112014000D01*
X144330490Y-112014000D02*
X145624000Y-110720490D01*
X151150000Y-101005000D02*
X151150000Y-100160822D01*
X151150000Y-100160822D02*
X158040822Y-93270000D01*
X158040822Y-93270000D02*
X161874000Y-93270000D01*
X161874000Y-93270000D02*
X162500000Y-92644000D01*
X149650000Y-99778000D02*
X149650000Y-101005000D01*
X153767000Y-95661000D02*
X149650000Y-99778000D01*
X153767000Y-92644000D02*
X153767000Y-95661000D01*
X150150000Y-99938501D02*
X150150000Y-101005000D01*
X158182000Y-92644000D02*
X157444501Y-92644000D01*
X157444501Y-92644000D02*
X150150000Y-99938501D01*
G04 #@! TA.AperFunction,Conductor*
G36*
X132039148Y-79796852D02*
G01*
X132053500Y-79831500D01*
X132053500Y-81511500D01*
X132039148Y-81546148D01*
X132004500Y-81560500D01*
X126006500Y-81560500D01*
X125971852Y-81546148D01*
X125957500Y-81511500D01*
X125957500Y-79831500D01*
X125971852Y-79796852D01*
X126006500Y-79782500D01*
X132004500Y-79782500D01*
X132039148Y-79796852D01*
G37*
G04 #@! TD.AperFunction*
G04 #@! TA.AperFunction,Conductor*
G36*
X133069500Y-79924355D02*
G01*
X133021280Y-80022990D01*
X133021280Y-80022991D01*
X133011000Y-80093548D01*
X133011000Y-80487450D01*
X133011001Y-80487451D01*
X133021279Y-80558007D01*
X133021279Y-80558009D01*
X133069500Y-80656645D01*
X133069500Y-80798500D01*
X133254222Y-80798500D01*
X133268991Y-80805720D01*
X133339551Y-80816000D01*
X133737560Y-80815999D01*
X133762059Y-80822562D01*
X133769365Y-80826781D01*
X133857439Y-80850380D01*
X133915730Y-80865999D01*
X133915731Y-80866000D01*
X133915734Y-80866000D01*
X134067269Y-80866000D01*
X134067269Y-80865999D01*
X134213635Y-80826781D01*
X134213637Y-80826779D01*
X134213639Y-80826779D01*
X134220938Y-80822565D01*
X134245439Y-80815999D01*
X134643451Y-80815999D01*
X134643451Y-80815998D01*
X134714009Y-80805720D01*
X134728778Y-80798500D01*
X136827620Y-80798500D01*
X136879500Y-80850380D01*
X136879500Y-81814500D01*
X134908682Y-81814500D01*
X134908512Y-81814153D01*
X134822847Y-81728488D01*
X134714009Y-81675280D01*
X134690489Y-81671853D01*
X134643451Y-81665000D01*
X134643449Y-81665000D01*
X134245438Y-81665000D01*
X134220938Y-81658435D01*
X134213637Y-81654219D01*
X134213633Y-81654218D01*
X134067269Y-81615000D01*
X134067266Y-81615000D01*
X133915734Y-81615000D01*
X133915731Y-81615000D01*
X133769369Y-81654217D01*
X133769364Y-81654219D01*
X133762059Y-81658437D01*
X133737561Y-81665000D01*
X133339549Y-81665000D01*
X133339548Y-81665001D01*
X133268992Y-81675279D01*
X133268990Y-81675279D01*
X133160155Y-81728486D01*
X133160151Y-81728489D01*
X133074489Y-81814151D01*
X133074487Y-81814155D01*
X133074318Y-81814500D01*
X132307500Y-81814500D01*
X132307500Y-79528500D01*
X128497500Y-79528500D01*
X128497500Y-78004500D01*
X133069500Y-78004500D01*
X133069500Y-79924355D01*
G37*
G04 #@! TD.AperFunction*
G04 #@! TA.AperFunction,Conductor*
G36*
X136865148Y-82082852D02*
G01*
X136879500Y-82117500D01*
X136879500Y-87607500D01*
X136865148Y-87642148D01*
X136830500Y-87656500D01*
X128546500Y-87656500D01*
X128511852Y-87642148D01*
X128497500Y-87607500D01*
X128497500Y-85673500D01*
X128511852Y-85638852D01*
X128546500Y-85624500D01*
X135101500Y-85624500D01*
X135101500Y-82117500D01*
X135115852Y-82082852D01*
X135150500Y-82068500D01*
X136830500Y-82068500D01*
X136865148Y-82082852D01*
G37*
G04 #@! TD.AperFunction*
G04 #@! TA.AperFunction,Conductor*
G36*
X132039148Y-81828852D02*
G01*
X132053500Y-81863500D01*
X132053500Y-83592500D01*
X133020500Y-83592500D01*
X133055148Y-83606852D01*
X133069500Y-83641500D01*
X133069500Y-85067500D01*
X133055148Y-85102148D01*
X133020500Y-85116500D01*
X128546500Y-85116500D01*
X128511852Y-85102148D01*
X128497500Y-85067500D01*
X128497500Y-81863500D01*
X128511852Y-81828852D01*
X128546500Y-81814500D01*
X132004500Y-81814500D01*
X132039148Y-81828852D01*
G37*
G04 #@! TD.AperFunction*
G04 #@! TA.AperFunction,Conductor*
G36*
X133001107Y-101614073D02*
G01*
X133049384Y-101621106D01*
X133069238Y-101624000D01*
X133069240Y-101624000D01*
X133317762Y-101624000D01*
X133342261Y-101630564D01*
X133392865Y-101659781D01*
X133508303Y-101690712D01*
X133539230Y-101698999D01*
X133539231Y-101699000D01*
X133539234Y-101699000D01*
X133690770Y-101699000D01*
X133690770Y-101698999D01*
X133837135Y-101659781D01*
X133887738Y-101630564D01*
X133912238Y-101624000D01*
X134160762Y-101624000D01*
X134178090Y-101621474D01*
X134228893Y-101614073D01*
X134257680Y-101600000D01*
X135247320Y-101600000D01*
X135276107Y-101614073D01*
X135324384Y-101621106D01*
X135344238Y-101624000D01*
X135344240Y-101624000D01*
X135592762Y-101624000D01*
X135617261Y-101630564D01*
X135667865Y-101659781D01*
X135783303Y-101690712D01*
X135814230Y-101698999D01*
X135814231Y-101699000D01*
X135814234Y-101699000D01*
X135965769Y-101699000D01*
X135965769Y-101698999D01*
X136112135Y-101659781D01*
X136162738Y-101630564D01*
X136187238Y-101624000D01*
X136435762Y-101624000D01*
X136453090Y-101621474D01*
X136503893Y-101614073D01*
X136532680Y-101600000D01*
X138430000Y-101600000D01*
X138430000Y-104648000D01*
X134620000Y-104648000D01*
X134620000Y-102362000D01*
X132588000Y-102362000D01*
X132588000Y-103124000D01*
X131064000Y-103124000D01*
X131064000Y-101600000D01*
X132972320Y-101600000D01*
X133001107Y-101614073D01*
G37*
G04 #@! TD.AperFunction*
G04 #@! TA.AperFunction,Conductor*
G36*
X185968863Y-73526134D02*
G01*
X185996639Y-73528120D01*
X186155645Y-73539493D01*
X186190793Y-73544546D01*
X186365064Y-73582456D01*
X186399143Y-73592463D01*
X186566228Y-73654783D01*
X186598542Y-73669540D01*
X186755062Y-73755006D01*
X186784947Y-73774212D01*
X186927703Y-73881078D01*
X186954553Y-73904343D01*
X187080656Y-74030446D01*
X187103921Y-74057296D01*
X187210787Y-74200052D01*
X187229995Y-74229940D01*
X187315459Y-74386457D01*
X187330216Y-74418771D01*
X187392534Y-74585850D01*
X187402543Y-74619938D01*
X187419639Y-74698525D01*
X187421374Y-74795664D01*
X187385803Y-74886073D01*
X187318341Y-74955988D01*
X187229260Y-74994764D01*
X187132121Y-74996499D01*
X187041712Y-74960928D01*
X186983351Y-74908809D01*
X186958314Y-74878104D01*
X186861109Y-74758891D01*
X186703407Y-74630302D01*
X186703402Y-74630299D01*
X186523053Y-74536093D01*
X186523052Y-74536092D01*
X186523049Y-74536091D01*
X186327418Y-74480114D01*
X186208037Y-74469500D01*
X186208035Y-74469500D01*
X182091968Y-74469500D01*
X182091956Y-74469501D01*
X181972585Y-74480113D01*
X181776954Y-74536090D01*
X181776946Y-74536093D01*
X181596597Y-74630299D01*
X181596592Y-74630302D01*
X181438893Y-74758889D01*
X181438889Y-74758893D01*
X181310302Y-74916592D01*
X181310299Y-74916597D01*
X181216093Y-75096946D01*
X181216090Y-75096954D01*
X181160115Y-75292578D01*
X181160114Y-75292582D01*
X181149500Y-75411963D01*
X181149500Y-79528031D01*
X181149501Y-79528043D01*
X181160113Y-79647414D01*
X181160113Y-79647417D01*
X181160114Y-79647418D01*
X181212787Y-79831500D01*
X181216090Y-79843045D01*
X181216093Y-79843053D01*
X181310118Y-80023056D01*
X181310302Y-80023407D01*
X181438891Y-80181109D01*
X181596593Y-80309698D01*
X181776951Y-80403909D01*
X181972582Y-80459886D01*
X182091963Y-80470500D01*
X186208036Y-80470499D01*
X186327418Y-80459886D01*
X186523049Y-80403909D01*
X186703407Y-80309698D01*
X186861109Y-80181109D01*
X186989698Y-80023407D01*
X186989793Y-80023224D01*
X186989928Y-80023056D01*
X186996646Y-80012864D01*
X186997616Y-80013503D01*
X187050708Y-79947539D01*
X187135951Y-79900926D01*
X187232543Y-79890482D01*
X187325779Y-79917797D01*
X187401465Y-79978712D01*
X187448078Y-80063955D01*
X187459500Y-80138504D01*
X187459500Y-124991100D01*
X187458866Y-125008863D01*
X187458866Y-125008864D01*
X187445507Y-125195639D01*
X187440451Y-125230804D01*
X187402544Y-125405060D01*
X187392534Y-125439149D01*
X187330216Y-125606228D01*
X187315459Y-125638542D01*
X187229995Y-125795059D01*
X187210787Y-125824947D01*
X187103921Y-125967703D01*
X187080656Y-125994553D01*
X186954553Y-126120656D01*
X186927703Y-126143921D01*
X186784947Y-126250787D01*
X186755059Y-126269995D01*
X186598542Y-126355459D01*
X186566228Y-126370216D01*
X186399149Y-126432534D01*
X186365060Y-126442544D01*
X186190804Y-126480451D01*
X186155639Y-126485507D01*
X185968864Y-126498866D01*
X185951100Y-126499500D01*
X120118900Y-126499500D01*
X120101136Y-126498866D01*
X119914360Y-126485507D01*
X119879195Y-126480451D01*
X119704939Y-126442544D01*
X119670850Y-126432534D01*
X119503771Y-126370216D01*
X119471457Y-126355459D01*
X119314940Y-126269995D01*
X119285052Y-126250787D01*
X119142296Y-126143921D01*
X119115446Y-126120656D01*
X118989343Y-125994553D01*
X118966078Y-125967703D01*
X118859212Y-125824947D01*
X118840004Y-125795059D01*
X118754540Y-125638542D01*
X118739783Y-125606228D01*
X118677465Y-125439149D01*
X118667455Y-125405060D01*
X118629546Y-125230793D01*
X118624493Y-125195645D01*
X118611134Y-125008863D01*
X118610500Y-124991100D01*
X118610500Y-124587424D01*
X118629454Y-124492136D01*
X118683430Y-124411354D01*
X118764212Y-124357378D01*
X118859500Y-124338424D01*
X118954788Y-124357378D01*
X119035570Y-124411354D01*
X119073380Y-124462847D01*
X119073774Y-124462588D01*
X119078888Y-124470347D01*
X119080207Y-124472144D01*
X119080723Y-124473132D01*
X119209245Y-124630750D01*
X119209249Y-124630754D01*
X119366867Y-124759276D01*
X119366873Y-124759280D01*
X119547132Y-124853439D01*
X119547140Y-124853442D01*
X119742666Y-124909389D01*
X119742671Y-124909390D01*
X119861994Y-124919999D01*
X119861998Y-124920000D01*
X123978002Y-124920000D01*
X123978005Y-124919999D01*
X124097328Y-124909390D01*
X124097333Y-124909389D01*
X124292859Y-124853442D01*
X124292867Y-124853439D01*
X124473126Y-124759280D01*
X124473132Y-124759276D01*
X124630750Y-124630754D01*
X124630754Y-124630750D01*
X124759276Y-124473132D01*
X124759280Y-124473126D01*
X124853439Y-124292867D01*
X124853442Y-124292859D01*
X124909389Y-124097333D01*
X124909390Y-124097328D01*
X124919999Y-123978005D01*
X124920000Y-123978002D01*
X124920000Y-119861997D01*
X124919999Y-119861994D01*
X124909390Y-119742671D01*
X124909389Y-119742666D01*
X124853442Y-119547140D01*
X124853439Y-119547132D01*
X124759280Y-119366873D01*
X124759276Y-119366867D01*
X124630754Y-119209249D01*
X124630750Y-119209245D01*
X124473132Y-119080723D01*
X124473126Y-119080719D01*
X124292867Y-118986560D01*
X124292859Y-118986557D01*
X124097333Y-118930610D01*
X124097328Y-118930609D01*
X123978005Y-118920000D01*
X119861994Y-118920000D01*
X119742671Y-118930609D01*
X119742666Y-118930610D01*
X119547140Y-118986557D01*
X119547132Y-118986560D01*
X119366873Y-119080719D01*
X119366867Y-119080723D01*
X119209249Y-119209245D01*
X119209245Y-119209249D01*
X119080723Y-119366867D01*
X119080719Y-119366873D01*
X119080203Y-119367862D01*
X119079457Y-119368788D01*
X119073774Y-119377412D01*
X119072952Y-119376870D01*
X119019285Y-119443546D01*
X118934040Y-119490156D01*
X118837448Y-119500597D01*
X118744213Y-119473278D01*
X118668529Y-119412360D01*
X118621919Y-119327115D01*
X118610500Y-119252575D01*
X118610500Y-116968504D01*
X118629454Y-116873216D01*
X118683430Y-116792434D01*
X118764212Y-116738458D01*
X118859500Y-116719504D01*
X118954788Y-116738458D01*
X119035570Y-116792434D01*
X119072845Y-116843199D01*
X119073354Y-116842864D01*
X119079966Y-116852897D01*
X119080206Y-116853224D01*
X119080302Y-116853407D01*
X119208891Y-117011109D01*
X119366593Y-117139698D01*
X119546951Y-117233909D01*
X119742582Y-117289886D01*
X119861963Y-117300500D01*
X123978036Y-117300499D01*
X124097418Y-117289886D01*
X124293049Y-117233909D01*
X124473407Y-117139698D01*
X124631109Y-117011109D01*
X124759698Y-116853407D01*
X124853909Y-116673049D01*
X124909886Y-116477418D01*
X124920500Y-116358037D01*
X124920500Y-115674500D01*
X124939454Y-115579212D01*
X124993430Y-115498430D01*
X125074212Y-115444454D01*
X125169500Y-115425500D01*
X144001663Y-115425500D01*
X144096951Y-115444454D01*
X144177733Y-115498430D01*
X144231709Y-115579212D01*
X144250663Y-115674500D01*
X144231709Y-115769788D01*
X144177733Y-115850570D01*
X141181731Y-118846570D01*
X141100949Y-118900546D01*
X141005661Y-118919500D01*
X137641968Y-118919500D01*
X137641956Y-118919501D01*
X137522585Y-118930113D01*
X137326954Y-118986090D01*
X137326946Y-118986093D01*
X137146597Y-119080299D01*
X137146592Y-119080302D01*
X136988893Y-119208889D01*
X136988889Y-119208893D01*
X136860302Y-119366592D01*
X136860299Y-119366597D01*
X136766093Y-119546946D01*
X136766087Y-119546961D01*
X136764392Y-119552887D01*
X136719956Y-119639284D01*
X136645839Y-119702100D01*
X136553326Y-119731771D01*
X136456500Y-119723779D01*
X136370103Y-119679343D01*
X136307287Y-119605226D01*
X136285608Y-119552887D01*
X136283912Y-119546961D01*
X136283911Y-119546959D01*
X136283909Y-119546951D01*
X136189698Y-119366593D01*
X136061109Y-119208891D01*
X135903407Y-119080302D01*
X135903402Y-119080299D01*
X135723053Y-118986093D01*
X135723052Y-118986092D01*
X135723049Y-118986091D01*
X135527418Y-118930114D01*
X135408037Y-118919500D01*
X135408035Y-118919500D01*
X131291968Y-118919500D01*
X131291956Y-118919501D01*
X131172585Y-118930113D01*
X130976954Y-118986090D01*
X130976946Y-118986093D01*
X130796597Y-119080299D01*
X130796592Y-119080302D01*
X130638893Y-119208889D01*
X130638889Y-119208893D01*
X130510302Y-119366592D01*
X130510299Y-119366597D01*
X130416093Y-119546946D01*
X130416090Y-119546954D01*
X130360115Y-119742578D01*
X130360114Y-119742582D01*
X130349500Y-119861963D01*
X130349500Y-123978031D01*
X130349501Y-123978043D01*
X130360113Y-124097414D01*
X130360113Y-124097417D01*
X130360114Y-124097418D01*
X130363208Y-124108229D01*
X130416090Y-124293045D01*
X130416093Y-124293053D01*
X130508703Y-124470347D01*
X130510302Y-124473407D01*
X130638891Y-124631109D01*
X130796593Y-124759698D01*
X130976951Y-124853909D01*
X131172582Y-124909886D01*
X131291963Y-124920500D01*
X135408036Y-124920499D01*
X135527418Y-124909886D01*
X135723049Y-124853909D01*
X135903407Y-124759698D01*
X136061109Y-124631109D01*
X136189698Y-124473407D01*
X136283909Y-124293049D01*
X136285607Y-124287115D01*
X136330042Y-124200718D01*
X136404158Y-124137901D01*
X136496671Y-124108229D01*
X136593497Y-124116219D01*
X136679894Y-124160654D01*
X136742711Y-124234770D01*
X136764393Y-124287115D01*
X136766088Y-124293041D01*
X136766093Y-124293053D01*
X136858703Y-124470347D01*
X136860302Y-124473407D01*
X136988891Y-124631109D01*
X137146593Y-124759698D01*
X137326951Y-124853909D01*
X137522582Y-124909886D01*
X137641963Y-124920500D01*
X141758036Y-124920499D01*
X141877418Y-124909886D01*
X142073049Y-124853909D01*
X142253407Y-124759698D01*
X142411109Y-124631109D01*
X142539698Y-124473407D01*
X142633909Y-124293049D01*
X142635607Y-124287115D01*
X142680042Y-124200718D01*
X142754158Y-124137901D01*
X142846671Y-124108229D01*
X142943497Y-124116219D01*
X143029894Y-124160654D01*
X143092711Y-124234770D01*
X143114393Y-124287115D01*
X143116088Y-124293041D01*
X143116093Y-124293053D01*
X143208703Y-124470347D01*
X143210302Y-124473407D01*
X143338891Y-124631109D01*
X143496593Y-124759698D01*
X143676951Y-124853909D01*
X143872582Y-124909886D01*
X143991963Y-124920500D01*
X148108036Y-124920499D01*
X148227418Y-124909886D01*
X148423049Y-124853909D01*
X148603407Y-124759698D01*
X148761109Y-124631109D01*
X148889698Y-124473407D01*
X148983909Y-124293049D01*
X148985867Y-124286206D01*
X149030301Y-124199809D01*
X149104417Y-124136992D01*
X149196930Y-124107320D01*
X149293755Y-124115309D01*
X149380154Y-124159744D01*
X149442971Y-124233860D01*
X149464653Y-124286205D01*
X149466556Y-124292857D01*
X149466560Y-124292867D01*
X149560719Y-124473126D01*
X149560723Y-124473132D01*
X149689245Y-124630750D01*
X149689249Y-124630754D01*
X149846867Y-124759276D01*
X149846873Y-124759280D01*
X150027132Y-124853439D01*
X150027140Y-124853442D01*
X150222666Y-124909389D01*
X150222671Y-124909390D01*
X150341994Y-124919999D01*
X150341998Y-124920000D01*
X154458002Y-124920000D01*
X154458005Y-124919999D01*
X154577328Y-124909390D01*
X154577333Y-124909389D01*
X154772859Y-124853442D01*
X154772867Y-124853439D01*
X154953126Y-124759280D01*
X154953132Y-124759276D01*
X155110750Y-124630754D01*
X155110754Y-124630750D01*
X155239276Y-124473132D01*
X155239280Y-124473126D01*
X155333439Y-124292867D01*
X155333442Y-124292859D01*
X155389389Y-124097333D01*
X155389390Y-124097328D01*
X155399999Y-123978005D01*
X155400000Y-123978002D01*
X155400000Y-119861997D01*
X155399999Y-119861994D01*
X155389390Y-119742671D01*
X155389389Y-119742666D01*
X155333442Y-119547140D01*
X155333439Y-119547132D01*
X155239280Y-119366873D01*
X155239276Y-119366867D01*
X155110754Y-119209249D01*
X155110750Y-119209245D01*
X154953132Y-119080723D01*
X154953126Y-119080719D01*
X154772867Y-118986560D01*
X154772859Y-118986557D01*
X154577333Y-118930610D01*
X154577328Y-118930609D01*
X154458005Y-118920000D01*
X151242836Y-118920000D01*
X151147548Y-118901046D01*
X151066766Y-118847070D01*
X151012790Y-118766288D01*
X150993836Y-118671000D01*
X151012790Y-118575712D01*
X151066764Y-118494931D01*
X153008267Y-116553430D01*
X153089049Y-116499454D01*
X153184337Y-116480500D01*
X154605566Y-116480500D01*
X154605569Y-116480500D01*
X154605572Y-116480499D01*
X154605578Y-116480499D01*
X154733081Y-116460303D01*
X154780546Y-116452786D01*
X154949032Y-116398042D01*
X155000330Y-116371904D01*
X155000333Y-116371903D01*
X155106879Y-116317615D01*
X155129579Y-116301122D01*
X155250204Y-116213483D01*
X155305732Y-116157955D01*
X155361258Y-116102430D01*
X155442040Y-116048454D01*
X155537327Y-116029500D01*
X156065582Y-116029500D01*
X156065584Y-116029500D01*
X156196449Y-116019201D01*
X156412538Y-115964751D01*
X156615433Y-115872592D01*
X156798611Y-115745685D01*
X156956185Y-115588111D01*
X157083092Y-115404933D01*
X157175251Y-115202038D01*
X157229701Y-114985949D01*
X157240000Y-114855084D01*
X157240000Y-114754500D01*
X157258954Y-114659212D01*
X157312930Y-114578430D01*
X157393712Y-114524454D01*
X157489000Y-114505500D01*
X157997082Y-114505500D01*
X157997084Y-114505500D01*
X158127949Y-114495201D01*
X158344038Y-114440751D01*
X158393631Y-114418224D01*
X158488222Y-114396075D01*
X158584094Y-114411811D01*
X158599582Y-114418226D01*
X158648123Y-114440275D01*
X158864133Y-114494705D01*
X158864136Y-114494706D01*
X158994938Y-114504999D01*
X159722048Y-114504999D01*
X159852868Y-114494704D01*
X159854648Y-114494256D01*
X159856030Y-114494186D01*
X159863214Y-114493007D01*
X159863346Y-114493815D01*
X159951679Y-114489348D01*
X160043202Y-114521946D01*
X160115283Y-114587087D01*
X160156950Y-114674854D01*
X160164500Y-114735706D01*
X160164500Y-118670500D01*
X160145546Y-118765788D01*
X160091570Y-118846570D01*
X160010788Y-118900546D01*
X159915500Y-118919500D01*
X159231968Y-118919500D01*
X159231956Y-118919501D01*
X159112585Y-118930113D01*
X158916954Y-118986090D01*
X158916946Y-118986093D01*
X158736597Y-119080299D01*
X158736592Y-119080302D01*
X158578893Y-119208889D01*
X158578889Y-119208893D01*
X158450302Y-119366592D01*
X158450299Y-119366597D01*
X158356093Y-119546946D01*
X158356090Y-119546954D01*
X158300115Y-119742578D01*
X158300114Y-119742582D01*
X158289500Y-119861963D01*
X158289500Y-123978031D01*
X158289501Y-123978043D01*
X158300113Y-124097414D01*
X158300113Y-124097417D01*
X158300114Y-124097418D01*
X158303208Y-124108229D01*
X158356090Y-124293045D01*
X158356093Y-124293053D01*
X158448703Y-124470347D01*
X158450302Y-124473407D01*
X158578891Y-124631109D01*
X158736593Y-124759698D01*
X158916951Y-124853909D01*
X159112582Y-124909886D01*
X159231963Y-124920500D01*
X163348036Y-124920499D01*
X163467418Y-124909886D01*
X163663049Y-124853909D01*
X163843407Y-124759698D01*
X164001109Y-124631109D01*
X164129698Y-124473407D01*
X164223909Y-124293049D01*
X164225607Y-124287115D01*
X164270042Y-124200718D01*
X164344158Y-124137901D01*
X164436671Y-124108229D01*
X164533497Y-124116219D01*
X164619894Y-124160654D01*
X164682711Y-124234770D01*
X164704393Y-124287115D01*
X164706088Y-124293041D01*
X164706093Y-124293053D01*
X164798703Y-124470347D01*
X164800302Y-124473407D01*
X164928891Y-124631109D01*
X165086593Y-124759698D01*
X165266951Y-124853909D01*
X165462582Y-124909886D01*
X165581963Y-124920500D01*
X169698036Y-124920499D01*
X169817418Y-124909886D01*
X170013049Y-124853909D01*
X170193407Y-124759698D01*
X170351109Y-124631109D01*
X170479698Y-124473407D01*
X170573909Y-124293049D01*
X170629886Y-124097418D01*
X170640500Y-123978037D01*
X170640499Y-119861964D01*
X170629886Y-119742582D01*
X170573909Y-119546951D01*
X170479698Y-119366593D01*
X170351109Y-119208891D01*
X170193407Y-119080302D01*
X170193402Y-119080299D01*
X170013053Y-118986093D01*
X170013052Y-118986092D01*
X170013049Y-118986091D01*
X169817418Y-118930114D01*
X169698037Y-118919500D01*
X169698036Y-118919500D01*
X169014500Y-118919500D01*
X168919212Y-118900546D01*
X168838430Y-118846570D01*
X168784454Y-118765788D01*
X168765500Y-118670500D01*
X168765500Y-115078337D01*
X168784454Y-114983049D01*
X168838430Y-114902267D01*
X168919212Y-114848291D01*
X169014500Y-114829337D01*
X169109788Y-114848291D01*
X169190570Y-114902267D01*
X174051678Y-119763375D01*
X174105654Y-119844157D01*
X174124608Y-119939445D01*
X174105654Y-120034733D01*
X174051678Y-120115515D01*
X173990894Y-120160149D01*
X173856593Y-120230301D01*
X173856592Y-120230302D01*
X173698893Y-120358889D01*
X173698889Y-120358893D01*
X173570302Y-120516592D01*
X173570299Y-120516597D01*
X173476093Y-120696946D01*
X173476090Y-120696954D01*
X173420115Y-120892578D01*
X173420114Y-120892582D01*
X173409500Y-121011963D01*
X173409500Y-122828031D01*
X173409501Y-122828043D01*
X173420113Y-122947414D01*
X173420113Y-122947417D01*
X173420114Y-122947418D01*
X173420936Y-122950289D01*
X173476090Y-123143045D01*
X173476093Y-123143053D01*
X173565526Y-123314265D01*
X173570302Y-123323407D01*
X173698891Y-123481109D01*
X173856593Y-123609698D01*
X174036951Y-123703909D01*
X174232582Y-123759886D01*
X174351963Y-123770500D01*
X176168036Y-123770499D01*
X176287418Y-123759886D01*
X176483049Y-123703909D01*
X176663407Y-123609698D01*
X176680453Y-123595797D01*
X176766278Y-123550269D01*
X176862995Y-123541050D01*
X176955877Y-123569544D01*
X176962265Y-123573107D01*
X176979788Y-123583224D01*
X176979789Y-123583224D01*
X176979792Y-123583226D01*
X176979800Y-123583230D01*
X177129196Y-123645110D01*
X177203900Y-123676054D01*
X177203911Y-123676057D01*
X177203917Y-123676059D01*
X177307855Y-123703909D01*
X177438211Y-123738838D01*
X177678712Y-123770500D01*
X177921288Y-123770500D01*
X178161789Y-123738838D01*
X178323275Y-123695567D01*
X178396082Y-123676059D01*
X178396084Y-123676058D01*
X178396100Y-123676054D01*
X178556305Y-123609695D01*
X178620201Y-123583229D01*
X178620206Y-123583226D01*
X178620212Y-123583224D01*
X178830289Y-123461936D01*
X178918423Y-123394308D01*
X179005554Y-123351341D01*
X179102501Y-123344986D01*
X179194500Y-123376216D01*
X179221568Y-123394301D01*
X179309711Y-123461936D01*
X179353568Y-123487257D01*
X179519782Y-123583221D01*
X179519798Y-123583229D01*
X179659858Y-123641242D01*
X179743900Y-123676054D01*
X179743911Y-123676057D01*
X179743917Y-123676059D01*
X179847855Y-123703909D01*
X179978211Y-123738838D01*
X180218712Y-123770500D01*
X180461288Y-123770500D01*
X180701789Y-123738838D01*
X180863275Y-123695567D01*
X180936082Y-123676059D01*
X180936084Y-123676058D01*
X180936100Y-123676054D01*
X181096305Y-123609695D01*
X181160201Y-123583229D01*
X181160206Y-123583226D01*
X181160212Y-123583224D01*
X181370289Y-123461936D01*
X181458830Y-123393995D01*
X181545965Y-123351025D01*
X181642912Y-123344671D01*
X181734911Y-123375901D01*
X181761992Y-123393995D01*
X181849999Y-123461524D01*
X182060004Y-123582771D01*
X182060020Y-123582779D01*
X182284055Y-123675576D01*
X182284064Y-123675579D01*
X182518313Y-123738346D01*
X182758745Y-123770000D01*
X183001255Y-123770000D01*
X183241686Y-123738346D01*
X183475935Y-123675579D01*
X183475944Y-123675576D01*
X183699979Y-123582779D01*
X183699995Y-123582771D01*
X183910000Y-123461524D01*
X183910010Y-123461518D01*
X184102400Y-123313893D01*
X184102410Y-123313884D01*
X184273884Y-123142410D01*
X184273893Y-123142400D01*
X184421518Y-122950010D01*
X184421524Y-122950000D01*
X184542771Y-122739995D01*
X184542779Y-122739979D01*
X184635576Y-122515944D01*
X184635579Y-122515935D01*
X184698346Y-122281686D01*
X184730000Y-122041254D01*
X184730000Y-121798745D01*
X184698346Y-121558313D01*
X184635579Y-121324064D01*
X184635576Y-121324055D01*
X184542779Y-121100020D01*
X184542771Y-121100004D01*
X184421524Y-120889999D01*
X184421518Y-120889989D01*
X184273893Y-120697599D01*
X184273884Y-120697589D01*
X184102410Y-120526115D01*
X184102400Y-120526106D01*
X183910010Y-120378481D01*
X183910000Y-120378475D01*
X183699995Y-120257228D01*
X183699979Y-120257220D01*
X183475944Y-120164423D01*
X183475935Y-120164420D01*
X183241686Y-120101653D01*
X183001255Y-120070000D01*
X182758745Y-120070000D01*
X182518313Y-120101653D01*
X182284064Y-120164420D01*
X182284055Y-120164423D01*
X182060020Y-120257220D01*
X182060004Y-120257228D01*
X181850000Y-120378474D01*
X181761991Y-120446005D01*
X181674854Y-120488974D01*
X181577907Y-120495327D01*
X181485909Y-120464097D01*
X181458831Y-120446004D01*
X181370832Y-120378481D01*
X181370289Y-120378064D01*
X181337084Y-120358893D01*
X181160217Y-120256778D01*
X181160201Y-120256770D01*
X180936105Y-120163948D01*
X180936103Y-120163947D01*
X180936100Y-120163946D01*
X180936096Y-120163945D01*
X180936082Y-120163940D01*
X180701795Y-120101163D01*
X180701790Y-120101162D01*
X180461288Y-120069500D01*
X180218712Y-120069500D01*
X180218710Y-120069500D01*
X180210576Y-120070033D01*
X180210502Y-120068918D01*
X180121984Y-120063113D01*
X180034850Y-120020140D01*
X180010368Y-119998670D01*
X169480889Y-109469191D01*
X169479761Y-109467503D01*
X169478095Y-109466351D01*
X169452829Y-109427196D01*
X169426913Y-109388409D01*
X169426517Y-109386419D01*
X169425418Y-109384716D01*
X169417056Y-109338857D01*
X169407959Y-109293121D01*
X169408354Y-109291131D01*
X169407991Y-109289137D01*
X169417817Y-109243559D01*
X169426913Y-109197833D01*
X169428039Y-109196147D01*
X169428467Y-109194164D01*
X169454980Y-109155825D01*
X169480889Y-109117051D01*
X169482576Y-109115923D01*
X169483729Y-109114257D01*
X169522883Y-109088991D01*
X169561671Y-109063075D01*
X169563660Y-109062679D01*
X169565364Y-109061580D01*
X169611222Y-109053218D01*
X169656959Y-109044121D01*
X169658948Y-109044516D01*
X169660943Y-109044153D01*
X169676261Y-109047960D01*
X169752247Y-109063075D01*
X169755916Y-109064629D01*
X169763051Y-109067719D01*
X169934781Y-109155220D01*
X170056138Y-109194651D01*
X170066941Y-109199330D01*
X170097393Y-109220389D01*
X170129696Y-109238480D01*
X170144054Y-109251752D01*
X171605786Y-110713484D01*
X171749110Y-110817614D01*
X171906958Y-110898042D01*
X172075444Y-110952786D01*
X172108970Y-110958096D01*
X172192846Y-110971380D01*
X172250414Y-110980499D01*
X172250415Y-110980499D01*
X172250421Y-110980500D01*
X172250422Y-110980500D01*
X172427579Y-110980500D01*
X177924740Y-110980500D01*
X178020028Y-110999454D01*
X178100810Y-111053430D01*
X178154786Y-111134212D01*
X178173740Y-111229500D01*
X178154786Y-111324788D01*
X178140381Y-111354000D01*
X178019302Y-111563714D01*
X178019300Y-111563718D01*
X177925222Y-111790845D01*
X177861590Y-112028326D01*
X177829500Y-112272073D01*
X177829500Y-112517926D01*
X177861590Y-112761673D01*
X177925222Y-112999154D01*
X178019300Y-113226281D01*
X178019308Y-113226297D01*
X178142072Y-113438929D01*
X178142233Y-113439208D01*
X178159683Y-113461949D01*
X178199177Y-113513419D01*
X178242147Y-113600555D01*
X178248501Y-113697502D01*
X178217271Y-113789501D01*
X178199177Y-113816581D01*
X178142232Y-113890793D01*
X178142227Y-113890801D01*
X178019308Y-114103702D01*
X178019300Y-114103718D01*
X177925222Y-114330845D01*
X177861590Y-114568326D01*
X177829500Y-114812073D01*
X177829500Y-115057926D01*
X177861590Y-115301673D01*
X177925222Y-115539154D01*
X178019300Y-115766281D01*
X178019308Y-115766297D01*
X178142227Y-115979198D01*
X178142238Y-115979216D01*
X178291891Y-116174247D01*
X178291895Y-116174251D01*
X178291899Y-116174256D01*
X178465744Y-116348101D01*
X178465748Y-116348104D01*
X178465752Y-116348108D01*
X178660783Y-116497761D01*
X178660788Y-116497764D01*
X178660792Y-116497767D01*
X178660801Y-116497772D01*
X178873702Y-116620691D01*
X178873718Y-116620699D01*
X179062990Y-116699097D01*
X179100847Y-116714778D01*
X179338323Y-116778409D01*
X179582073Y-116810500D01*
X179827927Y-116810500D01*
X180071677Y-116778409D01*
X180309153Y-116714778D01*
X180503657Y-116634212D01*
X180536281Y-116620699D01*
X180536286Y-116620696D01*
X180536292Y-116620694D01*
X180749208Y-116497767D01*
X180823829Y-116440507D01*
X180910963Y-116397538D01*
X181007910Y-116391183D01*
X181099909Y-116422412D01*
X181126991Y-116440508D01*
X181201066Y-116497347D01*
X181413927Y-116620243D01*
X181413932Y-116620246D01*
X181641002Y-116714301D01*
X181878425Y-116777918D01*
X182122105Y-116810000D01*
X182367895Y-116810000D01*
X182611574Y-116777918D01*
X182848997Y-116714301D01*
X183076067Y-116620246D01*
X183076072Y-116620243D01*
X183288929Y-116497350D01*
X183483920Y-116347728D01*
X183657728Y-116173920D01*
X183807350Y-115978929D01*
X183930243Y-115766072D01*
X183930246Y-115766067D01*
X184024301Y-115538997D01*
X184087918Y-115301574D01*
X184120000Y-115057894D01*
X184120000Y-114812105D01*
X184087918Y-114568425D01*
X184024301Y-114331002D01*
X183930246Y-114103932D01*
X183930243Y-114103927D01*
X183807350Y-113891070D01*
X183750193Y-113816582D01*
X183707223Y-113729446D01*
X183700868Y-113632500D01*
X183732097Y-113540500D01*
X183750193Y-113513418D01*
X183807350Y-113438929D01*
X183930243Y-113226072D01*
X183930246Y-113226067D01*
X184024301Y-112998997D01*
X184087918Y-112761574D01*
X184120000Y-112517894D01*
X184120000Y-112272105D01*
X184087918Y-112028425D01*
X184024301Y-111791002D01*
X183930246Y-111563932D01*
X183930243Y-111563927D01*
X183807350Y-111351070D01*
X183750193Y-111276582D01*
X183707223Y-111189446D01*
X183700868Y-111092500D01*
X183732097Y-111000500D01*
X183750193Y-110973418D01*
X183807350Y-110898929D01*
X183930243Y-110686072D01*
X183930246Y-110686067D01*
X184024301Y-110458997D01*
X184087918Y-110221574D01*
X184120000Y-109977894D01*
X184120000Y-109732105D01*
X184087918Y-109488425D01*
X184024301Y-109251002D01*
X183930246Y-109023932D01*
X183930243Y-109023927D01*
X183807350Y-108811070D01*
X183750193Y-108736582D01*
X183707223Y-108649446D01*
X183700868Y-108552500D01*
X183732097Y-108460500D01*
X183750193Y-108433418D01*
X183807350Y-108358929D01*
X183930243Y-108146072D01*
X183930246Y-108146067D01*
X184024301Y-107918997D01*
X184087918Y-107681574D01*
X184120000Y-107437894D01*
X184120000Y-107192105D01*
X184087918Y-106948425D01*
X184024301Y-106711002D01*
X183930246Y-106483932D01*
X183930243Y-106483927D01*
X183807350Y-106271070D01*
X183750193Y-106196582D01*
X183707223Y-106109446D01*
X183700868Y-106012500D01*
X183732097Y-105920500D01*
X183750193Y-105893418D01*
X183807350Y-105818929D01*
X183930243Y-105606072D01*
X183930246Y-105606067D01*
X184024301Y-105378997D01*
X184087918Y-105141574D01*
X184120000Y-104897894D01*
X184120000Y-104652105D01*
X184087918Y-104408425D01*
X184024301Y-104171002D01*
X183930246Y-103943932D01*
X183930243Y-103943927D01*
X183807350Y-103731070D01*
X183750193Y-103656582D01*
X183707223Y-103569446D01*
X183700868Y-103472500D01*
X183732097Y-103380500D01*
X183750193Y-103353418D01*
X183807350Y-103278929D01*
X183930243Y-103066072D01*
X183930246Y-103066067D01*
X184024301Y-102838997D01*
X184087918Y-102601574D01*
X184120000Y-102357894D01*
X184120000Y-102112105D01*
X184087918Y-101868425D01*
X184024301Y-101631002D01*
X183930246Y-101403932D01*
X183930243Y-101403927D01*
X183807350Y-101191070D01*
X183750193Y-101116582D01*
X183707223Y-101029446D01*
X183700868Y-100932500D01*
X183732097Y-100840500D01*
X183750193Y-100813418D01*
X183807350Y-100738929D01*
X183930243Y-100526072D01*
X183930246Y-100526067D01*
X184024301Y-100298997D01*
X184087918Y-100061574D01*
X184120000Y-99817894D01*
X184120000Y-99572105D01*
X184087918Y-99328425D01*
X184024301Y-99091002D01*
X183930246Y-98863932D01*
X183930243Y-98863927D01*
X183807350Y-98651070D01*
X183750193Y-98576582D01*
X183707223Y-98489446D01*
X183700868Y-98392500D01*
X183732097Y-98300500D01*
X183750193Y-98273418D01*
X183807350Y-98198929D01*
X183930243Y-97986072D01*
X183930246Y-97986067D01*
X184024301Y-97758997D01*
X184087918Y-97521574D01*
X184120000Y-97277894D01*
X184120000Y-97032105D01*
X184087918Y-96788425D01*
X184024301Y-96551002D01*
X183930246Y-96323932D01*
X183930243Y-96323927D01*
X183807350Y-96111070D01*
X183750193Y-96036582D01*
X183707223Y-95949446D01*
X183700868Y-95852500D01*
X183732097Y-95760500D01*
X183750193Y-95733418D01*
X183807350Y-95658929D01*
X183930243Y-95446072D01*
X183930246Y-95446067D01*
X184024301Y-95218997D01*
X184087918Y-94981574D01*
X184120000Y-94737894D01*
X184120000Y-94492105D01*
X184087918Y-94248425D01*
X184024301Y-94011002D01*
X183930246Y-93783932D01*
X183930243Y-93783927D01*
X183807347Y-93571066D01*
X183750508Y-93496991D01*
X183707537Y-93409856D01*
X183701183Y-93312909D01*
X183732413Y-93220910D01*
X183750504Y-93193833D01*
X183807767Y-93119208D01*
X183930694Y-92906292D01*
X184024778Y-92679153D01*
X184088409Y-92441677D01*
X184120500Y-92197927D01*
X184120500Y-91952073D01*
X184088409Y-91708323D01*
X184024778Y-91470847D01*
X183980964Y-91365070D01*
X183930699Y-91243718D01*
X183930691Y-91243702D01*
X183807772Y-91030801D01*
X183807767Y-91030792D01*
X183807764Y-91030788D01*
X183807761Y-91030783D01*
X183658108Y-90835752D01*
X183658104Y-90835748D01*
X183658101Y-90835744D01*
X183484256Y-90661899D01*
X183484251Y-90661895D01*
X183484247Y-90661891D01*
X183289216Y-90512238D01*
X183289198Y-90512227D01*
X183076297Y-90389308D01*
X183076281Y-90389300D01*
X182849154Y-90295222D01*
X182766734Y-90273138D01*
X182611677Y-90231591D01*
X182611672Y-90231590D01*
X182611675Y-90231590D01*
X182367927Y-90199500D01*
X182122073Y-90199500D01*
X181878326Y-90231590D01*
X181640845Y-90295222D01*
X181413718Y-90389300D01*
X181413702Y-90389308D01*
X181200801Y-90512227D01*
X181200793Y-90512232D01*
X181126581Y-90569177D01*
X181039445Y-90612147D01*
X180942498Y-90618501D01*
X180850499Y-90587271D01*
X180823419Y-90569177D01*
X180764398Y-90523889D01*
X180749208Y-90512233D01*
X180749198Y-90512227D01*
X180536297Y-90389308D01*
X180536281Y-90389300D01*
X180309154Y-90295222D01*
X180226734Y-90273138D01*
X180071677Y-90231591D01*
X180071672Y-90231590D01*
X180071675Y-90231590D01*
X179827927Y-90199500D01*
X179582073Y-90199500D01*
X179338326Y-90231590D01*
X179100845Y-90295222D01*
X178873718Y-90389300D01*
X178873702Y-90389308D01*
X178660801Y-90512227D01*
X178660783Y-90512238D01*
X178465752Y-90661891D01*
X178291891Y-90835752D01*
X178142238Y-91030783D01*
X178142227Y-91030801D01*
X178019308Y-91243702D01*
X178019300Y-91243718D01*
X177925222Y-91470845D01*
X177861590Y-91708326D01*
X177829500Y-91952073D01*
X177829500Y-92197927D01*
X177844781Y-92313999D01*
X177838427Y-92410946D01*
X177795456Y-92498082D01*
X177722411Y-92562140D01*
X177630412Y-92593370D01*
X177597911Y-92595500D01*
X166137337Y-92595500D01*
X166042049Y-92576546D01*
X165961267Y-92522570D01*
X165907291Y-92441788D01*
X165888337Y-92346500D01*
X165907291Y-92251212D01*
X165961267Y-92170430D01*
X171239267Y-86892430D01*
X171320049Y-86838454D01*
X171415337Y-86819500D01*
X171509582Y-86819500D01*
X171509584Y-86819500D01*
X171640449Y-86809201D01*
X171856538Y-86754751D01*
X172059433Y-86662592D01*
X172242611Y-86535685D01*
X172242617Y-86535678D01*
X172251194Y-86528519D01*
X172253160Y-86530873D01*
X172316647Y-86488454D01*
X172411935Y-86469500D01*
X174298065Y-86469500D01*
X174393353Y-86488454D01*
X174456839Y-86530873D01*
X174458806Y-86528519D01*
X174467388Y-86535684D01*
X174467389Y-86535685D01*
X174650567Y-86662592D01*
X174853462Y-86754751D01*
X175069551Y-86809201D01*
X175200416Y-86819500D01*
X175200418Y-86819500D01*
X175827582Y-86819500D01*
X175827584Y-86819500D01*
X175958449Y-86809201D01*
X176174538Y-86754751D01*
X176323527Y-86687076D01*
X176418120Y-86664928D01*
X176513992Y-86680664D01*
X176529451Y-86687067D01*
X176678462Y-86754751D01*
X176894551Y-86809201D01*
X177025416Y-86819500D01*
X177025418Y-86819500D01*
X177652582Y-86819500D01*
X177652584Y-86819500D01*
X177783449Y-86809201D01*
X177999538Y-86754751D01*
X178202433Y-86662592D01*
X178385611Y-86535685D01*
X178543185Y-86378111D01*
X178670092Y-86194933D01*
X178762251Y-85992038D01*
X178816701Y-85775949D01*
X178827000Y-85645084D01*
X178827000Y-85042916D01*
X178816701Y-84912051D01*
X178762251Y-84695962D01*
X178670092Y-84493067D01*
X178543185Y-84309889D01*
X178543184Y-84309888D01*
X178543180Y-84309883D01*
X178537424Y-84304127D01*
X178483451Y-84223344D01*
X178464500Y-84128064D01*
X178464500Y-80709327D01*
X178483454Y-80614039D01*
X178537430Y-80533257D01*
X178618212Y-80479281D01*
X178691457Y-80461305D01*
X178693763Y-80461099D01*
X178707418Y-80459886D01*
X178903049Y-80403909D01*
X179083407Y-80309698D01*
X179241109Y-80181109D01*
X179369698Y-80023407D01*
X179463909Y-79843049D01*
X179519886Y-79647418D01*
X179530500Y-79528037D01*
X179530499Y-75411964D01*
X179519886Y-75292582D01*
X179463909Y-75096951D01*
X179369698Y-74916593D01*
X179241109Y-74758891D01*
X179083407Y-74630302D01*
X179083402Y-74630299D01*
X178903053Y-74536093D01*
X178903052Y-74536092D01*
X178903049Y-74536091D01*
X178707418Y-74480114D01*
X178588037Y-74469500D01*
X178588035Y-74469500D01*
X174471968Y-74469500D01*
X174471956Y-74469501D01*
X174352585Y-74480113D01*
X174156954Y-74536090D01*
X174156946Y-74536093D01*
X173976597Y-74630299D01*
X173976592Y-74630302D01*
X173818893Y-74758889D01*
X173818889Y-74758893D01*
X173690302Y-74916592D01*
X173690299Y-74916597D01*
X173596093Y-75096946D01*
X173596087Y-75096961D01*
X173594392Y-75102887D01*
X173549956Y-75189284D01*
X173475839Y-75252100D01*
X173383326Y-75281771D01*
X173286500Y-75273779D01*
X173200103Y-75229343D01*
X173137287Y-75155226D01*
X173115608Y-75102887D01*
X173113912Y-75096961D01*
X173113911Y-75096959D01*
X173113909Y-75096951D01*
X173019698Y-74916593D01*
X172891109Y-74758891D01*
X172733407Y-74630302D01*
X172733402Y-74630299D01*
X172553053Y-74536093D01*
X172553052Y-74536092D01*
X172553049Y-74536091D01*
X172357418Y-74480114D01*
X172238037Y-74469500D01*
X172238035Y-74469500D01*
X168121968Y-74469500D01*
X168121956Y-74469501D01*
X168002585Y-74480113D01*
X167806954Y-74536090D01*
X167806946Y-74536093D01*
X167626597Y-74630299D01*
X167626592Y-74630302D01*
X167468893Y-74758889D01*
X167468889Y-74758893D01*
X167340302Y-74916592D01*
X167340299Y-74916597D01*
X167246093Y-75096946D01*
X167246090Y-75096954D01*
X167190115Y-75292578D01*
X167190114Y-75292582D01*
X167179500Y-75411963D01*
X167179500Y-79528031D01*
X167179501Y-79528043D01*
X167190113Y-79647414D01*
X167190113Y-79647417D01*
X167190114Y-79647418D01*
X167242787Y-79831500D01*
X167246090Y-79843045D01*
X167246093Y-79843053D01*
X167340118Y-80023056D01*
X167340302Y-80023407D01*
X167468891Y-80181109D01*
X167626593Y-80309698D01*
X167806951Y-80403909D01*
X168002582Y-80459886D01*
X168018553Y-80461305D01*
X168111786Y-80488623D01*
X168187470Y-80549541D01*
X168234081Y-80634785D01*
X168245500Y-80709327D01*
X168245500Y-84128064D01*
X168226546Y-84223352D01*
X168172576Y-84304127D01*
X168166819Y-84309883D01*
X168166815Y-84309888D01*
X168039909Y-84493065D01*
X168039907Y-84493067D01*
X167947750Y-84695958D01*
X167893298Y-84912054D01*
X167893298Y-84912057D01*
X167883000Y-85042904D01*
X167883000Y-85645095D01*
X167893298Y-85775942D01*
X167893298Y-85775945D01*
X167947750Y-85992041D01*
X168039907Y-86194932D01*
X168039908Y-86194933D01*
X168166815Y-86378111D01*
X168192435Y-86403731D01*
X168246409Y-86484510D01*
X168265363Y-86579798D01*
X168246409Y-86675086D01*
X168192433Y-86755868D01*
X164601250Y-90347052D01*
X164520468Y-90401028D01*
X164425180Y-90419982D01*
X164329892Y-90401028D01*
X164249110Y-90347052D01*
X164195134Y-90266270D01*
X164182790Y-90227975D01*
X164182552Y-90226966D01*
X164096470Y-90032008D01*
X164096466Y-90032001D01*
X163976031Y-89856187D01*
X163976026Y-89856181D01*
X163825318Y-89705473D01*
X163825312Y-89705468D01*
X163649498Y-89585033D01*
X163649491Y-89585029D01*
X163454529Y-89498945D01*
X163247063Y-89450148D01*
X163247051Y-89450146D01*
X163158489Y-89444000D01*
X161841524Y-89444000D01*
X161752936Y-89450148D01*
X161545470Y-89498945D01*
X161350508Y-89585029D01*
X161350501Y-89585033D01*
X161174687Y-89705468D01*
X161174681Y-89705473D01*
X161023973Y-89856181D01*
X161023968Y-89856187D01*
X160903533Y-90032001D01*
X160903529Y-90032008D01*
X160813119Y-90236766D01*
X160812519Y-90239788D01*
X160790235Y-90273138D01*
X160770322Y-90307943D01*
X160763404Y-90313294D01*
X160758543Y-90320570D01*
X160725188Y-90342856D01*
X160693476Y-90367388D01*
X160685036Y-90369684D01*
X160677761Y-90374546D01*
X160638423Y-90382370D01*
X160599731Y-90392901D01*
X160582473Y-90393500D01*
X160099527Y-90393500D01*
X160004239Y-90374546D01*
X159923457Y-90320570D01*
X159869481Y-90239788D01*
X159865411Y-90228912D01*
X159778470Y-90032008D01*
X159778466Y-90032001D01*
X159658031Y-89856187D01*
X159658026Y-89856181D01*
X159507318Y-89705473D01*
X159507312Y-89705468D01*
X159331498Y-89585033D01*
X159331491Y-89585029D01*
X159136529Y-89498945D01*
X158929063Y-89450148D01*
X158929051Y-89450146D01*
X158840490Y-89444000D01*
X157681500Y-89444000D01*
X157586212Y-89425046D01*
X157505430Y-89371070D01*
X157451454Y-89290288D01*
X157432500Y-89195000D01*
X157432500Y-87058101D01*
X157451454Y-86962813D01*
X157505430Y-86882031D01*
X157586212Y-86828055D01*
X157661965Y-86809868D01*
X157670449Y-86809201D01*
X157886538Y-86754751D01*
X158089433Y-86662592D01*
X158272611Y-86535685D01*
X158272617Y-86535678D01*
X158281194Y-86528519D01*
X158283160Y-86530873D01*
X158346647Y-86488454D01*
X158441935Y-86469500D01*
X160535065Y-86469500D01*
X160630353Y-86488454D01*
X160693839Y-86530873D01*
X160695806Y-86528519D01*
X160704388Y-86535684D01*
X160704389Y-86535685D01*
X160887567Y-86662592D01*
X161090462Y-86754751D01*
X161306551Y-86809201D01*
X161437416Y-86819500D01*
X161437418Y-86819500D01*
X162064582Y-86819500D01*
X162064584Y-86819500D01*
X162195449Y-86809201D01*
X162411538Y-86754751D01*
X162560527Y-86687076D01*
X162655120Y-86664928D01*
X162750992Y-86680664D01*
X162766451Y-86687067D01*
X162915462Y-86754751D01*
X163131551Y-86809201D01*
X163262416Y-86819500D01*
X163262418Y-86819500D01*
X163889582Y-86819500D01*
X163889584Y-86819500D01*
X164020449Y-86809201D01*
X164236538Y-86754751D01*
X164439433Y-86662592D01*
X164622611Y-86535685D01*
X164780185Y-86378111D01*
X164907092Y-86194933D01*
X164999251Y-85992038D01*
X165053701Y-85775949D01*
X165064000Y-85645084D01*
X165064000Y-85042916D01*
X165053701Y-84912051D01*
X164999251Y-84695962D01*
X164907092Y-84493067D01*
X164780185Y-84309889D01*
X164780184Y-84309888D01*
X164780180Y-84309883D01*
X164774424Y-84304127D01*
X164720451Y-84223344D01*
X164701500Y-84128064D01*
X164701500Y-80657908D01*
X164720454Y-80562620D01*
X164774430Y-80481838D01*
X164855212Y-80427862D01*
X164881996Y-80418517D01*
X164933049Y-80403909D01*
X165113407Y-80309698D01*
X165271109Y-80181109D01*
X165399698Y-80023407D01*
X165493909Y-79843049D01*
X165549886Y-79647418D01*
X165560500Y-79528037D01*
X165560499Y-75411964D01*
X165549886Y-75292582D01*
X165493909Y-75096951D01*
X165399698Y-74916593D01*
X165271109Y-74758891D01*
X165113407Y-74630302D01*
X165113402Y-74630299D01*
X164933053Y-74536093D01*
X164933052Y-74536092D01*
X164933049Y-74536091D01*
X164737418Y-74480114D01*
X164618037Y-74469500D01*
X164618035Y-74469500D01*
X160501968Y-74469500D01*
X160501956Y-74469501D01*
X160382585Y-74480113D01*
X160186954Y-74536090D01*
X160186946Y-74536093D01*
X160006597Y-74630299D01*
X160006592Y-74630302D01*
X159848893Y-74758889D01*
X159848889Y-74758893D01*
X159720302Y-74916592D01*
X159720299Y-74916597D01*
X159626093Y-75096946D01*
X159626087Y-75096961D01*
X159624392Y-75102887D01*
X159579956Y-75189284D01*
X159505839Y-75252100D01*
X159413326Y-75281771D01*
X159316500Y-75273779D01*
X159230103Y-75229343D01*
X159167287Y-75155226D01*
X159145608Y-75102887D01*
X159143912Y-75096961D01*
X159143911Y-75096959D01*
X159143909Y-75096951D01*
X159049698Y-74916593D01*
X158921109Y-74758891D01*
X158763407Y-74630302D01*
X158763402Y-74630299D01*
X158583053Y-74536093D01*
X158583052Y-74536092D01*
X158583049Y-74536091D01*
X158387418Y-74480114D01*
X158268037Y-74469500D01*
X158268035Y-74469500D01*
X154151968Y-74469500D01*
X154151956Y-74469501D01*
X154032585Y-74480113D01*
X153836954Y-74536090D01*
X153836946Y-74536093D01*
X153656597Y-74630299D01*
X153656592Y-74630302D01*
X153498893Y-74758889D01*
X153498889Y-74758893D01*
X153370302Y-74916592D01*
X153370299Y-74916597D01*
X153276093Y-75096946D01*
X153276090Y-75096954D01*
X153220115Y-75292578D01*
X153220114Y-75292582D01*
X153209500Y-75411963D01*
X153209500Y-79528031D01*
X153209501Y-79528043D01*
X153220113Y-79647414D01*
X153220113Y-79647417D01*
X153220114Y-79647418D01*
X153272787Y-79831500D01*
X153276090Y-79843045D01*
X153276093Y-79843053D01*
X153370118Y-80023056D01*
X153370302Y-80023407D01*
X153498891Y-80181109D01*
X153656593Y-80309698D01*
X153836951Y-80403909D01*
X154032582Y-80459886D01*
X154048553Y-80461305D01*
X154141786Y-80488623D01*
X154217470Y-80549541D01*
X154264081Y-80634785D01*
X154275500Y-80709327D01*
X154275500Y-84128064D01*
X154256546Y-84223352D01*
X154202576Y-84304127D01*
X154196819Y-84309883D01*
X154196815Y-84309888D01*
X154069909Y-84493065D01*
X154069907Y-84493067D01*
X153977750Y-84695958D01*
X153923298Y-84912054D01*
X153923298Y-84912057D01*
X153913000Y-85042904D01*
X153913000Y-85645095D01*
X153923298Y-85775942D01*
X153923298Y-85775945D01*
X153977750Y-85992041D01*
X154069907Y-86194932D01*
X154069908Y-86194933D01*
X154196815Y-86378111D01*
X154354389Y-86535685D01*
X154537567Y-86662592D01*
X154740462Y-86754751D01*
X154956551Y-86809201D01*
X154956556Y-86809201D01*
X154966896Y-86810899D01*
X154966560Y-86812942D01*
X155045537Y-86835214D01*
X155121836Y-86895360D01*
X155169311Y-86980126D01*
X155181500Y-87057078D01*
X155181500Y-89319905D01*
X155162546Y-89415193D01*
X155108570Y-89495975D01*
X155027788Y-89549951D01*
X154932500Y-89568905D01*
X154837212Y-89549951D01*
X154831924Y-89547689D01*
X154721529Y-89498945D01*
X154514063Y-89450148D01*
X154514051Y-89450146D01*
X154425489Y-89444000D01*
X153108524Y-89444000D01*
X153019936Y-89450148D01*
X152812470Y-89498945D01*
X152617508Y-89585029D01*
X152617501Y-89585033D01*
X152441687Y-89705468D01*
X152441681Y-89705473D01*
X152290973Y-89856181D01*
X152290968Y-89856187D01*
X152198182Y-89991639D01*
X152128694Y-90059540D01*
X152038511Y-90095680D01*
X151941363Y-90094558D01*
X151852039Y-90056344D01*
X151816688Y-90026990D01*
X149028092Y-87238394D01*
X148974116Y-87157612D01*
X148955162Y-87062324D01*
X148974116Y-86967036D01*
X149028092Y-86886254D01*
X149108874Y-86832278D01*
X149204162Y-86813324D01*
X149223698Y-86814091D01*
X149292416Y-86819500D01*
X149292418Y-86819500D01*
X149919582Y-86819500D01*
X149919584Y-86819500D01*
X150050449Y-86809201D01*
X150266538Y-86754751D01*
X150469433Y-86662592D01*
X150652611Y-86535685D01*
X150810185Y-86378111D01*
X150937092Y-86194933D01*
X151029251Y-85992038D01*
X151083701Y-85775949D01*
X151094000Y-85645084D01*
X151094000Y-85042916D01*
X151083701Y-84912051D01*
X151029251Y-84695962D01*
X150937092Y-84493067D01*
X150810185Y-84309889D01*
X150810184Y-84309888D01*
X150810180Y-84309883D01*
X150804424Y-84304127D01*
X150750451Y-84223344D01*
X150731500Y-84128064D01*
X150731500Y-80657908D01*
X150750454Y-80562620D01*
X150804430Y-80481838D01*
X150885212Y-80427862D01*
X150911996Y-80418517D01*
X150963049Y-80403909D01*
X151143407Y-80309698D01*
X151301109Y-80181109D01*
X151429698Y-80023407D01*
X151523909Y-79843049D01*
X151579886Y-79647418D01*
X151590500Y-79528037D01*
X151590499Y-75411964D01*
X151579886Y-75292582D01*
X151523909Y-75096951D01*
X151429698Y-74916593D01*
X151301109Y-74758891D01*
X151143407Y-74630302D01*
X151143402Y-74630299D01*
X150963053Y-74536093D01*
X150963052Y-74536092D01*
X150963049Y-74536091D01*
X150767418Y-74480114D01*
X150648037Y-74469500D01*
X150648035Y-74469500D01*
X146531968Y-74469500D01*
X146531956Y-74469501D01*
X146412585Y-74480113D01*
X146216954Y-74536090D01*
X146216946Y-74536093D01*
X146036597Y-74630299D01*
X146036592Y-74630302D01*
X145878893Y-74758889D01*
X145878889Y-74758893D01*
X145750302Y-74916592D01*
X145750299Y-74916597D01*
X145656093Y-75096946D01*
X145656087Y-75096961D01*
X145654392Y-75102887D01*
X145609956Y-75189284D01*
X145535839Y-75252100D01*
X145443326Y-75281771D01*
X145346500Y-75273779D01*
X145260103Y-75229343D01*
X145197287Y-75155226D01*
X145175608Y-75102887D01*
X145173912Y-75096961D01*
X145173911Y-75096959D01*
X145173909Y-75096951D01*
X145079698Y-74916593D01*
X144951109Y-74758891D01*
X144793407Y-74630302D01*
X144793402Y-74630299D01*
X144613053Y-74536093D01*
X144613052Y-74536092D01*
X144613049Y-74536091D01*
X144417418Y-74480114D01*
X144298037Y-74469500D01*
X144298035Y-74469500D01*
X140181968Y-74469500D01*
X140181956Y-74469501D01*
X140062585Y-74480113D01*
X139866954Y-74536090D01*
X139866946Y-74536093D01*
X139686597Y-74630299D01*
X139686592Y-74630302D01*
X139528893Y-74758889D01*
X139528889Y-74758893D01*
X139400302Y-74916592D01*
X139400299Y-74916597D01*
X139306093Y-75096946D01*
X139306090Y-75096954D01*
X139250115Y-75292578D01*
X139250114Y-75292582D01*
X139239500Y-75411963D01*
X139239500Y-79528031D01*
X139239501Y-79528043D01*
X139250113Y-79647414D01*
X139250113Y-79647417D01*
X139250114Y-79647418D01*
X139302787Y-79831500D01*
X139306090Y-79843045D01*
X139306093Y-79843053D01*
X139400118Y-80023056D01*
X139400302Y-80023407D01*
X139528891Y-80181109D01*
X139686593Y-80309698D01*
X139866951Y-80403909D01*
X140062582Y-80459886D01*
X140078553Y-80461305D01*
X140171786Y-80488623D01*
X140247470Y-80549541D01*
X140294081Y-80634785D01*
X140305500Y-80709327D01*
X140305500Y-84128064D01*
X140286546Y-84223352D01*
X140232576Y-84304127D01*
X140226819Y-84309883D01*
X140226815Y-84309888D01*
X140099909Y-84493065D01*
X140099907Y-84493067D01*
X140007750Y-84695958D01*
X139953298Y-84912054D01*
X139953298Y-84912057D01*
X139943000Y-85042904D01*
X139943000Y-85645095D01*
X139953298Y-85775942D01*
X139953298Y-85775945D01*
X140007750Y-85992041D01*
X140099907Y-86194932D01*
X140099908Y-86194933D01*
X140226815Y-86378111D01*
X140384389Y-86535685D01*
X140567567Y-86662592D01*
X140770462Y-86754751D01*
X140986551Y-86809201D01*
X141117416Y-86819500D01*
X141117418Y-86819500D01*
X141744582Y-86819500D01*
X141744584Y-86819500D01*
X141875449Y-86809201D01*
X142091538Y-86754751D01*
X142240527Y-86687076D01*
X142335120Y-86664928D01*
X142430992Y-86680664D01*
X142446451Y-86687067D01*
X142595462Y-86754751D01*
X142811551Y-86809201D01*
X142942416Y-86819500D01*
X142942418Y-86819500D01*
X143569582Y-86819500D01*
X143569584Y-86819500D01*
X143700449Y-86809201D01*
X143916538Y-86754751D01*
X144119433Y-86662592D01*
X144302611Y-86535685D01*
X144302617Y-86535678D01*
X144311194Y-86528519D01*
X144313160Y-86530873D01*
X144376647Y-86488454D01*
X144471935Y-86469500D01*
X146406500Y-86469500D01*
X146501788Y-86488454D01*
X146582570Y-86542430D01*
X146636546Y-86623212D01*
X146655500Y-86718500D01*
X146655500Y-87671588D01*
X146683213Y-87846553D01*
X146683214Y-87846556D01*
X146715738Y-87946654D01*
X146737958Y-88015042D01*
X146818386Y-88172890D01*
X146840346Y-88203115D01*
X146850205Y-88223797D01*
X146856627Y-88249107D01*
X146867558Y-88272820D01*
X146868458Y-88295735D01*
X146874099Y-88317968D01*
X146870346Y-88343808D01*
X146871371Y-88369900D01*
X146863432Y-88391418D01*
X146860136Y-88414114D01*
X146846780Y-88436551D01*
X146837742Y-88461050D01*
X146822173Y-88477890D01*
X146810443Y-88497599D01*
X146789516Y-88513218D01*
X146771792Y-88532392D01*
X146750964Y-88541993D01*
X146732584Y-88555712D01*
X146707273Y-88562134D01*
X146683561Y-88573065D01*
X146657938Y-88577814D01*
X146450209Y-88605162D01*
X146450204Y-88605163D01*
X146215917Y-88667940D01*
X146215894Y-88667948D01*
X145991798Y-88760770D01*
X145991782Y-88760778D01*
X145781720Y-88882058D01*
X145781710Y-88882064D01*
X145589268Y-89029729D01*
X145589258Y-89029738D01*
X145417738Y-89201258D01*
X145417729Y-89201268D01*
X145270064Y-89393710D01*
X145270058Y-89393720D01*
X145148778Y-89603782D01*
X145148770Y-89603798D01*
X145055948Y-89827894D01*
X145055940Y-89827917D01*
X144993163Y-90062204D01*
X144993162Y-90062209D01*
X144961500Y-90302712D01*
X144961500Y-90545287D01*
X144993162Y-90785790D01*
X144993163Y-90785795D01*
X145055940Y-91020082D01*
X145055948Y-91020105D01*
X145148769Y-91244199D01*
X145148773Y-91244205D01*
X145148776Y-91244212D01*
X145158867Y-91261690D01*
X145190096Y-91353686D01*
X145183742Y-91450633D01*
X145140772Y-91537769D01*
X145136210Y-91543536D01*
X145122300Y-91560595D01*
X145122299Y-91560596D01*
X145028093Y-91740946D01*
X145028090Y-91740954D01*
X144972115Y-91936578D01*
X144972114Y-91936582D01*
X144961500Y-92055963D01*
X144961500Y-93872031D01*
X144961501Y-93872043D01*
X144972113Y-93991414D01*
X144972113Y-93991417D01*
X144972114Y-93991418D01*
X145028091Y-94187049D01*
X145122302Y-94367407D01*
X145250891Y-94525109D01*
X145392254Y-94640375D01*
X145408592Y-94653697D01*
X145408596Y-94653700D01*
X145476259Y-94689043D01*
X145552786Y-94729018D01*
X145628469Y-94789935D01*
X145675080Y-94875178D01*
X145686500Y-94949721D01*
X145686500Y-99518485D01*
X145667546Y-99613773D01*
X145613570Y-99694555D01*
X145532788Y-99748531D01*
X145437500Y-99767485D01*
X145342212Y-99748531D01*
X145334524Y-99745194D01*
X145173877Y-99672224D01*
X144957866Y-99617794D01*
X144957863Y-99617793D01*
X144827061Y-99607500D01*
X144224951Y-99607500D01*
X144094130Y-99617795D01*
X143878120Y-99672225D01*
X143675322Y-99764341D01*
X143675308Y-99764349D01*
X143651798Y-99780637D01*
X143562677Y-99819320D01*
X143465535Y-99820954D01*
X143375163Y-99785289D01*
X143368202Y-99780637D01*
X143344691Y-99764349D01*
X143344677Y-99764341D01*
X143141879Y-99672225D01*
X142925866Y-99617794D01*
X142925863Y-99617793D01*
X142795061Y-99607500D01*
X142192951Y-99607500D01*
X142062130Y-99617795D01*
X141846124Y-99672224D01*
X141643312Y-99764346D01*
X141643307Y-99764349D01*
X141470302Y-99884208D01*
X141445905Y-99894797D01*
X141423788Y-99909576D01*
X141401770Y-99913955D01*
X141381181Y-99922893D01*
X141354588Y-99923340D01*
X141328500Y-99928530D01*
X141306481Y-99924150D01*
X141284039Y-99924528D01*
X141259299Y-99914765D01*
X141233212Y-99909576D01*
X141214547Y-99897104D01*
X141193667Y-99888865D01*
X141174546Y-99870377D01*
X141152430Y-99855600D01*
X141139957Y-99836933D01*
X141123822Y-99821332D01*
X141113232Y-99796935D01*
X141098454Y-99774818D01*
X141094074Y-99752800D01*
X141085137Y-99732211D01*
X141079500Y-99679530D01*
X141079500Y-99375335D01*
X141098454Y-99280047D01*
X141152426Y-99199270D01*
X141776675Y-98575020D01*
X141857454Y-98521046D01*
X141952742Y-98502092D01*
X141985238Y-98504221D01*
X142108880Y-98520500D01*
X142108882Y-98520500D01*
X142371120Y-98520500D01*
X142631116Y-98486270D01*
X142884419Y-98418398D01*
X143126697Y-98318043D01*
X143353803Y-98186924D01*
X143561851Y-98027282D01*
X143747282Y-97841851D01*
X143906924Y-97633803D01*
X144038043Y-97406697D01*
X144138398Y-97164419D01*
X144206270Y-96911116D01*
X144240500Y-96651120D01*
X144240500Y-96388880D01*
X144206270Y-96128884D01*
X144138398Y-95875581D01*
X144038043Y-95633303D01*
X143906924Y-95406197D01*
X143906920Y-95406192D01*
X143906917Y-95406187D01*
X143747286Y-95198154D01*
X143747285Y-95198153D01*
X143747282Y-95198149D01*
X143561851Y-95012718D01*
X143479753Y-94949721D01*
X143462916Y-94936801D01*
X143398858Y-94863756D01*
X143367630Y-94771756D01*
X143365500Y-94739258D01*
X143365500Y-91800740D01*
X143384454Y-91705452D01*
X143438430Y-91624670D01*
X143462914Y-91603198D01*
X143561851Y-91527282D01*
X143747282Y-91341851D01*
X143906924Y-91133803D01*
X144038043Y-90906697D01*
X144138398Y-90664419D01*
X144206270Y-90411116D01*
X144240500Y-90151120D01*
X144240500Y-89888880D01*
X144206270Y-89628884D01*
X144138398Y-89375581D01*
X144038043Y-89133303D01*
X143906924Y-88906197D01*
X143906920Y-88906192D01*
X143906917Y-88906187D01*
X143747286Y-88698154D01*
X143747285Y-88698153D01*
X143747282Y-88698149D01*
X143561851Y-88512718D01*
X143561846Y-88512714D01*
X143561845Y-88512713D01*
X143353812Y-88353082D01*
X143353798Y-88353073D01*
X143277651Y-88309110D01*
X143126697Y-88221957D01*
X143126695Y-88221956D01*
X143126693Y-88221955D01*
X143126689Y-88221953D01*
X142884417Y-88121601D01*
X142768098Y-88090434D01*
X142631116Y-88053730D01*
X142631111Y-88053729D01*
X142631114Y-88053729D01*
X142371120Y-88019500D01*
X142108880Y-88019500D01*
X141848887Y-88053729D01*
X141595582Y-88121601D01*
X141353310Y-88221953D01*
X141353306Y-88221955D01*
X141126201Y-88353073D01*
X141126187Y-88353082D01*
X140918154Y-88512713D01*
X140732713Y-88698154D01*
X140573082Y-88906187D01*
X140573073Y-88906201D01*
X140441955Y-89133306D01*
X140441953Y-89133310D01*
X140341601Y-89375582D01*
X140273729Y-89628887D01*
X140239500Y-89888880D01*
X140239500Y-90151119D01*
X140273729Y-90411112D01*
X140341601Y-90664417D01*
X140441953Y-90906689D01*
X140441955Y-90906693D01*
X140573073Y-91133798D01*
X140573082Y-91133812D01*
X140732466Y-91341523D01*
X140732718Y-91341851D01*
X140918149Y-91527282D01*
X141017082Y-91603196D01*
X141081140Y-91676240D01*
X141112370Y-91768239D01*
X141114500Y-91800740D01*
X141114500Y-94739258D01*
X141095546Y-94834546D01*
X141041570Y-94915328D01*
X141017084Y-94936801D01*
X140918152Y-95012715D01*
X140732713Y-95198154D01*
X140573082Y-95406187D01*
X140573073Y-95406201D01*
X140441955Y-95633306D01*
X140441953Y-95633310D01*
X140341601Y-95875582D01*
X140273729Y-96128887D01*
X140239500Y-96388880D01*
X140239500Y-96651122D01*
X140255776Y-96774755D01*
X140254701Y-96791145D01*
X140257906Y-96807255D01*
X140251551Y-96839201D01*
X140249421Y-96871702D01*
X140242156Y-96886432D01*
X140238952Y-96902543D01*
X140220854Y-96929628D01*
X140206450Y-96958837D01*
X140184976Y-96983325D01*
X140140849Y-97027452D01*
X140060067Y-97081428D01*
X139964779Y-97100382D01*
X139869491Y-97081428D01*
X139788709Y-97027452D01*
X139734733Y-96946670D01*
X139715779Y-96851382D01*
X139717909Y-96818880D01*
X139740000Y-96651086D01*
X139740000Y-96388912D01*
X139705779Y-96128986D01*
X139637925Y-95875746D01*
X139537589Y-95633516D01*
X139406512Y-95406485D01*
X139246903Y-95198476D01*
X139061523Y-95013096D01*
X138853514Y-94853487D01*
X138853514Y-94853486D01*
X138626483Y-94722410D01*
X138384253Y-94622074D01*
X138131012Y-94554220D01*
X138131014Y-94554220D01*
X137871088Y-94520000D01*
X137608912Y-94520000D01*
X137348986Y-94554220D01*
X137095746Y-94622074D01*
X136853516Y-94722410D01*
X136626485Y-94853486D01*
X136626485Y-94853487D01*
X136418476Y-95013096D01*
X136233096Y-95198476D01*
X136073487Y-95406485D01*
X136073486Y-95406485D01*
X135942410Y-95633516D01*
X135842074Y-95875746D01*
X135774220Y-96128986D01*
X135740000Y-96388912D01*
X135740000Y-96651087D01*
X135774220Y-96911013D01*
X135842074Y-97164253D01*
X135942410Y-97406483D01*
X136073487Y-97633514D01*
X136233096Y-97841523D01*
X136418476Y-98026903D01*
X136626485Y-98186512D01*
X136626485Y-98186513D01*
X136853516Y-98317589D01*
X137095746Y-98417925D01*
X137271375Y-98464984D01*
X137358511Y-98507955D01*
X137422570Y-98580999D01*
X137453800Y-98672998D01*
X137447446Y-98769945D01*
X137404475Y-98857081D01*
X137331431Y-98921140D01*
X137239432Y-98952370D01*
X137206930Y-98954500D01*
X136543736Y-98954500D01*
X136329914Y-98988367D01*
X136329896Y-98988372D01*
X136124001Y-99055270D01*
X136123993Y-99055273D01*
X136123991Y-99055274D01*
X136123987Y-99055275D01*
X136123980Y-99055279D01*
X135931089Y-99153561D01*
X135931085Y-99153564D01*
X135755926Y-99280824D01*
X135602824Y-99433926D01*
X135530656Y-99533255D01*
X135505283Y-99562964D01*
X135295719Y-99772528D01*
X135214937Y-99826504D01*
X135176660Y-99838843D01*
X135042590Y-99870377D01*
X135010311Y-99877969D01*
X134853076Y-99947395D01*
X134811094Y-99956758D01*
X134769598Y-99968023D01*
X134764554Y-99967138D01*
X134758251Y-99968545D01*
X134673233Y-99955657D01*
X134662385Y-99952014D01*
X134494685Y-99877968D01*
X134318455Y-99836518D01*
X134307471Y-99832830D01*
X134275177Y-99814325D01*
X134241311Y-99798902D01*
X134231884Y-99789519D01*
X134223174Y-99784528D01*
X134210871Y-99768603D01*
X134185293Y-99743143D01*
X134145176Y-99687927D01*
X134145174Y-99687925D01*
X134145172Y-99687922D01*
X134055750Y-99598500D01*
X133944578Y-99487327D01*
X133769419Y-99360067D01*
X133769420Y-99360067D01*
X133769418Y-99360066D01*
X133576519Y-99261779D01*
X133576517Y-99261778D01*
X133576509Y-99261774D01*
X133576502Y-99261771D01*
X133576498Y-99261770D01*
X133370603Y-99194872D01*
X133370604Y-99194872D01*
X133370597Y-99194870D01*
X133370594Y-99194869D01*
X133370585Y-99194867D01*
X133156763Y-99161000D01*
X133156754Y-99161000D01*
X132743145Y-99161000D01*
X132647857Y-99142046D01*
X132640169Y-99138709D01*
X132474041Y-99063250D01*
X132474039Y-99063249D01*
X132474038Y-99063249D01*
X132257949Y-99008799D01*
X132257947Y-99008798D01*
X132257944Y-99008798D01*
X132127095Y-98998500D01*
X132127084Y-98998500D01*
X131524916Y-98998500D01*
X131524904Y-98998500D01*
X131394057Y-99008798D01*
X131394054Y-99008798D01*
X131177958Y-99063250D01*
X130975067Y-99155407D01*
X130975065Y-99155409D01*
X130791890Y-99282314D01*
X130634314Y-99439890D01*
X130507409Y-99623065D01*
X130507407Y-99623067D01*
X130415250Y-99825958D01*
X130360798Y-100042054D01*
X130360798Y-100042057D01*
X130350500Y-100172904D01*
X130350500Y-100900095D01*
X130360798Y-101030942D01*
X130360799Y-101030949D01*
X130415249Y-101247038D01*
X130415250Y-101247041D01*
X130415251Y-101247043D01*
X130437774Y-101296630D01*
X130459923Y-101391227D01*
X130444186Y-101487099D01*
X130437776Y-101502574D01*
X130415724Y-101551125D01*
X130361294Y-101767133D01*
X130361293Y-101767136D01*
X130351000Y-101897932D01*
X130351000Y-102625048D01*
X130361295Y-102755869D01*
X130415724Y-102971875D01*
X130507846Y-103174687D01*
X130507849Y-103174692D01*
X130634696Y-103357784D01*
X130792215Y-103515303D01*
X130975307Y-103642150D01*
X130975312Y-103642153D01*
X131178124Y-103734275D01*
X131394133Y-103788705D01*
X131394136Y-103788706D01*
X131524938Y-103798999D01*
X132005175Y-103798999D01*
X132100464Y-103817953D01*
X132181245Y-103871929D01*
X132210596Y-103907273D01*
X132213589Y-103911642D01*
X132364358Y-104062411D01*
X132540263Y-104182909D01*
X132735315Y-104269032D01*
X132942870Y-104317849D01*
X132942875Y-104317849D01*
X132942879Y-104317850D01*
X133031483Y-104324000D01*
X133031488Y-104324000D01*
X134198517Y-104324000D01*
X134287120Y-104317850D01*
X134287123Y-104317849D01*
X134287130Y-104317849D01*
X134494685Y-104269032D01*
X134539882Y-104249076D01*
X134590475Y-104226737D01*
X134620000Y-104213700D01*
X134620000Y-104648000D01*
X138430000Y-104648000D01*
X138430000Y-103629437D01*
X138476523Y-103608306D01*
X138571119Y-103586155D01*
X138666991Y-103601891D01*
X138749544Y-103653118D01*
X138806208Y-103732037D01*
X138828359Y-103826633D01*
X138828500Y-103835014D01*
X138828500Y-104551564D01*
X138809546Y-104646852D01*
X138767137Y-104710349D01*
X138769481Y-104712306D01*
X138762315Y-104720888D01*
X138635409Y-104904065D01*
X138635407Y-104904067D01*
X138543250Y-105106958D01*
X138488798Y-105323054D01*
X138488798Y-105323057D01*
X138478500Y-105453904D01*
X138478500Y-106181095D01*
X138485724Y-106272882D01*
X138488799Y-106311949D01*
X138543249Y-106528038D01*
X138543250Y-106528041D01*
X138543251Y-106528043D01*
X138565774Y-106577630D01*
X138587923Y-106672227D01*
X138572186Y-106768099D01*
X138565776Y-106783574D01*
X138543724Y-106832125D01*
X138489294Y-107048133D01*
X138489293Y-107048136D01*
X138479000Y-107178932D01*
X138479000Y-107906048D01*
X138489295Y-108036869D01*
X138543724Y-108252875D01*
X138635846Y-108455687D01*
X138635849Y-108455692D01*
X138762696Y-108638784D01*
X138920215Y-108796303D01*
X139103307Y-108923150D01*
X139103312Y-108923153D01*
X139306124Y-109015275D01*
X139522133Y-109069705D01*
X139522136Y-109069706D01*
X139652938Y-109079999D01*
X140255048Y-109079999D01*
X140385869Y-109069704D01*
X140601874Y-109015275D01*
X140668553Y-108984988D01*
X140763149Y-108962837D01*
X140859021Y-108978572D01*
X140941574Y-109029798D01*
X140998240Y-109108717D01*
X141019764Y-109192159D01*
X141028798Y-109306942D01*
X141028798Y-109306945D01*
X141028798Y-109306948D01*
X141028799Y-109306949D01*
X141082407Y-109519698D01*
X141083250Y-109523041D01*
X141112359Y-109587126D01*
X141154771Y-109680500D01*
X141155592Y-109682306D01*
X141177742Y-109776902D01*
X141162006Y-109872774D01*
X141155592Y-109888258D01*
X141061250Y-110095958D01*
X141006798Y-110312054D01*
X141006798Y-110312057D01*
X140996500Y-110442904D01*
X140996500Y-110639500D01*
X140977546Y-110734788D01*
X140923570Y-110815570D01*
X140842788Y-110869546D01*
X140747500Y-110888500D01*
X135740500Y-110888500D01*
X135645212Y-110869546D01*
X135564430Y-110815570D01*
X135510454Y-110734788D01*
X135491500Y-110639500D01*
X135491500Y-109927935D01*
X135510454Y-109832647D01*
X135564427Y-109751868D01*
X135570185Y-109746111D01*
X135697092Y-109562933D01*
X135789251Y-109360038D01*
X135843701Y-109143949D01*
X135854000Y-109013084D01*
X135854000Y-108410916D01*
X135843701Y-108280051D01*
X135789251Y-108063962D01*
X135697092Y-107861067D01*
X135570185Y-107677889D01*
X135412611Y-107520315D01*
X135229433Y-107393408D01*
X135229432Y-107393407D01*
X135026541Y-107301250D01*
X135026539Y-107301249D01*
X135026538Y-107301249D01*
X134810449Y-107246799D01*
X134810447Y-107246798D01*
X134810444Y-107246798D01*
X134679595Y-107236500D01*
X134679584Y-107236500D01*
X134052416Y-107236500D01*
X134052404Y-107236500D01*
X133921557Y-107246798D01*
X133921554Y-107246798D01*
X133705456Y-107301250D01*
X133556475Y-107368921D01*
X133461879Y-107391071D01*
X133366007Y-107375334D01*
X133350525Y-107368921D01*
X133201543Y-107301250D01*
X133071142Y-107268392D01*
X132985449Y-107246799D01*
X132985447Y-107246798D01*
X132985444Y-107246798D01*
X132854595Y-107236500D01*
X132854584Y-107236500D01*
X132760337Y-107236500D01*
X132665049Y-107217546D01*
X132584267Y-107163570D01*
X123118430Y-97697733D01*
X123064454Y-97616951D01*
X123045500Y-97521663D01*
X123045500Y-88847499D01*
X123064454Y-88752211D01*
X123118430Y-88671429D01*
X123199212Y-88617453D01*
X123294500Y-88598499D01*
X123978032Y-88598499D01*
X123978036Y-88598499D01*
X124097418Y-88587886D01*
X124293049Y-88531909D01*
X124473407Y-88437698D01*
X124631109Y-88309109D01*
X124759698Y-88151407D01*
X124853909Y-87971049D01*
X124909886Y-87775418D01*
X124920500Y-87656037D01*
X124920499Y-87633749D01*
X124927510Y-87598497D01*
X124930849Y-87562701D01*
X124936915Y-87551208D01*
X124939450Y-87538465D01*
X124959419Y-87508575D01*
X124976203Y-87476781D01*
X124985089Y-87470154D01*
X124993423Y-87457682D01*
X125050984Y-87414758D01*
X125062299Y-87408633D01*
X125092697Y-87396043D01*
X125196454Y-87336139D01*
X125319803Y-87264924D01*
X125410131Y-87195611D01*
X125527851Y-87105283D01*
X127066930Y-85566202D01*
X127147712Y-85512227D01*
X127243000Y-85493273D01*
X127338288Y-85512227D01*
X127419070Y-85566203D01*
X127473046Y-85646985D01*
X127492000Y-85742273D01*
X127492000Y-87607500D01*
X127510099Y-87797421D01*
X127550205Y-87931152D01*
X127568542Y-87992296D01*
X127582892Y-88026941D01*
X127593846Y-88047911D01*
X127665342Y-88184781D01*
X127791901Y-88344075D01*
X127947935Y-88474631D01*
X128127056Y-88571106D01*
X128161704Y-88585458D01*
X128344094Y-88641417D01*
X128546500Y-88662000D01*
X128546506Y-88662000D01*
X135783360Y-88662000D01*
X135878648Y-88680954D01*
X135959430Y-88734930D01*
X136013406Y-88815712D01*
X136032360Y-88911000D01*
X136013406Y-89006288D01*
X135999001Y-89035500D01*
X135942408Y-89133522D01*
X135842074Y-89375746D01*
X135774220Y-89628986D01*
X135740000Y-89888912D01*
X135740000Y-90151087D01*
X135774220Y-90411013D01*
X135842074Y-90664253D01*
X135942410Y-90906483D01*
X136073487Y-91133514D01*
X136233096Y-91341523D01*
X136418476Y-91526903D01*
X136626485Y-91686512D01*
X136626485Y-91686513D01*
X136853516Y-91817589D01*
X137095746Y-91917925D01*
X137348987Y-91985779D01*
X137348985Y-91985779D01*
X137608912Y-92020000D01*
X137871088Y-92020000D01*
X138131013Y-91985779D01*
X138384253Y-91917925D01*
X138626483Y-91817589D01*
X138853514Y-91686513D01*
X138853514Y-91686512D01*
X139061523Y-91526903D01*
X139246903Y-91341523D01*
X139406512Y-91133514D01*
X139406513Y-91133514D01*
X139537589Y-90906483D01*
X139637925Y-90664253D01*
X139705779Y-90411013D01*
X139740000Y-90151087D01*
X139740000Y-89888912D01*
X139705779Y-89628986D01*
X139637925Y-89375746D01*
X139537589Y-89133516D01*
X139406512Y-88906485D01*
X139246903Y-88698476D01*
X139061523Y-88513096D01*
X138853514Y-88353487D01*
X138853514Y-88353486D01*
X138626483Y-88222410D01*
X138384253Y-88122074D01*
X138131012Y-88054220D01*
X138131004Y-88054218D01*
X138083098Y-88047911D01*
X137991100Y-88016681D01*
X137918055Y-87952622D01*
X137875086Y-87865485D01*
X137867880Y-87775850D01*
X137867924Y-87775417D01*
X137885000Y-87607500D01*
X137885000Y-83873390D01*
X137903954Y-83778102D01*
X137957927Y-83697323D01*
X138690673Y-82964578D01*
X138747116Y-82886889D01*
X138764377Y-82863131D01*
X138764379Y-82863127D01*
X138764380Y-82863126D01*
X138817933Y-82789419D01*
X138916226Y-82596509D01*
X138955672Y-82475106D01*
X138983131Y-82390597D01*
X139017000Y-82176754D01*
X139017000Y-81960246D01*
X139017000Y-80690246D01*
X138983131Y-80476403D01*
X138928828Y-80309276D01*
X138919249Y-80279795D01*
X138917119Y-80272244D01*
X138916226Y-80270491D01*
X138817933Y-80077581D01*
X138802415Y-80056222D01*
X138802413Y-80056219D01*
X138802413Y-80056218D01*
X138709159Y-79927867D01*
X138690673Y-79902422D01*
X137775578Y-78987327D01*
X137753406Y-78971218D01*
X137600418Y-78860066D01*
X137407519Y-78761779D01*
X137407517Y-78761778D01*
X137407509Y-78761774D01*
X137407502Y-78761771D01*
X137407498Y-78761770D01*
X137201603Y-78694872D01*
X137201604Y-78694872D01*
X137201597Y-78694870D01*
X137201594Y-78694869D01*
X137201585Y-78694867D01*
X136987763Y-78661000D01*
X136987754Y-78661000D01*
X134137246Y-78661000D01*
X134137236Y-78661000D01*
X133923414Y-78694867D01*
X133923396Y-78694872D01*
X133717501Y-78761770D01*
X133717493Y-78761773D01*
X133717491Y-78761774D01*
X133717487Y-78761775D01*
X133717480Y-78761779D01*
X133524589Y-78860061D01*
X133524583Y-78860065D01*
X133524581Y-78860067D01*
X133445606Y-78917445D01*
X133357377Y-78958120D01*
X133355824Y-78958488D01*
X133327913Y-78965000D01*
X133302222Y-78965000D01*
X133212636Y-78971218D01*
X133069500Y-79004883D01*
X133069500Y-78004500D01*
X130506425Y-78004500D01*
X130450803Y-77924215D01*
X130293284Y-77766696D01*
X130110192Y-77639849D01*
X130110187Y-77639846D01*
X129907375Y-77547724D01*
X129691366Y-77493294D01*
X129691363Y-77493293D01*
X129560561Y-77483000D01*
X128958451Y-77483000D01*
X128827630Y-77493295D01*
X128611624Y-77547724D01*
X128408812Y-77639846D01*
X128408807Y-77639849D01*
X128225715Y-77766696D01*
X128068196Y-77924215D01*
X127941349Y-78107307D01*
X127941346Y-78107312D01*
X127849224Y-78310124D01*
X127794795Y-78526129D01*
X127793111Y-78547535D01*
X127766739Y-78641042D01*
X127706592Y-78717340D01*
X127621825Y-78764813D01*
X127544878Y-78777000D01*
X126006500Y-78777000D01*
X125816579Y-78795099D01*
X125686662Y-78834061D01*
X125621703Y-78853542D01*
X125587058Y-78867892D01*
X125429222Y-78950340D01*
X125429214Y-78950345D01*
X125323893Y-79034022D01*
X125237495Y-79078457D01*
X125140669Y-79086446D01*
X125048156Y-79056773D01*
X124974041Y-78993956D01*
X124929606Y-78907558D01*
X124920000Y-78839063D01*
X124920000Y-75411997D01*
X124919999Y-75411994D01*
X124909390Y-75292671D01*
X124909389Y-75292666D01*
X124853442Y-75097140D01*
X124853439Y-75097132D01*
X124759280Y-74916873D01*
X124759276Y-74916867D01*
X124630754Y-74759249D01*
X124630750Y-74759245D01*
X124473132Y-74630723D01*
X124473126Y-74630719D01*
X124292867Y-74536560D01*
X124292859Y-74536557D01*
X124097333Y-74480610D01*
X124097328Y-74480609D01*
X123978005Y-74470000D01*
X119861994Y-74470000D01*
X119742671Y-74480609D01*
X119742666Y-74480610D01*
X119547140Y-74536557D01*
X119547132Y-74536560D01*
X119366873Y-74630719D01*
X119366867Y-74630723D01*
X119209249Y-74759245D01*
X119209244Y-74759250D01*
X119086413Y-74909889D01*
X119056226Y-74934822D01*
X119028055Y-74962006D01*
X119019005Y-74965566D01*
X119011506Y-74971761D01*
X118974078Y-74983243D01*
X118937647Y-74997578D01*
X118927921Y-74997404D01*
X118918624Y-75000257D01*
X118879653Y-74996542D01*
X118840507Y-74995844D01*
X118831587Y-74991961D01*
X118821907Y-74991039D01*
X118787322Y-74972693D01*
X118751425Y-74957068D01*
X118744672Y-74950069D01*
X118736080Y-74945512D01*
X118711146Y-74915325D01*
X118683963Y-74887154D01*
X118680402Y-74878104D01*
X118674208Y-74870605D01*
X118662725Y-74833177D01*
X118648391Y-74796746D01*
X118648564Y-74787020D01*
X118645712Y-74777723D01*
X118650125Y-74699606D01*
X118650360Y-74698525D01*
X118667456Y-74619938D01*
X118677461Y-74585860D01*
X118739785Y-74418766D01*
X118754540Y-74386457D01*
X118812815Y-74279734D01*
X118840009Y-74229931D01*
X118859207Y-74200058D01*
X118966085Y-74057287D01*
X118989336Y-74030453D01*
X119115453Y-73904336D01*
X119142287Y-73881085D01*
X119285058Y-73774207D01*
X119314931Y-73755009D01*
X119471462Y-73669537D01*
X119503766Y-73654785D01*
X119670860Y-73592461D01*
X119704931Y-73582457D01*
X119879208Y-73544546D01*
X119914352Y-73539493D01*
X120076158Y-73527920D01*
X120101137Y-73526134D01*
X120118900Y-73525500D01*
X120175892Y-73525500D01*
X185894108Y-73525500D01*
X185951100Y-73525500D01*
X185968863Y-73526134D01*
G37*
G04 #@! TD.AperFunction*
G04 #@! TA.AperFunction,Conductor*
G36*
X118954788Y-88036458D02*
G01*
X119035570Y-88090434D01*
X119072845Y-88141199D01*
X119073354Y-88140864D01*
X119079966Y-88150897D01*
X119080206Y-88151224D01*
X119080302Y-88151407D01*
X119208891Y-88309109D01*
X119366593Y-88437698D01*
X119546951Y-88531909D01*
X119742582Y-88587886D01*
X119861963Y-88598500D01*
X120545501Y-88598499D01*
X120640788Y-88617453D01*
X120721569Y-88671429D01*
X120775546Y-88752210D01*
X120794500Y-88847499D01*
X120794500Y-98179588D01*
X120822213Y-98354553D01*
X120842803Y-98417925D01*
X120855018Y-98455517D01*
X120876958Y-98523042D01*
X120957386Y-98680890D01*
X121053370Y-98813001D01*
X121061517Y-98824214D01*
X121062164Y-98824861D01*
X130980070Y-108742767D01*
X131034046Y-108823549D01*
X131053000Y-108918837D01*
X131053000Y-109013095D01*
X131063298Y-109143942D01*
X131063298Y-109143945D01*
X131063298Y-109143948D01*
X131063299Y-109143949D01*
X131099883Y-109289137D01*
X131117750Y-109360041D01*
X131209907Y-109562932D01*
X131209908Y-109562933D01*
X131336815Y-109746111D01*
X131494389Y-109903685D01*
X131677567Y-110030592D01*
X131880462Y-110122751D01*
X131880465Y-110122751D01*
X131891013Y-110126443D01*
X131890366Y-110128291D01*
X131964457Y-110163451D01*
X132029609Y-110235523D01*
X132062220Y-110327041D01*
X132057327Y-110424073D01*
X132015674Y-110511846D01*
X131943602Y-110576998D01*
X131890774Y-110598887D01*
X131891175Y-110600032D01*
X131880634Y-110603719D01*
X131677812Y-110695846D01*
X131677807Y-110695849D01*
X131494715Y-110822696D01*
X131337196Y-110980215D01*
X131210349Y-111163307D01*
X131210346Y-111163312D01*
X131118224Y-111366124D01*
X131063794Y-111582133D01*
X131063793Y-111582136D01*
X131053500Y-111712932D01*
X131053500Y-112315048D01*
X131063795Y-112445869D01*
X131118225Y-112661879D01*
X131191194Y-112822523D01*
X131213345Y-112917119D01*
X131197609Y-113012991D01*
X131146382Y-113095544D01*
X131067463Y-113152208D01*
X130972867Y-113174359D01*
X130964486Y-113174500D01*
X125169499Y-113174500D01*
X125074211Y-113155546D01*
X124993429Y-113101570D01*
X124939453Y-113020788D01*
X124920499Y-112925500D01*
X124920499Y-112241968D01*
X124920498Y-112241956D01*
X124909886Y-112122585D01*
X124909886Y-112122582D01*
X124853909Y-111926951D01*
X124759698Y-111746593D01*
X124631109Y-111588891D01*
X124473407Y-111460302D01*
X124473402Y-111460299D01*
X124293053Y-111366093D01*
X124293052Y-111366092D01*
X124293049Y-111366091D01*
X124097418Y-111310114D01*
X123978037Y-111299500D01*
X123978035Y-111299500D01*
X119861968Y-111299500D01*
X119861956Y-111299501D01*
X119742585Y-111310113D01*
X119546954Y-111366090D01*
X119546946Y-111366093D01*
X119366597Y-111460299D01*
X119366592Y-111460302D01*
X119208893Y-111588889D01*
X119208889Y-111588893D01*
X119080302Y-111746592D01*
X119080299Y-111746597D01*
X119080203Y-111746782D01*
X119080063Y-111746954D01*
X119073354Y-111757136D01*
X119072383Y-111756496D01*
X119019285Y-111822466D01*
X118934041Y-111869076D01*
X118837448Y-111879517D01*
X118744213Y-111852198D01*
X118668529Y-111791280D01*
X118621919Y-111706036D01*
X118610500Y-111631495D01*
X118610500Y-109348504D01*
X118629454Y-109253216D01*
X118683430Y-109172434D01*
X118764212Y-109118458D01*
X118859500Y-109099504D01*
X118954788Y-109118458D01*
X119035570Y-109172434D01*
X119072845Y-109223199D01*
X119073354Y-109222864D01*
X119079966Y-109232897D01*
X119080206Y-109233224D01*
X119080302Y-109233407D01*
X119208891Y-109391109D01*
X119366593Y-109519698D01*
X119546951Y-109613909D01*
X119742582Y-109669886D01*
X119861963Y-109680500D01*
X123978036Y-109680499D01*
X124097418Y-109669886D01*
X124293049Y-109613909D01*
X124473407Y-109519698D01*
X124631109Y-109391109D01*
X124759698Y-109233407D01*
X124853909Y-109053049D01*
X124909886Y-108857418D01*
X124920500Y-108738037D01*
X124920499Y-104621964D01*
X124909886Y-104502582D01*
X124853909Y-104306951D01*
X124759698Y-104126593D01*
X124631109Y-103968891D01*
X124473407Y-103840302D01*
X124473402Y-103840299D01*
X124293053Y-103746093D01*
X124293052Y-103746092D01*
X124293049Y-103746091D01*
X124097418Y-103690114D01*
X123978037Y-103679500D01*
X123978035Y-103679500D01*
X119861968Y-103679500D01*
X119861956Y-103679501D01*
X119742585Y-103690113D01*
X119546954Y-103746090D01*
X119546946Y-103746093D01*
X119366597Y-103840299D01*
X119366592Y-103840302D01*
X119208893Y-103968889D01*
X119208889Y-103968893D01*
X119080302Y-104126592D01*
X119080299Y-104126597D01*
X119080203Y-104126782D01*
X119080063Y-104126954D01*
X119073354Y-104137136D01*
X119072383Y-104136496D01*
X119019285Y-104202466D01*
X118934041Y-104249076D01*
X118837448Y-104259517D01*
X118744213Y-104232198D01*
X118668529Y-104171280D01*
X118621919Y-104086036D01*
X118610500Y-104011495D01*
X118610500Y-88266504D01*
X118629454Y-88171216D01*
X118683430Y-88090434D01*
X118764212Y-88036458D01*
X118859500Y-88017504D01*
X118954788Y-88036458D01*
G37*
G04 #@! TD.AperFunction*
M02*
